%TF.GenerationSoftware,KiCad,Pcbnew,10.0.5*%
%TF.CreationDate,2026-07-25T13:44:19-04:00*%
%TF.ProjectId,smart-doorbell,736d6172-742d-4646-9f6f-7262656c6c2e,C*%
%TF.SameCoordinates,Original*%
%TF.FileFunction,Legend,Bot*%
%TF.FilePolarity,Positive*%
%FSLAX46Y46*%
G04 Gerber Fmt 4.6, Leading zero omitted, Abs format (unit mm)*
G04 Created by KiCad (PCBNEW 10.0.5) date 2026-07-25 13:44:19*
%MOMM*%
%LPD*%
G01*
G04 APERTURE LIST*
G04 Aperture macros list*
%AMRoundRect*
0 Rectangle with rounded corners*
0 $1 Rounding radius*
0 $2 $3 $4 $5 $6 $7 $8 $9 X,Y pos of 4 corners*
0 Add a 4 corners polygon primitive as box body*
4,1,4,$2,$3,$4,$5,$6,$7,$8,$9,$2,$3,0*
0 Add four circle primitives for the rounded corners*
1,1,$1+$1,$2,$3*
1,1,$1+$1,$4,$5*
1,1,$1+$1,$6,$7*
1,1,$1+$1,$8,$9*
0 Add four rect primitives between the rounded corners*
20,1,$1+$1,$2,$3,$4,$5,0*
20,1,$1+$1,$4,$5,$6,$7,0*
20,1,$1+$1,$6,$7,$8,$9,0*
20,1,$1+$1,$8,$9,$2,$3,0*%
G04 Aperture macros list end*
%ADD10C,0.100000*%
%ADD11RoundRect,0.250000X-0.350000X-0.625000X0.350000X-0.625000X0.350000X0.625000X-0.350000X0.625000X0*%
%ADD12O,1.200000X1.750000*%
%ADD13C,0.500000*%
%ADD14C,2.700000*%
%ADD15C,0.650000*%
%ADD16O,1.000000X2.100000*%
%ADD17O,1.000000X1.600000*%
%ADD18R,1.700000X1.700000*%
%ADD19C,1.700000*%
%ADD20RoundRect,0.250000X-0.675000X-0.675000X0.675000X-0.675000X0.675000X0.675000X-0.675000X0.675000X0*%
%ADD21C,1.850000*%
G04 APERTURE END LIST*
D10*
X112678571Y-92128637D02*
X112678571Y-91628637D01*
X112678571Y-91628637D02*
X112511904Y-91985780D01*
X112511904Y-91985780D02*
X112345238Y-91628637D01*
X112345238Y-91628637D02*
X112345238Y-92128637D01*
X112107142Y-92128637D02*
X112107142Y-91628637D01*
X111583333Y-92081018D02*
X111607142Y-92104828D01*
X111607142Y-92104828D02*
X111678571Y-92128637D01*
X111678571Y-92128637D02*
X111726190Y-92128637D01*
X111726190Y-92128637D02*
X111797618Y-92104828D01*
X111797618Y-92104828D02*
X111845237Y-92057208D01*
X111845237Y-92057208D02*
X111869047Y-92009589D01*
X111869047Y-92009589D02*
X111892856Y-91914351D01*
X111892856Y-91914351D02*
X111892856Y-91842923D01*
X111892856Y-91842923D02*
X111869047Y-91747685D01*
X111869047Y-91747685D02*
X111845237Y-91700066D01*
X111845237Y-91700066D02*
X111797618Y-91652447D01*
X111797618Y-91652447D02*
X111726190Y-91628637D01*
X111726190Y-91628637D02*
X111678571Y-91628637D01*
X111678571Y-91628637D02*
X111607142Y-91652447D01*
X111607142Y-91652447D02*
X111583333Y-91676256D01*
X110988095Y-92128637D02*
X110988095Y-91628637D01*
X110988095Y-91628637D02*
X110797619Y-91628637D01*
X110797619Y-91628637D02*
X110750000Y-91652447D01*
X110750000Y-91652447D02*
X110726190Y-91676256D01*
X110726190Y-91676256D02*
X110702381Y-91723875D01*
X110702381Y-91723875D02*
X110702381Y-91795304D01*
X110702381Y-91795304D02*
X110726190Y-91842923D01*
X110726190Y-91842923D02*
X110750000Y-91866732D01*
X110750000Y-91866732D02*
X110797619Y-91890542D01*
X110797619Y-91890542D02*
X110988095Y-91890542D01*
X110392857Y-91628637D02*
X110297619Y-91628637D01*
X110297619Y-91628637D02*
X110250000Y-91652447D01*
X110250000Y-91652447D02*
X110202381Y-91700066D01*
X110202381Y-91700066D02*
X110178571Y-91795304D01*
X110178571Y-91795304D02*
X110178571Y-91961970D01*
X110178571Y-91961970D02*
X110202381Y-92057208D01*
X110202381Y-92057208D02*
X110250000Y-92104828D01*
X110250000Y-92104828D02*
X110297619Y-92128637D01*
X110297619Y-92128637D02*
X110392857Y-92128637D01*
X110392857Y-92128637D02*
X110440476Y-92104828D01*
X110440476Y-92104828D02*
X110488095Y-92057208D01*
X110488095Y-92057208D02*
X110511904Y-91961970D01*
X110511904Y-91961970D02*
X110511904Y-91795304D01*
X110511904Y-91795304D02*
X110488095Y-91700066D01*
X110488095Y-91700066D02*
X110440476Y-91652447D01*
X110440476Y-91652447D02*
X110392857Y-91628637D01*
X109678571Y-92128637D02*
X109845237Y-91890542D01*
X109964285Y-92128637D02*
X109964285Y-91628637D01*
X109964285Y-91628637D02*
X109773809Y-91628637D01*
X109773809Y-91628637D02*
X109726190Y-91652447D01*
X109726190Y-91652447D02*
X109702380Y-91676256D01*
X109702380Y-91676256D02*
X109678571Y-91723875D01*
X109678571Y-91723875D02*
X109678571Y-91795304D01*
X109678571Y-91795304D02*
X109702380Y-91842923D01*
X109702380Y-91842923D02*
X109726190Y-91866732D01*
X109726190Y-91866732D02*
X109773809Y-91890542D01*
X109773809Y-91890542D02*
X109964285Y-91890542D01*
X109535713Y-91628637D02*
X109249999Y-91628637D01*
X109392856Y-92128637D02*
X109392856Y-91628637D01*
X113690476Y-92933609D02*
X113690476Y-92433609D01*
X113690476Y-92433609D02*
X113571428Y-92433609D01*
X113571428Y-92433609D02*
X113500000Y-92457419D01*
X113500000Y-92457419D02*
X113452381Y-92505038D01*
X113452381Y-92505038D02*
X113428571Y-92552657D01*
X113428571Y-92552657D02*
X113404762Y-92647895D01*
X113404762Y-92647895D02*
X113404762Y-92719323D01*
X113404762Y-92719323D02*
X113428571Y-92814561D01*
X113428571Y-92814561D02*
X113452381Y-92862180D01*
X113452381Y-92862180D02*
X113500000Y-92909800D01*
X113500000Y-92909800D02*
X113571428Y-92933609D01*
X113571428Y-92933609D02*
X113690476Y-92933609D01*
X113095238Y-92433609D02*
X113000000Y-92433609D01*
X113000000Y-92433609D02*
X112952381Y-92457419D01*
X112952381Y-92457419D02*
X112904762Y-92505038D01*
X112904762Y-92505038D02*
X112880952Y-92600276D01*
X112880952Y-92600276D02*
X112880952Y-92766942D01*
X112880952Y-92766942D02*
X112904762Y-92862180D01*
X112904762Y-92862180D02*
X112952381Y-92909800D01*
X112952381Y-92909800D02*
X113000000Y-92933609D01*
X113000000Y-92933609D02*
X113095238Y-92933609D01*
X113095238Y-92933609D02*
X113142857Y-92909800D01*
X113142857Y-92909800D02*
X113190476Y-92862180D01*
X113190476Y-92862180D02*
X113214285Y-92766942D01*
X113214285Y-92766942D02*
X113214285Y-92600276D01*
X113214285Y-92600276D02*
X113190476Y-92505038D01*
X113190476Y-92505038D02*
X113142857Y-92457419D01*
X113142857Y-92457419D02*
X113095238Y-92433609D01*
X112285714Y-92933609D02*
X112285714Y-92433609D01*
X112285714Y-92433609D02*
X112000000Y-92933609D01*
X112000000Y-92933609D02*
X112000000Y-92433609D01*
X111666666Y-92433609D02*
X111571428Y-92433609D01*
X111571428Y-92433609D02*
X111523809Y-92457419D01*
X111523809Y-92457419D02*
X111476190Y-92505038D01*
X111476190Y-92505038D02*
X111452380Y-92600276D01*
X111452380Y-92600276D02*
X111452380Y-92766942D01*
X111452380Y-92766942D02*
X111476190Y-92862180D01*
X111476190Y-92862180D02*
X111523809Y-92909800D01*
X111523809Y-92909800D02*
X111571428Y-92933609D01*
X111571428Y-92933609D02*
X111666666Y-92933609D01*
X111666666Y-92933609D02*
X111714285Y-92909800D01*
X111714285Y-92909800D02*
X111761904Y-92862180D01*
X111761904Y-92862180D02*
X111785713Y-92766942D01*
X111785713Y-92766942D02*
X111785713Y-92600276D01*
X111785713Y-92600276D02*
X111761904Y-92505038D01*
X111761904Y-92505038D02*
X111714285Y-92457419D01*
X111714285Y-92457419D02*
X111666666Y-92433609D01*
X111309522Y-92433609D02*
X111023808Y-92433609D01*
X111166665Y-92933609D02*
X111166665Y-92433609D01*
X110190476Y-92885990D02*
X110214285Y-92909800D01*
X110214285Y-92909800D02*
X110285714Y-92933609D01*
X110285714Y-92933609D02*
X110333333Y-92933609D01*
X110333333Y-92933609D02*
X110404761Y-92909800D01*
X110404761Y-92909800D02*
X110452380Y-92862180D01*
X110452380Y-92862180D02*
X110476190Y-92814561D01*
X110476190Y-92814561D02*
X110499999Y-92719323D01*
X110499999Y-92719323D02*
X110499999Y-92647895D01*
X110499999Y-92647895D02*
X110476190Y-92552657D01*
X110476190Y-92552657D02*
X110452380Y-92505038D01*
X110452380Y-92505038D02*
X110404761Y-92457419D01*
X110404761Y-92457419D02*
X110333333Y-92433609D01*
X110333333Y-92433609D02*
X110285714Y-92433609D01*
X110285714Y-92433609D02*
X110214285Y-92457419D01*
X110214285Y-92457419D02*
X110190476Y-92481228D01*
X109880952Y-92433609D02*
X109785714Y-92433609D01*
X109785714Y-92433609D02*
X109738095Y-92457419D01*
X109738095Y-92457419D02*
X109690476Y-92505038D01*
X109690476Y-92505038D02*
X109666666Y-92600276D01*
X109666666Y-92600276D02*
X109666666Y-92766942D01*
X109666666Y-92766942D02*
X109690476Y-92862180D01*
X109690476Y-92862180D02*
X109738095Y-92909800D01*
X109738095Y-92909800D02*
X109785714Y-92933609D01*
X109785714Y-92933609D02*
X109880952Y-92933609D01*
X109880952Y-92933609D02*
X109928571Y-92909800D01*
X109928571Y-92909800D02*
X109976190Y-92862180D01*
X109976190Y-92862180D02*
X109999999Y-92766942D01*
X109999999Y-92766942D02*
X109999999Y-92600276D01*
X109999999Y-92600276D02*
X109976190Y-92505038D01*
X109976190Y-92505038D02*
X109928571Y-92457419D01*
X109928571Y-92457419D02*
X109880952Y-92433609D01*
X109523808Y-92433609D02*
X109357142Y-92933609D01*
X109357142Y-92933609D02*
X109190475Y-92433609D01*
X109023809Y-92671704D02*
X108857142Y-92671704D01*
X108785714Y-92933609D02*
X109023809Y-92933609D01*
X109023809Y-92933609D02*
X109023809Y-92433609D01*
X109023809Y-92433609D02*
X108785714Y-92433609D01*
X108285714Y-92933609D02*
X108452380Y-92695514D01*
X108571428Y-92933609D02*
X108571428Y-92433609D01*
X108571428Y-92433609D02*
X108380952Y-92433609D01*
X108380952Y-92433609D02*
X108333333Y-92457419D01*
X108333333Y-92457419D02*
X108309523Y-92481228D01*
X108309523Y-92481228D02*
X108285714Y-92528847D01*
X108285714Y-92528847D02*
X108285714Y-92600276D01*
X108285714Y-92600276D02*
X108309523Y-92647895D01*
X108309523Y-92647895D02*
X108333333Y-92671704D01*
X108333333Y-92671704D02*
X108380952Y-92695514D01*
X108380952Y-92695514D02*
X108571428Y-92695514D01*
%LPC*%
D11*
%TO.C,J7*%
X155250000Y-86450000D03*
D12*
X157250000Y-86450000D03*
X159250000Y-86450000D03*
%TD*%
D13*
%TO.C,MK1*%
X110950000Y-90152000D03*
%TD*%
D14*
%TO.C,H3*%
X111050000Y-128825000D03*
%TD*%
%TO.C,H4*%
X162450000Y-128825000D03*
%TD*%
D11*
%TO.C,J8*%
X133650000Y-122100000D03*
D12*
X135650000Y-122100000D03*
X137650000Y-122100000D03*
X139650000Y-122100000D03*
%TD*%
D15*
%TO.C,J2*%
X133960000Y-140850000D03*
X139740000Y-140850000D03*
D16*
X132530000Y-140320000D03*
D17*
X132530000Y-144500000D03*
D16*
X141170000Y-140320000D03*
D17*
X141170000Y-144500000D03*
%TD*%
D11*
%TO.C,J6*%
X115550000Y-98000000D03*
D12*
X117550000Y-98000000D03*
%TD*%
D11*
%TO.C,J1*%
X158441813Y-114370974D03*
D12*
X160441813Y-114370974D03*
%TD*%
D18*
%TO.C,J4*%
X159350000Y-94210000D03*
D19*
X159350000Y-96750000D03*
X159350000Y-99290000D03*
X159350000Y-101830000D03*
X159350000Y-104370000D03*
X159350000Y-106910000D03*
%TD*%
D18*
%TO.C,J9*%
X112990000Y-117630000D03*
D19*
X115530000Y-117630000D03*
X118070000Y-117630000D03*
X120610000Y-117630000D03*
%TD*%
D14*
%TO.C,H2*%
X162450000Y-71425000D03*
%TD*%
D20*
%TO.C,J5*%
X142330000Y-128900000D03*
D21*
X146530000Y-128900000D03*
%TD*%
D14*
%TO.C,H1*%
X111050000Y-71425000D03*
%TD*%
%LPD*%
M02*
