%TF.GenerationSoftware,KiCad,Pcbnew,10.0.5*%
%TF.CreationDate,2026-07-25T13:44:19-04:00*%
%TF.ProjectId,smart-doorbell,736d6172-742d-4646-9f6f-7262656c6c2e,C*%
%TF.SameCoordinates,Original*%
%TF.FileFunction,Copper,L2,Bot*%
%TF.FilePolarity,Positive*%
%FSLAX46Y46*%
G04 Gerber Fmt 4.6, Leading zero omitted, Abs format (unit mm)*
G04 Created by KiCad (PCBNEW 10.0.5) date 2026-07-25 13:44:19*
%MOMM*%
%LPD*%
G01*
G04 APERTURE LIST*
G04 Aperture macros list*
%AMRoundRect*
0 Rectangle with rounded corners*
0 $1 Rounding radius*
0 $2 $3 $4 $5 $6 $7 $8 $9 X,Y pos of 4 corners*
0 Add a 4 corners polygon primitive as box body*
4,1,4,$2,$3,$4,$5,$6,$7,$8,$9,$2,$3,0*
0 Add four circle primitives for the rounded corners*
1,1,$1+$1,$2,$3*
1,1,$1+$1,$4,$5*
1,1,$1+$1,$6,$7*
1,1,$1+$1,$8,$9*
0 Add four rect primitives between the rounded corners*
20,1,$1+$1,$2,$3,$4,$5,0*
20,1,$1+$1,$4,$5,$6,$7,0*
20,1,$1+$1,$6,$7,$8,$9,0*
20,1,$1+$1,$8,$9,$2,$3,0*%
G04 Aperture macros list end*
%TA.AperFunction,ComponentPad*%
%ADD10RoundRect,0.250000X-0.350000X-0.625000X0.350000X-0.625000X0.350000X0.625000X-0.350000X0.625000X0*%
%TD*%
%TA.AperFunction,ComponentPad*%
%ADD11O,1.200000X1.750000*%
%TD*%
%TA.AperFunction,ComponentPad*%
%ADD12O,1.000000X2.100000*%
%TD*%
%TA.AperFunction,ComponentPad*%
%ADD13O,1.000000X1.600000*%
%TD*%
%TA.AperFunction,HeatsinkPad*%
%ADD14C,0.600000*%
%TD*%
%TA.AperFunction,ComponentPad*%
%ADD15R,1.700000X1.700000*%
%TD*%
%TA.AperFunction,ComponentPad*%
%ADD16C,1.700000*%
%TD*%
%TA.AperFunction,ComponentPad*%
%ADD17RoundRect,0.250000X-0.675000X-0.675000X0.675000X-0.675000X0.675000X0.675000X-0.675000X0.675000X0*%
%TD*%
%TA.AperFunction,ComponentPad*%
%ADD18C,1.850000*%
%TD*%
%TA.AperFunction,ViaPad*%
%ADD19C,0.600000*%
%TD*%
%TA.AperFunction,Conductor*%
%ADD20C,0.400000*%
%TD*%
%TA.AperFunction,Conductor*%
%ADD21C,0.250000*%
%TD*%
%TA.AperFunction,Conductor*%
%ADD22C,0.800000*%
%TD*%
%TA.AperFunction,Conductor*%
%ADD23C,0.200000*%
%TD*%
G04 APERTURE END LIST*
D10*
%TO.P,J7,1,Pin_1_1*%
%TO.N,+3V3*%
X155250000Y-86450000D03*
D11*
%TO.P,J7,2,Pin_2_2*%
%TO.N,/PIR_SENSOR_OUT*%
X157250000Y-86450000D03*
%TO.P,J7,3,Pin_3_3*%
%TO.N,GND*%
X159250000Y-86450000D03*
%TD*%
D10*
%TO.P,J8,1,Pin_1_1*%
%TO.N,/DOORBELL_IN*%
X133650000Y-122100000D03*
D11*
%TO.P,J8,2,Pin_2_2*%
%TO.N,GND*%
X135650000Y-122100000D03*
%TO.P,J8,3,Pin_3_3*%
%TO.N,Net-(J8-Pin_3)*%
X137650000Y-122100000D03*
%TO.P,J8,4,Pin_4_4*%
%TO.N,GND*%
X139650000Y-122100000D03*
%TD*%
D12*
%TO.P,J2,SH,SHIELD_SH*%
%TO.N,GND*%
X132530000Y-140320000D03*
D13*
X132530000Y-144500000D03*
D12*
X141170000Y-140320000D03*
D13*
X141170000Y-144500000D03*
%TD*%
D10*
%TO.P,J6,1,Pin_1_1*%
%TO.N,/OUTP*%
X115550000Y-98000000D03*
D11*
%TO.P,J6,2,Pin_2_2*%
%TO.N,/OUTN*%
X117550000Y-98000000D03*
%TD*%
D14*
%TO.P,U1,41,GND_41*%
%TO.N,GND*%
X133710000Y-70960000D03*
X133710000Y-72360000D03*
X134410000Y-70260000D03*
X134410000Y-71660000D03*
X134410000Y-73060000D03*
X135110000Y-70960000D03*
X135110000Y-72360000D03*
X135810000Y-70260000D03*
X135810000Y-71660000D03*
X135810000Y-73060000D03*
X136510000Y-70960000D03*
X136510000Y-72360000D03*
%TD*%
D10*
%TO.P,J1,1,Pin_1_1*%
%TO.N,+BATT*%
X158441813Y-114370974D03*
D11*
%TO.P,J1,2,Pin_2_2*%
%TO.N,GND*%
X160441813Y-114370974D03*
%TD*%
D15*
%TO.P,J4,1,Pin_1_1*%
%TO.N,+3V3*%
X159350000Y-94210000D03*
D16*
%TO.P,J4,2,Pin_2_2*%
%TO.N,GND*%
X159350000Y-96750000D03*
%TO.P,J4,3,Pin_3_3*%
X159350000Y-99290000D03*
%TO.P,J4,4,Pin_4_4*%
%TO.N,/GPIO4*%
X159350000Y-101830000D03*
%TO.P,J4,5,Pin_5_5*%
%TO.N,/GPIO5*%
X159350000Y-104370000D03*
%TO.P,J4,6,Pin_6_6*%
%TO.N,/GPIO6*%
X159350000Y-106910000D03*
%TD*%
D15*
%TO.P,J9,1,Pin_1_1*%
%TO.N,/SYS*%
X112990000Y-117630000D03*
D16*
%TO.P,J9,2,Pin_2_2*%
%TO.N,GND*%
X115530000Y-117630000D03*
%TO.P,J9,3,Pin_3_3*%
%TO.N,Net-(J9-Pin_3)*%
X118070000Y-117630000D03*
%TO.P,J9,4,Pin_4_4*%
%TO.N,Net-(J9-Pin_4)*%
X120610000Y-117630000D03*
%TD*%
D17*
%TO.P,J5,1,Pin_1_1*%
%TO.N,/BATT_THERM*%
X142330000Y-128900000D03*
D18*
%TO.P,J5,2,Pin_2_2*%
%TO.N,GND*%
X146530000Y-128900000D03*
%TD*%
D19*
%TO.N,GND*%
X124750000Y-109500000D03*
X149850000Y-65525000D03*
X124450000Y-63950000D03*
X114100001Y-108900001D03*
X143500000Y-100500000D03*
X153400000Y-109250000D03*
X133584999Y-96859999D03*
X115950000Y-95250000D03*
X151850000Y-88250000D03*
X120650000Y-66450000D03*
X114230000Y-115630000D03*
X153475000Y-121600000D03*
X151750000Y-106150000D03*
X121805757Y-99807109D03*
X120050000Y-70750000D03*
X116612500Y-108650000D03*
X140650000Y-115450000D03*
X151700000Y-115350000D03*
X137850000Y-135950000D03*
X112050000Y-91450000D03*
X133650000Y-114950000D03*
X116004482Y-112896393D03*
X151700000Y-112850000D03*
X141825000Y-96980000D03*
X137550000Y-126150000D03*
X120025000Y-79150000D03*
X127300000Y-120350000D03*
X122050000Y-69950000D03*
X148025000Y-106150000D03*
X136350000Y-137950000D03*
X147750000Y-63950000D03*
X129000000Y-111750000D03*
X120659799Y-63998577D03*
X156850000Y-93450000D03*
X126650000Y-92350000D03*
X155125000Y-115450000D03*
X121350000Y-89850000D03*
X131337476Y-98434289D03*
X131334998Y-96830000D03*
X156325000Y-109225000D03*
X124699998Y-95450000D03*
X135650000Y-120500000D03*
X151550000Y-70150000D03*
X148350000Y-90950000D03*
X156250000Y-106150000D03*
X138405355Y-95100000D03*
X114150000Y-88600000D03*
X154790000Y-83410000D03*
X121825000Y-94911744D03*
X155125000Y-117100000D03*
X147250000Y-124350000D03*
X134750000Y-103050000D03*
X130737500Y-111750000D03*
X124950000Y-89850000D03*
X144650000Y-120350000D03*
X141835000Y-98520000D03*
X138479998Y-98500000D03*
X151450000Y-65550000D03*
X143750000Y-117550000D03*
%TO.N,Net-(U2-PROG1)*%
X154350000Y-112850000D03*
X156450000Y-118300000D03*
%TO.N,+3V3*%
X117950000Y-78150000D03*
X136713854Y-135913854D03*
X139250000Y-112000000D03*
X153840000Y-76940000D03*
X146620730Y-97707175D03*
X115516357Y-85025166D03*
X156750000Y-102650000D03*
X109865000Y-109588078D03*
X136750000Y-133150000D03*
X126350000Y-108950000D03*
X116150000Y-90150000D03*
X119350000Y-68150000D03*
%TO.N,/SYS*%
X123750000Y-107750000D03*
X112430000Y-112330000D03*
X127900000Y-136750000D03*
X119550000Y-115350000D03*
X155125000Y-113250000D03*
X110465000Y-107830000D03*
X147900000Y-136950000D03*
X124250000Y-117750000D03*
X157221767Y-118656200D03*
X144050000Y-110450000D03*
X144050000Y-113550000D03*
%TO.N,/CAM_RST_2V8*%
X146420000Y-96875000D03*
X133472338Y-95605000D03*
X127950000Y-95550000D03*
%TO.N,/PIR_WAKE*%
X159995000Y-81315000D03*
X143170000Y-80130000D03*
%TO.N,+1V5*%
X135873664Y-108541555D03*
X135950000Y-104850000D03*
%TO.N,Net-(RESET1-B)*%
X149050000Y-69050000D03*
X130150000Y-66480000D03*
X122769504Y-77469504D03*
X125502222Y-67306969D03*
%TO.N,/DOORBELL_IN*%
X141550000Y-120850000D03*
X153240000Y-85170000D03*
%TO.N,/GPIO4*%
X118710000Y-114440000D03*
X110150000Y-100250000D03*
X147440000Y-102360000D03*
X114810000Y-101600000D03*
X115329798Y-113565202D03*
%TO.N,/GPIO5*%
X115860000Y-104560000D03*
X112850000Y-92850000D03*
X112640000Y-97640000D03*
X112775000Y-89850000D03*
X111850000Y-84650000D03*
X145240000Y-103160000D03*
%TO.N,/GPIO6*%
X124354502Y-70110128D03*
X121150000Y-72750000D03*
X161650000Y-106850000D03*
%TO.N,/CAM_SCL*%
X132370000Y-98440000D03*
X134330000Y-89080000D03*
X141700000Y-86040000D03*
X132850000Y-91550000D03*
X143570000Y-74090000D03*
X132420000Y-96330000D03*
%TO.N,+2V8*%
X137950000Y-101050000D03*
X140450000Y-101050000D03*
X117850000Y-75750000D03*
X131500000Y-92250000D03*
X124731342Y-96700000D03*
X128750000Y-94000000D03*
%TO.N,/CAM_PWDN_2V8*%
X134410000Y-94950000D03*
X127903808Y-94751332D03*
%TO.N,/GPIO43_AUX*%
X108850000Y-116860000D03*
X113930000Y-80860000D03*
X119670000Y-85420000D03*
X138710000Y-75180000D03*
%TO.N,Net-(J9-Pin_4)*%
X118640000Y-120080000D03*
%TO.N,/CAM_XCLK_2V8*%
X145160000Y-95070000D03*
X141300000Y-95220000D03*
%TO.N,/U5_IO2*%
X139850000Y-133850000D03*
X138150000Y-133850000D03*
%TO.N,Net-(BOOT1-A)*%
X146960000Y-78320000D03*
X149780000Y-77030000D03*
%TO.N,+5V*%
X130480000Y-134450000D03*
X145150000Y-133280000D03*
X143880000Y-134550000D03*
X147025000Y-118950000D03*
X145150000Y-134550000D03*
X130480000Y-133180000D03*
X131750000Y-134450000D03*
X131750000Y-133180000D03*
X143880000Y-133280000D03*
X147350000Y-114850000D03*
%TO.N,/CAM_RST*%
X147460000Y-95070000D03*
X147070000Y-81740000D03*
%TO.N,Net-(J3-CAM23_AF_GND)*%
X143080000Y-95910000D03*
X145080000Y-97335000D03*
X144690000Y-100940000D03*
X144620000Y-95960000D03*
%TO.N,/CAM_D2*%
X140650000Y-78650000D03*
X141830000Y-90425981D03*
%TO.N,/CAM_D1*%
X139690000Y-78610000D03*
X140887460Y-90527982D03*
%TO.N,/CAM_D3*%
X138763523Y-78623882D03*
X140047024Y-90400812D03*
%TO.N,/CAM_D0*%
X139198277Y-90446988D03*
X137860883Y-78525000D03*
%TO.N,/CAM_D4*%
X136900000Y-78575000D03*
X138474319Y-90001579D03*
%TO.N,/CAM_PCLK*%
X137228716Y-90884351D03*
X134827292Y-85103401D03*
%TO.N,/CAM_D5*%
X136979241Y-91696919D03*
X133420000Y-84260000D03*
%TO.N,/CAM_D6*%
X135520000Y-92550000D03*
X136993242Y-92546806D03*
%TO.N,/CAM_HREF*%
X134200000Y-85980000D03*
X136080000Y-80449998D03*
%TO.N,/CAM_VSYNC*%
X140830000Y-77390000D03*
X131160000Y-86340000D03*
%TO.N,/CAM_SDA*%
X130230000Y-86320000D03*
X142150000Y-75350000D03*
X125650000Y-72250000D03*
X142140000Y-76750000D03*
%TO.N,Net-(J8-Pin_3)*%
X142250000Y-122450000D03*
X151350000Y-93950000D03*
%TO.N,/BATT_THERM*%
X145450000Y-125130000D03*
%TO.N,Net-(D2-K)*%
X156600000Y-120350000D03*
X155150000Y-119950000D03*
%TO.N,/OUTP*%
X120390000Y-107650000D03*
X119230000Y-111030000D03*
%TO.N,Net-(D2-A)*%
X156535202Y-121239798D03*
X151350000Y-124750000D03*
%TO.N,/CAM_XCLK*%
X135971586Y-84019733D03*
X146160000Y-86160000D03*
%TO.N,/CAM_PWDN*%
X132469645Y-79660000D03*
X126950000Y-82940000D03*
%TO.N,/GPIO42_AUX*%
X140170000Y-75940000D03*
X154435000Y-81010000D03*
X113960000Y-82000000D03*
X119700000Y-86510000D03*
X118630000Y-124410000D03*
X109750575Y-116212461D03*
X148470000Y-81750000D03*
X130850000Y-121170000D03*
%TO.N,/AMP_EN*%
X152250000Y-89150000D03*
X119280000Y-116440000D03*
%TO.N,Net-(J9-Pin_3)*%
X116710000Y-120200000D03*
%TD*%
%TO.N,GND*%
D20*
X124750000Y-109500000D02*
X126250000Y-111000000D01*
X126250000Y-111000000D02*
X128250000Y-111000000D01*
X128250000Y-111000000D02*
X129000000Y-111750000D01*
%TO.N,/SYS*%
D21*
X144050000Y-110450000D02*
X140250000Y-114250000D01*
X140250000Y-114250000D02*
X137650000Y-114250000D01*
X137650000Y-114250000D02*
X133650000Y-110250000D01*
X133650000Y-110250000D02*
X126500000Y-110250000D01*
X126500000Y-110250000D02*
X124000000Y-107750000D01*
X124000000Y-107750000D02*
X123750000Y-107750000D01*
%TO.N,+2V8*%
D20*
X122135661Y-94161744D02*
X122575000Y-94601083D01*
X121885661Y-95920000D02*
X121264339Y-95920000D01*
X118750000Y-89350000D02*
X121240000Y-91840000D01*
%TO.N,+3V3*%
X121412205Y-99140000D02*
X121495096Y-99057109D01*
%TO.N,GND*%
X129350000Y-100750000D02*
X128550000Y-99950000D01*
X132450000Y-100750000D02*
X129350000Y-100750000D01*
%TO.N,+3V3*%
X132370000Y-99740000D02*
X133360000Y-100730000D01*
X119750000Y-97850000D02*
X121040000Y-99140000D01*
%TO.N,+2V8*%
X117850000Y-75750000D02*
X118750000Y-76650000D01*
%TO.N,GND*%
X121514688Y-95061744D02*
X121887133Y-95061744D01*
%TO.N,+2V8*%
X121240000Y-95895661D02*
X121240000Y-96850000D01*
X122575000Y-94601083D02*
X122575000Y-95222405D01*
%TO.N,+3V3*%
X121495096Y-99057109D02*
X122116418Y-99057109D01*
%TO.N,+2V8*%
X121240000Y-91840000D02*
X121240000Y-94282297D01*
%TO.N,GND*%
X121887133Y-95061744D02*
X121973453Y-94975424D01*
%TO.N,+2V8*%
X121953566Y-95852095D02*
X121885661Y-95920000D01*
%TO.N,GND*%
X120640000Y-97098528D02*
X120640000Y-95647133D01*
%TO.N,+2V8*%
X124628400Y-96850000D02*
X124731342Y-96747058D01*
%TO.N,GND*%
X121280771Y-95295661D02*
X121514688Y-95061744D01*
X121973453Y-94975424D02*
X121888680Y-94975424D01*
X122404189Y-96250000D02*
X124120681Y-96250000D01*
%TO.N,+2V8*%
X121748072Y-95770000D02*
X121871471Y-95770000D01*
%TO.N,GND*%
X122553566Y-96100623D02*
X122404189Y-96250000D01*
X124420681Y-95950000D02*
X125042003Y-95950000D01*
X120991472Y-97450000D02*
X120640000Y-97098528D01*
X125481342Y-96432814D02*
X125650000Y-96601472D01*
X124699998Y-95450000D02*
X123175000Y-95450000D01*
X125481342Y-96389339D02*
X125481342Y-96432814D01*
X121888680Y-94975424D02*
X121825000Y-94911744D01*
%TO.N,+2V8*%
X121763216Y-95661744D02*
X121859430Y-95757958D01*
X121514339Y-94161744D02*
X122135661Y-94161744D01*
%TO.N,GND*%
X125650000Y-96601472D02*
X125650000Y-97098528D01*
X123175000Y-95450000D02*
X123175000Y-95470933D01*
%TO.N,+2V8*%
X121871471Y-95770000D02*
X121953566Y-95852095D01*
X121736030Y-95757958D02*
X121748072Y-95770000D01*
%TO.N,GND*%
X125042003Y-95950000D02*
X125481342Y-96389339D01*
%TO.N,+2V8*%
X121859430Y-95757958D02*
X121736030Y-95757958D01*
X122135661Y-95661744D02*
X121763216Y-95661744D01*
%TO.N,GND*%
X123175000Y-95470933D02*
X122553566Y-96092367D01*
%TO.N,+2V8*%
X122575000Y-95222405D02*
X122135661Y-95661744D01*
%TO.N,GND*%
X125650000Y-97098528D02*
X125298528Y-97450000D01*
%TO.N,+2V8*%
X121264339Y-95920000D02*
X121240000Y-95895661D01*
X121418125Y-94257958D02*
X121514339Y-94161744D01*
%TO.N,GND*%
X125298528Y-97450000D02*
X120991472Y-97450000D01*
X120640000Y-95647133D02*
X120991472Y-95295661D01*
X122225000Y-99950000D02*
X122165000Y-99890000D01*
X122553566Y-96092367D02*
X122553566Y-96100623D01*
%TO.N,+2V8*%
X124731342Y-96747058D02*
X124731342Y-96700000D01*
X121240000Y-96850000D02*
X124628400Y-96850000D01*
X118750000Y-76650000D02*
X118750000Y-89350000D01*
%TO.N,+3V3*%
X121040000Y-99140000D02*
X121412205Y-99140000D01*
%TO.N,GND*%
X124120681Y-96250000D02*
X124420681Y-95950000D01*
X128550000Y-99950000D02*
X122225000Y-99950000D01*
%TO.N,+3V3*%
X133360000Y-100730000D02*
X135620000Y-100730000D01*
X136640000Y-100690000D02*
X136650000Y-100680000D01*
X135620000Y-100730000D02*
X135660000Y-100690000D01*
%TO.N,+2V8*%
X121240000Y-94282297D02*
X121264339Y-94257958D01*
%TO.N,+3V3*%
X122116418Y-99057109D02*
X122199309Y-99140000D01*
%TO.N,GND*%
X120991472Y-95295661D02*
X121280771Y-95295661D01*
X122165000Y-99890000D02*
X121888648Y-99890000D01*
X134750000Y-103050000D02*
X132450000Y-100750000D01*
%TO.N,+3V3*%
X129040000Y-99140000D02*
X129640000Y-99740000D01*
%TO.N,+2V8*%
X121264339Y-94257958D02*
X121418125Y-94257958D01*
%TO.N,+3V3*%
X122199309Y-99140000D02*
X129040000Y-99140000D01*
%TO.N,GND*%
X121888648Y-99890000D02*
X121805757Y-99807109D01*
%TO.N,+3V3*%
X135660000Y-100690000D02*
X136640000Y-100690000D01*
X129640000Y-99740000D02*
X132370000Y-99740000D01*
%TO.N,/SYS*%
D21*
X121850000Y-115350000D02*
X124250000Y-117750000D01*
X119550000Y-115350000D02*
X121850000Y-115350000D01*
%TO.N,GND*%
D20*
X134150000Y-115450000D02*
X140650000Y-115450000D01*
X161000000Y-96750000D02*
X161000000Y-92500000D01*
X149850000Y-65525000D02*
X151425000Y-65525000D01*
X137650000Y-124100000D02*
X139650000Y-122100000D01*
D22*
X116108089Y-113000000D02*
X116004482Y-112896393D01*
D21*
X144650000Y-118450000D02*
X143750000Y-117550000D01*
D20*
X133650000Y-111850000D02*
X133550000Y-111750000D01*
X143500000Y-100500000D02*
X143250000Y-100500000D01*
X148275000Y-63950000D02*
X149850000Y-65525000D01*
X124950000Y-89850000D02*
X121350000Y-89850000D01*
X135650000Y-120350000D02*
X135650000Y-120500000D01*
X159350000Y-96750000D02*
X161000000Y-96750000D01*
D21*
X112050000Y-91450000D02*
X113650000Y-91450000D01*
D20*
X151750000Y-107600000D02*
X153400000Y-109250000D01*
X143250000Y-100500000D02*
X141835000Y-99085000D01*
D23*
X151550000Y-65650000D02*
X151450000Y-65550000D01*
D20*
X137550000Y-126860000D02*
X141630000Y-130940000D01*
X138479998Y-98500000D02*
X141815000Y-98500000D01*
X145420000Y-130940000D02*
X146110000Y-130250000D01*
X145550000Y-135950000D02*
X137850000Y-135950000D01*
D22*
X157750000Y-100890000D02*
X157750000Y-104650000D01*
X155125000Y-117100000D02*
X153475000Y-118750000D01*
X132530000Y-140320000D02*
X132530000Y-144500000D01*
D20*
X161000000Y-92500000D02*
X157800000Y-92500000D01*
D22*
X117850000Y-113000000D02*
X116108089Y-113000000D01*
D21*
X113650000Y-89100000D02*
X114150000Y-88600000D01*
X151700000Y-115200000D02*
X151700000Y-112850000D01*
D23*
X151700000Y-115200000D02*
X151700000Y-115350000D01*
D22*
X151750000Y-106150000D02*
X156250000Y-106150000D01*
D23*
X137550000Y-124200000D02*
X137650000Y-124100000D01*
D22*
X141170000Y-140320000D02*
X141170000Y-144500000D01*
D20*
X133650000Y-114950000D02*
X134150000Y-115450000D01*
X118200000Y-112650000D02*
X117850000Y-113000000D01*
X134637500Y-103162500D02*
X134750000Y-103050000D01*
X156210000Y-83410000D02*
X159250000Y-86450000D01*
D21*
X141730000Y-96980000D02*
X139850000Y-95100000D01*
D20*
X151425000Y-65525000D02*
X151450000Y-65550000D01*
X146530000Y-128900000D02*
X146530000Y-129830000D01*
D22*
X122050000Y-67850000D02*
X120650000Y-66450000D01*
D20*
X151550000Y-88250000D02*
X148850000Y-90950000D01*
D22*
X133650000Y-114950000D02*
X133650000Y-111850000D01*
D21*
X144650000Y-120350000D02*
X144650000Y-118450000D01*
D22*
X155125000Y-117100000D02*
X153450000Y-117100000D01*
D20*
X141630000Y-130940000D02*
X145420000Y-130940000D01*
D21*
X139850000Y-95100000D02*
X138405355Y-95100000D01*
D22*
X120708376Y-63950000D02*
X120659799Y-63998577D01*
D20*
X118200000Y-110807500D02*
X118200000Y-112650000D01*
X148850000Y-90950000D02*
X148350000Y-90950000D01*
X159950000Y-113879161D02*
X160441813Y-114370974D01*
D22*
X153475000Y-118750000D02*
X153475000Y-121600000D01*
D20*
X156325000Y-109225000D02*
X159950000Y-112850000D01*
X114810000Y-123220000D02*
X124430000Y-123220000D01*
D22*
X153450000Y-117100000D02*
X151700000Y-115350000D01*
D20*
X134637500Y-105070000D02*
X134637500Y-103162500D01*
D22*
X157750000Y-104650000D02*
X156250000Y-106150000D01*
D20*
X137550000Y-126150000D02*
X137550000Y-126860000D01*
X115950000Y-92450000D02*
X114850000Y-91350000D01*
X120025000Y-79150000D02*
X120025000Y-70775000D01*
D22*
X159350000Y-99290000D02*
X157750000Y-100890000D01*
D20*
X117850000Y-113000000D02*
X117850000Y-115640000D01*
X117850000Y-116082233D02*
X114810000Y-119122233D01*
X137550000Y-126150000D02*
X137550000Y-124200000D01*
X117850000Y-115640000D02*
X117850000Y-116082233D01*
D23*
X136350000Y-137950000D02*
X134900000Y-137950000D01*
D21*
X147250000Y-124350000D02*
X141900000Y-124350000D01*
D20*
X135650000Y-122100000D02*
X137650000Y-124100000D01*
D23*
X138800000Y-137950000D02*
X141170000Y-140320000D01*
D20*
X124430000Y-123220000D02*
X127300000Y-120350000D01*
X146530000Y-134970000D02*
X145550000Y-135950000D01*
X157800000Y-92500000D02*
X156850000Y-93450000D01*
X115950000Y-95250000D02*
X115950000Y-92450000D01*
X159950000Y-112850000D02*
X159950000Y-113879161D01*
X117840000Y-115630000D02*
X117850000Y-115640000D01*
D23*
X136350000Y-137950000D02*
X138800000Y-137950000D01*
D20*
X146530000Y-129830000D02*
X146110000Y-130250000D01*
X141835000Y-99085000D02*
X141835000Y-98520000D01*
X114230000Y-115630000D02*
X117840000Y-115630000D01*
D21*
X141900000Y-124350000D02*
X139650000Y-122100000D01*
D23*
X134900000Y-137950000D02*
X132530000Y-140320000D01*
D20*
X131454998Y-96950000D02*
X131334998Y-96830000D01*
X151750000Y-106150000D02*
X151750000Y-107600000D01*
X132987500Y-106720000D02*
X134637500Y-105070000D01*
X151850000Y-88250000D02*
X151550000Y-88250000D01*
X126650000Y-92350000D02*
X126650000Y-93499998D01*
D22*
X124450000Y-63950000D02*
X120708376Y-63950000D01*
X122050000Y-69950000D02*
X122050000Y-67850000D01*
D21*
X141825000Y-96980000D02*
X141730000Y-96980000D01*
D22*
X133550000Y-111750000D02*
X130737500Y-111750000D01*
D20*
X114810000Y-119122233D02*
X114810000Y-123220000D01*
X114850000Y-89300000D02*
X114150000Y-88600000D01*
D21*
X113650000Y-91450000D02*
X113650000Y-89100000D01*
D20*
X114850000Y-91350000D02*
X114850000Y-89300000D01*
X127300000Y-120350000D02*
X135650000Y-120350000D01*
X146530000Y-128900000D02*
X146530000Y-134970000D01*
X147750000Y-63950000D02*
X148275000Y-63950000D01*
X126650000Y-93499998D02*
X124699998Y-95450000D01*
D23*
X151550000Y-70150000D02*
X151550000Y-65650000D01*
D22*
X129000000Y-111750000D02*
X130737500Y-111750000D01*
D20*
X154790000Y-83410000D02*
X156210000Y-83410000D01*
X120025000Y-70775000D02*
X120050000Y-70750000D01*
X141815000Y-98500000D02*
X141835000Y-98520000D01*
D22*
X151750000Y-106150000D02*
X148025000Y-106150000D01*
%TO.N,Net-(U2-PROG1)*%
D21*
X154350000Y-112850000D02*
X154350000Y-113600000D01*
X156600000Y-118150000D02*
X156450000Y-118300000D01*
X156600000Y-115850000D02*
X156600000Y-118150000D01*
X154350000Y-113600000D02*
X156600000Y-115850000D01*
%TO.N,+3V3*%
D22*
X119750000Y-97850000D02*
X119750000Y-93750000D01*
X136650000Y-109497182D02*
X136747182Y-109497182D01*
X156750000Y-96810000D02*
X159350000Y-94210000D01*
X117050000Y-77850000D02*
X116950000Y-77750000D01*
X123650305Y-106250305D02*
X126350000Y-108950000D01*
D21*
X136750000Y-133150000D02*
X136750000Y-135877708D01*
D22*
X122300000Y-102350000D02*
X123650305Y-103700305D01*
D21*
X160980000Y-90130000D02*
X160940000Y-90170000D01*
D22*
X119750000Y-102350000D02*
X119750000Y-97850000D01*
D20*
X146310000Y-98017905D02*
X146310000Y-101200000D01*
D22*
X156750000Y-102650000D02*
X156750000Y-97650000D01*
D21*
X158970000Y-90170000D02*
X155250000Y-86450000D01*
D20*
X117350000Y-78150000D02*
X117050000Y-77850000D01*
X109715000Y-102350000D02*
X109715000Y-109438078D01*
X137059305Y-100270695D02*
X136650000Y-100680000D01*
D21*
X156630000Y-76940000D02*
X160980000Y-81290000D01*
D20*
X146620730Y-97707175D02*
X146310000Y-98017905D01*
X146310000Y-101200000D02*
X145260000Y-102250000D01*
D21*
X160940000Y-90170000D02*
X158970000Y-90170000D01*
D22*
X116950000Y-77750000D02*
X116950000Y-69150000D01*
X117950000Y-68150000D02*
X119350000Y-68150000D01*
X116150000Y-90150000D02*
X116150000Y-84746632D01*
X116130000Y-84411523D02*
X115516357Y-85025166D01*
D20*
X136650000Y-105600000D02*
X136650000Y-109497182D01*
D22*
X135009315Y-108950000D02*
X126350000Y-108950000D01*
X119750000Y-102350000D02*
X122300000Y-102350000D01*
X136650000Y-109497182D02*
X135556497Y-109497182D01*
D20*
X142080695Y-100270695D02*
X137059305Y-100270695D01*
X119750000Y-102350000D02*
X109715000Y-102350000D01*
D22*
X117050000Y-77850000D02*
X116130000Y-78770000D01*
X119750000Y-93750000D02*
X116150000Y-90150000D01*
X115896364Y-84645159D02*
X115516357Y-85025166D01*
D21*
X136750000Y-135877708D02*
X136713854Y-135913854D01*
D20*
X145260000Y-102250000D02*
X144060000Y-102250000D01*
D22*
X116150000Y-84746632D02*
X116048527Y-84645159D01*
D21*
X153840000Y-76940000D02*
X156630000Y-76940000D01*
D22*
X116950000Y-69150000D02*
X117950000Y-68150000D01*
X116048527Y-84645159D02*
X115896364Y-84645159D01*
X123650305Y-103700305D02*
X123650305Y-106250305D01*
X136747182Y-109497182D02*
X139250000Y-112000000D01*
X117950000Y-78150000D02*
X117350000Y-78150000D01*
D20*
X109715000Y-109438078D02*
X109865000Y-109588078D01*
X144060000Y-102250000D02*
X142080695Y-100270695D01*
X136650000Y-100680000D02*
X136650000Y-105600000D01*
D22*
X116130000Y-78770000D02*
X116130000Y-84411523D01*
D21*
X160980000Y-81290000D02*
X160980000Y-90130000D01*
D22*
X135556497Y-109497182D02*
X135009315Y-108950000D01*
X156750000Y-97650000D02*
X156750000Y-96810000D01*
%TO.N,/SYS*%
D21*
X157221767Y-118656200D02*
X157100000Y-118534433D01*
X144050000Y-110450000D02*
X144050000Y-113550000D01*
X127900000Y-136750000D02*
X128100000Y-136950000D01*
X157100000Y-118534433D02*
X157100000Y-115713604D01*
X110640000Y-110540000D02*
X110640000Y-108005000D01*
X128100000Y-136950000D02*
X147900000Y-136950000D01*
X155125000Y-113738604D02*
X155125000Y-113250000D01*
X110640000Y-108005000D02*
X110465000Y-107830000D01*
X157100000Y-115713604D02*
X155125000Y-113738604D01*
X112430000Y-112330000D02*
X110640000Y-110540000D01*
%TO.N,/CAM_RST_2V8*%
D23*
X137260000Y-97510000D02*
X135300000Y-95550000D01*
X135300000Y-95550000D02*
X127950000Y-95550000D01*
X141435761Y-97510000D02*
X137260000Y-97510000D01*
X142440000Y-97630000D02*
X141555761Y-97630000D01*
X146155000Y-96610000D02*
X143460000Y-96610000D01*
X141555761Y-97630000D02*
X141435761Y-97510000D01*
X143460000Y-96610000D02*
X142440000Y-97630000D01*
X146420000Y-96875000D02*
X146155000Y-96610000D01*
%TO.N,/PIR_WAKE*%
D21*
X159030000Y-80350000D02*
X159995000Y-81315000D01*
X143390000Y-80350000D02*
X159030000Y-80350000D01*
X143170000Y-80130000D02*
X143390000Y-80350000D01*
%TO.N,+1V5*%
D20*
X135873664Y-108541555D02*
X135950000Y-108465219D01*
X135950000Y-108465219D02*
X135950000Y-104850000D01*
%TO.N,Net-(RESET1-B)*%
D23*
X125502222Y-69881648D02*
X122850000Y-72533870D01*
X122850000Y-72533870D02*
X122850000Y-77389008D01*
X122850000Y-77389008D02*
X122769504Y-77469504D01*
X149050000Y-69050000D02*
X146450000Y-66450000D01*
X130180000Y-66450000D02*
X130150000Y-66480000D01*
X125502222Y-67306969D02*
X125502222Y-69881648D01*
X146450000Y-66450000D02*
X130180000Y-66450000D01*
%TO.N,/DOORBELL_IN*%
X149000000Y-121650000D02*
X149000000Y-110000000D01*
X141550000Y-120850000D02*
X142350000Y-121650000D01*
X149125000Y-93575000D02*
X153200000Y-89500000D01*
X153200000Y-89500000D02*
X153200000Y-85210000D01*
X153200000Y-85210000D02*
X153240000Y-85170000D01*
X142350000Y-121650000D02*
X149000000Y-121650000D01*
X146875000Y-107875000D02*
X146875000Y-104744364D01*
X149125000Y-102494364D02*
X149125000Y-93575000D01*
X146875000Y-104744364D02*
X149125000Y-102494364D01*
X149000000Y-110000000D02*
X146875000Y-107875000D01*
%TO.N,/GPIO4*%
D21*
X115274798Y-113620202D02*
X115329798Y-113565202D01*
X129660000Y-118050000D02*
X141950000Y-118050000D01*
X113300000Y-100250000D02*
X114650000Y-101600000D01*
X109190000Y-101210000D02*
X109190000Y-110230000D01*
X146000000Y-114000000D02*
X146000000Y-103800000D01*
X118710000Y-114440000D02*
X126050000Y-114440000D01*
X110150000Y-100250000D02*
X109190000Y-101210000D01*
X126050000Y-114440000D02*
X129660000Y-118050000D01*
X114650000Y-101600000D02*
X114810000Y-101600000D01*
X146000000Y-103800000D02*
X147440000Y-102360000D01*
X112580202Y-113620202D02*
X115274798Y-113620202D01*
X141950000Y-118050000D02*
X146000000Y-114000000D01*
X110150000Y-100250000D02*
X113300000Y-100250000D01*
X109190000Y-110230000D02*
X112580202Y-113620202D01*
%TO.N,/GPIO5*%
D20*
X115910000Y-104610000D02*
X115860000Y-104560000D01*
D21*
X112850000Y-89775000D02*
X112775000Y-89850000D01*
X112610000Y-97610000D02*
X112640000Y-97640000D01*
X121100000Y-108000000D02*
X130350000Y-117250000D01*
X112610000Y-93090000D02*
X112610000Y-97610000D01*
X121100000Y-106950000D02*
X121100000Y-108000000D01*
D23*
X119910000Y-106950000D02*
X117570000Y-104610000D01*
D20*
X117570000Y-104610000D02*
X115910000Y-104610000D01*
D21*
X112850000Y-85650000D02*
X112850000Y-89775000D01*
D23*
X121100000Y-106950000D02*
X119910000Y-106950000D01*
D21*
X111850000Y-84650000D02*
X112850000Y-85650000D01*
X141250000Y-117250000D02*
X145240000Y-113260000D01*
X145240000Y-113260000D02*
X145240000Y-103160000D01*
X112850000Y-92850000D02*
X112610000Y-93090000D01*
X130350000Y-117250000D02*
X141250000Y-117250000D01*
%TO.N,/GPIO6*%
X121850000Y-72750000D02*
X121292462Y-72750000D01*
X161650000Y-81160000D02*
X155900000Y-75410000D01*
X124534246Y-70210128D02*
X124454502Y-70210128D01*
X124454502Y-70210128D02*
X124354502Y-70110128D01*
X124650000Y-70094374D02*
X124534246Y-70210128D01*
X124350000Y-70250000D02*
X121850000Y-72750000D01*
X125275000Y-64870405D02*
X125275000Y-66650305D01*
X155900000Y-75410000D02*
X155900000Y-62650000D01*
X124650000Y-67275305D02*
X124650000Y-70094374D01*
X127495405Y-62650000D02*
X125275000Y-64870405D01*
X125275000Y-66650305D02*
X124650000Y-67275305D01*
X161650000Y-106850000D02*
X161650000Y-81160000D01*
D20*
X121292462Y-72750000D02*
X121150000Y-72750000D01*
D21*
X155900000Y-62650000D02*
X127495405Y-62650000D01*
%TO.N,/CAM_SCL*%
D23*
X141920000Y-85820000D02*
X141700000Y-86040000D01*
X143180000Y-78350000D02*
X141990000Y-79540000D01*
X143570000Y-74090000D02*
X143180000Y-74480000D01*
X141990000Y-79540000D02*
X141920000Y-79540000D01*
X132850000Y-90790000D02*
X132850000Y-91550000D01*
D21*
X132370000Y-98440000D02*
X132420000Y-98390000D01*
D23*
X134330000Y-89080000D02*
X134330000Y-89310000D01*
X143180000Y-74480000D02*
X143180000Y-78350000D01*
D21*
X132420000Y-98390000D02*
X132420000Y-96330000D01*
D23*
X141920000Y-79540000D02*
X141920000Y-85820000D01*
X134330000Y-89310000D02*
X132850000Y-90790000D01*
%TO.N,+2V8*%
D21*
X131500000Y-92250000D02*
X130500000Y-92250000D01*
X130500000Y-92250000D02*
X128750000Y-94000000D01*
D20*
X137950000Y-101050000D02*
X140450000Y-101050000D01*
%TO.N,/CAM_PWDN_2V8*%
D21*
X134410000Y-94950000D02*
X134247081Y-94950000D01*
X128082476Y-94930000D02*
X127903808Y-94751332D01*
X134247081Y-94950000D02*
X134227081Y-94930000D01*
X134227081Y-94930000D02*
X128082476Y-94930000D01*
%TO.N,/GPIO43_AUX*%
X108830000Y-116860000D02*
X108850000Y-116860000D01*
X111320000Y-80860000D02*
X108170000Y-84010000D01*
X113930000Y-80860000D02*
X111320000Y-80860000D01*
X125412000Y-76018000D02*
X126170000Y-75260000D01*
X108170000Y-116200000D02*
X108830000Y-116860000D01*
X108170000Y-84010000D02*
X108170000Y-116200000D01*
X119670000Y-81610776D02*
X125262776Y-76018000D01*
X125262776Y-76018000D02*
X125412000Y-76018000D01*
X119670000Y-85420000D02*
X119670000Y-81610776D01*
X138630000Y-75260000D02*
X138710000Y-75180000D01*
X126170000Y-75260000D02*
X138630000Y-75260000D01*
%TO.N,Net-(J9-Pin_4)*%
X118640000Y-120080000D02*
X120610000Y-118110000D01*
X120610000Y-118110000D02*
X120610000Y-117630000D01*
%TO.N,/CAM_XCLK_2V8*%
D23*
X145010000Y-95220000D02*
X141300000Y-95220000D01*
X145160000Y-95070000D02*
X145010000Y-95220000D01*
%TO.N,/U5_IO2*%
D21*
X138150000Y-133850000D02*
X139850000Y-133850000D01*
%TO.N,Net-(BOOT1-A)*%
X149780000Y-77030000D02*
X148510000Y-78300000D01*
X146980000Y-78300000D02*
X146960000Y-78320000D01*
X148510000Y-78300000D02*
X146980000Y-78300000D01*
%TO.N,+5V*%
X146150000Y-116050000D02*
X146150000Y-118075000D01*
D22*
X131750000Y-133180000D02*
X131920000Y-133180000D01*
X132860000Y-132240000D02*
X141798630Y-132240000D01*
D21*
X146150000Y-118075000D02*
X147025000Y-118950000D01*
D22*
X131920000Y-133180000D02*
X132860000Y-132240000D01*
X142838630Y-133280000D02*
X143880000Y-133280000D01*
D21*
X147350000Y-114850000D02*
X146150000Y-116050000D01*
D22*
X141798630Y-132240000D02*
X142838630Y-133280000D01*
%TO.N,/CAM_RST*%
D21*
X147460000Y-95070000D02*
X147460000Y-82130000D01*
X147460000Y-82130000D02*
X147070000Y-81740000D01*
%TO.N,Net-(J3-CAM23_AF_GND)*%
X145080000Y-97437031D02*
X145080000Y-100550000D01*
X144690000Y-100940000D02*
X144690000Y-101250000D01*
D23*
X143080000Y-95910000D02*
X143090000Y-95900000D01*
D21*
X145078316Y-97435347D02*
X145080000Y-97437031D01*
D23*
X144560000Y-95900000D02*
X144620000Y-95960000D01*
D21*
X145080000Y-100550000D02*
X144690000Y-100940000D01*
D23*
X143090000Y-95900000D02*
X144560000Y-95900000D01*
%TO.N,/CAM_D2*%
X140650000Y-88374314D02*
X141430000Y-89154314D01*
X140650000Y-78650000D02*
X140650000Y-88374314D01*
X141430000Y-89154314D02*
X141430000Y-90025981D01*
X141430000Y-90025981D02*
X141830000Y-90425981D01*
%TO.N,/CAM_D1*%
X139690000Y-78610000D02*
X139690000Y-87980000D01*
X140883765Y-90524287D02*
X140887460Y-90527982D01*
X139690000Y-87980000D02*
X140883765Y-89173765D01*
X140883765Y-89173765D02*
X140883765Y-90524287D01*
%TO.N,/CAM_D3*%
X140047024Y-89912710D02*
X140047024Y-90400812D01*
X138745000Y-88610686D02*
X140047024Y-89912710D01*
X138763523Y-78623882D02*
X138745000Y-78642405D01*
X138745000Y-78642405D02*
X138745000Y-88610686D01*
%TO.N,/CAM_D0*%
X137815000Y-78570883D02*
X137815000Y-88781707D01*
X139198277Y-89745222D02*
X139198277Y-90446988D01*
X137815000Y-88781707D02*
X138272104Y-89238811D01*
X137860883Y-78525000D02*
X137815000Y-78570883D01*
X138691866Y-89238811D02*
X139198277Y-89745222D01*
X138272104Y-89238811D02*
X138691866Y-89238811D01*
%TO.N,/CAM_D4*%
X136830000Y-78645000D02*
X136830000Y-88930000D01*
X136900000Y-78575000D02*
X136830000Y-78645000D01*
X137901579Y-90001579D02*
X138474319Y-90001579D01*
X136830000Y-88930000D02*
X137901579Y-90001579D01*
%TO.N,/CAM_PCLK*%
X134910000Y-87805076D02*
X135640000Y-88535076D01*
X135640000Y-88535076D02*
X135640000Y-89630000D01*
X134910000Y-85186109D02*
X134910000Y-87805076D01*
X134827292Y-85103401D02*
X134910000Y-85186109D01*
X136894351Y-90884351D02*
X137228716Y-90884351D01*
X135640000Y-89630000D02*
X136894351Y-90884351D01*
%TO.N,/CAM_D5*%
X135240000Y-90460000D02*
X136476919Y-91696919D01*
X133420000Y-84260000D02*
X133420000Y-86880761D01*
X135240000Y-88700761D02*
X135240000Y-90460000D01*
X133420000Y-86880761D02*
X135240000Y-88700761D01*
X136476919Y-91696919D02*
X136979241Y-91696919D01*
%TO.N,/CAM_D6*%
X135520000Y-92550000D02*
X136990048Y-92550000D01*
X136990048Y-92550000D02*
X136993242Y-92546806D01*
%TO.N,/CAM_HREF*%
X134200000Y-82329998D02*
X136080000Y-80449998D01*
X134200000Y-85980000D02*
X134200000Y-82329998D01*
%TO.N,/CAM_VSYNC*%
X134710000Y-79900761D02*
X134710000Y-80084925D01*
X134710000Y-80084925D02*
X134094924Y-80700000D01*
X137220761Y-77390000D02*
X134710000Y-79900761D01*
X134094924Y-80700000D02*
X133910761Y-80700000D01*
X131160000Y-83450761D02*
X131160000Y-86340000D01*
X140830000Y-77390000D02*
X137220761Y-77390000D01*
X133910761Y-80700000D02*
X131160000Y-83450761D01*
%TO.N,/CAM_SDA*%
X130230000Y-86320000D02*
X130230000Y-83815075D01*
D21*
X125650000Y-72250000D02*
X127750000Y-74350000D01*
D23*
X130230000Y-83815075D02*
X137295075Y-76750000D01*
X137295075Y-76750000D02*
X142140000Y-76750000D01*
D21*
X141150000Y-74350000D02*
X142150000Y-75350000D01*
X127750000Y-74350000D02*
X141150000Y-74350000D01*
%TO.N,Net-(J8-Pin_3)*%
D23*
X151350000Y-93950000D02*
X149525000Y-95775000D01*
X147275000Y-107575000D02*
X149400000Y-109700000D01*
X149400000Y-109700000D02*
X149400000Y-121900000D01*
X149525000Y-102660050D02*
X147275000Y-104910050D01*
X149400000Y-121900000D02*
X149950000Y-122450000D01*
X149525000Y-95775000D02*
X149525000Y-102660050D01*
X147275000Y-104910050D02*
X147275000Y-107575000D01*
X149950000Y-122450000D02*
X142250000Y-122450000D01*
%TO.N,/BATT_THERM*%
D20*
X142330000Y-128250000D02*
X145450000Y-125130000D01*
X142330000Y-128900000D02*
X142330000Y-128250000D01*
%TO.N,Net-(D2-K)*%
D21*
X155150000Y-119950000D02*
X155550000Y-120350000D01*
X155550000Y-120350000D02*
X156600000Y-120350000D01*
%TO.N,/OUTP*%
D20*
X120390000Y-107650000D02*
X119230000Y-107650000D01*
X119230000Y-107650000D02*
X119230000Y-111030000D01*
%TO.N,Net-(D2-A)*%
D21*
X156445404Y-121204596D02*
X156445404Y-121150000D01*
X156445404Y-121150000D02*
X156535202Y-121239798D01*
X151350000Y-124750000D02*
X152900000Y-124750000D01*
X152900000Y-124750000D02*
X156445404Y-121204596D01*
%TO.N,/CAM_XCLK*%
X136065001Y-88766041D02*
X136065001Y-84113148D01*
X141269056Y-91100981D02*
X141167055Y-91202982D01*
X146160000Y-86160000D02*
X146080000Y-86080000D01*
X141167055Y-91202982D02*
X138501942Y-91202982D01*
X143351040Y-86080000D02*
X142505000Y-86926040D01*
X142505000Y-86926040D02*
X142505000Y-91100981D01*
X142505000Y-91100981D02*
X141269056Y-91100981D01*
X146080000Y-86080000D02*
X143351040Y-86080000D01*
X136065001Y-84113148D02*
X135971586Y-84019733D01*
X138501942Y-91202982D02*
X136065001Y-88766041D01*
%TO.N,/CAM_PWDN*%
X126950000Y-82940000D02*
X130140000Y-79750000D01*
X132379645Y-79750000D02*
X132469645Y-79660000D01*
X130140000Y-79750000D02*
X132379645Y-79750000D01*
%TO.N,/GPIO42_AUX*%
X108740000Y-84460000D02*
X108740000Y-115820000D01*
X108740000Y-115820000D02*
X109132461Y-116212461D01*
X127610000Y-124410000D02*
X130850000Y-121170000D01*
X118630000Y-124410000D02*
X127610000Y-124410000D01*
X111290000Y-81910000D02*
X108740000Y-84460000D01*
X119720000Y-86510000D02*
X130290000Y-75940000D01*
X113870000Y-81910000D02*
X111290000Y-81910000D01*
X130290000Y-75940000D02*
X140170000Y-75940000D01*
X119700000Y-86510000D02*
X119720000Y-86510000D01*
X153695000Y-81750000D02*
X148470000Y-81750000D01*
X113960000Y-82000000D02*
X113870000Y-81910000D01*
X109132461Y-116212461D02*
X109750575Y-116212461D01*
X154435000Y-81010000D02*
X153695000Y-81750000D01*
%TO.N,/AMP_EN*%
X148700000Y-102318324D02*
X146450000Y-104568324D01*
X142625000Y-121025000D02*
X140450000Y-118850000D01*
X146450000Y-104568324D02*
X146450000Y-108051040D01*
X148350000Y-121025000D02*
X142625000Y-121025000D01*
X121081701Y-116440000D02*
X119280000Y-116440000D01*
X152250000Y-89150000D02*
X148700000Y-92700000D01*
X123491701Y-118850000D02*
X121081701Y-116440000D01*
X148700000Y-92700000D02*
X148700000Y-102318324D01*
X146450000Y-108051040D02*
X148350000Y-109951040D01*
X140450000Y-118850000D02*
X123491701Y-118850000D01*
X148350000Y-109951040D02*
X148350000Y-121025000D01*
%TO.N,Net-(J9-Pin_3)*%
X116710000Y-118990000D02*
X118070000Y-117630000D01*
X116710000Y-120200000D02*
X116710000Y-118990000D01*
%TD*%
%TA.AperFunction,Conductor*%
%TO.N,+5V*%
G36*
X132093039Y-132860523D02*
G01*
X132138794Y-132913327D01*
X132150000Y-132964838D01*
X132150000Y-134716838D01*
X132130315Y-134783877D01*
X132077511Y-134829632D01*
X132026000Y-134840838D01*
X130074000Y-134840838D01*
X130006961Y-134821153D01*
X129961206Y-134768349D01*
X129950000Y-134716838D01*
X129950000Y-132964838D01*
X129969685Y-132897799D01*
X130022489Y-132852044D01*
X130074000Y-132840838D01*
X132026000Y-132840838D01*
X132093039Y-132860523D01*
G37*
%TD.AperFunction*%
%TD*%
%TA.AperFunction,Conductor*%
%TO.N,GND*%
G36*
X165692539Y-56470185D02*
G01*
X165738294Y-56522989D01*
X165749500Y-56574500D01*
X165749500Y-125326000D01*
X165729815Y-125393039D01*
X165677011Y-125438794D01*
X165625500Y-125450000D01*
X151701338Y-125450000D01*
X151634299Y-125430315D01*
X151588544Y-125377511D01*
X151578600Y-125308353D01*
X151607625Y-125244797D01*
X151639335Y-125218614D01*
X151688015Y-125190509D01*
X151716705Y-125161819D01*
X151778028Y-125128334D01*
X151804386Y-125125500D01*
X152949435Y-125125500D01*
X152949436Y-125125500D01*
X152997186Y-125112705D01*
X153044938Y-125099910D01*
X153130562Y-125050475D01*
X153200475Y-124980562D01*
X156355875Y-121825160D01*
X156417196Y-121791677D01*
X156459748Y-121789905D01*
X156462722Y-121790296D01*
X156462727Y-121790298D01*
X156462732Y-121790298D01*
X156607674Y-121790298D01*
X156607677Y-121790298D01*
X156747687Y-121752782D01*
X156873217Y-121680307D01*
X156975711Y-121577813D01*
X157048186Y-121452283D01*
X157085702Y-121312273D01*
X157085702Y-121167323D01*
X157048186Y-121027313D01*
X157036564Y-121007184D01*
X156971647Y-120894744D01*
X156973361Y-120893754D01*
X156952037Y-120838597D01*
X156966074Y-120770152D01*
X156987924Y-120740599D01*
X157040509Y-120688015D01*
X157112984Y-120562485D01*
X157150500Y-120422475D01*
X157150500Y-120277525D01*
X157112984Y-120137515D01*
X157107217Y-120127527D01*
X157040511Y-120011988D01*
X157040506Y-120011982D01*
X156938017Y-119909493D01*
X156938011Y-119909488D01*
X156812488Y-119837017D01*
X156812489Y-119837017D01*
X156798598Y-119833295D01*
X156672475Y-119799500D01*
X156527525Y-119799500D01*
X156401402Y-119833295D01*
X156387511Y-119837017D01*
X156261988Y-119909488D01*
X156261982Y-119909493D01*
X156233295Y-119938181D01*
X156171972Y-119971666D01*
X156145614Y-119974500D01*
X155821633Y-119974500D01*
X155754594Y-119954815D01*
X155708839Y-119902011D01*
X155701858Y-119882594D01*
X155700500Y-119877525D01*
X155662984Y-119737515D01*
X155590509Y-119611985D01*
X155488015Y-119509491D01*
X155488013Y-119509490D01*
X155488011Y-119509488D01*
X155362488Y-119437017D01*
X155362489Y-119437017D01*
X155351006Y-119433940D01*
X155222475Y-119399500D01*
X155077525Y-119399500D01*
X154948993Y-119433940D01*
X154937511Y-119437017D01*
X154811988Y-119509488D01*
X154811982Y-119509493D01*
X154709493Y-119611982D01*
X154709488Y-119611988D01*
X154637017Y-119737511D01*
X154637016Y-119737515D01*
X154599500Y-119877525D01*
X154599500Y-120022475D01*
X154634333Y-120152472D01*
X154637017Y-120162488D01*
X154709488Y-120288011D01*
X154709490Y-120288013D01*
X154709491Y-120288015D01*
X154811985Y-120390509D01*
X154811986Y-120390510D01*
X154811988Y-120390511D01*
X154937511Y-120462982D01*
X154937512Y-120462982D01*
X154937515Y-120462984D01*
X155077525Y-120500500D01*
X155118101Y-120500500D01*
X155185140Y-120520185D01*
X155205782Y-120536819D01*
X155249525Y-120580562D01*
X155319438Y-120650475D01*
X155384463Y-120688017D01*
X155405062Y-120699910D01*
X155452811Y-120712705D01*
X155452812Y-120712705D01*
X155462903Y-120715408D01*
X155500564Y-120725500D01*
X155500565Y-120725500D01*
X155981696Y-120725500D01*
X156048735Y-120745185D01*
X156094490Y-120797989D01*
X156104434Y-120867147D01*
X156089084Y-120911497D01*
X156062518Y-120957511D01*
X156022217Y-121027313D01*
X156022216Y-121027316D01*
X156005402Y-121090066D01*
X155973309Y-121145652D01*
X152780782Y-124338181D01*
X152719459Y-124371666D01*
X152693101Y-124374500D01*
X151804386Y-124374500D01*
X151737347Y-124354815D01*
X151716705Y-124338181D01*
X151688017Y-124309493D01*
X151688011Y-124309488D01*
X151562488Y-124237017D01*
X151562489Y-124237017D01*
X151551006Y-124233940D01*
X151422475Y-124199500D01*
X151277525Y-124199500D01*
X151148993Y-124233940D01*
X151137511Y-124237017D01*
X151011988Y-124309488D01*
X151011982Y-124309493D01*
X150909493Y-124411982D01*
X150909488Y-124411988D01*
X150837017Y-124537511D01*
X150837016Y-124537515D01*
X150799500Y-124677525D01*
X150799500Y-124822475D01*
X150824967Y-124917518D01*
X150837017Y-124962488D01*
X150909488Y-125088011D01*
X150909490Y-125088013D01*
X150909491Y-125088015D01*
X151011985Y-125190509D01*
X151060663Y-125218613D01*
X151108878Y-125269180D01*
X151122100Y-125337788D01*
X151096132Y-125402652D01*
X151039218Y-125443180D01*
X150998662Y-125450000D01*
X146095775Y-125450000D01*
X146028736Y-125430315D01*
X145982981Y-125377511D01*
X145973037Y-125308353D01*
X145975997Y-125293919D01*
X146000500Y-125202475D01*
X146000500Y-125057525D01*
X145962984Y-124917515D01*
X145924296Y-124850506D01*
X145890511Y-124791988D01*
X145890506Y-124791982D01*
X145788017Y-124689493D01*
X145788011Y-124689488D01*
X145662488Y-124617017D01*
X145662489Y-124617017D01*
X145651006Y-124613940D01*
X145522475Y-124579500D01*
X145377525Y-124579500D01*
X145248993Y-124613940D01*
X145237511Y-124617017D01*
X145111988Y-124689488D01*
X145111982Y-124689493D01*
X145009493Y-124791982D01*
X145009488Y-124791988D01*
X144937017Y-124917511D01*
X144937014Y-124917518D01*
X144913269Y-125006133D01*
X144881176Y-125061719D01*
X144529215Y-125413681D01*
X144467892Y-125447166D01*
X144441534Y-125450000D01*
X107874500Y-125450000D01*
X107807461Y-125430315D01*
X107761706Y-125377511D01*
X107750500Y-125326000D01*
X107750500Y-124337525D01*
X118079500Y-124337525D01*
X118079500Y-124482475D01*
X118105498Y-124579500D01*
X118117017Y-124622488D01*
X118189488Y-124748011D01*
X118189490Y-124748013D01*
X118189491Y-124748015D01*
X118291985Y-124850509D01*
X118291986Y-124850510D01*
X118291988Y-124850511D01*
X118417511Y-124922982D01*
X118417512Y-124922982D01*
X118417515Y-124922984D01*
X118557525Y-124960500D01*
X118557528Y-124960500D01*
X118702472Y-124960500D01*
X118702475Y-124960500D01*
X118842485Y-124922984D01*
X118968015Y-124850509D01*
X118996705Y-124821819D01*
X119058028Y-124788334D01*
X119084386Y-124785500D01*
X127659435Y-124785500D01*
X127659436Y-124785500D01*
X127707186Y-124772705D01*
X127754938Y-124759910D01*
X127840562Y-124710475D01*
X127910475Y-124640562D01*
X130794218Y-121756819D01*
X130855541Y-121723334D01*
X130881899Y-121720500D01*
X130922472Y-121720500D01*
X130922475Y-121720500D01*
X131062485Y-121682984D01*
X131188015Y-121610509D01*
X131290509Y-121508015D01*
X131337205Y-121427135D01*
X132799500Y-121427135D01*
X132799500Y-122772870D01*
X132799501Y-122772876D01*
X132805908Y-122832483D01*
X132856202Y-122967328D01*
X132856206Y-122967335D01*
X132942452Y-123082544D01*
X132942455Y-123082547D01*
X133057664Y-123168793D01*
X133057671Y-123168797D01*
X133192517Y-123219091D01*
X133192516Y-123219091D01*
X133199444Y-123219835D01*
X133252127Y-123225500D01*
X134047872Y-123225499D01*
X134107483Y-123219091D01*
X134242331Y-123168796D01*
X134357546Y-123082546D01*
X134443796Y-122967331D01*
X134460778Y-122921800D01*
X134502648Y-122865866D01*
X134568112Y-122841448D01*
X134636385Y-122856299D01*
X134685791Y-122905703D01*
X134687444Y-122908836D01*
X134709194Y-122951521D01*
X134810967Y-123091602D01*
X134933397Y-123214032D01*
X135073475Y-123315804D01*
X135227744Y-123394408D01*
X135392415Y-123447914D01*
X135392414Y-123447914D01*
X135399999Y-123449115D01*
X135400000Y-123449114D01*
X135400000Y-122380330D01*
X135419745Y-122400075D01*
X135505255Y-122449444D01*
X135600630Y-122475000D01*
X135699370Y-122475000D01*
X135794745Y-122449444D01*
X135880255Y-122400075D01*
X135900000Y-122380330D01*
X135900000Y-123449115D01*
X135907584Y-123447914D01*
X136072255Y-123394408D01*
X136226524Y-123315804D01*
X136366602Y-123214032D01*
X136489032Y-123091602D01*
X136590804Y-122951524D01*
X136669411Y-122797251D01*
X136671271Y-122792760D01*
X136672475Y-122793258D01*
X136708540Y-122740512D01*
X136772898Y-122713311D01*
X136841745Y-122725222D01*
X136893223Y-122772464D01*
X136896254Y-122777798D01*
X136896296Y-122777861D01*
X136896297Y-122777863D01*
X136903082Y-122788017D01*
X136989373Y-122917162D01*
X137107837Y-123035626D01*
X137178055Y-123082544D01*
X137247137Y-123128703D01*
X137401918Y-123192816D01*
X137566223Y-123225498D01*
X137566228Y-123225499D01*
X137566232Y-123225500D01*
X137566233Y-123225500D01*
X137733768Y-123225500D01*
X137733769Y-123225499D01*
X137898082Y-123192816D01*
X138052863Y-123128703D01*
X138192162Y-123035626D01*
X138310626Y-122917162D01*
X138403703Y-122777863D01*
X138403703Y-122777861D01*
X138407087Y-122772798D01*
X138408099Y-122773474D01*
X138452557Y-122728209D01*
X138520693Y-122712743D01*
X138586375Y-122736570D01*
X138628748Y-122792124D01*
X138630406Y-122796810D01*
X138630588Y-122797251D01*
X138709195Y-122951524D01*
X138810967Y-123091602D01*
X138933397Y-123214032D01*
X139073475Y-123315804D01*
X139227744Y-123394408D01*
X139392415Y-123447914D01*
X139392414Y-123447914D01*
X139399999Y-123449115D01*
X139400000Y-123449114D01*
X139400000Y-122380330D01*
X139419745Y-122400075D01*
X139505255Y-122449444D01*
X139600630Y-122475000D01*
X139699370Y-122475000D01*
X139794745Y-122449444D01*
X139880255Y-122400075D01*
X139900000Y-122380330D01*
X139900000Y-123449115D01*
X139907584Y-123447914D01*
X140072255Y-123394408D01*
X140226524Y-123315804D01*
X140366602Y-123214032D01*
X140489032Y-123091602D01*
X140590804Y-122951524D01*
X140669408Y-122797257D01*
X140722914Y-122632584D01*
X140750000Y-122461571D01*
X140750000Y-122350000D01*
X139930330Y-122350000D01*
X139950075Y-122330255D01*
X139999444Y-122244745D01*
X140025000Y-122149370D01*
X140025000Y-122050630D01*
X139999444Y-121955255D01*
X139950075Y-121869745D01*
X139930330Y-121850000D01*
X140750000Y-121850000D01*
X140750000Y-121738428D01*
X140722914Y-121567415D01*
X140669408Y-121402742D01*
X140590804Y-121248475D01*
X140489032Y-121108397D01*
X140366602Y-120985967D01*
X140226524Y-120884195D01*
X140072257Y-120805591D01*
X139907589Y-120752087D01*
X139907581Y-120752085D01*
X139900000Y-120750884D01*
X139900000Y-121819670D01*
X139880255Y-121799925D01*
X139794745Y-121750556D01*
X139699370Y-121725000D01*
X139600630Y-121725000D01*
X139505255Y-121750556D01*
X139419745Y-121799925D01*
X139400000Y-121819670D01*
X139400000Y-120750884D01*
X139399999Y-120750884D01*
X139392418Y-120752085D01*
X139392410Y-120752087D01*
X139227742Y-120805591D01*
X139073475Y-120884195D01*
X138933397Y-120985967D01*
X138810967Y-121108397D01*
X138709195Y-121248475D01*
X138630588Y-121402748D01*
X138628729Y-121407240D01*
X138627531Y-121406743D01*
X138591428Y-121459513D01*
X138527061Y-121486693D01*
X138458218Y-121474759D01*
X138406756Y-121427501D01*
X138403742Y-121422196D01*
X138402398Y-121420185D01*
X138330292Y-121312270D01*
X138310626Y-121282837D01*
X138192162Y-121164373D01*
X138052860Y-121071295D01*
X137898082Y-121007184D01*
X137898074Y-121007182D01*
X137733771Y-120974500D01*
X137733767Y-120974500D01*
X137566233Y-120974500D01*
X137566228Y-120974500D01*
X137401925Y-121007182D01*
X137401917Y-121007184D01*
X137247139Y-121071295D01*
X137107837Y-121164373D01*
X136989373Y-121282837D01*
X136910754Y-121400500D01*
X136897602Y-121420185D01*
X136892913Y-121427202D01*
X136891904Y-121426528D01*
X136847417Y-121471804D01*
X136779277Y-121487254D01*
X136713601Y-121463412D01*
X136671241Y-121407848D01*
X136669588Y-121403177D01*
X136669411Y-121402748D01*
X136590804Y-121248475D01*
X136489032Y-121108397D01*
X136366602Y-120985967D01*
X136226524Y-120884195D01*
X136072257Y-120805591D01*
X135907589Y-120752087D01*
X135907581Y-120752085D01*
X135900000Y-120750884D01*
X135900000Y-121819670D01*
X135880255Y-121799925D01*
X135794745Y-121750556D01*
X135699370Y-121725000D01*
X135600630Y-121725000D01*
X135505255Y-121750556D01*
X135419745Y-121799925D01*
X135400000Y-121819670D01*
X135400000Y-120750884D01*
X135399999Y-120750884D01*
X135392418Y-120752085D01*
X135392410Y-120752087D01*
X135227742Y-120805591D01*
X135073475Y-120884195D01*
X134933397Y-120985967D01*
X134810967Y-121108397D01*
X134709195Y-121248475D01*
X134687444Y-121291164D01*
X134639469Y-121341959D01*
X134571647Y-121358753D01*
X134505513Y-121336214D01*
X134462062Y-121281499D01*
X134460778Y-121278199D01*
X134443798Y-121232673D01*
X134443793Y-121232664D01*
X134357547Y-121117455D01*
X134357544Y-121117452D01*
X134242335Y-121031206D01*
X134242328Y-121031202D01*
X134107482Y-120980908D01*
X134107483Y-120980908D01*
X134047883Y-120974501D01*
X134047881Y-120974500D01*
X134047873Y-120974500D01*
X134047864Y-120974500D01*
X133252129Y-120974500D01*
X133252123Y-120974501D01*
X133192516Y-120980908D01*
X133057671Y-121031202D01*
X133057664Y-121031206D01*
X132942455Y-121117452D01*
X132942452Y-121117455D01*
X132856206Y-121232664D01*
X132856202Y-121232671D01*
X132805908Y-121367517D01*
X132799501Y-121427116D01*
X132799500Y-121427135D01*
X131337205Y-121427135D01*
X131362984Y-121382485D01*
X131400500Y-121242475D01*
X131400500Y-121097525D01*
X131362984Y-120957515D01*
X131326171Y-120893754D01*
X131290511Y-120831988D01*
X131290506Y-120831982D01*
X131188017Y-120729493D01*
X131188011Y-120729488D01*
X131062488Y-120657017D01*
X131062489Y-120657017D01*
X131038074Y-120650475D01*
X130922475Y-120619500D01*
X130777525Y-120619500D01*
X130661926Y-120650475D01*
X130637511Y-120657017D01*
X130511988Y-120729488D01*
X130511982Y-120729493D01*
X130409493Y-120831982D01*
X130409488Y-120831988D01*
X130337017Y-120957511D01*
X130337016Y-120957515D01*
X130299500Y-121097525D01*
X130299500Y-121097527D01*
X130299500Y-121138101D01*
X130279815Y-121205140D01*
X130263181Y-121225782D01*
X127490782Y-123998181D01*
X127429459Y-124031666D01*
X127403101Y-124034500D01*
X119084386Y-124034500D01*
X119017347Y-124014815D01*
X118996705Y-123998181D01*
X118968017Y-123969493D01*
X118968011Y-123969488D01*
X118842488Y-123897017D01*
X118842489Y-123897017D01*
X118831006Y-123893940D01*
X118702475Y-123859500D01*
X118557525Y-123859500D01*
X118428993Y-123893940D01*
X118417511Y-123897017D01*
X118291988Y-123969488D01*
X118291982Y-123969493D01*
X118189493Y-124071982D01*
X118189488Y-124071988D01*
X118117017Y-124197511D01*
X118117016Y-124197515D01*
X118079500Y-124337525D01*
X107750500Y-124337525D01*
X107750500Y-116610899D01*
X107770185Y-116543860D01*
X107822989Y-116498105D01*
X107892147Y-116488161D01*
X107955703Y-116517186D01*
X107962181Y-116523218D01*
X108263181Y-116824218D01*
X108296666Y-116885541D01*
X108299500Y-116911899D01*
X108299500Y-116932475D01*
X108331852Y-117053212D01*
X108337017Y-117072488D01*
X108409488Y-117198011D01*
X108409490Y-117198013D01*
X108409491Y-117198015D01*
X108511985Y-117300509D01*
X108511986Y-117300510D01*
X108511988Y-117300511D01*
X108637511Y-117372982D01*
X108637512Y-117372982D01*
X108637515Y-117372984D01*
X108777525Y-117410500D01*
X108777528Y-117410500D01*
X108922472Y-117410500D01*
X108922475Y-117410500D01*
X109062485Y-117372984D01*
X109188015Y-117300509D01*
X109290509Y-117198015D01*
X109362984Y-117072485D01*
X109400500Y-116932475D01*
X109400500Y-116850177D01*
X109420185Y-116783138D01*
X109472989Y-116737383D01*
X109542147Y-116727439D01*
X109556575Y-116730398D01*
X109678100Y-116762961D01*
X109678103Y-116762961D01*
X109823047Y-116762961D01*
X109823050Y-116762961D01*
X109963060Y-116725445D01*
X110088590Y-116652970D01*
X110191084Y-116550476D01*
X110263559Y-116424946D01*
X110301075Y-116284936D01*
X110301075Y-116139986D01*
X110263559Y-115999976D01*
X110263277Y-115999488D01*
X110191086Y-115874449D01*
X110191081Y-115874443D01*
X110088592Y-115771954D01*
X110088586Y-115771949D01*
X109963063Y-115699478D01*
X109963064Y-115699478D01*
X109951581Y-115696401D01*
X109823050Y-115661961D01*
X109678100Y-115661961D01*
X109549568Y-115696401D01*
X109538086Y-115699478D01*
X109412563Y-115771949D01*
X109412557Y-115771954D01*
X109405456Y-115779056D01*
X109344133Y-115812541D01*
X109274441Y-115807557D01*
X109230094Y-115779056D01*
X109151819Y-115700781D01*
X109118334Y-115639458D01*
X109115500Y-115613100D01*
X109115500Y-110985899D01*
X109135185Y-110918860D01*
X109187989Y-110873105D01*
X109257147Y-110863161D01*
X109320703Y-110892186D01*
X109327180Y-110898217D01*
X112349639Y-113920677D01*
X112349640Y-113920678D01*
X112349642Y-113920679D01*
X112360620Y-113927017D01*
X112435265Y-113970113D01*
X112530766Y-113995702D01*
X112530767Y-113995702D01*
X114941221Y-113995702D01*
X115003221Y-114012315D01*
X115117309Y-114078184D01*
X115117310Y-114078184D01*
X115117313Y-114078186D01*
X115257323Y-114115702D01*
X115257326Y-114115702D01*
X115402270Y-114115702D01*
X115402273Y-114115702D01*
X115542283Y-114078186D01*
X115667813Y-114005711D01*
X115770307Y-113903217D01*
X115842782Y-113777687D01*
X115880298Y-113637677D01*
X115880298Y-113492727D01*
X115842782Y-113352717D01*
X115813604Y-113302180D01*
X115770309Y-113227190D01*
X115770304Y-113227184D01*
X115667815Y-113124695D01*
X115667809Y-113124690D01*
X115542286Y-113052219D01*
X115542287Y-113052219D01*
X115530804Y-113049142D01*
X115402273Y-113014702D01*
X115257323Y-113014702D01*
X115128791Y-113049142D01*
X115117309Y-113052219D01*
X114991786Y-113124690D01*
X114991780Y-113124695D01*
X114908093Y-113208383D01*
X114846770Y-113241868D01*
X114820412Y-113244702D01*
X112787102Y-113244702D01*
X112720063Y-113225017D01*
X112699421Y-113208383D01*
X112551075Y-113060037D01*
X112517590Y-112998714D01*
X112522574Y-112929022D01*
X112564446Y-112873089D01*
X112606655Y-112852584D01*
X112642485Y-112842984D01*
X112768015Y-112770509D01*
X112870509Y-112668015D01*
X112942984Y-112542485D01*
X112980500Y-112402475D01*
X112980500Y-112257525D01*
X112942984Y-112117515D01*
X112912127Y-112064070D01*
X112870511Y-111991988D01*
X112870506Y-111991982D01*
X112768017Y-111889493D01*
X112768011Y-111889488D01*
X112642488Y-111817017D01*
X112642489Y-111817017D01*
X112631006Y-111813940D01*
X112502475Y-111779500D01*
X112502472Y-111779500D01*
X112461899Y-111779500D01*
X112394860Y-111759815D01*
X112374218Y-111743181D01*
X111051819Y-110420782D01*
X111018334Y-110359459D01*
X111015500Y-110333101D01*
X111015500Y-107955567D01*
X111014439Y-107947509D01*
X111016990Y-107947173D01*
X111016994Y-107910870D01*
X111014439Y-107910534D01*
X111015500Y-107902475D01*
X111015500Y-107757527D01*
X111015500Y-107757525D01*
X110977984Y-107617515D01*
X110962498Y-107590693D01*
X110905511Y-107491988D01*
X110905506Y-107491982D01*
X110803017Y-107389493D01*
X110803011Y-107389488D01*
X110677488Y-107317017D01*
X110677489Y-107317017D01*
X110649409Y-107309493D01*
X110537475Y-107279500D01*
X110392525Y-107279500D01*
X110321593Y-107298506D01*
X110251743Y-107296843D01*
X110193881Y-107257680D01*
X110166377Y-107193451D01*
X110165500Y-107178731D01*
X110165500Y-102924500D01*
X110185185Y-102857461D01*
X110237989Y-102811706D01*
X110289500Y-102800500D01*
X119229192Y-102800500D01*
X119296231Y-102820185D01*
X119316873Y-102836819D01*
X119335327Y-102855273D01*
X119335331Y-102855276D01*
X119441866Y-102926461D01*
X119441872Y-102926464D01*
X119441873Y-102926465D01*
X119560256Y-102975501D01*
X119560260Y-102975501D01*
X119560261Y-102975502D01*
X119685928Y-103000500D01*
X119685931Y-103000500D01*
X121979192Y-103000500D01*
X122046231Y-103020185D01*
X122066873Y-103036819D01*
X122963486Y-103933432D01*
X122996971Y-103994755D01*
X122999805Y-104021113D01*
X122999805Y-106314374D01*
X122999805Y-106314376D01*
X122999804Y-106314376D01*
X123021208Y-106421972D01*
X123023120Y-106431584D01*
X123024804Y-106440049D01*
X123073840Y-106558432D01*
X123134706Y-106649526D01*
X123145031Y-106664978D01*
X123145032Y-106664979D01*
X123537079Y-107057025D01*
X123570564Y-107118348D01*
X123565580Y-107188039D01*
X123523709Y-107243973D01*
X123511399Y-107252092D01*
X123411991Y-107309486D01*
X123411982Y-107309493D01*
X123309493Y-107411982D01*
X123309488Y-107411988D01*
X123237017Y-107537511D01*
X123237016Y-107537515D01*
X123199500Y-107677525D01*
X123199500Y-107822475D01*
X123237016Y-107962485D01*
X123237017Y-107962488D01*
X123309488Y-108088011D01*
X123309490Y-108088013D01*
X123309491Y-108088015D01*
X123411985Y-108190509D01*
X123411986Y-108190510D01*
X123411988Y-108190511D01*
X123537511Y-108262982D01*
X123537512Y-108262982D01*
X123537515Y-108262984D01*
X123677525Y-108300500D01*
X123677528Y-108300500D01*
X123822472Y-108300500D01*
X123822475Y-108300500D01*
X123908684Y-108277400D01*
X123978532Y-108279063D01*
X124028457Y-108309494D01*
X126199525Y-110480562D01*
X126269438Y-110550475D01*
X126349741Y-110596838D01*
X126355062Y-110599910D01*
X126402811Y-110612705D01*
X126402812Y-110612705D01*
X126412903Y-110615408D01*
X126450564Y-110625500D01*
X126450565Y-110625500D01*
X133443101Y-110625500D01*
X133510140Y-110645185D01*
X133530782Y-110661819D01*
X137349525Y-114480562D01*
X137419438Y-114550475D01*
X137505062Y-114599910D01*
X137520648Y-114604086D01*
X137520650Y-114604087D01*
X137520651Y-114604087D01*
X137600564Y-114625500D01*
X137600565Y-114625500D01*
X140299434Y-114625500D01*
X140299436Y-114625500D01*
X140379349Y-114604087D01*
X140394938Y-114599910D01*
X140480562Y-114550475D01*
X140550475Y-114480562D01*
X143462819Y-111568218D01*
X143524142Y-111534733D01*
X143593834Y-111539717D01*
X143649767Y-111581589D01*
X143674184Y-111647053D01*
X143674500Y-111655899D01*
X143674500Y-113095614D01*
X143654815Y-113162653D01*
X143638181Y-113183295D01*
X143609493Y-113211982D01*
X143609488Y-113211988D01*
X143537017Y-113337511D01*
X143537016Y-113337515D01*
X143499500Y-113477525D01*
X143499500Y-113622475D01*
X143532315Y-113744939D01*
X143537017Y-113762488D01*
X143609488Y-113888011D01*
X143609490Y-113888013D01*
X143609491Y-113888015D01*
X143711985Y-113990509D01*
X143727546Y-113999493D01*
X143740969Y-114007243D01*
X143789185Y-114057810D01*
X143802407Y-114126417D01*
X143776439Y-114191282D01*
X143766650Y-114202311D01*
X141130782Y-116838181D01*
X141069459Y-116871666D01*
X141043101Y-116874500D01*
X130556899Y-116874500D01*
X130489860Y-116854815D01*
X130469218Y-116838181D01*
X121511819Y-107880782D01*
X121478334Y-107819459D01*
X121475500Y-107793101D01*
X121475500Y-106900567D01*
X121475500Y-106900565D01*
X121449910Y-106805062D01*
X121400475Y-106719438D01*
X121330562Y-106649525D01*
X121244938Y-106600090D01*
X121149435Y-106574500D01*
X121050565Y-106574500D01*
X120973031Y-106595275D01*
X120940938Y-106599500D01*
X120106544Y-106599500D01*
X120039505Y-106579815D01*
X120018863Y-106563181D01*
X118049164Y-104593482D01*
X118017071Y-104537897D01*
X117989799Y-104436114D01*
X117930489Y-104333387D01*
X117846613Y-104249511D01*
X117743886Y-104190201D01*
X117629309Y-104159500D01*
X117629306Y-104159500D01*
X116289386Y-104159500D01*
X116222347Y-104139815D01*
X116201705Y-104123181D01*
X116198017Y-104119493D01*
X116198011Y-104119488D01*
X116072488Y-104047017D01*
X116072489Y-104047017D01*
X116061006Y-104043940D01*
X115932475Y-104009500D01*
X115787525Y-104009500D01*
X115658993Y-104043940D01*
X115647511Y-104047017D01*
X115521988Y-104119488D01*
X115521982Y-104119493D01*
X115419493Y-104221982D01*
X115419488Y-104221988D01*
X115347017Y-104347511D01*
X115347016Y-104347515D01*
X115309500Y-104487525D01*
X115309500Y-104632475D01*
X115347016Y-104772485D01*
X115347017Y-104772488D01*
X115419488Y-104898011D01*
X115419490Y-104898013D01*
X115419491Y-104898015D01*
X115521985Y-105000509D01*
X115521986Y-105000510D01*
X115521988Y-105000511D01*
X115647511Y-105072982D01*
X115647512Y-105072982D01*
X115647515Y-105072984D01*
X115787525Y-105110500D01*
X115787528Y-105110500D01*
X115932472Y-105110500D01*
X115932475Y-105110500D01*
X116072485Y-105072984D01*
X116072488Y-105072981D01*
X116079838Y-105069938D01*
X116127289Y-105060500D01*
X117473456Y-105060500D01*
X117540495Y-105080185D01*
X117561137Y-105096819D01*
X119452137Y-106987819D01*
X119485622Y-107049142D01*
X119480638Y-107118834D01*
X119438766Y-107174767D01*
X119373302Y-107199184D01*
X119364456Y-107199500D01*
X119289309Y-107199500D01*
X119170691Y-107199500D01*
X119056114Y-107230201D01*
X119056112Y-107230201D01*
X119056112Y-107230202D01*
X118953387Y-107289511D01*
X118953384Y-107289513D01*
X118869513Y-107373384D01*
X118869511Y-107373387D01*
X118810201Y-107476114D01*
X118779500Y-107590691D01*
X118779500Y-107590693D01*
X118779500Y-110676063D01*
X118762887Y-110738062D01*
X118717019Y-110817508D01*
X118717016Y-110817513D01*
X118698258Y-110887520D01*
X118679500Y-110957525D01*
X118679500Y-111102475D01*
X118717016Y-111242485D01*
X118717017Y-111242488D01*
X118789488Y-111368011D01*
X118789490Y-111368013D01*
X118789491Y-111368015D01*
X118891985Y-111470509D01*
X118891986Y-111470510D01*
X118891988Y-111470511D01*
X119017511Y-111542982D01*
X119017512Y-111542982D01*
X119017515Y-111542984D01*
X119157525Y-111580500D01*
X119157528Y-111580500D01*
X119302472Y-111580500D01*
X119302475Y-111580500D01*
X119442485Y-111542984D01*
X119568015Y-111470509D01*
X119670509Y-111368015D01*
X119742984Y-111242485D01*
X119780500Y-111102475D01*
X119780500Y-110957525D01*
X119742984Y-110817515D01*
X119742516Y-110816705D01*
X119697113Y-110738062D01*
X119680500Y-110676063D01*
X119680500Y-108224500D01*
X119700185Y-108157461D01*
X119752989Y-108111706D01*
X119804500Y-108100500D01*
X120036064Y-108100500D01*
X120098063Y-108117112D01*
X120177515Y-108162984D01*
X120317525Y-108200500D01*
X120317528Y-108200500D01*
X120462472Y-108200500D01*
X120462475Y-108200500D01*
X120602485Y-108162984D01*
X120613612Y-108156559D01*
X120681510Y-108140084D01*
X120747538Y-108162933D01*
X120783001Y-108201942D01*
X120799525Y-108230562D01*
X120799526Y-108230563D01*
X130031782Y-117462819D01*
X130065267Y-117524142D01*
X130060283Y-117593834D01*
X130018411Y-117649767D01*
X129952947Y-117674184D01*
X129944101Y-117674500D01*
X129866899Y-117674500D01*
X129799860Y-117654815D01*
X129779218Y-117638181D01*
X126280563Y-114139526D01*
X126280562Y-114139525D01*
X126194940Y-114090091D01*
X126194939Y-114090090D01*
X126107993Y-114066793D01*
X126107993Y-114066792D01*
X126107990Y-114066792D01*
X126099437Y-114064500D01*
X126099436Y-114064500D01*
X126099435Y-114064500D01*
X119164386Y-114064500D01*
X119097347Y-114044815D01*
X119076705Y-114028181D01*
X119048017Y-113999493D01*
X119048011Y-113999488D01*
X118922488Y-113927017D01*
X118922489Y-113927017D01*
X118898820Y-113920675D01*
X118782475Y-113889500D01*
X118637525Y-113889500D01*
X118521180Y-113920675D01*
X118497511Y-113927017D01*
X118371988Y-113999488D01*
X118371982Y-113999493D01*
X118269493Y-114101982D01*
X118269488Y-114101988D01*
X118197017Y-114227511D01*
X118197016Y-114227515D01*
X118159500Y-114367525D01*
X118159500Y-114512475D01*
X118193004Y-114637511D01*
X118197017Y-114652488D01*
X118269488Y-114778011D01*
X118269490Y-114778013D01*
X118269491Y-114778015D01*
X118371985Y-114880509D01*
X118371986Y-114880510D01*
X118371988Y-114880511D01*
X118497511Y-114952982D01*
X118497512Y-114952982D01*
X118497515Y-114952984D01*
X118637525Y-114990500D01*
X118637528Y-114990500D01*
X118782472Y-114990500D01*
X118782475Y-114990500D01*
X118894852Y-114960388D01*
X118964700Y-114962051D01*
X119022563Y-115001213D01*
X119050067Y-115065441D01*
X119039270Y-115129646D01*
X119040128Y-115130001D01*
X119038584Y-115133727D01*
X119038481Y-115134344D01*
X119037789Y-115135647D01*
X119037017Y-115137510D01*
X119037016Y-115137515D01*
X118999500Y-115277525D01*
X118999500Y-115422475D01*
X119037016Y-115562485D01*
X119037017Y-115562488D01*
X119109488Y-115688011D01*
X119109493Y-115688017D01*
X119137246Y-115715770D01*
X119170731Y-115777093D01*
X119165747Y-115846785D01*
X119123875Y-115902718D01*
X119081662Y-115923225D01*
X119067513Y-115927016D01*
X119067511Y-115927017D01*
X118941988Y-115999488D01*
X118941982Y-115999493D01*
X118839493Y-116101982D01*
X118839488Y-116101988D01*
X118767017Y-116227511D01*
X118767016Y-116227515D01*
X118729500Y-116367525D01*
X118729500Y-116367527D01*
X118729500Y-116512473D01*
X118729563Y-116512952D01*
X118729500Y-116513355D01*
X118729500Y-116520602D01*
X118728370Y-116520602D01*
X118718795Y-116581987D01*
X118672413Y-116634242D01*
X118605144Y-116653125D01*
X118550329Y-116639619D01*
X118492450Y-116610129D01*
X118492447Y-116610128D01*
X118492445Y-116610127D01*
X118327701Y-116556598D01*
X118327699Y-116556597D01*
X118327698Y-116556597D01*
X118196271Y-116535781D01*
X118156611Y-116529500D01*
X117983389Y-116529500D01*
X117943728Y-116535781D01*
X117812302Y-116556597D01*
X117647552Y-116610128D01*
X117493211Y-116688768D01*
X117439986Y-116727439D01*
X117353072Y-116790586D01*
X117353070Y-116790588D01*
X117353069Y-116790588D01*
X117230588Y-116913069D01*
X117230588Y-116913070D01*
X117230586Y-116913072D01*
X117216491Y-116932472D01*
X117128768Y-117053211D01*
X117050128Y-117207550D01*
X117049099Y-117210720D01*
X117048381Y-117211769D01*
X117048266Y-117212048D01*
X117048207Y-117212023D01*
X117009657Y-117268393D01*
X116945297Y-117295587D01*
X116876451Y-117283668D01*
X116824979Y-117236420D01*
X116813239Y-117210711D01*
X116781096Y-117111784D01*
X116684624Y-116922449D01*
X116645270Y-116868282D01*
X116645269Y-116868282D01*
X116012962Y-117500590D01*
X115995925Y-117437007D01*
X115930099Y-117322993D01*
X115837007Y-117229901D01*
X115722993Y-117164075D01*
X115659409Y-117147037D01*
X116291716Y-116514728D01*
X116237550Y-116475375D01*
X116048217Y-116378904D01*
X115846129Y-116313242D01*
X115636246Y-116280000D01*
X115423754Y-116280000D01*
X115213872Y-116313242D01*
X115213869Y-116313242D01*
X115011782Y-116378904D01*
X114822439Y-116475380D01*
X114768282Y-116514727D01*
X114768282Y-116514728D01*
X115400591Y-117147037D01*
X115337007Y-117164075D01*
X115222993Y-117229901D01*
X115129901Y-117322993D01*
X115064075Y-117437007D01*
X115047037Y-117500591D01*
X114414728Y-116868282D01*
X114414727Y-116868282D01*
X114375380Y-116922440D01*
X114375378Y-116922443D01*
X114324984Y-117021346D01*
X114277010Y-117072141D01*
X114209188Y-117088936D01*
X114143054Y-117066398D01*
X114099603Y-117011683D01*
X114090500Y-116965050D01*
X114090500Y-116755323D01*
X114090499Y-116755321D01*
X114075967Y-116682264D01*
X114075966Y-116682260D01*
X114056071Y-116652485D01*
X114020601Y-116599399D01*
X113956542Y-116556597D01*
X113937739Y-116544033D01*
X113937735Y-116544032D01*
X113864677Y-116529500D01*
X113864674Y-116529500D01*
X112115326Y-116529500D01*
X112115323Y-116529500D01*
X112042264Y-116544032D01*
X112042260Y-116544033D01*
X111959399Y-116599399D01*
X111904033Y-116682260D01*
X111904032Y-116682264D01*
X111889500Y-116755321D01*
X111889500Y-118504678D01*
X111904032Y-118577735D01*
X111904033Y-118577739D01*
X111904034Y-118577740D01*
X111959399Y-118660601D01*
X112042260Y-118715966D01*
X112042264Y-118715967D01*
X112115321Y-118730499D01*
X112115324Y-118730500D01*
X112115326Y-118730500D01*
X113864676Y-118730500D01*
X113864677Y-118730499D01*
X113937740Y-118715966D01*
X114020601Y-118660601D01*
X114075966Y-118577740D01*
X114090500Y-118504674D01*
X114090500Y-118294949D01*
X114110185Y-118227910D01*
X114162989Y-118182155D01*
X114232147Y-118172211D01*
X114295703Y-118201236D01*
X114324985Y-118238654D01*
X114375375Y-118337550D01*
X114414728Y-118391716D01*
X115047037Y-117759408D01*
X115064075Y-117822993D01*
X115129901Y-117937007D01*
X115222993Y-118030099D01*
X115337007Y-118095925D01*
X115400590Y-118112962D01*
X114768282Y-118745269D01*
X114768282Y-118745270D01*
X114822449Y-118784624D01*
X115011782Y-118881095D01*
X115213870Y-118946757D01*
X115423754Y-118980000D01*
X115636246Y-118980000D01*
X115846127Y-118946757D01*
X115846130Y-118946757D01*
X116048219Y-118881094D01*
X116154204Y-118827092D01*
X116222873Y-118814195D01*
X116287614Y-118840471D01*
X116327872Y-118897577D01*
X116334500Y-118937576D01*
X116334500Y-119745614D01*
X116314815Y-119812653D01*
X116298181Y-119833295D01*
X116269493Y-119861982D01*
X116269488Y-119861988D01*
X116197017Y-119987511D01*
X116197016Y-119987515D01*
X116159500Y-120127525D01*
X116159500Y-120272475D01*
X116196213Y-120409487D01*
X116197017Y-120412488D01*
X116269488Y-120538011D01*
X116269490Y-120538013D01*
X116269491Y-120538015D01*
X116371985Y-120640509D01*
X116371986Y-120640510D01*
X116371988Y-120640511D01*
X116497511Y-120712982D01*
X116497512Y-120712982D01*
X116497515Y-120712984D01*
X116637525Y-120750500D01*
X116637528Y-120750500D01*
X116782472Y-120750500D01*
X116782475Y-120750500D01*
X116922485Y-120712984D01*
X117048015Y-120640509D01*
X117150509Y-120538015D01*
X117222984Y-120412485D01*
X117260500Y-120272475D01*
X117260500Y-120127525D01*
X117222984Y-119987515D01*
X117153699Y-119867511D01*
X117150511Y-119861988D01*
X117150506Y-119861982D01*
X117121819Y-119833295D01*
X117088334Y-119771972D01*
X117085500Y-119745614D01*
X117085500Y-119196898D01*
X117105185Y-119129859D01*
X117121815Y-119109221D01*
X117543715Y-118687320D01*
X117605036Y-118653837D01*
X117669710Y-118657071D01*
X117812299Y-118703402D01*
X117983389Y-118730500D01*
X117983390Y-118730500D01*
X118156610Y-118730500D01*
X118156611Y-118730500D01*
X118327701Y-118703402D01*
X118492445Y-118649873D01*
X118646788Y-118571232D01*
X118786928Y-118469414D01*
X118909414Y-118346928D01*
X119011232Y-118206788D01*
X119089873Y-118052445D01*
X119143402Y-117887701D01*
X119170500Y-117716611D01*
X119170500Y-117543389D01*
X119143402Y-117372299D01*
X119089873Y-117207555D01*
X119069628Y-117167823D01*
X119056733Y-117099155D01*
X119083009Y-117034415D01*
X119140115Y-116994157D01*
X119199181Y-116991625D01*
X119199469Y-116989439D01*
X119207523Y-116990499D01*
X119207525Y-116990500D01*
X119207527Y-116990500D01*
X119352472Y-116990500D01*
X119352475Y-116990500D01*
X119486767Y-116954516D01*
X119556615Y-116956179D01*
X119614478Y-116995341D01*
X119641982Y-117059569D01*
X119630396Y-117128472D01*
X119629344Y-117130585D01*
X119590129Y-117207549D01*
X119590127Y-117207554D01*
X119590127Y-117207555D01*
X119580554Y-117237017D01*
X119536597Y-117372302D01*
X119509500Y-117543389D01*
X119509500Y-117716610D01*
X119533493Y-117868100D01*
X119536598Y-117887701D01*
X119582866Y-118030099D01*
X119590128Y-118052447D01*
X119668768Y-118206788D01*
X119738402Y-118302630D01*
X119761882Y-118368436D01*
X119746057Y-118436490D01*
X119725765Y-118463197D01*
X118695782Y-119493181D01*
X118634459Y-119526666D01*
X118608101Y-119529500D01*
X118567525Y-119529500D01*
X118438993Y-119563940D01*
X118427511Y-119567017D01*
X118301988Y-119639488D01*
X118301982Y-119639493D01*
X118199493Y-119741982D01*
X118199488Y-119741988D01*
X118127017Y-119867511D01*
X118127016Y-119867515D01*
X118089500Y-120007525D01*
X118089500Y-120152475D01*
X118123008Y-120277527D01*
X118127017Y-120292488D01*
X118199488Y-120418011D01*
X118199490Y-120418013D01*
X118199491Y-120418015D01*
X118301985Y-120520509D01*
X118301986Y-120520510D01*
X118301988Y-120520511D01*
X118427511Y-120592982D01*
X118427512Y-120592982D01*
X118427515Y-120592984D01*
X118567525Y-120630500D01*
X118567528Y-120630500D01*
X118712472Y-120630500D01*
X118712475Y-120630500D01*
X118852485Y-120592984D01*
X118978015Y-120520509D01*
X119080509Y-120418015D01*
X119152984Y-120292485D01*
X119190500Y-120152475D01*
X119190500Y-120111899D01*
X119210185Y-120044860D01*
X119226819Y-120024218D01*
X120484218Y-118766819D01*
X120545541Y-118733334D01*
X120571899Y-118730500D01*
X120696610Y-118730500D01*
X120696611Y-118730500D01*
X120867701Y-118703402D01*
X121032445Y-118649873D01*
X121186788Y-118571232D01*
X121326928Y-118469414D01*
X121449414Y-118346928D01*
X121551232Y-118206788D01*
X121629873Y-118052445D01*
X121683402Y-117887701D01*
X121688396Y-117856166D01*
X121718324Y-117793035D01*
X121777636Y-117756103D01*
X121847498Y-117757101D01*
X121898549Y-117787885D01*
X123261138Y-119150475D01*
X123261139Y-119150476D01*
X123261141Y-119150477D01*
X123293543Y-119169184D01*
X123346764Y-119199911D01*
X123442265Y-119225500D01*
X123442266Y-119225500D01*
X140243101Y-119225500D01*
X140310140Y-119245185D01*
X140330782Y-119261819D01*
X141266651Y-120197688D01*
X141300136Y-120259011D01*
X141295152Y-120328703D01*
X141253280Y-120384636D01*
X141240971Y-120392755D01*
X141211991Y-120409487D01*
X141211982Y-120409493D01*
X141109493Y-120511982D01*
X141109488Y-120511988D01*
X141037017Y-120637511D01*
X141036214Y-120640509D01*
X140999500Y-120777525D01*
X140999500Y-120922475D01*
X141028635Y-121031206D01*
X141037017Y-121062488D01*
X141109488Y-121188011D01*
X141109490Y-121188013D01*
X141109491Y-121188015D01*
X141211985Y-121290509D01*
X141211986Y-121290510D01*
X141211988Y-121290511D01*
X141337511Y-121362982D01*
X141337512Y-121362982D01*
X141337515Y-121362984D01*
X141477525Y-121400500D01*
X141553456Y-121400500D01*
X141620495Y-121420185D01*
X141641137Y-121436819D01*
X141989065Y-121784747D01*
X142022550Y-121846070D01*
X142017566Y-121915762D01*
X141975694Y-121971695D01*
X141963385Y-121979815D01*
X141911985Y-122009491D01*
X141911982Y-122009493D01*
X141809493Y-122111982D01*
X141809488Y-122111988D01*
X141737017Y-122237511D01*
X141737016Y-122237515D01*
X141699500Y-122377525D01*
X141699500Y-122522475D01*
X141726458Y-122623082D01*
X141737017Y-122662488D01*
X141809488Y-122788011D01*
X141809490Y-122788013D01*
X141809491Y-122788015D01*
X141911985Y-122890509D01*
X141911986Y-122890510D01*
X141911988Y-122890511D01*
X142037511Y-122962982D01*
X142037512Y-122962982D01*
X142037515Y-122962984D01*
X142177525Y-123000500D01*
X142177528Y-123000500D01*
X142322472Y-123000500D01*
X142322475Y-123000500D01*
X142462485Y-122962984D01*
X142588015Y-122890509D01*
X142641705Y-122836819D01*
X142703028Y-122803334D01*
X142729386Y-122800500D01*
X149996142Y-122800500D01*
X149996144Y-122800500D01*
X150085288Y-122776614D01*
X150165212Y-122730469D01*
X150230469Y-122665212D01*
X150276614Y-122585288D01*
X150300500Y-122496144D01*
X150300500Y-122403856D01*
X150276614Y-122314712D01*
X150265472Y-122295413D01*
X150230469Y-122234787D01*
X149786819Y-121791137D01*
X149753334Y-121729814D01*
X149750500Y-121703456D01*
X149750500Y-112777525D01*
X153799500Y-112777525D01*
X153799500Y-112922475D01*
X153836360Y-113060037D01*
X153837017Y-113062488D01*
X153909488Y-113188011D01*
X153909493Y-113188017D01*
X153938181Y-113216705D01*
X153971666Y-113278028D01*
X153974500Y-113304386D01*
X153974500Y-113649435D01*
X153974784Y-113650495D01*
X154000090Y-113744939D01*
X154010222Y-113762488D01*
X154049525Y-113830562D01*
X154049526Y-113830563D01*
X154049527Y-113830564D01*
X156188181Y-115969218D01*
X156221666Y-116030541D01*
X156224500Y-116056899D01*
X156224500Y-117722938D01*
X156204815Y-117789977D01*
X156162502Y-117830324D01*
X156111988Y-117859489D01*
X156111982Y-117859493D01*
X156009493Y-117961982D01*
X156009488Y-117961988D01*
X155937017Y-118087511D01*
X155934628Y-118096426D01*
X155899500Y-118227525D01*
X155899500Y-118372475D01*
X155933695Y-118500090D01*
X155937017Y-118512488D01*
X156009488Y-118638011D01*
X156009490Y-118638013D01*
X156009491Y-118638015D01*
X156111985Y-118740509D01*
X156111986Y-118740510D01*
X156111988Y-118740511D01*
X156237511Y-118812982D01*
X156237512Y-118812982D01*
X156237515Y-118812984D01*
X156377525Y-118850500D01*
X156377528Y-118850500D01*
X156522472Y-118850500D01*
X156522475Y-118850500D01*
X156582825Y-118834329D01*
X156652672Y-118835992D01*
X156710534Y-118875154D01*
X156722303Y-118892103D01*
X156726537Y-118899436D01*
X156781258Y-118994215D01*
X156883752Y-119096709D01*
X156883753Y-119096710D01*
X156883755Y-119096711D01*
X157009278Y-119169182D01*
X157009279Y-119169182D01*
X157009282Y-119169184D01*
X157149292Y-119206700D01*
X157149295Y-119206700D01*
X157294239Y-119206700D01*
X157294242Y-119206700D01*
X157434252Y-119169184D01*
X157559782Y-119096709D01*
X157662276Y-118994215D01*
X157734751Y-118868685D01*
X157772267Y-118728675D01*
X157772267Y-118583725D01*
X157734751Y-118443715D01*
X157730883Y-118437016D01*
X157662278Y-118318188D01*
X157662273Y-118318182D01*
X157559784Y-118215693D01*
X157559782Y-118215691D01*
X157559779Y-118215689D01*
X157559775Y-118215686D01*
X157537499Y-118202825D01*
X157489284Y-118152258D01*
X157475500Y-118095439D01*
X157475500Y-115664170D01*
X157475500Y-115664169D01*
X157475500Y-115664168D01*
X157449911Y-115568667D01*
X157408230Y-115496473D01*
X157400477Y-115483044D01*
X157400473Y-115483039D01*
X156554945Y-114637511D01*
X155615542Y-113698109D01*
X157591313Y-113698109D01*
X157591313Y-115043844D01*
X157591314Y-115043850D01*
X157597721Y-115103457D01*
X157648015Y-115238302D01*
X157648019Y-115238309D01*
X157734265Y-115353518D01*
X157734268Y-115353521D01*
X157849477Y-115439767D01*
X157849484Y-115439771D01*
X157984330Y-115490065D01*
X157984329Y-115490065D01*
X157991257Y-115490809D01*
X158043940Y-115496474D01*
X158839685Y-115496473D01*
X158899296Y-115490065D01*
X159034144Y-115439770D01*
X159149359Y-115353520D01*
X159235609Y-115238305D01*
X159252591Y-115192774D01*
X159294461Y-115136840D01*
X159359925Y-115112422D01*
X159428198Y-115127273D01*
X159477604Y-115176677D01*
X159479257Y-115179810D01*
X159501007Y-115222495D01*
X159602780Y-115362576D01*
X159725210Y-115485006D01*
X159865288Y-115586778D01*
X160019557Y-115665382D01*
X160184228Y-115718888D01*
X160184227Y-115718888D01*
X160191812Y-115720089D01*
X160191813Y-115720088D01*
X160191813Y-114651304D01*
X160211558Y-114671049D01*
X160297068Y-114720418D01*
X160392443Y-114745974D01*
X160491183Y-114745974D01*
X160586558Y-114720418D01*
X160672068Y-114671049D01*
X160691813Y-114651304D01*
X160691813Y-115720089D01*
X160699397Y-115718888D01*
X160864068Y-115665382D01*
X161018337Y-115586778D01*
X161158415Y-115485006D01*
X161280845Y-115362576D01*
X161382617Y-115222498D01*
X161461221Y-115068231D01*
X161514727Y-114903558D01*
X161541813Y-114732545D01*
X161541813Y-114620974D01*
X160722143Y-114620974D01*
X160741888Y-114601229D01*
X160791257Y-114515719D01*
X160816813Y-114420344D01*
X160816813Y-114321604D01*
X160791257Y-114226229D01*
X160741888Y-114140719D01*
X160722143Y-114120974D01*
X161541813Y-114120974D01*
X161541813Y-114009402D01*
X161514727Y-113838389D01*
X161461221Y-113673716D01*
X161382617Y-113519449D01*
X161280845Y-113379371D01*
X161158415Y-113256941D01*
X161018337Y-113155169D01*
X160864070Y-113076565D01*
X160699402Y-113023061D01*
X160699394Y-113023059D01*
X160691813Y-113021858D01*
X160691813Y-114090644D01*
X160672068Y-114070899D01*
X160586558Y-114021530D01*
X160491183Y-113995974D01*
X160392443Y-113995974D01*
X160297068Y-114021530D01*
X160211558Y-114070899D01*
X160191813Y-114090644D01*
X160191813Y-113021858D01*
X160191812Y-113021858D01*
X160184231Y-113023059D01*
X160184223Y-113023061D01*
X160019555Y-113076565D01*
X159865288Y-113155169D01*
X159725210Y-113256941D01*
X159602780Y-113379371D01*
X159501008Y-113519449D01*
X159479257Y-113562138D01*
X159431282Y-113612933D01*
X159363460Y-113629727D01*
X159297326Y-113607188D01*
X159253875Y-113552473D01*
X159252591Y-113549173D01*
X159235611Y-113503647D01*
X159235606Y-113503638D01*
X159149360Y-113388429D01*
X159149357Y-113388426D01*
X159034148Y-113302180D01*
X159034141Y-113302176D01*
X158899295Y-113251882D01*
X158899296Y-113251882D01*
X158839696Y-113245475D01*
X158839694Y-113245474D01*
X158839686Y-113245474D01*
X158839677Y-113245474D01*
X158043942Y-113245474D01*
X158043936Y-113245475D01*
X157984329Y-113251882D01*
X157849484Y-113302176D01*
X157849477Y-113302180D01*
X157734268Y-113388426D01*
X157734265Y-113388429D01*
X157648019Y-113503638D01*
X157648015Y-113503645D01*
X157597721Y-113638491D01*
X157591314Y-113698090D01*
X157591313Y-113698109D01*
X155615542Y-113698109D01*
X155610804Y-113693371D01*
X155577320Y-113632049D01*
X155582304Y-113562357D01*
X155591100Y-113543690D01*
X155620523Y-113492729D01*
X155637984Y-113462485D01*
X155675500Y-113322475D01*
X155675500Y-113177525D01*
X155637984Y-113037515D01*
X155628944Y-113021858D01*
X155565511Y-112911988D01*
X155565506Y-112911982D01*
X155463017Y-112809493D01*
X155463011Y-112809488D01*
X155337488Y-112737017D01*
X155337489Y-112737017D01*
X155326006Y-112733940D01*
X155197475Y-112699500D01*
X155052525Y-112699500D01*
X155052523Y-112699500D01*
X155010067Y-112710876D01*
X154940217Y-112709213D01*
X154882355Y-112670049D01*
X154863411Y-112638546D01*
X154862982Y-112637511D01*
X154790511Y-112511988D01*
X154790506Y-112511982D01*
X154688017Y-112409493D01*
X154688011Y-112409488D01*
X154562488Y-112337017D01*
X154562489Y-112337017D01*
X154551006Y-112333940D01*
X154422475Y-112299500D01*
X154277525Y-112299500D01*
X154148993Y-112333940D01*
X154137511Y-112337017D01*
X154011988Y-112409488D01*
X154011982Y-112409493D01*
X153909493Y-112511982D01*
X153909488Y-112511988D01*
X153837017Y-112637511D01*
X153837016Y-112637515D01*
X153799500Y-112777525D01*
X149750500Y-112777525D01*
X149750500Y-109653858D01*
X149750500Y-109653856D01*
X149726614Y-109564712D01*
X149704532Y-109526465D01*
X149680470Y-109484788D01*
X147661819Y-107466137D01*
X147628334Y-107404814D01*
X147625500Y-107378456D01*
X147625500Y-106823389D01*
X158249500Y-106823389D01*
X158249500Y-106996611D01*
X158276598Y-107167701D01*
X158330127Y-107332445D01*
X158408768Y-107486788D01*
X158510586Y-107626928D01*
X158633072Y-107749414D01*
X158773212Y-107851232D01*
X158927555Y-107929873D01*
X159092299Y-107983402D01*
X159263389Y-108010500D01*
X159263390Y-108010500D01*
X159436610Y-108010500D01*
X159436611Y-108010500D01*
X159607701Y-107983402D01*
X159772445Y-107929873D01*
X159926788Y-107851232D01*
X160066928Y-107749414D01*
X160189414Y-107626928D01*
X160291232Y-107486788D01*
X160369873Y-107332445D01*
X160423402Y-107167701D01*
X160450500Y-106996611D01*
X160450500Y-106823389D01*
X160423402Y-106652299D01*
X160369873Y-106487555D01*
X160291232Y-106333212D01*
X160189414Y-106193072D01*
X160066928Y-106070586D01*
X159926788Y-105968768D01*
X159772445Y-105890127D01*
X159607701Y-105836598D01*
X159607699Y-105836597D01*
X159607698Y-105836597D01*
X159476271Y-105815781D01*
X159436611Y-105809500D01*
X159263389Y-105809500D01*
X159223728Y-105815781D01*
X159092302Y-105836597D01*
X158927552Y-105890128D01*
X158773211Y-105968768D01*
X158693256Y-106026859D01*
X158633072Y-106070586D01*
X158633070Y-106070588D01*
X158633069Y-106070588D01*
X158510588Y-106193069D01*
X158510588Y-106193070D01*
X158510586Y-106193072D01*
X158466859Y-106253256D01*
X158408768Y-106333211D01*
X158330128Y-106487552D01*
X158276597Y-106652302D01*
X158265964Y-106719438D01*
X158249500Y-106823389D01*
X147625500Y-106823389D01*
X147625500Y-105106594D01*
X147645185Y-105039555D01*
X147661819Y-105018913D01*
X148397343Y-104283389D01*
X158249500Y-104283389D01*
X158249500Y-104456611D01*
X158276598Y-104627701D01*
X158330127Y-104792445D01*
X158408768Y-104946788D01*
X158510586Y-105086928D01*
X158633072Y-105209414D01*
X158773212Y-105311232D01*
X158927555Y-105389873D01*
X159092299Y-105443402D01*
X159263389Y-105470500D01*
X159263390Y-105470500D01*
X159436610Y-105470500D01*
X159436611Y-105470500D01*
X159607701Y-105443402D01*
X159772445Y-105389873D01*
X159926788Y-105311232D01*
X160066928Y-105209414D01*
X160189414Y-105086928D01*
X160291232Y-104946788D01*
X160369873Y-104792445D01*
X160423402Y-104627701D01*
X160450500Y-104456611D01*
X160450500Y-104283389D01*
X160423402Y-104112299D01*
X160369873Y-103947555D01*
X160291232Y-103793212D01*
X160189414Y-103653072D01*
X160066928Y-103530586D01*
X159926788Y-103428768D01*
X159772445Y-103350127D01*
X159607701Y-103296598D01*
X159607699Y-103296597D01*
X159607698Y-103296597D01*
X159474500Y-103275501D01*
X159436611Y-103269500D01*
X159263389Y-103269500D01*
X159225500Y-103275501D01*
X159092302Y-103296597D01*
X158927552Y-103350128D01*
X158773211Y-103428768D01*
X158693256Y-103486859D01*
X158633072Y-103530586D01*
X158633070Y-103530588D01*
X158633069Y-103530588D01*
X158510588Y-103653069D01*
X158510588Y-103653070D01*
X158510586Y-103653072D01*
X158466859Y-103713256D01*
X158408768Y-103793211D01*
X158330128Y-103947552D01*
X158276597Y-104112302D01*
X158264259Y-104190202D01*
X158249500Y-104283389D01*
X148397343Y-104283389D01*
X148489896Y-104190836D01*
X149117708Y-103563024D01*
X149805470Y-102875262D01*
X149851614Y-102795338D01*
X149868262Y-102733207D01*
X149873389Y-102714071D01*
X156099499Y-102714071D01*
X156124497Y-102839738D01*
X156124499Y-102839744D01*
X156173533Y-102958124D01*
X156173538Y-102958133D01*
X156244723Y-103064668D01*
X156244726Y-103064672D01*
X156335327Y-103155273D01*
X156335331Y-103155276D01*
X156441866Y-103226461D01*
X156441872Y-103226464D01*
X156441873Y-103226465D01*
X156560256Y-103275501D01*
X156560260Y-103275501D01*
X156560261Y-103275502D01*
X156685928Y-103300500D01*
X156685931Y-103300500D01*
X156814071Y-103300500D01*
X156898615Y-103283682D01*
X156939744Y-103275501D01*
X157058127Y-103226465D01*
X157164669Y-103155276D01*
X157255276Y-103064669D01*
X157326465Y-102958127D01*
X157375501Y-102839744D01*
X157389129Y-102771232D01*
X157400500Y-102714071D01*
X157400500Y-97130807D01*
X157420185Y-97063768D01*
X157436814Y-97043131D01*
X157788321Y-96691624D01*
X157849642Y-96658141D01*
X157919334Y-96663125D01*
X157975267Y-96704997D01*
X157999684Y-96770461D01*
X158000000Y-96779307D01*
X158000000Y-96856246D01*
X158033242Y-97066127D01*
X158033242Y-97066130D01*
X158098904Y-97268217D01*
X158195375Y-97457550D01*
X158234728Y-97511716D01*
X158867037Y-96879408D01*
X158884075Y-96942993D01*
X158949901Y-97057007D01*
X159042993Y-97150099D01*
X159157007Y-97215925D01*
X159220591Y-97232962D01*
X158619971Y-97833581D01*
X158698711Y-97950895D01*
X158699920Y-97954729D01*
X158702844Y-97957491D01*
X158710343Y-97987778D01*
X158719727Y-98017529D01*
X158718671Y-98021408D01*
X158719638Y-98025312D01*
X158709573Y-98054844D01*
X158701383Y-98084947D01*
X158698397Y-98087640D01*
X158697100Y-98091447D01*
X158652051Y-98130483D01*
X158642440Y-98135380D01*
X158588282Y-98174727D01*
X158588282Y-98174728D01*
X159220591Y-98807037D01*
X159157007Y-98824075D01*
X159042993Y-98889901D01*
X158949901Y-98982993D01*
X158884075Y-99097007D01*
X158867037Y-99160591D01*
X158234728Y-98528282D01*
X158234727Y-98528282D01*
X158195380Y-98582439D01*
X158098904Y-98771782D01*
X158033242Y-98973869D01*
X158033242Y-98973872D01*
X158000000Y-99183753D01*
X158000000Y-99396246D01*
X158033242Y-99606127D01*
X158033242Y-99606130D01*
X158098904Y-99808217D01*
X158195375Y-99997550D01*
X158234728Y-100051716D01*
X158867037Y-99419408D01*
X158884075Y-99482993D01*
X158949901Y-99597007D01*
X159042993Y-99690099D01*
X159157007Y-99755925D01*
X159220590Y-99772962D01*
X158588282Y-100405269D01*
X158588282Y-100405270D01*
X158642449Y-100444624D01*
X158831784Y-100541096D01*
X158930711Y-100573239D01*
X158988387Y-100612676D01*
X159015586Y-100677034D01*
X159003672Y-100745881D01*
X158956428Y-100797357D01*
X158930722Y-100809097D01*
X158929522Y-100809487D01*
X158927550Y-100810128D01*
X158773211Y-100888768D01*
X158693256Y-100946859D01*
X158633072Y-100990586D01*
X158633070Y-100990588D01*
X158633069Y-100990588D01*
X158510588Y-101113069D01*
X158510588Y-101113070D01*
X158510586Y-101113072D01*
X158485432Y-101147694D01*
X158408768Y-101253211D01*
X158330128Y-101407552D01*
X158276597Y-101572302D01*
X158259569Y-101679815D01*
X158249500Y-101743389D01*
X158249500Y-101916611D01*
X158257677Y-101968239D01*
X158266189Y-102021985D01*
X158276598Y-102087701D01*
X158330127Y-102252445D01*
X158408768Y-102406788D01*
X158510586Y-102546928D01*
X158633072Y-102669414D01*
X158773212Y-102771232D01*
X158927555Y-102849873D01*
X159092299Y-102903402D01*
X159263389Y-102930500D01*
X159263390Y-102930500D01*
X159436610Y-102930500D01*
X159436611Y-102930500D01*
X159607701Y-102903402D01*
X159772445Y-102849873D01*
X159926788Y-102771232D01*
X160066928Y-102669414D01*
X160189414Y-102546928D01*
X160291232Y-102406788D01*
X160369873Y-102252445D01*
X160423402Y-102087701D01*
X160450500Y-101916611D01*
X160450500Y-101743389D01*
X160423402Y-101572299D01*
X160369873Y-101407555D01*
X160291232Y-101253212D01*
X160189414Y-101113072D01*
X160066928Y-100990586D01*
X159926788Y-100888768D01*
X159885096Y-100867525D01*
X159772446Y-100810127D01*
X159769284Y-100809100D01*
X159768236Y-100808383D01*
X159767952Y-100808266D01*
X159767976Y-100808206D01*
X159711609Y-100769661D01*
X159684413Y-100705302D01*
X159696329Y-100636456D01*
X159743574Y-100584981D01*
X159769288Y-100573239D01*
X159868215Y-100541096D01*
X160057554Y-100444622D01*
X160111716Y-100405270D01*
X160111717Y-100405270D01*
X159479408Y-99772962D01*
X159542993Y-99755925D01*
X159657007Y-99690099D01*
X159750099Y-99597007D01*
X159815925Y-99482993D01*
X159832962Y-99419409D01*
X160465270Y-100051717D01*
X160465270Y-100051716D01*
X160504622Y-99997554D01*
X160601095Y-99808217D01*
X160666757Y-99606130D01*
X160666757Y-99606127D01*
X160700000Y-99396246D01*
X160700000Y-99183753D01*
X160666757Y-98973872D01*
X160666757Y-98973869D01*
X160601095Y-98771782D01*
X160504624Y-98582449D01*
X160465270Y-98528282D01*
X160465269Y-98528282D01*
X159832962Y-99160590D01*
X159815925Y-99097007D01*
X159750099Y-98982993D01*
X159657007Y-98889901D01*
X159542993Y-98824075D01*
X159479409Y-98807037D01*
X160111716Y-98174728D01*
X160057550Y-98135375D01*
X160047954Y-98130486D01*
X159997157Y-98082512D01*
X159980361Y-98014692D01*
X160002897Y-97948556D01*
X160047954Y-97909514D01*
X160057554Y-97904622D01*
X160111716Y-97865270D01*
X160111717Y-97865270D01*
X159479408Y-97232962D01*
X159542993Y-97215925D01*
X159657007Y-97150099D01*
X159750099Y-97057007D01*
X159815925Y-96942993D01*
X159832962Y-96879409D01*
X160465270Y-97511717D01*
X160465270Y-97511716D01*
X160504622Y-97457554D01*
X160601095Y-97268217D01*
X160666757Y-97066130D01*
X160666757Y-97066127D01*
X160700000Y-96856246D01*
X160700000Y-96643753D01*
X160666757Y-96433872D01*
X160666757Y-96433869D01*
X160601095Y-96231782D01*
X160504624Y-96042449D01*
X160465270Y-95988282D01*
X160465269Y-95988282D01*
X159832962Y-96620590D01*
X159815925Y-96557007D01*
X159750099Y-96442993D01*
X159657007Y-96349901D01*
X159542993Y-96284075D01*
X159479408Y-96267037D01*
X160111716Y-95634728D01*
X160057550Y-95595375D01*
X159958655Y-95544985D01*
X159907859Y-95497010D01*
X159891064Y-95429189D01*
X159913602Y-95363054D01*
X159968317Y-95319603D01*
X160014950Y-95310500D01*
X160224676Y-95310500D01*
X160224677Y-95310499D01*
X160297740Y-95295966D01*
X160380601Y-95240601D01*
X160435966Y-95157740D01*
X160450500Y-95084674D01*
X160450500Y-93335326D01*
X160450500Y-93335325D01*
X160450500Y-93335323D01*
X160450499Y-93335321D01*
X160435967Y-93262264D01*
X160435966Y-93262260D01*
X160380601Y-93179399D01*
X160297740Y-93124034D01*
X160297739Y-93124033D01*
X160297735Y-93124032D01*
X160224677Y-93109500D01*
X160224674Y-93109500D01*
X158475326Y-93109500D01*
X158475323Y-93109500D01*
X158402264Y-93124032D01*
X158402260Y-93124033D01*
X158319399Y-93179399D01*
X158264033Y-93262260D01*
X158264032Y-93262264D01*
X158249500Y-93335321D01*
X158249500Y-94339191D01*
X158229815Y-94406230D01*
X158213181Y-94426872D01*
X156244727Y-96395325D01*
X156244724Y-96395328D01*
X156194534Y-96470443D01*
X156194535Y-96470444D01*
X156173534Y-96501874D01*
X156124499Y-96620255D01*
X156124497Y-96620261D01*
X156099500Y-96745928D01*
X156099500Y-96745931D01*
X156099500Y-97585931D01*
X156099500Y-102714069D01*
X156099500Y-102714071D01*
X156099499Y-102714071D01*
X149873389Y-102714071D01*
X149875500Y-102706194D01*
X149875500Y-95971544D01*
X149895185Y-95904505D01*
X149911819Y-95883863D01*
X151258863Y-94536819D01*
X151320186Y-94503334D01*
X151346544Y-94500500D01*
X151422472Y-94500500D01*
X151422475Y-94500500D01*
X151562485Y-94462984D01*
X151688015Y-94390509D01*
X151790509Y-94288015D01*
X151862984Y-94162485D01*
X151900500Y-94022475D01*
X151900500Y-93877525D01*
X151862984Y-93737515D01*
X151847816Y-93711244D01*
X151790511Y-93611988D01*
X151790506Y-93611982D01*
X151688017Y-93509493D01*
X151688011Y-93509488D01*
X151562488Y-93437017D01*
X151562489Y-93437017D01*
X151551006Y-93433940D01*
X151422475Y-93399500D01*
X151277525Y-93399500D01*
X151148993Y-93433940D01*
X151137511Y-93437017D01*
X151011988Y-93509488D01*
X151011982Y-93509493D01*
X150909493Y-93611982D01*
X150909488Y-93611988D01*
X150837017Y-93737511D01*
X150837016Y-93737515D01*
X150799500Y-93877525D01*
X150799500Y-93877527D01*
X150799500Y-93953456D01*
X150779815Y-94020495D01*
X150763181Y-94041137D01*
X149687181Y-95117137D01*
X149625858Y-95150622D01*
X149556166Y-95145638D01*
X149500233Y-95103766D01*
X149475816Y-95038302D01*
X149475500Y-95029456D01*
X149475500Y-93771543D01*
X149495185Y-93704504D01*
X149511819Y-93683862D01*
X151458665Y-91737016D01*
X153480469Y-89715212D01*
X153526614Y-89635288D01*
X153530861Y-89619437D01*
X153550500Y-89546144D01*
X153550500Y-85689386D01*
X153570185Y-85622347D01*
X153586819Y-85601705D01*
X153630500Y-85558024D01*
X153680509Y-85508015D01*
X153752984Y-85382485D01*
X153790500Y-85242475D01*
X153790500Y-85097525D01*
X153752984Y-84957515D01*
X153698118Y-84862485D01*
X153680511Y-84831988D01*
X153680506Y-84831982D01*
X153578017Y-84729493D01*
X153578011Y-84729488D01*
X153452488Y-84657017D01*
X153452489Y-84657017D01*
X153432664Y-84651705D01*
X153312475Y-84619500D01*
X153167525Y-84619500D01*
X153047336Y-84651705D01*
X153027511Y-84657017D01*
X152901988Y-84729488D01*
X152901982Y-84729493D01*
X152799493Y-84831982D01*
X152799488Y-84831988D01*
X152727017Y-84957511D01*
X152726056Y-84961097D01*
X152689500Y-85097525D01*
X152689500Y-85242475D01*
X152720236Y-85357182D01*
X152727017Y-85382488D01*
X152799488Y-85508011D01*
X152799493Y-85508017D01*
X152813181Y-85521705D01*
X152846666Y-85583028D01*
X152849500Y-85609386D01*
X152849500Y-88671614D01*
X152829815Y-88738653D01*
X152777011Y-88784408D01*
X152707853Y-88794352D01*
X152644297Y-88765327D01*
X152637819Y-88759295D01*
X152588017Y-88709493D01*
X152588011Y-88709488D01*
X152462488Y-88637017D01*
X152462489Y-88637017D01*
X152451006Y-88633940D01*
X152322475Y-88599500D01*
X152177525Y-88599500D01*
X152048993Y-88633940D01*
X152037511Y-88637017D01*
X151911988Y-88709488D01*
X151911982Y-88709493D01*
X151809493Y-88811982D01*
X151809488Y-88811988D01*
X151737017Y-88937511D01*
X151737016Y-88937515D01*
X151699500Y-89077525D01*
X151699500Y-89077527D01*
X151699500Y-89118101D01*
X151679815Y-89185140D01*
X151663181Y-89205782D01*
X148399527Y-92469435D01*
X148399525Y-92469437D01*
X148399525Y-92469438D01*
X148350090Y-92555062D01*
X148350090Y-92555063D01*
X148331831Y-92623207D01*
X148327998Y-92637511D01*
X148324500Y-92650565D01*
X148324500Y-102111424D01*
X148304815Y-102178463D01*
X148288181Y-102199105D01*
X148186590Y-102300696D01*
X148125267Y-102334181D01*
X148055575Y-102329197D01*
X147999642Y-102287325D01*
X147979135Y-102245111D01*
X147952984Y-102147515D01*
X147918450Y-102087701D01*
X147880511Y-102021988D01*
X147880506Y-102021982D01*
X147778017Y-101919493D01*
X147778011Y-101919488D01*
X147652488Y-101847017D01*
X147652489Y-101847017D01*
X147635777Y-101842539D01*
X147512475Y-101809500D01*
X147367525Y-101809500D01*
X147244223Y-101842539D01*
X147227511Y-101847017D01*
X147101988Y-101919488D01*
X147101982Y-101919493D01*
X146999493Y-102021982D01*
X146999488Y-102021988D01*
X146927017Y-102147511D01*
X146927016Y-102147515D01*
X146889500Y-102287525D01*
X146889500Y-102287527D01*
X146889500Y-102328101D01*
X146869815Y-102395140D01*
X146853181Y-102415782D01*
X146002181Y-103266782D01*
X145940858Y-103300267D01*
X145871166Y-103295283D01*
X145815233Y-103253411D01*
X145790816Y-103187947D01*
X145790500Y-103179101D01*
X145790500Y-103087527D01*
X145790500Y-103087525D01*
X145752984Y-102947515D01*
X145743160Y-102930500D01*
X145680511Y-102821988D01*
X145680506Y-102821982D01*
X145590494Y-102731970D01*
X145557009Y-102670647D01*
X145561993Y-102600955D01*
X145590492Y-102556610D01*
X146670489Y-101476614D01*
X146729799Y-101373887D01*
X146742466Y-101326613D01*
X146760500Y-101259309D01*
X146760500Y-98333132D01*
X146780185Y-98266093D01*
X146826953Y-98225567D01*
X146826177Y-98224223D01*
X146949565Y-98152984D01*
X146958745Y-98147684D01*
X147061239Y-98045190D01*
X147133714Y-97919660D01*
X147171230Y-97779650D01*
X147171230Y-97634700D01*
X147133714Y-97494690D01*
X147123457Y-97476925D01*
X147061241Y-97369163D01*
X147061236Y-97369157D01*
X146958741Y-97266662D01*
X146955470Y-97264152D01*
X146953411Y-97261332D01*
X146952998Y-97260919D01*
X146953062Y-97260854D01*
X146914270Y-97207722D01*
X146910120Y-97137976D01*
X146923575Y-97103780D01*
X146932984Y-97087485D01*
X146970500Y-96947475D01*
X146970500Y-96802525D01*
X146932984Y-96662515D01*
X146912782Y-96627525D01*
X146860511Y-96536988D01*
X146860506Y-96536982D01*
X146758017Y-96434493D01*
X146758011Y-96434488D01*
X146632488Y-96362017D01*
X146632489Y-96362017D01*
X146589548Y-96350511D01*
X146492475Y-96324500D01*
X146492472Y-96324500D01*
X146394726Y-96324500D01*
X146332726Y-96307887D01*
X146290291Y-96283387D01*
X146290288Y-96283386D01*
X146289616Y-96283206D01*
X146289616Y-96283205D01*
X146220961Y-96264810D01*
X146201144Y-96259500D01*
X146201143Y-96259500D01*
X145271268Y-96259500D01*
X145204229Y-96239815D01*
X145158474Y-96187011D01*
X145148530Y-96117853D01*
X145151490Y-96103419D01*
X145170500Y-96032475D01*
X145170500Y-95887525D01*
X145139987Y-95773650D01*
X145141650Y-95703807D01*
X145180812Y-95645944D01*
X145227668Y-95621787D01*
X145232471Y-95620500D01*
X145232475Y-95620500D01*
X145372485Y-95582984D01*
X145498015Y-95510509D01*
X145600509Y-95408015D01*
X145672984Y-95282485D01*
X145710500Y-95142475D01*
X145710500Y-94997525D01*
X145672984Y-94857515D01*
X145671945Y-94855716D01*
X145600511Y-94731988D01*
X145600506Y-94731982D01*
X145498017Y-94629493D01*
X145498011Y-94629488D01*
X145372488Y-94557017D01*
X145372489Y-94557017D01*
X145348167Y-94550500D01*
X145232475Y-94519500D01*
X145087525Y-94519500D01*
X144971833Y-94550500D01*
X144947511Y-94557017D01*
X144821988Y-94629488D01*
X144821982Y-94629493D01*
X144719493Y-94731982D01*
X144719489Y-94731988D01*
X144675892Y-94807500D01*
X144625325Y-94855716D01*
X144568505Y-94869500D01*
X141779386Y-94869500D01*
X141712347Y-94849815D01*
X141691705Y-94833181D01*
X141638017Y-94779493D01*
X141638011Y-94779488D01*
X141512488Y-94707017D01*
X141512489Y-94707017D01*
X141498598Y-94703295D01*
X141372475Y-94669500D01*
X141227525Y-94669500D01*
X141101402Y-94703295D01*
X141087511Y-94707017D01*
X140961988Y-94779488D01*
X140961982Y-94779493D01*
X140859493Y-94881982D01*
X140859488Y-94881988D01*
X140787017Y-95007511D01*
X140787016Y-95007515D01*
X140749500Y-95147525D01*
X140749500Y-95292475D01*
X140780460Y-95408017D01*
X140787017Y-95432488D01*
X140859488Y-95558011D01*
X140859490Y-95558013D01*
X140859491Y-95558015D01*
X140961985Y-95660509D01*
X140961986Y-95660510D01*
X140961988Y-95660511D01*
X141087511Y-95732982D01*
X141087512Y-95732982D01*
X141087515Y-95732984D01*
X141227525Y-95770500D01*
X141227528Y-95770500D01*
X141372472Y-95770500D01*
X141372475Y-95770500D01*
X141512485Y-95732984D01*
X141638015Y-95660509D01*
X141691705Y-95606819D01*
X141753028Y-95573334D01*
X141779386Y-95570500D01*
X142439450Y-95570500D01*
X142506489Y-95590185D01*
X142552244Y-95642989D01*
X142562188Y-95712147D01*
X142559227Y-95726581D01*
X142529500Y-95837525D01*
X142529500Y-95982475D01*
X142565810Y-96117984D01*
X142567017Y-96122488D01*
X142639488Y-96248011D01*
X142639490Y-96248013D01*
X142639491Y-96248015D01*
X142741985Y-96350509D01*
X142741986Y-96350510D01*
X142741988Y-96350511D01*
X142867511Y-96422982D01*
X142867515Y-96422984D01*
X142883901Y-96427375D01*
X142943561Y-96463740D01*
X142974089Y-96526587D01*
X142965794Y-96595963D01*
X142939487Y-96634830D01*
X142331137Y-97243181D01*
X142269814Y-97276666D01*
X142243456Y-97279500D01*
X141752305Y-97279500D01*
X141685266Y-97259815D01*
X141664624Y-97243181D01*
X141650974Y-97229531D01*
X141650969Y-97229527D01*
X141571052Y-97183387D01*
X141571053Y-97183387D01*
X141570894Y-97183344D01*
X141569004Y-97182838D01*
X141481905Y-97159500D01*
X141481903Y-97159500D01*
X137456544Y-97159500D01*
X137389505Y-97139815D01*
X137368863Y-97123181D01*
X135515213Y-95269531D01*
X135515208Y-95269527D01*
X135435290Y-95223387D01*
X135435289Y-95223386D01*
X135435288Y-95223386D01*
X135346144Y-95199500D01*
X135346143Y-95199500D01*
X135074666Y-95199500D01*
X135007627Y-95179815D01*
X134961872Y-95127011D01*
X134951928Y-95057853D01*
X134954891Y-95043407D01*
X134956259Y-95038302D01*
X134960500Y-95022475D01*
X134960500Y-94877525D01*
X134922984Y-94737515D01*
X134920259Y-94732796D01*
X134850511Y-94611988D01*
X134850506Y-94611982D01*
X134748017Y-94509493D01*
X134748011Y-94509488D01*
X134622488Y-94437017D01*
X134622489Y-94437017D01*
X134611006Y-94433940D01*
X134482475Y-94399500D01*
X134337525Y-94399500D01*
X134208993Y-94433940D01*
X134197511Y-94437017D01*
X134071988Y-94509488D01*
X134071982Y-94509493D01*
X134063295Y-94518181D01*
X134001972Y-94551666D01*
X133975614Y-94554500D01*
X129273386Y-94554500D01*
X129206347Y-94534815D01*
X129160592Y-94482011D01*
X129150648Y-94412853D01*
X129179673Y-94349297D01*
X129185705Y-94342819D01*
X129186920Y-94341604D01*
X129190509Y-94338015D01*
X129262984Y-94212485D01*
X129300500Y-94072475D01*
X129300500Y-94031899D01*
X129320185Y-93964860D01*
X129336819Y-93944218D01*
X130619219Y-92661819D01*
X130680542Y-92628334D01*
X130706900Y-92625500D01*
X131045614Y-92625500D01*
X131112653Y-92645185D01*
X131133295Y-92661819D01*
X131161985Y-92690509D01*
X131161986Y-92690510D01*
X131161988Y-92690511D01*
X131287511Y-92762982D01*
X131287512Y-92762982D01*
X131287515Y-92762984D01*
X131427525Y-92800500D01*
X131427528Y-92800500D01*
X131572472Y-92800500D01*
X131572475Y-92800500D01*
X131712485Y-92762984D01*
X131838015Y-92690509D01*
X131940509Y-92588015D01*
X132012984Y-92462485D01*
X132050500Y-92322475D01*
X132050500Y-92177525D01*
X132012984Y-92037515D01*
X132012696Y-92037017D01*
X131940511Y-91911988D01*
X131940506Y-91911982D01*
X131838017Y-91809493D01*
X131838011Y-91809488D01*
X131712488Y-91737017D01*
X131712489Y-91737017D01*
X131701006Y-91733940D01*
X131572475Y-91699500D01*
X131427525Y-91699500D01*
X131298993Y-91733940D01*
X131287511Y-91737017D01*
X131161988Y-91809488D01*
X131161982Y-91809493D01*
X131133295Y-91838181D01*
X131071972Y-91871666D01*
X131045614Y-91874500D01*
X130450564Y-91874500D01*
X130355063Y-91900089D01*
X130355060Y-91900090D01*
X130269440Y-91949522D01*
X130269435Y-91949526D01*
X128805782Y-93413181D01*
X128744459Y-93446666D01*
X128718101Y-93449500D01*
X128677525Y-93449500D01*
X128548993Y-93483940D01*
X128537511Y-93487017D01*
X128411988Y-93559488D01*
X128411982Y-93559493D01*
X128309493Y-93661982D01*
X128309488Y-93661988D01*
X128237017Y-93787511D01*
X128237016Y-93787515D01*
X128199500Y-93927525D01*
X128199500Y-93927527D01*
X128199500Y-94072473D01*
X128200561Y-94080531D01*
X128197920Y-94080878D01*
X128196567Y-94137598D01*
X128157401Y-94195459D01*
X128093171Y-94222959D01*
X128046364Y-94219610D01*
X128005979Y-94208789D01*
X127976283Y-94200832D01*
X127831333Y-94200832D01*
X127702801Y-94235272D01*
X127691319Y-94238349D01*
X127565796Y-94310820D01*
X127565790Y-94310825D01*
X127463301Y-94413314D01*
X127463296Y-94413320D01*
X127390825Y-94538843D01*
X127390824Y-94538847D01*
X127353308Y-94678857D01*
X127353308Y-94823807D01*
X127368897Y-94881985D01*
X127390825Y-94963820D01*
X127463296Y-95089343D01*
X127463301Y-95089349D01*
X127470191Y-95096239D01*
X127503676Y-95157562D01*
X127498692Y-95227254D01*
X127489898Y-95245919D01*
X127437017Y-95337512D01*
X127437016Y-95337514D01*
X127437016Y-95337515D01*
X127399500Y-95477525D01*
X127399500Y-95622475D01*
X127427399Y-95726594D01*
X127437017Y-95762488D01*
X127509488Y-95888011D01*
X127509490Y-95888013D01*
X127509491Y-95888015D01*
X127611985Y-95990509D01*
X127611986Y-95990510D01*
X127611988Y-95990511D01*
X127737511Y-96062982D01*
X127737512Y-96062982D01*
X127737515Y-96062984D01*
X127877525Y-96100500D01*
X127877528Y-96100500D01*
X128022472Y-96100500D01*
X128022475Y-96100500D01*
X128162485Y-96062984D01*
X128288015Y-95990509D01*
X128341705Y-95936819D01*
X128403028Y-95903334D01*
X128429386Y-95900500D01*
X131817535Y-95900500D01*
X131884574Y-95920185D01*
X131930329Y-95972989D01*
X131940273Y-96042147D01*
X131924922Y-96086500D01*
X131907017Y-96117511D01*
X131907016Y-96117515D01*
X131869500Y-96257525D01*
X131869500Y-96402475D01*
X131905542Y-96536985D01*
X131907017Y-96542488D01*
X131979488Y-96668011D01*
X131979493Y-96668017D01*
X132008181Y-96696705D01*
X132041666Y-96758028D01*
X132044500Y-96784386D01*
X132044500Y-97935613D01*
X132024815Y-98002652D01*
X132008182Y-98023294D01*
X131929488Y-98101988D01*
X131857017Y-98227511D01*
X131857016Y-98227515D01*
X131819500Y-98367525D01*
X131819500Y-98512475D01*
X131854600Y-98643468D01*
X131857017Y-98652488D01*
X131929488Y-98778011D01*
X131929490Y-98778013D01*
X131929491Y-98778015D01*
X132031985Y-98880509D01*
X132031986Y-98880510D01*
X132031988Y-98880511D01*
X132157511Y-98952982D01*
X132157512Y-98952982D01*
X132157515Y-98952984D01*
X132297525Y-98990500D01*
X132297528Y-98990500D01*
X132442472Y-98990500D01*
X132442475Y-98990500D01*
X132582485Y-98952984D01*
X132708015Y-98880509D01*
X132810509Y-98778015D01*
X132882984Y-98652485D01*
X132920500Y-98512475D01*
X132920500Y-98367525D01*
X132882984Y-98227515D01*
X132881859Y-98225567D01*
X132812113Y-98104763D01*
X132795500Y-98042763D01*
X132795500Y-96784386D01*
X132815185Y-96717347D01*
X132831819Y-96696705D01*
X132844350Y-96684174D01*
X132860509Y-96668015D01*
X132932984Y-96542485D01*
X132970500Y-96402475D01*
X132970500Y-96257525D01*
X132950792Y-96183974D01*
X132952454Y-96114127D01*
X132991615Y-96056264D01*
X133055844Y-96028759D01*
X133124746Y-96040345D01*
X133132566Y-96044495D01*
X133259849Y-96117982D01*
X133259850Y-96117982D01*
X133259853Y-96117984D01*
X133399863Y-96155500D01*
X133399866Y-96155500D01*
X133544810Y-96155500D01*
X133544813Y-96155500D01*
X133684823Y-96117984D01*
X133810353Y-96045509D01*
X133912847Y-95943015D01*
X133912847Y-95943014D01*
X133918594Y-95937268D01*
X133921005Y-95939679D01*
X133964749Y-95907783D01*
X134006620Y-95900500D01*
X135103456Y-95900500D01*
X135170495Y-95920185D01*
X135191137Y-95936819D01*
X137044788Y-97790470D01*
X137091689Y-97817548D01*
X137091690Y-97817549D01*
X137091691Y-97817549D01*
X137124709Y-97836613D01*
X137124711Y-97836613D01*
X137124712Y-97836614D01*
X137213856Y-97860500D01*
X137213857Y-97860500D01*
X137306144Y-97860500D01*
X141239217Y-97860500D01*
X141306256Y-97880185D01*
X141326898Y-97896819D01*
X141340549Y-97910470D01*
X141392518Y-97940474D01*
X141392520Y-97940475D01*
X141420470Y-97956613D01*
X141420472Y-97956613D01*
X141420473Y-97956614D01*
X141509617Y-97980500D01*
X141509618Y-97980500D01*
X141509619Y-97980500D01*
X142486142Y-97980500D01*
X142486144Y-97980500D01*
X142575288Y-97956614D01*
X142585194Y-97950895D01*
X142603241Y-97940475D01*
X142603243Y-97940474D01*
X142655212Y-97910470D01*
X143568863Y-96996819D01*
X143630186Y-96963334D01*
X143656544Y-96960500D01*
X144448828Y-96960500D01*
X144515867Y-96980185D01*
X144561622Y-97032989D01*
X144571566Y-97102147D01*
X144568603Y-97116594D01*
X144567016Y-97122513D01*
X144567016Y-97122515D01*
X144529500Y-97262525D01*
X144529500Y-97407475D01*
X144552871Y-97494694D01*
X144567017Y-97547488D01*
X144639488Y-97673011D01*
X144639493Y-97673017D01*
X144668181Y-97701705D01*
X144701666Y-97763028D01*
X144704500Y-97789386D01*
X144704500Y-100271046D01*
X144684815Y-100338085D01*
X144632011Y-100383840D01*
X144612595Y-100390821D01*
X144477510Y-100427017D01*
X144351988Y-100499488D01*
X144351982Y-100499493D01*
X144249493Y-100601982D01*
X144249488Y-100601988D01*
X144177017Y-100727511D01*
X144177016Y-100727515D01*
X144139500Y-100867525D01*
X144139500Y-101012475D01*
X144176296Y-101149797D01*
X144177017Y-101152488D01*
X144249488Y-101278011D01*
X144249490Y-101278013D01*
X144249490Y-101278014D01*
X144249493Y-101278017D01*
X144306960Y-101335484D01*
X144336958Y-101387441D01*
X144336981Y-101387432D01*
X144337053Y-101387606D01*
X144339053Y-101391070D01*
X144340088Y-101394934D01*
X144340089Y-101394937D01*
X144347374Y-101407555D01*
X144389525Y-101480562D01*
X144459438Y-101550475D01*
X144489990Y-101568114D01*
X144538205Y-101618680D01*
X144551428Y-101687287D01*
X144525460Y-101752152D01*
X144468545Y-101792680D01*
X144427989Y-101799500D01*
X144297965Y-101799500D01*
X144230926Y-101779815D01*
X144210284Y-101763181D01*
X142357311Y-99910208D01*
X142357309Y-99910206D01*
X142295465Y-99874500D01*
X142254583Y-99850896D01*
X142242475Y-99847652D01*
X142230368Y-99844408D01*
X142230365Y-99844407D01*
X142192173Y-99834173D01*
X142140004Y-99820195D01*
X136999996Y-99820195D01*
X136909630Y-99844408D01*
X136909629Y-99844407D01*
X136885420Y-99850895D01*
X136885411Y-99850899D01*
X136782697Y-99910200D01*
X136782689Y-99910206D01*
X136489716Y-100203181D01*
X136428393Y-100236666D01*
X136402035Y-100239500D01*
X135600691Y-100239500D01*
X135486114Y-100270201D01*
X135486112Y-100270202D01*
X135478264Y-100272305D01*
X135478107Y-100271721D01*
X135439000Y-100279500D01*
X133597965Y-100279500D01*
X133530926Y-100259815D01*
X133510284Y-100243181D01*
X132646616Y-99379513D01*
X132646614Y-99379511D01*
X132583812Y-99343252D01*
X132543888Y-99320201D01*
X132531780Y-99316957D01*
X132519673Y-99313713D01*
X132519670Y-99313712D01*
X132481478Y-99303478D01*
X132429309Y-99289500D01*
X132429308Y-99289500D01*
X129877965Y-99289500D01*
X129810926Y-99269815D01*
X129790284Y-99253181D01*
X129316616Y-98779513D01*
X129316614Y-98779511D01*
X129235160Y-98732483D01*
X129213888Y-98720201D01*
X129201780Y-98716957D01*
X129189673Y-98713713D01*
X129189670Y-98713712D01*
X129151478Y-98703478D01*
X129099309Y-98689500D01*
X129099308Y-98689500D01*
X122413926Y-98689500D01*
X122351926Y-98672887D01*
X122316589Y-98652485D01*
X122290306Y-98637310D01*
X122278198Y-98634066D01*
X122266091Y-98630822D01*
X122266088Y-98630821D01*
X122227896Y-98620587D01*
X122175727Y-98606609D01*
X121435787Y-98606609D01*
X121371775Y-98623761D01*
X121321208Y-98637310D01*
X121321205Y-98637312D01*
X121310543Y-98643468D01*
X121242643Y-98659939D01*
X121176616Y-98637086D01*
X121160864Y-98623761D01*
X120436819Y-97899716D01*
X120403334Y-97838393D01*
X120400500Y-97812035D01*
X120400500Y-93685928D01*
X120375502Y-93560261D01*
X120375501Y-93560260D01*
X120375501Y-93560256D01*
X120326465Y-93441873D01*
X120323220Y-93437016D01*
X120323220Y-93437015D01*
X120255278Y-93335332D01*
X120255272Y-93335325D01*
X116836819Y-89916872D01*
X116803334Y-89855549D01*
X116800500Y-89829191D01*
X116800500Y-84682560D01*
X116774727Y-84552996D01*
X116774727Y-84504612D01*
X116780500Y-84475592D01*
X116780500Y-79090807D01*
X116800185Y-79023768D01*
X116816815Y-79003130D01*
X117019779Y-78800165D01*
X117081100Y-78766682D01*
X117150791Y-78771666D01*
X117154901Y-78773283D01*
X117160256Y-78775501D01*
X117160260Y-78775501D01*
X117160261Y-78775502D01*
X117285928Y-78800500D01*
X117285931Y-78800500D01*
X118014071Y-78800500D01*
X118145718Y-78774313D01*
X118145957Y-78775517D01*
X118209366Y-78774948D01*
X118268481Y-78812194D01*
X118298075Y-78875486D01*
X118299500Y-78894234D01*
X118299500Y-89409310D01*
X118320588Y-89488014D01*
X118330200Y-89523885D01*
X118330200Y-89523886D01*
X118343051Y-89546144D01*
X118389511Y-89626614D01*
X118389513Y-89626616D01*
X120753181Y-91990284D01*
X120786666Y-92051607D01*
X120789500Y-92077965D01*
X120789500Y-94341606D01*
X120791561Y-94349297D01*
X120805281Y-94400500D01*
X120805281Y-94400502D01*
X120820199Y-94456181D01*
X120820201Y-94456184D01*
X120879511Y-94558911D01*
X120963386Y-94642786D01*
X121066113Y-94702096D01*
X121089853Y-94708457D01*
X121180691Y-94732797D01*
X121180693Y-94732797D01*
X121299307Y-94732797D01*
X121299309Y-94732797D01*
X121362969Y-94715739D01*
X121374376Y-94712683D01*
X121406469Y-94708458D01*
X121477433Y-94708458D01*
X121477434Y-94708458D01*
X121567798Y-94684244D01*
X121592012Y-94677757D01*
X121675607Y-94629493D01*
X121676709Y-94628857D01*
X121738709Y-94612244D01*
X121897696Y-94612244D01*
X121964735Y-94631929D01*
X121985377Y-94648563D01*
X122088181Y-94751367D01*
X122121666Y-94812690D01*
X122124500Y-94839048D01*
X122124500Y-94984440D01*
X122104815Y-95051479D01*
X122088181Y-95072121D01*
X121985377Y-95174925D01*
X121924054Y-95208410D01*
X121897696Y-95211244D01*
X121703907Y-95211244D01*
X121627217Y-95231793D01*
X121627216Y-95231793D01*
X121589331Y-95241943D01*
X121486602Y-95301254D01*
X121402726Y-95385130D01*
X121397779Y-95391578D01*
X121396259Y-95390412D01*
X121353292Y-95431379D01*
X121296476Y-95445161D01*
X121180691Y-95445161D01*
X121103243Y-95465912D01*
X121103244Y-95465913D01*
X121066111Y-95475862D01*
X120963386Y-95535172D01*
X120963383Y-95535174D01*
X120879513Y-95619044D01*
X120879509Y-95619050D01*
X120820200Y-95721774D01*
X120814035Y-95744786D01*
X120814035Y-95744788D01*
X120789500Y-95836352D01*
X120789500Y-96790691D01*
X120789500Y-96909309D01*
X120820201Y-97023886D01*
X120879511Y-97126613D01*
X120963387Y-97210489D01*
X121066114Y-97269799D01*
X121180691Y-97300500D01*
X121180694Y-97300500D01*
X124687707Y-97300500D01*
X124687709Y-97300500D01*
X124781010Y-97275500D01*
X124802287Y-97269799D01*
X124849198Y-97242713D01*
X124879102Y-97230326D01*
X124943827Y-97212984D01*
X125069357Y-97140509D01*
X125171851Y-97038015D01*
X125244326Y-96912485D01*
X125281842Y-96772475D01*
X125281842Y-96627525D01*
X125244326Y-96487515D01*
X125234469Y-96470443D01*
X125171853Y-96361988D01*
X125171848Y-96361982D01*
X125069359Y-96259493D01*
X125069353Y-96259488D01*
X124943830Y-96187017D01*
X124943831Y-96187017D01*
X124932348Y-96183940D01*
X124803817Y-96149500D01*
X124658867Y-96149500D01*
X124530335Y-96183940D01*
X124518853Y-96187017D01*
X124393330Y-96259488D01*
X124393324Y-96259493D01*
X124289637Y-96363181D01*
X124228314Y-96396666D01*
X124201956Y-96399500D01*
X122342626Y-96399500D01*
X122275587Y-96379815D01*
X122229832Y-96327011D01*
X122219888Y-96257853D01*
X122248913Y-96194297D01*
X122254945Y-96187819D01*
X122270279Y-96172485D01*
X122314055Y-96128709D01*
X122340543Y-96082829D01*
X122385929Y-96037443D01*
X122412275Y-96022233D01*
X122935489Y-95499019D01*
X122994799Y-95396292D01*
X122999443Y-95378960D01*
X123005787Y-95355287D01*
X123013002Y-95328357D01*
X123025500Y-95281714D01*
X123025500Y-94541774D01*
X122998366Y-94440509D01*
X122997430Y-94437015D01*
X122994799Y-94427196D01*
X122979386Y-94400500D01*
X122935489Y-94324469D01*
X122412275Y-93801255D01*
X122309548Y-93741945D01*
X122270879Y-93731584D01*
X122270876Y-93731583D01*
X122228323Y-93720181D01*
X122194970Y-93711244D01*
X122194969Y-93711244D01*
X121814500Y-93711244D01*
X121747461Y-93691559D01*
X121701706Y-93638755D01*
X121690500Y-93587244D01*
X121690500Y-91780693D01*
X121690500Y-91780691D01*
X121659799Y-91666114D01*
X121659799Y-91666113D01*
X121659799Y-91666112D01*
X121600492Y-91563389D01*
X121600488Y-91563384D01*
X119236819Y-89199715D01*
X119203334Y-89138392D01*
X119200500Y-89112034D01*
X119200500Y-87072049D01*
X119220185Y-87005010D01*
X119272989Y-86959255D01*
X119342147Y-86949311D01*
X119386499Y-86964662D01*
X119430783Y-86990229D01*
X119487509Y-87022981D01*
X119487510Y-87022982D01*
X119487512Y-87022982D01*
X119487515Y-87022984D01*
X119627525Y-87060500D01*
X119627528Y-87060500D01*
X119772472Y-87060500D01*
X119772475Y-87060500D01*
X119912485Y-87022984D01*
X120038015Y-86950509D01*
X120140509Y-86848015D01*
X120212984Y-86722485D01*
X120250500Y-86582475D01*
X120250500Y-86561899D01*
X120270185Y-86494860D01*
X120286819Y-86474218D01*
X123893512Y-82867525D01*
X126399500Y-82867525D01*
X126399500Y-83012475D01*
X126437016Y-83152485D01*
X126437017Y-83152488D01*
X126509488Y-83278011D01*
X126509490Y-83278013D01*
X126509491Y-83278015D01*
X126611985Y-83380509D01*
X126611986Y-83380510D01*
X126611988Y-83380511D01*
X126737511Y-83452982D01*
X126737512Y-83452982D01*
X126737515Y-83452984D01*
X126877525Y-83490500D01*
X126877528Y-83490500D01*
X127022472Y-83490500D01*
X127022475Y-83490500D01*
X127162485Y-83452984D01*
X127288015Y-83380509D01*
X127390509Y-83278015D01*
X127462984Y-83152485D01*
X127500500Y-83012475D01*
X127500500Y-82971899D01*
X127520185Y-82904860D01*
X127536819Y-82884218D01*
X130259218Y-80161819D01*
X130320541Y-80128334D01*
X130346899Y-80125500D01*
X132141690Y-80125500D01*
X132203689Y-80142112D01*
X132257160Y-80172984D01*
X132397170Y-80210500D01*
X132397173Y-80210500D01*
X132542117Y-80210500D01*
X132542120Y-80210500D01*
X132682130Y-80172984D01*
X132807660Y-80100509D01*
X132910154Y-79998015D01*
X132982629Y-79872485D01*
X133020145Y-79732475D01*
X133020145Y-79587525D01*
X132982629Y-79447515D01*
X132947860Y-79387294D01*
X132910156Y-79321988D01*
X132910151Y-79321982D01*
X132807662Y-79219493D01*
X132807656Y-79219488D01*
X132682133Y-79147017D01*
X132682134Y-79147017D01*
X132670651Y-79143940D01*
X132542120Y-79109500D01*
X132397170Y-79109500D01*
X132268638Y-79143940D01*
X132257156Y-79147017D01*
X132131633Y-79219488D01*
X132131627Y-79219493D01*
X132029138Y-79321982D01*
X132026065Y-79325988D01*
X131969637Y-79367190D01*
X131927690Y-79374500D01*
X130090564Y-79374500D01*
X130042812Y-79387295D01*
X130042811Y-79387294D01*
X129995063Y-79400089D01*
X129995062Y-79400089D01*
X129927530Y-79439079D01*
X129912920Y-79447515D01*
X129909435Y-79449527D01*
X127005782Y-82353181D01*
X126944459Y-82386666D01*
X126918101Y-82389500D01*
X126877525Y-82389500D01*
X126748993Y-82423940D01*
X126737511Y-82427017D01*
X126611988Y-82499488D01*
X126611982Y-82499493D01*
X126509493Y-82601982D01*
X126509488Y-82601988D01*
X126437017Y-82727511D01*
X126437016Y-82727515D01*
X126399500Y-82867525D01*
X123893512Y-82867525D01*
X130409218Y-76351819D01*
X130470541Y-76318334D01*
X130496899Y-76315500D01*
X136934531Y-76315500D01*
X137001570Y-76335185D01*
X137047325Y-76387989D01*
X137057269Y-76457147D01*
X137028244Y-76520703D01*
X137022212Y-76527181D01*
X129949531Y-83599861D01*
X129949530Y-83599863D01*
X129916234Y-83657535D01*
X129909141Y-83669820D01*
X129909139Y-83669822D01*
X129903386Y-83679784D01*
X129903386Y-83679785D01*
X129879500Y-83768931D01*
X129879500Y-85840614D01*
X129859815Y-85907653D01*
X129843181Y-85928295D01*
X129789493Y-85981982D01*
X129789488Y-85981988D01*
X129717017Y-86107511D01*
X129717016Y-86107515D01*
X129679500Y-86247525D01*
X129679500Y-86392475D01*
X129708143Y-86499370D01*
X129717017Y-86532488D01*
X129789488Y-86658011D01*
X129789490Y-86658013D01*
X129789491Y-86658015D01*
X129891985Y-86760509D01*
X129891986Y-86760510D01*
X129891988Y-86760511D01*
X130017511Y-86832982D01*
X130017512Y-86832982D01*
X130017515Y-86832984D01*
X130157525Y-86870500D01*
X130157528Y-86870500D01*
X130302472Y-86870500D01*
X130302475Y-86870500D01*
X130442485Y-86832984D01*
X130568015Y-86760509D01*
X130597319Y-86731205D01*
X130658642Y-86697720D01*
X130728334Y-86702704D01*
X130772681Y-86731205D01*
X130821985Y-86780509D01*
X130821986Y-86780510D01*
X130821988Y-86780511D01*
X130947511Y-86852982D01*
X130947512Y-86852982D01*
X130947515Y-86852984D01*
X131087525Y-86890500D01*
X131087528Y-86890500D01*
X131232472Y-86890500D01*
X131232475Y-86890500D01*
X131372485Y-86852984D01*
X131498015Y-86780509D01*
X131600509Y-86678015D01*
X131672984Y-86552485D01*
X131710500Y-86412475D01*
X131710500Y-86267525D01*
X131672984Y-86127515D01*
X131642664Y-86075000D01*
X131600511Y-86001988D01*
X131600506Y-86001982D01*
X131546819Y-85948295D01*
X131513334Y-85886972D01*
X131510500Y-85860614D01*
X131510500Y-83647305D01*
X131530185Y-83580266D01*
X131546819Y-83559624D01*
X134019624Y-81086819D01*
X134080947Y-81053334D01*
X134107305Y-81050500D01*
X134141066Y-81050500D01*
X134141068Y-81050500D01*
X134230212Y-81026614D01*
X134250219Y-81015063D01*
X134250220Y-81015063D01*
X134310129Y-80980474D01*
X134310128Y-80980474D01*
X134310136Y-80980470D01*
X134990469Y-80300138D01*
X135036614Y-80220213D01*
X135060500Y-80131069D01*
X135060500Y-80097304D01*
X135080185Y-80030265D01*
X135096819Y-80009623D01*
X135658931Y-79447511D01*
X136247838Y-78858603D01*
X136309159Y-78825120D01*
X136378851Y-78830104D01*
X136434784Y-78871976D01*
X136442901Y-78884281D01*
X136459491Y-78913015D01*
X136459492Y-78913016D01*
X136462887Y-78918896D01*
X136479500Y-78980897D01*
X136479500Y-79830212D01*
X136459815Y-79897251D01*
X136407011Y-79943006D01*
X136337853Y-79952950D01*
X136300099Y-79939883D01*
X136299999Y-79940126D01*
X136295928Y-79938440D01*
X136293504Y-79937601D01*
X136292492Y-79937016D01*
X136292489Y-79937015D01*
X136281006Y-79933938D01*
X136152475Y-79899498D01*
X136007525Y-79899498D01*
X135878993Y-79933938D01*
X135867511Y-79937015D01*
X135741988Y-80009486D01*
X135741982Y-80009491D01*
X135639493Y-80111980D01*
X135639488Y-80111986D01*
X135567017Y-80237509D01*
X135567016Y-80237513D01*
X135529500Y-80377523D01*
X135529500Y-80377525D01*
X135529500Y-80453454D01*
X135509815Y-80520493D01*
X135493181Y-80541135D01*
X133919531Y-82114784D01*
X133919529Y-82114787D01*
X133881586Y-82180508D01*
X133881584Y-82180511D01*
X133873386Y-82194708D01*
X133849500Y-82283854D01*
X133849500Y-83657535D01*
X133829815Y-83724574D01*
X133777011Y-83770329D01*
X133707853Y-83780273D01*
X133663500Y-83764922D01*
X133632488Y-83747017D01*
X133632489Y-83747017D01*
X133621006Y-83743940D01*
X133492475Y-83709500D01*
X133347525Y-83709500D01*
X133218993Y-83743940D01*
X133207511Y-83747017D01*
X133081988Y-83819488D01*
X133081982Y-83819493D01*
X132979493Y-83921982D01*
X132979488Y-83921988D01*
X132907017Y-84047511D01*
X132907016Y-84047515D01*
X132869500Y-84187525D01*
X132869500Y-84332475D01*
X132903877Y-84460769D01*
X132907017Y-84472488D01*
X132979488Y-84598011D01*
X132979493Y-84598017D01*
X133033181Y-84651705D01*
X133066666Y-84713028D01*
X133069500Y-84739386D01*
X133069500Y-86926905D01*
X133082515Y-86975478D01*
X133093384Y-87016046D01*
X133093385Y-87016047D01*
X133139527Y-87095969D01*
X133139531Y-87095974D01*
X134361376Y-88317819D01*
X134394861Y-88379142D01*
X134389877Y-88448834D01*
X134348005Y-88504767D01*
X134282541Y-88529184D01*
X134273695Y-88529500D01*
X134257525Y-88529500D01*
X134128993Y-88563940D01*
X134117511Y-88567017D01*
X133991988Y-88639488D01*
X133991982Y-88639493D01*
X133889493Y-88741982D01*
X133889488Y-88741988D01*
X133817017Y-88867511D01*
X133817016Y-88867515D01*
X133779500Y-89007525D01*
X133779500Y-89152475D01*
X133784052Y-89169463D01*
X133805844Y-89250792D01*
X133804181Y-89320642D01*
X133773750Y-89370566D01*
X132569531Y-90574786D01*
X132569527Y-90574791D01*
X132532783Y-90638433D01*
X132532784Y-90638434D01*
X132523386Y-90654712D01*
X132499500Y-90743856D01*
X132499500Y-91070614D01*
X132479815Y-91137653D01*
X132463181Y-91158295D01*
X132409493Y-91211982D01*
X132409488Y-91211988D01*
X132337017Y-91337511D01*
X132337016Y-91337515D01*
X132299500Y-91477525D01*
X132299500Y-91622475D01*
X132320139Y-91699500D01*
X132337017Y-91762488D01*
X132409488Y-91888011D01*
X132409490Y-91888013D01*
X132409491Y-91888015D01*
X132511985Y-91990509D01*
X132511986Y-91990510D01*
X132511988Y-91990511D01*
X132637511Y-92062982D01*
X132637512Y-92062982D01*
X132637515Y-92062984D01*
X132777525Y-92100500D01*
X132777528Y-92100500D01*
X132922472Y-92100500D01*
X132922475Y-92100500D01*
X133062485Y-92062984D01*
X133188015Y-91990509D01*
X133290509Y-91888015D01*
X133362984Y-91762485D01*
X133400500Y-91622475D01*
X133400500Y-91477525D01*
X133362984Y-91337515D01*
X133355676Y-91324858D01*
X133290511Y-91211988D01*
X133290506Y-91211982D01*
X133236819Y-91158295D01*
X133203334Y-91096972D01*
X133200500Y-91070614D01*
X133200500Y-90986543D01*
X133220185Y-90919504D01*
X133236814Y-90898867D01*
X134531447Y-89604233D01*
X134557119Y-89584534D01*
X134668015Y-89520509D01*
X134677819Y-89510705D01*
X134739142Y-89477220D01*
X134808834Y-89482204D01*
X134864767Y-89524076D01*
X134889184Y-89589540D01*
X134889500Y-89598386D01*
X134889500Y-90506144D01*
X134900046Y-90545500D01*
X134913386Y-90595287D01*
X134913387Y-90595290D01*
X134959527Y-90675208D01*
X134959531Y-90675213D01*
X136267454Y-91983136D01*
X136266470Y-91984119D01*
X136302565Y-92033552D01*
X136306720Y-92103298D01*
X136272508Y-92164218D01*
X136210790Y-92196971D01*
X136185876Y-92199500D01*
X135999386Y-92199500D01*
X135932347Y-92179815D01*
X135911705Y-92163181D01*
X135858017Y-92109493D01*
X135858011Y-92109488D01*
X135732488Y-92037017D01*
X135732489Y-92037017D01*
X135719557Y-92033552D01*
X135592475Y-91999500D01*
X135447525Y-91999500D01*
X135320443Y-92033552D01*
X135307511Y-92037017D01*
X135181988Y-92109488D01*
X135181982Y-92109493D01*
X135079493Y-92211982D01*
X135079488Y-92211988D01*
X135007017Y-92337511D01*
X135007016Y-92337515D01*
X134969500Y-92477525D01*
X134969500Y-92622475D01*
X135006160Y-92759291D01*
X135007017Y-92762488D01*
X135079488Y-92888011D01*
X135079490Y-92888013D01*
X135079491Y-92888015D01*
X135181985Y-92990509D01*
X135181986Y-92990510D01*
X135181988Y-92990511D01*
X135307511Y-93062982D01*
X135307512Y-93062982D01*
X135307515Y-93062984D01*
X135447525Y-93100500D01*
X135447528Y-93100500D01*
X135592472Y-93100500D01*
X135592475Y-93100500D01*
X135732485Y-93062984D01*
X135858015Y-92990509D01*
X135911705Y-92936819D01*
X135973028Y-92903334D01*
X135999386Y-92900500D01*
X136517050Y-92900500D01*
X136584089Y-92920185D01*
X136604731Y-92936819D01*
X136655227Y-92987315D01*
X136655228Y-92987316D01*
X136655230Y-92987317D01*
X136780753Y-93059788D01*
X136780754Y-93059788D01*
X136780757Y-93059790D01*
X136920767Y-93097306D01*
X136920770Y-93097306D01*
X137065714Y-93097306D01*
X137065717Y-93097306D01*
X137205727Y-93059790D01*
X137331257Y-92987315D01*
X137433751Y-92884821D01*
X137506226Y-92759291D01*
X137543742Y-92619281D01*
X137543742Y-92474331D01*
X137506226Y-92334321D01*
X137435593Y-92211982D01*
X137433753Y-92208794D01*
X137433748Y-92208788D01*
X137427238Y-92202278D01*
X137393753Y-92140955D01*
X137398737Y-92071263D01*
X137416552Y-92039099D01*
X137419740Y-92034943D01*
X137419750Y-92034934D01*
X137492225Y-91909404D01*
X137529741Y-91769394D01*
X137529741Y-91624444D01*
X137492225Y-91484434D01*
X137492223Y-91484432D01*
X137490121Y-91476584D01*
X137493258Y-91475743D01*
X137487403Y-91421396D01*
X137518664Y-91358910D01*
X137547440Y-91335997D01*
X137566731Y-91324860D01*
X137669225Y-91222366D01*
X137705945Y-91158765D01*
X137756507Y-91110553D01*
X137825114Y-91097329D01*
X137889979Y-91123296D01*
X137901010Y-91133087D01*
X138201467Y-91433544D01*
X138271380Y-91503457D01*
X138357004Y-91552892D01*
X138357008Y-91552893D01*
X138396166Y-91563386D01*
X138396167Y-91563386D01*
X138411263Y-91567430D01*
X138452506Y-91578482D01*
X138452507Y-91578482D01*
X141216490Y-91578482D01*
X141216491Y-91578482D01*
X141260923Y-91566575D01*
X141272830Y-91563386D01*
X141290095Y-91558759D01*
X141311993Y-91552892D01*
X141397617Y-91503457D01*
X141397624Y-91503449D01*
X141399377Y-91502105D01*
X141401134Y-91501425D01*
X141404655Y-91499393D01*
X141404971Y-91499942D01*
X141464547Y-91476911D01*
X141474864Y-91476481D01*
X142554432Y-91476481D01*
X142554435Y-91476481D01*
X142649938Y-91450891D01*
X142735562Y-91401456D01*
X142805475Y-91331543D01*
X142854910Y-91245919D01*
X142880500Y-91150416D01*
X142880500Y-87132939D01*
X142900185Y-87065900D01*
X142916819Y-87045258D01*
X143470258Y-86491819D01*
X143531581Y-86458334D01*
X143557939Y-86455500D01*
X145625718Y-86455500D01*
X145692757Y-86475185D01*
X145712591Y-86493420D01*
X145713744Y-86492268D01*
X145719491Y-86498015D01*
X145821985Y-86600509D01*
X145821986Y-86600510D01*
X145821988Y-86600511D01*
X145947511Y-86672982D01*
X145947512Y-86672982D01*
X145947515Y-86672984D01*
X146087525Y-86710500D01*
X146087528Y-86710500D01*
X146232472Y-86710500D01*
X146232475Y-86710500D01*
X146372485Y-86672984D01*
X146498015Y-86600509D01*
X146600509Y-86498015D01*
X146672984Y-86372485D01*
X146710500Y-86232475D01*
X146710500Y-86087525D01*
X146672984Y-85947515D01*
X146664594Y-85932984D01*
X146600511Y-85821988D01*
X146600506Y-85821982D01*
X146498017Y-85719493D01*
X146498011Y-85719488D01*
X146372488Y-85647017D01*
X146372489Y-85647017D01*
X146361006Y-85643940D01*
X146232475Y-85609500D01*
X146087525Y-85609500D01*
X145958993Y-85643940D01*
X145947511Y-85647017D01*
X145876724Y-85687887D01*
X145814724Y-85704500D01*
X143301604Y-85704500D01*
X143253852Y-85717295D01*
X143253851Y-85717294D01*
X143206103Y-85730089D01*
X143206102Y-85730089D01*
X143157734Y-85758015D01*
X143124632Y-85777127D01*
X143120475Y-85779527D01*
X142204526Y-86695476D01*
X142155091Y-86781099D01*
X142155091Y-86781100D01*
X142155090Y-86781102D01*
X142129500Y-86876605D01*
X142129500Y-86876607D01*
X142129500Y-89774712D01*
X142109815Y-89841751D01*
X142057011Y-89887506D01*
X141987853Y-89897450D01*
X141973407Y-89894487D01*
X141921407Y-89880554D01*
X141902475Y-89875481D01*
X141902474Y-89875481D01*
X141894415Y-89874420D01*
X141894655Y-89872590D01*
X141837461Y-89855796D01*
X141791706Y-89802992D01*
X141780500Y-89751481D01*
X141780500Y-89108172D01*
X141780500Y-89108170D01*
X141756614Y-89019026D01*
X141749974Y-89007525D01*
X141748552Y-89005062D01*
X141748551Y-89005060D01*
X141710472Y-88939105D01*
X141710468Y-88939100D01*
X141036819Y-88265451D01*
X141003334Y-88204128D01*
X141000500Y-88177770D01*
X141000500Y-86392204D01*
X141020185Y-86325165D01*
X141072989Y-86279410D01*
X141142147Y-86269466D01*
X141205703Y-86298491D01*
X141231887Y-86330204D01*
X141259488Y-86378011D01*
X141259490Y-86378013D01*
X141259491Y-86378015D01*
X141361985Y-86480509D01*
X141361986Y-86480510D01*
X141361988Y-86480511D01*
X141487511Y-86552982D01*
X141487512Y-86552982D01*
X141487515Y-86552984D01*
X141627525Y-86590500D01*
X141627528Y-86590500D01*
X141772472Y-86590500D01*
X141772475Y-86590500D01*
X141912485Y-86552984D01*
X142038015Y-86480509D01*
X142140509Y-86378015D01*
X142212984Y-86252485D01*
X142250500Y-86112475D01*
X142250500Y-85967525D01*
X142250500Y-85959396D01*
X142252321Y-85959396D01*
X142254523Y-85925770D01*
X142258219Y-85911976D01*
X142270500Y-85866144D01*
X142270500Y-79806544D01*
X142290185Y-79739505D01*
X142306819Y-79718863D01*
X142878666Y-79147016D01*
X143460470Y-78565212D01*
X143506614Y-78485288D01*
X143512888Y-78461873D01*
X143530500Y-78396144D01*
X143530500Y-78247525D01*
X146409500Y-78247525D01*
X146409500Y-78392475D01*
X146434370Y-78485290D01*
X146447017Y-78532488D01*
X146519488Y-78658011D01*
X146519490Y-78658013D01*
X146519491Y-78658015D01*
X146621985Y-78760509D01*
X146621986Y-78760510D01*
X146621988Y-78760511D01*
X146747511Y-78832982D01*
X146747512Y-78832982D01*
X146747515Y-78832984D01*
X146887525Y-78870500D01*
X146887528Y-78870500D01*
X147032472Y-78870500D01*
X147032475Y-78870500D01*
X147172485Y-78832984D01*
X147298015Y-78760509D01*
X147346705Y-78711819D01*
X147408028Y-78678334D01*
X147434386Y-78675500D01*
X148559434Y-78675500D01*
X148559436Y-78675500D01*
X148606303Y-78662941D01*
X148616208Y-78660288D01*
X148633282Y-78655712D01*
X148654938Y-78649910D01*
X148740562Y-78600475D01*
X148810475Y-78530562D01*
X149724218Y-77616819D01*
X149785541Y-77583334D01*
X149811899Y-77580500D01*
X149852472Y-77580500D01*
X149852475Y-77580500D01*
X149992485Y-77542984D01*
X150118015Y-77470509D01*
X150220509Y-77368015D01*
X150292984Y-77242485D01*
X150330500Y-77102475D01*
X150330500Y-76957525D01*
X150292984Y-76817515D01*
X150241022Y-76727515D01*
X150220511Y-76691988D01*
X150220506Y-76691982D01*
X150118017Y-76589493D01*
X150118011Y-76589488D01*
X149992488Y-76517017D01*
X149992489Y-76517017D01*
X149981006Y-76513940D01*
X149852475Y-76479500D01*
X149707525Y-76479500D01*
X149578993Y-76513940D01*
X149567511Y-76517017D01*
X149441988Y-76589488D01*
X149441982Y-76589493D01*
X149339493Y-76691982D01*
X149339488Y-76691988D01*
X149267017Y-76817511D01*
X149267016Y-76817515D01*
X149229500Y-76957525D01*
X149229500Y-76957527D01*
X149229500Y-76998101D01*
X149209815Y-77065140D01*
X149193181Y-77085782D01*
X148390782Y-77888181D01*
X148329459Y-77921666D01*
X148303101Y-77924500D01*
X147394386Y-77924500D01*
X147327347Y-77904815D01*
X147306705Y-77888181D01*
X147298017Y-77879493D01*
X147298011Y-77879488D01*
X147172488Y-77807017D01*
X147172489Y-77807017D01*
X147161006Y-77803940D01*
X147032475Y-77769500D01*
X146887525Y-77769500D01*
X146758993Y-77803940D01*
X146747511Y-77807017D01*
X146621988Y-77879488D01*
X146621982Y-77879493D01*
X146519493Y-77981982D01*
X146519488Y-77981988D01*
X146447017Y-78107511D01*
X146446109Y-78110899D01*
X146409500Y-78247525D01*
X143530500Y-78247525D01*
X143530500Y-74763986D01*
X143550185Y-74696947D01*
X143602989Y-74651192D01*
X143638320Y-74641046D01*
X143642468Y-74640500D01*
X143642475Y-74640500D01*
X143782485Y-74602984D01*
X143908015Y-74530509D01*
X144010509Y-74428015D01*
X144082984Y-74302485D01*
X144120500Y-74162475D01*
X144120500Y-74017525D01*
X144082984Y-73877515D01*
X144010509Y-73751985D01*
X143908015Y-73649491D01*
X143908013Y-73649490D01*
X143908011Y-73649488D01*
X143782488Y-73577017D01*
X143782489Y-73577017D01*
X143771006Y-73573940D01*
X143642475Y-73539500D01*
X143497525Y-73539500D01*
X143368993Y-73573940D01*
X143357511Y-73577017D01*
X143231988Y-73649488D01*
X143231982Y-73649493D01*
X143129493Y-73751982D01*
X143129488Y-73751988D01*
X143057017Y-73877511D01*
X143057016Y-73877515D01*
X143019500Y-74017525D01*
X143019500Y-74017527D01*
X143019500Y-74093456D01*
X142999815Y-74160495D01*
X142983181Y-74181137D01*
X142899531Y-74264786D01*
X142899530Y-74264788D01*
X142858466Y-74335913D01*
X142854624Y-74342566D01*
X142853385Y-74344713D01*
X142829500Y-74433856D01*
X142829500Y-74963155D01*
X142809815Y-75030194D01*
X142757011Y-75075949D01*
X142687853Y-75085893D01*
X142624297Y-75056868D01*
X142598114Y-75025156D01*
X142590513Y-75011991D01*
X142590510Y-75011988D01*
X142590509Y-75011985D01*
X142488015Y-74909491D01*
X142488013Y-74909490D01*
X142488011Y-74909488D01*
X142362488Y-74837017D01*
X142362489Y-74837017D01*
X142351006Y-74833940D01*
X142222475Y-74799500D01*
X142222472Y-74799500D01*
X142181899Y-74799500D01*
X142114860Y-74779815D01*
X142094218Y-74763181D01*
X141380563Y-74049526D01*
X141380562Y-74049525D01*
X141294938Y-74000090D01*
X141247186Y-73987295D01*
X141247184Y-73987294D01*
X141247182Y-73987293D01*
X141199436Y-73974500D01*
X141199435Y-73974500D01*
X127956899Y-73974500D01*
X127889860Y-73954815D01*
X127869218Y-73938181D01*
X126236819Y-72305782D01*
X126203334Y-72244459D01*
X126200500Y-72218101D01*
X126200500Y-72177527D01*
X126200500Y-72177525D01*
X126162984Y-72037515D01*
X126090509Y-71911985D01*
X125988015Y-71809491D01*
X125988013Y-71809490D01*
X125988011Y-71809488D01*
X125862488Y-71737017D01*
X125862489Y-71737017D01*
X125851006Y-71733940D01*
X125722475Y-71699500D01*
X125577525Y-71699500D01*
X125448993Y-71733940D01*
X125437511Y-71737017D01*
X125311988Y-71809488D01*
X125311982Y-71809493D01*
X125209493Y-71911982D01*
X125209488Y-71911988D01*
X125137017Y-72037511D01*
X125136515Y-72039383D01*
X125099500Y-72177525D01*
X125099500Y-72322475D01*
X125137016Y-72462485D01*
X125137017Y-72462488D01*
X125209488Y-72588011D01*
X125209490Y-72588013D01*
X125209491Y-72588015D01*
X125311985Y-72690509D01*
X125311986Y-72690510D01*
X125311988Y-72690511D01*
X125437511Y-72762982D01*
X125437512Y-72762982D01*
X125437515Y-72762984D01*
X125577525Y-72800500D01*
X125618101Y-72800500D01*
X125685140Y-72820185D01*
X125705782Y-72836819D01*
X127449525Y-74580562D01*
X127519438Y-74650475D01*
X127524011Y-74653115D01*
X127572224Y-74703681D01*
X127585446Y-74772288D01*
X127559478Y-74837152D01*
X127502564Y-74877680D01*
X127462008Y-74884500D01*
X126120564Y-74884500D01*
X126072812Y-74897295D01*
X126072811Y-74897294D01*
X126025063Y-74910089D01*
X126025058Y-74910091D01*
X125983499Y-74934086D01*
X125983498Y-74934087D01*
X125939437Y-74959524D01*
X125292764Y-75606197D01*
X125231441Y-75639682D01*
X125221279Y-75641454D01*
X125213343Y-75642499D01*
X125117839Y-75668089D01*
X125117836Y-75668090D01*
X125032216Y-75717522D01*
X125032211Y-75717526D01*
X123473706Y-77276031D01*
X123412383Y-77309516D01*
X123342691Y-77304532D01*
X123286758Y-77262660D01*
X123278638Y-77250350D01*
X123217113Y-77143786D01*
X123200500Y-77081786D01*
X123200500Y-72730413D01*
X123220185Y-72663374D01*
X123236819Y-72642732D01*
X124328590Y-71550961D01*
X125782691Y-70096860D01*
X125828836Y-70016936D01*
X125838849Y-69979566D01*
X125852722Y-69927792D01*
X125852722Y-67786355D01*
X125872407Y-67719316D01*
X125889041Y-67698674D01*
X125942731Y-67644984D01*
X126015206Y-67519454D01*
X126052722Y-67379444D01*
X126052722Y-67234494D01*
X126015206Y-67094484D01*
X125942731Y-66968954D01*
X125840237Y-66866460D01*
X125714707Y-66793985D01*
X125712499Y-66792710D01*
X125664284Y-66742142D01*
X125650500Y-66685323D01*
X125650500Y-66407525D01*
X129599500Y-66407525D01*
X129599500Y-66552475D01*
X129635097Y-66685323D01*
X129637017Y-66692488D01*
X129709488Y-66818011D01*
X129709490Y-66818013D01*
X129709491Y-66818015D01*
X129811985Y-66920509D01*
X129811986Y-66920510D01*
X129811988Y-66920511D01*
X129937511Y-66992982D01*
X129937512Y-66992982D01*
X129937515Y-66992984D01*
X130077525Y-67030500D01*
X130077528Y-67030500D01*
X130222472Y-67030500D01*
X130222475Y-67030500D01*
X130362485Y-66992984D01*
X130488015Y-66920509D01*
X130571705Y-66836819D01*
X130633028Y-66803334D01*
X130659386Y-66800500D01*
X146253456Y-66800500D01*
X146320495Y-66820185D01*
X146341137Y-66836819D01*
X148463181Y-68958862D01*
X148496666Y-69020185D01*
X148499500Y-69046543D01*
X148499500Y-69122475D01*
X148537016Y-69262485D01*
X148537017Y-69262488D01*
X148609488Y-69388011D01*
X148609490Y-69388013D01*
X148609491Y-69388015D01*
X148711985Y-69490509D01*
X148711986Y-69490510D01*
X148711988Y-69490511D01*
X148837511Y-69562982D01*
X148837512Y-69562982D01*
X148837515Y-69562984D01*
X148977525Y-69600500D01*
X148977528Y-69600500D01*
X149122472Y-69600500D01*
X149122475Y-69600500D01*
X149262485Y-69562984D01*
X149388015Y-69490509D01*
X149490509Y-69388015D01*
X149562984Y-69262485D01*
X149600500Y-69122475D01*
X149600500Y-68977525D01*
X149562984Y-68837515D01*
X149561408Y-68834786D01*
X149490511Y-68711988D01*
X149490506Y-68711982D01*
X149388017Y-68609493D01*
X149388011Y-68609488D01*
X149262488Y-68537017D01*
X149262489Y-68537017D01*
X149251006Y-68533940D01*
X149122475Y-68499500D01*
X149122472Y-68499500D01*
X149046543Y-68499500D01*
X148979504Y-68479815D01*
X148958862Y-68463181D01*
X146665213Y-66169531D01*
X146665208Y-66169527D01*
X146585290Y-66123387D01*
X146585289Y-66123386D01*
X146585288Y-66123386D01*
X146496144Y-66099500D01*
X146496143Y-66099500D01*
X130599386Y-66099500D01*
X130532347Y-66079815D01*
X130511705Y-66063181D01*
X130488017Y-66039493D01*
X130488011Y-66039488D01*
X130362488Y-65967017D01*
X130362489Y-65967017D01*
X130351006Y-65963940D01*
X130222475Y-65929500D01*
X130077525Y-65929500D01*
X129948993Y-65963940D01*
X129937511Y-65967017D01*
X129811988Y-66039488D01*
X129811982Y-66039493D01*
X129709493Y-66141982D01*
X129709488Y-66141988D01*
X129637017Y-66267511D01*
X129637016Y-66267515D01*
X129599500Y-66407525D01*
X125650500Y-66407525D01*
X125650500Y-65077304D01*
X125670185Y-65010265D01*
X125686819Y-64989623D01*
X127614624Y-63061819D01*
X127675947Y-63028334D01*
X127702305Y-63025500D01*
X155400500Y-63025500D01*
X155467539Y-63045185D01*
X155513294Y-63097989D01*
X155524500Y-63149500D01*
X155524500Y-75459435D01*
X155545421Y-75537512D01*
X155550091Y-75554941D01*
X155598916Y-75639507D01*
X155599526Y-75640564D01*
X155599528Y-75640566D01*
X156311782Y-76352819D01*
X156345267Y-76414142D01*
X156340283Y-76483833D01*
X156298411Y-76539767D01*
X156232947Y-76564184D01*
X156224101Y-76564500D01*
X154294386Y-76564500D01*
X154227347Y-76544815D01*
X154206705Y-76528181D01*
X154178017Y-76499493D01*
X154178011Y-76499488D01*
X154052488Y-76427017D01*
X154052489Y-76427017D01*
X154038938Y-76423386D01*
X153912475Y-76389500D01*
X153767525Y-76389500D01*
X153641062Y-76423386D01*
X153627511Y-76427017D01*
X153501988Y-76499488D01*
X153501982Y-76499493D01*
X153399493Y-76601982D01*
X153399488Y-76601988D01*
X153327017Y-76727511D01*
X153327016Y-76727515D01*
X153289500Y-76867525D01*
X153289500Y-77012475D01*
X153324685Y-77143786D01*
X153327017Y-77152488D01*
X153399488Y-77278011D01*
X153399490Y-77278013D01*
X153399491Y-77278015D01*
X153501985Y-77380509D01*
X153501986Y-77380510D01*
X153501988Y-77380511D01*
X153627511Y-77452982D01*
X153627512Y-77452982D01*
X153627515Y-77452984D01*
X153767525Y-77490500D01*
X153767528Y-77490500D01*
X153912472Y-77490500D01*
X153912475Y-77490500D01*
X154052485Y-77452984D01*
X154178015Y-77380509D01*
X154206705Y-77351819D01*
X154268028Y-77318334D01*
X154294386Y-77315500D01*
X156423101Y-77315500D01*
X156490140Y-77335185D01*
X156510782Y-77351819D01*
X158921782Y-79762819D01*
X158955267Y-79824142D01*
X158950283Y-79893834D01*
X158908411Y-79949767D01*
X158842947Y-79974184D01*
X158834101Y-79974500D01*
X143787476Y-79974500D01*
X143720437Y-79954815D01*
X143680089Y-79912500D01*
X143632579Y-79830212D01*
X143610509Y-79791985D01*
X143508015Y-79689491D01*
X143508013Y-79689490D01*
X143508011Y-79689488D01*
X143382488Y-79617017D01*
X143382489Y-79617017D01*
X143371006Y-79613940D01*
X143242475Y-79579500D01*
X143097525Y-79579500D01*
X142968993Y-79613940D01*
X142957511Y-79617017D01*
X142831988Y-79689488D01*
X142831982Y-79689493D01*
X142729493Y-79791982D01*
X142729488Y-79791988D01*
X142657017Y-79917511D01*
X142657016Y-79917515D01*
X142619500Y-80057525D01*
X142619500Y-80202475D01*
X142628889Y-80237513D01*
X142657017Y-80342488D01*
X142729488Y-80468011D01*
X142729490Y-80468013D01*
X142729491Y-80468015D01*
X142831985Y-80570509D01*
X142831986Y-80570510D01*
X142831988Y-80570511D01*
X142957511Y-80642982D01*
X142957512Y-80642982D01*
X142957515Y-80642984D01*
X143097525Y-80680500D01*
X143178217Y-80680500D01*
X143240219Y-80697114D01*
X143245062Y-80699910D01*
X143260979Y-80704175D01*
X143292811Y-80712705D01*
X143292812Y-80712705D01*
X143302903Y-80715408D01*
X143340564Y-80725500D01*
X143340565Y-80725500D01*
X153779712Y-80725500D01*
X153846751Y-80745185D01*
X153892506Y-80797989D01*
X153902450Y-80867147D01*
X153899487Y-80881593D01*
X153884500Y-80937525D01*
X153884500Y-80978101D01*
X153864815Y-81045140D01*
X153848181Y-81065782D01*
X153575782Y-81338181D01*
X153514459Y-81371666D01*
X153488101Y-81374500D01*
X148924386Y-81374500D01*
X148857347Y-81354815D01*
X148836705Y-81338181D01*
X148808017Y-81309493D01*
X148808011Y-81309488D01*
X148682488Y-81237017D01*
X148682489Y-81237017D01*
X148671006Y-81233940D01*
X148542475Y-81199500D01*
X148397525Y-81199500D01*
X148268993Y-81233940D01*
X148257511Y-81237017D01*
X148131988Y-81309488D01*
X148131982Y-81309493D01*
X148029493Y-81411982D01*
X148029488Y-81411988D01*
X147957017Y-81537511D01*
X147957016Y-81537515D01*
X147919500Y-81677525D01*
X147919500Y-81677527D01*
X147919500Y-81759101D01*
X147899815Y-81826140D01*
X147847011Y-81871895D01*
X147777853Y-81881839D01*
X147714297Y-81852814D01*
X147707819Y-81846782D01*
X147656819Y-81795782D01*
X147623334Y-81734459D01*
X147620500Y-81708101D01*
X147620500Y-81667527D01*
X147620500Y-81667525D01*
X147582984Y-81527515D01*
X147582968Y-81527488D01*
X147510511Y-81401988D01*
X147510506Y-81401982D01*
X147408017Y-81299493D01*
X147408011Y-81299488D01*
X147282488Y-81227017D01*
X147282489Y-81227017D01*
X147265575Y-81222485D01*
X147142475Y-81189500D01*
X146997525Y-81189500D01*
X146874425Y-81222485D01*
X146857511Y-81227017D01*
X146731988Y-81299488D01*
X146731982Y-81299493D01*
X146629493Y-81401982D01*
X146629488Y-81401988D01*
X146557017Y-81527511D01*
X146556692Y-81528725D01*
X146519500Y-81667525D01*
X146519500Y-81812475D01*
X146557016Y-81952485D01*
X146557017Y-81952488D01*
X146629488Y-82078011D01*
X146629490Y-82078013D01*
X146629491Y-82078015D01*
X146731985Y-82180509D01*
X146731986Y-82180510D01*
X146731988Y-82180511D01*
X146857511Y-82252982D01*
X146857512Y-82252982D01*
X146857515Y-82252984D01*
X146992596Y-82289179D01*
X147052254Y-82325543D01*
X147082783Y-82388390D01*
X147084500Y-82408953D01*
X147084500Y-94615614D01*
X147064815Y-94682653D01*
X147048181Y-94703295D01*
X147019493Y-94731982D01*
X147019488Y-94731988D01*
X146947017Y-94857511D01*
X146947016Y-94857515D01*
X146909500Y-94997525D01*
X146909500Y-95142475D01*
X146947016Y-95282485D01*
X146947017Y-95282488D01*
X147019488Y-95408011D01*
X147019490Y-95408013D01*
X147019491Y-95408015D01*
X147121985Y-95510509D01*
X147121986Y-95510510D01*
X147121988Y-95510511D01*
X147247511Y-95582982D01*
X147247512Y-95582982D01*
X147247515Y-95582984D01*
X147387525Y-95620500D01*
X147387528Y-95620500D01*
X147532472Y-95620500D01*
X147532475Y-95620500D01*
X147672485Y-95582984D01*
X147798015Y-95510509D01*
X147900509Y-95408015D01*
X147972984Y-95282485D01*
X148010500Y-95142475D01*
X148010500Y-94997525D01*
X147972984Y-94857515D01*
X147971945Y-94855716D01*
X147900511Y-94731988D01*
X147900506Y-94731982D01*
X147871819Y-94703295D01*
X147838334Y-94641972D01*
X147835500Y-94615614D01*
X147835500Y-82193386D01*
X147855185Y-82126347D01*
X147907989Y-82080592D01*
X147977147Y-82070648D01*
X148040703Y-82099673D01*
X148047181Y-82105705D01*
X148131985Y-82190509D01*
X148131986Y-82190510D01*
X148131988Y-82190511D01*
X148257511Y-82262982D01*
X148257512Y-82262982D01*
X148257515Y-82262984D01*
X148397525Y-82300500D01*
X148397528Y-82300500D01*
X148542472Y-82300500D01*
X148542475Y-82300500D01*
X148682485Y-82262984D01*
X148808015Y-82190509D01*
X148836705Y-82161819D01*
X148898028Y-82128334D01*
X148924386Y-82125500D01*
X153744435Y-82125500D01*
X153744436Y-82125500D01*
X153792186Y-82112705D01*
X153839938Y-82099910D01*
X153925562Y-82050475D01*
X153995475Y-81980562D01*
X154379218Y-81596819D01*
X154440541Y-81563334D01*
X154466899Y-81560500D01*
X154507472Y-81560500D01*
X154507475Y-81560500D01*
X154647485Y-81522984D01*
X154773015Y-81450509D01*
X154875509Y-81348015D01*
X154947984Y-81222485D01*
X154985500Y-81082475D01*
X154985500Y-80937525D01*
X154970513Y-80881593D01*
X154972176Y-80811743D01*
X155011339Y-80753881D01*
X155075567Y-80726377D01*
X155090288Y-80725500D01*
X158823101Y-80725500D01*
X158890140Y-80745185D01*
X158910782Y-80761819D01*
X159408181Y-81259218D01*
X159441666Y-81320541D01*
X159444500Y-81346899D01*
X159444500Y-81387475D01*
X159480810Y-81522984D01*
X159482017Y-81527488D01*
X159554488Y-81653011D01*
X159554490Y-81653013D01*
X159554491Y-81653015D01*
X159656985Y-81755509D01*
X159656986Y-81755510D01*
X159656988Y-81755511D01*
X159782511Y-81827982D01*
X159782512Y-81827982D01*
X159782515Y-81827984D01*
X159922525Y-81865500D01*
X159922528Y-81865500D01*
X160067472Y-81865500D01*
X160067475Y-81865500D01*
X160207485Y-81827984D01*
X160333015Y-81755509D01*
X160392819Y-81695705D01*
X160454142Y-81662220D01*
X160523834Y-81667204D01*
X160579767Y-81709076D01*
X160604184Y-81774540D01*
X160604500Y-81783386D01*
X160604500Y-89670500D01*
X160584815Y-89737539D01*
X160532011Y-89783294D01*
X160480500Y-89794500D01*
X159176899Y-89794500D01*
X159109860Y-89774815D01*
X159089218Y-89758181D01*
X157118218Y-87787181D01*
X157084733Y-87725858D01*
X157089717Y-87656166D01*
X157131589Y-87600233D01*
X157197053Y-87575816D01*
X157205899Y-87575500D01*
X157333768Y-87575500D01*
X157333769Y-87575499D01*
X157498082Y-87542816D01*
X157652863Y-87478703D01*
X157792162Y-87385626D01*
X157910626Y-87267162D01*
X158003703Y-87127863D01*
X158003703Y-87127861D01*
X158007087Y-87122798D01*
X158008099Y-87123474D01*
X158052557Y-87078209D01*
X158120693Y-87062743D01*
X158186375Y-87086570D01*
X158228748Y-87142124D01*
X158230406Y-87146810D01*
X158230588Y-87147251D01*
X158309195Y-87301524D01*
X158410967Y-87441602D01*
X158533397Y-87564032D01*
X158673475Y-87665804D01*
X158827744Y-87744408D01*
X158992415Y-87797914D01*
X158992414Y-87797914D01*
X158999999Y-87799115D01*
X159000000Y-87799114D01*
X159000000Y-86730330D01*
X159019745Y-86750075D01*
X159105255Y-86799444D01*
X159200630Y-86825000D01*
X159299370Y-86825000D01*
X159394745Y-86799444D01*
X159480255Y-86750075D01*
X159500000Y-86730330D01*
X159500000Y-87799115D01*
X159507584Y-87797914D01*
X159672255Y-87744408D01*
X159826524Y-87665804D01*
X159966602Y-87564032D01*
X160089032Y-87441602D01*
X160190804Y-87301524D01*
X160269408Y-87147257D01*
X160322914Y-86982584D01*
X160350000Y-86811571D01*
X160350000Y-86700000D01*
X159530330Y-86700000D01*
X159550075Y-86680255D01*
X159599444Y-86594745D01*
X159625000Y-86499370D01*
X159625000Y-86400630D01*
X159599444Y-86305255D01*
X159550075Y-86219745D01*
X159530330Y-86200000D01*
X160350000Y-86200000D01*
X160350000Y-86088428D01*
X160322914Y-85917415D01*
X160269408Y-85752742D01*
X160190804Y-85598475D01*
X160089032Y-85458397D01*
X159966602Y-85335967D01*
X159826524Y-85234195D01*
X159672257Y-85155591D01*
X159507589Y-85102087D01*
X159507581Y-85102085D01*
X159500000Y-85100884D01*
X159500000Y-86169670D01*
X159480255Y-86149925D01*
X159394745Y-86100556D01*
X159299370Y-86075000D01*
X159200630Y-86075000D01*
X159105255Y-86100556D01*
X159019745Y-86149925D01*
X159000000Y-86169670D01*
X159000000Y-85100884D01*
X158999999Y-85100884D01*
X158992418Y-85102085D01*
X158992410Y-85102087D01*
X158827742Y-85155591D01*
X158673475Y-85234195D01*
X158533397Y-85335967D01*
X158410967Y-85458397D01*
X158309195Y-85598475D01*
X158230588Y-85752748D01*
X158228729Y-85757240D01*
X158227531Y-85756743D01*
X158191428Y-85809513D01*
X158127061Y-85836693D01*
X158058218Y-85824759D01*
X158006756Y-85777501D01*
X158003742Y-85772196D01*
X158001752Y-85769218D01*
X157953890Y-85697587D01*
X157910626Y-85632837D01*
X157792162Y-85514373D01*
X157652860Y-85421295D01*
X157498082Y-85357184D01*
X157498074Y-85357182D01*
X157333771Y-85324500D01*
X157333767Y-85324500D01*
X157166233Y-85324500D01*
X157166228Y-85324500D01*
X157001925Y-85357182D01*
X157001917Y-85357184D01*
X156847139Y-85421295D01*
X156707837Y-85514373D01*
X156589373Y-85632837D01*
X156496295Y-85772139D01*
X156432184Y-85926917D01*
X156432182Y-85926925D01*
X156399500Y-86091228D01*
X156399500Y-86769101D01*
X156379815Y-86836140D01*
X156327011Y-86881895D01*
X156257853Y-86891839D01*
X156194297Y-86862814D01*
X156187819Y-86856782D01*
X156136818Y-86805781D01*
X156103333Y-86744458D01*
X156100499Y-86718100D01*
X156100499Y-85777129D01*
X156100498Y-85777123D01*
X156100497Y-85777116D01*
X156095256Y-85728350D01*
X156094091Y-85717516D01*
X156043797Y-85582671D01*
X156043793Y-85582664D01*
X155957547Y-85467455D01*
X155957544Y-85467452D01*
X155842335Y-85381206D01*
X155842328Y-85381202D01*
X155707482Y-85330908D01*
X155707483Y-85330908D01*
X155647883Y-85324501D01*
X155647881Y-85324500D01*
X155647873Y-85324500D01*
X155647864Y-85324500D01*
X154852129Y-85324500D01*
X154852123Y-85324501D01*
X154792516Y-85330908D01*
X154657671Y-85381202D01*
X154657664Y-85381206D01*
X154542455Y-85467452D01*
X154542452Y-85467455D01*
X154456206Y-85582664D01*
X154456202Y-85582671D01*
X154405908Y-85717517D01*
X154400036Y-85772139D01*
X154399501Y-85777123D01*
X154399500Y-85777135D01*
X154399500Y-87122870D01*
X154399501Y-87122876D01*
X154405908Y-87182483D01*
X154456202Y-87317328D01*
X154456206Y-87317335D01*
X154542452Y-87432544D01*
X154542455Y-87432547D01*
X154657664Y-87518793D01*
X154657671Y-87518797D01*
X154792517Y-87569091D01*
X154792516Y-87569091D01*
X154799444Y-87569835D01*
X154852127Y-87575500D01*
X155647872Y-87575499D01*
X155707483Y-87569091D01*
X155707486Y-87569090D01*
X155727917Y-87561470D01*
X155797609Y-87556485D01*
X155858932Y-87589969D01*
X158669525Y-90400562D01*
X158739438Y-90470475D01*
X158792967Y-90501380D01*
X158821502Y-90517855D01*
X158825062Y-90519910D01*
X158837362Y-90523205D01*
X158837366Y-90523208D01*
X158837367Y-90523207D01*
X158920564Y-90545500D01*
X158920565Y-90545500D01*
X158920566Y-90545500D01*
X160989434Y-90545500D01*
X160989436Y-90545500D01*
X161072633Y-90523207D01*
X161084938Y-90519910D01*
X161088498Y-90517854D01*
X161091884Y-90517032D01*
X161092444Y-90516801D01*
X161092480Y-90516888D01*
X161156396Y-90501380D01*
X161222423Y-90524230D01*
X161265616Y-90579150D01*
X161274500Y-90625240D01*
X161274500Y-106395614D01*
X161254815Y-106462653D01*
X161238181Y-106483295D01*
X161209493Y-106511982D01*
X161209488Y-106511988D01*
X161137017Y-106637511D01*
X161137016Y-106637515D01*
X161099500Y-106777525D01*
X161099500Y-106922475D01*
X161119365Y-106996610D01*
X161137017Y-107062488D01*
X161209488Y-107188011D01*
X161209490Y-107188013D01*
X161209491Y-107188015D01*
X161311985Y-107290509D01*
X161311986Y-107290510D01*
X161311988Y-107290511D01*
X161437511Y-107362982D01*
X161437512Y-107362982D01*
X161437515Y-107362984D01*
X161577525Y-107400500D01*
X161577528Y-107400500D01*
X161722472Y-107400500D01*
X161722475Y-107400500D01*
X161862485Y-107362984D01*
X161988015Y-107290509D01*
X162090509Y-107188015D01*
X162162984Y-107062485D01*
X162200500Y-106922475D01*
X162200500Y-106777525D01*
X162162984Y-106637515D01*
X162117325Y-106558432D01*
X162090511Y-106511988D01*
X162090506Y-106511982D01*
X162061819Y-106483295D01*
X162028334Y-106421972D01*
X162025500Y-106395614D01*
X162025500Y-81110567D01*
X162025498Y-81110557D01*
X162024253Y-81105910D01*
X162024250Y-81105901D01*
X162003005Y-81026613D01*
X161999910Y-81015063D01*
X161999910Y-81015062D01*
X161950475Y-80929438D01*
X161880562Y-80859525D01*
X156311819Y-75290782D01*
X156278334Y-75229459D01*
X156275500Y-75203101D01*
X156275500Y-71299038D01*
X160849500Y-71299038D01*
X160849500Y-71550961D01*
X160888910Y-71799785D01*
X160966760Y-72039383D01*
X161037148Y-72177525D01*
X161071252Y-72244459D01*
X161081132Y-72263848D01*
X161229201Y-72467649D01*
X161229205Y-72467654D01*
X161407345Y-72645794D01*
X161407350Y-72645798D01*
X161568641Y-72762982D01*
X161611155Y-72793870D01*
X161734248Y-72856589D01*
X161835616Y-72908239D01*
X161835618Y-72908239D01*
X161835621Y-72908241D01*
X162075215Y-72986090D01*
X162324038Y-73025500D01*
X162324039Y-73025500D01*
X162575961Y-73025500D01*
X162575962Y-73025500D01*
X162824785Y-72986090D01*
X163064379Y-72908241D01*
X163288845Y-72793870D01*
X163492656Y-72645793D01*
X163670793Y-72467656D01*
X163818870Y-72263845D01*
X163933241Y-72039379D01*
X164011090Y-71799785D01*
X164050500Y-71550962D01*
X164050500Y-71299038D01*
X164011090Y-71050215D01*
X163933241Y-70810621D01*
X163933239Y-70810618D01*
X163933239Y-70810616D01*
X163891747Y-70729184D01*
X163818870Y-70586155D01*
X163799952Y-70560117D01*
X163670798Y-70382350D01*
X163670794Y-70382345D01*
X163492654Y-70204205D01*
X163492649Y-70204201D01*
X163288848Y-70056132D01*
X163288847Y-70056131D01*
X163288845Y-70056130D01*
X163211922Y-70016936D01*
X163064383Y-69941760D01*
X162824785Y-69863910D01*
X162817070Y-69862688D01*
X162575962Y-69824500D01*
X162324038Y-69824500D01*
X162199626Y-69844205D01*
X162075214Y-69863910D01*
X161835616Y-69941760D01*
X161611151Y-70056132D01*
X161407350Y-70204201D01*
X161407345Y-70204205D01*
X161229205Y-70382345D01*
X161229201Y-70382350D01*
X161081132Y-70586151D01*
X160966760Y-70810616D01*
X160888910Y-71050214D01*
X160849500Y-71299038D01*
X156275500Y-71299038D01*
X156275500Y-62600567D01*
X156274439Y-62592509D01*
X156277312Y-62592130D01*
X156278647Y-62536235D01*
X156317813Y-62478376D01*
X156382044Y-62450876D01*
X156396756Y-62450000D01*
X160610000Y-62450000D01*
X160610000Y-56574500D01*
X160629685Y-56507461D01*
X160682489Y-56461706D01*
X160734000Y-56450500D01*
X165625500Y-56450500D01*
X165692539Y-56470185D01*
G37*
%TD.AperFunction*%
%TA.AperFunction,Conductor*%
G36*
X146580703Y-108713226D02*
G01*
X146587181Y-108719258D01*
X147938181Y-110070258D01*
X147971666Y-110131581D01*
X147974500Y-110157939D01*
X147974500Y-114396614D01*
X147954815Y-114463653D01*
X147902011Y-114509408D01*
X147832853Y-114519352D01*
X147769297Y-114490327D01*
X147762819Y-114484295D01*
X147688017Y-114409493D01*
X147688011Y-114409488D01*
X147562488Y-114337017D01*
X147562489Y-114337017D01*
X147551006Y-114333940D01*
X147422475Y-114299500D01*
X147277525Y-114299500D01*
X147148993Y-114333940D01*
X147137511Y-114337017D01*
X147011988Y-114409488D01*
X147011982Y-114409493D01*
X146909493Y-114511982D01*
X146909488Y-114511988D01*
X146837017Y-114637511D01*
X146837016Y-114637515D01*
X146799500Y-114777525D01*
X146799500Y-114777527D01*
X146799500Y-114818101D01*
X146779815Y-114885140D01*
X146763181Y-114905782D01*
X145849526Y-115819436D01*
X145800091Y-115905059D01*
X145800090Y-115905060D01*
X145794207Y-115927017D01*
X145789612Y-115944167D01*
X145789612Y-115944168D01*
X145789611Y-115944167D01*
X145779503Y-115981895D01*
X145779502Y-115981900D01*
X145774500Y-116000565D01*
X145774500Y-118124436D01*
X145787277Y-118172123D01*
X145787291Y-118172173D01*
X145787295Y-118172186D01*
X145796566Y-118206788D01*
X145800091Y-118219940D01*
X145804693Y-118227910D01*
X145847832Y-118302630D01*
X145849526Y-118305563D01*
X146438181Y-118894218D01*
X146471666Y-118955541D01*
X146474500Y-118981899D01*
X146474500Y-119022475D01*
X146512016Y-119162485D01*
X146512017Y-119162488D01*
X146584488Y-119288011D01*
X146584490Y-119288013D01*
X146584491Y-119288015D01*
X146686985Y-119390509D01*
X146686986Y-119390510D01*
X146686988Y-119390511D01*
X146812511Y-119462982D01*
X146812512Y-119462982D01*
X146812515Y-119462984D01*
X146952525Y-119500500D01*
X146952528Y-119500500D01*
X147097472Y-119500500D01*
X147097475Y-119500500D01*
X147237485Y-119462984D01*
X147363015Y-119390509D01*
X147465509Y-119288015D01*
X147537984Y-119162485D01*
X147575500Y-119022475D01*
X147575500Y-118877525D01*
X147537984Y-118737515D01*
X147533933Y-118730499D01*
X147465511Y-118611988D01*
X147465506Y-118611982D01*
X147363017Y-118509493D01*
X147363011Y-118509488D01*
X147237488Y-118437017D01*
X147237489Y-118437017D01*
X147200672Y-118427152D01*
X147097475Y-118399500D01*
X147097472Y-118399500D01*
X147056900Y-118399500D01*
X146989861Y-118379815D01*
X146969219Y-118363181D01*
X146561819Y-117955781D01*
X146528334Y-117894458D01*
X146525500Y-117868100D01*
X146525500Y-116256899D01*
X146545185Y-116189860D01*
X146561819Y-116169218D01*
X147294218Y-115436819D01*
X147355541Y-115403334D01*
X147381899Y-115400500D01*
X147422472Y-115400500D01*
X147422475Y-115400500D01*
X147562485Y-115362984D01*
X147688015Y-115290509D01*
X147762819Y-115215705D01*
X147824142Y-115182220D01*
X147893834Y-115187204D01*
X147949767Y-115229076D01*
X147974184Y-115294540D01*
X147974500Y-115303386D01*
X147974500Y-120525500D01*
X147954815Y-120592539D01*
X147902011Y-120638294D01*
X147850500Y-120649500D01*
X142831899Y-120649500D01*
X142764860Y-120629815D01*
X142744218Y-120613181D01*
X140768218Y-118637181D01*
X140734733Y-118575858D01*
X140739717Y-118506166D01*
X140781589Y-118450233D01*
X140847053Y-118425816D01*
X140855899Y-118425500D01*
X141999435Y-118425500D01*
X141999436Y-118425500D01*
X142043659Y-118413649D01*
X142055510Y-118410475D01*
X142072892Y-118405817D01*
X142094938Y-118399910D01*
X142180562Y-118350475D01*
X142250475Y-118280562D01*
X146300474Y-114230563D01*
X146302234Y-114227515D01*
X146349910Y-114144938D01*
X146367796Y-114078186D01*
X146375500Y-114049436D01*
X146375500Y-113950564D01*
X146375500Y-108806939D01*
X146395185Y-108739900D01*
X146447989Y-108694145D01*
X146517147Y-108684201D01*
X146580703Y-108713226D01*
G37*
%TD.AperFunction*%
%TA.AperFunction,Conductor*%
G36*
X120605703Y-99343252D02*
G01*
X120612181Y-99349284D01*
X120763386Y-99500489D01*
X120763387Y-99500490D01*
X120763389Y-99500491D01*
X120822693Y-99534729D01*
X120822696Y-99534732D01*
X120856937Y-99554500D01*
X120866114Y-99559799D01*
X120980691Y-99590500D01*
X120980694Y-99590500D01*
X121471512Y-99590500D01*
X121471514Y-99590500D01*
X121546649Y-99570367D01*
X121562528Y-99566113D01*
X121562529Y-99566112D01*
X121586092Y-99559799D01*
X121647713Y-99524221D01*
X121709713Y-99507609D01*
X121901801Y-99507609D01*
X121963801Y-99524222D01*
X122025403Y-99559788D01*
X122025417Y-99559795D01*
X122025421Y-99559798D01*
X122025423Y-99559799D01*
X122140000Y-99590500D01*
X128802035Y-99590500D01*
X128869074Y-99610185D01*
X128889716Y-99626819D01*
X129363386Y-100100489D01*
X129466113Y-100159799D01*
X129490321Y-100166284D01*
X129490324Y-100166286D01*
X129490325Y-100166286D01*
X129520447Y-100174357D01*
X129580691Y-100190500D01*
X132132035Y-100190500D01*
X132199074Y-100210185D01*
X132219716Y-100226819D01*
X133083386Y-101090489D01*
X133122501Y-101113072D01*
X133138785Y-101122473D01*
X133138787Y-101122475D01*
X133138788Y-101122475D01*
X133186114Y-101149799D01*
X133300691Y-101180500D01*
X133300694Y-101180500D01*
X135679307Y-101180500D01*
X135679309Y-101180500D01*
X135765622Y-101157372D01*
X135783863Y-101152485D01*
X135783865Y-101152484D01*
X135793887Y-101149799D01*
X135793886Y-101149799D01*
X135801746Y-101147694D01*
X135801902Y-101148277D01*
X135841003Y-101140500D01*
X136075500Y-101140500D01*
X136142539Y-101160185D01*
X136188294Y-101212989D01*
X136199500Y-101264500D01*
X136199500Y-104185334D01*
X136179815Y-104252373D01*
X136127011Y-104298128D01*
X136057853Y-104308072D01*
X136043410Y-104305109D01*
X136022475Y-104299500D01*
X135877525Y-104299500D01*
X135748993Y-104333940D01*
X135737511Y-104337017D01*
X135611988Y-104409488D01*
X135611982Y-104409493D01*
X135509493Y-104511982D01*
X135509488Y-104511988D01*
X135437017Y-104637511D01*
X135437016Y-104637515D01*
X135399500Y-104777525D01*
X135399500Y-104922475D01*
X135437016Y-105062485D01*
X135482887Y-105141936D01*
X135499500Y-105203935D01*
X135499500Y-108085833D01*
X135479815Y-108152872D01*
X135463181Y-108173514D01*
X135433157Y-108203537D01*
X135433151Y-108203546D01*
X135385989Y-108285231D01*
X135335422Y-108333446D01*
X135266815Y-108346668D01*
X135231152Y-108337792D01*
X135199059Y-108324499D01*
X135199053Y-108324497D01*
X135073386Y-108299500D01*
X135073384Y-108299500D01*
X126670808Y-108299500D01*
X126603769Y-108279815D01*
X126583127Y-108263181D01*
X124337124Y-106017178D01*
X124303639Y-105955855D01*
X124300805Y-105929497D01*
X124300805Y-103636233D01*
X124275807Y-103510566D01*
X124275806Y-103510565D01*
X124275806Y-103510561D01*
X124241926Y-103428768D01*
X124226771Y-103392179D01*
X124165358Y-103300267D01*
X124155583Y-103285637D01*
X124155577Y-103285630D01*
X122714673Y-101844726D01*
X122711400Y-101842539D01*
X122608127Y-101773535D01*
X122583130Y-101763181D01*
X122489744Y-101724499D01*
X122489738Y-101724497D01*
X122364071Y-101699500D01*
X122364069Y-101699500D01*
X120524500Y-101699500D01*
X120457461Y-101679815D01*
X120411706Y-101627011D01*
X120400500Y-101575500D01*
X120400500Y-99436965D01*
X120420185Y-99369926D01*
X120472989Y-99324171D01*
X120542147Y-99314227D01*
X120605703Y-99343252D01*
G37*
%TD.AperFunction*%
%TA.AperFunction,Conductor*%
G36*
X112553039Y-56470185D02*
G01*
X112598794Y-56522989D01*
X112610000Y-56574500D01*
X112610000Y-62450000D01*
X126865005Y-62450000D01*
X126932044Y-62469685D01*
X126977799Y-62522489D01*
X126987743Y-62591647D01*
X126958718Y-62655203D01*
X126952686Y-62661681D01*
X125044438Y-64569930D01*
X124974526Y-64639841D01*
X124925091Y-64725464D01*
X124925091Y-64725465D01*
X124925090Y-64725467D01*
X124899500Y-64820970D01*
X124899500Y-64820972D01*
X124899500Y-66443406D01*
X124879815Y-66510445D01*
X124863181Y-66531087D01*
X124349526Y-67044741D01*
X124300091Y-67130364D01*
X124300091Y-67130365D01*
X124300090Y-67130367D01*
X124274500Y-67225870D01*
X124274500Y-67225872D01*
X124274500Y-69466496D01*
X124254815Y-69533535D01*
X124202011Y-69579290D01*
X124182595Y-69586270D01*
X124142020Y-69597142D01*
X124142013Y-69597145D01*
X124016490Y-69669616D01*
X124016484Y-69669621D01*
X123913995Y-69772110D01*
X123913990Y-69772116D01*
X123841519Y-69897639D01*
X123841518Y-69897643D01*
X123804002Y-70037653D01*
X123804002Y-70037655D01*
X123804002Y-70182601D01*
X123805063Y-70190659D01*
X123802578Y-70190986D01*
X123801211Y-70248262D01*
X123770783Y-70298178D01*
X121730782Y-72338181D01*
X121669459Y-72371666D01*
X121643101Y-72374500D01*
X121604386Y-72374500D01*
X121537347Y-72354815D01*
X121516705Y-72338181D01*
X121488017Y-72309493D01*
X121488011Y-72309488D01*
X121362488Y-72237017D01*
X121362489Y-72237017D01*
X121351006Y-72233940D01*
X121222475Y-72199500D01*
X121077525Y-72199500D01*
X120948993Y-72233940D01*
X120937511Y-72237017D01*
X120811988Y-72309488D01*
X120811982Y-72309493D01*
X120709493Y-72411982D01*
X120709488Y-72411988D01*
X120637017Y-72537511D01*
X120637016Y-72537515D01*
X120599500Y-72677525D01*
X120599500Y-72822475D01*
X120637016Y-72962485D01*
X120637017Y-72962488D01*
X120709488Y-73088011D01*
X120709490Y-73088013D01*
X120709491Y-73088015D01*
X120811985Y-73190509D01*
X120811986Y-73190510D01*
X120811988Y-73190511D01*
X120937511Y-73262982D01*
X120937512Y-73262982D01*
X120937515Y-73262984D01*
X121077525Y-73300500D01*
X121077528Y-73300500D01*
X121222472Y-73300500D01*
X121222475Y-73300500D01*
X121362485Y-73262984D01*
X121488015Y-73190509D01*
X121516705Y-73161819D01*
X121578028Y-73128334D01*
X121604386Y-73125500D01*
X121899434Y-73125500D01*
X121899436Y-73125500D01*
X121945684Y-73113107D01*
X121955458Y-73110489D01*
X121968617Y-73106962D01*
X121994938Y-73099910D01*
X122080562Y-73050475D01*
X122150475Y-72980562D01*
X122287819Y-72843218D01*
X122349142Y-72809733D01*
X122418834Y-72814717D01*
X122474767Y-72856589D01*
X122499184Y-72922053D01*
X122499500Y-72930899D01*
X122499500Y-76918137D01*
X122479815Y-76985176D01*
X122437504Y-77025522D01*
X122431489Y-77028994D01*
X122328994Y-77131490D01*
X122328992Y-77131492D01*
X122256521Y-77257015D01*
X122256520Y-77257019D01*
X122219004Y-77397029D01*
X122219004Y-77541979D01*
X122256520Y-77681989D01*
X122256521Y-77681992D01*
X122328992Y-77807515D01*
X122328994Y-77807517D01*
X122328995Y-77807519D01*
X122431489Y-77910013D01*
X122511119Y-77955987D01*
X122550350Y-77978638D01*
X122598566Y-78029205D01*
X122611788Y-78097812D01*
X122585820Y-78162677D01*
X122576031Y-78173706D01*
X119439438Y-81310301D01*
X119412181Y-81337558D01*
X119350858Y-81371043D01*
X119281166Y-81366059D01*
X119225233Y-81324187D01*
X119200816Y-81258723D01*
X119200500Y-81249877D01*
X119200500Y-76590693D01*
X119200500Y-76590691D01*
X119173654Y-76490500D01*
X119169799Y-76476113D01*
X119110489Y-76373386D01*
X118418822Y-75681719D01*
X118386728Y-75626131D01*
X118362984Y-75537515D01*
X118317904Y-75459435D01*
X118290511Y-75411988D01*
X118290506Y-75411982D01*
X118188017Y-75309493D01*
X118188011Y-75309488D01*
X118062488Y-75237017D01*
X118062489Y-75237017D01*
X118034282Y-75229459D01*
X117922475Y-75199500D01*
X117777525Y-75199500D01*
X117756592Y-75205108D01*
X117686743Y-75203446D01*
X117628881Y-75164283D01*
X117601377Y-75100055D01*
X117600500Y-75085334D01*
X117600500Y-69470808D01*
X117620185Y-69403769D01*
X117636819Y-69383127D01*
X118183127Y-68836819D01*
X118244450Y-68803334D01*
X118270808Y-68800500D01*
X119414071Y-68800500D01*
X119498615Y-68783682D01*
X119539744Y-68775501D01*
X119658127Y-68726465D01*
X119764669Y-68655276D01*
X119855276Y-68564669D01*
X119926465Y-68458127D01*
X119975501Y-68339744D01*
X120000500Y-68214069D01*
X120000500Y-68085931D01*
X120000500Y-68085928D01*
X119975502Y-67960261D01*
X119975501Y-67960260D01*
X119975501Y-67960256D01*
X119926465Y-67841873D01*
X119926464Y-67841872D01*
X119926461Y-67841866D01*
X119855276Y-67735331D01*
X119855273Y-67735327D01*
X119764672Y-67644726D01*
X119764668Y-67644723D01*
X119658133Y-67573538D01*
X119658124Y-67573533D01*
X119539744Y-67524499D01*
X119539738Y-67524497D01*
X119414071Y-67499500D01*
X119414069Y-67499500D01*
X117885931Y-67499500D01*
X117885929Y-67499500D01*
X117760261Y-67524497D01*
X117760251Y-67524500D01*
X117711220Y-67544810D01*
X117641881Y-67573530D01*
X117641863Y-67573540D01*
X117535332Y-67644721D01*
X117535325Y-67644727D01*
X116444727Y-68735325D01*
X116444721Y-68735332D01*
X116378269Y-68834786D01*
X116378270Y-68834787D01*
X116373533Y-68841875D01*
X116324499Y-68960255D01*
X116324497Y-68960261D01*
X116299500Y-69085928D01*
X116299500Y-77629191D01*
X116279815Y-77696230D01*
X116263181Y-77716872D01*
X115624727Y-78355325D01*
X115624724Y-78355328D01*
X115559780Y-78452526D01*
X115553536Y-78461871D01*
X115504499Y-78580255D01*
X115504497Y-78580261D01*
X115479500Y-78705928D01*
X115479500Y-84090714D01*
X115459815Y-84157753D01*
X115443181Y-84178395D01*
X115011084Y-84610491D01*
X115011083Y-84610492D01*
X114939891Y-84717040D01*
X114890856Y-84835421D01*
X114890854Y-84835429D01*
X114865858Y-84961092D01*
X114865858Y-85089239D01*
X114890854Y-85214902D01*
X114890856Y-85214910D01*
X114938904Y-85330909D01*
X114939892Y-85333293D01*
X115001359Y-85425286D01*
X115011083Y-85439839D01*
X115101683Y-85530439D01*
X115101686Y-85530441D01*
X115101688Y-85530443D01*
X115208230Y-85601631D01*
X115326613Y-85650667D01*
X115399692Y-85665203D01*
X115461602Y-85697587D01*
X115496176Y-85758302D01*
X115499500Y-85786820D01*
X115499500Y-90214071D01*
X115519564Y-90314935D01*
X115519564Y-90314936D01*
X115524497Y-90339737D01*
X115524498Y-90339741D01*
X115524499Y-90339744D01*
X115573535Y-90458127D01*
X115636592Y-90552500D01*
X115644726Y-90564673D01*
X115644727Y-90564674D01*
X119063181Y-93983127D01*
X119096666Y-94044450D01*
X119099500Y-94070808D01*
X119099500Y-101775500D01*
X119079815Y-101842539D01*
X119027011Y-101888294D01*
X118975500Y-101899500D01*
X115461268Y-101899500D01*
X115394229Y-101879815D01*
X115348474Y-101827011D01*
X115338530Y-101757853D01*
X115341490Y-101743419D01*
X115360500Y-101672475D01*
X115360500Y-101527525D01*
X115322984Y-101387515D01*
X115322941Y-101387441D01*
X115250511Y-101261988D01*
X115250506Y-101261982D01*
X115148017Y-101159493D01*
X115148011Y-101159488D01*
X115022488Y-101087017D01*
X115022489Y-101087017D01*
X115011006Y-101083940D01*
X114882475Y-101049500D01*
X114737525Y-101049500D01*
X114722294Y-101053581D01*
X114652444Y-101051916D01*
X114602523Y-101021486D01*
X113530563Y-99949526D01*
X113530562Y-99949525D01*
X113462463Y-99910208D01*
X113444940Y-99900091D01*
X113444939Y-99900090D01*
X113357993Y-99876793D01*
X113357993Y-99876792D01*
X113357990Y-99876792D01*
X113349437Y-99874500D01*
X113349436Y-99874500D01*
X113349435Y-99874500D01*
X110604386Y-99874500D01*
X110537347Y-99854815D01*
X110516705Y-99838181D01*
X110488017Y-99809493D01*
X110488011Y-99809488D01*
X110362488Y-99737017D01*
X110362489Y-99737017D01*
X110351006Y-99733940D01*
X110222475Y-99699500D01*
X110077525Y-99699500D01*
X109948993Y-99733940D01*
X109937511Y-99737017D01*
X109811988Y-99809488D01*
X109811982Y-99809493D01*
X109709493Y-99911982D01*
X109709488Y-99911988D01*
X109637017Y-100037511D01*
X109637016Y-100037515D01*
X109599500Y-100177525D01*
X109599500Y-100177527D01*
X109599500Y-100218101D01*
X109579815Y-100285140D01*
X109563181Y-100305782D01*
X109327181Y-100541782D01*
X109265858Y-100575267D01*
X109196166Y-100570283D01*
X109140233Y-100528411D01*
X109115816Y-100462947D01*
X109115500Y-100454101D01*
X109115500Y-97567525D01*
X112089500Y-97567525D01*
X112089500Y-97712475D01*
X112123240Y-97838393D01*
X112127017Y-97852488D01*
X112199488Y-97978011D01*
X112199490Y-97978013D01*
X112199491Y-97978015D01*
X112301985Y-98080509D01*
X112301986Y-98080510D01*
X112301988Y-98080511D01*
X112427511Y-98152982D01*
X112427512Y-98152982D01*
X112427515Y-98152984D01*
X112567525Y-98190500D01*
X112567528Y-98190500D01*
X112712472Y-98190500D01*
X112712475Y-98190500D01*
X112852485Y-98152984D01*
X112978015Y-98080509D01*
X113080509Y-97978015D01*
X113152984Y-97852485D01*
X113190500Y-97712475D01*
X113190500Y-97567525D01*
X113152984Y-97427515D01*
X113095029Y-97327135D01*
X114699500Y-97327135D01*
X114699500Y-98672870D01*
X114699501Y-98672876D01*
X114705908Y-98732483D01*
X114756202Y-98867328D01*
X114756206Y-98867335D01*
X114842452Y-98982544D01*
X114842455Y-98982547D01*
X114957664Y-99068793D01*
X114957671Y-99068797D01*
X115092517Y-99119091D01*
X115092516Y-99119091D01*
X115099444Y-99119835D01*
X115152127Y-99125500D01*
X115947872Y-99125499D01*
X116007483Y-99119091D01*
X116142331Y-99068796D01*
X116257546Y-98982546D01*
X116343796Y-98867331D01*
X116394091Y-98732483D01*
X116400500Y-98672873D01*
X116400499Y-97641228D01*
X116699500Y-97641228D01*
X116699500Y-98358771D01*
X116732182Y-98523074D01*
X116732184Y-98523082D01*
X116796295Y-98677860D01*
X116889373Y-98817162D01*
X117007837Y-98935626D01*
X117065072Y-98973869D01*
X117147137Y-99028703D01*
X117301918Y-99092816D01*
X117466223Y-99125498D01*
X117466228Y-99125499D01*
X117466232Y-99125500D01*
X117466233Y-99125500D01*
X117633768Y-99125500D01*
X117633769Y-99125499D01*
X117798082Y-99092816D01*
X117952863Y-99028703D01*
X118092162Y-98935626D01*
X118210626Y-98817162D01*
X118303703Y-98677863D01*
X118367816Y-98523082D01*
X118400500Y-98358767D01*
X118400500Y-97641233D01*
X118367816Y-97476918D01*
X118305771Y-97327129D01*
X118303704Y-97322139D01*
X118289245Y-97300500D01*
X118267206Y-97267516D01*
X118210626Y-97182837D01*
X118092162Y-97064373D01*
X117952860Y-96971295D01*
X117798082Y-96907184D01*
X117798074Y-96907182D01*
X117633771Y-96874500D01*
X117633767Y-96874500D01*
X117466233Y-96874500D01*
X117466228Y-96874500D01*
X117301925Y-96907182D01*
X117301917Y-96907184D01*
X117147139Y-96971295D01*
X117007837Y-97064373D01*
X116889373Y-97182837D01*
X116796295Y-97322139D01*
X116732184Y-97476917D01*
X116732182Y-97476925D01*
X116699500Y-97641228D01*
X116400499Y-97641228D01*
X116400499Y-97327128D01*
X116395299Y-97278757D01*
X116394091Y-97267516D01*
X116343797Y-97132671D01*
X116343793Y-97132664D01*
X116257547Y-97017455D01*
X116257544Y-97017452D01*
X116142335Y-96931206D01*
X116142328Y-96931202D01*
X116007482Y-96880908D01*
X116007483Y-96880908D01*
X115947883Y-96874501D01*
X115947881Y-96874500D01*
X115947873Y-96874500D01*
X115947864Y-96874500D01*
X115152129Y-96874500D01*
X115152123Y-96874501D01*
X115092516Y-96880908D01*
X114957671Y-96931202D01*
X114957664Y-96931206D01*
X114842455Y-97017452D01*
X114842452Y-97017455D01*
X114756206Y-97132664D01*
X114756202Y-97132671D01*
X114705908Y-97267517D01*
X114700036Y-97322139D01*
X114699501Y-97327123D01*
X114699500Y-97327135D01*
X113095029Y-97327135D01*
X113080509Y-97301985D01*
X113015692Y-97237168D01*
X113010483Y-97230258D01*
X113001092Y-97205337D01*
X112988334Y-97181972D01*
X112986755Y-97167289D01*
X112985846Y-97164876D01*
X112986278Y-97162855D01*
X112985500Y-97155614D01*
X112985500Y-93477726D01*
X113005185Y-93410687D01*
X113055480Y-93367105D01*
X113055447Y-93367048D01*
X113055746Y-93366874D01*
X113057989Y-93364932D01*
X113062057Y-93363161D01*
X113062476Y-93362986D01*
X113062485Y-93362984D01*
X113188015Y-93290509D01*
X113290509Y-93188015D01*
X113362984Y-93062485D01*
X113400500Y-92922475D01*
X113400500Y-92777525D01*
X113362984Y-92637515D01*
X113357683Y-92628334D01*
X113290511Y-92511988D01*
X113290506Y-92511982D01*
X113188017Y-92409493D01*
X113188011Y-92409488D01*
X113062488Y-92337017D01*
X113062489Y-92337017D01*
X113051006Y-92333940D01*
X112922475Y-92299500D01*
X112777525Y-92299500D01*
X112648993Y-92333940D01*
X112637511Y-92337017D01*
X112511988Y-92409488D01*
X112511982Y-92409493D01*
X112409493Y-92511982D01*
X112409488Y-92511988D01*
X112337017Y-92637511D01*
X112337016Y-92637515D01*
X112299500Y-92777525D01*
X112299500Y-92777527D01*
X112299500Y-92843576D01*
X112282887Y-92905576D01*
X112260091Y-92945059D01*
X112260091Y-92945060D01*
X112260090Y-92945062D01*
X112234500Y-93040565D01*
X112234500Y-93040567D01*
X112234500Y-97215614D01*
X112214815Y-97282653D01*
X112204433Y-97295535D01*
X112204438Y-97295539D01*
X112199488Y-97301988D01*
X112127017Y-97427511D01*
X112127016Y-97427515D01*
X112089500Y-97567525D01*
X109115500Y-97567525D01*
X109115500Y-90086108D01*
X110449500Y-90086108D01*
X110449500Y-90217891D01*
X110483608Y-90345187D01*
X110515544Y-90400500D01*
X110549500Y-90459314D01*
X110642686Y-90552500D01*
X110756814Y-90618392D01*
X110884108Y-90652500D01*
X110884110Y-90652500D01*
X111015890Y-90652500D01*
X111015892Y-90652500D01*
X111143186Y-90618392D01*
X111257314Y-90552500D01*
X111350500Y-90459314D01*
X111416392Y-90345186D01*
X111450500Y-90217892D01*
X111450500Y-90086108D01*
X111416392Y-89958814D01*
X111350500Y-89844686D01*
X111257314Y-89751500D01*
X111168980Y-89700500D01*
X111143187Y-89685608D01*
X111058751Y-89662984D01*
X111015892Y-89651500D01*
X110884108Y-89651500D01*
X110756812Y-89685608D01*
X110642686Y-89751500D01*
X110642683Y-89751502D01*
X110549502Y-89844683D01*
X110549500Y-89844686D01*
X110483608Y-89958812D01*
X110449500Y-90086108D01*
X109115500Y-90086108D01*
X109115500Y-84666899D01*
X109135185Y-84599860D01*
X109151819Y-84579218D01*
X109153512Y-84577525D01*
X111299500Y-84577525D01*
X111299500Y-84722475D01*
X111337016Y-84862485D01*
X111337017Y-84862488D01*
X111409488Y-84988011D01*
X111409490Y-84988013D01*
X111409491Y-84988015D01*
X111511985Y-85090509D01*
X111511986Y-85090510D01*
X111511988Y-85090511D01*
X111637511Y-85162982D01*
X111637512Y-85162982D01*
X111637515Y-85162984D01*
X111777525Y-85200500D01*
X111818101Y-85200500D01*
X111885140Y-85220185D01*
X111905782Y-85236819D01*
X112438181Y-85769218D01*
X112471666Y-85830541D01*
X112474500Y-85856899D01*
X112474500Y-89320613D01*
X112454815Y-89387652D01*
X112438182Y-89408294D01*
X112334488Y-89511988D01*
X112262017Y-89637511D01*
X112262016Y-89637515D01*
X112224500Y-89777525D01*
X112224500Y-89922475D01*
X112262016Y-90062485D01*
X112262017Y-90062488D01*
X112334488Y-90188011D01*
X112334490Y-90188013D01*
X112334491Y-90188015D01*
X112436985Y-90290509D01*
X112436986Y-90290510D01*
X112436988Y-90290511D01*
X112562511Y-90362982D01*
X112562512Y-90362982D01*
X112562515Y-90362984D01*
X112702525Y-90400500D01*
X112702528Y-90400500D01*
X112847472Y-90400500D01*
X112847475Y-90400500D01*
X112987485Y-90362984D01*
X113113015Y-90290509D01*
X113215509Y-90188015D01*
X113287984Y-90062485D01*
X113325500Y-89922475D01*
X113325500Y-89777525D01*
X113287984Y-89637515D01*
X113286698Y-89635288D01*
X113242113Y-89558062D01*
X113225500Y-89496063D01*
X113225500Y-85600566D01*
X113225500Y-85600565D01*
X113219856Y-85579500D01*
X113199911Y-85505063D01*
X113150475Y-85419438D01*
X112436819Y-84705782D01*
X112403334Y-84644459D01*
X112400500Y-84618101D01*
X112400500Y-84577527D01*
X112400500Y-84577525D01*
X112362984Y-84437515D01*
X112316930Y-84357748D01*
X112290511Y-84311988D01*
X112290506Y-84311982D01*
X112188017Y-84209493D01*
X112188011Y-84209488D01*
X112062488Y-84137017D01*
X112062489Y-84137017D01*
X112051006Y-84133940D01*
X111922475Y-84099500D01*
X111777525Y-84099500D01*
X111648993Y-84133940D01*
X111637511Y-84137017D01*
X111511988Y-84209488D01*
X111511982Y-84209493D01*
X111409493Y-84311982D01*
X111409488Y-84311988D01*
X111337017Y-84437511D01*
X111337016Y-84437515D01*
X111299500Y-84577525D01*
X109153512Y-84577525D01*
X111409218Y-82321819D01*
X111470541Y-82288334D01*
X111496899Y-82285500D01*
X113418045Y-82285500D01*
X113485084Y-82305185D01*
X113516420Y-82334012D01*
X113519489Y-82338012D01*
X113519491Y-82338015D01*
X113621985Y-82440509D01*
X113621986Y-82440510D01*
X113621988Y-82440511D01*
X113747511Y-82512982D01*
X113747512Y-82512982D01*
X113747515Y-82512984D01*
X113887525Y-82550500D01*
X113887528Y-82550500D01*
X114032472Y-82550500D01*
X114032475Y-82550500D01*
X114172485Y-82512984D01*
X114298015Y-82440509D01*
X114400509Y-82338015D01*
X114472984Y-82212485D01*
X114510500Y-82072475D01*
X114510500Y-81927525D01*
X114472984Y-81787515D01*
X114454506Y-81755511D01*
X114400511Y-81661988D01*
X114400506Y-81661982D01*
X114298017Y-81559493D01*
X114298015Y-81559491D01*
X114295318Y-81557934D01*
X114244729Y-81528725D01*
X114196514Y-81478158D01*
X114183292Y-81409551D01*
X114209260Y-81344686D01*
X114244730Y-81313952D01*
X114268015Y-81300509D01*
X114370509Y-81198015D01*
X114442984Y-81072485D01*
X114480500Y-80932475D01*
X114480500Y-80787525D01*
X114442984Y-80647515D01*
X114398524Y-80570509D01*
X114370511Y-80521988D01*
X114370506Y-80521982D01*
X114268017Y-80419493D01*
X114268011Y-80419488D01*
X114142488Y-80347017D01*
X114142489Y-80347017D01*
X114125575Y-80342485D01*
X114002475Y-80309500D01*
X113857525Y-80309500D01*
X113734425Y-80342485D01*
X113717511Y-80347017D01*
X113591988Y-80419488D01*
X113591982Y-80419493D01*
X113563295Y-80448181D01*
X113501972Y-80481666D01*
X113475614Y-80484500D01*
X111270564Y-80484500D01*
X111175063Y-80510089D01*
X111175060Y-80510090D01*
X111089440Y-80559522D01*
X111089435Y-80559526D01*
X107962181Y-83686781D01*
X107900858Y-83720266D01*
X107831166Y-83715282D01*
X107775233Y-83673410D01*
X107750816Y-83607946D01*
X107750500Y-83599100D01*
X107750500Y-71299038D01*
X109449500Y-71299038D01*
X109449500Y-71550961D01*
X109488910Y-71799785D01*
X109566760Y-72039383D01*
X109637148Y-72177525D01*
X109671252Y-72244459D01*
X109681132Y-72263848D01*
X109829201Y-72467649D01*
X109829205Y-72467654D01*
X110007345Y-72645794D01*
X110007350Y-72645798D01*
X110168641Y-72762982D01*
X110211155Y-72793870D01*
X110334248Y-72856589D01*
X110435616Y-72908239D01*
X110435618Y-72908239D01*
X110435621Y-72908241D01*
X110675215Y-72986090D01*
X110924038Y-73025500D01*
X110924039Y-73025500D01*
X111175961Y-73025500D01*
X111175962Y-73025500D01*
X111424785Y-72986090D01*
X111664379Y-72908241D01*
X111888845Y-72793870D01*
X112092656Y-72645793D01*
X112270793Y-72467656D01*
X112418870Y-72263845D01*
X112533241Y-72039379D01*
X112611090Y-71799785D01*
X112650500Y-71550962D01*
X112650500Y-71299038D01*
X112611090Y-71050215D01*
X112533241Y-70810621D01*
X112533239Y-70810618D01*
X112533239Y-70810616D01*
X112491747Y-70729184D01*
X112418870Y-70586155D01*
X112399952Y-70560117D01*
X112270798Y-70382350D01*
X112270794Y-70382345D01*
X112092654Y-70204205D01*
X112092649Y-70204201D01*
X111888848Y-70056132D01*
X111888847Y-70056131D01*
X111888845Y-70056130D01*
X111811922Y-70016936D01*
X111664383Y-69941760D01*
X111424785Y-69863910D01*
X111417070Y-69862688D01*
X111175962Y-69824500D01*
X110924038Y-69824500D01*
X110799626Y-69844205D01*
X110675214Y-69863910D01*
X110435616Y-69941760D01*
X110211151Y-70056132D01*
X110007350Y-70204201D01*
X110007345Y-70204205D01*
X109829205Y-70382345D01*
X109829201Y-70382350D01*
X109681132Y-70586151D01*
X109566760Y-70810616D01*
X109488910Y-71050214D01*
X109449500Y-71299038D01*
X107750500Y-71299038D01*
X107750500Y-56574500D01*
X107770185Y-56507461D01*
X107822989Y-56461706D01*
X107874500Y-56450500D01*
X112486000Y-56450500D01*
X112553039Y-56470185D01*
G37*
%TD.AperFunction*%
%TD*%
%TA.AperFunction,Conductor*%
%TO.N,+5V*%
G36*
X145493039Y-132969685D02*
G01*
X145538794Y-133022489D01*
X145550000Y-133074000D01*
X145550000Y-134826000D01*
X145530315Y-134893039D01*
X145477511Y-134938794D01*
X145426000Y-134950000D01*
X143474000Y-134950000D01*
X143406961Y-134930315D01*
X143361206Y-134877511D01*
X143350000Y-134826000D01*
X143350000Y-133074000D01*
X143369685Y-133006961D01*
X143422489Y-132961206D01*
X143474000Y-132950000D01*
X145426000Y-132950000D01*
X145493039Y-132969685D01*
G37*
%TD.AperFunction*%
%TD*%
M02*
