%TF.GenerationSoftware,KiCad,Pcbnew,10.0.5*%
%TF.CreationDate,2026-07-26T05:11:30-04:00*%
%TF.ProjectId,smart-doorbell,736d6172-742d-4646-9f6f-7262656c6c2e,C*%
%TF.SameCoordinates,Original*%
%TF.FileFunction,Paste,Top*%
%TF.FilePolarity,Positive*%
%FSLAX46Y46*%
G04 Gerber Fmt 4.6, Leading zero omitted, Abs format (unit mm)*
G04 Created by KiCad (PCBNEW 10.0.5) date 2026-07-26 05:11:30*
%MOMM*%
%LPD*%
G01*
G04 APERTURE LIST*
G04 Aperture macros list*
%AMRoundRect*
0 Rectangle with rounded corners*
0 $1 Rounding radius*
0 $2 $3 $4 $5 $6 $7 $8 $9 X,Y pos of 4 corners*
0 Add a 4 corners polygon primitive as box body*
4,1,4,$2,$3,$4,$5,$6,$7,$8,$9,$2,$3,0*
0 Add four circle primitives for the rounded corners*
1,1,$1+$1,$2,$3*
1,1,$1+$1,$4,$5*
1,1,$1+$1,$6,$7*
1,1,$1+$1,$8,$9*
0 Add four rect primitives between the rounded corners*
20,1,$1+$1,$2,$3,$4,$5,0*
20,1,$1+$1,$4,$5,$6,$7,0*
20,1,$1+$1,$6,$7,$8,$9,0*
20,1,$1+$1,$8,$9,$2,$3,0*%
G04 Aperture macros list end*
%ADD10C,0.000000*%
%ADD11RoundRect,0.225000X-0.250000X0.225000X-0.250000X-0.225000X0.250000X-0.225000X0.250000X0.225000X0*%
%ADD12RoundRect,0.200000X-0.200000X-0.275000X0.200000X-0.275000X0.200000X0.275000X-0.200000X0.275000X0*%
%ADD13RoundRect,0.225000X0.225000X0.250000X-0.225000X0.250000X-0.225000X-0.250000X0.225000X-0.250000X0*%
%ADD14RoundRect,0.225000X-0.225000X-0.250000X0.225000X-0.250000X0.225000X0.250000X-0.225000X0.250000X0*%
%ADD15RoundRect,0.200000X0.200000X0.275000X-0.200000X0.275000X-0.200000X-0.275000X0.200000X-0.275000X0*%
%ADD16RoundRect,0.225000X0.250000X-0.225000X0.250000X0.225000X-0.250000X0.225000X-0.250000X-0.225000X0*%
%ADD17RoundRect,0.200000X-0.275000X0.200000X-0.275000X-0.200000X0.275000X-0.200000X0.275000X0.200000X0*%
%ADD18RoundRect,0.200000X0.275000X-0.200000X0.275000X0.200000X-0.275000X0.200000X-0.275000X-0.200000X0*%
%ADD19RoundRect,0.050000X0.250000X-0.200000X0.250000X0.200000X-0.250000X0.200000X-0.250000X-0.200000X0*%
%ADD20RoundRect,0.062500X0.062500X-0.387500X0.062500X0.387500X-0.062500X0.387500X-0.062500X-0.387500X0*%
%ADD21RoundRect,0.150000X0.512500X0.150000X-0.512500X0.150000X-0.512500X-0.150000X0.512500X-0.150000X0*%
%ADD22R,0.900000X1.700000*%
%ADD23R,0.300000X1.300000*%
%ADD24R,1.800000X2.200000*%
%ADD25RoundRect,0.150000X-0.150000X-0.575000X0.150000X-0.575000X0.150000X0.575000X-0.150000X0.575000X0*%
%ADD26RoundRect,0.075000X-0.075000X-0.650000X0.075000X-0.650000X0.075000X0.650000X-0.075000X0.650000X0*%
%ADD27RoundRect,0.087500X-0.425000X-0.087500X0.425000X-0.087500X0.425000X0.087500X-0.425000X0.087500X0*%
%ADD28RoundRect,0.250000X-0.255000X-0.255000X0.255000X-0.255000X0.255000X0.255000X-0.255000X0.255000X0*%
%ADD29RoundRect,0.062500X-0.350000X-0.062500X0.350000X-0.062500X0.350000X0.062500X-0.350000X0.062500X0*%
%ADD30RoundRect,0.062500X-0.062500X-0.350000X0.062500X-0.350000X0.062500X0.350000X-0.062500X0.350000X0*%
%ADD31RoundRect,0.218750X0.256250X-0.218750X0.256250X0.218750X-0.256250X0.218750X-0.256250X-0.218750X0*%
%ADD32R,0.900000X0.900000*%
%ADD33R,1.500000X0.900000*%
%ADD34R,0.900000X1.500000*%
%ADD35RoundRect,0.250000X0.375000X0.850000X-0.375000X0.850000X-0.375000X-0.850000X0.375000X-0.850000X0*%
%ADD36RoundRect,0.096000X-0.144000X-0.144000X0.144000X-0.144000X0.144000X0.144000X-0.144000X0.144000X0*%
G04 APERTURE END LIST*
%TO.C,MK1*%
G36*
X109800000Y-87867000D02*
G01*
X110300000Y-87867000D01*
X110300000Y-88289000D01*
X109800000Y-88289000D01*
X109800000Y-87867000D01*
G37*
G36*
X109800000Y-88689000D02*
G01*
X110300000Y-88689000D01*
X110300000Y-89111000D01*
X109800000Y-89111000D01*
X109800000Y-88689000D01*
G37*
G36*
X110700000Y-87867000D02*
G01*
X111200000Y-87867000D01*
X111200000Y-88289000D01*
X110700000Y-88289000D01*
X110700000Y-87867000D01*
G37*
G36*
X111600000Y-88689000D02*
G01*
X112100000Y-88689000D01*
X112100000Y-89111000D01*
X111600000Y-89111000D01*
X111600000Y-88689000D01*
G37*
G36*
X111600000Y-87867000D02*
G01*
X112100000Y-87867000D01*
X112100000Y-88289000D01*
X111600000Y-88289000D01*
X111600000Y-87867000D01*
G37*
D10*
G36*
X110900000Y-89591700D02*
G01*
X110790200Y-89612700D01*
X110686800Y-89654900D01*
X110593700Y-89716700D01*
X110514700Y-89795700D01*
X110452900Y-89888800D01*
X110410700Y-89992200D01*
X110389700Y-90102000D01*
X110139000Y-90102000D01*
X110166600Y-89936500D01*
X110227500Y-89780300D01*
X110319200Y-89639800D01*
X110437800Y-89521200D01*
X110578300Y-89429500D01*
X110734500Y-89368600D01*
X110900000Y-89341000D01*
X110900000Y-89591700D01*
G37*
G36*
X110410700Y-90311800D02*
G01*
X110452900Y-90415200D01*
X110514700Y-90508300D01*
X110593700Y-90587300D01*
X110686800Y-90649100D01*
X110790200Y-90691300D01*
X110900000Y-90712300D01*
X110900000Y-90963000D01*
X110734500Y-90935400D01*
X110578300Y-90874500D01*
X110437800Y-90782800D01*
X110319200Y-90664200D01*
X110227500Y-90523700D01*
X110166600Y-90367500D01*
X110139000Y-90202000D01*
X110389700Y-90202000D01*
X110410700Y-90311800D01*
G37*
G36*
X111165500Y-89368600D02*
G01*
X111321700Y-89429500D01*
X111462200Y-89521200D01*
X111580800Y-89639800D01*
X111672500Y-89780300D01*
X111733400Y-89936500D01*
X111761000Y-90102000D01*
X111510300Y-90102000D01*
X111489300Y-89992200D01*
X111447100Y-89888800D01*
X111385300Y-89795700D01*
X111306300Y-89716700D01*
X111213200Y-89654900D01*
X111109800Y-89612700D01*
X111000000Y-89591700D01*
X111000000Y-89341000D01*
X111165500Y-89368600D01*
G37*
G36*
X111733400Y-90367500D02*
G01*
X111672500Y-90523700D01*
X111580800Y-90664200D01*
X111462200Y-90782800D01*
X111321700Y-90874500D01*
X111165500Y-90935400D01*
X111000000Y-90963000D01*
X111000000Y-90712300D01*
X111109800Y-90691300D01*
X111213200Y-90649100D01*
X111306300Y-90587300D01*
X111385300Y-90508300D01*
X111447100Y-90415200D01*
X111489300Y-90311800D01*
X111510300Y-90202000D01*
X111761000Y-90202000D01*
X111733400Y-90367500D01*
G37*
%TD*%
D11*
%TO.C,C35*%
X124750000Y-109500000D03*
X124750000Y-111050000D03*
%TD*%
D12*
%TO.C,R12*%
X151700000Y-112850000D03*
X153350000Y-112850000D03*
%TD*%
D13*
%TO.C,C34*%
X155125000Y-115450000D03*
X153575000Y-115450000D03*
%TD*%
D14*
%TO.C,C1*%
X120659799Y-66398577D03*
X122209799Y-66398577D03*
%TD*%
D13*
%TO.C,C32*%
X149425000Y-105300000D03*
X147875000Y-105300000D03*
%TD*%
D15*
%TO.C,R18*%
X126350000Y-95450000D03*
X124700000Y-95450000D03*
%TD*%
D12*
%TO.C,R30*%
X158355000Y-83400000D03*
X160005000Y-83400000D03*
%TD*%
D16*
%TO.C,C9*%
X138480000Y-98500000D03*
X138480000Y-96950000D03*
%TD*%
%TO.C,C13*%
X163750000Y-113725000D03*
X163750000Y-112175000D03*
%TD*%
D12*
%TO.C,R10*%
X143025000Y-139650000D03*
X144675000Y-139650000D03*
%TD*%
D14*
%TO.C,C14*%
X120025000Y-79150000D03*
X121575000Y-79150000D03*
%TD*%
D11*
%TO.C,C15*%
X129900000Y-107065000D03*
X129900000Y-108615000D03*
%TD*%
D12*
%TO.C,R5*%
X136100000Y-129100000D03*
X137750000Y-129100000D03*
%TD*%
%TO.C,R14*%
X133525000Y-98430000D03*
X135175000Y-98430000D03*
%TD*%
D17*
%TO.C,R23*%
X150950000Y-108650000D03*
X150950000Y-110300000D03*
%TD*%
D18*
%TO.C,R20*%
X126650000Y-94050000D03*
X126650000Y-92400000D03*
%TD*%
D12*
%TO.C,R1*%
X119950000Y-77550000D03*
X121600000Y-77550000D03*
%TD*%
D17*
%TO.C,R11*%
X143520000Y-97435000D03*
X143520000Y-99085000D03*
%TD*%
D13*
%TO.C,C18*%
X141950000Y-103100000D03*
X140400000Y-103100000D03*
%TD*%
D12*
%TO.C,R40*%
X115995000Y-121900000D03*
X117645000Y-121900000D03*
%TD*%
D19*
%TO.C,U8*%
X151425000Y-106150000D03*
X152075000Y-106150000D03*
D20*
X150750000Y-107150000D03*
X151250000Y-107150000D03*
X151750000Y-107150000D03*
X152250000Y-107150000D03*
X152750000Y-107150000D03*
X152750000Y-105150000D03*
X152250000Y-105150000D03*
X151750000Y-105150000D03*
X151250000Y-105150000D03*
X150750000Y-105150000D03*
%TD*%
D14*
%TO.C,C22*%
X133585000Y-96860000D03*
X135135000Y-96860000D03*
%TD*%
D18*
%TO.C,R16*%
X148350000Y-94250000D03*
X148350000Y-92600000D03*
%TD*%
D21*
%TO.C,U5*%
X137950000Y-136900000D03*
X137950000Y-135950000D03*
X137950000Y-135000000D03*
X135675000Y-135000000D03*
X135675000Y-135950000D03*
X135675000Y-136900000D03*
%TD*%
D22*
%TO.C,BOOT1*%
X118650000Y-70050000D03*
X122050000Y-70050000D03*
%TD*%
D11*
%TO.C,C17*%
X138850000Y-107100000D03*
X138850000Y-108650000D03*
%TD*%
D15*
%TO.C,R6*%
X130800000Y-139750000D03*
X129150000Y-139750000D03*
%TD*%
D21*
%TO.C,U6*%
X132987500Y-106720000D03*
X132987500Y-104820000D03*
X130712500Y-105770000D03*
%TD*%
D12*
%TO.C,R17*%
X146550000Y-95850000D03*
X148200000Y-95850000D03*
%TD*%
%TO.C,R28*%
X143800000Y-117550000D03*
X145450000Y-117550000D03*
%TD*%
D15*
%TO.C,R32*%
X112995000Y-107840000D03*
X111345000Y-107840000D03*
%TD*%
D13*
%TO.C,C33*%
X155125000Y-117100000D03*
X153575000Y-117100000D03*
%TD*%
D16*
%TO.C,C5*%
X114150000Y-90150000D03*
X114150000Y-88600000D03*
%TD*%
D23*
%TO.C,J3*%
X142350000Y-93800000D03*
X141850000Y-93800000D03*
X141350000Y-93800000D03*
X140850000Y-93800000D03*
X140350000Y-93800000D03*
X139850000Y-93800000D03*
X139350000Y-93800000D03*
X138850000Y-93800000D03*
X138350000Y-93800000D03*
X137850000Y-93800000D03*
X137350000Y-93800000D03*
X136850000Y-93800000D03*
X136350000Y-93800000D03*
X135850000Y-93800000D03*
X135350000Y-93800000D03*
X134850000Y-93800000D03*
X134350000Y-93800000D03*
X133850000Y-93800000D03*
X133350000Y-93800000D03*
X132850000Y-93800000D03*
X132350000Y-93800000D03*
X131850000Y-93800000D03*
X131350000Y-93800000D03*
X130850000Y-93800000D03*
D24*
X144250000Y-90550000D03*
X128950000Y-90550000D03*
%TD*%
D14*
%TO.C,C11*%
X115900000Y-111600000D03*
X117450000Y-111600000D03*
%TD*%
D16*
%TO.C,C19*%
X156850000Y-94900000D03*
X156850000Y-93350000D03*
%TD*%
D12*
%TO.C,R27*%
X143825000Y-119050000D03*
X145475000Y-119050000D03*
%TD*%
D18*
%TO.C,R24*%
X145350000Y-109625000D03*
X145350000Y-107975000D03*
%TD*%
D25*
%TO.C,J2*%
X133600000Y-139405000D03*
X134400000Y-139405000D03*
D26*
X135600000Y-139405000D03*
X136600000Y-139405000D03*
X137100000Y-139405000D03*
X138100000Y-139405000D03*
D25*
X139300000Y-139405000D03*
X140100000Y-139405000D03*
X140100000Y-139405000D03*
X139300000Y-139405000D03*
D26*
X138600000Y-139405000D03*
X137600000Y-139405000D03*
X136100000Y-139405000D03*
X135100000Y-139405000D03*
D25*
X134400000Y-139405000D03*
X133600000Y-139405000D03*
%TD*%
D13*
%TO.C,C31*%
X145425000Y-116050000D03*
X143875000Y-116050000D03*
%TD*%
D27*
%TO.C,U9*%
X125912500Y-112350000D03*
X125912500Y-113000000D03*
X125912500Y-113650000D03*
X127587500Y-113650000D03*
X127587500Y-113000000D03*
X127587500Y-112350000D03*
%TD*%
D28*
%TO.C,U2*%
X149312500Y-117225000D03*
X149312500Y-118475000D03*
X150562500Y-117225000D03*
X150562500Y-118475000D03*
D29*
X148000000Y-116850000D03*
X148000000Y-117350000D03*
X148000000Y-117850000D03*
X148000000Y-118350000D03*
X148000000Y-118850000D03*
D30*
X148937500Y-119787500D03*
X149437500Y-119787500D03*
X149937500Y-119787500D03*
X150437500Y-119787500D03*
X150937500Y-119787500D03*
D29*
X151875000Y-118850000D03*
X151875000Y-118350000D03*
X151875000Y-117850000D03*
X151875000Y-117350000D03*
X151875000Y-116850000D03*
D30*
X150937500Y-115912500D03*
X150437500Y-115912500D03*
X149937500Y-115912500D03*
X149437500Y-115912500D03*
X148937500Y-115912500D03*
%TD*%
D14*
%TO.C,C2*%
X120659799Y-63998577D03*
X122209799Y-63998577D03*
%TD*%
D31*
%TO.C,D2*%
X149950000Y-141437500D03*
X149950000Y-139862500D03*
%TD*%
D18*
%TO.C,R36*%
X126430000Y-107365000D03*
X126430000Y-105715000D03*
%TD*%
D12*
%TO.C,R34*%
X119980000Y-82300000D03*
X121630000Y-82300000D03*
%TD*%
D18*
%TO.C,R25*%
X153500000Y-121575000D03*
X153500000Y-119925000D03*
%TD*%
D13*
%TO.C,C21*%
X131335000Y-96830000D03*
X129785000Y-96830000D03*
%TD*%
D32*
%TO.C,U1*%
X133710000Y-70260000D03*
X133710000Y-71660000D03*
X133710000Y-73060000D03*
X135110000Y-70260000D03*
X135110000Y-71660000D03*
X135110000Y-73060000D03*
X136510000Y-70260000D03*
X136510000Y-71660000D03*
X136510000Y-73060000D03*
D33*
X127860000Y-63940000D03*
X127860000Y-65210000D03*
X127860000Y-66480000D03*
X127860000Y-67750000D03*
X127860000Y-69020000D03*
X127860000Y-70290000D03*
X127860000Y-71560000D03*
X127860000Y-72830000D03*
X127860000Y-74100000D03*
X127860000Y-75370000D03*
X127860000Y-76640000D03*
X127860000Y-77910000D03*
X127860000Y-79180000D03*
X127860000Y-80450000D03*
D34*
X129625000Y-81700000D03*
X130895000Y-81700000D03*
X132165000Y-81700000D03*
X133435000Y-81700000D03*
X134705000Y-81700000D03*
X135975000Y-81700000D03*
X137245000Y-81700000D03*
X138515000Y-81700000D03*
X139785000Y-81700000D03*
X141055000Y-81700000D03*
X142325000Y-81700000D03*
X143595000Y-81700000D03*
D33*
X145360000Y-80450000D03*
X145360000Y-79180000D03*
X145360000Y-77910000D03*
X145360000Y-76640000D03*
X145360000Y-75370000D03*
X145360000Y-74100000D03*
X145360000Y-72830000D03*
X145360000Y-71560000D03*
X145360000Y-70290000D03*
X145360000Y-69020000D03*
X145360000Y-67750000D03*
X145360000Y-66480000D03*
X145360000Y-65210000D03*
X145360000Y-63940000D03*
%TD*%
D17*
%TO.C,R21*%
X145078316Y-97435347D03*
X145078316Y-99085347D03*
%TD*%
D13*
%TO.C,C20*%
X141835000Y-98520000D03*
X140285000Y-98520000D03*
%TD*%
D17*
%TO.C,R22*%
X149400000Y-108650000D03*
X149400000Y-110300000D03*
%TD*%
D13*
%TO.C,C23*%
X141825000Y-96980000D03*
X140275000Y-96980000D03*
%TD*%
D22*
%TO.C,RESET1*%
X150050000Y-70150000D03*
X153450000Y-70150000D03*
%TD*%
D17*
%TO.C,R2*%
X149550000Y-122825000D03*
X149550000Y-124475000D03*
%TD*%
D14*
%TO.C,C8*%
X135975000Y-126150000D03*
X137525000Y-126150000D03*
%TD*%
D11*
%TO.C,C3*%
X133603829Y-114933672D03*
X133603829Y-116483672D03*
%TD*%
D14*
%TO.C,C24*%
X148750000Y-113750000D03*
X150300000Y-113750000D03*
%TD*%
%TO.C,C30*%
X154675000Y-107050000D03*
X156225000Y-107050000D03*
%TD*%
D21*
%TO.C,U7*%
X141850000Y-106750000D03*
X141850000Y-104850000D03*
X139575000Y-105800000D03*
%TD*%
D15*
%TO.C,R13*%
X121525000Y-75850000D03*
X119875000Y-75850000D03*
%TD*%
%TO.C,R38*%
X129905000Y-119210000D03*
X128255000Y-119210000D03*
%TD*%
D16*
%TO.C,C10*%
X149850000Y-65525000D03*
X149850000Y-63975000D03*
%TD*%
D12*
%TO.C,R35*%
X119985000Y-80730000D03*
X121635000Y-80730000D03*
%TD*%
D15*
%TO.C,R39*%
X117645000Y-120300000D03*
X115995000Y-120300000D03*
%TD*%
D35*
%TO.C,L1*%
X152625000Y-103100000D03*
X150475000Y-103100000D03*
%TD*%
D14*
%TO.C,C29*%
X154700000Y-105050000D03*
X156250000Y-105050000D03*
%TD*%
D17*
%TO.C,R15*%
X146550000Y-92650000D03*
X146550000Y-94300000D03*
%TD*%
D14*
%TO.C,C27*%
X111405000Y-109440000D03*
X112955000Y-109440000D03*
%TD*%
D18*
%TO.C,R26*%
X147250000Y-124400000D03*
X147250000Y-122750000D03*
%TD*%
D31*
%TO.C,D3*%
X149950000Y-88025000D03*
X149950000Y-86450000D03*
%TD*%
D12*
%TO.C,R9*%
X150735000Y-75480000D03*
X152385000Y-75480000D03*
%TD*%
D13*
%TO.C,C26*%
X121675000Y-108980000D03*
X120125000Y-108980000D03*
%TD*%
D18*
%TO.C,R19*%
X124750000Y-94050000D03*
X124750000Y-92400000D03*
%TD*%
D17*
%TO.C,R8*%
X151450000Y-63900000D03*
X151450000Y-65550000D03*
%TD*%
D18*
%TO.C,R3*%
X147250000Y-88100000D03*
X147250000Y-86450000D03*
%TD*%
D12*
%TO.C,R31*%
X156385000Y-81790000D03*
X158035000Y-81790000D03*
%TD*%
%TO.C,R4*%
X150725000Y-78750000D03*
X152375000Y-78750000D03*
%TD*%
D14*
%TO.C,C16*%
X133175000Y-103100000D03*
X134725000Y-103100000D03*
%TD*%
D12*
%TO.C,R29*%
X154785000Y-83400000D03*
X156435000Y-83400000D03*
%TD*%
D13*
%TO.C,C25*%
X131337478Y-98434289D03*
X129787478Y-98434289D03*
%TD*%
D15*
%TO.C,R37*%
X129895000Y-117680000D03*
X128245000Y-117680000D03*
%TD*%
%TO.C,R33*%
X152395000Y-77020000D03*
X150745000Y-77020000D03*
%TD*%
D36*
%TO.C,U4*%
X116312500Y-108350000D03*
X116312500Y-108950000D03*
X116912500Y-108350000D03*
X116912500Y-108950000D03*
D29*
X115175000Y-107900000D03*
X115175000Y-108400000D03*
X115175000Y-108900000D03*
X115175000Y-109400000D03*
D30*
X115862500Y-110087500D03*
X116362500Y-110087500D03*
X116862500Y-110087500D03*
X117362500Y-110087500D03*
D29*
X118050000Y-109400000D03*
X118050000Y-108900000D03*
X118050000Y-108400000D03*
X118050000Y-107900000D03*
D30*
X117362500Y-107212500D03*
X116862500Y-107212500D03*
X116362500Y-107212500D03*
X115862500Y-107212500D03*
%TD*%
D13*
%TO.C,C28*%
X153975000Y-110550000D03*
X152425000Y-110550000D03*
%TD*%
D18*
%TO.C,R7*%
X152950000Y-65600000D03*
X152950000Y-63950000D03*
%TD*%
M02*
