M48
; DRILL file KiCad 10.0.5 date 2026-07-25T13:44:19
; FORMAT={-:-/ absolute / inch / decimal}
; #@! TF.CreationDate,2026-07-25T13:44:19-04:00
; #@! TF.GenerationSoftware,Kicad,Pcbnew,10.0.5
; #@! TF.FileFunction,Plated,1,2,PTH
FMAT,2
INCH
; #@! TA.AperFunction,Plated,PTH,ComponentDrill
T1C0.0079
; #@! TA.AperFunction,Plated,PTH,ViaDrill
T2C0.0118
; #@! TA.AperFunction,Plated,PTH,ComponentDrill
T3C0.0236
; #@! TA.AperFunction,Plated,PTH,ComponentDrill
T4C0.0295
; #@! TA.AperFunction,Plated,PTH,ComponentDrill
T5C0.0335
; #@! TA.AperFunction,Plated,PTH,ComponentDrill
T6C0.0394
%
G90
G05
T1
X5.2642Y-2.7937
X5.2642Y-2.8488
X5.2917Y-2.7661
X5.2917Y-2.8213
X5.2917Y-2.8764
X5.3193Y-2.7937
X5.3193Y-2.8488
X5.3469Y-2.7661
X5.3469Y-2.8213
X5.3469Y-2.8764
X5.3744Y-2.7937
X5.3744Y-2.8488
T2
X4.2854Y-4.6008
X4.3209Y-4.5753
X4.3254Y-4.3145
X4.3366Y-3.9469
X4.349Y-4.2453
X4.4035Y-3.3327
X4.4114Y-3.6004
X4.4264Y-4.4224
X4.4346Y-3.8441
X4.44Y-3.5374
X4.4429Y-3.6555
X4.4854Y-3.1835
X4.4866Y-3.2283
X4.4921Y-4.2874
X4.4941Y-3.4882
X4.4972Y-4.5524
X4.5201Y-4.0
X4.5405Y-4.4711
X4.5479Y-3.3474
X4.5614Y-4.1165
X4.565Y-3.75
X4.5671Y-4.4447
X4.5728Y-3.5492
X4.591Y-4.2776
X4.5949Y-4.7323
X4.6398Y-2.9823
X4.6437Y-3.0768
X4.6705Y-4.898
X4.6709Y-4.7276
X4.6736Y-4.5055
X4.6941Y-4.3713
X4.6961Y-4.5843
X4.6988Y-2.6831
X4.7067Y-4.5413
X4.7114Y-3.363
X4.7126Y-3.4059
X4.7254Y-3.1161
X4.7264Y-2.7854
X4.7398Y-4.2382
X4.75Y-2.6161
X4.7504Y-2.5196
X4.7697Y-2.8642
X4.7776Y-3.5374
X4.7955Y-3.9294
X4.7963Y-3.7367
X4.8051Y-2.7539
X4.8334Y-3.05
X4.872Y-4.2421
X4.8917Y-4.6358
X4.8958Y-2.7602
X4.8996Y-2.5177
X4.9094Y-3.7579
X4.9107Y-3.8071
X4.9114Y-4.311
X4.9193Y-3.5374
X4.941Y-2.6499
X4.9469Y-2.8445
X4.9744Y-4.2894
X4.9862Y-3.6358
X4.998Y-3.2654
X5.0118Y-4.7382
X5.0354Y-5.3839
X5.0356Y-3.7304
X5.0374Y-3.7618
X5.0689Y-3.7008
X5.0787Y-4.3996
X5.124Y-2.6173
X5.1272Y-3.3984
X5.137Y-5.2433
X5.137Y-5.2933
X5.1471Y-4.3996
X5.1516Y-4.7705
X5.1638Y-3.3992
X5.1707Y-3.8122
X5.1708Y-3.8754
X5.1772Y-3.6319
X5.187Y-5.2433
X5.187Y-5.2933
X5.2114Y-3.8756
X5.2134Y-3.7925
X5.2153Y-3.1362
X5.2303Y-3.6043
X5.2528Y-3.3173
X5.2548Y-3.764
X5.2593Y-3.8134
X5.2618Y-4.5256
X5.2835Y-3.385
X5.2886Y-3.5071
X5.2917Y-3.7382
X5.3051Y-4.0571
X5.3082Y-3.3505
X5.3354Y-3.6437
X5.3406Y-4.7441
X5.3494Y-4.2733
X5.3524Y-4.128
X5.3532Y-3.3079
X5.3575Y-3.1673
X5.3681Y-5.4311
X5.3824Y-5.3509
X5.3839Y-5.2421
X5.3898Y-3.0935
X5.3929Y-3.6101
X5.3934Y-3.6436
X5.4027Y-3.5781
X5.4154Y-4.9665
X5.4272Y-5.3524
X5.4276Y-3.0915
X5.4311Y-3.9783
X5.439Y-5.2697
X5.449Y-3.7441
X5.4517Y-3.5434
X5.452Y-3.878
X5.461Y-2.9598
X5.4631Y-3.0954
X5.4802Y-3.5609
X5.4823Y-4.4094
X5.4996Y-3.0949
X5.5059Y-5.2697
X5.5137Y-3.5591
X5.5185Y-2.9898
X5.5295Y-3.9783
X5.5374Y-3.0965
X5.5374Y-4.5453
X5.5445Y-3.0469
X5.5468Y-3.5641
X5.563Y-3.7488
X5.5728Y-4.7579
X5.5787Y-3.3874
X5.5837Y-3.8181
X5.5839Y-3.5601
X5.5841Y-3.8787
X5.5961Y-3.0217
X5.5965Y-2.9665
X5.6004Y-4.8209
X5.6331Y-3.776
X5.6366Y-3.1547
X5.6496Y-3.9567
X5.6524Y-2.9169
X5.6594Y-4.628
X5.6646Y-5.2472
X5.6646Y-5.2972
X5.6713Y-4.3484
X5.6713Y-4.4705
X5.6937Y-3.778
X5.6949Y-4.7382
X5.6965Y-3.974
X5.7118Y-3.8321
X5.7146Y-5.2472
X5.7146Y-5.2972
X5.715Y-3.7429
X5.7181Y-4.0614
X5.7264Y-4.9264
X5.7543Y-3.3921
X5.7646Y-3.814
X5.7725Y-3.8467
X5.7858Y-3.0835
X5.7884Y-4.6831
X5.7902Y-3.2181
X5.7972Y-4.8957
X5.8012Y-4.5217
X5.8047Y-4.0299
X5.8055Y-3.7429
X5.8169Y-2.5177
X5.8228Y-5.3917
X5.8278Y-4.1791
X5.8406Y-3.5807
X5.8453Y-3.2185
X5.8681Y-2.7185
X5.8969Y-3.0327
X5.8996Y-2.5797
X5.9587Y-3.6988
X5.9587Y-4.9114
X5.9626Y-2.5807
X5.9665Y-2.7618
X5.9724Y-4.4429
X5.9724Y-4.5413
X5.9744Y-4.1791
X5.9783Y-3.4744
X5.9941Y-3.5098
X6.0331Y-3.3531
X6.0394Y-4.3012
X6.0423Y-4.7874
X6.0567Y-3.0291
X6.0768Y-4.4429
X6.0801Y-3.1894
X6.0941Y-3.2839
X6.1073Y-4.4587
X6.1073Y-4.5453
X6.1073Y-4.6102
X6.1083Y-4.7224
X6.1516Y-4.1791
X6.1545Y-4.3002
X6.1594Y-4.6575
X6.1628Y-4.7732
X6.1654Y-4.7382
X6.1713Y-4.0413
X6.1752Y-3.6791
X6.1898Y-4.6715
X6.299Y-3.2014
X6.3642Y-4.2067
T4
X4.5492Y-3.8583
X4.628Y-3.8583
X5.2618Y-4.8071
X5.3406Y-4.8071
X5.4193Y-4.8071
X5.498Y-4.8071
X6.1122Y-3.4035
X6.1909Y-3.4035
X6.2379Y-4.5028
X6.2697Y-3.4035
X6.3166Y-4.5028
T5
X5.6035Y-5.0748
X5.7689Y-5.0748
T6
X4.4484Y-4.6311
X4.5484Y-4.6311
X4.6484Y-4.6311
X4.7484Y-4.6311
X6.2736Y-3.7091
X6.2736Y-3.8091
X6.2736Y-3.9091
X6.2736Y-4.0091
X6.2736Y-4.1091
X6.2736Y-4.2091
T3
G00X5.2177Y-5.5028
M15
G01X5.2177Y-5.5461
M16
G05
G00X5.2177Y-5.6772
M15
G01X5.2177Y-5.7008
M16
G05
G00X5.5579Y-5.5028
M15
G01X5.5579Y-5.5461
M16
G05
G00X5.5579Y-5.6772
M15
G01X5.5579Y-5.7008
M16
G05
M30
