%TF.GenerationSoftware,KiCad,Pcbnew,10.0.5*%
%TF.CreationDate,2026-07-25T13:44:19-04:00*%
%TF.ProjectId,smart-doorbell,736d6172-742d-4646-9f6f-7262656c6c2e,C*%
%TF.SameCoordinates,Original*%
%TF.FileFunction,Profile,NP*%
%FSLAX46Y46*%
G04 Gerber Fmt 4.6, Leading zero omitted, Abs format (unit mm)*
G04 Created by KiCad (PCBNEW 10.0.5) date 2026-07-25 13:44:19*
%MOMM*%
%LPD*%
G01*
G04 APERTURE LIST*
%TA.AperFunction,Profile*%
%ADD10C,0.050000*%
%TD*%
%ADD11C,0.050000*%
G04 APERTURE END LIST*
D10*
X107250000Y-65450000D02*
X107250000Y-55950000D01*
X107250000Y-65450000D02*
X107250000Y-132450000D01*
D11*
X107250000Y-132450000D02*
X107264552Y-132451577D01*
X107279088Y-132453173D01*
X107293610Y-132454787D01*
X107308117Y-132456419D01*
X107322608Y-132458070D01*
X107337085Y-132459740D01*
X107351546Y-132461428D01*
X107365993Y-132463134D01*
X107380425Y-132464858D01*
X107394841Y-132466601D01*
X107409243Y-132468362D01*
X107423630Y-132470142D01*
X107438002Y-132471940D01*
X107452359Y-132473756D01*
X107466702Y-132475590D01*
X107481029Y-132477443D01*
X107495342Y-132479314D01*
X107509640Y-132481203D01*
X107523924Y-132483110D01*
X107538192Y-132485035D01*
X107552446Y-132486979D01*
X107566685Y-132488941D01*
X107580910Y-132490921D01*
X107595119Y-132492919D01*
X107609315Y-132494936D01*
X107623495Y-132496970D01*
X107637662Y-132499023D01*
X107651813Y-132501093D01*
X107665951Y-132503182D01*
X107680073Y-132505289D01*
X107694181Y-132507414D01*
X107708274Y-132509556D01*
X107722354Y-132511717D01*
X107736418Y-132513896D01*
X107750469Y-132516093D01*
X107764504Y-132518308D01*
X107778526Y-132520541D01*
X107792533Y-132522791D01*
X107806526Y-132525060D01*
X107820504Y-132527347D01*
X107834469Y-132529651D01*
X107848418Y-132531974D01*
X107862354Y-132534314D01*
X107876275Y-132536672D01*
X107890183Y-132539048D01*
X107904075Y-132541442D01*
X107917955Y-132543854D01*
X107931819Y-132546284D01*
X107945670Y-132548731D01*
X107959506Y-132551196D01*
X107973329Y-132553680D01*
X107987136Y-132556180D01*
X108000931Y-132558699D01*
X108014711Y-132561235D01*
X108028477Y-132563789D01*
X108042229Y-132566361D01*
X108055968Y-132568951D01*
X108069691Y-132571558D01*
X108083402Y-132574183D01*
X108097098Y-132576825D01*
X108110781Y-132579486D01*
X108124448Y-132582164D01*
X108138104Y-132584859D01*
X108151744Y-132587573D01*
X108165372Y-132590304D01*
X108178984Y-132593052D01*
X108192584Y-132595818D01*
X108206169Y-132598602D01*
X108219742Y-132601403D01*
X108233299Y-132604222D01*
X108246844Y-132607059D01*
X108260374Y-132609912D01*
X108273892Y-132612784D01*
X108287395Y-132615673D01*
X108300885Y-132618580D01*
X108314361Y-132621504D01*
X108327824Y-132624445D01*
X108341273Y-132627404D01*
X108354709Y-132630381D01*
X108368130Y-132633375D01*
X108381539Y-132636387D01*
X108394933Y-132639416D01*
X108408315Y-132642462D01*
X108421683Y-132645526D01*
X108435038Y-132648607D01*
X108448378Y-132651706D01*
X108461707Y-132654822D01*
X108475020Y-132657956D01*
X108488322Y-132661107D01*
X108501609Y-132664275D01*
X108514884Y-132667461D01*
X108528144Y-132670663D01*
X108541392Y-132673884D01*
X108554626Y-132677121D01*
X108567848Y-132680377D01*
X108581055Y-132683649D01*
X108594250Y-132686939D01*
X108607431Y-132690246D01*
X108620600Y-132693570D01*
X108633754Y-132696911D01*
X108646897Y-132700270D01*
X108660025Y-132703646D01*
X108673142Y-132707040D01*
X108686243Y-132710450D01*
X108699334Y-132713879D01*
X108712409Y-132717324D01*
X108725474Y-132720786D01*
X108738523Y-132724266D01*
X108751562Y-132727763D01*
X108764585Y-132731276D01*
X108777598Y-132734808D01*
X108790595Y-132738356D01*
X108803582Y-132741922D01*
X108816553Y-132745505D01*
X108829514Y-132749105D01*
X108842460Y-132752722D01*
X108855395Y-132756356D01*
X108868315Y-132760008D01*
X108881225Y-132763677D01*
X108894119Y-132767362D01*
X108907003Y-132771065D01*
X108919872Y-132774785D01*
X108932731Y-132778522D01*
X108945574Y-132782276D01*
X108958407Y-132786048D01*
X108971225Y-132789836D01*
X108984033Y-132793642D01*
X108996825Y-132797464D01*
X109022375Y-132805161D01*
X109047874Y-132812926D01*
X109073323Y-132820759D01*
X109098722Y-132828660D01*
X109124071Y-132836630D01*
X109149370Y-132844667D01*
X109174619Y-132852773D01*
X109199818Y-132860946D01*
X109224968Y-132869188D01*
X109250069Y-132877497D01*
X109275120Y-132885875D01*
X109300123Y-132894320D01*
X109325076Y-132902833D01*
X109349981Y-132911414D01*
X109374836Y-132920063D01*
X109399644Y-132928779D01*
X109424403Y-132937563D01*
X109449113Y-132946415D01*
X109473776Y-132955334D01*
X109498390Y-132964321D01*
X109522957Y-132973376D01*
X109547476Y-132982498D01*
X109571947Y-132991688D01*
X109596370Y-133000945D01*
X109620747Y-133010270D01*
X109645076Y-133019663D01*
X109669358Y-133029122D01*
X109693592Y-133038650D01*
X109717780Y-133048244D01*
X109741921Y-133057907D01*
X109766016Y-133067636D01*
X109790064Y-133077433D01*
X109814066Y-133087298D01*
X109838021Y-133097230D01*
X109861930Y-133107229D01*
X109885793Y-133117295D01*
X109909610Y-133127429D01*
X109933382Y-133137631D01*
X109957107Y-133147899D01*
X109980788Y-133158235D01*
X110004422Y-133168639D01*
X110028012Y-133179110D01*
X110051556Y-133189648D01*
X110075055Y-133200254D01*
X110098509Y-133210927D01*
X110121918Y-133221667D01*
X110145282Y-133232475D01*
X110168602Y-133243350D01*
X110191877Y-133254293D01*
X110215108Y-133265303D01*
X110238294Y-133276380D01*
X110261436Y-133287525D01*
X110284534Y-133298738D01*
X110307588Y-133310018D01*
X110330598Y-133321365D01*
X110353564Y-133332780D01*
X110376487Y-133344262D01*
X110399366Y-133355813D01*
X110422202Y-133367430D01*
X110444994Y-133379115D01*
X110467743Y-133390868D01*
X110490448Y-133402689D01*
X110513111Y-133414577D01*
X110535731Y-133426533D01*
X110558308Y-133438557D01*
X110580842Y-133450648D01*
X110603333Y-133462808D01*
X110625782Y-133475035D01*
X110648188Y-133487330D01*
X110670552Y-133499693D01*
X110692873Y-133512124D01*
X110715153Y-133524623D01*
X110737390Y-133537190D01*
X110759585Y-133549825D01*
X110781738Y-133562528D01*
X110803850Y-133575299D01*
X110825919Y-133588138D01*
X110847947Y-133601046D01*
X110869934Y-133614022D01*
X110891879Y-133627066D01*
X110913783Y-133640179D01*
X110935645Y-133653360D01*
X110957466Y-133666610D01*
X110979246Y-133679928D01*
X111000985Y-133693314D01*
X111022682Y-133706770D01*
X111044339Y-133720294D01*
X111065956Y-133733887D01*
X111087531Y-133747548D01*
X111109066Y-133761279D01*
X111130560Y-133775078D01*
X111152014Y-133788947D01*
X111173427Y-133802884D01*
X111194800Y-133816891D01*
X111216132Y-133830966D01*
X111237425Y-133845111D01*
X111258677Y-133859325D01*
X111279889Y-133873609D01*
X111301061Y-133887962D01*
X111322194Y-133902385D01*
X111343286Y-133916877D01*
X111364339Y-133931439D01*
X111385352Y-133946070D01*
X111406325Y-133960772D01*
X111427259Y-133975543D01*
X111448153Y-133990384D01*
X111469008Y-134005295D01*
X111489824Y-134020277D01*
X111510600Y-134035328D01*
X111531337Y-134050450D01*
X111552035Y-134065642D01*
X111572693Y-134080905D01*
X111593313Y-134096238D01*
X111613893Y-134111642D01*
X111634435Y-134127116D01*
X111654937Y-134142661D01*
X111675401Y-134158277D01*
X111695826Y-134173964D01*
X111716212Y-134189722D01*
X111736560Y-134205551D01*
X111756868Y-134221451D01*
X111777139Y-134237423D01*
X111797370Y-134253466D01*
X111817564Y-134269581D01*
X111837719Y-134285767D01*
X111857835Y-134302025D01*
X111877913Y-134318354D01*
X111897953Y-134334756D01*
X111917954Y-134351229D01*
X111937918Y-134367775D01*
X111957843Y-134384392D01*
X111977730Y-134401082D01*
X111997579Y-134417845D01*
X112017390Y-134434679D01*
X112037162Y-134451587D01*
X112056897Y-134468567D01*
X112076594Y-134485620D01*
X112096253Y-134502746D01*
X112115874Y-134519945D01*
X112135458Y-134537217D01*
X112155003Y-134554562D01*
X112174511Y-134571981D01*
X112193981Y-134589473D01*
X112213413Y-134607039D01*
X112232808Y-134624678D01*
X112252165Y-134642391D01*
X112271484Y-134660178D01*
X112290766Y-134678039D01*
X112310010Y-134695974D01*
X112329216Y-134713984D01*
X112348386Y-134732068D01*
X112367517Y-134750226D01*
X112386611Y-134768459D01*
X112405668Y-134786767D01*
X112424687Y-134805150D01*
X112443669Y-134823607D01*
X112462613Y-134842140D01*
X112481520Y-134860748D01*
X112500389Y-134879432D01*
X112519221Y-134898190D01*
X112538016Y-134917025D01*
X112556774Y-134935935D01*
X112575494Y-134954921D01*
X112594176Y-134973983D01*
X112612822Y-134993121D01*
X112631430Y-135012336D01*
X112650001Y-135031626D01*
X112668535Y-135050994D01*
X112687031Y-135070438D01*
X112705490Y-135089958D01*
X112723911Y-135109556D01*
X112742296Y-135129231D01*
X112760643Y-135148983D01*
X112778953Y-135168812D01*
X112797225Y-135188718D01*
X112815461Y-135208703D01*
X112833659Y-135228765D01*
X112851819Y-135248904D01*
X112869943Y-135269122D01*
X112888029Y-135289418D01*
X112906078Y-135309792D01*
X112924089Y-135330245D01*
X112942063Y-135350776D01*
X112960000Y-135371386D01*
X112977899Y-135392074D01*
X112995761Y-135412842D01*
X113013586Y-135433689D01*
X113031373Y-135454615D01*
X113049123Y-135475620D01*
X113066836Y-135496705D01*
X113084511Y-135517870D01*
X113102148Y-135539114D01*
X113119748Y-135560439D01*
X113137311Y-135581843D01*
X113154836Y-135603328D01*
X113172323Y-135624894D01*
X113189773Y-135646540D01*
X113207186Y-135668266D01*
X113224560Y-135690074D01*
X113241897Y-135711962D01*
X113259197Y-135733932D01*
X113276458Y-135755983D01*
X113293682Y-135778115D01*
X113310868Y-135800329D01*
X113328016Y-135822625D01*
X113345127Y-135845002D01*
X113362200Y-135867462D01*
X113379234Y-135890004D01*
X113396231Y-135912628D01*
X113413190Y-135935335D01*
X113430110Y-135958124D01*
X113446993Y-135980996D01*
X113463838Y-136003952D01*
X113480644Y-136026990D01*
X113497412Y-136050111D01*
X113514142Y-136073316D01*
X113530834Y-136096605D01*
X113547487Y-136119977D01*
X113564102Y-136143434D01*
X113580679Y-136166974D01*
X113597217Y-136190598D01*
X113613717Y-136214307D01*
X113630178Y-136238100D01*
X113646600Y-136261978D01*
X113662984Y-136285941D01*
X113679329Y-136309988D01*
X113695635Y-136334121D01*
X113711903Y-136358339D01*
X113728131Y-136382643D01*
X113744321Y-136407032D01*
X113760471Y-136431507D01*
X113776583Y-136456067D01*
X113792655Y-136480714D01*
X113808688Y-136505447D01*
X113824682Y-136530266D01*
X113840636Y-136555172D01*
X113856551Y-136580164D01*
X113872427Y-136605243D01*
X113888263Y-136630409D01*
X113904059Y-136655663D01*
X113919816Y-136681003D01*
X113935533Y-136706431D01*
X113951211Y-136731947D01*
X113966848Y-136757550D01*
X113982445Y-136783241D01*
X113998003Y-136809021D01*
X114013520Y-136834888D01*
X114028997Y-136860844D01*
X114044433Y-136886888D01*
X114059830Y-136913021D01*
X114075186Y-136939242D01*
X114090501Y-136965553D01*
X114105776Y-136991953D01*
X114121010Y-137018442D01*
X114136203Y-137045020D01*
X114151356Y-137071688D01*
X114166467Y-137098446D01*
X114181538Y-137125293D01*
X114196567Y-137152231D01*
X114211555Y-137179258D01*
X114226502Y-137206376D01*
X114241408Y-137233584D01*
X114256272Y-137260883D01*
X114271094Y-137288273D01*
X114285875Y-137315754D01*
X114300614Y-137343325D01*
X114315311Y-137370988D01*
X114329966Y-137398742D01*
X114344579Y-137426587D01*
X114359149Y-137454524D01*
X114373678Y-137482553D01*
X114388164Y-137510674D01*
X114402608Y-137538886D01*
X114417009Y-137567191D01*
X114431367Y-137595588D01*
X114445683Y-137624078D01*
X114459955Y-137652660D01*
X114474185Y-137681334D01*
X114488371Y-137710102D01*
X114502514Y-137738963D01*
X114516614Y-137767916D01*
X114530671Y-137796963D01*
X114544683Y-137826103D01*
X114558653Y-137855337D01*
X114572578Y-137884665D01*
X114586459Y-137914086D01*
X114600296Y-137943601D01*
X114614090Y-137973210D01*
X114627838Y-138002913D01*
X114641543Y-138032710D01*
X114655203Y-138062602D01*
X114668818Y-138092588D01*
X114682388Y-138122669D01*
X114695914Y-138152844D01*
X114709394Y-138183115D01*
X114722829Y-138213480D01*
X114736219Y-138243940D01*
X114749564Y-138274496D01*
X114762863Y-138305147D01*
X114776116Y-138335893D01*
X114789323Y-138366735D01*
X114802485Y-138397672D01*
X114815600Y-138428705D01*
X114828669Y-138459834D01*
X114841692Y-138491059D01*
X114854668Y-138522380D01*
X114867598Y-138553797D01*
X114880481Y-138585310D01*
X114893317Y-138616919D01*
X114906105Y-138648625D01*
X114918847Y-138680427D01*
X114931541Y-138712326D01*
X114944188Y-138744322D01*
X114956787Y-138776414D01*
X114969338Y-138808603D01*
X114981841Y-138840889D01*
X114994296Y-138873272D01*
X115006703Y-138905752D01*
X115019062Y-138938329D01*
X115031372Y-138971004D01*
X115043633Y-139003775D01*
X115055845Y-139036644D01*
X115068008Y-139069610D01*
X115080123Y-139102674D01*
X115092187Y-139135835D01*
X115104203Y-139169094D01*
X115116168Y-139202450D01*
X115128084Y-139235904D01*
X115139950Y-139269456D01*
X115151765Y-139303106D01*
X115163531Y-139336853D01*
X115175245Y-139370698D01*
X115186910Y-139404641D01*
X115198523Y-139438681D01*
X115210085Y-139472820D01*
X115221597Y-139507057D01*
X115233057Y-139541391D01*
X115244465Y-139575824D01*
X115255822Y-139610354D01*
X115267127Y-139644983D01*
X115278379Y-139679709D01*
X115289580Y-139714534D01*
X115300728Y-139749456D01*
X115311824Y-139784477D01*
X115322867Y-139819595D01*
X115333857Y-139854811D01*
X115344794Y-139890126D01*
X115355678Y-139925538D01*
X115366509Y-139961048D01*
X115377285Y-139996656D01*
X115388008Y-140032362D01*
X115398677Y-140068165D01*
X115409292Y-140104067D01*
X115419852Y-140140066D01*
X115430358Y-140176162D01*
X115440809Y-140212357D01*
X115451205Y-140248648D01*
X115461546Y-140285037D01*
X115471831Y-140321524D01*
X115482061Y-140358108D01*
X115492236Y-140394789D01*
X115502354Y-140431567D01*
X115512416Y-140468442D01*
X115522422Y-140505414D01*
X115532372Y-140542482D01*
X115542264Y-140579648D01*
X115552100Y-140616910D01*
X115561879Y-140654268D01*
X115571600Y-140691723D01*
X115581264Y-140729274D01*
X115590871Y-140766920D01*
X115600419Y-140804663D01*
X115609909Y-140842501D01*
X115619341Y-140880435D01*
X115628714Y-140918464D01*
X115638028Y-140956588D01*
X115647284Y-140994807D01*
X115656480Y-141033121D01*
X115665617Y-141071529D01*
X115674694Y-141110031D01*
X115683712Y-141148628D01*
X115692669Y-141187318D01*
X115701567Y-141226102D01*
X115710403Y-141264980D01*
X115719179Y-141303950D01*
X115727895Y-141343013D01*
X115736549Y-141382169D01*
X115745141Y-141421416D01*
X115753672Y-141460756D01*
X115762142Y-141500187D01*
X115770549Y-141539710D01*
X115778894Y-141579323D01*
X115787177Y-141619027D01*
X115795397Y-141658821D01*
X115803554Y-141698705D01*
X115811648Y-141738678D01*
X115819678Y-141778741D01*
X115827645Y-141818892D01*
X115835548Y-141859131D01*
X115843388Y-141899458D01*
X115851162Y-141939872D01*
X115858873Y-141980373D01*
X115866518Y-142020961D01*
X115874099Y-142061634D01*
X115881614Y-142102393D01*
X115889064Y-142143236D01*
X115896448Y-142184164D01*
X115903766Y-142225175D01*
X115911018Y-142266270D01*
X115918204Y-142307447D01*
X115925323Y-142348706D01*
X115932375Y-142390047D01*
X115939360Y-142431468D01*
X115946278Y-142472969D01*
X115953128Y-142514549D01*
X115959910Y-142556208D01*
X115966624Y-142597945D01*
X115973270Y-142639759D01*
X115979847Y-142681649D01*
X115986356Y-142723615D01*
X115992795Y-142765656D01*
X115999165Y-142807770D01*
X116005465Y-142849958D01*
X116011696Y-142892218D01*
X116017856Y-142934548D01*
X116023947Y-142976949D01*
X116029966Y-143019420D01*
X116035915Y-143061958D01*
X116041793Y-143104564D01*
X116047600Y-143147236D01*
X116053335Y-143189973D01*
X116058998Y-143232774D01*
X116064589Y-143275638D01*
X116070108Y-143318564D01*
X116075554Y-143361550D01*
X116080928Y-143404594D01*
X116086228Y-143447697D01*
X116091456Y-143490856D01*
X116096609Y-143534071D01*
X116101689Y-143577338D01*
X116106695Y-143620658D01*
X116111627Y-143664029D01*
X116116484Y-143707449D01*
X116121266Y-143750916D01*
X116125973Y-143794429D01*
X116130605Y-143837986D01*
X116135161Y-143881585D01*
X116139642Y-143925225D01*
X116144046Y-143968903D01*
X116148374Y-144012619D01*
X116152626Y-144056368D01*
X116156801Y-144100151D01*
X116160899Y-144143964D01*
X116164920Y-144187805D01*
X116168863Y-144231672D01*
X116172729Y-144275563D01*
X116176516Y-144319475D01*
X116180226Y-144363405D01*
X116183857Y-144407352D01*
X116187409Y-144451312D01*
X116190883Y-144495283D01*
X116194277Y-144539262D01*
X116197592Y-144583245D01*
X116200828Y-144627230D01*
X116203983Y-144671213D01*
X116207059Y-144715192D01*
X116210055Y-144759162D01*
X116212970Y-144803121D01*
X116215804Y-144847063D01*
X116218558Y-144890987D01*
X116221231Y-144934887D01*
X116223823Y-144978760D01*
X116226333Y-145022601D01*
X116228762Y-145066405D01*
X116231109Y-145110168D01*
X116233374Y-145153886D01*
X116235557Y-145197553D01*
X116237658Y-145241163D01*
X116239677Y-145284712D01*
X116241613Y-145328193D01*
X116243467Y-145371601D01*
X116245238Y-145414929D01*
X116246926Y-145458171D01*
X116248531Y-145501319D01*
X116250054Y-145544367D01*
X116251494Y-145587307D01*
X116252850Y-145630130D01*
X116254124Y-145672829D01*
X116255314Y-145715395D01*
X116256422Y-145757818D01*
X116257446Y-145800089D01*
X116258388Y-145842196D01*
X116259247Y-145884130D01*
X116260023Y-145925878D01*
X116260717Y-145967428D01*
X116261329Y-146008767D01*
X116261858Y-146049881D01*
X116262306Y-146090754D01*
X116262672Y-146131371D01*
X116262958Y-146171715D01*
X116263163Y-146211766D01*
X116263288Y-146251505D01*
X116263333Y-146290911D01*
X116263300Y-146329959D01*
X116263189Y-146368625D01*
X116263001Y-146406880D01*
X116262738Y-146444693D01*
X116262400Y-146482031D01*
X116261989Y-146518856D01*
X116261507Y-146555125D01*
X116260955Y-146590792D01*
X116260337Y-146625803D01*
X116259654Y-146660096D01*
X116258911Y-146693601D01*
X116258110Y-146726234D01*
X116257258Y-146757896D01*
X116256360Y-146788466D01*
X116255424Y-146817797D01*
X116254460Y-146845696D01*
X116253482Y-146871909D01*
X116252510Y-146896078D01*
X116251575Y-146917656D01*
X116250731Y-146935685D01*
X116250000Y-146950000D01*
D10*
X116250000Y-55950000D02*
X107250000Y-55950000D01*
X116250000Y-55950000D02*
X157250000Y-55950000D01*
X116250000Y-146950000D02*
X157250000Y-146950000D01*
X157250000Y-55950000D02*
X166250000Y-55950000D01*
X166250000Y-55950000D02*
X166250000Y-65450000D01*
D11*
X166250000Y-132450000D02*
X166235448Y-132451577D01*
X166220912Y-132453173D01*
X166206390Y-132454787D01*
X166191883Y-132456419D01*
X166177392Y-132458070D01*
X166162915Y-132459740D01*
X166148454Y-132461428D01*
X166134007Y-132463134D01*
X166119575Y-132464858D01*
X166105159Y-132466601D01*
X166090757Y-132468362D01*
X166076370Y-132470142D01*
X166061998Y-132471940D01*
X166047641Y-132473756D01*
X166033298Y-132475590D01*
X166018971Y-132477443D01*
X166004658Y-132479314D01*
X165990360Y-132481203D01*
X165976076Y-132483110D01*
X165961808Y-132485035D01*
X165947554Y-132486979D01*
X165933315Y-132488941D01*
X165919090Y-132490921D01*
X165904881Y-132492919D01*
X165890685Y-132494936D01*
X165876505Y-132496970D01*
X165862338Y-132499023D01*
X165848187Y-132501093D01*
X165834049Y-132503182D01*
X165819927Y-132505289D01*
X165805819Y-132507414D01*
X165791726Y-132509556D01*
X165777646Y-132511717D01*
X165763582Y-132513896D01*
X165749531Y-132516093D01*
X165735496Y-132518308D01*
X165721474Y-132520541D01*
X165707467Y-132522791D01*
X165693474Y-132525060D01*
X165679496Y-132527347D01*
X165665531Y-132529651D01*
X165651582Y-132531974D01*
X165637646Y-132534314D01*
X165623725Y-132536672D01*
X165609817Y-132539048D01*
X165595925Y-132541442D01*
X165582045Y-132543854D01*
X165568181Y-132546284D01*
X165554330Y-132548731D01*
X165540494Y-132551196D01*
X165526671Y-132553680D01*
X165512864Y-132556180D01*
X165499069Y-132558699D01*
X165485289Y-132561235D01*
X165471523Y-132563789D01*
X165457771Y-132566361D01*
X165444032Y-132568951D01*
X165430309Y-132571558D01*
X165416598Y-132574183D01*
X165402902Y-132576825D01*
X165389219Y-132579486D01*
X165375552Y-132582164D01*
X165361896Y-132584859D01*
X165348256Y-132587573D01*
X165334628Y-132590304D01*
X165321016Y-132593052D01*
X165307416Y-132595818D01*
X165293831Y-132598602D01*
X165280258Y-132601403D01*
X165266701Y-132604222D01*
X165253156Y-132607059D01*
X165239626Y-132609912D01*
X165226108Y-132612784D01*
X165212605Y-132615673D01*
X165199115Y-132618580D01*
X165185639Y-132621504D01*
X165172176Y-132624445D01*
X165158727Y-132627404D01*
X165145291Y-132630381D01*
X165131870Y-132633375D01*
X165118461Y-132636387D01*
X165105067Y-132639416D01*
X165091685Y-132642462D01*
X165078317Y-132645526D01*
X165064962Y-132648607D01*
X165051622Y-132651706D01*
X165038293Y-132654822D01*
X165024980Y-132657956D01*
X165011678Y-132661107D01*
X164998391Y-132664275D01*
X164985116Y-132667461D01*
X164971856Y-132670663D01*
X164958608Y-132673884D01*
X164945374Y-132677121D01*
X164932152Y-132680377D01*
X164918945Y-132683649D01*
X164905750Y-132686939D01*
X164892569Y-132690246D01*
X164879400Y-132693570D01*
X164866246Y-132696911D01*
X164853103Y-132700270D01*
X164839975Y-132703646D01*
X164826858Y-132707040D01*
X164813757Y-132710450D01*
X164800666Y-132713879D01*
X164787591Y-132717324D01*
X164774526Y-132720786D01*
X164761477Y-132724266D01*
X164748438Y-132727763D01*
X164735415Y-132731276D01*
X164722402Y-132734808D01*
X164709405Y-132738356D01*
X164696418Y-132741922D01*
X164683447Y-132745505D01*
X164670486Y-132749105D01*
X164657540Y-132752722D01*
X164644605Y-132756356D01*
X164631685Y-132760008D01*
X164618775Y-132763677D01*
X164605881Y-132767362D01*
X164592997Y-132771065D01*
X164580128Y-132774785D01*
X164567269Y-132778522D01*
X164554426Y-132782276D01*
X164541593Y-132786048D01*
X164528775Y-132789836D01*
X164515967Y-132793642D01*
X164503175Y-132797464D01*
X164477625Y-132805161D01*
X164452126Y-132812926D01*
X164426677Y-132820759D01*
X164401278Y-132828660D01*
X164375929Y-132836630D01*
X164350630Y-132844667D01*
X164325381Y-132852773D01*
X164300182Y-132860946D01*
X164275032Y-132869188D01*
X164249931Y-132877497D01*
X164224880Y-132885875D01*
X164199877Y-132894320D01*
X164174924Y-132902833D01*
X164150019Y-132911414D01*
X164125164Y-132920063D01*
X164100356Y-132928779D01*
X164075597Y-132937563D01*
X164050887Y-132946415D01*
X164026224Y-132955334D01*
X164001610Y-132964321D01*
X163977043Y-132973376D01*
X163952524Y-132982498D01*
X163928053Y-132991688D01*
X163903630Y-133000945D01*
X163879253Y-133010270D01*
X163854924Y-133019663D01*
X163830642Y-133029122D01*
X163806408Y-133038650D01*
X163782220Y-133048244D01*
X163758079Y-133057907D01*
X163733984Y-133067636D01*
X163709936Y-133077433D01*
X163685934Y-133087298D01*
X163661979Y-133097230D01*
X163638070Y-133107229D01*
X163614207Y-133117295D01*
X163590390Y-133127429D01*
X163566618Y-133137631D01*
X163542893Y-133147899D01*
X163519212Y-133158235D01*
X163495578Y-133168639D01*
X163471988Y-133179110D01*
X163448444Y-133189648D01*
X163424945Y-133200254D01*
X163401491Y-133210927D01*
X163378082Y-133221667D01*
X163354718Y-133232475D01*
X163331398Y-133243350D01*
X163308123Y-133254293D01*
X163284892Y-133265303D01*
X163261706Y-133276380D01*
X163238564Y-133287525D01*
X163215466Y-133298738D01*
X163192412Y-133310018D01*
X163169402Y-133321365D01*
X163146436Y-133332780D01*
X163123513Y-133344262D01*
X163100634Y-133355813D01*
X163077798Y-133367430D01*
X163055006Y-133379115D01*
X163032257Y-133390868D01*
X163009552Y-133402689D01*
X162986889Y-133414577D01*
X162964269Y-133426533D01*
X162941692Y-133438557D01*
X162919158Y-133450648D01*
X162896667Y-133462808D01*
X162874218Y-133475035D01*
X162851812Y-133487330D01*
X162829448Y-133499693D01*
X162807127Y-133512124D01*
X162784847Y-133524623D01*
X162762610Y-133537190D01*
X162740415Y-133549825D01*
X162718262Y-133562528D01*
X162696150Y-133575299D01*
X162674081Y-133588138D01*
X162652053Y-133601046D01*
X162630066Y-133614022D01*
X162608121Y-133627066D01*
X162586217Y-133640179D01*
X162564355Y-133653360D01*
X162542534Y-133666610D01*
X162520754Y-133679928D01*
X162499015Y-133693314D01*
X162477318Y-133706770D01*
X162455661Y-133720294D01*
X162434044Y-133733887D01*
X162412469Y-133747548D01*
X162390934Y-133761279D01*
X162369440Y-133775078D01*
X162347986Y-133788947D01*
X162326573Y-133802884D01*
X162305200Y-133816891D01*
X162283868Y-133830966D01*
X162262575Y-133845111D01*
X162241323Y-133859325D01*
X162220111Y-133873609D01*
X162198939Y-133887962D01*
X162177806Y-133902385D01*
X162156714Y-133916877D01*
X162135661Y-133931439D01*
X162114648Y-133946070D01*
X162093675Y-133960772D01*
X162072741Y-133975543D01*
X162051847Y-133990384D01*
X162030992Y-134005295D01*
X162010176Y-134020277D01*
X161989400Y-134035328D01*
X161968663Y-134050450D01*
X161947965Y-134065642D01*
X161927307Y-134080905D01*
X161906687Y-134096238D01*
X161886107Y-134111642D01*
X161865565Y-134127116D01*
X161845063Y-134142661D01*
X161824599Y-134158277D01*
X161804174Y-134173964D01*
X161783788Y-134189722D01*
X161763440Y-134205551D01*
X161743132Y-134221451D01*
X161722861Y-134237423D01*
X161702630Y-134253466D01*
X161682436Y-134269581D01*
X161662281Y-134285767D01*
X161642165Y-134302025D01*
X161622087Y-134318354D01*
X161602047Y-134334756D01*
X161582046Y-134351229D01*
X161562082Y-134367775D01*
X161542157Y-134384392D01*
X161522270Y-134401082D01*
X161502421Y-134417845D01*
X161482610Y-134434679D01*
X161462838Y-134451587D01*
X161443103Y-134468567D01*
X161423406Y-134485620D01*
X161403747Y-134502746D01*
X161384126Y-134519945D01*
X161364542Y-134537217D01*
X161344997Y-134554562D01*
X161325489Y-134571981D01*
X161306019Y-134589473D01*
X161286587Y-134607039D01*
X161267192Y-134624678D01*
X161247835Y-134642391D01*
X161228516Y-134660178D01*
X161209234Y-134678039D01*
X161189990Y-134695974D01*
X161170784Y-134713984D01*
X161151614Y-134732068D01*
X161132483Y-134750226D01*
X161113389Y-134768459D01*
X161094332Y-134786767D01*
X161075313Y-134805150D01*
X161056331Y-134823607D01*
X161037387Y-134842140D01*
X161018480Y-134860748D01*
X160999611Y-134879432D01*
X160980779Y-134898190D01*
X160961984Y-134917025D01*
X160943226Y-134935935D01*
X160924506Y-134954921D01*
X160905824Y-134973983D01*
X160887178Y-134993121D01*
X160868570Y-135012336D01*
X160849999Y-135031626D01*
X160831465Y-135050994D01*
X160812969Y-135070438D01*
X160794510Y-135089958D01*
X160776089Y-135109556D01*
X160757704Y-135129231D01*
X160739357Y-135148983D01*
X160721047Y-135168812D01*
X160702775Y-135188718D01*
X160684539Y-135208703D01*
X160666341Y-135228765D01*
X160648181Y-135248904D01*
X160630057Y-135269122D01*
X160611971Y-135289418D01*
X160593922Y-135309792D01*
X160575911Y-135330245D01*
X160557937Y-135350776D01*
X160540000Y-135371386D01*
X160522101Y-135392074D01*
X160504239Y-135412842D01*
X160486414Y-135433689D01*
X160468627Y-135454615D01*
X160450877Y-135475620D01*
X160433164Y-135496705D01*
X160415489Y-135517870D01*
X160397852Y-135539114D01*
X160380252Y-135560439D01*
X160362689Y-135581843D01*
X160345164Y-135603328D01*
X160327677Y-135624894D01*
X160310227Y-135646540D01*
X160292814Y-135668266D01*
X160275440Y-135690074D01*
X160258103Y-135711962D01*
X160240803Y-135733932D01*
X160223542Y-135755983D01*
X160206318Y-135778115D01*
X160189132Y-135800329D01*
X160171984Y-135822625D01*
X160154873Y-135845002D01*
X160137800Y-135867462D01*
X160120766Y-135890004D01*
X160103769Y-135912628D01*
X160086810Y-135935335D01*
X160069890Y-135958124D01*
X160053007Y-135980996D01*
X160036162Y-136003952D01*
X160019356Y-136026990D01*
X160002588Y-136050111D01*
X159985858Y-136073316D01*
X159969166Y-136096605D01*
X159952513Y-136119977D01*
X159935898Y-136143434D01*
X159919321Y-136166974D01*
X159902783Y-136190598D01*
X159886283Y-136214307D01*
X159869822Y-136238100D01*
X159853400Y-136261978D01*
X159837016Y-136285941D01*
X159820671Y-136309988D01*
X159804365Y-136334121D01*
X159788097Y-136358339D01*
X159771869Y-136382643D01*
X159755679Y-136407032D01*
X159739529Y-136431507D01*
X159723417Y-136456067D01*
X159707345Y-136480714D01*
X159691312Y-136505447D01*
X159675318Y-136530266D01*
X159659364Y-136555172D01*
X159643449Y-136580164D01*
X159627573Y-136605243D01*
X159611737Y-136630409D01*
X159595941Y-136655663D01*
X159580184Y-136681003D01*
X159564467Y-136706431D01*
X159548789Y-136731947D01*
X159533152Y-136757550D01*
X159517555Y-136783241D01*
X159501997Y-136809021D01*
X159486480Y-136834888D01*
X159471003Y-136860844D01*
X159455567Y-136886888D01*
X159440170Y-136913021D01*
X159424814Y-136939242D01*
X159409499Y-136965553D01*
X159394224Y-136991953D01*
X159378990Y-137018442D01*
X159363797Y-137045020D01*
X159348644Y-137071688D01*
X159333533Y-137098446D01*
X159318462Y-137125293D01*
X159303433Y-137152231D01*
X159288445Y-137179258D01*
X159273498Y-137206376D01*
X159258592Y-137233584D01*
X159243728Y-137260883D01*
X159228906Y-137288273D01*
X159214125Y-137315754D01*
X159199386Y-137343325D01*
X159184689Y-137370988D01*
X159170034Y-137398742D01*
X159155421Y-137426587D01*
X159140851Y-137454524D01*
X159126322Y-137482553D01*
X159111836Y-137510674D01*
X159097392Y-137538886D01*
X159082991Y-137567191D01*
X159068633Y-137595588D01*
X159054317Y-137624078D01*
X159040045Y-137652660D01*
X159025815Y-137681334D01*
X159011629Y-137710102D01*
X158997486Y-137738963D01*
X158983386Y-137767916D01*
X158969329Y-137796963D01*
X158955317Y-137826103D01*
X158941347Y-137855337D01*
X158927422Y-137884665D01*
X158913541Y-137914086D01*
X158899704Y-137943601D01*
X158885910Y-137973210D01*
X158872162Y-138002913D01*
X158858457Y-138032710D01*
X158844797Y-138062602D01*
X158831182Y-138092588D01*
X158817612Y-138122669D01*
X158804086Y-138152844D01*
X158790606Y-138183115D01*
X158777171Y-138213480D01*
X158763781Y-138243940D01*
X158750436Y-138274496D01*
X158737137Y-138305147D01*
X158723884Y-138335893D01*
X158710677Y-138366735D01*
X158697515Y-138397672D01*
X158684400Y-138428705D01*
X158671331Y-138459834D01*
X158658308Y-138491059D01*
X158645332Y-138522380D01*
X158632402Y-138553797D01*
X158619519Y-138585310D01*
X158606683Y-138616919D01*
X158593895Y-138648625D01*
X158581153Y-138680427D01*
X158568459Y-138712326D01*
X158555812Y-138744322D01*
X158543213Y-138776414D01*
X158530662Y-138808603D01*
X158518159Y-138840889D01*
X158505704Y-138873272D01*
X158493297Y-138905752D01*
X158480938Y-138938329D01*
X158468628Y-138971004D01*
X158456367Y-139003775D01*
X158444155Y-139036644D01*
X158431992Y-139069610D01*
X158419877Y-139102674D01*
X158407813Y-139135835D01*
X158395797Y-139169094D01*
X158383832Y-139202450D01*
X158371916Y-139235904D01*
X158360050Y-139269456D01*
X158348235Y-139303106D01*
X158336469Y-139336853D01*
X158324755Y-139370698D01*
X158313090Y-139404641D01*
X158301477Y-139438681D01*
X158289915Y-139472820D01*
X158278403Y-139507057D01*
X158266943Y-139541391D01*
X158255535Y-139575824D01*
X158244178Y-139610354D01*
X158232873Y-139644983D01*
X158221621Y-139679709D01*
X158210420Y-139714534D01*
X158199272Y-139749456D01*
X158188176Y-139784477D01*
X158177133Y-139819595D01*
X158166143Y-139854811D01*
X158155206Y-139890126D01*
X158144322Y-139925538D01*
X158133491Y-139961048D01*
X158122715Y-139996656D01*
X158111992Y-140032362D01*
X158101323Y-140068165D01*
X158090708Y-140104067D01*
X158080148Y-140140066D01*
X158069642Y-140176162D01*
X158059191Y-140212357D01*
X158048795Y-140248648D01*
X158038454Y-140285037D01*
X158028169Y-140321524D01*
X158017939Y-140358108D01*
X158007764Y-140394789D01*
X157997646Y-140431567D01*
X157987584Y-140468442D01*
X157977578Y-140505414D01*
X157967628Y-140542482D01*
X157957736Y-140579648D01*
X157947900Y-140616910D01*
X157938121Y-140654268D01*
X157928400Y-140691723D01*
X157918736Y-140729274D01*
X157909129Y-140766920D01*
X157899581Y-140804663D01*
X157890091Y-140842501D01*
X157880659Y-140880435D01*
X157871286Y-140918464D01*
X157861972Y-140956588D01*
X157852716Y-140994807D01*
X157843520Y-141033121D01*
X157834383Y-141071529D01*
X157825306Y-141110031D01*
X157816288Y-141148628D01*
X157807331Y-141187318D01*
X157798433Y-141226102D01*
X157789597Y-141264980D01*
X157780821Y-141303950D01*
X157772105Y-141343013D01*
X157763451Y-141382169D01*
X157754859Y-141421416D01*
X157746328Y-141460756D01*
X157737858Y-141500187D01*
X157729451Y-141539710D01*
X157721106Y-141579323D01*
X157712823Y-141619027D01*
X157704603Y-141658821D01*
X157696446Y-141698705D01*
X157688352Y-141738678D01*
X157680322Y-141778741D01*
X157672355Y-141818892D01*
X157664452Y-141859131D01*
X157656612Y-141899458D01*
X157648838Y-141939872D01*
X157641127Y-141980373D01*
X157633482Y-142020961D01*
X157625901Y-142061634D01*
X157618386Y-142102393D01*
X157610936Y-142143236D01*
X157603552Y-142184164D01*
X157596234Y-142225175D01*
X157588982Y-142266270D01*
X157581796Y-142307447D01*
X157574677Y-142348706D01*
X157567625Y-142390047D01*
X157560640Y-142431468D01*
X157553722Y-142472969D01*
X157546872Y-142514549D01*
X157540090Y-142556208D01*
X157533376Y-142597945D01*
X157526730Y-142639759D01*
X157520153Y-142681649D01*
X157513644Y-142723615D01*
X157507205Y-142765656D01*
X157500835Y-142807770D01*
X157494535Y-142849958D01*
X157488304Y-142892218D01*
X157482144Y-142934548D01*
X157476053Y-142976949D01*
X157470034Y-143019420D01*
X157464085Y-143061958D01*
X157458207Y-143104564D01*
X157452400Y-143147236D01*
X157446665Y-143189973D01*
X157441002Y-143232774D01*
X157435411Y-143275638D01*
X157429892Y-143318564D01*
X157424446Y-143361550D01*
X157419072Y-143404594D01*
X157413772Y-143447697D01*
X157408544Y-143490856D01*
X157403391Y-143534071D01*
X157398311Y-143577338D01*
X157393305Y-143620658D01*
X157388373Y-143664029D01*
X157383516Y-143707449D01*
X157378734Y-143750916D01*
X157374027Y-143794429D01*
X157369395Y-143837986D01*
X157364839Y-143881585D01*
X157360358Y-143925225D01*
X157355954Y-143968903D01*
X157351626Y-144012619D01*
X157347374Y-144056368D01*
X157343199Y-144100151D01*
X157339101Y-144143964D01*
X157335080Y-144187805D01*
X157331137Y-144231672D01*
X157327271Y-144275563D01*
X157323484Y-144319475D01*
X157319774Y-144363405D01*
X157316143Y-144407352D01*
X157312591Y-144451312D01*
X157309117Y-144495283D01*
X157305723Y-144539262D01*
X157302408Y-144583245D01*
X157299172Y-144627230D01*
X157296017Y-144671213D01*
X157292941Y-144715192D01*
X157289945Y-144759162D01*
X157287030Y-144803121D01*
X157284196Y-144847063D01*
X157281442Y-144890987D01*
X157278769Y-144934887D01*
X157276177Y-144978760D01*
X157273667Y-145022601D01*
X157271238Y-145066405D01*
X157268891Y-145110168D01*
X157266626Y-145153886D01*
X157264443Y-145197553D01*
X157262342Y-145241163D01*
X157260323Y-145284712D01*
X157258387Y-145328193D01*
X157256533Y-145371601D01*
X157254762Y-145414929D01*
X157253074Y-145458171D01*
X157251469Y-145501319D01*
X157249946Y-145544367D01*
X157248506Y-145587307D01*
X157247150Y-145630130D01*
X157245876Y-145672829D01*
X157244686Y-145715395D01*
X157243578Y-145757818D01*
X157242554Y-145800089D01*
X157241612Y-145842196D01*
X157240753Y-145884130D01*
X157239977Y-145925878D01*
X157239283Y-145967428D01*
X157238671Y-146008767D01*
X157238142Y-146049881D01*
X157237694Y-146090754D01*
X157237328Y-146131371D01*
X157237042Y-146171715D01*
X157236837Y-146211766D01*
X157236712Y-146251505D01*
X157236667Y-146290911D01*
X157236700Y-146329959D01*
X157236811Y-146368625D01*
X157236999Y-146406880D01*
X157237262Y-146444693D01*
X157237600Y-146482031D01*
X157238011Y-146518856D01*
X157238493Y-146555125D01*
X157239045Y-146590792D01*
X157239663Y-146625803D01*
X157240346Y-146660096D01*
X157241089Y-146693601D01*
X157241890Y-146726234D01*
X157242742Y-146757896D01*
X157243640Y-146788466D01*
X157244576Y-146817797D01*
X157245540Y-146845696D01*
X157246518Y-146871909D01*
X157247490Y-146896078D01*
X157248425Y-146917656D01*
X157249269Y-146935685D01*
X157250000Y-146950000D01*
D10*
X166250000Y-132450000D02*
X166250000Y-65450000D01*
M02*
