%TF.GenerationSoftware,KiCad,Pcbnew,10.0.4*%
%TF.CreationDate,2026-07-14T23:39:10-04:00*%
%TF.ProjectId,smart-doorbell,736d6172-742d-4646-9f6f-7262656c6c2e,B*%
%TF.SameCoordinates,Original*%
%TF.FileFunction,Profile,NP*%
%FSLAX46Y46*%
G04 Gerber Fmt 4.6, Leading zero omitted, Abs format (unit mm)*
G04 Created by KiCad (PCBNEW 10.0.4) date 2026-07-14 23:39:10*
%MOMM*%
%LPD*%
G01*
G04 APERTURE LIST*
%TA.AperFunction,Profile*%
%ADD10C,0.050000*%
%TD*%
%ADD11C,0.050000*%
G04 APERTURE END LIST*
D10*
X107250000Y-65450000D02*
X107250000Y-55950000D01*
X107250000Y-65450000D02*
X107250000Y-125450000D01*
D11*
X107250000Y-125450000D02*
X107269779Y-125451329D01*
X107289535Y-125452676D01*
X107309262Y-125454041D01*
X107328966Y-125455425D01*
X107348641Y-125456826D01*
X107368293Y-125458246D01*
X107387917Y-125459684D01*
X107407518Y-125461141D01*
X107427090Y-125462615D01*
X107446639Y-125464108D01*
X107466160Y-125465618D01*
X107485658Y-125467147D01*
X107505128Y-125468694D01*
X107524575Y-125470259D01*
X107543993Y-125471841D01*
X107563389Y-125473442D01*
X107582757Y-125475061D01*
X107602102Y-125476698D01*
X107621418Y-125478352D01*
X107640712Y-125480025D01*
X107659978Y-125481715D01*
X107679222Y-125483423D01*
X107698437Y-125485149D01*
X107717630Y-125486893D01*
X107736794Y-125488654D01*
X107755937Y-125490434D01*
X107775051Y-125492231D01*
X107794143Y-125494046D01*
X107813207Y-125495878D01*
X107832249Y-125497728D01*
X107851263Y-125499596D01*
X107870254Y-125501482D01*
X107889218Y-125503385D01*
X107908159Y-125505305D01*
X107927073Y-125507244D01*
X107945965Y-125509199D01*
X107964829Y-125511173D01*
X107983671Y-125513164D01*
X108002485Y-125515172D01*
X108021278Y-125517198D01*
X108040043Y-125519241D01*
X108058785Y-125521301D01*
X108077501Y-125523379D01*
X108096194Y-125525475D01*
X108114860Y-125527587D01*
X108133504Y-125529717D01*
X108152121Y-125531865D01*
X108170715Y-125534029D01*
X108189283Y-125536211D01*
X108207829Y-125538410D01*
X108226348Y-125540627D01*
X108244844Y-125542860D01*
X108263314Y-125545111D01*
X108281762Y-125547379D01*
X108300183Y-125549664D01*
X108318582Y-125551966D01*
X108336955Y-125554286D01*
X108355305Y-125556622D01*
X108373629Y-125558976D01*
X108391931Y-125561346D01*
X108410207Y-125563734D01*
X108428461Y-125566138D01*
X108446688Y-125568560D01*
X108464893Y-125570998D01*
X108483072Y-125573454D01*
X108501230Y-125575926D01*
X108519361Y-125578415D01*
X108537470Y-125580922D01*
X108555553Y-125583445D01*
X108573614Y-125585985D01*
X108591649Y-125588541D01*
X108609663Y-125591115D01*
X108627650Y-125593705D01*
X108645616Y-125596312D01*
X108663556Y-125598936D01*
X108681474Y-125601577D01*
X108699367Y-125604234D01*
X108717237Y-125606908D01*
X108735083Y-125609599D01*
X108752906Y-125612306D01*
X108770704Y-125615030D01*
X108788480Y-125617770D01*
X108806230Y-125620527D01*
X108823959Y-125623301D01*
X108841663Y-125626091D01*
X108859345Y-125628898D01*
X108877002Y-125631722D01*
X108894637Y-125634562D01*
X108912247Y-125637418D01*
X108929835Y-125640291D01*
X108947398Y-125643180D01*
X108964940Y-125646085D01*
X108982456Y-125649007D01*
X108999952Y-125651946D01*
X109017422Y-125654901D01*
X109034870Y-125657872D01*
X109052294Y-125660859D01*
X109069696Y-125663863D01*
X109087074Y-125666883D01*
X109104430Y-125669920D01*
X109121761Y-125672972D01*
X109139071Y-125676041D01*
X109156356Y-125679126D01*
X109173620Y-125682228D01*
X109190860Y-125685345D01*
X109208078Y-125688479D01*
X109225271Y-125691629D01*
X109242444Y-125694795D01*
X109259592Y-125697977D01*
X109276718Y-125701175D01*
X109293821Y-125704389D01*
X109310902Y-125707620D01*
X109327959Y-125710866D01*
X109344994Y-125714129D01*
X109362006Y-125717407D01*
X109378996Y-125720701D01*
X109395962Y-125724012D01*
X109412907Y-125727338D01*
X109429828Y-125730680D01*
X109446728Y-125734039D01*
X109463604Y-125737413D01*
X109480459Y-125740803D01*
X109497290Y-125744209D01*
X109514101Y-125747631D01*
X109530887Y-125751068D01*
X109547652Y-125754522D01*
X109564394Y-125757991D01*
X109581114Y-125761476D01*
X109597811Y-125764977D01*
X109614487Y-125768494D01*
X109631140Y-125772026D01*
X109647772Y-125775574D01*
X109664380Y-125779138D01*
X109680967Y-125782717D01*
X109697531Y-125786312D01*
X109714074Y-125789923D01*
X109730593Y-125793550D01*
X109747092Y-125797192D01*
X109763568Y-125800849D01*
X109780023Y-125804523D01*
X109796454Y-125808212D01*
X109812865Y-125811916D01*
X109829253Y-125815636D01*
X109845620Y-125819372D01*
X109861964Y-125823123D01*
X109878288Y-125826889D01*
X109894588Y-125830671D01*
X109910868Y-125834469D01*
X109927125Y-125838282D01*
X109943362Y-125842110D01*
X109959575Y-125845954D01*
X109975768Y-125849813D01*
X109991938Y-125853688D01*
X110008088Y-125857578D01*
X110024215Y-125861483D01*
X110040322Y-125865404D01*
X110056405Y-125869340D01*
X110072469Y-125873291D01*
X110088510Y-125877258D01*
X110104530Y-125881240D01*
X110120528Y-125885237D01*
X110136506Y-125889250D01*
X110152461Y-125893277D01*
X110168396Y-125897320D01*
X110184309Y-125901378D01*
X110200201Y-125905452D01*
X110216071Y-125909540D01*
X110231921Y-125913644D01*
X110247749Y-125917763D01*
X110263556Y-125921897D01*
X110279341Y-125926046D01*
X110295106Y-125930210D01*
X110310849Y-125934390D01*
X110326572Y-125938584D01*
X110342273Y-125942794D01*
X110357953Y-125947018D01*
X110373612Y-125951258D01*
X110389251Y-125955513D01*
X110404867Y-125959782D01*
X110420464Y-125964067D01*
X110436039Y-125968366D01*
X110451594Y-125972681D01*
X110467127Y-125977011D01*
X110482641Y-125981355D01*
X110498132Y-125985715D01*
X110513604Y-125990089D01*
X110529054Y-125994478D01*
X110544484Y-125998883D01*
X110559893Y-126003302D01*
X110575281Y-126007736D01*
X110590649Y-126012184D01*
X110605996Y-126016648D01*
X110621322Y-126021126D01*
X110636628Y-126025620D01*
X110651913Y-126030128D01*
X110667178Y-126034651D01*
X110682422Y-126039188D01*
X110697647Y-126043741D01*
X110712850Y-126048308D01*
X110728033Y-126052890D01*
X110743195Y-126057486D01*
X110758338Y-126062098D01*
X110773459Y-126066724D01*
X110788561Y-126071364D01*
X110803642Y-126076020D01*
X110818703Y-126080690D01*
X110833743Y-126085375D01*
X110848764Y-126090074D01*
X110863764Y-126094788D01*
X110878744Y-126099517D01*
X110893704Y-126104260D01*
X110908644Y-126109017D01*
X110923563Y-126113790D01*
X110938463Y-126118577D01*
X110953342Y-126123378D01*
X110968202Y-126128194D01*
X110983041Y-126133025D01*
X110997861Y-126137870D01*
X111012661Y-126142729D01*
X111027440Y-126147604D01*
X111042200Y-126152492D01*
X111056940Y-126157395D01*
X111071660Y-126162313D01*
X111086360Y-126167245D01*
X111101040Y-126172191D01*
X111115701Y-126177152D01*
X111130342Y-126182127D01*
X111144963Y-126187117D01*
X111159564Y-126192121D01*
X111174146Y-126197139D01*
X111188708Y-126202172D01*
X111203251Y-126207219D01*
X111217773Y-126212281D01*
X111232277Y-126217357D01*
X111246760Y-126222447D01*
X111261224Y-126227552D01*
X111275669Y-126232671D01*
X111290094Y-126237804D01*
X111304500Y-126242951D01*
X111318886Y-126248113D01*
X111333252Y-126253289D01*
X111347600Y-126258479D01*
X111361928Y-126263684D01*
X111376237Y-126268903D01*
X111390526Y-126274136D01*
X111404796Y-126279383D01*
X111419047Y-126284644D01*
X111433278Y-126289920D01*
X111447490Y-126295210D01*
X111461683Y-126300514D01*
X111475857Y-126305832D01*
X111490012Y-126311164D01*
X111504148Y-126316511D01*
X111518264Y-126321871D01*
X111532362Y-126327246D01*
X111546440Y-126332635D01*
X111560499Y-126338038D01*
X111574539Y-126343455D01*
X111588561Y-126348886D01*
X111602563Y-126354332D01*
X111616546Y-126359791D01*
X111630511Y-126365265D01*
X111644456Y-126370752D01*
X111658383Y-126376254D01*
X111672291Y-126381769D01*
X111686180Y-126387299D01*
X111700050Y-126392843D01*
X111713901Y-126398400D01*
X111727734Y-126403972D01*
X111741547Y-126409558D01*
X111755343Y-126415158D01*
X111769119Y-126420771D01*
X111782877Y-126426399D01*
X111796616Y-126432041D01*
X111810337Y-126437696D01*
X111824038Y-126443366D01*
X111837722Y-126449049D01*
X111851386Y-126454747D01*
X111865033Y-126460458D01*
X111878660Y-126466184D01*
X111892270Y-126471923D01*
X111905860Y-126477676D01*
X111919433Y-126483443D01*
X111932986Y-126489224D01*
X111946522Y-126495019D01*
X111960039Y-126500827D01*
X111973538Y-126506650D01*
X111987018Y-126512486D01*
X112000480Y-126518337D01*
X112013924Y-126524201D01*
X112027350Y-126530079D01*
X112040757Y-126535971D01*
X112054146Y-126541876D01*
X112067516Y-126547796D01*
X112080869Y-126553729D01*
X112094204Y-126559676D01*
X112107520Y-126565637D01*
X112120818Y-126571612D01*
X112134099Y-126577600D01*
X112147360Y-126583602D01*
X112160605Y-126589618D01*
X112173830Y-126595648D01*
X112187039Y-126601692D01*
X112200228Y-126607749D01*
X112213401Y-126613820D01*
X112226555Y-126619905D01*
X112239691Y-126626003D01*
X112252809Y-126632115D01*
X112265910Y-126638241D01*
X112278992Y-126644381D01*
X112292057Y-126650535D01*
X112305104Y-126656701D01*
X112318133Y-126662882D01*
X112331144Y-126669077D01*
X112344138Y-126675285D01*
X112357114Y-126681507D01*
X112370072Y-126687743D01*
X112383012Y-126693992D01*
X112395935Y-126700255D01*
X112408840Y-126706531D01*
X112421728Y-126712822D01*
X112434598Y-126719125D01*
X112447450Y-126725443D01*
X112460285Y-126731774D01*
X112473102Y-126738119D01*
X112485902Y-126744477D01*
X112498684Y-126750849D01*
X112511449Y-126757235D01*
X112524196Y-126763634D01*
X112536926Y-126770047D01*
X112549639Y-126776474D01*
X112562333Y-126782914D01*
X112575011Y-126789368D01*
X112587671Y-126795835D01*
X112600315Y-126802316D01*
X112612940Y-126808810D01*
X112625549Y-126815318D01*
X112638139Y-126821840D01*
X112650714Y-126828375D01*
X112663270Y-126834924D01*
X112675810Y-126841487D01*
X112688331Y-126848062D01*
X112700837Y-126854652D01*
X112713324Y-126861255D01*
X112725795Y-126867872D01*
X112738248Y-126874501D01*
X112750686Y-126881145D01*
X112763104Y-126887802D01*
X112775507Y-126894474D01*
X112787892Y-126901158D01*
X112800261Y-126907856D01*
X112812612Y-126914567D01*
X112824947Y-126921292D01*
X112837263Y-126928030D01*
X112849565Y-126934782D01*
X112861847Y-126941547D01*
X112874115Y-126948327D01*
X112886364Y-126955119D01*
X112898597Y-126961925D01*
X112910813Y-126968744D01*
X112923013Y-126975578D01*
X112935194Y-126982424D01*
X112947361Y-126989284D01*
X112959509Y-126996157D01*
X112971642Y-127003045D01*
X112983756Y-127009945D01*
X112995856Y-127016859D01*
X113007937Y-127023786D01*
X113020003Y-127030727D01*
X113032051Y-127037681D01*
X113044084Y-127044650D01*
X113056099Y-127051631D01*
X113068098Y-127058626D01*
X113080080Y-127065634D01*
X113092046Y-127072656D01*
X113103994Y-127079691D01*
X113115928Y-127086740D01*
X113127843Y-127093802D01*
X113139744Y-127100878D01*
X113151626Y-127107967D01*
X113163493Y-127115070D01*
X113175343Y-127122185D01*
X113187178Y-127129315D01*
X113198994Y-127136458D01*
X113210796Y-127143615D01*
X113222580Y-127150784D01*
X113234349Y-127157968D01*
X113246101Y-127165164D01*
X113257837Y-127172375D01*
X113269556Y-127179598D01*
X113281260Y-127186836D01*
X113292946Y-127194086D01*
X113304618Y-127201350D01*
X113316271Y-127208627D01*
X113327911Y-127215919D01*
X113339532Y-127223223D01*
X113351139Y-127230541D01*
X113362728Y-127237872D01*
X113385859Y-127252575D01*
X113408926Y-127267332D01*
X113431928Y-127282142D01*
X113454867Y-127297007D01*
X113477742Y-127311925D01*
X113500552Y-127326897D01*
X113523299Y-127341922D01*
X113545983Y-127357002D01*
X113568603Y-127372135D01*
X113591160Y-127387323D01*
X113613653Y-127402564D01*
X113636084Y-127417859D01*
X113658451Y-127433207D01*
X113680756Y-127448610D01*
X113702998Y-127464067D01*
X113725178Y-127479577D01*
X113747295Y-127495141D01*
X113769350Y-127510760D01*
X113791343Y-127526432D01*
X113813274Y-127542158D01*
X113835143Y-127557938D01*
X113856950Y-127573772D01*
X113878695Y-127589660D01*
X113900379Y-127605603D01*
X113922002Y-127621599D01*
X113943563Y-127637649D01*
X113965063Y-127653754D01*
X113986502Y-127669912D01*
X114007880Y-127686125D01*
X114029197Y-127702392D01*
X114050453Y-127718713D01*
X114071649Y-127735088D01*
X114092784Y-127751518D01*
X114113859Y-127768002D01*
X114134874Y-127784540D01*
X114155828Y-127801133D01*
X114176723Y-127817780D01*
X114197557Y-127834481D01*
X114218332Y-127851238D01*
X114239046Y-127868048D01*
X114259702Y-127884913D01*
X114280297Y-127901833D01*
X114300834Y-127918807D01*
X114321310Y-127935836D01*
X114341728Y-127952920D01*
X114362087Y-127970058D01*
X114382386Y-127987252D01*
X114402627Y-128004500D01*
X114422809Y-128021803D01*
X114442932Y-128039161D01*
X114462996Y-128056574D01*
X114483002Y-128074042D01*
X114502950Y-128091565D01*
X114522839Y-128109143D01*
X114542669Y-128126777D01*
X114562442Y-128144466D01*
X114582157Y-128162210D01*
X114601813Y-128180009D01*
X114621412Y-128197864D01*
X114640953Y-128215774D01*
X114660436Y-128233740D01*
X114679862Y-128251761D01*
X114699229Y-128269838D01*
X114718540Y-128287971D01*
X114737793Y-128306160D01*
X114756989Y-128324404D01*
X114776127Y-128342704D01*
X114795209Y-128361061D01*
X114814233Y-128379473D01*
X114833200Y-128397941D01*
X114852111Y-128416466D01*
X114870964Y-128435046D01*
X114889761Y-128453683D01*
X114908501Y-128472377D01*
X114927185Y-128491127D01*
X114945812Y-128509933D01*
X114964382Y-128528796D01*
X114982896Y-128547716D01*
X115001354Y-128566692D01*
X115019755Y-128585725D01*
X115038100Y-128604815D01*
X115056389Y-128623962D01*
X115074622Y-128643166D01*
X115092799Y-128662427D01*
X115110920Y-128681745D01*
X115128985Y-128701121D01*
X115146995Y-128720554D01*
X115164948Y-128740044D01*
X115182846Y-128759592D01*
X115200688Y-128779197D01*
X115218475Y-128798860D01*
X115236206Y-128818581D01*
X115253881Y-128838360D01*
X115271501Y-128858197D01*
X115289066Y-128878091D01*
X115306575Y-128898044D01*
X115324030Y-128918055D01*
X115341428Y-128938125D01*
X115358772Y-128958252D01*
X115376061Y-128978439D01*
X115393294Y-128998683D01*
X115410473Y-129018987D01*
X115427596Y-129039349D01*
X115444664Y-129059770D01*
X115461678Y-129080250D01*
X115478637Y-129100790D01*
X115495540Y-129121388D01*
X115512390Y-129142045D01*
X115529184Y-129162762D01*
X115545923Y-129183539D01*
X115562608Y-129204374D01*
X115579238Y-129225270D01*
X115595814Y-129246225D01*
X115612335Y-129267240D01*
X115628801Y-129288315D01*
X115645213Y-129309451D01*
X115661571Y-129330646D01*
X115677874Y-129351902D01*
X115694122Y-129373218D01*
X115710316Y-129394594D01*
X115726456Y-129416031D01*
X115742542Y-129437529D01*
X115758573Y-129459088D01*
X115774549Y-129480707D01*
X115790472Y-129502388D01*
X115806340Y-129524130D01*
X115822154Y-129545933D01*
X115837913Y-129567797D01*
X115853619Y-129589723D01*
X115869270Y-129611710D01*
X115884867Y-129633760D01*
X115900410Y-129655871D01*
X115915898Y-129678044D01*
X115931333Y-129700279D01*
X115946713Y-129722576D01*
X115962039Y-129744936D01*
X115977311Y-129767358D01*
X115992529Y-129789842D01*
X116007693Y-129812390D01*
X116022803Y-129835000D01*
X116037858Y-129857673D01*
X116052860Y-129880409D01*
X116067807Y-129903208D01*
X116082700Y-129926070D01*
X116097540Y-129948996D01*
X116112325Y-129971985D01*
X116127056Y-129995039D01*
X116141732Y-130018155D01*
X116156355Y-130041336D01*
X116170924Y-130064581D01*
X116185438Y-130087890D01*
X116199898Y-130111263D01*
X116214304Y-130134701D01*
X116228656Y-130158203D01*
X116242954Y-130181770D01*
X116257198Y-130205402D01*
X116271387Y-130229098D01*
X116285522Y-130252860D01*
X116299603Y-130276687D01*
X116313630Y-130300579D01*
X116327603Y-130324537D01*
X116341521Y-130348561D01*
X116355385Y-130372650D01*
X116369194Y-130396805D01*
X116382949Y-130421026D01*
X116396650Y-130445313D01*
X116410297Y-130469667D01*
X116423889Y-130494087D01*
X116437426Y-130518573D01*
X116450909Y-130543126D01*
X116464338Y-130567747D01*
X116477712Y-130592434D01*
X116491032Y-130617188D01*
X116504297Y-130642009D01*
X116517507Y-130666898D01*
X116530662Y-130691854D01*
X116543763Y-130716879D01*
X116556810Y-130741971D01*
X116569801Y-130767130D01*
X116582738Y-130792358D01*
X116595620Y-130817655D01*
X116608446Y-130843019D01*
X116621218Y-130868453D01*
X116633935Y-130893954D01*
X116646598Y-130919525D01*
X116659204Y-130945165D01*
X116671756Y-130970874D01*
X116684253Y-130996652D01*
X116696695Y-131022499D01*
X116709081Y-131048416D01*
X116721412Y-131074403D01*
X116733687Y-131100460D01*
X116745908Y-131126586D01*
X116758073Y-131152783D01*
X116770182Y-131179050D01*
X116782236Y-131205388D01*
X116794234Y-131231796D01*
X116806176Y-131258275D01*
X116818063Y-131284825D01*
X116829894Y-131311445D01*
X116841669Y-131338138D01*
X116853388Y-131364901D01*
X116865052Y-131391736D01*
X116876659Y-131418642D01*
X116888210Y-131445621D01*
X116899705Y-131472671D01*
X116911144Y-131499793D01*
X116922526Y-131526988D01*
X116933852Y-131554255D01*
X116945122Y-131581594D01*
X116956335Y-131609007D01*
X116967492Y-131636492D01*
X116978591Y-131664050D01*
X116989635Y-131691681D01*
X117000621Y-131719386D01*
X117011551Y-131747164D01*
X117022423Y-131775016D01*
X117033239Y-131802941D01*
X117043998Y-131830941D01*
X117054699Y-131859014D01*
X117065343Y-131887162D01*
X117075930Y-131915384D01*
X117086459Y-131943681D01*
X117096931Y-131972052D01*
X117107345Y-132000499D01*
X117117702Y-132029020D01*
X117128001Y-132057617D01*
X117138242Y-132086288D01*
X117148425Y-132115036D01*
X117158550Y-132143859D01*
X117168617Y-132172757D01*
X117178626Y-132201732D01*
X117188576Y-132230783D01*
X117198468Y-132259910D01*
X117208302Y-132289113D01*
X117218077Y-132318393D01*
X117227793Y-132347750D01*
X117237451Y-132377184D01*
X117247050Y-132406694D01*
X117256590Y-132436282D01*
X117266070Y-132465947D01*
X117275492Y-132495690D01*
X117284854Y-132525510D01*
X117294157Y-132555408D01*
X117303401Y-132585384D01*
X117312585Y-132615439D01*
X117321709Y-132645571D01*
X117330773Y-132675782D01*
X117339778Y-132706071D01*
X117348723Y-132736440D01*
X117357607Y-132766887D01*
X117366432Y-132797413D01*
X117375196Y-132828018D01*
X117383899Y-132858703D01*
X117392542Y-132889467D01*
X117401125Y-132920311D01*
X117409646Y-132951234D01*
X117418107Y-132982238D01*
X117426507Y-133013322D01*
X117434845Y-133044486D01*
X117443123Y-133075730D01*
X117451339Y-133107055D01*
X117459494Y-133138461D01*
X117467587Y-133169947D01*
X117475618Y-133201515D01*
X117483587Y-133233164D01*
X117491495Y-133264894D01*
X117499340Y-133296706D01*
X117507124Y-133328599D01*
X117514844Y-133360574D01*
X117522503Y-133392631D01*
X117530099Y-133424770D01*
X117537632Y-133456991D01*
X117545102Y-133489295D01*
X117552510Y-133521681D01*
X117559854Y-133554150D01*
X117567135Y-133586701D01*
X117574353Y-133619336D01*
X117581507Y-133652054D01*
X117588598Y-133684855D01*
X117595625Y-133717739D01*
X117602588Y-133750707D01*
X117609487Y-133783759D01*
X117616322Y-133816894D01*
X117623093Y-133850114D01*
X117629799Y-133883417D01*
X117636440Y-133916805D01*
X117643017Y-133950277D01*
X117649529Y-133983834D01*
X117655976Y-134017476D01*
X117662358Y-134051202D01*
X117668675Y-134085013D01*
X117674926Y-134118910D01*
X117681112Y-134152891D01*
X117687232Y-134186958D01*
X117693286Y-134221111D01*
X117699274Y-134255349D01*
X117705196Y-134289673D01*
X117711052Y-134324083D01*
X117716841Y-134358579D01*
X117722564Y-134393161D01*
X117728220Y-134427829D01*
X117733809Y-134462584D01*
X117739331Y-134497426D01*
X117744786Y-134532354D01*
X117750174Y-134567369D01*
X117755494Y-134602471D01*
X117760747Y-134637660D01*
X117765931Y-134672937D01*
X117771048Y-134708300D01*
X117776097Y-134743752D01*
X117781077Y-134779291D01*
X117785989Y-134814917D01*
X117790833Y-134850631D01*
X117795607Y-134886434D01*
X117800313Y-134922324D01*
X117804950Y-134958303D01*
X117809518Y-134994370D01*
X117814016Y-135030525D01*
X117818445Y-135066769D01*
X117822804Y-135103102D01*
X117827093Y-135139523D01*
X117831312Y-135176033D01*
X117835461Y-135212633D01*
X117839540Y-135249321D01*
X117843548Y-135286099D01*
X117847486Y-135322965D01*
X117851353Y-135359922D01*
X117855149Y-135396968D01*
X117858873Y-135434103D01*
X117862527Y-135471329D01*
X117866108Y-135508644D01*
X117869619Y-135546049D01*
X117873057Y-135583544D01*
X117876424Y-135621129D01*
X117879718Y-135658804D01*
X117882940Y-135696570D01*
X117886089Y-135734426D01*
X117889166Y-135772373D01*
X117892170Y-135810410D01*
X117895101Y-135848538D01*
X117897959Y-135886757D01*
X117900744Y-135925066D01*
X117903455Y-135963467D01*
X117906092Y-136001958D01*
X117908655Y-136040541D01*
X117911145Y-136079214D01*
X117913560Y-136117979D01*
X117915901Y-136156835D01*
X117918167Y-136195783D01*
X117920359Y-136234822D01*
X117922476Y-136273953D01*
X117924517Y-136313175D01*
X117926484Y-136352488D01*
X117928375Y-136391894D01*
X117930190Y-136431391D01*
X117931930Y-136470980D01*
X117933594Y-136510661D01*
X117935181Y-136550434D01*
X117936693Y-136590298D01*
X117938128Y-136630255D01*
X117939486Y-136670304D01*
X117940767Y-136710445D01*
X117941972Y-136750678D01*
X117943099Y-136791003D01*
X117944149Y-136831420D01*
X117945121Y-136871930D01*
X117946016Y-136912532D01*
X117946833Y-136953226D01*
X117947572Y-136994012D01*
X117948232Y-137034891D01*
X117948815Y-137075863D01*
X117949318Y-137116926D01*
X117949743Y-137158082D01*
X117950089Y-137199331D01*
X117950356Y-137240671D01*
X117950543Y-137282105D01*
X117950651Y-137323630D01*
X117950679Y-137365248D01*
X117950628Y-137406959D01*
X117950497Y-137448762D01*
X117950285Y-137490657D01*
X117949993Y-137532645D01*
X117949621Y-137574725D01*
X117949167Y-137616897D01*
X117948633Y-137659161D01*
X117948018Y-137701518D01*
X117947322Y-137743968D01*
X117946544Y-137786509D01*
X117945685Y-137829142D01*
X117944744Y-137871868D01*
X117943721Y-137914686D01*
X117942616Y-137957596D01*
X117941429Y-138000597D01*
X117940159Y-138043691D01*
X117938807Y-138086876D01*
X117937372Y-138130154D01*
X117935853Y-138173522D01*
X117934252Y-138216983D01*
X117932568Y-138260535D01*
X117930800Y-138304179D01*
X117928948Y-138347914D01*
X117927013Y-138391740D01*
X117924994Y-138435657D01*
X117922890Y-138479666D01*
X117920703Y-138523765D01*
X117918430Y-138567955D01*
X117916074Y-138612236D01*
X117913632Y-138656607D01*
X117911105Y-138701069D01*
X117908494Y-138745622D01*
X117905797Y-138790264D01*
X117903015Y-138834996D01*
X117900147Y-138879819D01*
X117897193Y-138924731D01*
X117894153Y-138969732D01*
X117891028Y-139014823D01*
X117887816Y-139060003D01*
X117884518Y-139105272D01*
X117881133Y-139150630D01*
X117877661Y-139196076D01*
X117874103Y-139241611D01*
X117870458Y-139287234D01*
X117866726Y-139332945D01*
X117862906Y-139378744D01*
X117858999Y-139424630D01*
X117855004Y-139470604D01*
X117850922Y-139516664D01*
X117846752Y-139562811D01*
X117842494Y-139609045D01*
X117838148Y-139655365D01*
X117833714Y-139701771D01*
X117829191Y-139748262D01*
X117824580Y-139794839D01*
X117819880Y-139841501D01*
X117815091Y-139888248D01*
X117810214Y-139935078D01*
X117805247Y-139981993D01*
X117800192Y-140028992D01*
X117795047Y-140076074D01*
X117789813Y-140123239D01*
X117784489Y-140170486D01*
X117779076Y-140217816D01*
X117773573Y-140265228D01*
X117767981Y-140312721D01*
X117762298Y-140360295D01*
X117756526Y-140407949D01*
X117750663Y-140455684D01*
X117744710Y-140503498D01*
X117738667Y-140551392D01*
X117732534Y-140599364D01*
X117726310Y-140647414D01*
X117719996Y-140695542D01*
X117713591Y-140743748D01*
X117707095Y-140792030D01*
X117700509Y-140840388D01*
X117693832Y-140888822D01*
X117687064Y-140937330D01*
X117680205Y-140985913D01*
X117673255Y-141034570D01*
X117666214Y-141083300D01*
X117659082Y-141132103D01*
X117651859Y-141180977D01*
X117644544Y-141229923D01*
X117637139Y-141278939D01*
X117629642Y-141328025D01*
X117622054Y-141377181D01*
X117614375Y-141426404D01*
X117606605Y-141475695D01*
X117598743Y-141525053D01*
X117590790Y-141574477D01*
X117582746Y-141623967D01*
X117574611Y-141673520D01*
X117566384Y-141723137D01*
X117558066Y-141772817D01*
X117549657Y-141822558D01*
X117541157Y-141872361D01*
X117532566Y-141922223D01*
X117523884Y-141972144D01*
X117515110Y-142022122D01*
X117506246Y-142072158D01*
X117497291Y-142122249D01*
X117488246Y-142172395D01*
X117479109Y-142222595D01*
X117469882Y-142272847D01*
X117460565Y-142323150D01*
X117451158Y-142373504D01*
X117441660Y-142423906D01*
X117432072Y-142474356D01*
X117422394Y-142524852D01*
X117412627Y-142575393D01*
X117402770Y-142625977D01*
X117392823Y-142676604D01*
X117382788Y-142727271D01*
X117372663Y-142777978D01*
X117362450Y-142828722D01*
X117352148Y-142879502D01*
X117341758Y-142930317D01*
X117331280Y-142981165D01*
X117320714Y-143032044D01*
X117310061Y-143082953D01*
X117299321Y-143133889D01*
X117288493Y-143184851D01*
X117277580Y-143235837D01*
X117266580Y-143286844D01*
X117255495Y-143337872D01*
X117244324Y-143388918D01*
X117233068Y-143439979D01*
X117221728Y-143491054D01*
X117210304Y-143542140D01*
X117198796Y-143593236D01*
X117187205Y-143644338D01*
X117175532Y-143695444D01*
X117163777Y-143746551D01*
X117151940Y-143797658D01*
X117140022Y-143848761D01*
X117128025Y-143899858D01*
X117115948Y-143950945D01*
X117103792Y-144002020D01*
X117091558Y-144053080D01*
X117079247Y-144104122D01*
X117066859Y-144155141D01*
X117054396Y-144206136D01*
X117041857Y-144257102D01*
X117029245Y-144308036D01*
X117016560Y-144358934D01*
X117003803Y-144409792D01*
X116990975Y-144460607D01*
X116978077Y-144511373D01*
X116965110Y-144562088D01*
X116952076Y-144612746D01*
X116938976Y-144663344D01*
X116925811Y-144713875D01*
X116912582Y-144764336D01*
X116899292Y-144814720D01*
X116885940Y-144865023D01*
X116872530Y-144915240D01*
X116859062Y-144965364D01*
X116845539Y-145015389D01*
X116831962Y-145065309D01*
X116818333Y-145115118D01*
X116804655Y-145164809D01*
X116790929Y-145214374D01*
X116777157Y-145263806D01*
X116763343Y-145313098D01*
X116749488Y-145362241D01*
X116735595Y-145411226D01*
X116721668Y-145460045D01*
X116707708Y-145508689D01*
X116693720Y-145557146D01*
X116679705Y-145605408D01*
X116665669Y-145653462D01*
X116651615Y-145701297D01*
X116637546Y-145748901D01*
X116623467Y-145796261D01*
X116609383Y-145843363D01*
X116595298Y-145890193D01*
X116581218Y-145936734D01*
X116567148Y-145982970D01*
X116553093Y-146028883D01*
X116539062Y-146074455D01*
X116525059Y-146119664D01*
X116511094Y-146164489D01*
X116497174Y-146208905D01*
X116483308Y-146252888D01*
X116469506Y-146296408D01*
X116455778Y-146339434D01*
X116442137Y-146381934D01*
X116428595Y-146423870D01*
X116415167Y-146465201D01*
X116401869Y-146505881D01*
X116388719Y-146545858D01*
X116375739Y-146585074D01*
X116362951Y-146623462D01*
X116350385Y-146660945D01*
X116338071Y-146697433D01*
X116326050Y-146732820D01*
X116314367Y-146766975D01*
X116303081Y-146799739D01*
X116292267Y-146830909D01*
X116282022Y-146860216D01*
X116272486Y-146887282D01*
X116263866Y-146911541D01*
X116256524Y-146932020D01*
X116251238Y-146946614D01*
X116250000Y-146950000D01*
D10*
X116250000Y-55950000D02*
X107250000Y-55950000D01*
X116250000Y-55950000D02*
X157250000Y-55950000D01*
X116250000Y-146950000D02*
X157250000Y-146950000D01*
X157250000Y-55950000D02*
X166250000Y-55950000D01*
X166250000Y-55950000D02*
X166250000Y-65450000D01*
D11*
X166250000Y-125450000D02*
X166230221Y-125451329D01*
X166210465Y-125452676D01*
X166190738Y-125454041D01*
X166171034Y-125455425D01*
X166151359Y-125456826D01*
X166131707Y-125458246D01*
X166112083Y-125459684D01*
X166092482Y-125461141D01*
X166072910Y-125462615D01*
X166053361Y-125464108D01*
X166033840Y-125465618D01*
X166014342Y-125467147D01*
X165994872Y-125468694D01*
X165975425Y-125470259D01*
X165956007Y-125471841D01*
X165936611Y-125473442D01*
X165917243Y-125475061D01*
X165897898Y-125476698D01*
X165878582Y-125478352D01*
X165859288Y-125480025D01*
X165840022Y-125481715D01*
X165820778Y-125483423D01*
X165801563Y-125485149D01*
X165782370Y-125486893D01*
X165763206Y-125488654D01*
X165744063Y-125490434D01*
X165724949Y-125492231D01*
X165705857Y-125494046D01*
X165686793Y-125495878D01*
X165667751Y-125497728D01*
X165648737Y-125499596D01*
X165629746Y-125501482D01*
X165610782Y-125503385D01*
X165591841Y-125505305D01*
X165572927Y-125507244D01*
X165554035Y-125509199D01*
X165535171Y-125511173D01*
X165516329Y-125513164D01*
X165497515Y-125515172D01*
X165478722Y-125517198D01*
X165459957Y-125519241D01*
X165441215Y-125521301D01*
X165422499Y-125523379D01*
X165403806Y-125525475D01*
X165385140Y-125527587D01*
X165366496Y-125529717D01*
X165347879Y-125531865D01*
X165329285Y-125534029D01*
X165310717Y-125536211D01*
X165292171Y-125538410D01*
X165273652Y-125540627D01*
X165255156Y-125542860D01*
X165236686Y-125545111D01*
X165218238Y-125547379D01*
X165199817Y-125549664D01*
X165181418Y-125551966D01*
X165163045Y-125554286D01*
X165144695Y-125556622D01*
X165126371Y-125558976D01*
X165108069Y-125561346D01*
X165089793Y-125563734D01*
X165071539Y-125566138D01*
X165053312Y-125568560D01*
X165035107Y-125570998D01*
X165016928Y-125573454D01*
X164998770Y-125575926D01*
X164980639Y-125578415D01*
X164962530Y-125580922D01*
X164944447Y-125583445D01*
X164926386Y-125585985D01*
X164908351Y-125588541D01*
X164890337Y-125591115D01*
X164872350Y-125593705D01*
X164854384Y-125596312D01*
X164836444Y-125598936D01*
X164818526Y-125601577D01*
X164800633Y-125604234D01*
X164782763Y-125606908D01*
X164764917Y-125609599D01*
X164747094Y-125612306D01*
X164729296Y-125615030D01*
X164711520Y-125617770D01*
X164693770Y-125620527D01*
X164676041Y-125623301D01*
X164658337Y-125626091D01*
X164640655Y-125628898D01*
X164622998Y-125631722D01*
X164605363Y-125634562D01*
X164587753Y-125637418D01*
X164570165Y-125640291D01*
X164552602Y-125643180D01*
X164535060Y-125646085D01*
X164517544Y-125649007D01*
X164500048Y-125651946D01*
X164482578Y-125654901D01*
X164465130Y-125657872D01*
X164447706Y-125660859D01*
X164430304Y-125663863D01*
X164412926Y-125666883D01*
X164395570Y-125669920D01*
X164378239Y-125672972D01*
X164360929Y-125676041D01*
X164343644Y-125679126D01*
X164326380Y-125682228D01*
X164309140Y-125685345D01*
X164291922Y-125688479D01*
X164274729Y-125691629D01*
X164257556Y-125694795D01*
X164240408Y-125697977D01*
X164223282Y-125701175D01*
X164206179Y-125704389D01*
X164189098Y-125707620D01*
X164172041Y-125710866D01*
X164155006Y-125714129D01*
X164137994Y-125717407D01*
X164121004Y-125720701D01*
X164104038Y-125724012D01*
X164087093Y-125727338D01*
X164070172Y-125730680D01*
X164053272Y-125734039D01*
X164036396Y-125737413D01*
X164019541Y-125740803D01*
X164002710Y-125744209D01*
X163985899Y-125747631D01*
X163969113Y-125751068D01*
X163952348Y-125754522D01*
X163935606Y-125757991D01*
X163918886Y-125761476D01*
X163902189Y-125764977D01*
X163885513Y-125768494D01*
X163868860Y-125772026D01*
X163852228Y-125775574D01*
X163835620Y-125779138D01*
X163819033Y-125782717D01*
X163802469Y-125786312D01*
X163785926Y-125789923D01*
X163769407Y-125793550D01*
X163752908Y-125797192D01*
X163736432Y-125800849D01*
X163719977Y-125804523D01*
X163703546Y-125808212D01*
X163687135Y-125811916D01*
X163670747Y-125815636D01*
X163654380Y-125819372D01*
X163638036Y-125823123D01*
X163621712Y-125826889D01*
X163605412Y-125830671D01*
X163589132Y-125834469D01*
X163572875Y-125838282D01*
X163556638Y-125842110D01*
X163540425Y-125845954D01*
X163524232Y-125849813D01*
X163508062Y-125853688D01*
X163491912Y-125857578D01*
X163475785Y-125861483D01*
X163459678Y-125865404D01*
X163443595Y-125869340D01*
X163427531Y-125873291D01*
X163411490Y-125877258D01*
X163395470Y-125881240D01*
X163379472Y-125885237D01*
X163363494Y-125889250D01*
X163347539Y-125893277D01*
X163331604Y-125897320D01*
X163315691Y-125901378D01*
X163299799Y-125905452D01*
X163283929Y-125909540D01*
X163268079Y-125913644D01*
X163252251Y-125917763D01*
X163236444Y-125921897D01*
X163220659Y-125926046D01*
X163204894Y-125930210D01*
X163189151Y-125934390D01*
X163173428Y-125938584D01*
X163157727Y-125942794D01*
X163142047Y-125947018D01*
X163126388Y-125951258D01*
X163110749Y-125955513D01*
X163095133Y-125959782D01*
X163079536Y-125964067D01*
X163063961Y-125968366D01*
X163048406Y-125972681D01*
X163032873Y-125977011D01*
X163017359Y-125981355D01*
X163001868Y-125985715D01*
X162986396Y-125990089D01*
X162970946Y-125994478D01*
X162955516Y-125998883D01*
X162940107Y-126003302D01*
X162924719Y-126007736D01*
X162909351Y-126012184D01*
X162894004Y-126016648D01*
X162878678Y-126021126D01*
X162863372Y-126025620D01*
X162848087Y-126030128D01*
X162832822Y-126034651D01*
X162817578Y-126039188D01*
X162802353Y-126043741D01*
X162787150Y-126048308D01*
X162771967Y-126052890D01*
X162756805Y-126057486D01*
X162741662Y-126062098D01*
X162726541Y-126066724D01*
X162711439Y-126071364D01*
X162696358Y-126076020D01*
X162681297Y-126080690D01*
X162666257Y-126085375D01*
X162651236Y-126090074D01*
X162636236Y-126094788D01*
X162621256Y-126099517D01*
X162606296Y-126104260D01*
X162591356Y-126109017D01*
X162576437Y-126113790D01*
X162561537Y-126118577D01*
X162546658Y-126123378D01*
X162531798Y-126128194D01*
X162516959Y-126133025D01*
X162502139Y-126137870D01*
X162487339Y-126142729D01*
X162472560Y-126147604D01*
X162457800Y-126152492D01*
X162443060Y-126157395D01*
X162428340Y-126162313D01*
X162413640Y-126167245D01*
X162398960Y-126172191D01*
X162384299Y-126177152D01*
X162369658Y-126182127D01*
X162355037Y-126187117D01*
X162340436Y-126192121D01*
X162325854Y-126197139D01*
X162311292Y-126202172D01*
X162296749Y-126207219D01*
X162282227Y-126212281D01*
X162267723Y-126217357D01*
X162253240Y-126222447D01*
X162238776Y-126227552D01*
X162224331Y-126232671D01*
X162209906Y-126237804D01*
X162195500Y-126242951D01*
X162181114Y-126248113D01*
X162166748Y-126253289D01*
X162152400Y-126258479D01*
X162138072Y-126263684D01*
X162123763Y-126268903D01*
X162109474Y-126274136D01*
X162095204Y-126279383D01*
X162080953Y-126284644D01*
X162066722Y-126289920D01*
X162052510Y-126295210D01*
X162038317Y-126300514D01*
X162024143Y-126305832D01*
X162009988Y-126311164D01*
X161995852Y-126316511D01*
X161981736Y-126321871D01*
X161967638Y-126327246D01*
X161953560Y-126332635D01*
X161939501Y-126338038D01*
X161925461Y-126343455D01*
X161911439Y-126348886D01*
X161897437Y-126354332D01*
X161883454Y-126359791D01*
X161869489Y-126365265D01*
X161855544Y-126370752D01*
X161841617Y-126376254D01*
X161827709Y-126381769D01*
X161813820Y-126387299D01*
X161799950Y-126392843D01*
X161786099Y-126398400D01*
X161772266Y-126403972D01*
X161758453Y-126409558D01*
X161744657Y-126415158D01*
X161730881Y-126420771D01*
X161717123Y-126426399D01*
X161703384Y-126432041D01*
X161689663Y-126437696D01*
X161675962Y-126443366D01*
X161662278Y-126449049D01*
X161648614Y-126454747D01*
X161634967Y-126460458D01*
X161621340Y-126466184D01*
X161607730Y-126471923D01*
X161594140Y-126477676D01*
X161580567Y-126483443D01*
X161567014Y-126489224D01*
X161553478Y-126495019D01*
X161539961Y-126500827D01*
X161526462Y-126506650D01*
X161512982Y-126512486D01*
X161499520Y-126518337D01*
X161486076Y-126524201D01*
X161472650Y-126530079D01*
X161459243Y-126535971D01*
X161445854Y-126541876D01*
X161432484Y-126547796D01*
X161419131Y-126553729D01*
X161405796Y-126559676D01*
X161392480Y-126565637D01*
X161379182Y-126571612D01*
X161365901Y-126577600D01*
X161352640Y-126583602D01*
X161339395Y-126589618D01*
X161326170Y-126595648D01*
X161312961Y-126601692D01*
X161299772Y-126607749D01*
X161286599Y-126613820D01*
X161273445Y-126619905D01*
X161260309Y-126626003D01*
X161247191Y-126632115D01*
X161234090Y-126638241D01*
X161221008Y-126644381D01*
X161207943Y-126650535D01*
X161194896Y-126656701D01*
X161181867Y-126662882D01*
X161168856Y-126669077D01*
X161155862Y-126675285D01*
X161142886Y-126681507D01*
X161129928Y-126687743D01*
X161116988Y-126693992D01*
X161104065Y-126700255D01*
X161091160Y-126706531D01*
X161078272Y-126712822D01*
X161065402Y-126719125D01*
X161052550Y-126725443D01*
X161039715Y-126731774D01*
X161026898Y-126738119D01*
X161014098Y-126744477D01*
X161001316Y-126750849D01*
X160988551Y-126757235D01*
X160975804Y-126763634D01*
X160963074Y-126770047D01*
X160950361Y-126776474D01*
X160937667Y-126782914D01*
X160924989Y-126789368D01*
X160912329Y-126795835D01*
X160899685Y-126802316D01*
X160887060Y-126808810D01*
X160874451Y-126815318D01*
X160861861Y-126821840D01*
X160849286Y-126828375D01*
X160836730Y-126834924D01*
X160824190Y-126841487D01*
X160811669Y-126848062D01*
X160799163Y-126854652D01*
X160786676Y-126861255D01*
X160774205Y-126867872D01*
X160761752Y-126874501D01*
X160749314Y-126881145D01*
X160736896Y-126887802D01*
X160724493Y-126894474D01*
X160712108Y-126901158D01*
X160699739Y-126907856D01*
X160687388Y-126914567D01*
X160675053Y-126921292D01*
X160662737Y-126928030D01*
X160650435Y-126934782D01*
X160638153Y-126941547D01*
X160625885Y-126948327D01*
X160613636Y-126955119D01*
X160601403Y-126961925D01*
X160589187Y-126968744D01*
X160576987Y-126975578D01*
X160564806Y-126982424D01*
X160552639Y-126989284D01*
X160540491Y-126996157D01*
X160528358Y-127003045D01*
X160516244Y-127009945D01*
X160504144Y-127016859D01*
X160492063Y-127023786D01*
X160479997Y-127030727D01*
X160467949Y-127037681D01*
X160455916Y-127044650D01*
X160443901Y-127051631D01*
X160431902Y-127058626D01*
X160419920Y-127065634D01*
X160407954Y-127072656D01*
X160396006Y-127079691D01*
X160384072Y-127086740D01*
X160372157Y-127093802D01*
X160360256Y-127100878D01*
X160348374Y-127107967D01*
X160336507Y-127115070D01*
X160324657Y-127122185D01*
X160312822Y-127129315D01*
X160301006Y-127136458D01*
X160289204Y-127143615D01*
X160277420Y-127150784D01*
X160265651Y-127157968D01*
X160253899Y-127165164D01*
X160242163Y-127172375D01*
X160230444Y-127179598D01*
X160218740Y-127186836D01*
X160207054Y-127194086D01*
X160195382Y-127201350D01*
X160183729Y-127208627D01*
X160172089Y-127215919D01*
X160160468Y-127223223D01*
X160148861Y-127230541D01*
X160137272Y-127237872D01*
X160114141Y-127252575D01*
X160091074Y-127267332D01*
X160068072Y-127282142D01*
X160045133Y-127297007D01*
X160022258Y-127311925D01*
X159999448Y-127326897D01*
X159976701Y-127341922D01*
X159954017Y-127357002D01*
X159931397Y-127372135D01*
X159908840Y-127387323D01*
X159886347Y-127402564D01*
X159863916Y-127417859D01*
X159841549Y-127433207D01*
X159819244Y-127448610D01*
X159797002Y-127464067D01*
X159774822Y-127479577D01*
X159752705Y-127495141D01*
X159730650Y-127510760D01*
X159708657Y-127526432D01*
X159686726Y-127542158D01*
X159664857Y-127557938D01*
X159643050Y-127573772D01*
X159621305Y-127589660D01*
X159599621Y-127605603D01*
X159577998Y-127621599D01*
X159556437Y-127637649D01*
X159534937Y-127653754D01*
X159513498Y-127669912D01*
X159492120Y-127686125D01*
X159470803Y-127702392D01*
X159449547Y-127718713D01*
X159428351Y-127735088D01*
X159407216Y-127751518D01*
X159386141Y-127768002D01*
X159365126Y-127784540D01*
X159344172Y-127801133D01*
X159323277Y-127817780D01*
X159302443Y-127834481D01*
X159281668Y-127851238D01*
X159260954Y-127868048D01*
X159240298Y-127884913D01*
X159219703Y-127901833D01*
X159199166Y-127918807D01*
X159178690Y-127935836D01*
X159158272Y-127952920D01*
X159137913Y-127970058D01*
X159117614Y-127987252D01*
X159097373Y-128004500D01*
X159077191Y-128021803D01*
X159057068Y-128039161D01*
X159037004Y-128056574D01*
X159016998Y-128074042D01*
X158997050Y-128091565D01*
X158977161Y-128109143D01*
X158957331Y-128126777D01*
X158937558Y-128144466D01*
X158917843Y-128162210D01*
X158898187Y-128180009D01*
X158878588Y-128197864D01*
X158859047Y-128215774D01*
X158839564Y-128233740D01*
X158820138Y-128251761D01*
X158800771Y-128269838D01*
X158781460Y-128287971D01*
X158762207Y-128306160D01*
X158743011Y-128324404D01*
X158723873Y-128342704D01*
X158704791Y-128361061D01*
X158685767Y-128379473D01*
X158666800Y-128397941D01*
X158647889Y-128416466D01*
X158629036Y-128435046D01*
X158610239Y-128453683D01*
X158591499Y-128472377D01*
X158572815Y-128491127D01*
X158554188Y-128509933D01*
X158535618Y-128528796D01*
X158517104Y-128547716D01*
X158498646Y-128566692D01*
X158480245Y-128585725D01*
X158461900Y-128604815D01*
X158443611Y-128623962D01*
X158425378Y-128643166D01*
X158407201Y-128662427D01*
X158389080Y-128681745D01*
X158371015Y-128701121D01*
X158353005Y-128720554D01*
X158335052Y-128740044D01*
X158317154Y-128759592D01*
X158299312Y-128779197D01*
X158281525Y-128798860D01*
X158263794Y-128818581D01*
X158246119Y-128838360D01*
X158228499Y-128858197D01*
X158210934Y-128878091D01*
X158193425Y-128898044D01*
X158175970Y-128918055D01*
X158158572Y-128938125D01*
X158141228Y-128958252D01*
X158123939Y-128978439D01*
X158106706Y-128998683D01*
X158089527Y-129018987D01*
X158072404Y-129039349D01*
X158055336Y-129059770D01*
X158038322Y-129080250D01*
X158021363Y-129100790D01*
X158004460Y-129121388D01*
X157987610Y-129142045D01*
X157970816Y-129162762D01*
X157954077Y-129183539D01*
X157937392Y-129204374D01*
X157920762Y-129225270D01*
X157904186Y-129246225D01*
X157887665Y-129267240D01*
X157871199Y-129288315D01*
X157854787Y-129309451D01*
X157838429Y-129330646D01*
X157822126Y-129351902D01*
X157805878Y-129373218D01*
X157789684Y-129394594D01*
X157773544Y-129416031D01*
X157757458Y-129437529D01*
X157741427Y-129459088D01*
X157725451Y-129480707D01*
X157709528Y-129502388D01*
X157693660Y-129524130D01*
X157677846Y-129545933D01*
X157662087Y-129567797D01*
X157646381Y-129589723D01*
X157630730Y-129611710D01*
X157615133Y-129633760D01*
X157599590Y-129655871D01*
X157584102Y-129678044D01*
X157568667Y-129700279D01*
X157553287Y-129722576D01*
X157537961Y-129744936D01*
X157522689Y-129767358D01*
X157507471Y-129789842D01*
X157492307Y-129812390D01*
X157477197Y-129835000D01*
X157462142Y-129857673D01*
X157447140Y-129880409D01*
X157432193Y-129903208D01*
X157417300Y-129926070D01*
X157402460Y-129948996D01*
X157387675Y-129971985D01*
X157372944Y-129995039D01*
X157358268Y-130018155D01*
X157343645Y-130041336D01*
X157329076Y-130064581D01*
X157314562Y-130087890D01*
X157300102Y-130111263D01*
X157285696Y-130134701D01*
X157271344Y-130158203D01*
X157257046Y-130181770D01*
X157242802Y-130205402D01*
X157228613Y-130229098D01*
X157214478Y-130252860D01*
X157200397Y-130276687D01*
X157186370Y-130300579D01*
X157172397Y-130324537D01*
X157158479Y-130348561D01*
X157144615Y-130372650D01*
X157130806Y-130396805D01*
X157117051Y-130421026D01*
X157103350Y-130445313D01*
X157089703Y-130469667D01*
X157076111Y-130494087D01*
X157062574Y-130518573D01*
X157049091Y-130543126D01*
X157035662Y-130567747D01*
X157022288Y-130592434D01*
X157008968Y-130617188D01*
X156995703Y-130642009D01*
X156982493Y-130666898D01*
X156969338Y-130691854D01*
X156956237Y-130716879D01*
X156943190Y-130741971D01*
X156930199Y-130767130D01*
X156917262Y-130792358D01*
X156904380Y-130817655D01*
X156891554Y-130843019D01*
X156878782Y-130868453D01*
X156866065Y-130893954D01*
X156853402Y-130919525D01*
X156840796Y-130945165D01*
X156828244Y-130970874D01*
X156815747Y-130996652D01*
X156803305Y-131022499D01*
X156790919Y-131048416D01*
X156778588Y-131074403D01*
X156766313Y-131100460D01*
X156754092Y-131126586D01*
X156741927Y-131152783D01*
X156729818Y-131179050D01*
X156717764Y-131205388D01*
X156705766Y-131231796D01*
X156693824Y-131258275D01*
X156681937Y-131284825D01*
X156670106Y-131311445D01*
X156658331Y-131338138D01*
X156646612Y-131364901D01*
X156634948Y-131391736D01*
X156623341Y-131418642D01*
X156611790Y-131445621D01*
X156600295Y-131472671D01*
X156588856Y-131499793D01*
X156577474Y-131526988D01*
X156566148Y-131554255D01*
X156554878Y-131581594D01*
X156543665Y-131609007D01*
X156532508Y-131636492D01*
X156521409Y-131664050D01*
X156510365Y-131691681D01*
X156499379Y-131719386D01*
X156488449Y-131747164D01*
X156477577Y-131775016D01*
X156466761Y-131802941D01*
X156456002Y-131830941D01*
X156445301Y-131859014D01*
X156434657Y-131887162D01*
X156424070Y-131915384D01*
X156413541Y-131943681D01*
X156403069Y-131972052D01*
X156392655Y-132000499D01*
X156382298Y-132029020D01*
X156371999Y-132057617D01*
X156361758Y-132086288D01*
X156351575Y-132115036D01*
X156341450Y-132143859D01*
X156331383Y-132172757D01*
X156321374Y-132201732D01*
X156311424Y-132230783D01*
X156301532Y-132259910D01*
X156291698Y-132289113D01*
X156281923Y-132318393D01*
X156272207Y-132347750D01*
X156262549Y-132377184D01*
X156252950Y-132406694D01*
X156243410Y-132436282D01*
X156233930Y-132465947D01*
X156224508Y-132495690D01*
X156215146Y-132525510D01*
X156205843Y-132555408D01*
X156196599Y-132585384D01*
X156187415Y-132615439D01*
X156178291Y-132645571D01*
X156169227Y-132675782D01*
X156160222Y-132706071D01*
X156151277Y-132736440D01*
X156142393Y-132766887D01*
X156133568Y-132797413D01*
X156124804Y-132828018D01*
X156116101Y-132858703D01*
X156107458Y-132889467D01*
X156098875Y-132920311D01*
X156090354Y-132951234D01*
X156081893Y-132982238D01*
X156073493Y-133013322D01*
X156065155Y-133044486D01*
X156056877Y-133075730D01*
X156048661Y-133107055D01*
X156040506Y-133138461D01*
X156032413Y-133169947D01*
X156024382Y-133201515D01*
X156016413Y-133233164D01*
X156008505Y-133264894D01*
X156000660Y-133296706D01*
X155992876Y-133328599D01*
X155985156Y-133360574D01*
X155977497Y-133392631D01*
X155969901Y-133424770D01*
X155962368Y-133456991D01*
X155954898Y-133489295D01*
X155947490Y-133521681D01*
X155940146Y-133554150D01*
X155932865Y-133586701D01*
X155925647Y-133619336D01*
X155918493Y-133652054D01*
X155911402Y-133684855D01*
X155904375Y-133717739D01*
X155897412Y-133750707D01*
X155890513Y-133783759D01*
X155883678Y-133816894D01*
X155876907Y-133850114D01*
X155870201Y-133883417D01*
X155863560Y-133916805D01*
X155856983Y-133950277D01*
X155850471Y-133983834D01*
X155844024Y-134017476D01*
X155837642Y-134051202D01*
X155831325Y-134085013D01*
X155825074Y-134118910D01*
X155818888Y-134152891D01*
X155812768Y-134186958D01*
X155806714Y-134221111D01*
X155800726Y-134255349D01*
X155794804Y-134289673D01*
X155788948Y-134324083D01*
X155783159Y-134358579D01*
X155777436Y-134393161D01*
X155771780Y-134427829D01*
X155766191Y-134462584D01*
X155760669Y-134497426D01*
X155755214Y-134532354D01*
X155749826Y-134567369D01*
X155744506Y-134602471D01*
X155739253Y-134637660D01*
X155734069Y-134672937D01*
X155728952Y-134708300D01*
X155723903Y-134743752D01*
X155718923Y-134779291D01*
X155714011Y-134814917D01*
X155709167Y-134850631D01*
X155704393Y-134886434D01*
X155699687Y-134922324D01*
X155695050Y-134958303D01*
X155690482Y-134994370D01*
X155685984Y-135030525D01*
X155681555Y-135066769D01*
X155677196Y-135103102D01*
X155672907Y-135139523D01*
X155668688Y-135176033D01*
X155664539Y-135212633D01*
X155660460Y-135249321D01*
X155656452Y-135286099D01*
X155652514Y-135322965D01*
X155648647Y-135359922D01*
X155644851Y-135396968D01*
X155641127Y-135434103D01*
X155637473Y-135471329D01*
X155633892Y-135508644D01*
X155630381Y-135546049D01*
X155626943Y-135583544D01*
X155623576Y-135621129D01*
X155620282Y-135658804D01*
X155617060Y-135696570D01*
X155613911Y-135734426D01*
X155610834Y-135772373D01*
X155607830Y-135810410D01*
X155604899Y-135848538D01*
X155602041Y-135886757D01*
X155599256Y-135925066D01*
X155596545Y-135963467D01*
X155593908Y-136001958D01*
X155591345Y-136040541D01*
X155588855Y-136079214D01*
X155586440Y-136117979D01*
X155584099Y-136156835D01*
X155581833Y-136195783D01*
X155579641Y-136234822D01*
X155577524Y-136273953D01*
X155575483Y-136313175D01*
X155573516Y-136352488D01*
X155571625Y-136391894D01*
X155569810Y-136431391D01*
X155568070Y-136470980D01*
X155566406Y-136510661D01*
X155564819Y-136550434D01*
X155563307Y-136590298D01*
X155561872Y-136630255D01*
X155560514Y-136670304D01*
X155559233Y-136710445D01*
X155558028Y-136750678D01*
X155556901Y-136791003D01*
X155555851Y-136831420D01*
X155554879Y-136871930D01*
X155553984Y-136912532D01*
X155553167Y-136953226D01*
X155552428Y-136994012D01*
X155551768Y-137034891D01*
X155551185Y-137075863D01*
X155550682Y-137116926D01*
X155550257Y-137158082D01*
X155549911Y-137199331D01*
X155549644Y-137240671D01*
X155549457Y-137282105D01*
X155549349Y-137323630D01*
X155549321Y-137365248D01*
X155549372Y-137406959D01*
X155549503Y-137448762D01*
X155549715Y-137490657D01*
X155550007Y-137532645D01*
X155550379Y-137574725D01*
X155550833Y-137616897D01*
X155551367Y-137659161D01*
X155551982Y-137701518D01*
X155552678Y-137743968D01*
X155553456Y-137786509D01*
X155554315Y-137829142D01*
X155555256Y-137871868D01*
X155556279Y-137914686D01*
X155557384Y-137957596D01*
X155558571Y-138000597D01*
X155559841Y-138043691D01*
X155561193Y-138086876D01*
X155562628Y-138130154D01*
X155564147Y-138173522D01*
X155565748Y-138216983D01*
X155567432Y-138260535D01*
X155569200Y-138304179D01*
X155571052Y-138347914D01*
X155572987Y-138391740D01*
X155575006Y-138435657D01*
X155577110Y-138479666D01*
X155579297Y-138523765D01*
X155581570Y-138567955D01*
X155583926Y-138612236D01*
X155586368Y-138656607D01*
X155588895Y-138701069D01*
X155591506Y-138745622D01*
X155594203Y-138790264D01*
X155596985Y-138834996D01*
X155599853Y-138879819D01*
X155602807Y-138924731D01*
X155605847Y-138969732D01*
X155608972Y-139014823D01*
X155612184Y-139060003D01*
X155615482Y-139105272D01*
X155618867Y-139150630D01*
X155622339Y-139196076D01*
X155625897Y-139241611D01*
X155629542Y-139287234D01*
X155633274Y-139332945D01*
X155637094Y-139378744D01*
X155641001Y-139424630D01*
X155644996Y-139470604D01*
X155649078Y-139516664D01*
X155653248Y-139562811D01*
X155657506Y-139609045D01*
X155661852Y-139655365D01*
X155666286Y-139701771D01*
X155670809Y-139748262D01*
X155675420Y-139794839D01*
X155680120Y-139841501D01*
X155684909Y-139888248D01*
X155689786Y-139935078D01*
X155694753Y-139981993D01*
X155699808Y-140028992D01*
X155704953Y-140076074D01*
X155710187Y-140123239D01*
X155715511Y-140170486D01*
X155720924Y-140217816D01*
X155726427Y-140265228D01*
X155732019Y-140312721D01*
X155737702Y-140360295D01*
X155743474Y-140407949D01*
X155749337Y-140455684D01*
X155755290Y-140503498D01*
X155761333Y-140551392D01*
X155767466Y-140599364D01*
X155773690Y-140647414D01*
X155780004Y-140695542D01*
X155786409Y-140743748D01*
X155792905Y-140792030D01*
X155799491Y-140840388D01*
X155806168Y-140888822D01*
X155812936Y-140937330D01*
X155819795Y-140985913D01*
X155826745Y-141034570D01*
X155833786Y-141083300D01*
X155840918Y-141132103D01*
X155848141Y-141180977D01*
X155855456Y-141229923D01*
X155862861Y-141278939D01*
X155870358Y-141328025D01*
X155877946Y-141377181D01*
X155885625Y-141426404D01*
X155893395Y-141475695D01*
X155901257Y-141525053D01*
X155909210Y-141574477D01*
X155917254Y-141623967D01*
X155925389Y-141673520D01*
X155933616Y-141723137D01*
X155941934Y-141772817D01*
X155950343Y-141822558D01*
X155958843Y-141872361D01*
X155967434Y-141922223D01*
X155976116Y-141972144D01*
X155984890Y-142022122D01*
X155993754Y-142072158D01*
X156002709Y-142122249D01*
X156011754Y-142172395D01*
X156020891Y-142222595D01*
X156030118Y-142272847D01*
X156039435Y-142323150D01*
X156048842Y-142373504D01*
X156058340Y-142423906D01*
X156067928Y-142474356D01*
X156077606Y-142524852D01*
X156087373Y-142575393D01*
X156097230Y-142625977D01*
X156107177Y-142676604D01*
X156117212Y-142727271D01*
X156127337Y-142777978D01*
X156137550Y-142828722D01*
X156147852Y-142879502D01*
X156158242Y-142930317D01*
X156168720Y-142981165D01*
X156179286Y-143032044D01*
X156189939Y-143082953D01*
X156200679Y-143133889D01*
X156211507Y-143184851D01*
X156222420Y-143235837D01*
X156233420Y-143286844D01*
X156244505Y-143337872D01*
X156255676Y-143388918D01*
X156266932Y-143439979D01*
X156278272Y-143491054D01*
X156289696Y-143542140D01*
X156301204Y-143593236D01*
X156312795Y-143644338D01*
X156324468Y-143695444D01*
X156336223Y-143746551D01*
X156348060Y-143797658D01*
X156359978Y-143848761D01*
X156371975Y-143899858D01*
X156384052Y-143950945D01*
X156396208Y-144002020D01*
X156408442Y-144053080D01*
X156420753Y-144104122D01*
X156433141Y-144155141D01*
X156445604Y-144206136D01*
X156458143Y-144257102D01*
X156470755Y-144308036D01*
X156483440Y-144358934D01*
X156496197Y-144409792D01*
X156509025Y-144460607D01*
X156521923Y-144511373D01*
X156534890Y-144562088D01*
X156547924Y-144612746D01*
X156561024Y-144663344D01*
X156574189Y-144713875D01*
X156587418Y-144764336D01*
X156600708Y-144814720D01*
X156614060Y-144865023D01*
X156627470Y-144915240D01*
X156640938Y-144965364D01*
X156654461Y-145015389D01*
X156668038Y-145065309D01*
X156681667Y-145115118D01*
X156695345Y-145164809D01*
X156709071Y-145214374D01*
X156722843Y-145263806D01*
X156736657Y-145313098D01*
X156750512Y-145362241D01*
X156764405Y-145411226D01*
X156778332Y-145460045D01*
X156792292Y-145508689D01*
X156806280Y-145557146D01*
X156820295Y-145605408D01*
X156834331Y-145653462D01*
X156848385Y-145701297D01*
X156862454Y-145748901D01*
X156876533Y-145796261D01*
X156890617Y-145843363D01*
X156904702Y-145890193D01*
X156918782Y-145936734D01*
X156932852Y-145982970D01*
X156946907Y-146028883D01*
X156960938Y-146074455D01*
X156974941Y-146119664D01*
X156988906Y-146164489D01*
X157002826Y-146208905D01*
X157016692Y-146252888D01*
X157030494Y-146296408D01*
X157044222Y-146339434D01*
X157057863Y-146381934D01*
X157071405Y-146423870D01*
X157084833Y-146465201D01*
X157098131Y-146505881D01*
X157111281Y-146545858D01*
X157124261Y-146585074D01*
X157137049Y-146623462D01*
X157149615Y-146660945D01*
X157161929Y-146697433D01*
X157173950Y-146732820D01*
X157185633Y-146766975D01*
X157196919Y-146799739D01*
X157207733Y-146830909D01*
X157217978Y-146860216D01*
X157227514Y-146887282D01*
X157236134Y-146911541D01*
X157243476Y-146932020D01*
X157248762Y-146946614D01*
X157250000Y-146950000D01*
D10*
X166250000Y-125450000D02*
X166250000Y-65450000D01*
M02*
