%TF.GenerationSoftware,KiCad,Pcbnew,10.0.4*%
%TF.CreationDate,2026-07-14T23:39:11-04:00*%
%TF.ProjectId,smart-doorbell,736d6172-742d-4646-9f6f-7262656c6c2e,B*%
%TF.SameCoordinates,Original*%
%TF.FileFunction,Soldermask,Top*%
%TF.FilePolarity,Negative*%
%FSLAX46Y46*%
G04 Gerber Fmt 4.6, Leading zero omitted, Abs format (unit mm)*
G04 Created by KiCad (PCBNEW 10.0.4) date 2026-07-14 23:39:11*
%MOMM*%
%LPD*%
G01*
G04 APERTURE LIST*
G04 Aperture macros list*
%AMRoundRect*
0 Rectangle with rounded corners*
0 $1 Rounding radius*
0 $2 $3 $4 $5 $6 $7 $8 $9 X,Y pos of 4 corners*
0 Add a 4 corners polygon primitive as box body*
4,1,4,$2,$3,$4,$5,$6,$7,$8,$9,$2,$3,0*
0 Add four circle primitives for the rounded corners*
1,1,$1+$1,$2,$3*
1,1,$1+$1,$4,$5*
1,1,$1+$1,$6,$7*
1,1,$1+$1,$8,$9*
0 Add four rect primitives between the rounded corners*
20,1,$1+$1,$2,$3,$4,$5,0*
20,1,$1+$1,$4,$5,$6,$7,0*
20,1,$1+$1,$6,$7,$8,$9,0*
20,1,$1+$1,$8,$9,$2,$3,0*%
%AMFreePoly0*
4,1,64,0.235856,1.440014,0.383010,1.379061,0.515445,1.290571,0.628071,1.177945,0.716561,1.045510,0.777514,0.898356,0.808588,0.742139,0.808588,0.582861,0.777514,0.426644,0.716561,0.279490,0.628071,0.147055,0.515445,0.034429,0.383010,-0.054061,0.235856,-0.115014,0.079639,-0.146088,0.031751,-0.146088,0.029264,-0.147118,-0.029264,-0.147118,-0.031751,-0.146088,-0.079639,-0.146088,
-0.235856,-0.115014,-0.383010,-0.054061,-0.515445,0.034429,-0.628071,0.147055,-0.716561,0.279490,-0.777514,0.426644,-0.808588,0.582861,-0.808588,0.729972,-0.512500,0.729972,-0.512500,0.595028,-0.477574,0.464683,-0.410102,0.347818,-0.314682,0.252398,-0.197817,0.184926,-0.067472,0.150000,0.067472,0.150000,0.197817,0.184926,0.314682,0.252398,0.410102,0.347818,0.477574,0.464683,
0.512500,0.595028,0.512500,0.729972,0.477574,0.860317,0.410102,0.977182,0.314682,1.072602,0.197817,1.140074,0.067472,1.175000,-0.067472,1.175000,-0.197817,1.140074,-0.314682,1.072602,-0.410102,0.977182,-0.477574,0.860317,-0.512500,0.729972,-0.808588,0.729972,-0.808588,0.742139,-0.777514,0.898356,-0.716561,1.045510,-0.628071,1.177945,-0.515445,1.290571,-0.383010,1.379061,
-0.235856,1.440014,-0.079639,1.471088,0.079639,1.471088,0.235856,1.440014,0.235856,1.440014,$1*%
G04 Aperture macros list end*
%ADD10RoundRect,0.200000X-0.200000X-0.275000X0.200000X-0.275000X0.200000X0.275000X-0.200000X0.275000X0*%
%ADD11RoundRect,0.225000X0.225000X0.250000X-0.225000X0.250000X-0.225000X-0.250000X0.225000X-0.250000X0*%
%ADD12RoundRect,0.225000X-0.225000X-0.250000X0.225000X-0.250000X0.225000X0.250000X-0.225000X0.250000X0*%
%ADD13RoundRect,0.200000X0.200000X0.275000X-0.200000X0.275000X-0.200000X-0.275000X0.200000X-0.275000X0*%
%ADD14RoundRect,0.225000X0.250000X-0.225000X0.250000X0.225000X-0.250000X0.225000X-0.250000X-0.225000X0*%
%ADD15RoundRect,0.250000X-0.350000X-0.625000X0.350000X-0.625000X0.350000X0.625000X-0.350000X0.625000X0*%
%ADD16O,1.200000X1.750000*%
%ADD17C,1.000000*%
%ADD18RoundRect,0.225000X-0.250000X0.225000X-0.250000X-0.225000X0.250000X-0.225000X0.250000X0.225000X0*%
%ADD19C,0.500000*%
%ADD20R,0.600000X0.522000*%
%ADD21FreePoly0,90.000000*%
%ADD22RoundRect,0.200000X-0.275000X0.200000X-0.275000X-0.200000X0.275000X-0.200000X0.275000X0.200000X0*%
%ADD23RoundRect,0.200000X0.275000X-0.200000X0.275000X0.200000X-0.275000X0.200000X-0.275000X-0.200000X0*%
%ADD24RoundRect,0.062500X0.062500X-0.387500X0.062500X0.387500X-0.062500X0.387500X-0.062500X-0.387500X0*%
%ADD25R,1.300000X0.550000*%
%ADD26RoundRect,0.150000X0.512500X0.150000X-0.512500X0.150000X-0.512500X-0.150000X0.512500X-0.150000X0*%
%ADD27R,0.900000X1.700000*%
%ADD28R,0.300000X1.300000*%
%ADD29R,1.800000X2.200000*%
%ADD30C,2.700000*%
%ADD31C,0.650000*%
%ADD32RoundRect,0.150000X-0.150000X-0.575000X0.150000X-0.575000X0.150000X0.575000X-0.150000X0.575000X0*%
%ADD33RoundRect,0.075000X-0.075000X-0.650000X0.075000X-0.650000X0.075000X0.650000X-0.075000X0.650000X0*%
%ADD34O,1.000000X2.100000*%
%ADD35O,1.000000X1.600000*%
%ADD36RoundRect,0.087500X-0.425000X-0.087500X0.425000X-0.087500X0.425000X0.087500X-0.425000X0.087500X0*%
%ADD37RoundRect,0.062500X-0.350000X-0.062500X0.350000X-0.062500X0.350000X0.062500X-0.350000X0.062500X0*%
%ADD38RoundRect,0.062500X-0.062500X-0.350000X0.062500X-0.350000X0.062500X0.350000X-0.062500X0.350000X0*%
%ADD39R,2.500000X2.500000*%
%ADD40RoundRect,0.218750X0.256250X-0.218750X0.256250X0.218750X-0.256250X0.218750X-0.256250X-0.218750X0*%
%ADD41R,1.500000X0.900000*%
%ADD42R,0.900000X1.500000*%
%ADD43C,0.600000*%
%ADD44R,3.900000X3.900000*%
%ADD45RoundRect,0.250000X0.375000X0.850000X-0.375000X0.850000X-0.375000X-0.850000X0.375000X-0.850000X0*%
%ADD46R,1.700000X1.700000*%
%ADD47C,1.700000*%
%ADD48RoundRect,0.250000X-0.675000X-0.675000X0.675000X-0.675000X0.675000X0.675000X-0.675000X0.675000X0*%
%ADD49C,1.850000*%
%ADD50R,1.230000X1.230000*%
G04 APERTURE END LIST*
D10*
%TO.C,R12*%
X151700000Y-112850000D03*
X153350000Y-112850000D03*
%TD*%
D11*
%TO.C,C34*%
X155125000Y-115450000D03*
X153575000Y-115450000D03*
%TD*%
D12*
%TO.C,C1*%
X120659799Y-66398577D03*
X122209799Y-66398577D03*
%TD*%
D11*
%TO.C,C32*%
X149425000Y-105300000D03*
X147875000Y-105300000D03*
%TD*%
D13*
%TO.C,R18*%
X126350000Y-95450000D03*
X124700000Y-95450000D03*
%TD*%
D10*
%TO.C,R30*%
X158355000Y-83400000D03*
X160005000Y-83400000D03*
%TD*%
D14*
%TO.C,C9*%
X138650000Y-98500000D03*
X138650000Y-96950000D03*
%TD*%
%TO.C,C13*%
X163750000Y-113725000D03*
X163750000Y-112175000D03*
%TD*%
D15*
%TO.C,J7*%
X155250000Y-86450000D03*
D16*
X157250000Y-86450000D03*
X159250000Y-86450000D03*
%TD*%
D10*
%TO.C,R10*%
X143025000Y-139650000D03*
X144675000Y-139650000D03*
%TD*%
D17*
%TO.C,TP8*%
X134500000Y-108500000D03*
%TD*%
D12*
%TO.C,C14*%
X120025000Y-79150000D03*
X121575000Y-79150000D03*
%TD*%
D17*
%TO.C,TP4*%
X163500000Y-109500000D03*
%TD*%
%TO.C,TP6*%
X154500000Y-101000000D03*
%TD*%
D18*
%TO.C,C15*%
X131650000Y-107325000D03*
X131650000Y-108875000D03*
%TD*%
D10*
%TO.C,R5*%
X136100000Y-129100000D03*
X137750000Y-129100000D03*
%TD*%
D19*
%TO.C,MK1*%
X110950000Y-90152000D03*
D20*
X110050000Y-88078000D03*
X110050000Y-88900000D03*
D21*
X111612500Y-90152000D03*
D20*
X111850000Y-88900000D03*
X111850000Y-88078000D03*
X110950000Y-88078000D03*
%TD*%
D10*
%TO.C,R14*%
X133950000Y-98650000D03*
X135600000Y-98650000D03*
%TD*%
D22*
%TO.C,R23*%
X150950000Y-108650000D03*
X150950000Y-110300000D03*
%TD*%
D23*
%TO.C,R20*%
X126650000Y-94050000D03*
X126650000Y-92400000D03*
%TD*%
D10*
%TO.C,R1*%
X119950000Y-77550000D03*
X121600000Y-77550000D03*
%TD*%
%TO.C,R11*%
X126850000Y-98350000D03*
X128500000Y-98350000D03*
%TD*%
D11*
%TO.C,C18*%
X141950000Y-103100000D03*
X140400000Y-103100000D03*
%TD*%
D10*
%TO.C,R40*%
X115995000Y-121900000D03*
X117645000Y-121900000D03*
%TD*%
D24*
%TO.C,U8*%
X150750000Y-107150000D03*
X151250000Y-107150000D03*
X151750000Y-107150000D03*
X152250000Y-107150000D03*
X152750000Y-107150000D03*
X152750000Y-105150000D03*
X152250000Y-105150000D03*
D25*
X151750000Y-106150000D03*
D24*
X151750000Y-105150000D03*
X151250000Y-105150000D03*
X150750000Y-105150000D03*
%TD*%
D12*
%TO.C,C22*%
X134000000Y-96950000D03*
X135550000Y-96950000D03*
%TD*%
D23*
%TO.C,R16*%
X148350000Y-94250000D03*
X148350000Y-92600000D03*
%TD*%
D26*
%TO.C,U5*%
X137950000Y-136900000D03*
X137950000Y-135950000D03*
X137950000Y-135000000D03*
X135675000Y-135000000D03*
X135675000Y-135950000D03*
X135675000Y-136900000D03*
%TD*%
D27*
%TO.C,BOOT1*%
X118650000Y-70050000D03*
X122050000Y-70050000D03*
%TD*%
D17*
%TO.C,TP3*%
X127910000Y-130620000D03*
%TD*%
D18*
%TO.C,C17*%
X138850000Y-107100000D03*
X138850000Y-108650000D03*
%TD*%
D13*
%TO.C,R6*%
X130800000Y-139750000D03*
X129150000Y-139750000D03*
%TD*%
D26*
%TO.C,U6*%
X134637500Y-106750000D03*
X134637500Y-104850000D03*
X132362500Y-105800000D03*
%TD*%
D10*
%TO.C,R17*%
X146550000Y-95850000D03*
X148200000Y-95850000D03*
%TD*%
%TO.C,R28*%
X143800000Y-117550000D03*
X145450000Y-117550000D03*
%TD*%
D13*
%TO.C,R32*%
X112995000Y-107840000D03*
X111345000Y-107840000D03*
%TD*%
D11*
%TO.C,C33*%
X155125000Y-117100000D03*
X153575000Y-117100000D03*
%TD*%
D17*
%TO.C,TP2*%
X128950000Y-102150000D03*
%TD*%
D14*
%TO.C,C5*%
X114150000Y-90150000D03*
X114150000Y-88600000D03*
%TD*%
D28*
%TO.C,J3*%
X142350000Y-93800000D03*
X141850000Y-93800000D03*
X141350000Y-93800000D03*
X140850000Y-93800000D03*
X140350000Y-93800000D03*
X139850000Y-93800000D03*
X139350000Y-93800000D03*
X138850000Y-93800000D03*
X138350000Y-93800000D03*
X137850000Y-93800000D03*
X137350000Y-93800000D03*
X136850000Y-93800000D03*
X136350000Y-93800000D03*
X135850000Y-93800000D03*
X135350000Y-93800000D03*
X134850000Y-93800000D03*
X134350000Y-93800000D03*
X133850000Y-93800000D03*
X133350000Y-93800000D03*
X132850000Y-93800000D03*
X132350000Y-93800000D03*
X131850000Y-93800000D03*
X131350000Y-93800000D03*
X130850000Y-93800000D03*
D29*
X144250000Y-90550000D03*
X128950000Y-90550000D03*
%TD*%
D30*
%TO.C,H3*%
X111050000Y-122825000D03*
%TD*%
%TO.C,H4*%
X162450000Y-122825000D03*
%TD*%
D12*
%TO.C,C11*%
X115900000Y-111600000D03*
X117450000Y-111600000D03*
%TD*%
D14*
%TO.C,C19*%
X156850000Y-94900000D03*
X156850000Y-93350000D03*
%TD*%
D15*
%TO.C,J8*%
X133650000Y-122100000D03*
D16*
X135650000Y-122100000D03*
X137650000Y-122100000D03*
X139650000Y-122100000D03*
%TD*%
D10*
%TO.C,R27*%
X143825000Y-119050000D03*
X145475000Y-119050000D03*
%TD*%
D23*
%TO.C,R24*%
X145350000Y-109625000D03*
X145350000Y-107975000D03*
%TD*%
D31*
%TO.C,J2*%
X133960000Y-140850000D03*
X139740000Y-140850000D03*
D32*
X133600000Y-139405000D03*
X134400000Y-139405000D03*
D33*
X135600000Y-139405000D03*
X136600000Y-139405000D03*
X137100000Y-139405000D03*
X138100000Y-139405000D03*
D32*
X139300000Y-139405000D03*
X140100000Y-139405000D03*
X140100000Y-139405000D03*
X139300000Y-139405000D03*
D33*
X138600000Y-139405000D03*
X137600000Y-139405000D03*
X136100000Y-139405000D03*
X135100000Y-139405000D03*
D32*
X134400000Y-139405000D03*
X133600000Y-139405000D03*
D34*
X132530000Y-140320000D03*
D35*
X132530000Y-144500000D03*
D34*
X141170000Y-140320000D03*
D35*
X141170000Y-144500000D03*
%TD*%
D11*
%TO.C,C31*%
X145425000Y-116050000D03*
X143875000Y-116050000D03*
%TD*%
D36*
%TO.C,U9*%
X128212500Y-115035000D03*
X128212500Y-115685000D03*
X128212500Y-116335000D03*
X129887500Y-116335000D03*
X129887500Y-115685000D03*
X129887500Y-115035000D03*
%TD*%
D37*
%TO.C,U2*%
X148000000Y-116850000D03*
X148000000Y-117350000D03*
X148000000Y-117850000D03*
X148000000Y-118350000D03*
X148000000Y-118850000D03*
D38*
X148937500Y-119787500D03*
X149437500Y-119787500D03*
X149937500Y-119787500D03*
X150437500Y-119787500D03*
X150937500Y-119787500D03*
D37*
X151875000Y-118850000D03*
X151875000Y-118350000D03*
X151875000Y-117850000D03*
X151875000Y-117350000D03*
X151875000Y-116850000D03*
D38*
X150937500Y-115912500D03*
X150437500Y-115912500D03*
X149937500Y-115912500D03*
X149437500Y-115912500D03*
X148937500Y-115912500D03*
D39*
X149937500Y-117850000D03*
%TD*%
D15*
%TO.C,J6*%
X115550000Y-98000000D03*
D16*
X117550000Y-98000000D03*
%TD*%
D12*
%TO.C,C2*%
X120659799Y-63998577D03*
X122209799Y-63998577D03*
%TD*%
D40*
%TO.C,D2*%
X151850000Y-141437500D03*
X151850000Y-139862500D03*
%TD*%
D23*
%TO.C,R36*%
X127960000Y-113835000D03*
X127960000Y-112185000D03*
%TD*%
D10*
%TO.C,R34*%
X119980000Y-82300000D03*
X121630000Y-82300000D03*
%TD*%
D23*
%TO.C,R25*%
X153500000Y-121575000D03*
X153500000Y-119925000D03*
%TD*%
D11*
%TO.C,C21*%
X132450000Y-96900000D03*
X130900000Y-96900000D03*
%TD*%
D41*
%TO.C,U1*%
X127860000Y-63940000D03*
X127860000Y-65210000D03*
X127860000Y-66480000D03*
X127860000Y-67750000D03*
X127860000Y-69020000D03*
X127860000Y-70290000D03*
X127860000Y-71560000D03*
X127860000Y-72830000D03*
X127860000Y-74100000D03*
X127860000Y-75370000D03*
X127860000Y-76640000D03*
X127860000Y-77910000D03*
X127860000Y-79180000D03*
X127860000Y-80450000D03*
D42*
X129625000Y-81700000D03*
X130895000Y-81700000D03*
X132165000Y-81700000D03*
X133435000Y-81700000D03*
X134705000Y-81700000D03*
X135975000Y-81700000D03*
X137245000Y-81700000D03*
X138515000Y-81700000D03*
X139785000Y-81700000D03*
X141055000Y-81700000D03*
X142325000Y-81700000D03*
X143595000Y-81700000D03*
D41*
X145360000Y-80450000D03*
X145360000Y-79180000D03*
X145360000Y-77910000D03*
X145360000Y-76640000D03*
X145360000Y-75370000D03*
X145360000Y-74100000D03*
X145360000Y-72830000D03*
X145360000Y-71560000D03*
X145360000Y-70290000D03*
X145360000Y-69020000D03*
X145360000Y-67750000D03*
X145360000Y-66480000D03*
X145360000Y-65210000D03*
X145360000Y-63940000D03*
D43*
X133710000Y-70960000D03*
X133710000Y-72360000D03*
X134410000Y-70260000D03*
X134410000Y-71660000D03*
X134410000Y-73060000D03*
X135110000Y-70960000D03*
D44*
X135110000Y-71660000D03*
D43*
X135110000Y-72360000D03*
X135810000Y-70260000D03*
X135810000Y-71660000D03*
X135810000Y-73060000D03*
X136510000Y-70960000D03*
X136510000Y-72360000D03*
%TD*%
D10*
%TO.C,R21*%
X126900000Y-99950000D03*
X128550000Y-99950000D03*
%TD*%
D11*
%TO.C,C20*%
X142125000Y-98500000D03*
X140575000Y-98500000D03*
%TD*%
D17*
%TO.C,TP5*%
X147000000Y-113500000D03*
%TD*%
D22*
%TO.C,R22*%
X149400000Y-108650000D03*
X149400000Y-110300000D03*
%TD*%
D15*
%TO.C,J1*%
X158441813Y-114370974D03*
D16*
X160441813Y-114370974D03*
%TD*%
D11*
%TO.C,C23*%
X142125000Y-96900000D03*
X140575000Y-96900000D03*
%TD*%
D27*
%TO.C,RESET1*%
X150050000Y-70150000D03*
X153450000Y-70150000D03*
%TD*%
D22*
%TO.C,R2*%
X149550000Y-122825000D03*
X149550000Y-124475000D03*
%TD*%
D17*
%TO.C,TP1*%
X126750000Y-102150000D03*
%TD*%
D12*
%TO.C,C8*%
X135975000Y-126150000D03*
X137525000Y-126150000D03*
%TD*%
D18*
%TO.C,C3*%
X133603829Y-114933672D03*
X133603829Y-116483672D03*
%TD*%
D12*
%TO.C,C24*%
X148750000Y-113750000D03*
X150300000Y-113750000D03*
%TD*%
%TO.C,C30*%
X154675000Y-107050000D03*
X156225000Y-107050000D03*
%TD*%
D26*
%TO.C,U7*%
X141850000Y-106750000D03*
X141850000Y-104850000D03*
X139575000Y-105800000D03*
%TD*%
D13*
%TO.C,R13*%
X121525000Y-75850000D03*
X119875000Y-75850000D03*
%TD*%
%TO.C,R38*%
X129905000Y-119210000D03*
X128255000Y-119210000D03*
%TD*%
D14*
%TO.C,C10*%
X149850000Y-65525000D03*
X149850000Y-63975000D03*
%TD*%
D10*
%TO.C,R35*%
X119985000Y-80730000D03*
X121635000Y-80730000D03*
%TD*%
D17*
%TO.C,TP10*%
X126230000Y-107450000D03*
%TD*%
D13*
%TO.C,R39*%
X117645000Y-120300000D03*
X115995000Y-120300000D03*
%TD*%
D45*
%TO.C,L1*%
X152625000Y-103100000D03*
X150475000Y-103100000D03*
%TD*%
D12*
%TO.C,C29*%
X154700000Y-105050000D03*
X156250000Y-105050000D03*
%TD*%
D22*
%TO.C,R15*%
X146550000Y-92650000D03*
X146550000Y-94300000D03*
%TD*%
D12*
%TO.C,C27*%
X111405000Y-109440000D03*
X112955000Y-109440000D03*
%TD*%
D23*
%TO.C,R26*%
X147250000Y-124400000D03*
X147250000Y-122750000D03*
%TD*%
D40*
%TO.C,D3*%
X149950000Y-88025000D03*
X149950000Y-86450000D03*
%TD*%
D46*
%TO.C,J4*%
X159350000Y-94210000D03*
D47*
X159350000Y-96750000D03*
X159350000Y-99290000D03*
X159350000Y-101830000D03*
X159350000Y-104370000D03*
X159350000Y-106910000D03*
%TD*%
D10*
%TO.C,R9*%
X150735000Y-75480000D03*
X152385000Y-75480000D03*
%TD*%
D11*
%TO.C,C26*%
X121675000Y-108980000D03*
X120125000Y-108980000D03*
%TD*%
D23*
%TO.C,R19*%
X124750000Y-94050000D03*
X124750000Y-92400000D03*
%TD*%
D17*
%TO.C,TP9*%
X154500000Y-96500000D03*
%TD*%
D22*
%TO.C,R8*%
X151450000Y-63900000D03*
X151450000Y-65550000D03*
%TD*%
D23*
%TO.C,R3*%
X147250000Y-88100000D03*
X147250000Y-86450000D03*
%TD*%
D10*
%TO.C,R31*%
X156385000Y-81790000D03*
X158035000Y-81790000D03*
%TD*%
%TO.C,R4*%
X150725000Y-78750000D03*
X152375000Y-78750000D03*
%TD*%
D12*
%TO.C,C16*%
X133175000Y-103100000D03*
X134725000Y-103100000D03*
%TD*%
D17*
%TO.C,TP7*%
X144000000Y-106000000D03*
%TD*%
D10*
%TO.C,R29*%
X154785000Y-83400000D03*
X156435000Y-83400000D03*
%TD*%
D11*
%TO.C,C25*%
X132450000Y-98600000D03*
X130900000Y-98600000D03*
%TD*%
D13*
%TO.C,R37*%
X129895000Y-117680000D03*
X128245000Y-117680000D03*
%TD*%
D46*
%TO.C,J9*%
X112990000Y-117630000D03*
D47*
X115530000Y-117630000D03*
X118070000Y-117630000D03*
X120610000Y-117630000D03*
%TD*%
D13*
%TO.C,R33*%
X152395000Y-77020000D03*
X150745000Y-77020000D03*
%TD*%
D30*
%TO.C,H2*%
X162450000Y-71425000D03*
%TD*%
D48*
%TO.C,J5*%
X142330000Y-128900000D03*
D49*
X146530000Y-128900000D03*
%TD*%
D37*
%TO.C,U4*%
X115175000Y-107900000D03*
X115175000Y-108400000D03*
X115175000Y-108900000D03*
X115175000Y-109400000D03*
D38*
X115862500Y-110087500D03*
X116362500Y-110087500D03*
X116862500Y-110087500D03*
X117362500Y-110087500D03*
D37*
X118050000Y-109400000D03*
X118050000Y-108900000D03*
X118050000Y-108400000D03*
X118050000Y-107900000D03*
D38*
X117362500Y-107212500D03*
X116862500Y-107212500D03*
X116362500Y-107212500D03*
X115862500Y-107212500D03*
D50*
X116612500Y-108650000D03*
%TD*%
D11*
%TO.C,C28*%
X153975000Y-110550000D03*
X152425000Y-110550000D03*
%TD*%
D23*
%TO.C,R7*%
X152950000Y-65600000D03*
X152950000Y-63950000D03*
%TD*%
D30*
%TO.C,H1*%
X111050000Y-71425000D03*
%TD*%
M02*
