M48
; DRILL file KiCad 10.0.4 date 2026-07-08T07:11:57
; FORMAT={-:-/ absolute / metric / decimal}
; #@! TF.CreationDate,2026-07-08T07:11:57-04:00
; #@! TF.GenerationSoftware,Kicad,Pcbnew,10.0.4
; #@! TF.FileFunction,Plated,1,2,PTH
FMAT,2
METRIC
; #@! TA.AperFunction,Plated,PTH,ComponentDrill
T1C0.200
; #@! TA.AperFunction,Plated,PTH,ViaDrill
T2C0.300
; #@! TA.AperFunction,Plated,PTH,ComponentDrill
T3C0.600
; #@! TA.AperFunction,Plated,PTH,ComponentDrill
T4C0.750
; #@! TA.AperFunction,Plated,PTH,ComponentDrill
T5C1.000
%
G90
G05
T1
X136.96Y-63.51
X136.96Y-64.91
X137.66Y-62.81
X137.66Y-64.21
X137.66Y-65.61
X138.36Y-63.51
X138.36Y-64.91
X139.06Y-62.81
X139.06Y-64.21
X139.06Y-65.61
X139.76Y-63.51
X139.76Y-64.91
T2
X113.4Y-92.8
X114.2Y-65.3
X114.3Y-102.1
X115.1Y-77.2
X115.3Y-84.0
X116.025Y-82.4
X116.1Y-85.4
X117.2Y-90.4
X117.4Y-81.15
X117.7Y-60.7
X117.7Y-62.5
X118.8Y-96.5
X119.1Y-98.0
X119.2Y-87.8
X119.3Y-62.5
X119.325Y-77.0
X119.4Y-60.7
X119.4Y-82.7
X120.8Y-91.9
X120.8Y-92.8
X120.8Y-98.0
X121.1Y-68.3
X121.2Y-70.7
X121.8Y-111.3
X121.9Y-94.2
X121.9Y-97.3
X122.3Y-103.8
X122.6Y-60.7
X123.3Y-103.5
X123.9Y-59.0
X124.2Y-120.3
X124.2Y-121.3
X124.9Y-89.4
X125.0Y-92.1
X125.3Y-62.5
X125.4Y-96.0
X125.4Y-120.3
X125.4Y-121.3
X125.425Y-99.5
X125.825Y-101.0
X126.1Y-70.1
X126.2Y-72.7
X126.94Y-73.005
X127.605Y-62.66
X127.787Y-72.961
X127.95Y-88.0
X128.3Y-89.4
X128.62Y-72.796
X128.752Y-59.857
X128.9Y-64.8
X129.36Y-72.377
X129.6Y-101.5
X129.9Y-84.9
X130.017Y-77.212
X130.178Y-78.931
X130.2Y-75.6
X130.257Y-76.448
X130.266Y-78.025
X131.179Y-87.3
X131.2Y-88.1
X133.4Y-84.9
X133.4Y-104.3
X133.7Y-127.6
X133.7Y-128.6
X134.1Y-56.7
X134.2Y-93.7
X134.7Y-127.6
X134.7Y-128.6
X135.7Y-89.5
X136.8Y-104.3
X137.2Y-91.2
X137.25Y-89.5
X138.7Y-59.0
X139.0Y-92.8
X139.2Y-97.4
X139.2Y-99.3
X139.2Y-103.5
X139.225Y-78.675
X139.6Y-79.9
X139.6Y-130.5
X139.9Y-98.15
X139.964Y-128.464
X140.0Y-125.7
X140.074Y-88.75
X140.25Y-90.05
X140.8Y-118.7
X141.2Y-93.6
X141.4Y-126.4
X141.5Y-88.15
X141.8Y-82.5
X141.9Y-91.05
X142.2Y-105.247
X142.4Y-87.6
X143.05Y-69.3
X143.1Y-102.147
X143.1Y-103.347
X143.1Y-126.4
X143.314Y-76.431
X143.6Y-84.8
X143.7Y-93.6
X143.85Y-69.3
X143.9Y-82.7
X144.2Y-76.5
X144.5Y-102.147
X144.5Y-103.347
X144.6Y-84.4
X144.7Y-69.3
X144.7Y-82.4
X145.023Y-76.423
X145.375Y-91.05
X145.4Y-67.9
X145.5Y-69.3
X145.9Y-76.5
X146.3Y-78.7
X146.5Y-105.247
X147.2Y-123.9
X147.2Y-125.1
X148.4Y-123.9
X148.458Y-125.058
X148.7Y-94.1
X149.4Y-93.4
X149.7Y-90.375
X149.8Y-86.85
X150.2Y-89.5
X151.0Y-56.5
X151.0Y-74.3
X152.3Y-61.6
X152.3Y-112.3
X153.1Y-58.075
X153.4Y-113.5
X154.6Y-86.5
X154.7Y-58.1
X154.8Y-62.7
X154.9Y-108.7
X154.9Y-113.7
X154.95Y-105.4
X155.5Y-81.7
X156.3Y-77.8
X158.0Y-119.8
X158.0Y-120.8
X158.3Y-105.4
X158.3Y-107.7
X158.3Y-108.5
X159.2Y-119.8
X159.2Y-120.8
X160.4Y-77.1
X161.1Y-112.9
X161.1Y-113.7
X164.9Y-99.4
T4
X118.8Y-90.55
X120.8Y-90.55
X136.9Y-114.65
X138.9Y-114.65
X140.9Y-114.65
X142.9Y-114.65
X158.5Y-79.0
X160.5Y-79.0
X161.2Y-106.9
X162.5Y-79.0
X163.2Y-106.9
T5
X162.6Y-86.76
X162.6Y-89.3
X162.6Y-91.84
X162.6Y-94.38
X162.6Y-96.92
X162.6Y-99.46
T3
X135.78Y-132.32G85X135.78Y-133.42
G05
X135.78Y-136.75G85X135.78Y-137.35
G05
X144.42Y-132.32G85X144.42Y-133.42
G05
X144.42Y-136.75G85X144.42Y-137.35
G05
M30
