%TF.GenerationSoftware,KiCad,Pcbnew,10.0.2*%
%TF.CreationDate,2026-05-09T23:15:20-04:00*%
%TF.ProjectId,smart-doorbell,736d6172-742d-4646-9f6f-7262656c6c2e,rev?*%
%TF.SameCoordinates,Original*%
%TF.FileFunction,Copper,L2,Bot*%
%TF.FilePolarity,Positive*%
%FSLAX46Y46*%
G04 Gerber Fmt 4.6, Leading zero omitted, Abs format (unit mm)*
G04 Created by KiCad (PCBNEW 10.0.2) date 2026-05-09 23:15:20*
%MOMM*%
%LPD*%
G01*
G04 APERTURE LIST*
G04 Aperture macros list*
%AMRoundRect*
0 Rectangle with rounded corners*
0 $1 Rounding radius*
0 $2 $3 $4 $5 $6 $7 $8 $9 X,Y pos of 4 corners*
0 Add a 4 corners polygon primitive as box body*
4,1,4,$2,$3,$4,$5,$6,$7,$8,$9,$2,$3,0*
0 Add four circle primitives for the rounded corners*
1,1,$1+$1,$2,$3*
1,1,$1+$1,$4,$5*
1,1,$1+$1,$6,$7*
1,1,$1+$1,$8,$9*
0 Add four rect primitives between the rounded corners*
20,1,$1+$1,$2,$3,$4,$5,0*
20,1,$1+$1,$4,$5,$6,$7,0*
20,1,$1+$1,$6,$7,$8,$9,0*
20,1,$1+$1,$8,$9,$2,$3,0*%
G04 Aperture macros list end*
%TA.AperFunction,ComponentPad*%
%ADD10O,1.200000X1.750000*%
%TD*%
%TA.AperFunction,ComponentPad*%
%ADD11RoundRect,0.250000X-0.350000X-0.625000X0.350000X-0.625000X0.350000X0.625000X-0.350000X0.625000X0*%
%TD*%
%TA.AperFunction,ComponentPad*%
%ADD12O,1.000000X1.600000*%
%TD*%
%TA.AperFunction,ComponentPad*%
%ADD13O,1.000000X2.100000*%
%TD*%
%TA.AperFunction,HeatsinkPad*%
%ADD14C,0.600000*%
%TD*%
%TA.AperFunction,ComponentPad*%
%ADD15C,1.700000*%
%TD*%
%TA.AperFunction,ComponentPad*%
%ADD16R,1.700000X1.700000*%
%TD*%
%TA.AperFunction,ViaPad*%
%ADD17C,0.600000*%
%TD*%
%TA.AperFunction,Conductor*%
%ADD18C,0.800000*%
%TD*%
%TA.AperFunction,Conductor*%
%ADD19C,0.400000*%
%TD*%
%TA.AperFunction,Conductor*%
%ADD20C,0.250000*%
%TD*%
%TA.AperFunction,Conductor*%
%ADD21C,0.200000*%
%TD*%
G04 APERTURE END LIST*
D10*
%TO.P,J7,3,Pin_3_3*%
%TO.N,GND*%
X162500000Y-79000000D03*
%TO.P,J7,2,Pin_2_2*%
%TO.N,/PIR_OUT*%
X160500000Y-79000000D03*
D11*
%TO.P,J7,1,Pin_1_1*%
%TO.N,+3V3*%
X158500000Y-79000000D03*
%TD*%
D10*
%TO.P,J5,2,Pin_2_2*%
%TO.N,GND*%
X141100000Y-117150000D03*
D11*
%TO.P,J5,1,Pin_1_1*%
%TO.N,/DOORBELL_IN*%
X139100000Y-117150000D03*
%TD*%
D12*
%TO.P,J2,SH,SHIELD_SH*%
%TO.N,GND*%
X144420000Y-137050000D03*
D13*
X144420000Y-132870000D03*
D12*
X135780000Y-137050000D03*
D13*
X135780000Y-132870000D03*
%TD*%
D10*
%TO.P,J6,2,Pin_2_2*%
%TO.N,/OUTN*%
X120800000Y-90550000D03*
D11*
%TO.P,J6,1,Pin_1_1*%
%TO.N,/OUTP*%
X118800000Y-90550000D03*
%TD*%
D14*
%TO.P,U1,41,GND_41*%
%TO.N,GND*%
X140000000Y-62590000D03*
X140000000Y-61090000D03*
X139250000Y-63340000D03*
X139250000Y-61840000D03*
X139250000Y-60340000D03*
X138500000Y-62590000D03*
X138500000Y-61090000D03*
X137750000Y-63340000D03*
X137750000Y-61840000D03*
X137750000Y-60340000D03*
X137000000Y-62590000D03*
X137000000Y-61090000D03*
%TD*%
D10*
%TO.P,J1,2,Pin_2_2*%
%TO.N,GND*%
X163200000Y-106900000D03*
D11*
%TO.P,J1,1,Pin_1_1*%
%TO.N,+BATT*%
X161200000Y-106900000D03*
%TD*%
D15*
%TO.P,J4,6,Pin_6_6*%
%TO.N,/GPIO6*%
X162600000Y-99460000D03*
%TO.P,J4,5,Pin_5_5*%
%TO.N,/GPIO5*%
X162600000Y-96920000D03*
%TO.P,J4,4,Pin_4_4*%
%TO.N,/GPIO4*%
X162600000Y-94380000D03*
%TO.P,J4,3,Pin_3_3*%
%TO.N,GND*%
X162600000Y-91840000D03*
%TO.P,J4,2,Pin_2_2*%
X162600000Y-89300000D03*
D16*
%TO.P,J4,1,Pin_1_1*%
%TO.N,+3V3*%
X162600000Y-86760000D03*
%TD*%
D17*
%TO.N,GND*%
X153100000Y-58075000D03*
X134100000Y-56700000D03*
X138700000Y-85350000D03*
X119200000Y-87800000D03*
X115300000Y-84000000D03*
X154950000Y-105400000D03*
X127800000Y-56500000D03*
X139600000Y-130500000D03*
X151000000Y-56500000D03*
X145575000Y-86950000D03*
X117400000Y-81150000D03*
X145575000Y-85350000D03*
X154900000Y-108700000D03*
X127800000Y-58900000D03*
X142100000Y-86950000D03*
%TO.N,Net-(U2-PROG)*%
X158300000Y-105400000D03*
X158300000Y-107700000D03*
%TO.N,+3V3*%
X121200000Y-70700000D03*
X139963854Y-128463854D03*
X144600000Y-102000000D03*
X140000000Y-95250000D03*
X149700000Y-90375000D03*
X123725000Y-56425000D03*
X125125000Y-56425000D03*
X140000000Y-89300000D03*
X119325000Y-77000000D03*
X114300000Y-102100000D03*
X140000000Y-125700000D03*
X129600000Y-101500000D03*
X143200000Y-100800000D03*
X143200000Y-102000000D03*
X119400000Y-82700000D03*
X125125000Y-57625000D03*
X144600000Y-100800000D03*
X123725000Y-57625000D03*
%TO.N,+1V5*%
X139200000Y-100300000D03*
X139200000Y-94300000D03*
%TO.N,+BATT*%
X142300000Y-103900000D03*
X159200000Y-119800000D03*
X159200000Y-120800000D03*
X124200000Y-120300000D03*
X125400000Y-120300000D03*
X125400000Y-121300000D03*
X158000000Y-119800000D03*
X158000000Y-120800000D03*
X124200000Y-121300000D03*
X146600000Y-103900000D03*
%TO.N,/PIR_OUT*%
X132800000Y-71700000D03*
X160400000Y-77100000D03*
%TO.N,Net-(RESET1-B)*%
X152300000Y-61600000D03*
X138700000Y-59000000D03*
X125700000Y-70100000D03*
X128752222Y-59856969D03*
%TO.N,/DOORBELL_IN*%
X152300000Y-112300000D03*
X156300000Y-77800000D03*
%TO.N,/GPIO4*%
X125000000Y-92100000D03*
X113400000Y-92800000D03*
X120800000Y-92800000D03*
X129000000Y-91400000D03*
%TO.N,/GPIO5*%
X119100000Y-98000000D03*
X116100000Y-85400000D03*
X125400000Y-96000000D03*
X117200000Y-90400000D03*
X129100000Y-92300000D03*
X116025000Y-82400000D03*
X115100000Y-77200000D03*
X120800000Y-98000000D03*
%TO.N,/GPIO6*%
X127604502Y-62660128D03*
X164900000Y-99400000D03*
X114200000Y-65300000D03*
%TO.N,/CAM_SCL*%
X145022702Y-76422702D03*
X144700000Y-69300000D03*
X143000000Y-84600000D03*
X139500000Y-84600000D03*
%TO.N,+2V8*%
X138175230Y-88687364D03*
X144025000Y-88600000D03*
X147500000Y-90500000D03*
X147500000Y-92750000D03*
%TO.N,/GPIO20*%
X143100000Y-126400000D03*
X141400000Y-126400000D03*
%TO.N,/CAM_SDA*%
X145900000Y-76500000D03*
X145400000Y-67900000D03*
X128900000Y-64800000D03*
X145500000Y-69300000D03*
%TO.N,/CAM_RST*%
X143849997Y-69300000D03*
X144200000Y-76500000D03*
%TO.N,/CAM_VSYNC*%
X143313994Y-76431411D03*
X143049997Y-69300000D03*
%TO.N,/CAM_D4*%
X129360000Y-72376618D03*
X130300000Y-75400000D03*
%TO.N,/CAM_D0*%
X128620495Y-72795707D03*
X130200000Y-76200000D03*
%TO.N,/CAM_D3*%
X127786644Y-72960617D03*
X130100000Y-77000000D03*
%TO.N,/CAM_D1*%
X130200000Y-77800000D03*
X126939889Y-73005331D03*
%TO.N,/CAM_D2*%
X130200000Y-78600000D03*
X126200000Y-72700000D03*
%TO.N,+5V*%
X133700000Y-128600000D03*
X134700000Y-127600000D03*
X147200000Y-123900000D03*
X148400000Y-123900000D03*
X133700000Y-127600000D03*
X147200000Y-125100000D03*
X148457592Y-125057592D03*
X134700000Y-128600000D03*
%TO.N,Net-(D2-K)*%
X161100000Y-112900000D03*
X158300000Y-108500000D03*
%TO.N,/OUTP*%
X122300000Y-103800000D03*
X118800000Y-96500000D03*
%TO.N,/OUTN*%
X123300000Y-103500000D03*
X121900000Y-94200000D03*
X121900000Y-97300000D03*
X120800000Y-91900000D03*
%TO.N,Net-(D2-A)*%
X161100000Y-113700000D03*
X154900000Y-113700000D03*
%TO.N,/AMP_EN*%
X155500000Y-81700000D03*
X121800000Y-111300000D03*
%TD*%
%TO.N,+5V*%
D18*
X133700000Y-128600000D02*
X134700000Y-128600000D01*
X133700000Y-127600000D02*
X133700000Y-128600000D01*
X147200000Y-125100000D02*
X148415184Y-125100000D01*
X148415184Y-125100000D02*
X148457592Y-125057592D01*
X147200000Y-123900000D02*
X147200000Y-125100000D01*
%TO.N,GND*%
D19*
X151525000Y-56500000D02*
X153100000Y-58075000D01*
D20*
X115300000Y-84000000D02*
X116900000Y-84000000D01*
D19*
X140300000Y-86950000D02*
X138700000Y-85350000D01*
D18*
X135780000Y-132870000D02*
X135780000Y-137050000D01*
D20*
X116900000Y-81650000D02*
X117400000Y-81150000D01*
D18*
X144420000Y-132870000D02*
X144420000Y-137050000D01*
D19*
X145525000Y-86900000D02*
X145575000Y-86950000D01*
D18*
X154900000Y-108700000D02*
X154900000Y-105450000D01*
D19*
X119200000Y-85000000D02*
X118100000Y-83900000D01*
X142100000Y-86950000D02*
X145575000Y-86950000D01*
X145575000Y-86950000D02*
X145575000Y-85350000D01*
D21*
X139600000Y-130500000D02*
X138150000Y-130500000D01*
X142050000Y-130500000D02*
X144420000Y-132870000D01*
D19*
X119200000Y-87800000D02*
X119200000Y-85000000D01*
D21*
X139600000Y-130500000D02*
X142050000Y-130500000D01*
D18*
X127800000Y-56500000D02*
X127800000Y-58900000D01*
D21*
X138150000Y-130500000D02*
X135780000Y-132870000D01*
D19*
X142100000Y-86950000D02*
X140300000Y-86950000D01*
X118100000Y-81850000D02*
X117400000Y-81150000D01*
D20*
X116900000Y-84000000D02*
X116900000Y-81650000D01*
D18*
X134100000Y-56700000D02*
X134110000Y-56700000D01*
D19*
X118100000Y-83900000D02*
X118100000Y-81850000D01*
X151000000Y-56500000D02*
X151525000Y-56500000D01*
D18*
X134110000Y-56700000D02*
X137750000Y-60340000D01*
X154900000Y-105450000D02*
X154950000Y-105400000D01*
%TO.N,Net-(U2-PROG)*%
D20*
X158300000Y-107700000D02*
X158300000Y-105400000D01*
%TO.N,+3V3*%
D18*
X123000000Y-90400000D02*
X123000000Y-86300000D01*
X142100000Y-100800000D02*
X141400000Y-101500000D01*
D20*
X140000000Y-125700000D02*
X140000000Y-128427708D01*
D19*
X141709189Y-89600000D02*
X140000000Y-91309189D01*
D18*
X123000000Y-94900000D02*
X123000000Y-90400000D01*
X112800000Y-61700000D02*
X112800000Y-67900000D01*
X122175000Y-57625000D02*
X118100000Y-61700000D01*
D19*
X141709189Y-89600000D02*
X148925000Y-89600000D01*
X148925000Y-89600000D02*
X149700000Y-90375000D01*
X140000000Y-91309189D02*
X140000000Y-95250000D01*
D18*
X118100000Y-61700000D02*
X112800000Y-61700000D01*
X129600000Y-101500000D02*
X123000000Y-94900000D01*
X123000000Y-86300000D02*
X119400000Y-82700000D01*
X119400000Y-70700000D02*
X119400000Y-76925000D01*
D19*
X123000000Y-90400000D02*
X139090811Y-90400000D01*
D18*
X119400000Y-82700000D02*
X119400000Y-77075000D01*
D20*
X140000000Y-128427708D02*
X139963854Y-128463854D01*
D19*
X139090811Y-90400000D02*
X139795405Y-91104595D01*
X123000000Y-94900000D02*
X119400000Y-94900000D01*
D18*
X141400000Y-101500000D02*
X129600000Y-101500000D01*
D19*
X139795405Y-91104595D02*
X140000000Y-91309189D01*
X119400000Y-94900000D02*
X114300000Y-100000000D01*
D18*
X119400000Y-77075000D02*
X119325000Y-77000000D01*
X123725000Y-57625000D02*
X122175000Y-57625000D01*
X116700000Y-68000000D02*
X119400000Y-70700000D01*
D19*
X114300000Y-100000000D02*
X114300000Y-102100000D01*
D18*
X119400000Y-76925000D02*
X119325000Y-77000000D01*
X142100000Y-100800000D02*
X143200000Y-100800000D01*
D19*
X121200000Y-70700000D02*
X119400000Y-70700000D01*
X140000000Y-89300000D02*
X140000000Y-91309189D01*
D18*
X112800000Y-67900000D02*
X112900000Y-68000000D01*
X112900000Y-68000000D02*
X116700000Y-68000000D01*
%TO.N,+1V5*%
D19*
X139200000Y-94300000D02*
X139200000Y-100300000D01*
%TO.N,+BATT*%
D18*
X125400000Y-120800000D02*
X125400000Y-120300000D01*
X146600000Y-103900000D02*
X142300000Y-103900000D01*
X159200000Y-120800000D02*
X159200000Y-120300000D01*
X124200000Y-120300000D02*
X125400000Y-120300000D01*
X125400000Y-120800000D02*
X159200000Y-120800000D01*
X159200000Y-120300000D02*
X159200000Y-119800000D01*
X125400000Y-121300000D02*
X125400000Y-120800000D01*
%TO.N,/PIR_OUT*%
D20*
X132800000Y-71700000D02*
X136200000Y-71700000D01*
X141675000Y-77175000D02*
X160325000Y-77175000D01*
X160325000Y-77175000D02*
X160400000Y-77100000D01*
X136200000Y-71700000D02*
X141675000Y-77175000D01*
%TO.N,Net-(RESET1-B)*%
D21*
X150900000Y-61200000D02*
X151900000Y-61200000D01*
X151900000Y-61200000D02*
X152300000Y-61600000D01*
X126300000Y-64883870D02*
X128608065Y-62575805D01*
X128608065Y-62575805D02*
X128608065Y-60001126D01*
X150900000Y-59000000D02*
X150900000Y-61200000D01*
X138700000Y-59000000D02*
X150900000Y-59000000D01*
X128608065Y-60001126D02*
X128752222Y-59856969D01*
X126300000Y-69500000D02*
X126300000Y-64883870D01*
X125700000Y-70100000D02*
X126300000Y-69500000D01*
%TO.N,/DOORBELL_IN*%
X156200000Y-77900000D02*
X156300000Y-77800000D01*
X152300000Y-112300000D02*
X152300000Y-86200000D01*
X152300000Y-86200000D02*
X156200000Y-82300000D01*
X156200000Y-82300000D02*
X156200000Y-77900000D01*
%TO.N,/GPIO4*%
D20*
X125700000Y-91400000D02*
X129000000Y-91400000D01*
X120800000Y-92800000D02*
X113400000Y-92800000D01*
X125000000Y-92100000D02*
X125700000Y-91400000D01*
%TO.N,/GPIO5*%
X116100000Y-82325000D02*
X116025000Y-82400000D01*
X120800000Y-98000000D02*
X119100000Y-98000000D01*
X129100000Y-92300000D02*
X125400000Y-96000000D01*
X117200000Y-86542462D02*
X116875000Y-86217462D01*
X117200000Y-90400000D02*
X117200000Y-86542462D01*
X116100000Y-78200000D02*
X116100000Y-82325000D01*
X116875000Y-86175000D02*
X116100000Y-85400000D01*
X116875000Y-86217462D02*
X116875000Y-86175000D01*
X115100000Y-77200000D02*
X116100000Y-78200000D01*
%TO.N,/GPIO6*%
X158600000Y-72100000D02*
X158600000Y-55200000D01*
X128525000Y-59200305D02*
X127900000Y-59825305D01*
X127900000Y-59825305D02*
X127900000Y-62644374D01*
X127900000Y-62644374D02*
X127784246Y-62760128D01*
X127784246Y-62760128D02*
X127704502Y-62760128D01*
X130745405Y-55200000D02*
X128525000Y-57420405D01*
X164800000Y-74700000D02*
X161200000Y-74700000D01*
X164900000Y-99400000D02*
X164900000Y-74800000D01*
X158600000Y-55200000D02*
X130745405Y-55200000D01*
X127600000Y-62800000D02*
X125100000Y-65300000D01*
X128525000Y-57420405D02*
X128525000Y-59200305D01*
X125100000Y-65300000D02*
X114200000Y-65300000D01*
X127704502Y-62760128D02*
X127604502Y-62660128D01*
X164900000Y-74800000D02*
X164800000Y-74700000D01*
X161200000Y-74700000D02*
X158600000Y-72100000D01*
%TO.N,/CAM_SCL*%
D21*
X139500000Y-84600000D02*
X143000000Y-84600000D01*
D20*
X144700000Y-69300000D02*
X144700000Y-76100000D01*
X144700000Y-76100000D02*
X145022702Y-76422702D01*
%TO.N,+2V8*%
D19*
X147500000Y-92750000D02*
X147500000Y-90500000D01*
X138262594Y-88600000D02*
X138175230Y-88687364D01*
X144025000Y-88600000D02*
X138262594Y-88600000D01*
%TO.N,/GPIO20*%
D20*
X141400000Y-126400000D02*
X143100000Y-126400000D01*
%TO.N,/CAM_SDA*%
X142300000Y-64800000D02*
X145400000Y-67900000D01*
X145500000Y-69300000D02*
X145900000Y-69700000D01*
X128900000Y-64800000D02*
X142300000Y-64800000D01*
X145900000Y-69700000D02*
X145900000Y-76500000D01*
%TO.N,/CAM_RST*%
X143900000Y-69350003D02*
X143900000Y-75800000D01*
X143900000Y-75800000D02*
X144200000Y-76100000D01*
X143849997Y-69300000D02*
X143900000Y-69350003D01*
X144200000Y-76100000D02*
X144200000Y-76500000D01*
%TO.N,/CAM_VSYNC*%
X143049997Y-69300000D02*
X143200000Y-69450003D01*
X143200000Y-76317417D02*
X143313994Y-76431411D01*
X143200000Y-69450003D02*
X143200000Y-76317417D01*
%TO.N,/CAM_D4*%
X129360000Y-74460000D02*
X130300000Y-75400000D01*
X129360000Y-72376618D02*
X129360000Y-74460000D01*
%TO.N,/CAM_D0*%
X128620495Y-72795707D02*
X128620495Y-74620495D01*
X128620495Y-74620495D02*
X130200000Y-76200000D01*
%TO.N,/CAM_D3*%
X127786644Y-72960617D02*
X127786644Y-74686644D01*
X127786644Y-74686644D02*
X130100000Y-77000000D01*
%TO.N,/CAM_D1*%
X126939889Y-73005331D02*
X126939889Y-74939889D01*
X126939889Y-74939889D02*
X129800000Y-77800000D01*
X129800000Y-77800000D02*
X130200000Y-77800000D01*
%TO.N,/CAM_D2*%
X126200000Y-75200000D02*
X129600000Y-78600000D01*
X129600000Y-78600000D02*
X130200000Y-78600000D01*
X126200000Y-72700000D02*
X126200000Y-75200000D01*
%TO.N,+5V*%
D18*
X137400000Y-123900000D02*
X133700000Y-127600000D01*
X147200000Y-123900000D02*
X137400000Y-123900000D01*
%TO.N,Net-(D2-K)*%
D20*
X161100000Y-112900000D02*
X158300000Y-110100000D01*
X158300000Y-110100000D02*
X158300000Y-108500000D01*
%TO.N,/OUTP*%
X122200000Y-96500000D02*
X122600000Y-96900000D01*
X122800000Y-104300000D02*
X122300000Y-103800000D01*
X124500000Y-104000000D02*
X124200000Y-104300000D01*
X122600000Y-99100000D02*
X124500000Y-101000000D01*
X122600000Y-96900000D02*
X122600000Y-99100000D01*
X124200000Y-104300000D02*
X122800000Y-104300000D01*
X124500000Y-101000000D02*
X124500000Y-104000000D01*
X118800000Y-96500000D02*
X122200000Y-96500000D01*
%TO.N,/OUTN*%
X120800000Y-91900000D02*
X121900000Y-93000000D01*
X121900000Y-99100000D02*
X124050000Y-101250000D01*
X121900000Y-97300000D02*
X121900000Y-99100000D01*
X121900000Y-93000000D02*
X121900000Y-94200000D01*
X124050000Y-103500000D02*
X123300000Y-103500000D01*
X124050000Y-101250000D02*
X124050000Y-103500000D01*
%TO.N,Net-(D2-A)*%
X161100000Y-113700000D02*
X154900000Y-113700000D01*
%TO.N,/AMP_EN*%
X121800000Y-111300000D02*
X151500000Y-111300000D01*
X151500000Y-111300000D02*
X151600000Y-111400000D01*
X151600000Y-85600000D02*
X155500000Y-81700000D01*
X151600000Y-111400000D02*
X151600000Y-85600000D01*
%TD*%
%TA.AperFunction,Conductor*%
%TO.N,GND*%
G36*
X129828491Y-55019685D02*
G01*
X129874246Y-55072489D01*
X129884190Y-55141647D01*
X129855165Y-55205203D01*
X129849133Y-55211681D01*
X128128361Y-56932452D01*
X128128351Y-56932462D01*
X128126270Y-56934544D01*
X128126267Y-56934547D01*
X128039142Y-57021672D01*
X128021712Y-57047758D01*
X128004054Y-57074185D01*
X127970686Y-57124122D01*
X127970685Y-57124124D01*
X127947299Y-57180583D01*
X127947300Y-57180584D01*
X127932616Y-57216034D01*
X127932615Y-57216038D01*
X127928696Y-57225500D01*
X127923537Y-57237954D01*
X127899855Y-57357016D01*
X127899500Y-57358799D01*
X127899500Y-57358818D01*
X127899500Y-58889852D01*
X127879815Y-58956891D01*
X127863181Y-58977533D01*
X127504303Y-59336410D01*
X127504296Y-59336417D01*
X127501269Y-59339445D01*
X127501267Y-59339447D01*
X127414142Y-59426572D01*
X127379919Y-59477790D01*
X127375533Y-59484353D01*
X127375532Y-59484355D01*
X127345687Y-59529019D01*
X127345685Y-59529023D01*
X127316079Y-59600499D01*
X127316080Y-59600500D01*
X127305726Y-59625498D01*
X127298538Y-59642851D01*
X127298535Y-59642861D01*
X127276307Y-59754608D01*
X127276308Y-59754609D01*
X127274500Y-59763699D01*
X127274500Y-61851594D01*
X127254815Y-61918633D01*
X127219391Y-61954696D01*
X127094213Y-62038338D01*
X127094209Y-62038341D01*
X126982715Y-62149835D01*
X126982712Y-62149839D01*
X126895111Y-62280942D01*
X126895104Y-62280955D01*
X126834766Y-62426626D01*
X126834763Y-62426638D01*
X126804002Y-62581281D01*
X126804002Y-62660046D01*
X126784317Y-62727085D01*
X126767683Y-62747727D01*
X124877229Y-64638181D01*
X124815906Y-64671666D01*
X124789548Y-64674500D01*
X114742350Y-64674500D01*
X114675311Y-64654815D01*
X114673459Y-64653602D01*
X114579184Y-64590609D01*
X114579172Y-64590602D01*
X114433501Y-64530264D01*
X114433489Y-64530261D01*
X114278845Y-64499500D01*
X114278842Y-64499500D01*
X114121158Y-64499500D01*
X114121155Y-64499500D01*
X113966510Y-64530261D01*
X113966507Y-64530261D01*
X113871952Y-64569427D01*
X113802482Y-64576895D01*
X113740003Y-64545619D01*
X113704351Y-64485530D01*
X113700500Y-64454865D01*
X113700500Y-62724500D01*
X113720185Y-62657461D01*
X113772989Y-62611706D01*
X113824500Y-62600500D01*
X118188693Y-62600500D01*
X118188694Y-62600499D01*
X118362666Y-62565895D01*
X118444606Y-62531953D01*
X118526547Y-62498013D01*
X118633377Y-62426631D01*
X118674036Y-62399464D01*
X122511680Y-58561818D01*
X122573003Y-58528334D01*
X122599361Y-58525500D01*
X123813693Y-58525500D01*
X123813694Y-58525499D01*
X123921497Y-58504056D01*
X123987658Y-58490896D01*
X123987661Y-58490894D01*
X123987666Y-58490894D01*
X124151547Y-58423013D01*
X124299035Y-58324464D01*
X124408030Y-58215468D01*
X124469351Y-58181985D01*
X124539043Y-58186969D01*
X124583391Y-58215470D01*
X124614707Y-58246786D01*
X124614711Y-58246789D01*
X124745814Y-58334390D01*
X124745827Y-58334397D01*
X124891498Y-58394735D01*
X124891503Y-58394737D01*
X125025712Y-58421433D01*
X125046153Y-58425499D01*
X125046156Y-58425500D01*
X125046158Y-58425500D01*
X125203844Y-58425500D01*
X125203845Y-58425499D01*
X125358497Y-58394737D01*
X125504179Y-58334394D01*
X125635289Y-58246789D01*
X125746789Y-58135289D01*
X125834394Y-58004179D01*
X125894737Y-57858497D01*
X125925500Y-57703842D01*
X125925500Y-57546158D01*
X125925500Y-57546155D01*
X125925499Y-57546153D01*
X125902399Y-57430022D01*
X125894737Y-57391503D01*
X125880452Y-57357016D01*
X125834397Y-57245827D01*
X125834390Y-57245814D01*
X125746789Y-57114711D01*
X125744766Y-57112688D01*
X125744043Y-57111365D01*
X125742924Y-57110001D01*
X125743182Y-57109788D01*
X125711276Y-57051368D01*
X125716255Y-56981676D01*
X125742999Y-56940060D01*
X125742924Y-56939999D01*
X125743454Y-56939351D01*
X125744766Y-56937312D01*
X125746789Y-56935289D01*
X125834394Y-56804179D01*
X125894737Y-56658497D01*
X125925500Y-56503842D01*
X125925500Y-56346158D01*
X125925500Y-56346155D01*
X125925499Y-56346153D01*
X125910248Y-56269482D01*
X125894737Y-56191503D01*
X125878410Y-56152086D01*
X125834397Y-56045827D01*
X125834390Y-56045814D01*
X125746789Y-55914711D01*
X125746786Y-55914707D01*
X125635292Y-55803213D01*
X125635288Y-55803210D01*
X125504185Y-55715609D01*
X125504172Y-55715602D01*
X125358501Y-55655264D01*
X125358489Y-55655261D01*
X125203845Y-55624500D01*
X125203842Y-55624500D01*
X125046158Y-55624500D01*
X125046155Y-55624500D01*
X124891510Y-55655261D01*
X124891498Y-55655264D01*
X124745827Y-55715602D01*
X124745814Y-55715609D01*
X124614711Y-55803210D01*
X124614707Y-55803213D01*
X124512681Y-55905240D01*
X124451358Y-55938725D01*
X124381666Y-55933741D01*
X124337319Y-55905240D01*
X124235292Y-55803213D01*
X124235288Y-55803210D01*
X124104185Y-55715609D01*
X124104172Y-55715602D01*
X123958501Y-55655264D01*
X123958489Y-55655261D01*
X123803845Y-55624500D01*
X123803842Y-55624500D01*
X123646158Y-55624500D01*
X123646155Y-55624500D01*
X123491510Y-55655261D01*
X123491498Y-55655264D01*
X123345827Y-55715602D01*
X123345814Y-55715609D01*
X123214711Y-55803210D01*
X123214707Y-55803213D01*
X123103213Y-55914707D01*
X123103210Y-55914711D01*
X123015609Y-56045814D01*
X123015602Y-56045827D01*
X122955264Y-56191498D01*
X122955261Y-56191510D01*
X122924500Y-56346153D01*
X122924500Y-56503846D01*
X122938914Y-56576309D01*
X122932687Y-56645900D01*
X122889824Y-56701078D01*
X122823934Y-56724322D01*
X122817297Y-56724500D01*
X122086306Y-56724500D01*
X121980625Y-56745522D01*
X121980624Y-56745522D01*
X121912341Y-56759103D01*
X121912332Y-56759106D01*
X121748459Y-56826983D01*
X121748446Y-56826990D01*
X121600966Y-56925534D01*
X121600964Y-56925537D01*
X117763319Y-60763181D01*
X117701996Y-60796666D01*
X117675638Y-60799500D01*
X112711306Y-60799500D01*
X112537341Y-60834103D01*
X112537332Y-60834106D01*
X112373459Y-60901983D01*
X112373446Y-60901990D01*
X112225965Y-61000535D01*
X112225961Y-61000538D01*
X112100538Y-61125961D01*
X112100535Y-61125965D01*
X112001990Y-61273446D01*
X112001983Y-61273459D01*
X111934106Y-61437332D01*
X111934103Y-61437341D01*
X111899500Y-61611304D01*
X111899500Y-67988696D01*
X111934103Y-68162659D01*
X111934105Y-68162666D01*
X111948030Y-68196284D01*
X111948031Y-68196286D01*
X112001983Y-68326540D01*
X112001991Y-68326555D01*
X112057940Y-68410286D01*
X112057941Y-68410289D01*
X112100532Y-68474031D01*
X112100534Y-68474034D01*
X112100535Y-68474035D01*
X112100536Y-68474036D01*
X112217107Y-68590606D01*
X112285948Y-68659447D01*
X112325966Y-68699465D01*
X112473446Y-68798009D01*
X112473459Y-68798016D01*
X112596363Y-68848923D01*
X112637334Y-68865894D01*
X112679935Y-68874368D01*
X112811305Y-68900500D01*
X112811308Y-68900500D01*
X112811309Y-68900500D01*
X116275638Y-68900500D01*
X116342677Y-68920185D01*
X116363319Y-68936819D01*
X116944048Y-69517548D01*
X117378993Y-69952492D01*
X117412478Y-70013815D01*
X117407494Y-70083507D01*
X117365622Y-70139440D01*
X117310710Y-70162646D01*
X117183760Y-70182753D01*
X116981585Y-70248444D01*
X116792179Y-70344951D01*
X116620213Y-70469890D01*
X116469890Y-70620213D01*
X116344951Y-70792179D01*
X116248444Y-70981585D01*
X116182753Y-71183760D01*
X116149500Y-71393713D01*
X116149500Y-71606286D01*
X116182700Y-71815906D01*
X116182754Y-71816243D01*
X116241630Y-71997445D01*
X116248444Y-72018414D01*
X116344951Y-72207820D01*
X116469890Y-72379786D01*
X116620213Y-72530109D01*
X116792179Y-72655048D01*
X116792181Y-72655049D01*
X116792184Y-72655051D01*
X116981588Y-72751557D01*
X117183757Y-72817246D01*
X117393713Y-72850500D01*
X117393714Y-72850500D01*
X117606286Y-72850500D01*
X117606287Y-72850500D01*
X117816243Y-72817246D01*
X118018412Y-72751557D01*
X118207816Y-72655051D01*
X118302615Y-72586176D01*
X118368421Y-72562696D01*
X118436475Y-72578521D01*
X118485170Y-72628627D01*
X118499500Y-72686494D01*
X118499500Y-76615147D01*
X118490061Y-76662600D01*
X118459105Y-76737333D01*
X118459103Y-76737341D01*
X118424500Y-76911303D01*
X118424500Y-77088696D01*
X118459103Y-77262658D01*
X118459105Y-77262666D01*
X118490061Y-77337399D01*
X118499500Y-77384852D01*
X118499500Y-82788696D01*
X118534103Y-82962659D01*
X118534106Y-82962669D01*
X118550176Y-83001463D01*
X118550177Y-83001466D01*
X118601983Y-83126540D01*
X118601991Y-83126555D01*
X118657940Y-83210286D01*
X118657941Y-83210288D01*
X118700537Y-83274038D01*
X118700540Y-83274041D01*
X122063181Y-86636681D01*
X122096666Y-86698004D01*
X122099500Y-86724362D01*
X122099500Y-89930253D01*
X122079815Y-89997292D01*
X122027011Y-90043047D01*
X121957853Y-90052991D01*
X121894297Y-90023966D01*
X121857569Y-89968571D01*
X121819873Y-89852555D01*
X121741232Y-89698212D01*
X121639414Y-89558072D01*
X121516928Y-89435586D01*
X121376788Y-89333768D01*
X121222445Y-89255127D01*
X121057701Y-89201598D01*
X121057699Y-89201597D01*
X121057698Y-89201597D01*
X120926271Y-89180781D01*
X120886611Y-89174500D01*
X120713389Y-89174500D01*
X120673728Y-89180781D01*
X120542302Y-89201597D01*
X120377552Y-89255128D01*
X120223211Y-89333768D01*
X120083073Y-89435585D01*
X119975530Y-89543128D01*
X119914207Y-89576612D01*
X119844515Y-89571628D01*
X119788582Y-89529756D01*
X119782310Y-89520543D01*
X119765317Y-89492993D01*
X119742712Y-89456344D01*
X119618656Y-89332288D01*
X119493559Y-89255128D01*
X119469336Y-89240187D01*
X119469331Y-89240185D01*
X119451191Y-89234174D01*
X119302797Y-89185001D01*
X119302795Y-89185000D01*
X119200010Y-89174500D01*
X118399998Y-89174500D01*
X118399980Y-89174501D01*
X118297203Y-89185000D01*
X118297200Y-89185001D01*
X118130668Y-89240185D01*
X118130663Y-89240187D01*
X118057179Y-89285512D01*
X118014595Y-89311778D01*
X117947204Y-89330218D01*
X117880541Y-89309295D01*
X117835771Y-89255653D01*
X117825500Y-89206239D01*
X117825500Y-86480858D01*
X117825500Y-86480856D01*
X117823597Y-86471291D01*
X117823597Y-86471286D01*
X117823596Y-86471287D01*
X117823596Y-86471286D01*
X117801463Y-86360010D01*
X117754311Y-86246176D01*
X117754311Y-86246175D01*
X117744224Y-86231080D01*
X117740496Y-86225500D01*
X117685858Y-86143729D01*
X117598733Y-86056604D01*
X117598732Y-86056603D01*
X117452042Y-85909913D01*
X117430365Y-85880686D01*
X117429315Y-85878722D01*
X117429312Y-85878715D01*
X117378397Y-85802516D01*
X117360858Y-85776266D01*
X117360855Y-85776263D01*
X116925793Y-85341203D01*
X116892308Y-85279880D01*
X116891887Y-85277864D01*
X116869737Y-85166503D01*
X116845599Y-85108230D01*
X116809397Y-85020827D01*
X116809390Y-85020814D01*
X116721789Y-84889711D01*
X116721786Y-84889707D01*
X116610292Y-84778213D01*
X116610288Y-84778210D01*
X116479185Y-84690609D01*
X116479172Y-84690602D01*
X116333501Y-84630264D01*
X116333489Y-84630261D01*
X116178845Y-84599500D01*
X116178842Y-84599500D01*
X116021158Y-84599500D01*
X116021155Y-84599500D01*
X115866510Y-84630261D01*
X115866498Y-84630264D01*
X115720827Y-84690602D01*
X115720814Y-84690609D01*
X115589711Y-84778210D01*
X115589707Y-84778213D01*
X115478213Y-84889707D01*
X115478210Y-84889711D01*
X115390609Y-85020814D01*
X115390602Y-85020827D01*
X115330264Y-85166498D01*
X115330261Y-85166510D01*
X115299500Y-85321153D01*
X115299500Y-85478846D01*
X115330261Y-85633489D01*
X115330264Y-85633501D01*
X115390602Y-85779172D01*
X115390609Y-85779185D01*
X115478210Y-85910288D01*
X115478213Y-85910292D01*
X115589707Y-86021786D01*
X115589711Y-86021789D01*
X115720814Y-86109390D01*
X115720827Y-86109397D01*
X115803714Y-86143729D01*
X115866503Y-86169737D01*
X115977716Y-86191858D01*
X116039623Y-86224241D01*
X116041203Y-86225793D01*
X116297955Y-86482546D01*
X116314136Y-86502488D01*
X116319309Y-86510421D01*
X116320688Y-86513748D01*
X116353375Y-86562666D01*
X116353725Y-86563190D01*
X116353791Y-86563291D01*
X116389138Y-86616190D01*
X116389139Y-86616191D01*
X116389142Y-86616195D01*
X116476267Y-86703320D01*
X116476269Y-86703321D01*
X116483335Y-86710387D01*
X116483334Y-86710387D01*
X116483338Y-86710390D01*
X116538181Y-86765233D01*
X116571666Y-86826556D01*
X116574500Y-86852914D01*
X116574500Y-89857650D01*
X116554815Y-89924689D01*
X116553626Y-89926503D01*
X116532802Y-89957668D01*
X116490609Y-90020815D01*
X116490602Y-90020828D01*
X116430264Y-90166498D01*
X116430261Y-90166510D01*
X116399500Y-90321153D01*
X116399500Y-90478846D01*
X116430261Y-90633489D01*
X116430264Y-90633501D01*
X116490602Y-90779172D01*
X116490609Y-90779185D01*
X116578210Y-90910288D01*
X116578213Y-90910292D01*
X116689707Y-91021786D01*
X116689711Y-91021789D01*
X116820814Y-91109390D01*
X116820827Y-91109397D01*
X116958695Y-91166503D01*
X116966503Y-91169737D01*
X117121153Y-91200499D01*
X117121156Y-91200500D01*
X117121158Y-91200500D01*
X117278844Y-91200500D01*
X117278845Y-91200499D01*
X117433497Y-91169737D01*
X117529402Y-91130011D01*
X117598871Y-91122543D01*
X117661350Y-91153818D01*
X117697002Y-91213907D01*
X117700212Y-91231971D01*
X117710001Y-91327797D01*
X117710001Y-91327799D01*
X117765185Y-91494331D01*
X117765187Y-91494336D01*
X117793955Y-91540977D01*
X117857288Y-91643656D01*
X117981344Y-91767712D01*
X118130666Y-91859814D01*
X118297203Y-91914999D01*
X118399991Y-91925500D01*
X119200008Y-91925499D01*
X119200016Y-91925498D01*
X119200019Y-91925498D01*
X119256302Y-91919748D01*
X119302797Y-91914999D01*
X119469334Y-91859814D01*
X119618656Y-91767712D01*
X119742712Y-91643656D01*
X119782310Y-91579456D01*
X119799601Y-91563904D01*
X119813539Y-91545286D01*
X119825091Y-91540977D01*
X119834258Y-91532732D01*
X119857213Y-91528996D01*
X119879003Y-91520869D01*
X119891049Y-91523489D01*
X119903220Y-91521509D01*
X119924553Y-91530777D01*
X119947276Y-91535721D01*
X119962969Y-91547469D01*
X119967303Y-91549352D01*
X119975530Y-91556872D01*
X119992504Y-91573846D01*
X120025989Y-91635169D01*
X120026440Y-91685718D01*
X119999500Y-91821153D01*
X119999500Y-91978846D01*
X120008941Y-92026309D01*
X120002714Y-92095901D01*
X119959851Y-92151078D01*
X119893961Y-92174322D01*
X119887324Y-92174500D01*
X113942350Y-92174500D01*
X113875311Y-92154815D01*
X113873459Y-92153602D01*
X113779184Y-92090609D01*
X113779172Y-92090602D01*
X113633501Y-92030264D01*
X113633489Y-92030261D01*
X113478845Y-91999500D01*
X113478842Y-91999500D01*
X113321158Y-91999500D01*
X113321155Y-91999500D01*
X113166510Y-92030261D01*
X113166498Y-92030264D01*
X113020827Y-92090602D01*
X113020814Y-92090609D01*
X112889711Y-92178210D01*
X112889707Y-92178213D01*
X112778213Y-92289707D01*
X112778210Y-92289711D01*
X112690609Y-92420814D01*
X112690602Y-92420827D01*
X112630264Y-92566498D01*
X112630261Y-92566510D01*
X112599500Y-92721153D01*
X112599500Y-92878846D01*
X112630261Y-93033489D01*
X112630264Y-93033501D01*
X112690602Y-93179172D01*
X112690609Y-93179185D01*
X112778210Y-93310288D01*
X112778213Y-93310292D01*
X112889707Y-93421786D01*
X112889711Y-93421789D01*
X113020814Y-93509390D01*
X113020827Y-93509397D01*
X113166498Y-93569735D01*
X113166503Y-93569737D01*
X113321153Y-93600499D01*
X113321156Y-93600500D01*
X113321158Y-93600500D01*
X113478844Y-93600500D01*
X113478845Y-93600499D01*
X113633497Y-93569737D01*
X113779179Y-93509394D01*
X113873459Y-93446398D01*
X113940136Y-93425520D01*
X113942350Y-93425500D01*
X120257650Y-93425500D01*
X120324689Y-93445185D01*
X120326541Y-93446398D01*
X120420821Y-93509394D01*
X120420823Y-93509395D01*
X120420827Y-93509397D01*
X120566498Y-93569735D01*
X120566503Y-93569737D01*
X120721153Y-93600499D01*
X120721156Y-93600500D01*
X120721158Y-93600500D01*
X120878844Y-93600500D01*
X120878845Y-93600499D01*
X121033497Y-93569737D01*
X121103049Y-93540927D01*
X121135676Y-93537419D01*
X121168147Y-93532751D01*
X121170234Y-93533704D01*
X121172516Y-93533459D01*
X121201854Y-93548144D01*
X121231703Y-93561776D01*
X121232943Y-93563706D01*
X121234996Y-93564734D01*
X121251729Y-93592937D01*
X121269477Y-93620554D01*
X121269912Y-93623583D01*
X121270648Y-93624823D01*
X121274500Y-93655489D01*
X121274500Y-93657650D01*
X121254815Y-93724689D01*
X121253602Y-93726541D01*
X121190609Y-93820815D01*
X121190602Y-93820828D01*
X121130264Y-93966498D01*
X121130261Y-93966508D01*
X121103769Y-94099692D01*
X121071384Y-94161603D01*
X121010668Y-94196177D01*
X120982152Y-94199500D01*
X119331003Y-94199500D01*
X119222590Y-94221065D01*
X119222589Y-94221065D01*
X119195671Y-94226420D01*
X119068190Y-94279224D01*
X118953454Y-94355887D01*
X113755887Y-99553454D01*
X113679222Y-99668192D01*
X113626421Y-99795667D01*
X113626420Y-99795671D01*
X113626420Y-99795672D01*
X113608586Y-99885331D01*
X113604174Y-99907510D01*
X113599500Y-99931006D01*
X113599500Y-101674684D01*
X113590061Y-101722136D01*
X113530264Y-101866498D01*
X113530261Y-101866510D01*
X113499500Y-102021153D01*
X113499500Y-102178846D01*
X113530261Y-102333489D01*
X113530264Y-102333501D01*
X113590602Y-102479172D01*
X113590609Y-102479185D01*
X113678210Y-102610288D01*
X113678213Y-102610292D01*
X113789707Y-102721786D01*
X113789711Y-102721789D01*
X113920814Y-102809390D01*
X113920827Y-102809397D01*
X114037812Y-102857853D01*
X114066503Y-102869737D01*
X114221153Y-102900499D01*
X114221156Y-102900500D01*
X114221158Y-102900500D01*
X114378844Y-102900500D01*
X114378845Y-102900499D01*
X114533497Y-102869737D01*
X114679179Y-102809394D01*
X114810289Y-102721789D01*
X114921789Y-102610289D01*
X115009394Y-102479179D01*
X115069737Y-102333497D01*
X115100500Y-102178842D01*
X115100500Y-102021158D01*
X115100500Y-102021155D01*
X115100499Y-102021153D01*
X115086782Y-101952195D01*
X115069737Y-101866503D01*
X115009939Y-101722136D01*
X115000500Y-101674684D01*
X115000500Y-100341518D01*
X115020185Y-100274479D01*
X115036814Y-100253842D01*
X118145313Y-97145342D01*
X118169541Y-97132113D01*
X118191968Y-97116008D01*
X118199773Y-97115604D01*
X118206634Y-97111859D01*
X118234175Y-97113828D01*
X118261745Y-97112405D01*
X118271048Y-97116465D01*
X118276326Y-97116843D01*
X118294563Y-97125391D01*
X118298307Y-97127533D01*
X118420821Y-97209394D01*
X118495448Y-97240305D01*
X118502281Y-97244214D01*
X118521253Y-97263953D01*
X118542565Y-97281127D01*
X118545110Y-97288774D01*
X118550698Y-97294588D01*
X118555986Y-97321449D01*
X118564631Y-97347420D01*
X118562637Y-97355231D01*
X118564195Y-97363142D01*
X118554122Y-97388596D01*
X118547353Y-97415120D01*
X118539756Y-97424898D01*
X118538486Y-97428110D01*
X118535717Y-97430098D01*
X118528392Y-97439528D01*
X118478214Y-97489706D01*
X118478210Y-97489711D01*
X118390609Y-97620814D01*
X118390602Y-97620827D01*
X118330264Y-97766498D01*
X118330261Y-97766510D01*
X118299500Y-97921153D01*
X118299500Y-98078846D01*
X118330261Y-98233489D01*
X118330264Y-98233501D01*
X118390602Y-98379172D01*
X118390609Y-98379185D01*
X118478210Y-98510288D01*
X118478213Y-98510292D01*
X118589707Y-98621786D01*
X118589711Y-98621789D01*
X118720814Y-98709390D01*
X118720827Y-98709397D01*
X118866498Y-98769735D01*
X118866503Y-98769737D01*
X119021153Y-98800499D01*
X119021156Y-98800500D01*
X119021158Y-98800500D01*
X119178844Y-98800500D01*
X119178845Y-98800499D01*
X119333497Y-98769737D01*
X119479179Y-98709394D01*
X119573459Y-98646398D01*
X119640136Y-98625520D01*
X119642350Y-98625500D01*
X120257650Y-98625500D01*
X120324689Y-98645185D01*
X120326541Y-98646398D01*
X120420821Y-98709394D01*
X120420823Y-98709395D01*
X120420827Y-98709397D01*
X120566498Y-98769735D01*
X120566503Y-98769737D01*
X120721153Y-98800499D01*
X120721156Y-98800500D01*
X120721158Y-98800500D01*
X120878844Y-98800500D01*
X120878845Y-98800499D01*
X121033497Y-98769737D01*
X121103049Y-98740927D01*
X121172516Y-98733459D01*
X121234996Y-98764734D01*
X121270648Y-98824823D01*
X121274500Y-98855489D01*
X121274500Y-99161611D01*
X121298535Y-99282444D01*
X121298540Y-99282461D01*
X121345685Y-99396280D01*
X121345687Y-99396283D01*
X121345688Y-99396286D01*
X121379915Y-99447509D01*
X121414142Y-99498733D01*
X121501267Y-99585858D01*
X121501270Y-99585860D01*
X121508554Y-99593144D01*
X123388181Y-101472771D01*
X123421666Y-101534094D01*
X123424500Y-101560452D01*
X123424500Y-102575500D01*
X123404815Y-102642539D01*
X123352011Y-102688294D01*
X123300500Y-102699500D01*
X123221155Y-102699500D01*
X123066510Y-102730261D01*
X123066498Y-102730264D01*
X122920827Y-102790602D01*
X122920814Y-102790609D01*
X122789712Y-102878209D01*
X122678205Y-102989717D01*
X122674993Y-102993631D01*
X122617243Y-103032959D01*
X122547398Y-103034822D01*
X122537485Y-103031473D01*
X122533488Y-103030260D01*
X122378845Y-102999500D01*
X122378842Y-102999500D01*
X122221158Y-102999500D01*
X122221155Y-102999500D01*
X122066510Y-103030261D01*
X122066498Y-103030264D01*
X121920827Y-103090602D01*
X121920814Y-103090609D01*
X121789711Y-103178210D01*
X121789707Y-103178213D01*
X121678213Y-103289707D01*
X121678210Y-103289711D01*
X121590609Y-103420814D01*
X121590602Y-103420827D01*
X121530264Y-103566498D01*
X121530261Y-103566510D01*
X121499500Y-103721153D01*
X121499500Y-103878846D01*
X121530261Y-104033489D01*
X121530264Y-104033501D01*
X121590602Y-104179172D01*
X121590609Y-104179185D01*
X121678210Y-104310288D01*
X121678213Y-104310292D01*
X121789707Y-104421786D01*
X121789711Y-104421789D01*
X121920814Y-104509390D01*
X121920827Y-104509397D01*
X122008230Y-104545599D01*
X122066503Y-104569737D01*
X122177716Y-104591858D01*
X122194470Y-104600622D01*
X122212949Y-104604642D01*
X122237985Y-104623384D01*
X122239623Y-104624241D01*
X122241203Y-104625793D01*
X122311016Y-104695606D01*
X122311045Y-104695637D01*
X122401264Y-104785856D01*
X122401267Y-104785858D01*
X122457655Y-104823535D01*
X122503715Y-104854312D01*
X122570397Y-104881932D01*
X122575405Y-104884006D01*
X122575410Y-104884009D01*
X122610530Y-104898555D01*
X122617548Y-104901463D01*
X122677971Y-104913481D01*
X122738393Y-104925500D01*
X124261607Y-104925500D01*
X124322029Y-104913481D01*
X124382452Y-104901463D01*
X124415792Y-104887652D01*
X124496286Y-104854312D01*
X124547509Y-104820084D01*
X124547972Y-104819775D01*
X124576819Y-104800500D01*
X124598733Y-104785858D01*
X124685858Y-104698733D01*
X124685859Y-104698731D01*
X124692925Y-104691665D01*
X124692928Y-104691661D01*
X124898729Y-104485860D01*
X124898733Y-104485858D01*
X124985858Y-104398733D01*
X125020084Y-104347509D01*
X125054312Y-104296286D01*
X125101463Y-104182451D01*
X125105399Y-104162666D01*
X125119903Y-104089744D01*
X125119903Y-104089743D01*
X125119904Y-104089743D01*
X125119904Y-104089738D01*
X125125500Y-104061607D01*
X125125500Y-103938393D01*
X125125500Y-100938394D01*
X125125500Y-100938389D01*
X125122885Y-100925249D01*
X125122884Y-100925248D01*
X125122544Y-100923535D01*
X125101463Y-100817549D01*
X125098543Y-100810500D01*
X125057457Y-100711309D01*
X125054312Y-100703715D01*
X125034176Y-100673580D01*
X124985858Y-100601267D01*
X124985856Y-100601264D01*
X124895637Y-100511045D01*
X124895606Y-100511016D01*
X123261819Y-98877229D01*
X123228334Y-98815906D01*
X123225500Y-98789548D01*
X123225500Y-96838394D01*
X123217124Y-96796286D01*
X123201463Y-96717548D01*
X123193997Y-96699524D01*
X123191711Y-96689921D01*
X123193031Y-96664493D01*
X123190310Y-96639187D01*
X123194812Y-96630192D01*
X123195334Y-96620145D01*
X123210189Y-96599472D01*
X123221584Y-96576707D01*
X123230236Y-96571573D01*
X123236106Y-96563405D01*
X123259777Y-96554045D01*
X123281673Y-96541054D01*
X123291726Y-96541412D01*
X123301081Y-96537714D01*
X123326057Y-96542638D01*
X123351498Y-96543547D01*
X123361265Y-96549580D01*
X123369631Y-96551230D01*
X123379858Y-96561066D01*
X123400021Y-96573521D01*
X126180214Y-99353713D01*
X128900536Y-102074035D01*
X129005343Y-102178842D01*
X129025966Y-102199465D01*
X129173449Y-102298011D01*
X129173451Y-102298012D01*
X129197863Y-102308124D01*
X129197866Y-102308125D01*
X129197871Y-102308127D01*
X129337334Y-102365895D01*
X129474800Y-102393238D01*
X129511304Y-102400499D01*
X129511308Y-102400500D01*
X129511309Y-102400500D01*
X141488693Y-102400500D01*
X141488694Y-102400499D01*
X141662666Y-102365895D01*
X141744606Y-102331953D01*
X141826547Y-102298013D01*
X141923101Y-102233497D01*
X141974036Y-102199464D01*
X142187820Y-101985678D01*
X142249141Y-101952195D01*
X142318833Y-101957179D01*
X142374767Y-101999050D01*
X142399184Y-102064514D01*
X142399500Y-102073361D01*
X142399500Y-102078846D01*
X142430261Y-102233489D01*
X142430264Y-102233501D01*
X142490602Y-102379172D01*
X142490609Y-102379185D01*
X142578210Y-102510288D01*
X142578213Y-102510292D01*
X142689707Y-102621786D01*
X142689711Y-102621789D01*
X142820814Y-102709390D01*
X142820827Y-102709397D01*
X142945262Y-102760939D01*
X142999666Y-102804779D01*
X143021731Y-102871074D01*
X143004452Y-102938773D01*
X142953315Y-102986384D01*
X142897810Y-102999500D01*
X142211306Y-102999500D01*
X142037341Y-103034103D01*
X142037332Y-103034106D01*
X141873459Y-103101983D01*
X141873446Y-103101990D01*
X141725965Y-103200535D01*
X141725961Y-103200538D01*
X141600538Y-103325961D01*
X141600535Y-103325965D01*
X141501990Y-103473446D01*
X141501983Y-103473459D01*
X141434106Y-103637332D01*
X141434103Y-103637341D01*
X141399500Y-103811304D01*
X141399500Y-103988695D01*
X141434103Y-104162658D01*
X141434105Y-104162663D01*
X141501983Y-104326540D01*
X141501990Y-104326553D01*
X141600535Y-104474034D01*
X141600538Y-104474038D01*
X141725961Y-104599461D01*
X141725965Y-104599464D01*
X141873446Y-104698009D01*
X141873459Y-104698016D01*
X141996363Y-104748923D01*
X142037334Y-104765894D01*
X142037336Y-104765894D01*
X142037341Y-104765896D01*
X142211304Y-104800499D01*
X142211307Y-104800500D01*
X142211309Y-104800500D01*
X146688693Y-104800500D01*
X146688694Y-104800499D01*
X146762311Y-104785856D01*
X146862658Y-104765896D01*
X146862661Y-104765894D01*
X146862666Y-104765894D01*
X147024809Y-104698733D01*
X147026540Y-104698016D01*
X147026540Y-104698015D01*
X147026547Y-104698013D01*
X147174035Y-104599464D01*
X147299464Y-104474035D01*
X147398013Y-104326547D01*
X147465894Y-104162666D01*
X147480400Y-104089743D01*
X147500499Y-103988695D01*
X147500500Y-103988693D01*
X147500500Y-103811306D01*
X147500499Y-103811304D01*
X147465896Y-103637341D01*
X147465893Y-103637332D01*
X147398016Y-103473459D01*
X147398009Y-103473446D01*
X147299464Y-103325965D01*
X147299461Y-103325961D01*
X147174038Y-103200538D01*
X147174034Y-103200535D01*
X147026553Y-103101990D01*
X147026540Y-103101983D01*
X146862667Y-103034106D01*
X146862658Y-103034103D01*
X146688694Y-102999500D01*
X146688691Y-102999500D01*
X144902190Y-102999500D01*
X144835151Y-102979815D01*
X144789396Y-102927011D01*
X144779452Y-102857853D01*
X144808477Y-102794297D01*
X144854738Y-102760939D01*
X144979172Y-102709397D01*
X144979172Y-102709396D01*
X144979179Y-102709394D01*
X145110289Y-102621789D01*
X145221789Y-102510289D01*
X145309394Y-102379179D01*
X145369737Y-102233497D01*
X145400500Y-102078842D01*
X145400500Y-101921158D01*
X145400500Y-101921155D01*
X145400499Y-101921153D01*
X145369738Y-101766510D01*
X145369737Y-101766503D01*
X145350815Y-101720821D01*
X145309397Y-101620827D01*
X145309390Y-101620814D01*
X145221789Y-101489711D01*
X145219766Y-101487688D01*
X145219043Y-101486365D01*
X145217924Y-101485001D01*
X145218182Y-101484788D01*
X145186276Y-101426368D01*
X145191255Y-101356676D01*
X145217999Y-101315060D01*
X145217924Y-101314999D01*
X145218454Y-101314351D01*
X145219766Y-101312312D01*
X145221789Y-101310289D01*
X145309394Y-101179179D01*
X145369737Y-101033497D01*
X145400500Y-100878842D01*
X145400500Y-100721158D01*
X145400500Y-100721155D01*
X145400499Y-100721153D01*
X145376651Y-100601264D01*
X145369737Y-100566503D01*
X145348049Y-100514142D01*
X145309397Y-100420827D01*
X145309390Y-100420814D01*
X145221789Y-100289711D01*
X145221786Y-100289707D01*
X145110292Y-100178213D01*
X145110288Y-100178210D01*
X144979185Y-100090609D01*
X144979172Y-100090602D01*
X144833501Y-100030264D01*
X144833489Y-100030261D01*
X144678845Y-99999500D01*
X144678842Y-99999500D01*
X144521158Y-99999500D01*
X144521155Y-99999500D01*
X144366510Y-100030261D01*
X144366498Y-100030264D01*
X144220827Y-100090602D01*
X144220814Y-100090609D01*
X144089711Y-100178210D01*
X144089706Y-100178214D01*
X144058390Y-100209530D01*
X143997066Y-100243015D01*
X143927375Y-100238029D01*
X143883029Y-100209529D01*
X143774038Y-100100538D01*
X143774034Y-100100535D01*
X143626553Y-100001990D01*
X143626540Y-100001983D01*
X143462667Y-99934106D01*
X143462658Y-99934103D01*
X143288694Y-99899500D01*
X143288691Y-99899500D01*
X142011309Y-99899500D01*
X142011306Y-99899500D01*
X141837341Y-99934103D01*
X141837332Y-99934106D01*
X141673457Y-100001984D01*
X141673455Y-100001985D01*
X141530091Y-100097777D01*
X141530092Y-100097778D01*
X141525969Y-100100533D01*
X141525961Y-100100539D01*
X141063319Y-100563181D01*
X141001996Y-100596666D01*
X140975638Y-100599500D01*
X140107703Y-100599500D01*
X140040664Y-100579815D01*
X139994909Y-100527011D01*
X139984965Y-100457853D01*
X139986086Y-100451309D01*
X140000499Y-100378846D01*
X140000500Y-100378844D01*
X140000500Y-100221155D01*
X140000499Y-100221153D01*
X139989890Y-100167820D01*
X139969737Y-100066503D01*
X139969735Y-100066498D01*
X139909939Y-99922136D01*
X139900500Y-99874684D01*
X139900500Y-96174500D01*
X139920185Y-96107461D01*
X139972989Y-96061706D01*
X140024500Y-96050500D01*
X140078844Y-96050500D01*
X140078845Y-96050499D01*
X140233497Y-96019737D01*
X140379179Y-95959394D01*
X140510289Y-95871789D01*
X140621789Y-95760289D01*
X140709394Y-95629179D01*
X140769737Y-95483497D01*
X140800500Y-95328842D01*
X140800500Y-95171158D01*
X140800500Y-95171155D01*
X140800499Y-95171153D01*
X140769738Y-95016510D01*
X140769737Y-95016503D01*
X140769735Y-95016498D01*
X140709939Y-94872136D01*
X140700500Y-94824684D01*
X140700500Y-91650708D01*
X140720185Y-91583669D01*
X140736819Y-91563027D01*
X141963027Y-90336819D01*
X142024350Y-90303334D01*
X142050708Y-90300500D01*
X146575500Y-90300500D01*
X146642539Y-90320185D01*
X146688294Y-90372989D01*
X146699500Y-90424500D01*
X146699500Y-90578846D01*
X146730261Y-90733489D01*
X146730264Y-90733501D01*
X146790061Y-90877864D01*
X146799500Y-90925316D01*
X146799500Y-92324684D01*
X146790061Y-92372136D01*
X146730264Y-92516498D01*
X146730261Y-92516510D01*
X146699500Y-92671153D01*
X146699500Y-92828846D01*
X146730261Y-92983489D01*
X146730264Y-92983501D01*
X146790602Y-93129172D01*
X146790609Y-93129185D01*
X146878210Y-93260288D01*
X146878213Y-93260292D01*
X146989707Y-93371786D01*
X146989711Y-93371789D01*
X147120814Y-93459390D01*
X147120827Y-93459397D01*
X147266498Y-93519735D01*
X147266503Y-93519737D01*
X147373037Y-93540928D01*
X147421153Y-93550499D01*
X147421156Y-93550500D01*
X147421158Y-93550500D01*
X147578844Y-93550500D01*
X147578845Y-93550499D01*
X147733497Y-93519737D01*
X147879179Y-93459394D01*
X148010289Y-93371789D01*
X148121789Y-93260289D01*
X148209394Y-93129179D01*
X148269737Y-92983497D01*
X148300500Y-92828842D01*
X148300500Y-92671158D01*
X148300500Y-92671155D01*
X148300499Y-92671153D01*
X148279684Y-92566510D01*
X148269737Y-92516503D01*
X148269735Y-92516498D01*
X148209939Y-92372136D01*
X148200500Y-92324684D01*
X148200500Y-90925316D01*
X148209939Y-90877864D01*
X148238478Y-90808963D01*
X148269737Y-90733497D01*
X148300500Y-90578842D01*
X148300500Y-90424500D01*
X148303050Y-90415814D01*
X148301762Y-90406853D01*
X148312740Y-90382812D01*
X148320185Y-90357461D01*
X148327025Y-90351533D01*
X148330787Y-90343297D01*
X148353021Y-90329007D01*
X148372989Y-90311706D01*
X148383503Y-90309418D01*
X148389565Y-90305523D01*
X148424500Y-90300500D01*
X148583481Y-90300500D01*
X148650520Y-90320185D01*
X148671162Y-90336819D01*
X148903928Y-90569585D01*
X148930808Y-90609814D01*
X148990602Y-90754172D01*
X148990609Y-90754185D01*
X149078210Y-90885288D01*
X149078213Y-90885292D01*
X149189707Y-90996786D01*
X149189711Y-90996789D01*
X149320814Y-91084390D01*
X149320827Y-91084397D01*
X149436837Y-91132449D01*
X149466503Y-91144737D01*
X149621153Y-91175499D01*
X149621156Y-91175500D01*
X149621158Y-91175500D01*
X149778844Y-91175500D01*
X149778845Y-91175499D01*
X149933497Y-91144737D01*
X150079179Y-91084394D01*
X150210289Y-90996789D01*
X150321789Y-90885289D01*
X150409394Y-90754179D01*
X150469737Y-90608497D01*
X150500500Y-90453842D01*
X150500500Y-90296158D01*
X150500500Y-90296155D01*
X150500499Y-90296153D01*
X150469738Y-90141510D01*
X150469737Y-90141503D01*
X150436689Y-90061717D01*
X150409397Y-89995827D01*
X150409390Y-89995814D01*
X150321789Y-89864711D01*
X150321786Y-89864707D01*
X150210292Y-89753213D01*
X150210288Y-89753210D01*
X150079185Y-89665609D01*
X150079172Y-89665602D01*
X149934814Y-89605808D01*
X149894585Y-89578928D01*
X149371546Y-89055888D01*
X149371545Y-89055887D01*
X149256807Y-88979222D01*
X149129332Y-88926421D01*
X149129322Y-88926418D01*
X148993996Y-88899500D01*
X148993994Y-88899500D01*
X148993993Y-88899500D01*
X144932703Y-88899500D01*
X144865664Y-88879815D01*
X144819909Y-88827011D01*
X144809965Y-88757853D01*
X144811086Y-88751309D01*
X144825499Y-88678846D01*
X144825500Y-88678844D01*
X144825500Y-88521155D01*
X144825499Y-88521153D01*
X144794738Y-88366510D01*
X144794737Y-88366503D01*
X144770578Y-88308178D01*
X144734397Y-88220827D01*
X144734390Y-88220814D01*
X144646789Y-88089711D01*
X144646786Y-88089707D01*
X144535292Y-87978213D01*
X144535288Y-87978210D01*
X144404185Y-87890609D01*
X144404172Y-87890602D01*
X144258501Y-87830264D01*
X144258489Y-87830261D01*
X144103845Y-87799500D01*
X144103842Y-87799500D01*
X143946158Y-87799500D01*
X143946155Y-87799500D01*
X143791510Y-87830261D01*
X143791498Y-87830264D01*
X143647136Y-87890061D01*
X143599684Y-87899500D01*
X138329809Y-87899500D01*
X138305617Y-87897117D01*
X138254074Y-87886864D01*
X138254072Y-87886864D01*
X138096388Y-87886864D01*
X138096385Y-87886864D01*
X137941740Y-87917625D01*
X137941728Y-87917628D01*
X137796057Y-87977966D01*
X137796044Y-87977973D01*
X137664941Y-88065574D01*
X137664937Y-88065577D01*
X137553443Y-88177071D01*
X137553440Y-88177075D01*
X137465839Y-88308178D01*
X137465832Y-88308191D01*
X137405494Y-88453862D01*
X137405491Y-88453874D01*
X137374730Y-88608517D01*
X137374730Y-88766210D01*
X137405491Y-88920853D01*
X137405494Y-88920865D01*
X137465832Y-89066536D01*
X137465839Y-89066549D01*
X137553440Y-89197652D01*
X137553443Y-89197656D01*
X137664937Y-89309150D01*
X137664941Y-89309153D01*
X137796044Y-89396754D01*
X137796057Y-89396761D01*
X137947360Y-89459432D01*
X137946819Y-89460737D01*
X137999310Y-89495136D01*
X138027766Y-89558948D01*
X138017206Y-89628016D01*
X137970982Y-89680409D01*
X137904876Y-89699500D01*
X124024500Y-89699500D01*
X123957461Y-89679815D01*
X123911706Y-89627011D01*
X123900500Y-89575500D01*
X123900500Y-86211307D01*
X123900499Y-86211303D01*
X123880228Y-86109394D01*
X123865895Y-86037334D01*
X123811194Y-85905276D01*
X123798013Y-85873453D01*
X123748086Y-85798733D01*
X123733074Y-85776266D01*
X123699465Y-85725965D01*
X123699459Y-85725958D01*
X122494654Y-84521153D01*
X138699500Y-84521153D01*
X138699500Y-84678846D01*
X138730261Y-84833489D01*
X138730264Y-84833501D01*
X138790602Y-84979172D01*
X138790609Y-84979185D01*
X138878210Y-85110288D01*
X138878213Y-85110292D01*
X138989707Y-85221786D01*
X138989711Y-85221789D01*
X139120814Y-85309390D01*
X139120827Y-85309397D01*
X139197615Y-85341203D01*
X139266503Y-85369737D01*
X139421153Y-85400499D01*
X139421156Y-85400500D01*
X139421158Y-85400500D01*
X139578844Y-85400500D01*
X139578845Y-85400499D01*
X139733497Y-85369737D01*
X139879179Y-85309394D01*
X139923350Y-85279880D01*
X140010875Y-85221398D01*
X140077553Y-85200520D01*
X140079766Y-85200500D01*
X142420234Y-85200500D01*
X142487273Y-85220185D01*
X142489125Y-85221398D01*
X142620814Y-85309390D01*
X142620827Y-85309397D01*
X142697615Y-85341203D01*
X142766503Y-85369737D01*
X142921153Y-85400499D01*
X142921156Y-85400500D01*
X142921158Y-85400500D01*
X143078844Y-85400500D01*
X143078845Y-85400499D01*
X143233497Y-85369737D01*
X143379179Y-85309394D01*
X143510289Y-85221789D01*
X143621789Y-85110289D01*
X143709394Y-84979179D01*
X143769737Y-84833497D01*
X143800500Y-84678842D01*
X143800500Y-84521158D01*
X143800500Y-84521155D01*
X143800499Y-84521153D01*
X143769738Y-84366510D01*
X143769737Y-84366503D01*
X143769735Y-84366498D01*
X143709397Y-84220827D01*
X143709390Y-84220814D01*
X143621789Y-84089711D01*
X143621786Y-84089707D01*
X143510292Y-83978213D01*
X143510288Y-83978210D01*
X143379185Y-83890609D01*
X143379172Y-83890602D01*
X143233501Y-83830264D01*
X143233489Y-83830261D01*
X143078845Y-83799500D01*
X143078842Y-83799500D01*
X142921158Y-83799500D01*
X142921155Y-83799500D01*
X142766510Y-83830261D01*
X142766498Y-83830264D01*
X142620827Y-83890602D01*
X142620814Y-83890609D01*
X142489125Y-83978602D01*
X142422447Y-83999480D01*
X142420234Y-83999500D01*
X140079766Y-83999500D01*
X140012727Y-83979815D01*
X140010875Y-83978602D01*
X139879185Y-83890609D01*
X139879172Y-83890602D01*
X139733501Y-83830264D01*
X139733489Y-83830261D01*
X139578845Y-83799500D01*
X139578842Y-83799500D01*
X139421158Y-83799500D01*
X139421155Y-83799500D01*
X139266510Y-83830261D01*
X139266498Y-83830264D01*
X139120827Y-83890602D01*
X139120814Y-83890609D01*
X138989711Y-83978210D01*
X138989707Y-83978213D01*
X138878213Y-84089707D01*
X138878210Y-84089711D01*
X138790609Y-84220814D01*
X138790602Y-84220827D01*
X138730264Y-84366498D01*
X138730261Y-84366510D01*
X138699500Y-84521153D01*
X122494654Y-84521153D01*
X120336819Y-82363318D01*
X120303334Y-82301995D01*
X120300500Y-82275637D01*
X120300500Y-72621153D01*
X125399500Y-72621153D01*
X125399500Y-72778846D01*
X125430261Y-72933489D01*
X125430264Y-72933501D01*
X125490602Y-73079172D01*
X125490609Y-73079184D01*
X125553602Y-73173459D01*
X125574480Y-73240136D01*
X125574500Y-73242350D01*
X125574500Y-75261606D01*
X125598537Y-75382452D01*
X125606412Y-75401463D01*
X125645688Y-75496286D01*
X125675801Y-75541352D01*
X125680095Y-75547779D01*
X125680096Y-75547780D01*
X125714141Y-75598733D01*
X125805586Y-75690178D01*
X125805608Y-75690198D01*
X129114139Y-78998729D01*
X129114142Y-78998733D01*
X129201267Y-79085858D01*
X129237831Y-79110289D01*
X129303714Y-79154312D01*
X129303719Y-79154314D01*
X129377390Y-79184829D01*
X129377394Y-79184830D01*
X129384207Y-79187652D01*
X129417548Y-79201463D01*
X129477971Y-79213481D01*
X129538393Y-79225500D01*
X129538394Y-79225500D01*
X129657650Y-79225500D01*
X129724689Y-79245185D01*
X129726541Y-79246398D01*
X129820821Y-79309394D01*
X129820823Y-79309395D01*
X129820827Y-79309397D01*
X129946788Y-79361571D01*
X129966503Y-79369737D01*
X130121153Y-79400499D01*
X130121156Y-79400500D01*
X130121158Y-79400500D01*
X130278844Y-79400500D01*
X130278845Y-79400499D01*
X130433497Y-79369737D01*
X130579179Y-79309394D01*
X130710289Y-79221789D01*
X130821789Y-79110289D01*
X130909394Y-78979179D01*
X130969737Y-78833497D01*
X131000500Y-78678842D01*
X131000500Y-78521158D01*
X131000500Y-78521155D01*
X131000499Y-78521153D01*
X130979563Y-78415901D01*
X130969737Y-78366503D01*
X130920425Y-78247452D01*
X130912956Y-78177983D01*
X130920425Y-78152548D01*
X130945733Y-78091448D01*
X130969737Y-78033497D01*
X131000500Y-77878842D01*
X131000500Y-77721158D01*
X131000500Y-77721155D01*
X131000499Y-77721153D01*
X130997614Y-77706647D01*
X130969737Y-77566503D01*
X130933569Y-77479185D01*
X130909397Y-77420827D01*
X130909395Y-77420823D01*
X130909394Y-77420821D01*
X130873837Y-77367606D01*
X130852959Y-77300929D01*
X130862377Y-77251264D01*
X130869737Y-77233497D01*
X130900500Y-77078842D01*
X130900500Y-76921158D01*
X130900500Y-76921155D01*
X130900499Y-76921153D01*
X130869739Y-76766511D01*
X130869737Y-76766505D01*
X130869737Y-76766503D01*
X130862377Y-76748735D01*
X130854908Y-76679270D01*
X130873835Y-76632394D01*
X130909394Y-76579179D01*
X130969737Y-76433497D01*
X131000500Y-76278842D01*
X131000500Y-76121158D01*
X131000500Y-76121155D01*
X131000499Y-76121153D01*
X130969739Y-75966511D01*
X130969737Y-75966505D01*
X130969737Y-75966503D01*
X130962377Y-75948735D01*
X130954908Y-75879270D01*
X130973835Y-75832394D01*
X131009394Y-75779179D01*
X131069737Y-75633497D01*
X131100500Y-75478842D01*
X131100500Y-75321158D01*
X131100500Y-75321155D01*
X131100499Y-75321153D01*
X131069738Y-75166510D01*
X131069737Y-75166503D01*
X131041666Y-75098733D01*
X131009397Y-75020827D01*
X131009390Y-75020814D01*
X130921789Y-74889711D01*
X130921786Y-74889707D01*
X130810292Y-74778213D01*
X130810288Y-74778210D01*
X130679185Y-74690609D01*
X130679172Y-74690602D01*
X130533501Y-74630264D01*
X130533489Y-74630261D01*
X130422285Y-74608141D01*
X130360374Y-74575756D01*
X130358795Y-74574205D01*
X130021819Y-74237229D01*
X129988334Y-74175906D01*
X129985500Y-74149548D01*
X129985500Y-72918968D01*
X130005185Y-72851929D01*
X130006398Y-72850077D01*
X130053993Y-72778846D01*
X130069394Y-72755797D01*
X130129737Y-72610115D01*
X130160500Y-72455460D01*
X130160500Y-72297776D01*
X130160500Y-72297773D01*
X130160499Y-72297771D01*
X130143098Y-72210292D01*
X130129737Y-72143121D01*
X130103249Y-72079172D01*
X130069397Y-71997445D01*
X130069390Y-71997432D01*
X129981789Y-71866329D01*
X129981786Y-71866325D01*
X129870292Y-71754831D01*
X129870288Y-71754828D01*
X129739185Y-71667227D01*
X129739172Y-71667220D01*
X129593501Y-71606882D01*
X129593489Y-71606879D01*
X129438845Y-71576118D01*
X129438842Y-71576118D01*
X129281158Y-71576118D01*
X129281155Y-71576118D01*
X129126510Y-71606879D01*
X129126498Y-71606882D01*
X128980827Y-71667220D01*
X128980814Y-71667227D01*
X128849711Y-71754828D01*
X128849707Y-71754831D01*
X128738210Y-71866328D01*
X128688920Y-71940098D01*
X128635308Y-71984903D01*
X128585818Y-71995207D01*
X128541650Y-71995207D01*
X128387005Y-72025968D01*
X128386993Y-72025971D01*
X128241322Y-72086309D01*
X128241309Y-72086316D01*
X128112690Y-72172258D01*
X128046013Y-72193136D01*
X128019608Y-72190773D01*
X127865490Y-72160117D01*
X127865486Y-72160117D01*
X127707802Y-72160117D01*
X127707799Y-72160117D01*
X127553154Y-72190878D01*
X127553142Y-72190881D01*
X127407472Y-72251219D01*
X127407454Y-72251229D01*
X127387430Y-72264608D01*
X127320752Y-72285483D01*
X127271092Y-72276064D01*
X127173390Y-72235595D01*
X127173378Y-72235592D01*
X127018734Y-72204831D01*
X127018731Y-72204831D01*
X126888271Y-72204831D01*
X126821232Y-72185146D01*
X126800594Y-72168516D01*
X126710289Y-72078211D01*
X126710288Y-72078210D01*
X126710287Y-72078209D01*
X126579185Y-71990609D01*
X126579172Y-71990602D01*
X126433501Y-71930264D01*
X126433489Y-71930261D01*
X126278845Y-71899500D01*
X126278842Y-71899500D01*
X126121158Y-71899500D01*
X126121155Y-71899500D01*
X125966510Y-71930261D01*
X125966498Y-71930264D01*
X125820827Y-71990602D01*
X125820814Y-71990609D01*
X125689711Y-72078210D01*
X125689707Y-72078213D01*
X125578213Y-72189707D01*
X125578210Y-72189711D01*
X125490609Y-72320814D01*
X125490602Y-72320827D01*
X125430264Y-72466498D01*
X125430261Y-72466510D01*
X125399500Y-72621153D01*
X120300500Y-72621153D01*
X120300500Y-71524500D01*
X120320185Y-71457461D01*
X120372989Y-71411706D01*
X120424500Y-71400500D01*
X120774684Y-71400500D01*
X120822136Y-71409939D01*
X120936866Y-71457461D01*
X120966503Y-71469737D01*
X121121153Y-71500499D01*
X121121156Y-71500500D01*
X121121158Y-71500500D01*
X121278844Y-71500500D01*
X121278845Y-71500499D01*
X121433497Y-71469737D01*
X121579179Y-71409394D01*
X121710289Y-71321789D01*
X121821789Y-71210289D01*
X121909394Y-71079179D01*
X121969737Y-70933497D01*
X122000500Y-70778842D01*
X122000500Y-70621158D01*
X122000500Y-70621155D01*
X122000499Y-70621153D01*
X121998338Y-70610288D01*
X121969737Y-70466503D01*
X121919389Y-70344951D01*
X121909397Y-70320827D01*
X121909390Y-70320814D01*
X121821789Y-70189711D01*
X121821786Y-70189707D01*
X121710292Y-70078213D01*
X121710288Y-70078210D01*
X121579185Y-69990609D01*
X121579172Y-69990602D01*
X121433501Y-69930264D01*
X121433489Y-69930261D01*
X121278845Y-69899500D01*
X121278842Y-69899500D01*
X121121158Y-69899500D01*
X121121155Y-69899500D01*
X120966510Y-69930261D01*
X120966498Y-69930264D01*
X120822136Y-69990061D01*
X120774684Y-69999500D01*
X120024361Y-69999500D01*
X119957322Y-69979815D01*
X119936680Y-69963181D01*
X117274035Y-67300535D01*
X117274030Y-67300531D01*
X117219622Y-67264178D01*
X117219616Y-67264175D01*
X117214959Y-67261063D01*
X117126547Y-67201987D01*
X117044606Y-67168046D01*
X116962666Y-67134105D01*
X116962658Y-67134103D01*
X116788696Y-67099500D01*
X116788692Y-67099500D01*
X116788691Y-67099500D01*
X113824500Y-67099500D01*
X113757461Y-67079815D01*
X113711706Y-67027011D01*
X113700500Y-66975500D01*
X113700500Y-66145134D01*
X113720185Y-66078095D01*
X113772989Y-66032340D01*
X113842147Y-66022396D01*
X113871950Y-66030572D01*
X113966503Y-66069737D01*
X114121153Y-66100499D01*
X114121156Y-66100500D01*
X114121158Y-66100500D01*
X114278844Y-66100500D01*
X114278845Y-66100499D01*
X114433497Y-66069737D01*
X114579179Y-66009394D01*
X114673459Y-65946398D01*
X114740136Y-65925520D01*
X114742350Y-65925500D01*
X125161607Y-65925500D01*
X125222029Y-65913481D01*
X125282452Y-65901463D01*
X125315792Y-65887652D01*
X125396286Y-65854312D01*
X125462169Y-65810289D01*
X125498733Y-65785858D01*
X125499842Y-65784748D01*
X125505928Y-65780624D01*
X125534005Y-65771627D01*
X125561139Y-65760102D01*
X125566899Y-65761088D01*
X125572465Y-65759305D01*
X125600944Y-65766915D01*
X125630007Y-65771890D01*
X125634320Y-65775834D01*
X125639966Y-65777343D01*
X125659811Y-65799144D01*
X125681569Y-65819040D01*
X125683182Y-65824817D01*
X125687000Y-65829012D01*
X125691051Y-65853005D01*
X125699500Y-65883268D01*
X125699500Y-69182152D01*
X125679815Y-69249191D01*
X125627011Y-69294946D01*
X125599692Y-69303769D01*
X125466508Y-69330261D01*
X125466498Y-69330264D01*
X125320827Y-69390602D01*
X125320814Y-69390609D01*
X125189711Y-69478210D01*
X125189707Y-69478213D01*
X125078213Y-69589707D01*
X125078210Y-69589711D01*
X124990609Y-69720814D01*
X124990602Y-69720827D01*
X124930264Y-69866498D01*
X124930261Y-69866510D01*
X124899500Y-70021153D01*
X124899500Y-70178846D01*
X124930261Y-70333489D01*
X124930264Y-70333501D01*
X124990602Y-70479172D01*
X124990609Y-70479185D01*
X125078210Y-70610288D01*
X125078213Y-70610292D01*
X125189707Y-70721786D01*
X125189711Y-70721789D01*
X125320814Y-70809390D01*
X125320827Y-70809397D01*
X125466498Y-70869735D01*
X125466503Y-70869737D01*
X125616131Y-70899500D01*
X125621153Y-70900499D01*
X125621156Y-70900500D01*
X125621158Y-70900500D01*
X125778844Y-70900500D01*
X125778845Y-70900499D01*
X125933497Y-70869737D01*
X126079179Y-70809394D01*
X126210289Y-70721789D01*
X126321789Y-70610289D01*
X126409394Y-70479179D01*
X126469737Y-70333497D01*
X126500500Y-70178842D01*
X126500500Y-70178839D01*
X126500637Y-70178151D01*
X126509402Y-70161394D01*
X126513422Y-70142915D01*
X126532162Y-70117880D01*
X126533021Y-70116240D01*
X126534527Y-70114707D01*
X126668713Y-69980521D01*
X126668716Y-69980520D01*
X126780520Y-69868716D01*
X126830639Y-69781904D01*
X126859577Y-69731785D01*
X126900500Y-69579057D01*
X126900500Y-69420943D01*
X126900500Y-65183966D01*
X126920185Y-65116927D01*
X126936814Y-65096290D01*
X128966571Y-63066532D01*
X128966576Y-63066529D01*
X128976779Y-63056325D01*
X128976781Y-63056325D01*
X129088585Y-62944521D01*
X129156536Y-62826826D01*
X129167642Y-62807590D01*
X129208566Y-62654862D01*
X129208566Y-62496748D01*
X129208566Y-62489153D01*
X129208565Y-62489135D01*
X129208565Y-60581082D01*
X129228250Y-60514043D01*
X129258405Y-60483347D01*
X129257807Y-60482618D01*
X129262505Y-60478761D01*
X129262511Y-60478758D01*
X129374011Y-60367258D01*
X129461616Y-60236148D01*
X129521959Y-60090466D01*
X129552722Y-59935811D01*
X129552722Y-59778127D01*
X129552722Y-59778124D01*
X129552721Y-59778122D01*
X129542055Y-59724500D01*
X129521959Y-59623472D01*
X129521100Y-59621398D01*
X129461619Y-59477796D01*
X129461612Y-59477783D01*
X129374011Y-59346680D01*
X129374008Y-59346676D01*
X129262514Y-59235182D01*
X129262508Y-59235177D01*
X129205608Y-59197157D01*
X129200518Y-59191066D01*
X129193297Y-59187769D01*
X129178432Y-59164638D01*
X129160804Y-59143545D01*
X129158852Y-59134171D01*
X129155523Y-59128991D01*
X129150500Y-59094056D01*
X129150500Y-58921153D01*
X137899500Y-58921153D01*
X137899500Y-59078846D01*
X137930261Y-59233489D01*
X137930264Y-59233501D01*
X137990602Y-59379172D01*
X137990609Y-59379185D01*
X138078210Y-59510288D01*
X138078213Y-59510292D01*
X138189707Y-59621786D01*
X138189711Y-59621789D01*
X138320814Y-59709390D01*
X138320827Y-59709397D01*
X138429978Y-59754608D01*
X138466503Y-59769737D01*
X138621153Y-59800499D01*
X138621156Y-59800500D01*
X138621158Y-59800500D01*
X138778844Y-59800500D01*
X138778845Y-59800499D01*
X138933497Y-59769737D01*
X139079179Y-59709394D01*
X139178753Y-59642861D01*
X139210875Y-59621398D01*
X139277553Y-59600520D01*
X139279766Y-59600500D01*
X150175500Y-59600500D01*
X150242539Y-59620185D01*
X150288294Y-59672989D01*
X150299500Y-59724500D01*
X150299500Y-61279056D01*
X150340423Y-61431783D01*
X150340426Y-61431790D01*
X150419475Y-61568709D01*
X150419479Y-61568714D01*
X150419480Y-61568716D01*
X150531284Y-61680520D01*
X150531286Y-61680521D01*
X150531290Y-61680524D01*
X150668209Y-61759573D01*
X150668216Y-61759577D01*
X150820943Y-61800500D01*
X150979057Y-61800500D01*
X151433741Y-61800500D01*
X151500780Y-61820185D01*
X151546535Y-61872989D01*
X151548302Y-61877048D01*
X151590602Y-61979172D01*
X151590609Y-61979185D01*
X151678210Y-62110288D01*
X151678213Y-62110292D01*
X151789707Y-62221786D01*
X151789711Y-62221789D01*
X151920814Y-62309390D01*
X151920827Y-62309397D01*
X152066498Y-62369735D01*
X152066503Y-62369737D01*
X152215925Y-62399459D01*
X152221153Y-62400499D01*
X152221156Y-62400500D01*
X152221158Y-62400500D01*
X152378844Y-62400500D01*
X152378845Y-62400499D01*
X152533497Y-62369737D01*
X152679179Y-62309394D01*
X152810289Y-62221789D01*
X152921789Y-62110289D01*
X153009394Y-61979179D01*
X153069737Y-61833497D01*
X153100500Y-61678842D01*
X153100500Y-61521158D01*
X153100500Y-61521155D01*
X153100499Y-61521153D01*
X153069737Y-61366503D01*
X153033516Y-61279056D01*
X153009397Y-61220827D01*
X153009390Y-61220814D01*
X152921789Y-61089711D01*
X152921786Y-61089707D01*
X152810292Y-60978213D01*
X152810288Y-60978210D01*
X152679185Y-60890609D01*
X152679172Y-60890602D01*
X152533501Y-60830264D01*
X152533491Y-60830261D01*
X152378151Y-60799362D01*
X152330351Y-60778706D01*
X152321955Y-60772719D01*
X152268716Y-60719480D01*
X152161309Y-60657469D01*
X152131785Y-60640423D01*
X152131784Y-60640422D01*
X152131783Y-60640422D01*
X152075881Y-60625443D01*
X151979057Y-60599499D01*
X151820943Y-60599499D01*
X151813347Y-60599499D01*
X151813331Y-60599500D01*
X151624500Y-60599500D01*
X151557461Y-60579815D01*
X151511706Y-60527011D01*
X151500500Y-60475500D01*
X151500500Y-58920945D01*
X151500500Y-58920943D01*
X151459577Y-58768216D01*
X151436722Y-58728630D01*
X151380524Y-58631290D01*
X151380518Y-58631282D01*
X151268717Y-58519481D01*
X151268709Y-58519475D01*
X151131790Y-58440426D01*
X151131786Y-58440424D01*
X151131784Y-58440423D01*
X150979057Y-58399500D01*
X150979056Y-58399500D01*
X139279766Y-58399500D01*
X139212727Y-58379815D01*
X139210875Y-58378602D01*
X139079185Y-58290609D01*
X139079172Y-58290602D01*
X138933501Y-58230264D01*
X138933489Y-58230261D01*
X138778845Y-58199500D01*
X138778842Y-58199500D01*
X138621158Y-58199500D01*
X138621155Y-58199500D01*
X138466510Y-58230261D01*
X138466498Y-58230264D01*
X138320827Y-58290602D01*
X138320814Y-58290609D01*
X138189711Y-58378210D01*
X138189707Y-58378213D01*
X138078215Y-58489706D01*
X138078210Y-58489711D01*
X137990609Y-58620814D01*
X137990602Y-58620827D01*
X137930264Y-58766498D01*
X137930261Y-58766510D01*
X137899500Y-58921153D01*
X129150500Y-58921153D01*
X129150500Y-57730857D01*
X129170185Y-57663818D01*
X129186819Y-57643176D01*
X130968176Y-55861819D01*
X131029499Y-55828334D01*
X131055857Y-55825500D01*
X157850500Y-55825500D01*
X157917539Y-55845185D01*
X157963294Y-55897989D01*
X157974500Y-55949500D01*
X157974500Y-72161607D01*
X157975723Y-72167758D01*
X157975727Y-72167776D01*
X157976211Y-72170207D01*
X157998537Y-72282452D01*
X158006412Y-72301463D01*
X158016376Y-72325520D01*
X158045689Y-72396288D01*
X158054445Y-72409391D01*
X158054449Y-72409397D01*
X158114141Y-72498732D01*
X158114144Y-72498736D01*
X158205586Y-72590178D01*
X158205608Y-72590198D01*
X160711016Y-75095606D01*
X160711045Y-75095637D01*
X160801263Y-75185855D01*
X160801267Y-75185858D01*
X160903707Y-75254307D01*
X160903716Y-75254312D01*
X160924739Y-75263020D01*
X161017548Y-75301463D01*
X161045757Y-75307074D01*
X161071205Y-75312136D01*
X161071225Y-75312139D01*
X161071247Y-75312144D01*
X161138391Y-75325499D01*
X161138392Y-75325500D01*
X161138393Y-75325500D01*
X161138394Y-75325500D01*
X164150500Y-75325500D01*
X164217539Y-75345185D01*
X164263294Y-75397989D01*
X164274500Y-75449500D01*
X164274500Y-98857650D01*
X164254815Y-98924689D01*
X164253626Y-98926503D01*
X164232802Y-98957668D01*
X164190609Y-99020815D01*
X164190604Y-99020825D01*
X164143655Y-99134171D01*
X164099814Y-99188574D01*
X164033520Y-99210639D01*
X163965820Y-99193360D01*
X163918210Y-99142222D01*
X163911163Y-99125036D01*
X163851557Y-98941588D01*
X163755051Y-98752184D01*
X163755049Y-98752181D01*
X163755048Y-98752179D01*
X163630109Y-98580213D01*
X163479786Y-98429890D01*
X163307820Y-98304951D01*
X163307115Y-98304591D01*
X163299054Y-98300485D01*
X163248259Y-98252512D01*
X163231463Y-98184692D01*
X163253999Y-98118556D01*
X163299054Y-98079515D01*
X163307816Y-98075051D01*
X163329789Y-98059086D01*
X163479786Y-97950109D01*
X163479788Y-97950106D01*
X163479792Y-97950104D01*
X163630104Y-97799792D01*
X163630106Y-97799788D01*
X163630109Y-97799786D01*
X163755048Y-97627820D01*
X163755047Y-97627820D01*
X163755051Y-97627816D01*
X163851557Y-97438412D01*
X163917246Y-97236243D01*
X163950500Y-97026287D01*
X163950500Y-96813713D01*
X163917246Y-96603757D01*
X163851557Y-96401588D01*
X163755051Y-96212184D01*
X163755049Y-96212181D01*
X163755048Y-96212179D01*
X163630109Y-96040213D01*
X163479786Y-95889890D01*
X163307820Y-95764951D01*
X163300656Y-95761301D01*
X163299054Y-95760485D01*
X163248259Y-95712512D01*
X163231463Y-95644692D01*
X163253999Y-95578556D01*
X163299054Y-95539515D01*
X163307816Y-95535051D01*
X163378769Y-95483501D01*
X163479786Y-95410109D01*
X163479788Y-95410106D01*
X163479792Y-95410104D01*
X163630104Y-95259792D01*
X163630106Y-95259788D01*
X163630109Y-95259786D01*
X163755048Y-95087820D01*
X163755047Y-95087820D01*
X163755051Y-95087816D01*
X163851557Y-94898412D01*
X163917246Y-94696243D01*
X163950500Y-94486287D01*
X163950500Y-94273713D01*
X163917246Y-94063757D01*
X163851557Y-93861588D01*
X163755051Y-93672184D01*
X163755049Y-93672181D01*
X163755048Y-93672179D01*
X163630109Y-93500213D01*
X163479786Y-93349890D01*
X163307817Y-93224949D01*
X163298504Y-93220204D01*
X163247707Y-93172230D01*
X163230912Y-93104409D01*
X163253449Y-93038274D01*
X163298507Y-92999232D01*
X163307555Y-92994622D01*
X163361716Y-92955270D01*
X163361717Y-92955270D01*
X162729408Y-92322962D01*
X162792993Y-92305925D01*
X162907007Y-92240099D01*
X163000099Y-92147007D01*
X163065925Y-92032993D01*
X163082962Y-91969408D01*
X163715270Y-92601717D01*
X163715270Y-92601716D01*
X163754622Y-92547554D01*
X163851095Y-92358217D01*
X163916757Y-92156130D01*
X163916757Y-92156127D01*
X163950000Y-91946246D01*
X163950000Y-91733753D01*
X163916757Y-91523872D01*
X163916757Y-91523869D01*
X163851095Y-91321782D01*
X163754624Y-91132449D01*
X163715270Y-91078282D01*
X163715269Y-91078282D01*
X163082962Y-91710590D01*
X163065925Y-91647007D01*
X163000099Y-91532993D01*
X162907007Y-91439901D01*
X162792993Y-91374075D01*
X162729409Y-91357037D01*
X163361716Y-90724728D01*
X163307550Y-90685375D01*
X163297954Y-90680486D01*
X163247157Y-90632512D01*
X163230361Y-90564692D01*
X163252897Y-90498556D01*
X163297954Y-90459514D01*
X163307554Y-90454622D01*
X163361716Y-90415270D01*
X163361717Y-90415270D01*
X162729408Y-89782962D01*
X162792993Y-89765925D01*
X162907007Y-89700099D01*
X163000099Y-89607007D01*
X163065925Y-89492993D01*
X163082962Y-89429408D01*
X163715270Y-90061717D01*
X163715270Y-90061716D01*
X163754622Y-90007554D01*
X163851095Y-89818217D01*
X163916757Y-89616130D01*
X163916757Y-89616127D01*
X163950000Y-89406246D01*
X163950000Y-89193753D01*
X163916757Y-88983872D01*
X163916757Y-88983869D01*
X163851095Y-88781782D01*
X163754624Y-88592449D01*
X163715270Y-88538282D01*
X163715269Y-88538282D01*
X163082962Y-89170590D01*
X163065925Y-89107007D01*
X163000099Y-88992993D01*
X162907007Y-88899901D01*
X162792993Y-88834075D01*
X162729409Y-88817037D01*
X163399627Y-88146818D01*
X163460950Y-88113333D01*
X163487307Y-88110499D01*
X163497872Y-88110499D01*
X163557483Y-88104091D01*
X163692331Y-88053796D01*
X163807546Y-87967546D01*
X163893796Y-87852331D01*
X163944091Y-87717483D01*
X163950500Y-87657873D01*
X163950499Y-85862128D01*
X163944091Y-85802517D01*
X163935386Y-85779179D01*
X163893797Y-85667671D01*
X163893793Y-85667664D01*
X163807547Y-85552455D01*
X163807544Y-85552452D01*
X163692335Y-85466206D01*
X163692328Y-85466202D01*
X163557482Y-85415908D01*
X163557483Y-85415908D01*
X163497883Y-85409501D01*
X163497881Y-85409500D01*
X163497873Y-85409500D01*
X163497864Y-85409500D01*
X161702129Y-85409500D01*
X161702123Y-85409501D01*
X161642516Y-85415908D01*
X161507671Y-85466202D01*
X161507664Y-85466206D01*
X161392455Y-85552452D01*
X161392452Y-85552455D01*
X161306206Y-85667664D01*
X161306202Y-85667671D01*
X161255908Y-85802517D01*
X161249501Y-85862116D01*
X161249501Y-85862123D01*
X161249500Y-85862135D01*
X161249500Y-87657870D01*
X161249501Y-87657876D01*
X161255908Y-87717483D01*
X161306202Y-87852328D01*
X161306206Y-87852335D01*
X161392452Y-87967544D01*
X161392455Y-87967547D01*
X161507664Y-88053793D01*
X161507671Y-88053797D01*
X161552618Y-88070561D01*
X161642517Y-88104091D01*
X161702127Y-88110500D01*
X161712685Y-88110499D01*
X161779723Y-88130179D01*
X161800372Y-88146818D01*
X162470591Y-88817037D01*
X162407007Y-88834075D01*
X162292993Y-88899901D01*
X162199901Y-88992993D01*
X162134075Y-89107007D01*
X162117037Y-89170591D01*
X161484728Y-88538282D01*
X161484727Y-88538282D01*
X161445380Y-88592439D01*
X161348904Y-88781782D01*
X161283242Y-88983869D01*
X161283242Y-88983872D01*
X161250000Y-89193753D01*
X161250000Y-89406246D01*
X161283242Y-89616127D01*
X161283242Y-89616130D01*
X161348904Y-89818217D01*
X161445375Y-90007550D01*
X161484728Y-90061716D01*
X162117037Y-89429408D01*
X162134075Y-89492993D01*
X162199901Y-89607007D01*
X162292993Y-89700099D01*
X162407007Y-89765925D01*
X162470591Y-89782962D01*
X161869971Y-90383581D01*
X161948711Y-90500895D01*
X161949920Y-90504729D01*
X161952844Y-90507491D01*
X161960343Y-90537778D01*
X161969727Y-90567529D01*
X161968671Y-90571408D01*
X161969638Y-90575312D01*
X161959573Y-90604844D01*
X161951383Y-90634947D01*
X161948397Y-90637640D01*
X161947100Y-90641447D01*
X161902051Y-90680483D01*
X161892440Y-90685380D01*
X161838282Y-90724727D01*
X161838282Y-90724728D01*
X162470591Y-91357037D01*
X162407007Y-91374075D01*
X162292993Y-91439901D01*
X162199901Y-91532993D01*
X162134075Y-91647007D01*
X162117037Y-91710591D01*
X161484728Y-91078282D01*
X161484727Y-91078282D01*
X161445380Y-91132439D01*
X161348904Y-91321782D01*
X161283242Y-91523869D01*
X161283242Y-91523872D01*
X161250000Y-91733753D01*
X161250000Y-91946246D01*
X161283242Y-92156127D01*
X161283242Y-92156130D01*
X161348904Y-92358217D01*
X161445375Y-92547550D01*
X161484728Y-92601716D01*
X162117037Y-91969408D01*
X162134075Y-92032993D01*
X162199901Y-92147007D01*
X162292993Y-92240099D01*
X162407007Y-92305925D01*
X162470590Y-92322962D01*
X161838282Y-92955269D01*
X161838282Y-92955270D01*
X161892452Y-92994626D01*
X161892451Y-92994626D01*
X161901495Y-92999234D01*
X161952292Y-93047208D01*
X161969087Y-93115029D01*
X161946550Y-93181164D01*
X161901499Y-93220202D01*
X161892182Y-93224949D01*
X161720213Y-93349890D01*
X161569890Y-93500213D01*
X161444951Y-93672179D01*
X161348444Y-93861585D01*
X161282753Y-94063760D01*
X161249500Y-94273713D01*
X161249500Y-94486287D01*
X161282754Y-94696243D01*
X161339905Y-94872136D01*
X161348444Y-94898414D01*
X161444951Y-95087820D01*
X161569890Y-95259786D01*
X161720213Y-95410109D01*
X161892182Y-95535050D01*
X161900946Y-95539516D01*
X161951742Y-95587491D01*
X161968536Y-95655312D01*
X161945998Y-95721447D01*
X161900946Y-95760484D01*
X161892182Y-95764949D01*
X161720213Y-95889890D01*
X161569890Y-96040213D01*
X161444951Y-96212179D01*
X161348444Y-96401585D01*
X161282753Y-96603760D01*
X161249500Y-96813713D01*
X161249500Y-97026286D01*
X161280364Y-97221158D01*
X161282754Y-97236243D01*
X161328882Y-97378211D01*
X161348444Y-97438414D01*
X161444951Y-97627820D01*
X161569890Y-97799786D01*
X161720213Y-97950109D01*
X161892182Y-98075050D01*
X161900946Y-98079516D01*
X161951742Y-98127491D01*
X161968536Y-98195312D01*
X161945998Y-98261447D01*
X161900946Y-98300484D01*
X161892182Y-98304949D01*
X161720213Y-98429890D01*
X161569890Y-98580213D01*
X161444951Y-98752179D01*
X161348444Y-98941585D01*
X161282753Y-99143760D01*
X161260788Y-99282444D01*
X161249500Y-99353713D01*
X161249500Y-99566287D01*
X161282754Y-99776243D01*
X161329730Y-99920821D01*
X161348444Y-99978414D01*
X161444951Y-100167820D01*
X161569890Y-100339786D01*
X161720213Y-100490109D01*
X161892179Y-100615048D01*
X161892181Y-100615049D01*
X161892184Y-100615051D01*
X162081588Y-100711557D01*
X162283757Y-100777246D01*
X162493713Y-100810500D01*
X162493714Y-100810500D01*
X162706286Y-100810500D01*
X162706287Y-100810500D01*
X162916243Y-100777246D01*
X163118412Y-100711557D01*
X163307816Y-100615051D01*
X163361458Y-100576078D01*
X163479786Y-100490109D01*
X163479788Y-100490106D01*
X163479792Y-100490104D01*
X163630104Y-100339792D01*
X163630106Y-100339788D01*
X163630109Y-100339786D01*
X163755048Y-100167820D01*
X163755047Y-100167820D01*
X163755051Y-100167816D01*
X163851557Y-99978412D01*
X163917246Y-99776243D01*
X163923743Y-99735218D01*
X163953671Y-99672086D01*
X164012982Y-99635155D01*
X164082845Y-99636151D01*
X164141078Y-99674761D01*
X164160777Y-99707166D01*
X164190602Y-99779172D01*
X164190609Y-99779185D01*
X164278210Y-99910288D01*
X164278213Y-99910292D01*
X164389707Y-100021786D01*
X164389711Y-100021789D01*
X164520814Y-100109390D01*
X164520827Y-100109397D01*
X164661865Y-100167816D01*
X164666503Y-100169737D01*
X164821153Y-100200499D01*
X164821156Y-100200500D01*
X164821158Y-100200500D01*
X164978844Y-100200500D01*
X164978845Y-100200499D01*
X165133497Y-100169737D01*
X165279179Y-100109394D01*
X165410289Y-100021789D01*
X165521789Y-99910289D01*
X165609394Y-99779179D01*
X165669737Y-99633497D01*
X165700500Y-99478842D01*
X165700500Y-99321158D01*
X165700500Y-99321155D01*
X165700499Y-99321153D01*
X165669738Y-99166510D01*
X165669737Y-99166503D01*
X165609394Y-99020821D01*
X165546397Y-98926539D01*
X165525520Y-98859863D01*
X165525500Y-98857650D01*
X165525500Y-74738393D01*
X165525499Y-74738389D01*
X165503992Y-74630263D01*
X165501463Y-74617548D01*
X165454311Y-74503714D01*
X165454310Y-74503713D01*
X165454307Y-74503707D01*
X165385859Y-74401268D01*
X165385858Y-74401267D01*
X165298733Y-74314142D01*
X165298731Y-74314141D01*
X165297917Y-74313326D01*
X165297916Y-74313325D01*
X165297913Y-74313323D01*
X165285862Y-74301271D01*
X165285861Y-74301270D01*
X165285859Y-74301268D01*
X165285858Y-74301267D01*
X165198733Y-74214142D01*
X165198732Y-74214141D01*
X165198731Y-74214140D01*
X165145571Y-74178620D01*
X165145570Y-74178619D01*
X165139405Y-74174500D01*
X165096286Y-74145688D01*
X165015792Y-74112347D01*
X164982452Y-74098537D01*
X164982449Y-74098536D01*
X164982445Y-74098535D01*
X164915312Y-74085181D01*
X164915305Y-74085181D01*
X164861607Y-74074500D01*
X164861606Y-74074500D01*
X161510452Y-74074500D01*
X161443413Y-74054815D01*
X161422771Y-74038181D01*
X159261819Y-71877229D01*
X159228334Y-71815906D01*
X159225500Y-71789548D01*
X159225500Y-71393713D01*
X161149500Y-71393713D01*
X161149500Y-71606286D01*
X161182700Y-71815906D01*
X161182754Y-71816243D01*
X161241630Y-71997445D01*
X161248444Y-72018414D01*
X161344951Y-72207820D01*
X161469890Y-72379786D01*
X161620213Y-72530109D01*
X161792179Y-72655048D01*
X161792181Y-72655049D01*
X161792184Y-72655051D01*
X161981588Y-72751557D01*
X162183757Y-72817246D01*
X162393713Y-72850500D01*
X162393714Y-72850500D01*
X162606286Y-72850500D01*
X162606287Y-72850500D01*
X162816243Y-72817246D01*
X163018412Y-72751557D01*
X163207816Y-72655051D01*
X163269677Y-72610107D01*
X163379786Y-72530109D01*
X163379788Y-72530106D01*
X163379792Y-72530104D01*
X163530104Y-72379792D01*
X163530106Y-72379788D01*
X163530109Y-72379786D01*
X163655048Y-72207820D01*
X163655047Y-72207820D01*
X163655051Y-72207816D01*
X163751557Y-72018412D01*
X163817246Y-71816243D01*
X163850500Y-71606287D01*
X163850500Y-71393713D01*
X163817246Y-71183757D01*
X163751557Y-70981588D01*
X163655051Y-70792184D01*
X163655049Y-70792181D01*
X163655048Y-70792179D01*
X163530109Y-70620213D01*
X163379786Y-70469890D01*
X163207820Y-70344951D01*
X163018414Y-70248444D01*
X163018413Y-70248443D01*
X163018412Y-70248443D01*
X162816243Y-70182754D01*
X162816241Y-70182753D01*
X162816240Y-70182753D01*
X162654957Y-70157208D01*
X162606287Y-70149500D01*
X162393713Y-70149500D01*
X162345042Y-70157208D01*
X162183760Y-70182753D01*
X161981585Y-70248444D01*
X161792179Y-70344951D01*
X161620213Y-70469890D01*
X161469890Y-70620213D01*
X161344951Y-70792179D01*
X161248444Y-70981585D01*
X161182753Y-71183760D01*
X161149500Y-71393713D01*
X159225500Y-71393713D01*
X159225500Y-55138391D01*
X159225280Y-55136159D01*
X159225500Y-55134998D01*
X159225500Y-55132302D01*
X159226011Y-55132302D01*
X159238296Y-55067512D01*
X159286359Y-55016800D01*
X159348682Y-55000000D01*
X159829369Y-55000000D01*
X159852240Y-55006715D01*
X159875961Y-55009086D01*
X159885152Y-55016380D01*
X159896408Y-55019685D01*
X159912014Y-55037695D01*
X159930692Y-55052517D01*
X159939037Y-55068881D01*
X159942163Y-55072489D01*
X159946726Y-55083959D01*
X159954007Y-55105299D01*
X159957459Y-55120840D01*
X159957647Y-55120795D01*
X159959572Y-55128692D01*
X159978745Y-55178126D01*
X159980492Y-55182921D01*
X159997621Y-55233121D01*
X160001229Y-55240409D01*
X160001055Y-55240494D01*
X160008409Y-55254609D01*
X160044973Y-55348882D01*
X160049918Y-55361632D01*
X160051523Y-55372220D01*
X160073683Y-55422904D01*
X160074631Y-55425346D01*
X160074635Y-55425356D01*
X160093696Y-55474502D01*
X160097602Y-55481636D01*
X160097467Y-55481709D01*
X160105502Y-55495678D01*
X160144067Y-55583880D01*
X160149521Y-55596354D01*
X160151624Y-55607087D01*
X160175854Y-55656582D01*
X160176927Y-55659035D01*
X160197936Y-55707084D01*
X160202135Y-55714040D01*
X160202034Y-55714100D01*
X160210746Y-55727854D01*
X160247638Y-55803211D01*
X160256808Y-55821942D01*
X160259430Y-55832778D01*
X160285701Y-55880962D01*
X160286903Y-55883417D01*
X160309848Y-55930285D01*
X160314347Y-55937060D01*
X160314277Y-55937106D01*
X160323670Y-55950600D01*
X160372267Y-56039730D01*
X160375418Y-56050606D01*
X160403720Y-56097417D01*
X160405050Y-56099857D01*
X160429927Y-56145484D01*
X160434718Y-56152053D01*
X160434672Y-56152086D01*
X160444735Y-56165258D01*
X160491734Y-56242996D01*
X160497976Y-56253321D01*
X160503873Y-56269482D01*
X160531953Y-56309518D01*
X160542880Y-56327591D01*
X160557255Y-56351368D01*
X160560966Y-56354932D01*
X160576592Y-56373163D01*
X160765052Y-56641863D01*
X160775019Y-56662931D01*
X160802739Y-56695598D01*
X160806013Y-56700265D01*
X160806018Y-56700271D01*
X160827345Y-56730678D01*
X160837118Y-56738865D01*
X160852032Y-56753685D01*
X161064728Y-57004332D01*
X161076666Y-57024501D01*
X161107183Y-57054364D01*
X161110904Y-57058748D01*
X161134825Y-57086938D01*
X161134828Y-57086940D01*
X161134829Y-57086941D01*
X161145459Y-57094296D01*
X161161617Y-57107630D01*
X161395052Y-57336059D01*
X161408708Y-57354931D01*
X161441963Y-57381965D01*
X161446045Y-57385959D01*
X161462038Y-57401609D01*
X161472595Y-57411940D01*
X161483691Y-57418186D01*
X161501076Y-57430021D01*
X161756237Y-57637451D01*
X161771269Y-57654703D01*
X161807171Y-57678858D01*
X161840743Y-57706150D01*
X161851905Y-57711145D01*
X161870460Y-57721439D01*
X162148710Y-57908647D01*
X162164728Y-57924063D01*
X162203169Y-57945287D01*
X162239606Y-57969802D01*
X162250403Y-57973505D01*
X162270104Y-57982243D01*
X162573099Y-58149533D01*
X162589707Y-58163014D01*
X162630570Y-58181264D01*
X162669744Y-58202893D01*
X162679805Y-58205383D01*
X162700570Y-58212527D01*
X163030217Y-58359755D01*
X163047047Y-58371301D01*
X163090173Y-58386532D01*
X163131919Y-58405177D01*
X163140943Y-58406617D01*
X163162692Y-58412145D01*
X163510125Y-58534852D01*
X163510126Y-58534853D01*
X163521003Y-58538694D01*
X163537733Y-58548386D01*
X163582915Y-58560561D01*
X163587366Y-58562134D01*
X163587375Y-58562137D01*
X163627038Y-58576145D01*
X163634805Y-58576749D01*
X163657443Y-58580645D01*
X164046374Y-58685456D01*
X164062750Y-58693431D01*
X164109773Y-58702541D01*
X164156030Y-58715007D01*
X164162439Y-58715016D01*
X164185833Y-58717278D01*
X164607033Y-58798884D01*
X164622877Y-58805318D01*
X164671517Y-58811377D01*
X164719628Y-58820699D01*
X164724616Y-58820347D01*
X164748671Y-58820989D01*
X165203179Y-58877613D01*
X165218367Y-58882690D01*
X165268344Y-58885731D01*
X165272221Y-58886214D01*
X165272223Y-58886215D01*
X165318048Y-58891925D01*
X165318049Y-58891924D01*
X165318055Y-58891925D01*
X165321681Y-58891421D01*
X165346249Y-58890473D01*
X165833972Y-58920159D01*
X165848453Y-58924065D01*
X165899527Y-58924149D01*
X165950535Y-58927254D01*
X165952880Y-58926776D01*
X165977836Y-58924278D01*
X166496774Y-58925136D01*
X166510554Y-58928044D01*
X166562483Y-58925245D01*
X166614478Y-58925331D01*
X166615679Y-58925011D01*
X166640895Y-58921018D01*
X167185708Y-58891653D01*
X167198835Y-58893713D01*
X167251334Y-58888116D01*
X167304039Y-58885276D01*
X167304266Y-58885201D01*
X167329624Y-58879770D01*
X167888796Y-58820165D01*
X167901381Y-58821501D01*
X167954145Y-58813199D01*
X168007255Y-58807538D01*
X168007258Y-58807537D01*
X168009502Y-58806994D01*
X168032093Y-58800934D01*
X168581285Y-58714528D01*
X168593510Y-58715232D01*
X168646194Y-58704315D01*
X168699368Y-58695950D01*
X168699372Y-58695947D01*
X168703832Y-58694632D01*
X168723574Y-58688283D01*
X168850344Y-58662017D01*
X168919981Y-58667691D01*
X168975498Y-58710114D01*
X168999266Y-58775817D01*
X168999500Y-58783438D01*
X168999500Y-129253011D01*
X168994109Y-129271367D01*
X168993699Y-129290494D01*
X168984469Y-129304198D01*
X168979815Y-129320050D01*
X168965357Y-129332577D01*
X168954670Y-129348447D01*
X168939496Y-129354986D01*
X168927011Y-129365805D01*
X168908076Y-129368527D01*
X168890506Y-129376100D01*
X168859978Y-129375443D01*
X168857853Y-129375749D01*
X168855220Y-129375341D01*
X168763474Y-129360131D01*
X168750465Y-129357249D01*
X168744347Y-129355544D01*
X168744343Y-129355543D01*
X168744342Y-129355543D01*
X168686238Y-129347295D01*
X168683444Y-129346865D01*
X168625623Y-129337279D01*
X168619272Y-129337067D01*
X168605991Y-129335905D01*
X168332366Y-129297065D01*
X168332366Y-129297066D01*
X168318325Y-129295073D01*
X168312595Y-129292795D01*
X168253197Y-129285829D01*
X168251723Y-129285619D01*
X168199192Y-129278164D01*
X168193957Y-129277421D01*
X168193956Y-129277421D01*
X168186927Y-129277350D01*
X168173745Y-129276512D01*
X168148580Y-129273561D01*
X167914206Y-129246076D01*
X167914206Y-129246075D01*
X167899792Y-129244385D01*
X167893771Y-129242165D01*
X167834487Y-129236727D01*
X167832885Y-129236540D01*
X167832884Y-129236539D01*
X167775294Y-129229787D01*
X167775292Y-129229787D01*
X167775291Y-129229787D01*
X167767560Y-129229896D01*
X167754491Y-129229390D01*
X167512658Y-129207210D01*
X167512658Y-129207209D01*
X167498053Y-129205869D01*
X167491723Y-129203724D01*
X167432557Y-129199864D01*
X167430918Y-129199714D01*
X167430917Y-129199713D01*
X167373493Y-129194448D01*
X167373489Y-129194448D01*
X167373488Y-129194448D01*
X167373486Y-129194448D01*
X167365371Y-129194769D01*
X167365339Y-129193965D01*
X167352260Y-129194627D01*
X167123097Y-129179680D01*
X167108525Y-129178729D01*
X167101873Y-129176675D01*
X167042878Y-129174447D01*
X167041157Y-129174335D01*
X167041156Y-129174334D01*
X166983969Y-129170605D01*
X166975864Y-129171139D01*
X166975813Y-129170367D01*
X166962558Y-129171415D01*
X166749052Y-129163355D01*
X166749052Y-129163354D01*
X166734529Y-129162806D01*
X166727555Y-129160868D01*
X166668783Y-129160325D01*
X166667005Y-129160258D01*
X166667004Y-129160257D01*
X166617613Y-129158394D01*
X166610083Y-129158110D01*
X166610082Y-129158110D01*
X166610078Y-129158110D01*
X166601991Y-129158865D01*
X166601923Y-129158139D01*
X166588500Y-129159583D01*
X166584564Y-129159547D01*
X166386528Y-129157720D01*
X166372074Y-129157586D01*
X166364763Y-129155787D01*
X166306306Y-129156979D01*
X166304477Y-129156963D01*
X166304476Y-129156962D01*
X166247831Y-129156440D01*
X166239766Y-129157427D01*
X166239683Y-129156750D01*
X166226082Y-129158618D01*
X166038299Y-129162451D01*
X166023918Y-129162744D01*
X166016274Y-129161111D01*
X165958219Y-129164085D01*
X165956265Y-129164125D01*
X165956261Y-129164126D01*
X165899988Y-129165276D01*
X165891952Y-129166501D01*
X165891857Y-129165879D01*
X165878108Y-129168191D01*
X165686700Y-129178000D01*
X165678707Y-129176557D01*
X165621018Y-129181366D01*
X165581160Y-129183408D01*
X165563198Y-129184329D01*
X165555211Y-129185800D01*
X165555106Y-129185232D01*
X165541210Y-129188018D01*
X165376766Y-129201727D01*
X165376765Y-129201727D01*
X165362574Y-129202909D01*
X165354246Y-129201690D01*
X165297075Y-129208369D01*
X165295013Y-129208541D01*
X165294999Y-129208543D01*
X165239642Y-129213158D01*
X165231700Y-129214885D01*
X165231588Y-129214370D01*
X165217579Y-129217657D01*
X165062909Y-129235729D01*
X165048841Y-129237372D01*
X165040176Y-129236406D01*
X164983544Y-129245001D01*
X164981421Y-129245250D01*
X164981408Y-129245252D01*
X164926613Y-129251655D01*
X164918740Y-129253642D01*
X164918623Y-129253181D01*
X164904513Y-129256998D01*
X164776398Y-129276446D01*
X164747057Y-129280901D01*
X164738066Y-129280220D01*
X164682059Y-129290767D01*
X164679868Y-129291100D01*
X164679866Y-129291099D01*
X164625685Y-129299325D01*
X164617880Y-129301583D01*
X164617761Y-129301172D01*
X164603575Y-129305549D01*
X164468971Y-129330898D01*
X164468972Y-129330899D01*
X164455204Y-129333491D01*
X164445893Y-129333130D01*
X164390582Y-129345663D01*
X164388342Y-129346085D01*
X164388340Y-129346084D01*
X164334858Y-129356158D01*
X164327135Y-129358693D01*
X164327017Y-129358334D01*
X164312790Y-129363291D01*
X164187788Y-129391616D01*
X164187789Y-129391617D01*
X164174193Y-129394697D01*
X164164588Y-129394688D01*
X164110080Y-129409226D01*
X164107789Y-129409746D01*
X164107787Y-129409745D01*
X164055036Y-129421701D01*
X164047416Y-129424515D01*
X164047301Y-129424205D01*
X164033071Y-129429767D01*
X163916156Y-129460953D01*
X163902748Y-129464529D01*
X163892872Y-129464903D01*
X163839258Y-129481464D01*
X163836927Y-129482086D01*
X163836915Y-129482090D01*
X163784980Y-129495943D01*
X163777471Y-129499044D01*
X163777362Y-129498780D01*
X163763153Y-129504973D01*
X163654322Y-129538590D01*
X163654323Y-129538591D01*
X163641127Y-129542667D01*
X163631003Y-129543457D01*
X163578325Y-129562067D01*
X163575950Y-129562801D01*
X163575948Y-129562801D01*
X163524931Y-129578561D01*
X163517544Y-129581954D01*
X163517443Y-129581734D01*
X163503312Y-129588569D01*
X163401757Y-129624448D01*
X163401756Y-129624447D01*
X163388799Y-129629024D01*
X163378461Y-129630260D01*
X163326836Y-129650916D01*
X163324425Y-129651769D01*
X163324401Y-129651778D01*
X163316772Y-129654474D01*
X163274370Y-129669454D01*
X163267133Y-129673136D01*
X163267042Y-129672958D01*
X163253026Y-129680451D01*
X163217970Y-129694479D01*
X163158060Y-129718452D01*
X163145353Y-129723536D01*
X163134844Y-129725241D01*
X163084333Y-129747953D01*
X163081901Y-129748927D01*
X163081899Y-129748927D01*
X163032893Y-129768537D01*
X163025804Y-129772517D01*
X163025725Y-129772376D01*
X163011884Y-129780530D01*
X162923466Y-129820289D01*
X162911032Y-129825879D01*
X162900388Y-129828078D01*
X162851106Y-129852826D01*
X162848644Y-129853934D01*
X162800767Y-129875463D01*
X162793851Y-129879737D01*
X162793784Y-129879629D01*
X162780160Y-129888454D01*
X162696896Y-129930269D01*
X162696895Y-129930270D01*
X162684754Y-129936366D01*
X162674034Y-129939072D01*
X162626041Y-129965850D01*
X162623626Y-129967064D01*
X162623608Y-129967074D01*
X162576877Y-129990542D01*
X162570159Y-129995103D01*
X162570104Y-129995022D01*
X162556753Y-130004513D01*
X162473242Y-130051112D01*
X162473241Y-130051111D01*
X162462620Y-130057037D01*
X162446607Y-130062231D01*
X162405290Y-130089028D01*
X162401686Y-130091040D01*
X162401674Y-130091048D01*
X162362257Y-130113043D01*
X162358886Y-130116317D01*
X162339981Y-130131387D01*
X162066215Y-130308952D01*
X162057272Y-130314751D01*
X162036230Y-130323748D01*
X162002221Y-130350457D01*
X161997507Y-130353515D01*
X161997503Y-130353519D01*
X161965918Y-130374005D01*
X161965916Y-130374007D01*
X161957718Y-130383101D01*
X161942212Y-130397588D01*
X161686547Y-130598387D01*
X161678211Y-130604934D01*
X161657870Y-130615923D01*
X161626593Y-130645475D01*
X161622134Y-130648977D01*
X161622132Y-130648977D01*
X161592761Y-130672047D01*
X161592749Y-130672058D01*
X161585237Y-130682080D01*
X161571186Y-130697828D01*
X161337616Y-130918528D01*
X161329900Y-130925818D01*
X161310681Y-130938588D01*
X161282204Y-130970886D01*
X161278086Y-130974778D01*
X161250895Y-131000471D01*
X161250894Y-131000473D01*
X161244348Y-131011103D01*
X161231776Y-131028084D01*
X161018898Y-131269538D01*
X161011829Y-131277555D01*
X160994073Y-131291809D01*
X160968445Y-131326761D01*
X160964750Y-131330953D01*
X160964746Y-131330960D01*
X160939748Y-131359315D01*
X160939748Y-131359316D01*
X160934365Y-131370158D01*
X160923304Y-131388331D01*
X160730150Y-131651782D01*
X160730149Y-131651784D01*
X160723751Y-131660509D01*
X160707705Y-131675888D01*
X160684955Y-131713423D01*
X160681729Y-131717824D01*
X160658978Y-131748857D01*
X160658977Y-131748859D01*
X160654837Y-131759505D01*
X160645314Y-131778828D01*
X160471358Y-132065850D01*
X160465651Y-132075264D01*
X160451460Y-132091386D01*
X160431640Y-132131381D01*
X160428904Y-132135896D01*
X160428903Y-132135900D01*
X160408487Y-132169587D01*
X160405558Y-132179656D01*
X160397601Y-132200074D01*
X160242763Y-132512541D01*
X160237776Y-132522603D01*
X160225481Y-132539096D01*
X160208637Y-132581406D01*
X160206402Y-132585917D01*
X160206398Y-132585928D01*
X160188403Y-132622244D01*
X160188402Y-132622248D01*
X160186560Y-132631414D01*
X160180198Y-132652843D01*
X160044867Y-132992795D01*
X160040621Y-133003458D01*
X160030177Y-133019992D01*
X160016344Y-133064441D01*
X160014574Y-133068889D01*
X159999118Y-133107718D01*
X159999117Y-133107721D01*
X159998173Y-133115752D01*
X159993422Y-133138108D01*
X159878444Y-133507609D01*
X159874952Y-133518828D01*
X159866247Y-133535129D01*
X159855448Y-133581507D01*
X159854105Y-133585824D01*
X159854103Y-133585834D01*
X159841290Y-133627011D01*
X159841022Y-133633741D01*
X159837891Y-133656911D01*
X159744629Y-134057462D01*
X159741798Y-134069622D01*
X159734678Y-134085483D01*
X159726907Y-134133571D01*
X159725943Y-134137714D01*
X159715857Y-134181033D01*
X159715856Y-134181040D01*
X159716034Y-134186412D01*
X159714514Y-134210277D01*
X159644393Y-134644297D01*
X159644392Y-134644298D01*
X159642432Y-134656428D01*
X159636724Y-134671701D01*
X159631959Y-134721246D01*
X159631322Y-134725190D01*
X159631320Y-134725206D01*
X159624016Y-134770418D01*
X159624015Y-134770422D01*
X159624424Y-134774426D01*
X159624494Y-134798870D01*
X159579508Y-135266651D01*
X159578307Y-135279131D01*
X159573831Y-135293739D01*
X159572020Y-135344518D01*
X159571663Y-135348234D01*
X159567157Y-135395097D01*
X159567157Y-135395104D01*
X159567609Y-135397802D01*
X159569233Y-135422698D01*
X159553507Y-135863807D01*
X159550920Y-135936383D01*
X159547502Y-135950295D01*
X159548579Y-136002036D01*
X159548455Y-136005541D01*
X159548455Y-136005543D01*
X159546735Y-136053762D01*
X159546736Y-136053769D01*
X159547083Y-136055276D01*
X159550214Y-136080499D01*
X159561278Y-136611631D01*
X159561548Y-136624616D01*
X159559033Y-136637853D01*
X159562916Y-136690287D01*
X159562985Y-136693598D01*
X159562986Y-136693599D01*
X159564013Y-136742895D01*
X159564014Y-136742901D01*
X159564150Y-136743368D01*
X159568730Y-136768787D01*
X159609790Y-137323177D01*
X159609790Y-137323178D01*
X159610762Y-137336309D01*
X159609014Y-137348938D01*
X159615613Y-137401813D01*
X159615844Y-137404927D01*
X159615845Y-137404936D01*
X159619554Y-137455003D01*
X159619907Y-137456706D01*
X159625387Y-137480114D01*
X159695666Y-138043148D01*
X159695666Y-138043149D01*
X159695894Y-138044979D01*
X159697313Y-138056342D01*
X159696222Y-138068507D01*
X159705447Y-138121521D01*
X159705818Y-138124493D01*
X159705822Y-138124514D01*
X159707900Y-138141156D01*
X159712124Y-138174994D01*
X159712125Y-138174997D01*
X159713345Y-138179674D01*
X159719000Y-138199406D01*
X159813045Y-138739838D01*
X159813045Y-138739840D01*
X159815338Y-138753023D01*
X159814832Y-138764900D01*
X159826598Y-138817738D01*
X159827095Y-138820590D01*
X159827103Y-138820626D01*
X159832953Y-138854238D01*
X159825055Y-138923660D01*
X159780878Y-138977791D01*
X159714449Y-138999446D01*
X159710789Y-138999500D01*
X120270717Y-138999500D01*
X120203678Y-138979815D01*
X120157923Y-138927011D01*
X120147979Y-138857853D01*
X120149077Y-138851425D01*
X120166202Y-138764900D01*
X120174693Y-138722002D01*
X120177061Y-138716908D01*
X120187467Y-138657460D01*
X120199189Y-138598239D01*
X120199188Y-138598226D01*
X120199544Y-138592722D01*
X120201141Y-138579345D01*
X120255113Y-138271030D01*
X120257460Y-138265663D01*
X120266456Y-138206234D01*
X120276827Y-138146995D01*
X120276827Y-138146994D01*
X120277088Y-138140826D01*
X120278374Y-138127506D01*
X120322861Y-137833651D01*
X120325174Y-137827995D01*
X120332714Y-137768570D01*
X120341674Y-137709389D01*
X120341673Y-137709381D01*
X120341806Y-137702546D01*
X120342769Y-137689329D01*
X120377700Y-137414048D01*
X120379962Y-137408095D01*
X120385984Y-137348764D01*
X120393489Y-137289628D01*
X120393487Y-137289620D01*
X120393452Y-137282077D01*
X120394084Y-137268972D01*
X120420653Y-137007256D01*
X120422846Y-137000996D01*
X120427296Y-136941818D01*
X120433293Y-136882749D01*
X120433291Y-136882741D01*
X120433051Y-136874623D01*
X120433906Y-136874597D01*
X120433332Y-136861554D01*
X120433923Y-136853698D01*
X120449129Y-136651504D01*
X134780000Y-136651504D01*
X134780000Y-136800000D01*
X135480000Y-136800000D01*
X135480000Y-137300000D01*
X134780000Y-137300000D01*
X134780000Y-137448495D01*
X134818427Y-137641681D01*
X134818430Y-137641693D01*
X134893807Y-137823671D01*
X134893814Y-137823684D01*
X135003248Y-137987462D01*
X135003251Y-137987466D01*
X135142533Y-138126748D01*
X135142537Y-138126751D01*
X135306315Y-138236185D01*
X135306328Y-138236192D01*
X135488308Y-138311569D01*
X135530000Y-138319862D01*
X135530000Y-137516988D01*
X135539940Y-137534205D01*
X135595795Y-137590060D01*
X135664204Y-137629556D01*
X135740504Y-137650000D01*
X135819496Y-137650000D01*
X135895796Y-137629556D01*
X135964205Y-137590060D01*
X136020060Y-137534205D01*
X136030000Y-137516988D01*
X136030000Y-138319862D01*
X136071690Y-138311569D01*
X136071692Y-138311569D01*
X136253671Y-138236192D01*
X136253684Y-138236185D01*
X136417462Y-138126751D01*
X136417466Y-138126748D01*
X136556748Y-137987466D01*
X136556751Y-137987462D01*
X136666185Y-137823684D01*
X136666192Y-137823671D01*
X136741569Y-137641693D01*
X136741572Y-137641681D01*
X136779999Y-137448495D01*
X136780000Y-137448492D01*
X136780000Y-137300000D01*
X136080000Y-137300000D01*
X136080000Y-136800000D01*
X136780000Y-136800000D01*
X136780000Y-136651508D01*
X136779999Y-136651504D01*
X143420000Y-136651504D01*
X143420000Y-136800000D01*
X144120000Y-136800000D01*
X144120000Y-137300000D01*
X143420000Y-137300000D01*
X143420000Y-137448495D01*
X143458427Y-137641681D01*
X143458430Y-137641693D01*
X143533807Y-137823671D01*
X143533814Y-137823684D01*
X143643248Y-137987462D01*
X143643251Y-137987466D01*
X143782533Y-138126748D01*
X143782537Y-138126751D01*
X143946315Y-138236185D01*
X143946328Y-138236192D01*
X144128308Y-138311569D01*
X144170000Y-138319862D01*
X144170000Y-137516988D01*
X144179940Y-137534205D01*
X144235795Y-137590060D01*
X144304204Y-137629556D01*
X144380504Y-137650000D01*
X144459496Y-137650000D01*
X144535796Y-137629556D01*
X144604205Y-137590060D01*
X144660060Y-137534205D01*
X144670000Y-137516988D01*
X144670000Y-138319862D01*
X144711690Y-138311569D01*
X144711692Y-138311569D01*
X144893671Y-138236192D01*
X144893684Y-138236185D01*
X145057462Y-138126751D01*
X145057466Y-138126748D01*
X145196748Y-137987466D01*
X145196751Y-137987462D01*
X145306185Y-137823684D01*
X145306192Y-137823671D01*
X145381569Y-137641693D01*
X145381572Y-137641681D01*
X145419999Y-137448495D01*
X145420000Y-137448492D01*
X145420000Y-137300000D01*
X144720000Y-137300000D01*
X144720000Y-136800000D01*
X145420000Y-136800000D01*
X145420000Y-136651508D01*
X145419999Y-136651504D01*
X145381572Y-136458318D01*
X145381569Y-136458306D01*
X145306192Y-136276328D01*
X145306185Y-136276315D01*
X145196751Y-136112537D01*
X145196748Y-136112533D01*
X145057466Y-135973251D01*
X145057462Y-135973248D01*
X144893684Y-135863814D01*
X144893671Y-135863807D01*
X144711691Y-135788429D01*
X144711683Y-135788427D01*
X144670000Y-135780135D01*
X144670000Y-136583011D01*
X144660060Y-136565795D01*
X144604205Y-136509940D01*
X144535796Y-136470444D01*
X144459496Y-136450000D01*
X144380504Y-136450000D01*
X144304204Y-136470444D01*
X144235795Y-136509940D01*
X144179940Y-136565795D01*
X144170000Y-136583011D01*
X144170000Y-135780136D01*
X144169999Y-135780135D01*
X144128316Y-135788427D01*
X144128308Y-135788429D01*
X143946328Y-135863807D01*
X143946315Y-135863814D01*
X143782537Y-135973248D01*
X143782533Y-135973251D01*
X143643251Y-136112533D01*
X143643248Y-136112537D01*
X143533814Y-136276315D01*
X143533807Y-136276328D01*
X143458430Y-136458306D01*
X143458427Y-136458318D01*
X143420000Y-136651504D01*
X136779999Y-136651504D01*
X136741572Y-136458318D01*
X136741569Y-136458306D01*
X136666192Y-136276328D01*
X136666185Y-136276315D01*
X136556751Y-136112537D01*
X136556748Y-136112533D01*
X136417466Y-135973251D01*
X136417462Y-135973248D01*
X136253684Y-135863814D01*
X136253671Y-135863807D01*
X136071691Y-135788429D01*
X136071683Y-135788427D01*
X136030000Y-135780135D01*
X136030000Y-136583011D01*
X136020060Y-136565795D01*
X135964205Y-136509940D01*
X135895796Y-136470444D01*
X135819496Y-136450000D01*
X135740504Y-136450000D01*
X135664204Y-136470444D01*
X135595795Y-136509940D01*
X135539940Y-136565795D01*
X135530000Y-136583011D01*
X135530000Y-135780136D01*
X135529999Y-135780135D01*
X135488316Y-135788427D01*
X135488308Y-135788429D01*
X135306328Y-135863807D01*
X135306315Y-135863814D01*
X135142537Y-135973248D01*
X135142533Y-135973251D01*
X135003251Y-136112533D01*
X135003248Y-136112537D01*
X134893814Y-136276315D01*
X134893807Y-136276328D01*
X134818430Y-136458306D01*
X134818427Y-136458318D01*
X134780000Y-136651504D01*
X120449129Y-136651504D01*
X120450631Y-136631538D01*
X120453180Y-136618532D01*
X120452387Y-136618389D01*
X120453830Y-136610396D01*
X120453833Y-136610388D01*
X120456580Y-136553018D01*
X120456781Y-136549745D01*
X120461092Y-136492447D01*
X120461090Y-136492440D01*
X120460638Y-136484329D01*
X120461430Y-136484284D01*
X120460508Y-136471060D01*
X120460538Y-136470444D01*
X120471638Y-136238767D01*
X120473637Y-136231853D01*
X120474787Y-136173050D01*
X120477601Y-136114322D01*
X120477600Y-136114321D01*
X120477601Y-136114319D01*
X120476927Y-136106225D01*
X120477666Y-136106163D01*
X120476357Y-136092748D01*
X120476597Y-136080499D01*
X120480601Y-135875796D01*
X120482467Y-135868547D01*
X120481887Y-135810031D01*
X120483032Y-135751522D01*
X120483030Y-135751517D01*
X120482129Y-135743442D01*
X120482816Y-135743365D01*
X120481092Y-135729788D01*
X120479057Y-135524246D01*
X120480766Y-135516652D01*
X120478406Y-135458482D01*
X120477830Y-135400254D01*
X120477830Y-135400250D01*
X120476690Y-135392207D01*
X120477322Y-135392117D01*
X120475156Y-135378364D01*
X120467962Y-135200999D01*
X120467382Y-135186687D01*
X120468905Y-135178745D01*
X120464716Y-135120966D01*
X120462369Y-135063091D01*
X120460983Y-135055086D01*
X120461561Y-135054985D01*
X120458925Y-135041086D01*
X120446824Y-134874159D01*
X120445794Y-134859946D01*
X120447102Y-134851654D01*
X120441039Y-134794353D01*
X120436873Y-134736878D01*
X120436869Y-134736866D01*
X120435232Y-134728922D01*
X120435754Y-134728814D01*
X120432620Y-134714780D01*
X120416252Y-134560081D01*
X120416252Y-134560080D01*
X120414761Y-134545985D01*
X120415822Y-134537350D01*
X120407842Y-134480588D01*
X120401812Y-134423587D01*
X120401811Y-134423584D01*
X120399909Y-134415682D01*
X120400377Y-134415569D01*
X120396715Y-134401433D01*
X120374348Y-134242323D01*
X120375129Y-134233345D01*
X120365193Y-134177196D01*
X120357258Y-134120743D01*
X120357256Y-134120739D01*
X120355086Y-134112912D01*
X120355499Y-134112797D01*
X120351281Y-134098570D01*
X120348965Y-134085483D01*
X120325042Y-133950281D01*
X120325508Y-133940978D01*
X120313585Y-133885530D01*
X120305071Y-133837411D01*
X120303705Y-133829690D01*
X120301255Y-133821937D01*
X120301617Y-133821822D01*
X120296816Y-133807547D01*
X120266832Y-133668101D01*
X120266949Y-133658484D01*
X120253009Y-133603818D01*
X120241150Y-133548663D01*
X120241148Y-133548659D01*
X120238419Y-133541007D01*
X120238728Y-133540896D01*
X120233318Y-133526595D01*
X120200133Y-133396450D01*
X120199867Y-133386548D01*
X120183890Y-133332748D01*
X120170020Y-133278354D01*
X120170018Y-133278350D01*
X120167000Y-133270805D01*
X120167262Y-133270700D01*
X120161222Y-133256421D01*
X120128885Y-133147533D01*
X120127791Y-133143611D01*
X120124822Y-133132258D01*
X120124279Y-133124149D01*
X120107049Y-133073650D01*
X120105536Y-133068906D01*
X120090348Y-133017762D01*
X120087036Y-133010338D01*
X120087251Y-133010241D01*
X120080556Y-132996007D01*
X120045993Y-132894707D01*
X120045993Y-132894706D01*
X120041557Y-132881707D01*
X120040429Y-132871311D01*
X120020326Y-132819480D01*
X120002379Y-132766880D01*
X120002377Y-132766878D01*
X120002376Y-132766873D01*
X119998770Y-132759589D01*
X119998943Y-132759503D01*
X119991588Y-132745387D01*
X119955025Y-132651117D01*
X119955025Y-132651116D01*
X119950080Y-132638369D01*
X119948477Y-132627780D01*
X119926313Y-132577090D01*
X119906302Y-132525494D01*
X119906298Y-132525488D01*
X119902399Y-132518366D01*
X119902533Y-132518292D01*
X119894496Y-132504321D01*
X119855932Y-132416120D01*
X119855932Y-132416118D01*
X119850477Y-132403642D01*
X119848376Y-132392913D01*
X119824150Y-132343429D01*
X119823095Y-132341014D01*
X119823080Y-132340981D01*
X119802064Y-132292916D01*
X119797866Y-132285961D01*
X119797966Y-132285900D01*
X119789241Y-132272122D01*
X119788163Y-132269919D01*
X119788162Y-132269918D01*
X119772271Y-132237458D01*
X119764461Y-132221504D01*
X134780000Y-132221504D01*
X134780000Y-132620000D01*
X135480000Y-132620000D01*
X135480000Y-133120000D01*
X134780000Y-133120000D01*
X134780000Y-133518495D01*
X134818427Y-133711681D01*
X134818430Y-133711693D01*
X134893807Y-133893671D01*
X134893814Y-133893684D01*
X135003248Y-134057462D01*
X135003251Y-134057466D01*
X135142533Y-134196748D01*
X135142537Y-134196751D01*
X135306315Y-134306185D01*
X135306328Y-134306192D01*
X135488308Y-134381569D01*
X135530000Y-134389862D01*
X135530000Y-133586988D01*
X135539940Y-133604205D01*
X135595795Y-133660060D01*
X135664204Y-133699556D01*
X135740504Y-133720000D01*
X135819496Y-133720000D01*
X135895796Y-133699556D01*
X135964205Y-133660060D01*
X136020060Y-133604205D01*
X136030000Y-133586988D01*
X136030000Y-134389862D01*
X136071690Y-134381569D01*
X136071692Y-134381569D01*
X136253671Y-134306192D01*
X136253684Y-134306185D01*
X136417462Y-134196751D01*
X136417466Y-134196748D01*
X136556748Y-134057466D01*
X136556751Y-134057462D01*
X136669574Y-133888613D01*
X136671007Y-133889570D01*
X136714198Y-133845580D01*
X136782332Y-133830103D01*
X136848018Y-133853919D01*
X136850089Y-133855697D01*
X136850189Y-133855568D01*
X136856630Y-133860510D01*
X136856635Y-133860515D01*
X136987865Y-133936281D01*
X137134234Y-133975500D01*
X137134236Y-133975500D01*
X137285764Y-133975500D01*
X137285766Y-133975500D01*
X137432135Y-133936281D01*
X137563365Y-133860515D01*
X137670515Y-133753365D01*
X137746281Y-133622135D01*
X137785500Y-133475766D01*
X137785500Y-133324234D01*
X142414500Y-133324234D01*
X142414500Y-133475765D01*
X142453719Y-133622136D01*
X142488130Y-133681736D01*
X142529485Y-133753365D01*
X142636635Y-133860515D01*
X142767865Y-133936281D01*
X142914234Y-133975500D01*
X142914236Y-133975500D01*
X143065764Y-133975500D01*
X143065766Y-133975500D01*
X143212135Y-133936281D01*
X143343365Y-133860515D01*
X143343372Y-133860507D01*
X143349811Y-133855568D01*
X143352044Y-133858478D01*
X143398258Y-133832865D01*
X143467980Y-133837411D01*
X143524176Y-133878930D01*
X143530394Y-133888634D01*
X143530426Y-133888613D01*
X143643248Y-134057462D01*
X143643251Y-134057466D01*
X143782533Y-134196748D01*
X143782537Y-134196751D01*
X143946315Y-134306185D01*
X143946328Y-134306192D01*
X144128308Y-134381569D01*
X144170000Y-134389862D01*
X144170000Y-133586988D01*
X144179940Y-133604205D01*
X144235795Y-133660060D01*
X144304204Y-133699556D01*
X144380504Y-133720000D01*
X144459496Y-133720000D01*
X144535796Y-133699556D01*
X144604205Y-133660060D01*
X144660060Y-133604205D01*
X144670000Y-133586988D01*
X144670000Y-134389862D01*
X144711690Y-134381569D01*
X144711692Y-134381569D01*
X144893671Y-134306192D01*
X144893684Y-134306185D01*
X145057462Y-134196751D01*
X145057466Y-134196748D01*
X145196748Y-134057466D01*
X145196751Y-134057462D01*
X145306185Y-133893684D01*
X145306192Y-133893671D01*
X145381569Y-133711693D01*
X145381572Y-133711681D01*
X145419999Y-133518495D01*
X145420000Y-133518492D01*
X145420000Y-133120000D01*
X144720000Y-133120000D01*
X144720000Y-132620000D01*
X145420000Y-132620000D01*
X145420000Y-132221508D01*
X145419999Y-132221504D01*
X145381572Y-132028318D01*
X145381569Y-132028306D01*
X145306192Y-131846328D01*
X145306185Y-131846315D01*
X145196751Y-131682537D01*
X145196748Y-131682533D01*
X145057466Y-131543251D01*
X145057462Y-131543248D01*
X144893684Y-131433814D01*
X144893671Y-131433807D01*
X144711691Y-131358429D01*
X144711683Y-131358427D01*
X144670000Y-131350135D01*
X144670000Y-132153011D01*
X144660060Y-132135795D01*
X144604205Y-132079940D01*
X144535796Y-132040444D01*
X144459496Y-132020000D01*
X144380504Y-132020000D01*
X144304204Y-132040444D01*
X144235795Y-132079940D01*
X144179940Y-132135795D01*
X144170000Y-132153011D01*
X144170000Y-131350136D01*
X144169999Y-131350135D01*
X144128316Y-131358427D01*
X144128308Y-131358429D01*
X143946328Y-131433807D01*
X143946315Y-131433814D01*
X143782537Y-131543248D01*
X143782533Y-131543251D01*
X143643251Y-131682533D01*
X143643248Y-131682537D01*
X143533814Y-131846315D01*
X143533807Y-131846328D01*
X143458430Y-132028306D01*
X143458427Y-132028318D01*
X143420000Y-132221504D01*
X143420000Y-132620000D01*
X144120000Y-132620000D01*
X144120000Y-133120000D01*
X143564464Y-133120000D01*
X143497425Y-133100315D01*
X143457077Y-133058000D01*
X143450517Y-133046638D01*
X143450513Y-133046633D01*
X143343367Y-132939487D01*
X143343365Y-132939485D01*
X143225285Y-132871311D01*
X143212136Y-132863719D01*
X143138950Y-132844109D01*
X143065766Y-132824500D01*
X142914234Y-132824500D01*
X142767863Y-132863719D01*
X142636635Y-132939485D01*
X142636632Y-132939487D01*
X142529487Y-133046632D01*
X142529485Y-133046635D01*
X142453719Y-133177863D01*
X142414500Y-133324234D01*
X137785500Y-133324234D01*
X137746281Y-133177865D01*
X137670515Y-133046635D01*
X137563365Y-132939485D01*
X137445285Y-132871311D01*
X137432136Y-132863719D01*
X137358950Y-132844109D01*
X137285766Y-132824500D01*
X137134234Y-132824500D01*
X136987863Y-132863719D01*
X136856635Y-132939485D01*
X136856632Y-132939487D01*
X136749486Y-133046633D01*
X136749482Y-133046638D01*
X136742923Y-133058000D01*
X136692356Y-133106216D01*
X136635536Y-133120000D01*
X136080000Y-133120000D01*
X136080000Y-132620000D01*
X136780000Y-132620000D01*
X136780000Y-132221508D01*
X136779999Y-132221504D01*
X136741572Y-132028318D01*
X136741569Y-132028306D01*
X136666192Y-131846328D01*
X136666185Y-131846315D01*
X136556751Y-131682537D01*
X136556748Y-131682533D01*
X136417466Y-131543251D01*
X136417462Y-131543248D01*
X136253684Y-131433814D01*
X136253671Y-131433807D01*
X136071691Y-131358429D01*
X136071683Y-131358427D01*
X136030000Y-131350135D01*
X136030000Y-132153011D01*
X136020060Y-132135795D01*
X135964205Y-132079940D01*
X135895796Y-132040444D01*
X135819496Y-132020000D01*
X135740504Y-132020000D01*
X135664204Y-132040444D01*
X135595795Y-132079940D01*
X135539940Y-132135795D01*
X135530000Y-132153011D01*
X135530000Y-131350136D01*
X135529999Y-131350135D01*
X135488316Y-131358427D01*
X135488308Y-131358429D01*
X135306328Y-131433807D01*
X135306315Y-131433814D01*
X135142537Y-131543248D01*
X135142533Y-131543251D01*
X135003251Y-131682533D01*
X135003248Y-131682537D01*
X134893814Y-131846315D01*
X134893807Y-131846328D01*
X134818430Y-132028306D01*
X134818427Y-132028318D01*
X134780000Y-132221504D01*
X119764461Y-132221504D01*
X119749154Y-132190236D01*
X119743572Y-132174768D01*
X119743494Y-132174799D01*
X119740568Y-132167217D01*
X119715592Y-132121410D01*
X119715591Y-132121408D01*
X119714289Y-132119020D01*
X119690150Y-132069712D01*
X119682822Y-132061307D01*
X119634200Y-131972131D01*
X119627893Y-131956810D01*
X119627841Y-131956833D01*
X119624580Y-131949389D01*
X119597703Y-131904935D01*
X119594946Y-131900137D01*
X119570067Y-131854506D01*
X119565281Y-131847943D01*
X119565325Y-131847910D01*
X119555263Y-131834739D01*
X119521460Y-131778828D01*
X119502025Y-131746682D01*
X119496127Y-131730517D01*
X119468043Y-131690475D01*
X119442744Y-131648631D01*
X119442741Y-131648627D01*
X119439031Y-131645064D01*
X119423409Y-131626838D01*
X119288021Y-131433807D01*
X119234946Y-131358134D01*
X119224981Y-131337070D01*
X119197259Y-131304401D01*
X119193982Y-131299728D01*
X119193981Y-131299726D01*
X119172657Y-131269325D01*
X119172655Y-131269322D01*
X119172652Y-131269320D01*
X119172651Y-131269318D01*
X119162871Y-131261124D01*
X119147963Y-131246309D01*
X119021197Y-131096924D01*
X118935272Y-130995668D01*
X118923334Y-130975499D01*
X118892809Y-130945629D01*
X118865171Y-130913059D01*
X118854537Y-130905701D01*
X118838381Y-130892368D01*
X118657614Y-130715477D01*
X118612491Y-130671321D01*
X118604947Y-130663939D01*
X118591292Y-130645069D01*
X118558036Y-130618034D01*
X118553955Y-130614041D01*
X118553953Y-130614039D01*
X118527406Y-130588061D01*
X118527405Y-130588060D01*
X118516302Y-130581809D01*
X118498920Y-130569976D01*
X118252032Y-130369271D01*
X118243762Y-130362548D01*
X118228731Y-130345297D01*
X118192828Y-130321141D01*
X118169647Y-130302296D01*
X118159260Y-130293852D01*
X118159252Y-130293847D01*
X118148096Y-130288854D01*
X118129533Y-130278555D01*
X117860262Y-130097389D01*
X117851288Y-130091351D01*
X117835272Y-130075937D01*
X117796830Y-130054712D01*
X117785130Y-130046840D01*
X117760395Y-130030198D01*
X117749593Y-130026493D01*
X117729893Y-130017755D01*
X117436554Y-129855795D01*
X117426901Y-129850466D01*
X117410293Y-129836986D01*
X117369429Y-129818735D01*
X117364840Y-129816201D01*
X117364839Y-129816200D01*
X117330256Y-129797107D01*
X117330252Y-129797105D01*
X117320193Y-129794615D01*
X117299429Y-129787471D01*
X117088513Y-129693271D01*
X116969780Y-129640243D01*
X116952953Y-129628699D01*
X116909830Y-129613468D01*
X116905278Y-129611435D01*
X116905276Y-129611433D01*
X116868083Y-129594823D01*
X116863701Y-129594123D01*
X116859057Y-129593382D01*
X116837310Y-129587855D01*
X116489874Y-129465146D01*
X116489873Y-129465145D01*
X116478992Y-129461302D01*
X116462267Y-129451614D01*
X116417093Y-129439439D01*
X116412641Y-129437867D01*
X116412628Y-129437863D01*
X116372964Y-129423855D01*
X116372955Y-129423853D01*
X116365184Y-129423248D01*
X116342552Y-129419352D01*
X115965029Y-129317615D01*
X115965029Y-129317614D01*
X115953619Y-129314539D01*
X115937249Y-129306568D01*
X115890232Y-129297458D01*
X115885927Y-129296298D01*
X115885915Y-129296296D01*
X115872923Y-129292795D01*
X115843970Y-129284993D01*
X115843968Y-129284992D01*
X115837558Y-129284983D01*
X115814160Y-129282719D01*
X115404832Y-129203414D01*
X115404832Y-129203413D01*
X115392961Y-129201113D01*
X115377123Y-129194682D01*
X115328499Y-129188624D01*
X115324373Y-129187825D01*
X115324368Y-129187825D01*
X115280371Y-129179300D01*
X115275372Y-129179653D01*
X115251327Y-129179009D01*
X114809078Y-129123913D01*
X114796815Y-129122385D01*
X114781632Y-129117310D01*
X114731667Y-129114268D01*
X114727769Y-129113783D01*
X114727767Y-129113782D01*
X114681945Y-129108074D01*
X114681944Y-129108074D01*
X114678310Y-129108579D01*
X114653743Y-129109525D01*
X114178608Y-129080605D01*
X114178608Y-129080604D01*
X114166021Y-129079838D01*
X114151547Y-129075935D01*
X114100475Y-129075850D01*
X114096810Y-129075627D01*
X114096808Y-129075627D01*
X114049467Y-129072745D01*
X114049459Y-129072746D01*
X114047110Y-129073225D01*
X114022156Y-129075720D01*
X113516059Y-129074884D01*
X113516058Y-129074884D01*
X113503224Y-129074862D01*
X113489447Y-129071956D01*
X113437522Y-129074753D01*
X113434083Y-129074748D01*
X113434082Y-129074747D01*
X113385522Y-129074669D01*
X113385518Y-129074669D01*
X113384303Y-129074993D01*
X113359101Y-129078980D01*
X112827305Y-129107644D01*
X112814287Y-129108345D01*
X112801165Y-129106287D01*
X112748688Y-129111880D01*
X112745413Y-129112057D01*
X112745411Y-129112058D01*
X112695960Y-129114723D01*
X112695714Y-129114804D01*
X112670374Y-129120228D01*
X112124316Y-129178436D01*
X112124315Y-129178436D01*
X112111203Y-129179834D01*
X112098619Y-129178499D01*
X112045854Y-129186800D01*
X112042779Y-129187127D01*
X112042777Y-129187127D01*
X111992749Y-129192461D01*
X111990557Y-129192990D01*
X111967910Y-129199063D01*
X111431840Y-129283404D01*
X111431841Y-129283405D01*
X111418710Y-129285470D01*
X111406491Y-129284768D01*
X111353835Y-129295677D01*
X111350864Y-129296145D01*
X111350858Y-129296147D01*
X111300632Y-129304049D01*
X111296247Y-129305343D01*
X111276425Y-129311716D01*
X111149659Y-129337982D01*
X111080020Y-129332309D01*
X111024503Y-129289886D01*
X111000735Y-129224183D01*
X111000500Y-129216561D01*
X111000500Y-127511303D01*
X132799500Y-127511303D01*
X132799500Y-128688695D01*
X132834103Y-128862658D01*
X132834106Y-128862667D01*
X132901983Y-129026540D01*
X132901990Y-129026553D01*
X133000535Y-129174034D01*
X133000538Y-129174038D01*
X133125961Y-129299461D01*
X133125965Y-129299464D01*
X133273446Y-129398009D01*
X133273459Y-129398016D01*
X133369660Y-129437863D01*
X133437334Y-129465894D01*
X133437336Y-129465894D01*
X133437341Y-129465896D01*
X133611304Y-129500499D01*
X133611307Y-129500500D01*
X133611309Y-129500500D01*
X134788693Y-129500500D01*
X134788694Y-129500499D01*
X134884351Y-129481472D01*
X134962658Y-129465896D01*
X134962661Y-129465894D01*
X134962666Y-129465894D01*
X135126547Y-129398013D01*
X135274035Y-129299464D01*
X135399464Y-129174035D01*
X135498013Y-129026547D01*
X135565894Y-128862666D01*
X135569800Y-128843033D01*
X135588964Y-128746682D01*
X135600500Y-128688691D01*
X135600500Y-128511309D01*
X135600500Y-128511306D01*
X135600499Y-128511304D01*
X135565896Y-128337341D01*
X135565893Y-128337332D01*
X135498016Y-128173459D01*
X135498009Y-128173446D01*
X135430454Y-128072343D01*
X135409576Y-128005665D01*
X135418995Y-127955999D01*
X135469737Y-127833497D01*
X135500500Y-127678842D01*
X135500500Y-127521158D01*
X135500500Y-127521155D01*
X135500499Y-127521153D01*
X135469738Y-127366510D01*
X135469737Y-127366503D01*
X135424487Y-127257260D01*
X135417019Y-127187795D01*
X135448294Y-127125316D01*
X135451339Y-127122159D01*
X137736681Y-124836819D01*
X137798004Y-124803334D01*
X137824362Y-124800500D01*
X139496561Y-124800500D01*
X139563600Y-124820185D01*
X139609355Y-124872989D01*
X139619299Y-124942147D01*
X139590274Y-125005703D01*
X139565452Y-125027602D01*
X139489711Y-125078210D01*
X139489707Y-125078213D01*
X139378213Y-125189707D01*
X139378210Y-125189711D01*
X139290609Y-125320814D01*
X139290602Y-125320827D01*
X139230264Y-125466498D01*
X139230261Y-125466510D01*
X139199500Y-125621153D01*
X139199500Y-125778846D01*
X139230261Y-125933489D01*
X139230264Y-125933501D01*
X139290602Y-126079172D01*
X139290609Y-126079184D01*
X139353602Y-126173459D01*
X139374480Y-126240136D01*
X139374500Y-126242350D01*
X139374500Y-127869767D01*
X139354815Y-127936806D01*
X139345433Y-127948447D01*
X139345930Y-127948855D01*
X139342064Y-127953565D01*
X139254463Y-128084668D01*
X139254456Y-128084681D01*
X139194118Y-128230352D01*
X139194115Y-128230364D01*
X139163354Y-128385007D01*
X139163354Y-128542700D01*
X139194115Y-128697343D01*
X139194118Y-128697355D01*
X139254456Y-128843026D01*
X139254463Y-128843039D01*
X139342064Y-128974142D01*
X139342067Y-128974146D01*
X139453561Y-129085640D01*
X139453565Y-129085643D01*
X139584668Y-129173244D01*
X139584681Y-129173251D01*
X139730352Y-129233589D01*
X139730357Y-129233591D01*
X139885007Y-129264353D01*
X139885010Y-129264354D01*
X139885012Y-129264354D01*
X140042698Y-129264354D01*
X140042699Y-129264353D01*
X140197351Y-129233591D01*
X140333328Y-129177268D01*
X140343026Y-129173251D01*
X140343026Y-129173250D01*
X140343033Y-129173248D01*
X140474143Y-129085643D01*
X140585643Y-128974143D01*
X140673248Y-128843033D01*
X140733591Y-128697351D01*
X140764354Y-128542696D01*
X140764354Y-128385012D01*
X140764354Y-128385009D01*
X140764353Y-128385007D01*
X140733591Y-128230357D01*
X140733589Y-128230352D01*
X140673251Y-128084681D01*
X140673244Y-128084668D01*
X140646398Y-128044490D01*
X140625520Y-127977812D01*
X140625500Y-127975599D01*
X140625500Y-127056941D01*
X140645185Y-126989902D01*
X140697989Y-126944147D01*
X140767147Y-126934203D01*
X140830703Y-126963228D01*
X140837181Y-126969260D01*
X140889707Y-127021786D01*
X140889711Y-127021789D01*
X141020814Y-127109390D01*
X141020827Y-127109397D01*
X141166498Y-127169735D01*
X141166503Y-127169737D01*
X141321153Y-127200499D01*
X141321156Y-127200500D01*
X141321158Y-127200500D01*
X141478844Y-127200500D01*
X141478845Y-127200499D01*
X141633497Y-127169737D01*
X141779179Y-127109394D01*
X141873459Y-127046398D01*
X141940136Y-127025520D01*
X141942350Y-127025500D01*
X142557650Y-127025500D01*
X142624689Y-127045185D01*
X142626541Y-127046398D01*
X142720821Y-127109394D01*
X142720823Y-127109395D01*
X142720827Y-127109397D01*
X142866498Y-127169735D01*
X142866503Y-127169737D01*
X143021153Y-127200499D01*
X143021156Y-127200500D01*
X143021158Y-127200500D01*
X143178844Y-127200500D01*
X143178845Y-127200499D01*
X143333497Y-127169737D01*
X143479179Y-127109394D01*
X143610289Y-127021789D01*
X143721789Y-126910289D01*
X143809394Y-126779179D01*
X143869737Y-126633497D01*
X143900500Y-126478842D01*
X143900500Y-126321158D01*
X143900500Y-126321155D01*
X143900499Y-126321153D01*
X143884824Y-126242350D01*
X143869737Y-126166503D01*
X143833569Y-126079184D01*
X143809397Y-126020827D01*
X143809390Y-126020814D01*
X143721789Y-125889711D01*
X143721786Y-125889707D01*
X143610292Y-125778213D01*
X143610288Y-125778210D01*
X143479185Y-125690609D01*
X143479172Y-125690602D01*
X143333501Y-125630264D01*
X143333489Y-125630261D01*
X143178845Y-125599500D01*
X143178842Y-125599500D01*
X143021158Y-125599500D01*
X143021155Y-125599500D01*
X142866510Y-125630261D01*
X142866498Y-125630264D01*
X142720827Y-125690602D01*
X142720815Y-125690609D01*
X142626541Y-125753602D01*
X142559864Y-125774480D01*
X142557650Y-125774500D01*
X141942350Y-125774500D01*
X141875311Y-125754815D01*
X141873459Y-125753602D01*
X141779184Y-125690609D01*
X141779172Y-125690602D01*
X141633501Y-125630264D01*
X141633489Y-125630261D01*
X141478845Y-125599500D01*
X141478842Y-125599500D01*
X141321158Y-125599500D01*
X141321155Y-125599500D01*
X141166510Y-125630261D01*
X141166498Y-125630264D01*
X141020827Y-125690602D01*
X141020813Y-125690610D01*
X140992534Y-125709505D01*
X140925856Y-125730381D01*
X140858477Y-125711895D01*
X140811788Y-125659915D01*
X140802590Y-125626952D01*
X140801689Y-125627132D01*
X140769738Y-125466510D01*
X140769737Y-125466503D01*
X140726727Y-125362666D01*
X140709397Y-125320827D01*
X140709390Y-125320814D01*
X140621789Y-125189711D01*
X140621786Y-125189707D01*
X140510292Y-125078213D01*
X140510288Y-125078210D01*
X140434548Y-125027602D01*
X140389743Y-124973990D01*
X140381036Y-124904665D01*
X140411190Y-124841637D01*
X140470634Y-124804918D01*
X140503439Y-124800500D01*
X146175500Y-124800500D01*
X146242539Y-124820185D01*
X146288294Y-124872989D01*
X146299500Y-124924500D01*
X146299500Y-125188695D01*
X146334103Y-125362658D01*
X146334106Y-125362667D01*
X146401983Y-125526540D01*
X146401990Y-125526553D01*
X146500535Y-125674034D01*
X146500538Y-125674038D01*
X146625961Y-125799461D01*
X146625965Y-125799464D01*
X146773446Y-125898009D01*
X146773459Y-125898016D01*
X146861471Y-125934471D01*
X146937334Y-125965894D01*
X146937336Y-125965894D01*
X146937341Y-125965896D01*
X147111304Y-126000499D01*
X147111307Y-126000500D01*
X147111309Y-126000500D01*
X148503877Y-126000500D01*
X148503878Y-126000499D01*
X148677850Y-125965895D01*
X148759790Y-125931953D01*
X148841731Y-125898013D01*
X148930143Y-125838936D01*
X148989220Y-125799464D01*
X149157056Y-125631628D01*
X149255604Y-125484139D01*
X149323487Y-125320258D01*
X149358092Y-125146284D01*
X149358092Y-124968900D01*
X149323487Y-124794926D01*
X149255604Y-124631045D01*
X149157056Y-124483556D01*
X149118581Y-124445081D01*
X149085095Y-124383759D01*
X149090079Y-124314067D01*
X149103158Y-124288511D01*
X149109394Y-124279179D01*
X149169737Y-124133497D01*
X149200500Y-123978842D01*
X149200500Y-123821158D01*
X149200500Y-123821155D01*
X149200499Y-123821153D01*
X149169738Y-123666510D01*
X149169737Y-123666503D01*
X149169735Y-123666498D01*
X149109397Y-123520827D01*
X149109390Y-123520814D01*
X149021789Y-123389711D01*
X149021786Y-123389707D01*
X148910292Y-123278213D01*
X148910288Y-123278210D01*
X148779185Y-123190609D01*
X148779172Y-123190602D01*
X148633501Y-123130264D01*
X148633489Y-123130261D01*
X148478845Y-123099500D01*
X148478842Y-123099500D01*
X148321158Y-123099500D01*
X148321155Y-123099500D01*
X148166510Y-123130261D01*
X148166498Y-123130264D01*
X148020827Y-123190602D01*
X148020814Y-123190609D01*
X147951545Y-123236894D01*
X147884867Y-123257772D01*
X147817487Y-123239287D01*
X147794973Y-123221473D01*
X147774038Y-123200538D01*
X147774034Y-123200535D01*
X147626553Y-123101990D01*
X147626540Y-123101983D01*
X147462667Y-123034106D01*
X147462658Y-123034103D01*
X147288694Y-122999500D01*
X147288691Y-122999500D01*
X137488692Y-122999500D01*
X137311308Y-122999500D01*
X137311303Y-122999500D01*
X137137341Y-123034103D01*
X137137329Y-123034106D01*
X137055392Y-123068045D01*
X137055393Y-123068046D01*
X136973455Y-123101985D01*
X136885040Y-123161063D01*
X136885039Y-123161064D01*
X136825961Y-123200537D01*
X136825960Y-123200538D01*
X133000535Y-127025964D01*
X133000533Y-127025966D01*
X132986060Y-127047629D01*
X132984142Y-127050500D01*
X132901987Y-127173453D01*
X132882367Y-127220821D01*
X132879024Y-127228890D01*
X132879023Y-127228893D01*
X132834105Y-127337333D01*
X132834103Y-127337341D01*
X132799500Y-127511303D01*
X111000500Y-127511303D01*
X111000500Y-120211304D01*
X123299500Y-120211304D01*
X123299500Y-120388695D01*
X123334103Y-120562658D01*
X123334106Y-120562667D01*
X123401983Y-120726540D01*
X123401990Y-120726552D01*
X123469546Y-120827656D01*
X123490424Y-120894333D01*
X123481005Y-120943999D01*
X123430264Y-121066498D01*
X123430261Y-121066510D01*
X123399500Y-121221153D01*
X123399500Y-121378846D01*
X123430261Y-121533489D01*
X123430264Y-121533501D01*
X123490602Y-121679172D01*
X123490609Y-121679185D01*
X123578210Y-121810288D01*
X123578213Y-121810292D01*
X123689707Y-121921786D01*
X123689711Y-121921789D01*
X123820814Y-122009390D01*
X123820827Y-122009397D01*
X123966498Y-122069735D01*
X123966503Y-122069737D01*
X124108635Y-122098009D01*
X124121153Y-122100499D01*
X124121156Y-122100500D01*
X124121158Y-122100500D01*
X124278844Y-122100500D01*
X124278845Y-122100499D01*
X124433497Y-122069737D01*
X124579179Y-122009394D01*
X124648454Y-121963105D01*
X124715130Y-121942227D01*
X124782510Y-121960711D01*
X124805026Y-121978526D01*
X124825961Y-121999461D01*
X124825965Y-121999464D01*
X124973446Y-122098009D01*
X124973459Y-122098016D01*
X125096363Y-122148923D01*
X125137334Y-122165894D01*
X125137336Y-122165894D01*
X125137341Y-122165896D01*
X125311304Y-122200499D01*
X125311307Y-122200500D01*
X125311309Y-122200500D01*
X125488693Y-122200500D01*
X125488694Y-122200499D01*
X125546682Y-122188964D01*
X125662658Y-122165896D01*
X125662661Y-122165894D01*
X125662666Y-122165894D01*
X125826547Y-122098013D01*
X125974035Y-121999464D01*
X126099464Y-121874035D01*
X126178594Y-121755608D01*
X126232206Y-121710804D01*
X126281696Y-121700500D01*
X159288693Y-121700500D01*
X159288694Y-121700499D01*
X159346682Y-121688964D01*
X159462658Y-121665896D01*
X159462661Y-121665894D01*
X159462666Y-121665894D01*
X159626547Y-121598013D01*
X159774035Y-121499464D01*
X159899464Y-121374035D01*
X159998013Y-121226547D01*
X160065894Y-121062666D01*
X160100500Y-120888691D01*
X160100500Y-120211309D01*
X160100500Y-119711309D01*
X160100500Y-119711306D01*
X160100499Y-119711304D01*
X160065896Y-119537341D01*
X160065893Y-119537332D01*
X159998016Y-119373459D01*
X159998009Y-119373446D01*
X159899464Y-119225965D01*
X159899461Y-119225961D01*
X159774038Y-119100538D01*
X159774034Y-119100535D01*
X159626553Y-119001990D01*
X159626540Y-119001983D01*
X159462667Y-118934106D01*
X159462658Y-118934103D01*
X159288694Y-118899500D01*
X159288691Y-118899500D01*
X159111309Y-118899500D01*
X159111306Y-118899500D01*
X158937341Y-118934103D01*
X158937332Y-118934106D01*
X158773459Y-119001983D01*
X158773446Y-119001990D01*
X158625968Y-119100533D01*
X158605026Y-119121475D01*
X158543702Y-119154959D01*
X158474010Y-119149973D01*
X158448455Y-119136894D01*
X158379185Y-119090609D01*
X158379172Y-119090602D01*
X158233501Y-119030264D01*
X158233489Y-119030261D01*
X158078845Y-118999500D01*
X158078842Y-118999500D01*
X157921158Y-118999500D01*
X157921155Y-118999500D01*
X157766510Y-119030261D01*
X157766498Y-119030264D01*
X157620827Y-119090602D01*
X157620814Y-119090609D01*
X157489711Y-119178210D01*
X157489707Y-119178213D01*
X157378213Y-119289707D01*
X157378210Y-119289711D01*
X157290609Y-119420814D01*
X157290602Y-119420827D01*
X157230264Y-119566498D01*
X157230261Y-119566510D01*
X157199500Y-119721153D01*
X157199500Y-119775500D01*
X157179815Y-119842539D01*
X157127011Y-119888294D01*
X157075500Y-119899500D01*
X126281696Y-119899500D01*
X126214657Y-119879815D01*
X126178594Y-119844391D01*
X126099464Y-119725965D01*
X126099461Y-119725961D01*
X125974038Y-119600538D01*
X125974034Y-119600535D01*
X125826553Y-119501990D01*
X125826540Y-119501983D01*
X125662667Y-119434106D01*
X125662658Y-119434103D01*
X125488694Y-119399500D01*
X125488691Y-119399500D01*
X124111309Y-119399500D01*
X124111306Y-119399500D01*
X123937341Y-119434103D01*
X123937332Y-119434106D01*
X123773459Y-119501983D01*
X123773446Y-119501990D01*
X123625965Y-119600535D01*
X123625961Y-119600538D01*
X123500538Y-119725961D01*
X123500535Y-119725965D01*
X123401990Y-119873446D01*
X123401983Y-119873459D01*
X123334106Y-120037332D01*
X123334103Y-120037341D01*
X123299500Y-120211304D01*
X111000500Y-120211304D01*
X111000500Y-116393713D01*
X116149500Y-116393713D01*
X116149500Y-116606286D01*
X116178348Y-116788428D01*
X116182754Y-116816243D01*
X116209968Y-116900000D01*
X116248444Y-117018414D01*
X116344951Y-117207820D01*
X116469890Y-117379786D01*
X116620213Y-117530109D01*
X116792179Y-117655048D01*
X116792181Y-117655049D01*
X116792184Y-117655051D01*
X116981588Y-117751557D01*
X117183757Y-117817246D01*
X117393713Y-117850500D01*
X117393714Y-117850500D01*
X117606286Y-117850500D01*
X117606287Y-117850500D01*
X117816243Y-117817246D01*
X118018412Y-117751557D01*
X118207816Y-117655051D01*
X118229789Y-117639086D01*
X118379786Y-117530109D01*
X118379788Y-117530106D01*
X118379792Y-117530104D01*
X118530104Y-117379792D01*
X118530106Y-117379788D01*
X118530109Y-117379786D01*
X118655048Y-117207820D01*
X118655047Y-117207820D01*
X118655051Y-117207816D01*
X118751557Y-117018412D01*
X118817246Y-116816243D01*
X118850500Y-116606287D01*
X118850500Y-116474983D01*
X137999500Y-116474983D01*
X137999500Y-117825001D01*
X137999501Y-117825018D01*
X138010000Y-117927796D01*
X138010001Y-117927799D01*
X138065185Y-118094331D01*
X138065186Y-118094334D01*
X138157288Y-118243656D01*
X138281344Y-118367712D01*
X138430666Y-118459814D01*
X138597203Y-118514999D01*
X138699991Y-118525500D01*
X139500008Y-118525499D01*
X139500016Y-118525498D01*
X139500019Y-118525498D01*
X139556302Y-118519748D01*
X139602797Y-118514999D01*
X139769334Y-118459814D01*
X139918656Y-118367712D01*
X140042712Y-118243656D01*
X140082581Y-118179016D01*
X140134525Y-118132294D01*
X140203488Y-118121071D01*
X140267570Y-118148914D01*
X140275799Y-118156434D01*
X140383397Y-118264032D01*
X140523475Y-118365804D01*
X140677744Y-118444408D01*
X140842415Y-118497914D01*
X140842414Y-118497914D01*
X140849999Y-118499115D01*
X140850000Y-118499114D01*
X140850000Y-117430330D01*
X140869745Y-117450075D01*
X140955255Y-117499444D01*
X141050630Y-117525000D01*
X141149370Y-117525000D01*
X141244745Y-117499444D01*
X141330255Y-117450075D01*
X141350000Y-117430330D01*
X141350000Y-118499115D01*
X141357584Y-118497914D01*
X141522255Y-118444408D01*
X141676524Y-118365804D01*
X141816602Y-118264032D01*
X141939032Y-118141602D01*
X142040804Y-118001524D01*
X142119408Y-117847257D01*
X142172914Y-117682584D01*
X142200000Y-117511571D01*
X142200000Y-117400000D01*
X141380330Y-117400000D01*
X141400075Y-117380255D01*
X141449444Y-117294745D01*
X141475000Y-117199370D01*
X141475000Y-117100630D01*
X141449444Y-117005255D01*
X141400075Y-116919745D01*
X141380330Y-116900000D01*
X142200000Y-116900000D01*
X142200000Y-116788428D01*
X142172914Y-116617415D01*
X142119407Y-116452740D01*
X142115533Y-116445137D01*
X142115532Y-116445136D01*
X142089331Y-116393713D01*
X161149500Y-116393713D01*
X161149500Y-116606286D01*
X161178348Y-116788428D01*
X161182754Y-116816243D01*
X161209968Y-116900000D01*
X161248444Y-117018414D01*
X161344951Y-117207820D01*
X161469890Y-117379786D01*
X161620213Y-117530109D01*
X161792179Y-117655048D01*
X161792181Y-117655049D01*
X161792184Y-117655051D01*
X161981588Y-117751557D01*
X162183757Y-117817246D01*
X162393713Y-117850500D01*
X162393714Y-117850500D01*
X162606286Y-117850500D01*
X162606287Y-117850500D01*
X162816243Y-117817246D01*
X163018412Y-117751557D01*
X163207816Y-117655051D01*
X163229789Y-117639086D01*
X163379786Y-117530109D01*
X163379788Y-117530106D01*
X163379792Y-117530104D01*
X163530104Y-117379792D01*
X163530106Y-117379788D01*
X163530109Y-117379786D01*
X163655048Y-117207820D01*
X163655047Y-117207820D01*
X163655051Y-117207816D01*
X163751557Y-117018412D01*
X163817246Y-116816243D01*
X163850500Y-116606287D01*
X163850500Y-116393713D01*
X163817246Y-116183757D01*
X163751557Y-115981588D01*
X163655051Y-115792184D01*
X163655049Y-115792181D01*
X163655048Y-115792179D01*
X163530109Y-115620213D01*
X163379786Y-115469890D01*
X163207820Y-115344951D01*
X163018414Y-115248444D01*
X163018413Y-115248443D01*
X163018412Y-115248443D01*
X162816243Y-115182754D01*
X162816241Y-115182753D01*
X162816240Y-115182753D01*
X162654957Y-115157208D01*
X162606287Y-115149500D01*
X162393713Y-115149500D01*
X162345042Y-115157208D01*
X162183760Y-115182753D01*
X161981585Y-115248444D01*
X161792179Y-115344951D01*
X161620213Y-115469890D01*
X161469890Y-115620213D01*
X161344951Y-115792179D01*
X161248444Y-115981585D01*
X161182753Y-116183760D01*
X161149500Y-116393713D01*
X142089331Y-116393713D01*
X142040804Y-116298475D01*
X141939032Y-116158397D01*
X141816602Y-116035967D01*
X141676524Y-115934195D01*
X141522257Y-115855591D01*
X141357589Y-115802087D01*
X141357581Y-115802085D01*
X141350000Y-115800884D01*
X141350000Y-116869670D01*
X141330255Y-116849925D01*
X141244745Y-116800556D01*
X141149370Y-116775000D01*
X141050630Y-116775000D01*
X140955255Y-116800556D01*
X140869745Y-116849925D01*
X140850000Y-116869670D01*
X140850000Y-115800884D01*
X140849999Y-115800884D01*
X140842418Y-115802085D01*
X140842410Y-115802087D01*
X140677742Y-115855591D01*
X140523475Y-115934195D01*
X140383401Y-116035964D01*
X140275799Y-116143566D01*
X140214476Y-116177050D01*
X140144784Y-116172066D01*
X140088851Y-116130194D01*
X140082585Y-116120988D01*
X140042712Y-116056344D01*
X139918656Y-115932288D01*
X139769334Y-115840186D01*
X139602797Y-115785001D01*
X139602795Y-115785000D01*
X139500010Y-115774500D01*
X138699998Y-115774500D01*
X138699980Y-115774501D01*
X138597203Y-115785000D01*
X138597200Y-115785001D01*
X138430668Y-115840185D01*
X138430663Y-115840187D01*
X138281342Y-115932289D01*
X138157289Y-116056342D01*
X138065187Y-116205663D01*
X138065186Y-116205666D01*
X138010001Y-116372203D01*
X138010001Y-116372204D01*
X138010000Y-116372204D01*
X137999500Y-116474983D01*
X118850500Y-116474983D01*
X118850500Y-116393713D01*
X118817246Y-116183757D01*
X118751557Y-115981588D01*
X118655051Y-115792184D01*
X118655049Y-115792181D01*
X118655048Y-115792179D01*
X118530109Y-115620213D01*
X118379786Y-115469890D01*
X118207820Y-115344951D01*
X118018414Y-115248444D01*
X118018413Y-115248443D01*
X118018412Y-115248443D01*
X117816243Y-115182754D01*
X117816241Y-115182753D01*
X117816240Y-115182753D01*
X117654957Y-115157208D01*
X117606287Y-115149500D01*
X117393713Y-115149500D01*
X117345042Y-115157208D01*
X117183760Y-115182753D01*
X116981585Y-115248444D01*
X116792179Y-115344951D01*
X116620213Y-115469890D01*
X116469890Y-115620213D01*
X116344951Y-115792179D01*
X116248444Y-115981585D01*
X116182753Y-116183760D01*
X116149500Y-116393713D01*
X111000500Y-116393713D01*
X111000500Y-113621153D01*
X154099500Y-113621153D01*
X154099500Y-113778846D01*
X154130261Y-113933489D01*
X154130264Y-113933501D01*
X154190602Y-114079172D01*
X154190609Y-114079185D01*
X154278210Y-114210288D01*
X154278213Y-114210292D01*
X154389707Y-114321786D01*
X154389711Y-114321789D01*
X154520814Y-114409390D01*
X154520827Y-114409397D01*
X154666498Y-114469735D01*
X154666503Y-114469737D01*
X154821153Y-114500499D01*
X154821156Y-114500500D01*
X154821158Y-114500500D01*
X154978844Y-114500500D01*
X154978845Y-114500499D01*
X155133497Y-114469737D01*
X155279179Y-114409394D01*
X155373459Y-114346398D01*
X155440136Y-114325520D01*
X155442350Y-114325500D01*
X160557650Y-114325500D01*
X160624689Y-114345185D01*
X160626541Y-114346398D01*
X160720821Y-114409394D01*
X160720823Y-114409395D01*
X160720827Y-114409397D01*
X160866498Y-114469735D01*
X160866503Y-114469737D01*
X161021153Y-114500499D01*
X161021156Y-114500500D01*
X161021158Y-114500500D01*
X161178844Y-114500500D01*
X161178845Y-114500499D01*
X161333497Y-114469737D01*
X161479179Y-114409394D01*
X161610289Y-114321789D01*
X161721789Y-114210289D01*
X161809394Y-114079179D01*
X161869737Y-113933497D01*
X161900500Y-113778842D01*
X161900500Y-113621158D01*
X161900500Y-113621155D01*
X161900499Y-113621153D01*
X161869738Y-113466510D01*
X161869737Y-113466503D01*
X161820425Y-113347452D01*
X161812956Y-113277983D01*
X161820425Y-113252548D01*
X161836287Y-113214251D01*
X161869737Y-113133497D01*
X161900500Y-112978842D01*
X161900500Y-112821158D01*
X161900500Y-112821155D01*
X161900499Y-112821153D01*
X161898338Y-112810288D01*
X161869737Y-112666503D01*
X161869735Y-112666498D01*
X161809397Y-112520827D01*
X161809390Y-112520814D01*
X161721789Y-112389711D01*
X161721786Y-112389707D01*
X161610292Y-112278213D01*
X161610288Y-112278210D01*
X161479185Y-112190609D01*
X161479172Y-112190602D01*
X161333501Y-112130264D01*
X161333489Y-112130261D01*
X161222285Y-112108141D01*
X161160374Y-112075756D01*
X161158795Y-112074205D01*
X158961819Y-109877229D01*
X158928334Y-109815906D01*
X158925500Y-109789548D01*
X158925500Y-109042350D01*
X158945185Y-108975311D01*
X158946398Y-108973459D01*
X158946809Y-108972843D01*
X159009394Y-108879179D01*
X159069737Y-108733497D01*
X159100500Y-108578842D01*
X159100500Y-108421158D01*
X159100500Y-108421155D01*
X159100499Y-108421153D01*
X159069737Y-108266503D01*
X159020425Y-108147452D01*
X159012956Y-108077983D01*
X159020425Y-108052548D01*
X159044818Y-107993657D01*
X159069737Y-107933497D01*
X159100500Y-107778842D01*
X159100500Y-107621158D01*
X159100500Y-107621155D01*
X159100499Y-107621153D01*
X159069738Y-107466510D01*
X159069737Y-107466503D01*
X159009394Y-107320821D01*
X158946397Y-107226539D01*
X158925520Y-107159863D01*
X158925500Y-107157650D01*
X158925500Y-106224983D01*
X160099500Y-106224983D01*
X160099500Y-107575001D01*
X160099501Y-107575018D01*
X160110000Y-107677796D01*
X160110001Y-107677799D01*
X160143485Y-107778846D01*
X160165186Y-107844334D01*
X160257288Y-107993656D01*
X160381344Y-108117712D01*
X160530666Y-108209814D01*
X160697203Y-108264999D01*
X160799991Y-108275500D01*
X161600008Y-108275499D01*
X161600016Y-108275498D01*
X161600019Y-108275498D01*
X161656302Y-108269748D01*
X161702797Y-108264999D01*
X161869334Y-108209814D01*
X162018656Y-108117712D01*
X162142712Y-107993656D01*
X162182581Y-107929016D01*
X162234525Y-107882294D01*
X162303488Y-107871071D01*
X162367570Y-107898914D01*
X162375799Y-107906434D01*
X162483397Y-108014032D01*
X162623475Y-108115804D01*
X162777744Y-108194408D01*
X162942415Y-108247914D01*
X162942414Y-108247914D01*
X162949999Y-108249115D01*
X162950000Y-108249114D01*
X162950000Y-107180330D01*
X162969745Y-107200075D01*
X163055255Y-107249444D01*
X163150630Y-107275000D01*
X163249370Y-107275000D01*
X163344745Y-107249444D01*
X163430255Y-107200075D01*
X163450000Y-107180330D01*
X163450000Y-108249115D01*
X163457584Y-108247914D01*
X163622255Y-108194408D01*
X163776524Y-108115804D01*
X163916602Y-108014032D01*
X164039032Y-107891602D01*
X164140804Y-107751524D01*
X164219408Y-107597257D01*
X164272914Y-107432584D01*
X164300000Y-107261571D01*
X164300000Y-107150000D01*
X163480330Y-107150000D01*
X163500075Y-107130255D01*
X163549444Y-107044745D01*
X163575000Y-106949370D01*
X163575000Y-106850630D01*
X163549444Y-106755255D01*
X163500075Y-106669745D01*
X163480330Y-106650000D01*
X164300000Y-106650000D01*
X164300000Y-106538428D01*
X164272914Y-106367415D01*
X164219408Y-106202742D01*
X164140804Y-106048475D01*
X164039032Y-105908397D01*
X163916602Y-105785967D01*
X163776524Y-105684195D01*
X163622257Y-105605591D01*
X163457589Y-105552087D01*
X163457581Y-105552085D01*
X163450000Y-105550884D01*
X163450000Y-106619670D01*
X163430255Y-106599925D01*
X163344745Y-106550556D01*
X163249370Y-106525000D01*
X163150630Y-106525000D01*
X163055255Y-106550556D01*
X162969745Y-106599925D01*
X162950000Y-106619670D01*
X162950000Y-105550884D01*
X162949999Y-105550884D01*
X162942418Y-105552085D01*
X162942410Y-105552087D01*
X162777742Y-105605591D01*
X162623475Y-105684195D01*
X162483401Y-105785964D01*
X162375799Y-105893566D01*
X162314476Y-105927050D01*
X162244784Y-105922066D01*
X162188851Y-105880194D01*
X162182585Y-105870988D01*
X162142712Y-105806344D01*
X162018656Y-105682288D01*
X161869334Y-105590186D01*
X161702797Y-105535001D01*
X161702795Y-105535000D01*
X161600010Y-105524500D01*
X160799998Y-105524500D01*
X160799980Y-105524501D01*
X160697203Y-105535000D01*
X160697200Y-105535001D01*
X160530668Y-105590185D01*
X160530663Y-105590187D01*
X160381342Y-105682289D01*
X160257289Y-105806342D01*
X160165187Y-105955663D01*
X160165186Y-105955666D01*
X160110001Y-106122203D01*
X160110001Y-106122204D01*
X160110000Y-106122204D01*
X160099500Y-106224983D01*
X158925500Y-106224983D01*
X158925500Y-105942350D01*
X158945185Y-105875311D01*
X158946398Y-105873459D01*
X158948054Y-105870980D01*
X159009394Y-105779179D01*
X159069737Y-105633497D01*
X159100500Y-105478842D01*
X159100500Y-105321158D01*
X159100500Y-105321155D01*
X159100499Y-105321153D01*
X159069738Y-105166510D01*
X159069737Y-105166503D01*
X159069735Y-105166498D01*
X159009397Y-105020827D01*
X159009390Y-105020814D01*
X158921789Y-104889711D01*
X158921786Y-104889707D01*
X158810292Y-104778213D01*
X158810288Y-104778210D01*
X158679185Y-104690609D01*
X158679172Y-104690602D01*
X158533501Y-104630264D01*
X158533489Y-104630261D01*
X158378845Y-104599500D01*
X158378842Y-104599500D01*
X158221158Y-104599500D01*
X158221155Y-104599500D01*
X158066510Y-104630261D01*
X158066498Y-104630264D01*
X157920827Y-104690602D01*
X157920814Y-104690609D01*
X157789711Y-104778210D01*
X157789707Y-104778213D01*
X157678213Y-104889707D01*
X157678210Y-104889711D01*
X157590609Y-105020814D01*
X157590602Y-105020827D01*
X157530264Y-105166498D01*
X157530261Y-105166510D01*
X157499500Y-105321153D01*
X157499500Y-105478846D01*
X157530261Y-105633489D01*
X157530264Y-105633501D01*
X157590602Y-105779172D01*
X157590609Y-105779184D01*
X157653602Y-105873459D01*
X157674480Y-105940136D01*
X157674500Y-105942350D01*
X157674500Y-107157650D01*
X157654815Y-107224689D01*
X157653602Y-107226541D01*
X157590609Y-107320815D01*
X157590602Y-107320828D01*
X157530264Y-107466498D01*
X157530261Y-107466510D01*
X157499500Y-107621153D01*
X157499500Y-107778846D01*
X157530261Y-107933489D01*
X157530264Y-107933501D01*
X157579574Y-108052548D01*
X157587043Y-108122018D01*
X157579574Y-108147452D01*
X157530264Y-108266498D01*
X157530261Y-108266510D01*
X157499500Y-108421153D01*
X157499500Y-108578846D01*
X157530261Y-108733489D01*
X157530264Y-108733501D01*
X157590602Y-108879172D01*
X157590609Y-108879184D01*
X157653602Y-108973459D01*
X157674480Y-109040136D01*
X157674500Y-109042350D01*
X157674500Y-110161611D01*
X157698535Y-110282444D01*
X157698540Y-110282461D01*
X157745685Y-110396280D01*
X157745687Y-110396283D01*
X157745688Y-110396286D01*
X157779915Y-110447509D01*
X157814142Y-110498733D01*
X157901267Y-110585858D01*
X157901270Y-110585860D01*
X157908554Y-110593144D01*
X160178229Y-112862819D01*
X160211714Y-112924142D01*
X160206730Y-112993834D01*
X160164858Y-113049767D01*
X160099394Y-113074184D01*
X160090548Y-113074500D01*
X155442350Y-113074500D01*
X155375311Y-113054815D01*
X155373459Y-113053602D01*
X155279184Y-112990609D01*
X155279172Y-112990602D01*
X155133501Y-112930264D01*
X155133489Y-112930261D01*
X154978845Y-112899500D01*
X154978842Y-112899500D01*
X154821158Y-112899500D01*
X154821155Y-112899500D01*
X154666510Y-112930261D01*
X154666498Y-112930264D01*
X154520827Y-112990602D01*
X154520814Y-112990609D01*
X154389711Y-113078210D01*
X154389707Y-113078213D01*
X154278213Y-113189707D01*
X154278210Y-113189711D01*
X154190609Y-113320814D01*
X154190602Y-113320827D01*
X154130264Y-113466498D01*
X154130261Y-113466510D01*
X154099500Y-113621153D01*
X111000500Y-113621153D01*
X111000500Y-111221153D01*
X120999500Y-111221153D01*
X120999500Y-111378846D01*
X121030261Y-111533489D01*
X121030264Y-111533501D01*
X121090602Y-111679172D01*
X121090609Y-111679185D01*
X121178210Y-111810288D01*
X121178213Y-111810292D01*
X121289707Y-111921786D01*
X121289711Y-111921789D01*
X121420814Y-112009390D01*
X121420827Y-112009397D01*
X121528107Y-112053833D01*
X121566503Y-112069737D01*
X121690507Y-112094403D01*
X121721153Y-112100499D01*
X121721156Y-112100500D01*
X121721158Y-112100500D01*
X121878844Y-112100500D01*
X121878845Y-112100499D01*
X122033497Y-112069737D01*
X122179179Y-112009394D01*
X122273459Y-111946398D01*
X122340136Y-111925520D01*
X122342350Y-111925500D01*
X151222981Y-111925500D01*
X151272242Y-111935705D01*
X151282539Y-111940162D01*
X151303714Y-111954311D01*
X151417548Y-112001463D01*
X151429753Y-112003890D01*
X151441870Y-112009136D01*
X151458977Y-112023374D01*
X151478703Y-112033691D01*
X151485310Y-112045292D01*
X151495572Y-112053833D01*
X151502265Y-112075060D01*
X151513283Y-112094403D01*
X151513578Y-112110934D01*
X151516585Y-112120468D01*
X151513924Y-112130244D01*
X151514226Y-112147122D01*
X151499500Y-112221153D01*
X151499500Y-112378846D01*
X151530261Y-112533489D01*
X151530264Y-112533501D01*
X151590602Y-112679172D01*
X151590609Y-112679185D01*
X151678210Y-112810288D01*
X151678213Y-112810292D01*
X151789707Y-112921786D01*
X151789711Y-112921789D01*
X151920814Y-113009390D01*
X151920827Y-113009397D01*
X152066498Y-113069735D01*
X152066503Y-113069737D01*
X152221153Y-113100499D01*
X152221156Y-113100500D01*
X152221158Y-113100500D01*
X152378844Y-113100500D01*
X152378845Y-113100499D01*
X152533497Y-113069737D01*
X152679179Y-113009394D01*
X152810289Y-112921789D01*
X152921789Y-112810289D01*
X153009394Y-112679179D01*
X153069737Y-112533497D01*
X153100500Y-112378842D01*
X153100500Y-112221158D01*
X153100500Y-112221155D01*
X153100499Y-112221153D01*
X153078019Y-112108141D01*
X153069737Y-112066503D01*
X153023266Y-111954311D01*
X153009397Y-111920827D01*
X153009390Y-111920814D01*
X152921398Y-111789125D01*
X152900520Y-111722447D01*
X152900500Y-111720234D01*
X152900500Y-86500096D01*
X152920185Y-86433057D01*
X152936814Y-86412420D01*
X156568713Y-82780521D01*
X156568716Y-82780520D01*
X156680520Y-82668716D01*
X156730639Y-82581904D01*
X156759577Y-82531785D01*
X156800501Y-82379057D01*
X156800501Y-82220943D01*
X156800501Y-82213348D01*
X156800500Y-82213330D01*
X156800500Y-78482940D01*
X156820185Y-78415901D01*
X156836814Y-78395263D01*
X156921789Y-78310289D01*
X157009394Y-78179179D01*
X157069737Y-78033497D01*
X157087908Y-77942147D01*
X157096231Y-77900308D01*
X157110945Y-77872177D01*
X157124135Y-77843297D01*
X157127024Y-77841440D01*
X157128616Y-77838397D01*
X157156208Y-77822684D01*
X157182913Y-77805523D01*
X157187506Y-77804862D01*
X157189332Y-77803823D01*
X157217848Y-77800500D01*
X157400399Y-77800500D01*
X157467438Y-77820185D01*
X157513193Y-77872989D01*
X157523137Y-77942147D01*
X157505938Y-77989594D01*
X157494337Y-78008404D01*
X157465187Y-78055663D01*
X157465185Y-78055668D01*
X157448014Y-78107488D01*
X157410001Y-78222203D01*
X157410001Y-78222204D01*
X157410000Y-78222204D01*
X157399500Y-78324983D01*
X157399500Y-79675001D01*
X157399501Y-79675018D01*
X157410000Y-79777796D01*
X157410001Y-79777799D01*
X157465185Y-79944331D01*
X157465187Y-79944336D01*
X157488870Y-79982732D01*
X157557288Y-80093656D01*
X157681344Y-80217712D01*
X157830666Y-80309814D01*
X157997203Y-80364999D01*
X158099991Y-80375500D01*
X158900008Y-80375499D01*
X158900016Y-80375498D01*
X158900019Y-80375498D01*
X158956302Y-80369748D01*
X159002797Y-80364999D01*
X159169334Y-80309814D01*
X159318656Y-80217712D01*
X159442712Y-80093656D01*
X159482310Y-80029456D01*
X159534258Y-79982732D01*
X159603220Y-79971509D01*
X159667303Y-79999352D01*
X159675530Y-80006872D01*
X159783072Y-80114414D01*
X159923212Y-80216232D01*
X160077555Y-80294873D01*
X160242299Y-80348402D01*
X160413389Y-80375500D01*
X160413390Y-80375500D01*
X160586610Y-80375500D01*
X160586611Y-80375500D01*
X160757701Y-80348402D01*
X160922445Y-80294873D01*
X161076788Y-80216232D01*
X161216928Y-80114414D01*
X161339414Y-79991928D01*
X161399991Y-79908550D01*
X161455321Y-79865885D01*
X161524934Y-79859906D01*
X161586729Y-79892512D01*
X161600628Y-79908551D01*
X161660967Y-79991602D01*
X161783397Y-80114032D01*
X161923475Y-80215804D01*
X162077744Y-80294408D01*
X162242415Y-80347914D01*
X162242414Y-80347914D01*
X162249999Y-80349115D01*
X162250000Y-80349114D01*
X162250000Y-79280330D01*
X162269745Y-79300075D01*
X162355255Y-79349444D01*
X162450630Y-79375000D01*
X162549370Y-79375000D01*
X162644745Y-79349444D01*
X162730255Y-79300075D01*
X162750000Y-79280330D01*
X162750000Y-80349115D01*
X162757584Y-80347914D01*
X162922255Y-80294408D01*
X163076524Y-80215804D01*
X163216602Y-80114032D01*
X163339032Y-79991602D01*
X163440804Y-79851524D01*
X163519408Y-79697257D01*
X163572914Y-79532584D01*
X163600000Y-79361571D01*
X163600000Y-79250000D01*
X162780330Y-79250000D01*
X162800075Y-79230255D01*
X162849444Y-79144745D01*
X162875000Y-79049370D01*
X162875000Y-78950630D01*
X162849444Y-78855255D01*
X162800075Y-78769745D01*
X162780330Y-78750000D01*
X163600000Y-78750000D01*
X163600000Y-78638428D01*
X163572914Y-78467415D01*
X163519408Y-78302742D01*
X163440804Y-78148475D01*
X163339032Y-78008397D01*
X163216602Y-77885967D01*
X163076524Y-77784195D01*
X162922257Y-77705591D01*
X162757589Y-77652087D01*
X162757581Y-77652085D01*
X162750000Y-77650884D01*
X162750000Y-78719670D01*
X162730255Y-78699925D01*
X162644745Y-78650556D01*
X162549370Y-78625000D01*
X162450630Y-78625000D01*
X162355255Y-78650556D01*
X162269745Y-78699925D01*
X162250000Y-78719670D01*
X162250000Y-77650884D01*
X162249999Y-77650884D01*
X162242418Y-77652085D01*
X162242410Y-77652087D01*
X162077742Y-77705591D01*
X161923475Y-77784195D01*
X161783397Y-77885967D01*
X161660965Y-78008399D01*
X161660961Y-78008404D01*
X161600627Y-78091448D01*
X161545297Y-78134114D01*
X161475684Y-78140093D01*
X161413889Y-78107488D01*
X161399991Y-78091449D01*
X161399990Y-78091448D01*
X161339414Y-78008072D01*
X161216928Y-77885586D01*
X161126912Y-77820185D01*
X161076786Y-77783766D01*
X161073617Y-77782152D01*
X161022821Y-77734178D01*
X161006025Y-77666357D01*
X161026809Y-77602776D01*
X161109390Y-77479185D01*
X161109390Y-77479184D01*
X161109394Y-77479179D01*
X161169737Y-77333497D01*
X161200500Y-77178842D01*
X161200500Y-77021158D01*
X161200500Y-77021155D01*
X161200499Y-77021153D01*
X161189628Y-76966502D01*
X161169737Y-76866503D01*
X161150812Y-76820814D01*
X161109397Y-76720827D01*
X161109390Y-76720814D01*
X161021789Y-76589711D01*
X161021786Y-76589707D01*
X160910292Y-76478213D01*
X160910288Y-76478210D01*
X160779185Y-76390609D01*
X160779172Y-76390602D01*
X160633501Y-76330264D01*
X160633489Y-76330261D01*
X160478845Y-76299500D01*
X160478842Y-76299500D01*
X160321158Y-76299500D01*
X160321155Y-76299500D01*
X160166510Y-76330261D01*
X160166498Y-76330264D01*
X160020827Y-76390602D01*
X160020814Y-76390609D01*
X159889711Y-76478210D01*
X159889707Y-76478213D01*
X159854742Y-76513180D01*
X159793420Y-76546666D01*
X159767060Y-76549500D01*
X146824500Y-76549500D01*
X146757461Y-76529815D01*
X146711706Y-76477011D01*
X146700500Y-76425500D01*
X146700500Y-76421155D01*
X146700499Y-76421153D01*
X146682419Y-76330261D01*
X146669737Y-76266503D01*
X146609394Y-76120821D01*
X146546397Y-76026539D01*
X146525520Y-75959863D01*
X146525500Y-75957650D01*
X146525500Y-69638398D01*
X146525500Y-69638394D01*
X146525191Y-69636845D01*
X146524318Y-69632451D01*
X146524316Y-69632444D01*
X146515816Y-69589711D01*
X146501463Y-69517548D01*
X146454311Y-69403714D01*
X146454310Y-69403713D01*
X146454307Y-69403707D01*
X146385859Y-69301268D01*
X146379537Y-69294946D01*
X146325791Y-69241200D01*
X146292308Y-69179880D01*
X146291886Y-69177859D01*
X146269737Y-69066503D01*
X146216021Y-68936819D01*
X146209397Y-68920827D01*
X146209390Y-68920814D01*
X146121789Y-68789711D01*
X146121786Y-68789707D01*
X146010291Y-68678212D01*
X145998745Y-68670497D01*
X145982205Y-68659445D01*
X145937401Y-68605835D01*
X145928692Y-68536510D01*
X145958847Y-68473482D01*
X145963396Y-68468681D01*
X146021789Y-68410289D01*
X146109394Y-68279179D01*
X146169737Y-68133497D01*
X146200500Y-67978842D01*
X146200500Y-67821158D01*
X146200500Y-67821155D01*
X146200499Y-67821153D01*
X146169738Y-67666510D01*
X146169737Y-67666503D01*
X146169735Y-67666498D01*
X146109397Y-67520827D01*
X146109390Y-67520814D01*
X146021789Y-67389711D01*
X146021786Y-67389707D01*
X145910292Y-67278213D01*
X145910288Y-67278210D01*
X145779185Y-67190609D01*
X145779172Y-67190602D01*
X145633501Y-67130264D01*
X145633489Y-67130261D01*
X145522285Y-67108141D01*
X145460374Y-67075756D01*
X145458795Y-67074205D01*
X142793150Y-64408560D01*
X142785860Y-64401270D01*
X142785858Y-64401267D01*
X142698733Y-64314142D01*
X142647509Y-64279915D01*
X142596286Y-64245688D01*
X142596283Y-64245686D01*
X142596280Y-64245685D01*
X142522603Y-64215168D01*
X142522601Y-64215167D01*
X142515792Y-64212347D01*
X142482452Y-64198537D01*
X142422029Y-64186518D01*
X142417306Y-64185578D01*
X142417304Y-64185578D01*
X142361610Y-64174500D01*
X142361607Y-64174500D01*
X142361606Y-64174500D01*
X129442350Y-64174500D01*
X129375311Y-64154815D01*
X129373459Y-64153602D01*
X129279184Y-64090609D01*
X129279172Y-64090602D01*
X129133501Y-64030264D01*
X129133489Y-64030261D01*
X128978845Y-63999500D01*
X128978842Y-63999500D01*
X128821158Y-63999500D01*
X128821155Y-63999500D01*
X128666510Y-64030261D01*
X128666498Y-64030264D01*
X128520827Y-64090602D01*
X128520814Y-64090609D01*
X128389711Y-64178210D01*
X128389707Y-64178213D01*
X128278213Y-64289707D01*
X128278210Y-64289711D01*
X128190609Y-64420814D01*
X128190602Y-64420827D01*
X128130264Y-64566498D01*
X128130261Y-64566510D01*
X128099500Y-64721153D01*
X128099500Y-64878846D01*
X128130261Y-65033489D01*
X128130264Y-65033501D01*
X128190602Y-65179172D01*
X128190609Y-65179185D01*
X128278210Y-65310288D01*
X128278213Y-65310292D01*
X128389707Y-65421786D01*
X128389711Y-65421789D01*
X128520814Y-65509390D01*
X128520827Y-65509397D01*
X128666498Y-65569735D01*
X128666503Y-65569737D01*
X128821153Y-65600499D01*
X128821156Y-65600500D01*
X128821158Y-65600500D01*
X128978844Y-65600500D01*
X128978845Y-65600499D01*
X129133497Y-65569737D01*
X129279179Y-65509394D01*
X129373459Y-65446398D01*
X129440136Y-65425520D01*
X129442350Y-65425500D01*
X141989548Y-65425500D01*
X142056587Y-65445185D01*
X142077229Y-65461819D01*
X144574205Y-67958795D01*
X144607690Y-68020118D01*
X144608141Y-68022285D01*
X144630261Y-68133489D01*
X144630264Y-68133501D01*
X144690602Y-68279172D01*
X144690608Y-68279183D01*
X144709504Y-68307463D01*
X144730381Y-68374141D01*
X144711896Y-68441521D01*
X144659917Y-68488210D01*
X144626953Y-68497412D01*
X144627132Y-68498311D01*
X144466510Y-68530261D01*
X144466498Y-68530264D01*
X144322450Y-68589930D01*
X144252980Y-68597399D01*
X144227546Y-68589930D01*
X144083498Y-68530264D01*
X144083486Y-68530261D01*
X143928842Y-68499500D01*
X143928839Y-68499500D01*
X143771155Y-68499500D01*
X143771152Y-68499500D01*
X143616507Y-68530261D01*
X143616495Y-68530264D01*
X143497449Y-68579574D01*
X143427979Y-68587043D01*
X143402545Y-68579574D01*
X143283498Y-68530264D01*
X143283486Y-68530261D01*
X143128842Y-68499500D01*
X143128839Y-68499500D01*
X142971155Y-68499500D01*
X142971152Y-68499500D01*
X142816507Y-68530261D01*
X142816495Y-68530264D01*
X142670824Y-68590602D01*
X142670811Y-68590609D01*
X142539708Y-68678210D01*
X142539704Y-68678213D01*
X142428210Y-68789707D01*
X142428207Y-68789711D01*
X142340606Y-68920814D01*
X142340599Y-68920827D01*
X142280261Y-69066498D01*
X142280258Y-69066510D01*
X142249497Y-69221153D01*
X142249497Y-69378846D01*
X142280258Y-69533489D01*
X142280261Y-69533501D01*
X142340599Y-69679172D01*
X142340606Y-69679185D01*
X142428207Y-69810288D01*
X142428210Y-69810292D01*
X142538181Y-69920263D01*
X142571666Y-69981586D01*
X142574500Y-70007944D01*
X142574500Y-76100236D01*
X142565061Y-76147688D01*
X142544257Y-76197912D01*
X142544254Y-76197922D01*
X142513494Y-76352564D01*
X142513494Y-76425500D01*
X142493809Y-76492539D01*
X142441005Y-76538294D01*
X142389494Y-76549500D01*
X141985452Y-76549500D01*
X141918413Y-76529815D01*
X141897771Y-76513181D01*
X136693150Y-71308560D01*
X136685860Y-71301270D01*
X136685858Y-71301267D01*
X136598733Y-71214142D01*
X136547509Y-71179915D01*
X136496286Y-71145688D01*
X136496283Y-71145686D01*
X136496280Y-71145685D01*
X136423658Y-71115605D01*
X136423657Y-71115604D01*
X136415792Y-71112347D01*
X136382452Y-71098537D01*
X136285130Y-71079179D01*
X136281532Y-71078463D01*
X136281531Y-71078463D01*
X136274160Y-71076997D01*
X136261607Y-71074500D01*
X136261606Y-71074500D01*
X133342350Y-71074500D01*
X133275311Y-71054815D01*
X133273459Y-71053602D01*
X133179184Y-70990609D01*
X133179172Y-70990602D01*
X133033501Y-70930264D01*
X133033489Y-70930261D01*
X132878845Y-70899500D01*
X132878842Y-70899500D01*
X132721158Y-70899500D01*
X132721155Y-70899500D01*
X132566510Y-70930261D01*
X132566498Y-70930264D01*
X132420827Y-70990602D01*
X132420814Y-70990609D01*
X132289711Y-71078210D01*
X132289707Y-71078213D01*
X132178213Y-71189707D01*
X132178210Y-71189711D01*
X132090609Y-71320814D01*
X132090602Y-71320827D01*
X132030264Y-71466498D01*
X132030261Y-71466510D01*
X131999500Y-71621153D01*
X131999500Y-71778846D01*
X132030261Y-71933489D01*
X132030264Y-71933501D01*
X132090602Y-72079172D01*
X132090609Y-72079185D01*
X132178210Y-72210288D01*
X132178213Y-72210292D01*
X132289707Y-72321786D01*
X132289711Y-72321789D01*
X132420814Y-72409390D01*
X132420827Y-72409397D01*
X132558683Y-72466498D01*
X132566503Y-72469737D01*
X132712270Y-72498732D01*
X132721153Y-72500499D01*
X132721156Y-72500500D01*
X132721158Y-72500500D01*
X132878844Y-72500500D01*
X132878845Y-72500499D01*
X133033497Y-72469737D01*
X133179179Y-72409394D01*
X133273459Y-72346398D01*
X133340136Y-72325520D01*
X133342350Y-72325500D01*
X135889548Y-72325500D01*
X135956587Y-72345185D01*
X135977229Y-72361819D01*
X141186016Y-77570606D01*
X141186045Y-77570637D01*
X141276263Y-77660855D01*
X141276267Y-77660858D01*
X141378707Y-77729307D01*
X141378713Y-77729310D01*
X141378714Y-77729311D01*
X141492548Y-77776463D01*
X141529274Y-77783768D01*
X141613391Y-77800499D01*
X141613392Y-77800500D01*
X141613393Y-77800500D01*
X141613394Y-77800500D01*
X155382152Y-77800500D01*
X155449191Y-77820185D01*
X155494946Y-77872989D01*
X155503769Y-77900308D01*
X155530261Y-78033491D01*
X155530264Y-78033501D01*
X155590061Y-78177864D01*
X155599500Y-78225316D01*
X155599500Y-80775500D01*
X155579815Y-80842539D01*
X155527011Y-80888294D01*
X155475500Y-80899500D01*
X155421155Y-80899500D01*
X155266510Y-80930261D01*
X155266498Y-80930264D01*
X155120827Y-80990602D01*
X155120814Y-80990609D01*
X154989711Y-81078210D01*
X154989707Y-81078213D01*
X154878213Y-81189707D01*
X154878210Y-81189711D01*
X154790609Y-81320814D01*
X154790602Y-81320827D01*
X154730264Y-81466498D01*
X154730261Y-81466508D01*
X154708141Y-81577714D01*
X154675756Y-81639625D01*
X154674205Y-81641203D01*
X152515909Y-83799500D01*
X151201270Y-85114139D01*
X151201267Y-85114142D01*
X151157704Y-85157704D01*
X151114142Y-85201266D01*
X151083203Y-85247569D01*
X151083192Y-85247586D01*
X151081246Y-85250500D01*
X151045688Y-85303714D01*
X151038463Y-85321158D01*
X151035145Y-85329166D01*
X151035145Y-85329168D01*
X151005600Y-85400499D01*
X151001871Y-85409501D01*
X150998538Y-85417546D01*
X150998534Y-85417559D01*
X150981741Y-85501988D01*
X150974500Y-85538389D01*
X150974500Y-110550500D01*
X150954815Y-110617539D01*
X150902011Y-110663294D01*
X150850500Y-110674500D01*
X122342350Y-110674500D01*
X122275311Y-110654815D01*
X122273459Y-110653602D01*
X122179184Y-110590609D01*
X122179172Y-110590602D01*
X122033501Y-110530264D01*
X122033489Y-110530261D01*
X121878845Y-110499500D01*
X121878842Y-110499500D01*
X121721158Y-110499500D01*
X121721155Y-110499500D01*
X121566510Y-110530261D01*
X121566498Y-110530264D01*
X121420827Y-110590602D01*
X121420814Y-110590609D01*
X121289711Y-110678210D01*
X121289707Y-110678213D01*
X121178213Y-110789707D01*
X121178210Y-110789711D01*
X121090609Y-110920814D01*
X121090602Y-110920827D01*
X121030264Y-111066498D01*
X121030261Y-111066510D01*
X120999500Y-111221153D01*
X111000500Y-111221153D01*
X111000500Y-82636108D01*
X113699500Y-82636108D01*
X113699500Y-82767892D01*
X113705618Y-82790726D01*
X113733608Y-82895187D01*
X113742329Y-82910292D01*
X113799500Y-83009314D01*
X113892686Y-83102500D01*
X114006814Y-83168392D01*
X114134108Y-83202500D01*
X114134110Y-83202500D01*
X114265890Y-83202500D01*
X114265892Y-83202500D01*
X114393186Y-83168392D01*
X114507314Y-83102500D01*
X114600500Y-83009314D01*
X114666392Y-82895186D01*
X114700500Y-82767892D01*
X114700500Y-82636108D01*
X114666392Y-82508814D01*
X114600500Y-82394686D01*
X114507314Y-82301500D01*
X114450250Y-82268554D01*
X114393187Y-82235608D01*
X114329539Y-82218554D01*
X114265892Y-82201500D01*
X114134108Y-82201500D01*
X114006812Y-82235608D01*
X113892686Y-82301500D01*
X113892683Y-82301502D01*
X113799502Y-82394683D01*
X113799500Y-82394686D01*
X113733608Y-82508812D01*
X113727453Y-82531785D01*
X113699500Y-82636108D01*
X111000500Y-82636108D01*
X111000500Y-77121153D01*
X114299500Y-77121153D01*
X114299500Y-77278846D01*
X114330261Y-77433489D01*
X114330264Y-77433501D01*
X114390602Y-77579172D01*
X114390609Y-77579185D01*
X114478210Y-77710288D01*
X114478213Y-77710292D01*
X114589707Y-77821786D01*
X114589711Y-77821789D01*
X114720814Y-77909390D01*
X114720827Y-77909397D01*
X114799894Y-77942147D01*
X114866503Y-77969737D01*
X114977716Y-77991858D01*
X115039623Y-78024241D01*
X115041203Y-78025793D01*
X115438181Y-78422771D01*
X115471666Y-78484094D01*
X115474500Y-78510452D01*
X115474500Y-81767059D01*
X115454815Y-81834098D01*
X115438181Y-81854740D01*
X115403213Y-81889707D01*
X115403210Y-81889711D01*
X115315609Y-82020814D01*
X115315602Y-82020827D01*
X115255264Y-82166498D01*
X115255261Y-82166510D01*
X115224500Y-82321153D01*
X115224500Y-82478846D01*
X115255261Y-82633489D01*
X115255264Y-82633501D01*
X115315602Y-82779172D01*
X115315609Y-82779185D01*
X115403210Y-82910288D01*
X115403213Y-82910292D01*
X115514707Y-83021786D01*
X115514711Y-83021789D01*
X115645814Y-83109390D01*
X115645827Y-83109397D01*
X115788253Y-83168391D01*
X115791503Y-83169737D01*
X115946153Y-83200499D01*
X115946156Y-83200500D01*
X115946158Y-83200500D01*
X116103844Y-83200500D01*
X116103845Y-83200499D01*
X116258497Y-83169737D01*
X116404179Y-83109394D01*
X116535289Y-83021789D01*
X116646789Y-82910289D01*
X116734394Y-82779179D01*
X116794737Y-82633497D01*
X116825500Y-82478842D01*
X116825500Y-82321158D01*
X116825500Y-82321155D01*
X116825499Y-82321153D01*
X116804055Y-82213348D01*
X116794737Y-82166503D01*
X116734939Y-82022136D01*
X116725500Y-81974684D01*
X116725500Y-78267741D01*
X116725501Y-78267720D01*
X116725501Y-78138391D01*
X116701464Y-78017555D01*
X116701463Y-78017549D01*
X116654312Y-77903715D01*
X116585858Y-77801267D01*
X116585855Y-77801263D01*
X115925793Y-77141203D01*
X115892308Y-77079880D01*
X115891887Y-77077864D01*
X115869737Y-76966503D01*
X115815809Y-76836308D01*
X115809397Y-76820827D01*
X115809390Y-76820814D01*
X115721789Y-76689711D01*
X115721786Y-76689707D01*
X115610292Y-76578213D01*
X115610288Y-76578210D01*
X115479185Y-76490609D01*
X115479172Y-76490602D01*
X115333501Y-76430264D01*
X115333489Y-76430261D01*
X115178845Y-76399500D01*
X115178842Y-76399500D01*
X115021158Y-76399500D01*
X115021155Y-76399500D01*
X114866510Y-76430261D01*
X114866498Y-76430264D01*
X114720827Y-76490602D01*
X114720814Y-76490609D01*
X114589711Y-76578210D01*
X114589707Y-76578213D01*
X114478213Y-76689707D01*
X114478210Y-76689711D01*
X114390609Y-76820814D01*
X114390602Y-76820827D01*
X114330264Y-76966498D01*
X114330261Y-76966510D01*
X114299500Y-77121153D01*
X111000500Y-77121153D01*
X111000500Y-58746987D01*
X111005890Y-58728630D01*
X111006301Y-58709504D01*
X111015530Y-58695798D01*
X111020185Y-58679948D01*
X111034640Y-58667421D01*
X111045329Y-58651551D01*
X111060504Y-58645010D01*
X111072989Y-58634193D01*
X111091922Y-58631470D01*
X111109494Y-58623898D01*
X111140021Y-58624554D01*
X111142147Y-58624249D01*
X111144746Y-58624651D01*
X111236529Y-58639867D01*
X111249539Y-58642751D01*
X111255653Y-58644454D01*
X111255658Y-58644457D01*
X111313763Y-58652703D01*
X111316496Y-58653124D01*
X111374380Y-58662721D01*
X111374387Y-58662720D01*
X111380715Y-58662932D01*
X111394005Y-58664093D01*
X111681674Y-58704926D01*
X111687405Y-58707205D01*
X111746802Y-58714170D01*
X111806043Y-58722579D01*
X111806050Y-58722578D01*
X111813046Y-58722648D01*
X111826238Y-58723485D01*
X112100202Y-58755612D01*
X112106230Y-58757835D01*
X112165540Y-58763274D01*
X112224708Y-58770213D01*
X112224715Y-58770211D01*
X112232417Y-58770103D01*
X112245494Y-58770607D01*
X112501939Y-58794127D01*
X112508277Y-58796276D01*
X112567467Y-58800136D01*
X112626512Y-58805552D01*
X112626519Y-58805550D01*
X112634635Y-58805231D01*
X112634669Y-58806099D01*
X112647735Y-58805372D01*
X112891474Y-58821270D01*
X112898126Y-58823325D01*
X112957097Y-58825551D01*
X113016028Y-58829395D01*
X113016035Y-58829393D01*
X113024146Y-58828860D01*
X113024197Y-58829641D01*
X113037455Y-58828584D01*
X113053200Y-58829178D01*
X113265462Y-58837191D01*
X113272445Y-58839132D01*
X113331226Y-58839674D01*
X113389917Y-58841890D01*
X113389923Y-58841888D01*
X113398017Y-58841133D01*
X113398085Y-58841864D01*
X113411507Y-58840415D01*
X113627923Y-58842412D01*
X113635237Y-58844213D01*
X113693698Y-58843019D01*
X113752170Y-58843559D01*
X113752175Y-58843557D01*
X113760238Y-58842572D01*
X113760321Y-58843253D01*
X113773918Y-58841380D01*
X113976078Y-58837254D01*
X113983726Y-58838889D01*
X114041816Y-58835912D01*
X114100010Y-58834724D01*
X114100013Y-58834722D01*
X114108051Y-58833498D01*
X114108146Y-58834124D01*
X114121899Y-58831808D01*
X114299004Y-58822732D01*
X114313300Y-58821999D01*
X114321293Y-58823443D01*
X114378981Y-58818633D01*
X114436799Y-58815671D01*
X114436802Y-58815669D01*
X114444793Y-58814199D01*
X114444898Y-58814771D01*
X114458794Y-58811979D01*
X114637423Y-58797089D01*
X114645754Y-58798310D01*
X114702957Y-58791626D01*
X114760360Y-58786841D01*
X114760363Y-58786840D01*
X114768301Y-58785114D01*
X114768413Y-58785632D01*
X114782426Y-58782340D01*
X114951155Y-58762626D01*
X114959824Y-58763594D01*
X115016472Y-58754994D01*
X115073385Y-58748345D01*
X115073388Y-58748344D01*
X115081264Y-58746356D01*
X115081381Y-58746822D01*
X115095491Y-58742998D01*
X115252942Y-58719098D01*
X115261934Y-58719780D01*
X115317943Y-58709231D01*
X115374316Y-58700674D01*
X115374321Y-58700672D01*
X115382129Y-58698414D01*
X115382248Y-58698826D01*
X115396430Y-58694448D01*
X115544794Y-58666507D01*
X115554106Y-58666870D01*
X115609416Y-58654336D01*
X115665143Y-58643841D01*
X115665153Y-58643835D01*
X115672865Y-58641306D01*
X115672983Y-58641667D01*
X115687205Y-58636708D01*
X115825806Y-58605301D01*
X115835411Y-58605312D01*
X115889915Y-58590773D01*
X115944961Y-58578300D01*
X115944969Y-58578295D01*
X115952587Y-58575483D01*
X115952702Y-58575795D01*
X115966939Y-58570227D01*
X116097246Y-58535470D01*
X116107128Y-58535097D01*
X116160766Y-58518527D01*
X116215021Y-58504056D01*
X116215023Y-58504054D01*
X116215026Y-58504054D01*
X116222542Y-58500951D01*
X116222651Y-58501215D01*
X116236849Y-58495024D01*
X116358868Y-58457332D01*
X116368997Y-58456543D01*
X116421690Y-58437926D01*
X116475077Y-58421435D01*
X116475083Y-58421430D01*
X116482468Y-58418041D01*
X116482568Y-58418260D01*
X116496694Y-58411427D01*
X116611194Y-58370974D01*
X116621538Y-58369740D01*
X116673183Y-58349074D01*
X116725630Y-58330545D01*
X116725638Y-58330538D01*
X116732875Y-58326859D01*
X116732966Y-58327038D01*
X116746974Y-58319546D01*
X116854643Y-58276463D01*
X116865156Y-58274759D01*
X116915675Y-58252042D01*
X116967107Y-58231462D01*
X116967116Y-58231455D01*
X116974194Y-58227482D01*
X116974274Y-58227625D01*
X116988112Y-58219468D01*
X117088962Y-58174120D01*
X117099612Y-58171922D01*
X117148919Y-58147159D01*
X117199237Y-58124534D01*
X117199242Y-58124529D01*
X117206149Y-58120263D01*
X117206216Y-58120372D01*
X117219836Y-58111545D01*
X117315241Y-58063634D01*
X117325967Y-58060928D01*
X117373988Y-58034132D01*
X117423125Y-58009456D01*
X117423128Y-58009452D01*
X117429849Y-58004892D01*
X117429904Y-58004973D01*
X117443251Y-57995483D01*
X117482639Y-57973504D01*
X117537370Y-57942964D01*
X117553392Y-57937769D01*
X117594718Y-57910964D01*
X117598871Y-57908647D01*
X117609692Y-57902609D01*
X117637741Y-57886958D01*
X117641105Y-57883690D01*
X117660009Y-57868616D01*
X117942719Y-57685251D01*
X117963770Y-57676252D01*
X117997795Y-57649528D01*
X118034082Y-57625993D01*
X118042270Y-57616908D01*
X118057770Y-57602422D01*
X118321787Y-57395065D01*
X118342130Y-57384077D01*
X118373404Y-57354525D01*
X118407243Y-57327949D01*
X118414758Y-57317922D01*
X118428811Y-57302171D01*
X118670092Y-57074185D01*
X118689319Y-57061412D01*
X118717802Y-57029104D01*
X118749105Y-56999527D01*
X118755643Y-56988906D01*
X118768222Y-56971915D01*
X118796307Y-56940060D01*
X118988163Y-56722448D01*
X119005927Y-56708191D01*
X119031569Y-56673215D01*
X119060252Y-56640683D01*
X119065634Y-56629840D01*
X119076690Y-56611673D01*
X119276243Y-56339494D01*
X119292295Y-56324112D01*
X119315057Y-56286555D01*
X119341021Y-56251142D01*
X119345156Y-56240505D01*
X119354679Y-56221178D01*
X119534343Y-55924739D01*
X119548540Y-55908614D01*
X119568368Y-55868599D01*
X119591514Y-55830410D01*
X119594442Y-55820341D01*
X119602395Y-55799929D01*
X119762221Y-55477397D01*
X119774518Y-55460904D01*
X119791366Y-55418581D01*
X119811597Y-55377755D01*
X119813438Y-55368591D01*
X119819800Y-55347153D01*
X119926894Y-55078136D01*
X119969978Y-55023132D01*
X120035961Y-55000152D01*
X120042101Y-55000000D01*
X129761452Y-55000000D01*
X129828491Y-55019685D01*
G37*
%TD.AperFunction*%
%TD*%
M02*
