%TF.GenerationSoftware,KiCad,Pcbnew,10.0.2*%
%TF.CreationDate,2026-05-09T23:15:20-04:00*%
%TF.ProjectId,smart-doorbell,736d6172-742d-4646-9f6f-7262656c6c2e,rev?*%
%TF.SameCoordinates,Original*%
%TF.FileFunction,Legend,Top*%
%TF.FilePolarity,Positive*%
%FSLAX46Y46*%
G04 Gerber Fmt 4.6, Leading zero omitted, Abs format (unit mm)*
G04 Created by KiCad (PCBNEW 10.0.2) date 2026-05-09 23:15:20*
%MOMM*%
%LPD*%
G01*
G04 APERTURE LIST*
%ADD10C,0.125000*%
%ADD11C,0.250000*%
%ADD12C,0.150000*%
%ADD13C,0.120000*%
G04 APERTURE END LIST*
D10*
X116425093Y-93595595D02*
X116577474Y-93595595D01*
X116577474Y-93595595D02*
X116653664Y-93633690D01*
X116653664Y-93633690D02*
X116729855Y-93709880D01*
X116729855Y-93709880D02*
X116767950Y-93862261D01*
X116767950Y-93862261D02*
X116767950Y-94128928D01*
X116767950Y-94128928D02*
X116729855Y-94281309D01*
X116729855Y-94281309D02*
X116653664Y-94357500D01*
X116653664Y-94357500D02*
X116577474Y-94395595D01*
X116577474Y-94395595D02*
X116425093Y-94395595D01*
X116425093Y-94395595D02*
X116348902Y-94357500D01*
X116348902Y-94357500D02*
X116272712Y-94281309D01*
X116272712Y-94281309D02*
X116234616Y-94128928D01*
X116234616Y-94128928D02*
X116234616Y-93862261D01*
X116234616Y-93862261D02*
X116272712Y-93709880D01*
X116272712Y-93709880D02*
X116348902Y-93633690D01*
X116348902Y-93633690D02*
X116425093Y-93595595D01*
X117110807Y-93595595D02*
X117110807Y-94243214D01*
X117110807Y-94243214D02*
X117148902Y-94319404D01*
X117148902Y-94319404D02*
X117186997Y-94357500D01*
X117186997Y-94357500D02*
X117263188Y-94395595D01*
X117263188Y-94395595D02*
X117415569Y-94395595D01*
X117415569Y-94395595D02*
X117491759Y-94357500D01*
X117491759Y-94357500D02*
X117529854Y-94319404D01*
X117529854Y-94319404D02*
X117567950Y-94243214D01*
X117567950Y-94243214D02*
X117567950Y-93595595D01*
X117834616Y-93595595D02*
X118291759Y-93595595D01*
X118063187Y-94395595D02*
X118063187Y-93595595D01*
X118558426Y-94395595D02*
X118558426Y-93595595D01*
X118558426Y-93595595D02*
X118863188Y-93595595D01*
X118863188Y-93595595D02*
X118939378Y-93633690D01*
X118939378Y-93633690D02*
X118977473Y-93671785D01*
X118977473Y-93671785D02*
X119015569Y-93747976D01*
X119015569Y-93747976D02*
X119015569Y-93862261D01*
X119015569Y-93862261D02*
X118977473Y-93938452D01*
X118977473Y-93938452D02*
X118939378Y-93976547D01*
X118939378Y-93976547D02*
X118863188Y-94014642D01*
X118863188Y-94014642D02*
X118558426Y-94014642D01*
X121125093Y-93595595D02*
X121277474Y-93595595D01*
X121277474Y-93595595D02*
X121353664Y-93633690D01*
X121353664Y-93633690D02*
X121429855Y-93709880D01*
X121429855Y-93709880D02*
X121467950Y-93862261D01*
X121467950Y-93862261D02*
X121467950Y-94128928D01*
X121467950Y-94128928D02*
X121429855Y-94281309D01*
X121429855Y-94281309D02*
X121353664Y-94357500D01*
X121353664Y-94357500D02*
X121277474Y-94395595D01*
X121277474Y-94395595D02*
X121125093Y-94395595D01*
X121125093Y-94395595D02*
X121048902Y-94357500D01*
X121048902Y-94357500D02*
X120972712Y-94281309D01*
X120972712Y-94281309D02*
X120934616Y-94128928D01*
X120934616Y-94128928D02*
X120934616Y-93862261D01*
X120934616Y-93862261D02*
X120972712Y-93709880D01*
X120972712Y-93709880D02*
X121048902Y-93633690D01*
X121048902Y-93633690D02*
X121125093Y-93595595D01*
X121810807Y-93595595D02*
X121810807Y-94243214D01*
X121810807Y-94243214D02*
X121848902Y-94319404D01*
X121848902Y-94319404D02*
X121886997Y-94357500D01*
X121886997Y-94357500D02*
X121963188Y-94395595D01*
X121963188Y-94395595D02*
X122115569Y-94395595D01*
X122115569Y-94395595D02*
X122191759Y-94357500D01*
X122191759Y-94357500D02*
X122229854Y-94319404D01*
X122229854Y-94319404D02*
X122267950Y-94243214D01*
X122267950Y-94243214D02*
X122267950Y-93595595D01*
X122534616Y-93595595D02*
X122991759Y-93595595D01*
X122763187Y-94395595D02*
X122763187Y-93595595D01*
X123258426Y-94395595D02*
X123258426Y-93595595D01*
X123258426Y-93595595D02*
X123715569Y-94395595D01*
X123715569Y-94395595D02*
X123715569Y-93595595D01*
X137825093Y-75695595D02*
X137977474Y-75695595D01*
X137977474Y-75695595D02*
X138053664Y-75733690D01*
X138053664Y-75733690D02*
X138129855Y-75809880D01*
X138129855Y-75809880D02*
X138167950Y-75962261D01*
X138167950Y-75962261D02*
X138167950Y-76228928D01*
X138167950Y-76228928D02*
X138129855Y-76381309D01*
X138129855Y-76381309D02*
X138053664Y-76457500D01*
X138053664Y-76457500D02*
X137977474Y-76495595D01*
X137977474Y-76495595D02*
X137825093Y-76495595D01*
X137825093Y-76495595D02*
X137748902Y-76457500D01*
X137748902Y-76457500D02*
X137672712Y-76381309D01*
X137672712Y-76381309D02*
X137634616Y-76228928D01*
X137634616Y-76228928D02*
X137634616Y-75962261D01*
X137634616Y-75962261D02*
X137672712Y-75809880D01*
X137672712Y-75809880D02*
X137748902Y-75733690D01*
X137748902Y-75733690D02*
X137825093Y-75695595D01*
X138396521Y-75695595D02*
X138663188Y-76495595D01*
X138663188Y-76495595D02*
X138929854Y-75695595D01*
X139577473Y-75695595D02*
X139196521Y-75695595D01*
X139196521Y-75695595D02*
X139158425Y-76076547D01*
X139158425Y-76076547D02*
X139196521Y-76038452D01*
X139196521Y-76038452D02*
X139272711Y-76000357D01*
X139272711Y-76000357D02*
X139463187Y-76000357D01*
X139463187Y-76000357D02*
X139539378Y-76038452D01*
X139539378Y-76038452D02*
X139577473Y-76076547D01*
X139577473Y-76076547D02*
X139615568Y-76152738D01*
X139615568Y-76152738D02*
X139615568Y-76343214D01*
X139615568Y-76343214D02*
X139577473Y-76419404D01*
X139577473Y-76419404D02*
X139539378Y-76457500D01*
X139539378Y-76457500D02*
X139463187Y-76495595D01*
X139463187Y-76495595D02*
X139272711Y-76495595D01*
X139272711Y-76495595D02*
X139196521Y-76457500D01*
X139196521Y-76457500D02*
X139158425Y-76419404D01*
X140301283Y-75695595D02*
X140148902Y-75695595D01*
X140148902Y-75695595D02*
X140072711Y-75733690D01*
X140072711Y-75733690D02*
X140034616Y-75771785D01*
X140034616Y-75771785D02*
X139958426Y-75886071D01*
X139958426Y-75886071D02*
X139920330Y-76038452D01*
X139920330Y-76038452D02*
X139920330Y-76343214D01*
X139920330Y-76343214D02*
X139958426Y-76419404D01*
X139958426Y-76419404D02*
X139996521Y-76457500D01*
X139996521Y-76457500D02*
X140072711Y-76495595D01*
X140072711Y-76495595D02*
X140225092Y-76495595D01*
X140225092Y-76495595D02*
X140301283Y-76457500D01*
X140301283Y-76457500D02*
X140339378Y-76419404D01*
X140339378Y-76419404D02*
X140377473Y-76343214D01*
X140377473Y-76343214D02*
X140377473Y-76152738D01*
X140377473Y-76152738D02*
X140339378Y-76076547D01*
X140339378Y-76076547D02*
X140301283Y-76038452D01*
X140301283Y-76038452D02*
X140225092Y-76000357D01*
X140225092Y-76000357D02*
X140072711Y-76000357D01*
X140072711Y-76000357D02*
X139996521Y-76038452D01*
X139996521Y-76038452D02*
X139958426Y-76076547D01*
X139958426Y-76076547D02*
X139920330Y-76152738D01*
X141063188Y-75962261D02*
X141063188Y-76495595D01*
X140872712Y-75657500D02*
X140682235Y-76228928D01*
X140682235Y-76228928D02*
X141177474Y-76228928D01*
X141634617Y-75695595D02*
X141710807Y-75695595D01*
X141710807Y-75695595D02*
X141786998Y-75733690D01*
X141786998Y-75733690D02*
X141825093Y-75771785D01*
X141825093Y-75771785D02*
X141863188Y-75847976D01*
X141863188Y-75847976D02*
X141901283Y-76000357D01*
X141901283Y-76000357D02*
X141901283Y-76190833D01*
X141901283Y-76190833D02*
X141863188Y-76343214D01*
X141863188Y-76343214D02*
X141825093Y-76419404D01*
X141825093Y-76419404D02*
X141786998Y-76457500D01*
X141786998Y-76457500D02*
X141710807Y-76495595D01*
X141710807Y-76495595D02*
X141634617Y-76495595D01*
X141634617Y-76495595D02*
X141558426Y-76457500D01*
X141558426Y-76457500D02*
X141520331Y-76419404D01*
X141520331Y-76419404D02*
X141482236Y-76343214D01*
X141482236Y-76343214D02*
X141444140Y-76190833D01*
X141444140Y-76190833D02*
X141444140Y-76000357D01*
X141444140Y-76000357D02*
X141482236Y-75847976D01*
X141482236Y-75847976D02*
X141520331Y-75771785D01*
X141520331Y-75771785D02*
X141558426Y-75733690D01*
X141558426Y-75733690D02*
X141634617Y-75695595D01*
X154396521Y-78795595D02*
X154891759Y-78795595D01*
X154891759Y-78795595D02*
X154625093Y-79100357D01*
X154625093Y-79100357D02*
X154739378Y-79100357D01*
X154739378Y-79100357D02*
X154815569Y-79138452D01*
X154815569Y-79138452D02*
X154853664Y-79176547D01*
X154853664Y-79176547D02*
X154891759Y-79252738D01*
X154891759Y-79252738D02*
X154891759Y-79443214D01*
X154891759Y-79443214D02*
X154853664Y-79519404D01*
X154853664Y-79519404D02*
X154815569Y-79557500D01*
X154815569Y-79557500D02*
X154739378Y-79595595D01*
X154739378Y-79595595D02*
X154510807Y-79595595D01*
X154510807Y-79595595D02*
X154434616Y-79557500D01*
X154434616Y-79557500D02*
X154396521Y-79519404D01*
X155120331Y-78795595D02*
X155386998Y-79595595D01*
X155386998Y-79595595D02*
X155653664Y-78795595D01*
X155844140Y-78795595D02*
X156339378Y-78795595D01*
X156339378Y-78795595D02*
X156072712Y-79100357D01*
X156072712Y-79100357D02*
X156186997Y-79100357D01*
X156186997Y-79100357D02*
X156263188Y-79138452D01*
X156263188Y-79138452D02*
X156301283Y-79176547D01*
X156301283Y-79176547D02*
X156339378Y-79252738D01*
X156339378Y-79252738D02*
X156339378Y-79443214D01*
X156339378Y-79443214D02*
X156301283Y-79519404D01*
X156301283Y-79519404D02*
X156263188Y-79557500D01*
X156263188Y-79557500D02*
X156186997Y-79595595D01*
X156186997Y-79595595D02*
X155958426Y-79595595D01*
X155958426Y-79595595D02*
X155882235Y-79557500D01*
X155882235Y-79557500D02*
X155844140Y-79519404D01*
X158572712Y-82995595D02*
X158572712Y-82195595D01*
X158572712Y-82195595D02*
X158877474Y-82195595D01*
X158877474Y-82195595D02*
X158953664Y-82233690D01*
X158953664Y-82233690D02*
X158991759Y-82271785D01*
X158991759Y-82271785D02*
X159029855Y-82347976D01*
X159029855Y-82347976D02*
X159029855Y-82462261D01*
X159029855Y-82462261D02*
X158991759Y-82538452D01*
X158991759Y-82538452D02*
X158953664Y-82576547D01*
X158953664Y-82576547D02*
X158877474Y-82614642D01*
X158877474Y-82614642D02*
X158572712Y-82614642D01*
X159372712Y-82995595D02*
X159372712Y-82195595D01*
X160210807Y-82995595D02*
X159944140Y-82614642D01*
X159753664Y-82995595D02*
X159753664Y-82195595D01*
X159753664Y-82195595D02*
X160058426Y-82195595D01*
X160058426Y-82195595D02*
X160134616Y-82233690D01*
X160134616Y-82233690D02*
X160172711Y-82271785D01*
X160172711Y-82271785D02*
X160210807Y-82347976D01*
X160210807Y-82347976D02*
X160210807Y-82462261D01*
X160210807Y-82462261D02*
X160172711Y-82538452D01*
X160172711Y-82538452D02*
X160134616Y-82576547D01*
X160134616Y-82576547D02*
X160058426Y-82614642D01*
X160058426Y-82614642D02*
X159753664Y-82614642D01*
X160363188Y-83071785D02*
X160972711Y-83071785D01*
X161315569Y-82195595D02*
X161467950Y-82195595D01*
X161467950Y-82195595D02*
X161544140Y-82233690D01*
X161544140Y-82233690D02*
X161620331Y-82309880D01*
X161620331Y-82309880D02*
X161658426Y-82462261D01*
X161658426Y-82462261D02*
X161658426Y-82728928D01*
X161658426Y-82728928D02*
X161620331Y-82881309D01*
X161620331Y-82881309D02*
X161544140Y-82957500D01*
X161544140Y-82957500D02*
X161467950Y-82995595D01*
X161467950Y-82995595D02*
X161315569Y-82995595D01*
X161315569Y-82995595D02*
X161239378Y-82957500D01*
X161239378Y-82957500D02*
X161163188Y-82881309D01*
X161163188Y-82881309D02*
X161125092Y-82728928D01*
X161125092Y-82728928D02*
X161125092Y-82462261D01*
X161125092Y-82462261D02*
X161163188Y-82309880D01*
X161163188Y-82309880D02*
X161239378Y-82233690D01*
X161239378Y-82233690D02*
X161315569Y-82195595D01*
X162001283Y-82195595D02*
X162001283Y-82843214D01*
X162001283Y-82843214D02*
X162039378Y-82919404D01*
X162039378Y-82919404D02*
X162077473Y-82957500D01*
X162077473Y-82957500D02*
X162153664Y-82995595D01*
X162153664Y-82995595D02*
X162306045Y-82995595D01*
X162306045Y-82995595D02*
X162382235Y-82957500D01*
X162382235Y-82957500D02*
X162420330Y-82919404D01*
X162420330Y-82919404D02*
X162458426Y-82843214D01*
X162458426Y-82843214D02*
X162458426Y-82195595D01*
X162725092Y-82195595D02*
X163182235Y-82195595D01*
X162953663Y-82995595D02*
X162953663Y-82195595D01*
X158872712Y-110790833D02*
X159482236Y-110790833D01*
X159177474Y-111095595D02*
X159177474Y-110486071D01*
X160129854Y-110676547D02*
X160244140Y-110714642D01*
X160244140Y-110714642D02*
X160282235Y-110752738D01*
X160282235Y-110752738D02*
X160320331Y-110828928D01*
X160320331Y-110828928D02*
X160320331Y-110943214D01*
X160320331Y-110943214D02*
X160282235Y-111019404D01*
X160282235Y-111019404D02*
X160244140Y-111057500D01*
X160244140Y-111057500D02*
X160167950Y-111095595D01*
X160167950Y-111095595D02*
X159863188Y-111095595D01*
X159863188Y-111095595D02*
X159863188Y-110295595D01*
X159863188Y-110295595D02*
X160129854Y-110295595D01*
X160129854Y-110295595D02*
X160206045Y-110333690D01*
X160206045Y-110333690D02*
X160244140Y-110371785D01*
X160244140Y-110371785D02*
X160282235Y-110447976D01*
X160282235Y-110447976D02*
X160282235Y-110524166D01*
X160282235Y-110524166D02*
X160244140Y-110600357D01*
X160244140Y-110600357D02*
X160206045Y-110638452D01*
X160206045Y-110638452D02*
X160129854Y-110676547D01*
X160129854Y-110676547D02*
X159863188Y-110676547D01*
X160625092Y-110867023D02*
X161006045Y-110867023D01*
X160548902Y-111095595D02*
X160815569Y-110295595D01*
X160815569Y-110295595D02*
X161082235Y-111095595D01*
X161234616Y-110295595D02*
X161691759Y-110295595D01*
X161463187Y-111095595D02*
X161463187Y-110295595D01*
X161844140Y-110295595D02*
X162301283Y-110295595D01*
X162072711Y-111095595D02*
X162072711Y-110295595D01*
X163491759Y-110333690D02*
X163415569Y-110295595D01*
X163415569Y-110295595D02*
X163301283Y-110295595D01*
X163301283Y-110295595D02*
X163186997Y-110333690D01*
X163186997Y-110333690D02*
X163110807Y-110409880D01*
X163110807Y-110409880D02*
X163072712Y-110486071D01*
X163072712Y-110486071D02*
X163034616Y-110638452D01*
X163034616Y-110638452D02*
X163034616Y-110752738D01*
X163034616Y-110752738D02*
X163072712Y-110905119D01*
X163072712Y-110905119D02*
X163110807Y-110981309D01*
X163110807Y-110981309D02*
X163186997Y-111057500D01*
X163186997Y-111057500D02*
X163301283Y-111095595D01*
X163301283Y-111095595D02*
X163377474Y-111095595D01*
X163377474Y-111095595D02*
X163491759Y-111057500D01*
X163491759Y-111057500D02*
X163529855Y-111019404D01*
X163529855Y-111019404D02*
X163529855Y-110752738D01*
X163529855Y-110752738D02*
X163377474Y-110752738D01*
X163872712Y-111095595D02*
X163872712Y-110295595D01*
X163872712Y-110295595D02*
X164329855Y-111095595D01*
X164329855Y-111095595D02*
X164329855Y-110295595D01*
X164710807Y-111095595D02*
X164710807Y-110295595D01*
X164710807Y-110295595D02*
X164901283Y-110295595D01*
X164901283Y-110295595D02*
X165015569Y-110333690D01*
X165015569Y-110333690D02*
X165091759Y-110409880D01*
X165091759Y-110409880D02*
X165129854Y-110486071D01*
X165129854Y-110486071D02*
X165167950Y-110638452D01*
X165167950Y-110638452D02*
X165167950Y-110752738D01*
X165167950Y-110752738D02*
X165129854Y-110905119D01*
X165129854Y-110905119D02*
X165091759Y-110981309D01*
X165091759Y-110981309D02*
X165015569Y-111057500D01*
X165015569Y-111057500D02*
X164901283Y-111095595D01*
X164901283Y-111095595D02*
X164710807Y-111095595D01*
X165251759Y-78933690D02*
X165175569Y-78895595D01*
X165175569Y-78895595D02*
X165061283Y-78895595D01*
X165061283Y-78895595D02*
X164946997Y-78933690D01*
X164946997Y-78933690D02*
X164870807Y-79009880D01*
X164870807Y-79009880D02*
X164832712Y-79086071D01*
X164832712Y-79086071D02*
X164794616Y-79238452D01*
X164794616Y-79238452D02*
X164794616Y-79352738D01*
X164794616Y-79352738D02*
X164832712Y-79505119D01*
X164832712Y-79505119D02*
X164870807Y-79581309D01*
X164870807Y-79581309D02*
X164946997Y-79657500D01*
X164946997Y-79657500D02*
X165061283Y-79695595D01*
X165061283Y-79695595D02*
X165137474Y-79695595D01*
X165137474Y-79695595D02*
X165251759Y-79657500D01*
X165251759Y-79657500D02*
X165289855Y-79619404D01*
X165289855Y-79619404D02*
X165289855Y-79352738D01*
X165289855Y-79352738D02*
X165137474Y-79352738D01*
X165632712Y-79695595D02*
X165632712Y-78895595D01*
X165632712Y-78895595D02*
X166089855Y-79695595D01*
X166089855Y-79695595D02*
X166089855Y-78895595D01*
X166470807Y-79695595D02*
X166470807Y-78895595D01*
X166470807Y-78895595D02*
X166661283Y-78895595D01*
X166661283Y-78895595D02*
X166775569Y-78933690D01*
X166775569Y-78933690D02*
X166851759Y-79009880D01*
X166851759Y-79009880D02*
X166889854Y-79086071D01*
X166889854Y-79086071D02*
X166927950Y-79238452D01*
X166927950Y-79238452D02*
X166927950Y-79352738D01*
X166927950Y-79352738D02*
X166889854Y-79505119D01*
X166889854Y-79505119D02*
X166851759Y-79581309D01*
X166851759Y-79581309D02*
X166775569Y-79657500D01*
X166775569Y-79657500D02*
X166661283Y-79695595D01*
X166661283Y-79695595D02*
X166470807Y-79695595D01*
X131142857Y-117207640D02*
X131142857Y-116407640D01*
X131142857Y-116407640D02*
X131333333Y-116407640D01*
X131333333Y-116407640D02*
X131447619Y-116445735D01*
X131447619Y-116445735D02*
X131523809Y-116521925D01*
X131523809Y-116521925D02*
X131561904Y-116598116D01*
X131561904Y-116598116D02*
X131600000Y-116750497D01*
X131600000Y-116750497D02*
X131600000Y-116864783D01*
X131600000Y-116864783D02*
X131561904Y-117017164D01*
X131561904Y-117017164D02*
X131523809Y-117093354D01*
X131523809Y-117093354D02*
X131447619Y-117169545D01*
X131447619Y-117169545D02*
X131333333Y-117207640D01*
X131333333Y-117207640D02*
X131142857Y-117207640D01*
X132095238Y-116407640D02*
X132247619Y-116407640D01*
X132247619Y-116407640D02*
X132323809Y-116445735D01*
X132323809Y-116445735D02*
X132400000Y-116521925D01*
X132400000Y-116521925D02*
X132438095Y-116674306D01*
X132438095Y-116674306D02*
X132438095Y-116940973D01*
X132438095Y-116940973D02*
X132400000Y-117093354D01*
X132400000Y-117093354D02*
X132323809Y-117169545D01*
X132323809Y-117169545D02*
X132247619Y-117207640D01*
X132247619Y-117207640D02*
X132095238Y-117207640D01*
X132095238Y-117207640D02*
X132019047Y-117169545D01*
X132019047Y-117169545D02*
X131942857Y-117093354D01*
X131942857Y-117093354D02*
X131904761Y-116940973D01*
X131904761Y-116940973D02*
X131904761Y-116674306D01*
X131904761Y-116674306D02*
X131942857Y-116521925D01*
X131942857Y-116521925D02*
X132019047Y-116445735D01*
X132019047Y-116445735D02*
X132095238Y-116407640D01*
X132933333Y-116407640D02*
X133085714Y-116407640D01*
X133085714Y-116407640D02*
X133161904Y-116445735D01*
X133161904Y-116445735D02*
X133238095Y-116521925D01*
X133238095Y-116521925D02*
X133276190Y-116674306D01*
X133276190Y-116674306D02*
X133276190Y-116940973D01*
X133276190Y-116940973D02*
X133238095Y-117093354D01*
X133238095Y-117093354D02*
X133161904Y-117169545D01*
X133161904Y-117169545D02*
X133085714Y-117207640D01*
X133085714Y-117207640D02*
X132933333Y-117207640D01*
X132933333Y-117207640D02*
X132857142Y-117169545D01*
X132857142Y-117169545D02*
X132780952Y-117093354D01*
X132780952Y-117093354D02*
X132742856Y-116940973D01*
X132742856Y-116940973D02*
X132742856Y-116674306D01*
X132742856Y-116674306D02*
X132780952Y-116521925D01*
X132780952Y-116521925D02*
X132857142Y-116445735D01*
X132857142Y-116445735D02*
X132933333Y-116407640D01*
X134076190Y-117207640D02*
X133809523Y-116826687D01*
X133619047Y-117207640D02*
X133619047Y-116407640D01*
X133619047Y-116407640D02*
X133923809Y-116407640D01*
X133923809Y-116407640D02*
X133999999Y-116445735D01*
X133999999Y-116445735D02*
X134038094Y-116483830D01*
X134038094Y-116483830D02*
X134076190Y-116560021D01*
X134076190Y-116560021D02*
X134076190Y-116674306D01*
X134076190Y-116674306D02*
X134038094Y-116750497D01*
X134038094Y-116750497D02*
X133999999Y-116788592D01*
X133999999Y-116788592D02*
X133923809Y-116826687D01*
X133923809Y-116826687D02*
X133619047Y-116826687D01*
X134685713Y-116788592D02*
X134799999Y-116826687D01*
X134799999Y-116826687D02*
X134838094Y-116864783D01*
X134838094Y-116864783D02*
X134876190Y-116940973D01*
X134876190Y-116940973D02*
X134876190Y-117055259D01*
X134876190Y-117055259D02*
X134838094Y-117131449D01*
X134838094Y-117131449D02*
X134799999Y-117169545D01*
X134799999Y-117169545D02*
X134723809Y-117207640D01*
X134723809Y-117207640D02*
X134419047Y-117207640D01*
X134419047Y-117207640D02*
X134419047Y-116407640D01*
X134419047Y-116407640D02*
X134685713Y-116407640D01*
X134685713Y-116407640D02*
X134761904Y-116445735D01*
X134761904Y-116445735D02*
X134799999Y-116483830D01*
X134799999Y-116483830D02*
X134838094Y-116560021D01*
X134838094Y-116560021D02*
X134838094Y-116636211D01*
X134838094Y-116636211D02*
X134799999Y-116712402D01*
X134799999Y-116712402D02*
X134761904Y-116750497D01*
X134761904Y-116750497D02*
X134685713Y-116788592D01*
X134685713Y-116788592D02*
X134419047Y-116788592D01*
X135219047Y-116788592D02*
X135485713Y-116788592D01*
X135599999Y-117207640D02*
X135219047Y-117207640D01*
X135219047Y-117207640D02*
X135219047Y-116407640D01*
X135219047Y-116407640D02*
X135599999Y-116407640D01*
X136323809Y-117207640D02*
X135942857Y-117207640D01*
X135942857Y-117207640D02*
X135942857Y-116407640D01*
X136971428Y-117207640D02*
X136590476Y-117207640D01*
X136590476Y-117207640D02*
X136590476Y-116407640D01*
X133580953Y-118495595D02*
X133580953Y-117695595D01*
X133961905Y-118495595D02*
X133961905Y-117695595D01*
X133961905Y-117695595D02*
X134419048Y-118495595D01*
X134419048Y-118495595D02*
X134419048Y-117695595D01*
X144090476Y-116933690D02*
X144014286Y-116895595D01*
X144014286Y-116895595D02*
X143900000Y-116895595D01*
X143900000Y-116895595D02*
X143785714Y-116933690D01*
X143785714Y-116933690D02*
X143709524Y-117009880D01*
X143709524Y-117009880D02*
X143671429Y-117086071D01*
X143671429Y-117086071D02*
X143633333Y-117238452D01*
X143633333Y-117238452D02*
X143633333Y-117352738D01*
X143633333Y-117352738D02*
X143671429Y-117505119D01*
X143671429Y-117505119D02*
X143709524Y-117581309D01*
X143709524Y-117581309D02*
X143785714Y-117657500D01*
X143785714Y-117657500D02*
X143900000Y-117695595D01*
X143900000Y-117695595D02*
X143976191Y-117695595D01*
X143976191Y-117695595D02*
X144090476Y-117657500D01*
X144090476Y-117657500D02*
X144128572Y-117619404D01*
X144128572Y-117619404D02*
X144128572Y-117352738D01*
X144128572Y-117352738D02*
X143976191Y-117352738D01*
X144471429Y-117695595D02*
X144471429Y-116895595D01*
X144471429Y-116895595D02*
X144928572Y-117695595D01*
X144928572Y-117695595D02*
X144928572Y-116895595D01*
X145309524Y-117695595D02*
X145309524Y-116895595D01*
X145309524Y-116895595D02*
X145500000Y-116895595D01*
X145500000Y-116895595D02*
X145614286Y-116933690D01*
X145614286Y-116933690D02*
X145690476Y-117009880D01*
X145690476Y-117009880D02*
X145728571Y-117086071D01*
X145728571Y-117086071D02*
X145766667Y-117238452D01*
X145766667Y-117238452D02*
X145766667Y-117352738D01*
X145766667Y-117352738D02*
X145728571Y-117505119D01*
X145728571Y-117505119D02*
X145690476Y-117581309D01*
X145690476Y-117581309D02*
X145614286Y-117657500D01*
X145614286Y-117657500D02*
X145500000Y-117695595D01*
X145500000Y-117695595D02*
X145309524Y-117695595D01*
D11*
X116354949Y-123907056D02*
X116497806Y-123954675D01*
X116497806Y-123954675D02*
X116735901Y-123954675D01*
X116735901Y-123954675D02*
X116831139Y-123907056D01*
X116831139Y-123907056D02*
X116878758Y-123859436D01*
X116878758Y-123859436D02*
X116926377Y-123764198D01*
X116926377Y-123764198D02*
X116926377Y-123668960D01*
X116926377Y-123668960D02*
X116878758Y-123573722D01*
X116878758Y-123573722D02*
X116831139Y-123526103D01*
X116831139Y-123526103D02*
X116735901Y-123478484D01*
X116735901Y-123478484D02*
X116545425Y-123430865D01*
X116545425Y-123430865D02*
X116450187Y-123383246D01*
X116450187Y-123383246D02*
X116402568Y-123335627D01*
X116402568Y-123335627D02*
X116354949Y-123240389D01*
X116354949Y-123240389D02*
X116354949Y-123145151D01*
X116354949Y-123145151D02*
X116402568Y-123049913D01*
X116402568Y-123049913D02*
X116450187Y-123002294D01*
X116450187Y-123002294D02*
X116545425Y-122954675D01*
X116545425Y-122954675D02*
X116783520Y-122954675D01*
X116783520Y-122954675D02*
X116926377Y-123002294D01*
X117354949Y-123954675D02*
X117354949Y-123288008D01*
X117354949Y-123383246D02*
X117402568Y-123335627D01*
X117402568Y-123335627D02*
X117497806Y-123288008D01*
X117497806Y-123288008D02*
X117640663Y-123288008D01*
X117640663Y-123288008D02*
X117735901Y-123335627D01*
X117735901Y-123335627D02*
X117783520Y-123430865D01*
X117783520Y-123430865D02*
X117783520Y-123954675D01*
X117783520Y-123430865D02*
X117831139Y-123335627D01*
X117831139Y-123335627D02*
X117926377Y-123288008D01*
X117926377Y-123288008D02*
X118069234Y-123288008D01*
X118069234Y-123288008D02*
X118164473Y-123335627D01*
X118164473Y-123335627D02*
X118212092Y-123430865D01*
X118212092Y-123430865D02*
X118212092Y-123954675D01*
X119116853Y-123954675D02*
X119116853Y-123430865D01*
X119116853Y-123430865D02*
X119069234Y-123335627D01*
X119069234Y-123335627D02*
X118973996Y-123288008D01*
X118973996Y-123288008D02*
X118783520Y-123288008D01*
X118783520Y-123288008D02*
X118688282Y-123335627D01*
X119116853Y-123907056D02*
X119021615Y-123954675D01*
X119021615Y-123954675D02*
X118783520Y-123954675D01*
X118783520Y-123954675D02*
X118688282Y-123907056D01*
X118688282Y-123907056D02*
X118640663Y-123811817D01*
X118640663Y-123811817D02*
X118640663Y-123716579D01*
X118640663Y-123716579D02*
X118688282Y-123621341D01*
X118688282Y-123621341D02*
X118783520Y-123573722D01*
X118783520Y-123573722D02*
X119021615Y-123573722D01*
X119021615Y-123573722D02*
X119116853Y-123526103D01*
X119593044Y-123954675D02*
X119593044Y-123288008D01*
X119593044Y-123478484D02*
X119640663Y-123383246D01*
X119640663Y-123383246D02*
X119688282Y-123335627D01*
X119688282Y-123335627D02*
X119783520Y-123288008D01*
X119783520Y-123288008D02*
X119878758Y-123288008D01*
X120069235Y-123288008D02*
X120450187Y-123288008D01*
X120212092Y-122954675D02*
X120212092Y-123811817D01*
X120212092Y-123811817D02*
X120259711Y-123907056D01*
X120259711Y-123907056D02*
X120354949Y-123954675D01*
X120354949Y-123954675D02*
X120450187Y-123954675D01*
X121545426Y-123954675D02*
X121545426Y-122954675D01*
X121545426Y-122954675D02*
X121783521Y-122954675D01*
X121783521Y-122954675D02*
X121926378Y-123002294D01*
X121926378Y-123002294D02*
X122021616Y-123097532D01*
X122021616Y-123097532D02*
X122069235Y-123192770D01*
X122069235Y-123192770D02*
X122116854Y-123383246D01*
X122116854Y-123383246D02*
X122116854Y-123526103D01*
X122116854Y-123526103D02*
X122069235Y-123716579D01*
X122069235Y-123716579D02*
X122021616Y-123811817D01*
X122021616Y-123811817D02*
X121926378Y-123907056D01*
X121926378Y-123907056D02*
X121783521Y-123954675D01*
X121783521Y-123954675D02*
X121545426Y-123954675D01*
X122688283Y-123954675D02*
X122593045Y-123907056D01*
X122593045Y-123907056D02*
X122545426Y-123859436D01*
X122545426Y-123859436D02*
X122497807Y-123764198D01*
X122497807Y-123764198D02*
X122497807Y-123478484D01*
X122497807Y-123478484D02*
X122545426Y-123383246D01*
X122545426Y-123383246D02*
X122593045Y-123335627D01*
X122593045Y-123335627D02*
X122688283Y-123288008D01*
X122688283Y-123288008D02*
X122831140Y-123288008D01*
X122831140Y-123288008D02*
X122926378Y-123335627D01*
X122926378Y-123335627D02*
X122973997Y-123383246D01*
X122973997Y-123383246D02*
X123021616Y-123478484D01*
X123021616Y-123478484D02*
X123021616Y-123764198D01*
X123021616Y-123764198D02*
X122973997Y-123859436D01*
X122973997Y-123859436D02*
X122926378Y-123907056D01*
X122926378Y-123907056D02*
X122831140Y-123954675D01*
X122831140Y-123954675D02*
X122688283Y-123954675D01*
X123593045Y-123954675D02*
X123497807Y-123907056D01*
X123497807Y-123907056D02*
X123450188Y-123859436D01*
X123450188Y-123859436D02*
X123402569Y-123764198D01*
X123402569Y-123764198D02*
X123402569Y-123478484D01*
X123402569Y-123478484D02*
X123450188Y-123383246D01*
X123450188Y-123383246D02*
X123497807Y-123335627D01*
X123497807Y-123335627D02*
X123593045Y-123288008D01*
X123593045Y-123288008D02*
X123735902Y-123288008D01*
X123735902Y-123288008D02*
X123831140Y-123335627D01*
X123831140Y-123335627D02*
X123878759Y-123383246D01*
X123878759Y-123383246D02*
X123926378Y-123478484D01*
X123926378Y-123478484D02*
X123926378Y-123764198D01*
X123926378Y-123764198D02*
X123878759Y-123859436D01*
X123878759Y-123859436D02*
X123831140Y-123907056D01*
X123831140Y-123907056D02*
X123735902Y-123954675D01*
X123735902Y-123954675D02*
X123593045Y-123954675D01*
X124354950Y-123954675D02*
X124354950Y-123288008D01*
X124354950Y-123478484D02*
X124402569Y-123383246D01*
X124402569Y-123383246D02*
X124450188Y-123335627D01*
X124450188Y-123335627D02*
X124545426Y-123288008D01*
X124545426Y-123288008D02*
X124640664Y-123288008D01*
X124973998Y-123954675D02*
X124973998Y-122954675D01*
X124973998Y-123335627D02*
X125069236Y-123288008D01*
X125069236Y-123288008D02*
X125259712Y-123288008D01*
X125259712Y-123288008D02*
X125354950Y-123335627D01*
X125354950Y-123335627D02*
X125402569Y-123383246D01*
X125402569Y-123383246D02*
X125450188Y-123478484D01*
X125450188Y-123478484D02*
X125450188Y-123764198D01*
X125450188Y-123764198D02*
X125402569Y-123859436D01*
X125402569Y-123859436D02*
X125354950Y-123907056D01*
X125354950Y-123907056D02*
X125259712Y-123954675D01*
X125259712Y-123954675D02*
X125069236Y-123954675D01*
X125069236Y-123954675D02*
X124973998Y-123907056D01*
X126259712Y-123907056D02*
X126164474Y-123954675D01*
X126164474Y-123954675D02*
X125973998Y-123954675D01*
X125973998Y-123954675D02*
X125878760Y-123907056D01*
X125878760Y-123907056D02*
X125831141Y-123811817D01*
X125831141Y-123811817D02*
X125831141Y-123430865D01*
X125831141Y-123430865D02*
X125878760Y-123335627D01*
X125878760Y-123335627D02*
X125973998Y-123288008D01*
X125973998Y-123288008D02*
X126164474Y-123288008D01*
X126164474Y-123288008D02*
X126259712Y-123335627D01*
X126259712Y-123335627D02*
X126307331Y-123430865D01*
X126307331Y-123430865D02*
X126307331Y-123526103D01*
X126307331Y-123526103D02*
X125831141Y-123621341D01*
X126878760Y-123954675D02*
X126783522Y-123907056D01*
X126783522Y-123907056D02*
X126735903Y-123811817D01*
X126735903Y-123811817D02*
X126735903Y-122954675D01*
X127402570Y-123954675D02*
X127307332Y-123907056D01*
X127307332Y-123907056D02*
X127259713Y-123811817D01*
X127259713Y-123811817D02*
X127259713Y-122954675D01*
X128545428Y-123954675D02*
X128545428Y-122954675D01*
X128545428Y-122954675D02*
X128926380Y-122954675D01*
X128926380Y-122954675D02*
X129021618Y-123002294D01*
X129021618Y-123002294D02*
X129069237Y-123049913D01*
X129069237Y-123049913D02*
X129116856Y-123145151D01*
X129116856Y-123145151D02*
X129116856Y-123288008D01*
X129116856Y-123288008D02*
X129069237Y-123383246D01*
X129069237Y-123383246D02*
X129021618Y-123430865D01*
X129021618Y-123430865D02*
X128926380Y-123478484D01*
X128926380Y-123478484D02*
X128545428Y-123478484D01*
X129545428Y-123954675D02*
X129545428Y-123288008D01*
X129545428Y-123478484D02*
X129593047Y-123383246D01*
X129593047Y-123383246D02*
X129640666Y-123335627D01*
X129640666Y-123335627D02*
X129735904Y-123288008D01*
X129735904Y-123288008D02*
X129831142Y-123288008D01*
X130307333Y-123954675D02*
X130212095Y-123907056D01*
X130212095Y-123907056D02*
X130164476Y-123859436D01*
X130164476Y-123859436D02*
X130116857Y-123764198D01*
X130116857Y-123764198D02*
X130116857Y-123478484D01*
X130116857Y-123478484D02*
X130164476Y-123383246D01*
X130164476Y-123383246D02*
X130212095Y-123335627D01*
X130212095Y-123335627D02*
X130307333Y-123288008D01*
X130307333Y-123288008D02*
X130450190Y-123288008D01*
X130450190Y-123288008D02*
X130545428Y-123335627D01*
X130545428Y-123335627D02*
X130593047Y-123383246D01*
X130593047Y-123383246D02*
X130640666Y-123478484D01*
X130640666Y-123478484D02*
X130640666Y-123764198D01*
X130640666Y-123764198D02*
X130593047Y-123859436D01*
X130593047Y-123859436D02*
X130545428Y-123907056D01*
X130545428Y-123907056D02*
X130450190Y-123954675D01*
X130450190Y-123954675D02*
X130307333Y-123954675D01*
X131069238Y-123288008D02*
X131069238Y-124145151D01*
X131069238Y-124145151D02*
X131021619Y-124240389D01*
X131021619Y-124240389D02*
X130926381Y-124288008D01*
X130926381Y-124288008D02*
X130878762Y-124288008D01*
X131069238Y-122954675D02*
X131021619Y-123002294D01*
X131021619Y-123002294D02*
X131069238Y-123049913D01*
X131069238Y-123049913D02*
X131116857Y-123002294D01*
X131116857Y-123002294D02*
X131069238Y-122954675D01*
X131069238Y-122954675D02*
X131069238Y-123049913D01*
X131926380Y-123907056D02*
X131831142Y-123954675D01*
X131831142Y-123954675D02*
X131640666Y-123954675D01*
X131640666Y-123954675D02*
X131545428Y-123907056D01*
X131545428Y-123907056D02*
X131497809Y-123811817D01*
X131497809Y-123811817D02*
X131497809Y-123430865D01*
X131497809Y-123430865D02*
X131545428Y-123335627D01*
X131545428Y-123335627D02*
X131640666Y-123288008D01*
X131640666Y-123288008D02*
X131831142Y-123288008D01*
X131831142Y-123288008D02*
X131926380Y-123335627D01*
X131926380Y-123335627D02*
X131973999Y-123430865D01*
X131973999Y-123430865D02*
X131973999Y-123526103D01*
X131973999Y-123526103D02*
X131497809Y-123621341D01*
X132831142Y-123907056D02*
X132735904Y-123954675D01*
X132735904Y-123954675D02*
X132545428Y-123954675D01*
X132545428Y-123954675D02*
X132450190Y-123907056D01*
X132450190Y-123907056D02*
X132402571Y-123859436D01*
X132402571Y-123859436D02*
X132354952Y-123764198D01*
X132354952Y-123764198D02*
X132354952Y-123478484D01*
X132354952Y-123478484D02*
X132402571Y-123383246D01*
X132402571Y-123383246D02*
X132450190Y-123335627D01*
X132450190Y-123335627D02*
X132545428Y-123288008D01*
X132545428Y-123288008D02*
X132735904Y-123288008D01*
X132735904Y-123288008D02*
X132831142Y-123335627D01*
X133116857Y-123288008D02*
X133497809Y-123288008D01*
X133259714Y-122954675D02*
X133259714Y-123811817D01*
X133259714Y-123811817D02*
X133307333Y-123907056D01*
X133307333Y-123907056D02*
X133402571Y-123954675D01*
X133402571Y-123954675D02*
X133497809Y-123954675D01*
X134497810Y-123288008D02*
X134735905Y-123954675D01*
X134735905Y-123954675D02*
X134974000Y-123288008D01*
X135878762Y-123954675D02*
X135307334Y-123954675D01*
X135593048Y-123954675D02*
X135593048Y-122954675D01*
X135593048Y-122954675D02*
X135497810Y-123097532D01*
X135497810Y-123097532D02*
X135402572Y-123192770D01*
X135402572Y-123192770D02*
X135307334Y-123240389D01*
X116973996Y-125469380D02*
X116926377Y-125517000D01*
X116926377Y-125517000D02*
X116783520Y-125564619D01*
X116783520Y-125564619D02*
X116688282Y-125564619D01*
X116688282Y-125564619D02*
X116545425Y-125517000D01*
X116545425Y-125517000D02*
X116450187Y-125421761D01*
X116450187Y-125421761D02*
X116402568Y-125326523D01*
X116402568Y-125326523D02*
X116354949Y-125136047D01*
X116354949Y-125136047D02*
X116354949Y-124993190D01*
X116354949Y-124993190D02*
X116402568Y-124802714D01*
X116402568Y-124802714D02*
X116450187Y-124707476D01*
X116450187Y-124707476D02*
X116545425Y-124612238D01*
X116545425Y-124612238D02*
X116688282Y-124564619D01*
X116688282Y-124564619D02*
X116783520Y-124564619D01*
X116783520Y-124564619D02*
X116926377Y-124612238D01*
X116926377Y-124612238D02*
X116973996Y-124659857D01*
X117831139Y-125564619D02*
X117831139Y-125040809D01*
X117831139Y-125040809D02*
X117783520Y-124945571D01*
X117783520Y-124945571D02*
X117688282Y-124897952D01*
X117688282Y-124897952D02*
X117497806Y-124897952D01*
X117497806Y-124897952D02*
X117402568Y-124945571D01*
X117831139Y-125517000D02*
X117735901Y-125564619D01*
X117735901Y-125564619D02*
X117497806Y-125564619D01*
X117497806Y-125564619D02*
X117402568Y-125517000D01*
X117402568Y-125517000D02*
X117354949Y-125421761D01*
X117354949Y-125421761D02*
X117354949Y-125326523D01*
X117354949Y-125326523D02*
X117402568Y-125231285D01*
X117402568Y-125231285D02*
X117497806Y-125183666D01*
X117497806Y-125183666D02*
X117735901Y-125183666D01*
X117735901Y-125183666D02*
X117831139Y-125136047D01*
X118450187Y-125564619D02*
X118354949Y-125517000D01*
X118354949Y-125517000D02*
X118307330Y-125421761D01*
X118307330Y-125421761D02*
X118307330Y-124564619D01*
X119212092Y-125517000D02*
X119116854Y-125564619D01*
X119116854Y-125564619D02*
X118926378Y-125564619D01*
X118926378Y-125564619D02*
X118831140Y-125517000D01*
X118831140Y-125517000D02*
X118783521Y-125421761D01*
X118783521Y-125421761D02*
X118783521Y-125040809D01*
X118783521Y-125040809D02*
X118831140Y-124945571D01*
X118831140Y-124945571D02*
X118926378Y-124897952D01*
X118926378Y-124897952D02*
X119116854Y-124897952D01*
X119116854Y-124897952D02*
X119212092Y-124945571D01*
X119212092Y-124945571D02*
X119259711Y-125040809D01*
X119259711Y-125040809D02*
X119259711Y-125136047D01*
X119259711Y-125136047D02*
X118783521Y-125231285D01*
X119688283Y-125564619D02*
X119688283Y-124564619D01*
X119688283Y-124945571D02*
X119783521Y-124897952D01*
X119783521Y-124897952D02*
X119973997Y-124897952D01*
X119973997Y-124897952D02*
X120069235Y-124945571D01*
X120069235Y-124945571D02*
X120116854Y-124993190D01*
X120116854Y-124993190D02*
X120164473Y-125088428D01*
X120164473Y-125088428D02*
X120164473Y-125374142D01*
X120164473Y-125374142D02*
X120116854Y-125469380D01*
X120116854Y-125469380D02*
X120069235Y-125517000D01*
X120069235Y-125517000D02*
X119973997Y-125564619D01*
X119973997Y-125564619D02*
X119783521Y-125564619D01*
X119783521Y-125564619D02*
X119688283Y-125517000D01*
X121354950Y-125564619D02*
X121354950Y-124564619D01*
X121354950Y-125040809D02*
X121926378Y-125040809D01*
X121926378Y-125564619D02*
X121926378Y-124564619D01*
X122831140Y-125564619D02*
X122831140Y-125040809D01*
X122831140Y-125040809D02*
X122783521Y-124945571D01*
X122783521Y-124945571D02*
X122688283Y-124897952D01*
X122688283Y-124897952D02*
X122497807Y-124897952D01*
X122497807Y-124897952D02*
X122402569Y-124945571D01*
X122831140Y-125517000D02*
X122735902Y-125564619D01*
X122735902Y-125564619D02*
X122497807Y-125564619D01*
X122497807Y-125564619D02*
X122402569Y-125517000D01*
X122402569Y-125517000D02*
X122354950Y-125421761D01*
X122354950Y-125421761D02*
X122354950Y-125326523D01*
X122354950Y-125326523D02*
X122402569Y-125231285D01*
X122402569Y-125231285D02*
X122497807Y-125183666D01*
X122497807Y-125183666D02*
X122735902Y-125183666D01*
X122735902Y-125183666D02*
X122831140Y-125136047D01*
X123307331Y-125564619D02*
X123307331Y-124564619D01*
X123307331Y-124945571D02*
X123402569Y-124897952D01*
X123402569Y-124897952D02*
X123593045Y-124897952D01*
X123593045Y-124897952D02*
X123688283Y-124945571D01*
X123688283Y-124945571D02*
X123735902Y-124993190D01*
X123735902Y-124993190D02*
X123783521Y-125088428D01*
X123783521Y-125088428D02*
X123783521Y-125374142D01*
X123783521Y-125374142D02*
X123735902Y-125469380D01*
X123735902Y-125469380D02*
X123688283Y-125517000D01*
X123688283Y-125517000D02*
X123593045Y-125564619D01*
X123593045Y-125564619D02*
X123402569Y-125564619D01*
X123402569Y-125564619D02*
X123307331Y-125517000D01*
X124593045Y-125517000D02*
X124497807Y-125564619D01*
X124497807Y-125564619D02*
X124307331Y-125564619D01*
X124307331Y-125564619D02*
X124212093Y-125517000D01*
X124212093Y-125517000D02*
X124164474Y-125421761D01*
X124164474Y-125421761D02*
X124164474Y-125040809D01*
X124164474Y-125040809D02*
X124212093Y-124945571D01*
X124212093Y-124945571D02*
X124307331Y-124897952D01*
X124307331Y-124897952D02*
X124497807Y-124897952D01*
X124497807Y-124897952D02*
X124593045Y-124945571D01*
X124593045Y-124945571D02*
X124640664Y-125040809D01*
X124640664Y-125040809D02*
X124640664Y-125136047D01*
X124640664Y-125136047D02*
X124164474Y-125231285D01*
X125021617Y-125517000D02*
X125116855Y-125564619D01*
X125116855Y-125564619D02*
X125307331Y-125564619D01*
X125307331Y-125564619D02*
X125402569Y-125517000D01*
X125402569Y-125517000D02*
X125450188Y-125421761D01*
X125450188Y-125421761D02*
X125450188Y-125374142D01*
X125450188Y-125374142D02*
X125402569Y-125278904D01*
X125402569Y-125278904D02*
X125307331Y-125231285D01*
X125307331Y-125231285D02*
X125164474Y-125231285D01*
X125164474Y-125231285D02*
X125069236Y-125183666D01*
X125069236Y-125183666D02*
X125021617Y-125088428D01*
X125021617Y-125088428D02*
X125021617Y-125040809D01*
X125021617Y-125040809D02*
X125069236Y-124945571D01*
X125069236Y-124945571D02*
X125164474Y-124897952D01*
X125164474Y-124897952D02*
X125307331Y-124897952D01*
X125307331Y-124897952D02*
X125402569Y-124945571D01*
X125878760Y-125564619D02*
X125878760Y-124564619D01*
X126307331Y-125564619D02*
X126307331Y-125040809D01*
X126307331Y-125040809D02*
X126259712Y-124945571D01*
X126259712Y-124945571D02*
X126164474Y-124897952D01*
X126164474Y-124897952D02*
X126021617Y-124897952D01*
X126021617Y-124897952D02*
X125926379Y-124945571D01*
X125926379Y-124945571D02*
X125878760Y-124993190D01*
D12*
X153071428Y-60654819D02*
X152738095Y-60178628D01*
X152500000Y-60654819D02*
X152500000Y-59654819D01*
X152500000Y-59654819D02*
X152880952Y-59654819D01*
X152880952Y-59654819D02*
X152976190Y-59702438D01*
X152976190Y-59702438D02*
X153023809Y-59750057D01*
X153023809Y-59750057D02*
X153071428Y-59845295D01*
X153071428Y-59845295D02*
X153071428Y-59988152D01*
X153071428Y-59988152D02*
X153023809Y-60083390D01*
X153023809Y-60083390D02*
X152976190Y-60131009D01*
X152976190Y-60131009D02*
X152880952Y-60178628D01*
X152880952Y-60178628D02*
X152500000Y-60178628D01*
X153500000Y-60131009D02*
X153833333Y-60131009D01*
X153976190Y-60654819D02*
X153500000Y-60654819D01*
X153500000Y-60654819D02*
X153500000Y-59654819D01*
X153500000Y-59654819D02*
X153976190Y-59654819D01*
X154357143Y-60607200D02*
X154500000Y-60654819D01*
X154500000Y-60654819D02*
X154738095Y-60654819D01*
X154738095Y-60654819D02*
X154833333Y-60607200D01*
X154833333Y-60607200D02*
X154880952Y-60559580D01*
X154880952Y-60559580D02*
X154928571Y-60464342D01*
X154928571Y-60464342D02*
X154928571Y-60369104D01*
X154928571Y-60369104D02*
X154880952Y-60273866D01*
X154880952Y-60273866D02*
X154833333Y-60226247D01*
X154833333Y-60226247D02*
X154738095Y-60178628D01*
X154738095Y-60178628D02*
X154547619Y-60131009D01*
X154547619Y-60131009D02*
X154452381Y-60083390D01*
X154452381Y-60083390D02*
X154404762Y-60035771D01*
X154404762Y-60035771D02*
X154357143Y-59940533D01*
X154357143Y-59940533D02*
X154357143Y-59845295D01*
X154357143Y-59845295D02*
X154404762Y-59750057D01*
X154404762Y-59750057D02*
X154452381Y-59702438D01*
X154452381Y-59702438D02*
X154547619Y-59654819D01*
X154547619Y-59654819D02*
X154785714Y-59654819D01*
X154785714Y-59654819D02*
X154928571Y-59702438D01*
X155357143Y-60131009D02*
X155690476Y-60131009D01*
X155833333Y-60654819D02*
X155357143Y-60654819D01*
X155357143Y-60654819D02*
X155357143Y-59654819D01*
X155357143Y-59654819D02*
X155833333Y-59654819D01*
X156119048Y-59654819D02*
X156690476Y-59654819D01*
X156404762Y-60654819D02*
X156404762Y-59654819D01*
X157547619Y-60654819D02*
X156976191Y-60654819D01*
X157261905Y-60654819D02*
X157261905Y-59654819D01*
X157261905Y-59654819D02*
X157166667Y-59797676D01*
X157166667Y-59797676D02*
X157071429Y-59892914D01*
X157071429Y-59892914D02*
X156976191Y-59940533D01*
X160166666Y-75554819D02*
X160166666Y-76269104D01*
X160166666Y-76269104D02*
X160119047Y-76411961D01*
X160119047Y-76411961D02*
X160023809Y-76507200D01*
X160023809Y-76507200D02*
X159880952Y-76554819D01*
X159880952Y-76554819D02*
X159785714Y-76554819D01*
X160547619Y-75554819D02*
X161214285Y-75554819D01*
X161214285Y-75554819D02*
X160785714Y-76554819D01*
X139766666Y-113704819D02*
X139766666Y-114419104D01*
X139766666Y-114419104D02*
X139719047Y-114561961D01*
X139719047Y-114561961D02*
X139623809Y-114657200D01*
X139623809Y-114657200D02*
X139480952Y-114704819D01*
X139480952Y-114704819D02*
X139385714Y-114704819D01*
X140719047Y-113704819D02*
X140242857Y-113704819D01*
X140242857Y-113704819D02*
X140195238Y-114181009D01*
X140195238Y-114181009D02*
X140242857Y-114133390D01*
X140242857Y-114133390D02*
X140338095Y-114085771D01*
X140338095Y-114085771D02*
X140576190Y-114085771D01*
X140576190Y-114085771D02*
X140671428Y-114133390D01*
X140671428Y-114133390D02*
X140719047Y-114181009D01*
X140719047Y-114181009D02*
X140766666Y-114276247D01*
X140766666Y-114276247D02*
X140766666Y-114514342D01*
X140766666Y-114514342D02*
X140719047Y-114609580D01*
X140719047Y-114609580D02*
X140671428Y-114657200D01*
X140671428Y-114657200D02*
X140576190Y-114704819D01*
X140576190Y-114704819D02*
X140338095Y-114704819D01*
X140338095Y-114704819D02*
X140242857Y-114657200D01*
X140242857Y-114657200D02*
X140195238Y-114609580D01*
X112890476Y-79446819D02*
X112890476Y-78446819D01*
X112890476Y-78446819D02*
X113223809Y-79161104D01*
X113223809Y-79161104D02*
X113557142Y-78446819D01*
X113557142Y-78446819D02*
X113557142Y-79446819D01*
X114033333Y-79446819D02*
X114033333Y-78446819D01*
X114604761Y-79446819D02*
X114176190Y-78875390D01*
X114604761Y-78446819D02*
X114033333Y-79018247D01*
X115557142Y-79446819D02*
X114985714Y-79446819D01*
X115271428Y-79446819D02*
X115271428Y-78446819D01*
X115271428Y-78446819D02*
X115176190Y-78589676D01*
X115176190Y-78589676D02*
X115080952Y-78684914D01*
X115080952Y-78684914D02*
X114985714Y-78732533D01*
X139300595Y-130354819D02*
X139300595Y-131164342D01*
X139300595Y-131164342D02*
X139348214Y-131259580D01*
X139348214Y-131259580D02*
X139395833Y-131307200D01*
X139395833Y-131307200D02*
X139491071Y-131354819D01*
X139491071Y-131354819D02*
X139681547Y-131354819D01*
X139681547Y-131354819D02*
X139776785Y-131307200D01*
X139776785Y-131307200D02*
X139824404Y-131259580D01*
X139824404Y-131259580D02*
X139872023Y-131164342D01*
X139872023Y-131164342D02*
X139872023Y-130354819D01*
X140824404Y-130354819D02*
X140348214Y-130354819D01*
X140348214Y-130354819D02*
X140300595Y-130831009D01*
X140300595Y-130831009D02*
X140348214Y-130783390D01*
X140348214Y-130783390D02*
X140443452Y-130735771D01*
X140443452Y-130735771D02*
X140681547Y-130735771D01*
X140681547Y-130735771D02*
X140776785Y-130783390D01*
X140776785Y-130783390D02*
X140824404Y-130831009D01*
X140824404Y-130831009D02*
X140872023Y-130926247D01*
X140872023Y-130926247D02*
X140872023Y-131164342D01*
X140872023Y-131164342D02*
X140824404Y-131259580D01*
X140824404Y-131259580D02*
X140776785Y-131307200D01*
X140776785Y-131307200D02*
X140681547Y-131354819D01*
X140681547Y-131354819D02*
X140443452Y-131354819D01*
X140443452Y-131354819D02*
X140348214Y-131307200D01*
X140348214Y-131307200D02*
X140300595Y-131259580D01*
X121766666Y-60031009D02*
X121909523Y-60078628D01*
X121909523Y-60078628D02*
X121957142Y-60126247D01*
X121957142Y-60126247D02*
X122004761Y-60221485D01*
X122004761Y-60221485D02*
X122004761Y-60364342D01*
X122004761Y-60364342D02*
X121957142Y-60459580D01*
X121957142Y-60459580D02*
X121909523Y-60507200D01*
X121909523Y-60507200D02*
X121814285Y-60554819D01*
X121814285Y-60554819D02*
X121433333Y-60554819D01*
X121433333Y-60554819D02*
X121433333Y-59554819D01*
X121433333Y-59554819D02*
X121766666Y-59554819D01*
X121766666Y-59554819D02*
X121861904Y-59602438D01*
X121861904Y-59602438D02*
X121909523Y-59650057D01*
X121909523Y-59650057D02*
X121957142Y-59745295D01*
X121957142Y-59745295D02*
X121957142Y-59840533D01*
X121957142Y-59840533D02*
X121909523Y-59935771D01*
X121909523Y-59935771D02*
X121861904Y-59983390D01*
X121861904Y-59983390D02*
X121766666Y-60031009D01*
X121766666Y-60031009D02*
X121433333Y-60031009D01*
X122623809Y-59554819D02*
X122814285Y-59554819D01*
X122814285Y-59554819D02*
X122909523Y-59602438D01*
X122909523Y-59602438D02*
X123004761Y-59697676D01*
X123004761Y-59697676D02*
X123052380Y-59888152D01*
X123052380Y-59888152D02*
X123052380Y-60221485D01*
X123052380Y-60221485D02*
X123004761Y-60411961D01*
X123004761Y-60411961D02*
X122909523Y-60507200D01*
X122909523Y-60507200D02*
X122814285Y-60554819D01*
X122814285Y-60554819D02*
X122623809Y-60554819D01*
X122623809Y-60554819D02*
X122528571Y-60507200D01*
X122528571Y-60507200D02*
X122433333Y-60411961D01*
X122433333Y-60411961D02*
X122385714Y-60221485D01*
X122385714Y-60221485D02*
X122385714Y-59888152D01*
X122385714Y-59888152D02*
X122433333Y-59697676D01*
X122433333Y-59697676D02*
X122528571Y-59602438D01*
X122528571Y-59602438D02*
X122623809Y-59554819D01*
X123671428Y-59554819D02*
X123861904Y-59554819D01*
X123861904Y-59554819D02*
X123957142Y-59602438D01*
X123957142Y-59602438D02*
X124052380Y-59697676D01*
X124052380Y-59697676D02*
X124099999Y-59888152D01*
X124099999Y-59888152D02*
X124099999Y-60221485D01*
X124099999Y-60221485D02*
X124052380Y-60411961D01*
X124052380Y-60411961D02*
X123957142Y-60507200D01*
X123957142Y-60507200D02*
X123861904Y-60554819D01*
X123861904Y-60554819D02*
X123671428Y-60554819D01*
X123671428Y-60554819D02*
X123576190Y-60507200D01*
X123576190Y-60507200D02*
X123480952Y-60411961D01*
X123480952Y-60411961D02*
X123433333Y-60221485D01*
X123433333Y-60221485D02*
X123433333Y-59888152D01*
X123433333Y-59888152D02*
X123480952Y-59697676D01*
X123480952Y-59697676D02*
X123576190Y-59602438D01*
X123576190Y-59602438D02*
X123671428Y-59554819D01*
X124385714Y-59554819D02*
X124957142Y-59554819D01*
X124671428Y-60554819D02*
X124671428Y-59554819D01*
X125814285Y-60554819D02*
X125242857Y-60554819D01*
X125528571Y-60554819D02*
X125528571Y-59554819D01*
X125528571Y-59554819D02*
X125433333Y-59697676D01*
X125433333Y-59697676D02*
X125338095Y-59792914D01*
X125338095Y-59792914D02*
X125242857Y-59840533D01*
X136088095Y-97104819D02*
X136088095Y-97914342D01*
X136088095Y-97914342D02*
X136135714Y-98009580D01*
X136135714Y-98009580D02*
X136183333Y-98057200D01*
X136183333Y-98057200D02*
X136278571Y-98104819D01*
X136278571Y-98104819D02*
X136469047Y-98104819D01*
X136469047Y-98104819D02*
X136564285Y-98057200D01*
X136564285Y-98057200D02*
X136611904Y-98009580D01*
X136611904Y-98009580D02*
X136659523Y-97914342D01*
X136659523Y-97914342D02*
X136659523Y-97104819D01*
X137564285Y-97104819D02*
X137373809Y-97104819D01*
X137373809Y-97104819D02*
X137278571Y-97152438D01*
X137278571Y-97152438D02*
X137230952Y-97200057D01*
X137230952Y-97200057D02*
X137135714Y-97342914D01*
X137135714Y-97342914D02*
X137088095Y-97533390D01*
X137088095Y-97533390D02*
X137088095Y-97914342D01*
X137088095Y-97914342D02*
X137135714Y-98009580D01*
X137135714Y-98009580D02*
X137183333Y-98057200D01*
X137183333Y-98057200D02*
X137278571Y-98104819D01*
X137278571Y-98104819D02*
X137469047Y-98104819D01*
X137469047Y-98104819D02*
X137564285Y-98057200D01*
X137564285Y-98057200D02*
X137611904Y-98009580D01*
X137611904Y-98009580D02*
X137659523Y-97914342D01*
X137659523Y-97914342D02*
X137659523Y-97676247D01*
X137659523Y-97676247D02*
X137611904Y-97581009D01*
X137611904Y-97581009D02*
X137564285Y-97533390D01*
X137564285Y-97533390D02*
X137469047Y-97485771D01*
X137469047Y-97485771D02*
X137278571Y-97485771D01*
X137278571Y-97485771D02*
X137183333Y-97533390D01*
X137183333Y-97533390D02*
X137135714Y-97581009D01*
X137135714Y-97581009D02*
X137088095Y-97676247D01*
X142775595Y-103654819D02*
X142775595Y-104464342D01*
X142775595Y-104464342D02*
X142823214Y-104559580D01*
X142823214Y-104559580D02*
X142870833Y-104607200D01*
X142870833Y-104607200D02*
X142966071Y-104654819D01*
X142966071Y-104654819D02*
X143156547Y-104654819D01*
X143156547Y-104654819D02*
X143251785Y-104607200D01*
X143251785Y-104607200D02*
X143299404Y-104559580D01*
X143299404Y-104559580D02*
X143347023Y-104464342D01*
X143347023Y-104464342D02*
X143347023Y-103654819D01*
X143727976Y-103654819D02*
X144347023Y-103654819D01*
X144347023Y-103654819D02*
X144013690Y-104035771D01*
X144013690Y-104035771D02*
X144156547Y-104035771D01*
X144156547Y-104035771D02*
X144251785Y-104083390D01*
X144251785Y-104083390D02*
X144299404Y-104131009D01*
X144299404Y-104131009D02*
X144347023Y-104226247D01*
X144347023Y-104226247D02*
X144347023Y-104464342D01*
X144347023Y-104464342D02*
X144299404Y-104559580D01*
X144299404Y-104559580D02*
X144251785Y-104607200D01*
X144251785Y-104607200D02*
X144156547Y-104654819D01*
X144156547Y-104654819D02*
X143870833Y-104654819D01*
X143870833Y-104654819D02*
X143775595Y-104607200D01*
X143775595Y-104607200D02*
X143727976Y-104559580D01*
X139616666Y-84754819D02*
X139616666Y-85469104D01*
X139616666Y-85469104D02*
X139569047Y-85611961D01*
X139569047Y-85611961D02*
X139473809Y-85707200D01*
X139473809Y-85707200D02*
X139330952Y-85754819D01*
X139330952Y-85754819D02*
X139235714Y-85754819D01*
X139997619Y-84754819D02*
X140616666Y-84754819D01*
X140616666Y-84754819D02*
X140283333Y-85135771D01*
X140283333Y-85135771D02*
X140426190Y-85135771D01*
X140426190Y-85135771D02*
X140521428Y-85183390D01*
X140521428Y-85183390D02*
X140569047Y-85231009D01*
X140569047Y-85231009D02*
X140616666Y-85326247D01*
X140616666Y-85326247D02*
X140616666Y-85564342D01*
X140616666Y-85564342D02*
X140569047Y-85659580D01*
X140569047Y-85659580D02*
X140521428Y-85707200D01*
X140521428Y-85707200D02*
X140426190Y-85754819D01*
X140426190Y-85754819D02*
X140140476Y-85754819D01*
X140140476Y-85754819D02*
X140045238Y-85707200D01*
X140045238Y-85707200D02*
X139997619Y-85659580D01*
X139766666Y-133454819D02*
X139766666Y-134169104D01*
X139766666Y-134169104D02*
X139719047Y-134311961D01*
X139719047Y-134311961D02*
X139623809Y-134407200D01*
X139623809Y-134407200D02*
X139480952Y-134454819D01*
X139480952Y-134454819D02*
X139385714Y-134454819D01*
X140195238Y-133550057D02*
X140242857Y-133502438D01*
X140242857Y-133502438D02*
X140338095Y-133454819D01*
X140338095Y-133454819D02*
X140576190Y-133454819D01*
X140576190Y-133454819D02*
X140671428Y-133502438D01*
X140671428Y-133502438D02*
X140719047Y-133550057D01*
X140719047Y-133550057D02*
X140766666Y-133645295D01*
X140766666Y-133645295D02*
X140766666Y-133740533D01*
X140766666Y-133740533D02*
X140719047Y-133883390D01*
X140719047Y-133883390D02*
X140147619Y-134454819D01*
X140147619Y-134454819D02*
X140766666Y-134454819D01*
X152554819Y-109361904D02*
X153364342Y-109361904D01*
X153364342Y-109361904D02*
X153459580Y-109314285D01*
X153459580Y-109314285D02*
X153507200Y-109266666D01*
X153507200Y-109266666D02*
X153554819Y-109171428D01*
X153554819Y-109171428D02*
X153554819Y-108980952D01*
X153554819Y-108980952D02*
X153507200Y-108885714D01*
X153507200Y-108885714D02*
X153459580Y-108838095D01*
X153459580Y-108838095D02*
X153364342Y-108790476D01*
X153364342Y-108790476D02*
X152554819Y-108790476D01*
X152650057Y-108361904D02*
X152602438Y-108314285D01*
X152602438Y-108314285D02*
X152554819Y-108219047D01*
X152554819Y-108219047D02*
X152554819Y-107980952D01*
X152554819Y-107980952D02*
X152602438Y-107885714D01*
X152602438Y-107885714D02*
X152650057Y-107838095D01*
X152650057Y-107838095D02*
X152745295Y-107790476D01*
X152745295Y-107790476D02*
X152840533Y-107790476D01*
X152840533Y-107790476D02*
X152983390Y-107838095D01*
X152983390Y-107838095D02*
X153554819Y-108409523D01*
X153554819Y-108409523D02*
X153554819Y-107790476D01*
X119466666Y-87104819D02*
X119466666Y-87819104D01*
X119466666Y-87819104D02*
X119419047Y-87961961D01*
X119419047Y-87961961D02*
X119323809Y-88057200D01*
X119323809Y-88057200D02*
X119180952Y-88104819D01*
X119180952Y-88104819D02*
X119085714Y-88104819D01*
X120371428Y-87104819D02*
X120180952Y-87104819D01*
X120180952Y-87104819D02*
X120085714Y-87152438D01*
X120085714Y-87152438D02*
X120038095Y-87200057D01*
X120038095Y-87200057D02*
X119942857Y-87342914D01*
X119942857Y-87342914D02*
X119895238Y-87533390D01*
X119895238Y-87533390D02*
X119895238Y-87914342D01*
X119895238Y-87914342D02*
X119942857Y-88009580D01*
X119942857Y-88009580D02*
X119990476Y-88057200D01*
X119990476Y-88057200D02*
X120085714Y-88104819D01*
X120085714Y-88104819D02*
X120276190Y-88104819D01*
X120276190Y-88104819D02*
X120371428Y-88057200D01*
X120371428Y-88057200D02*
X120419047Y-88009580D01*
X120419047Y-88009580D02*
X120466666Y-87914342D01*
X120466666Y-87914342D02*
X120466666Y-87676247D01*
X120466666Y-87676247D02*
X120419047Y-87581009D01*
X120419047Y-87581009D02*
X120371428Y-87533390D01*
X120371428Y-87533390D02*
X120276190Y-87485771D01*
X120276190Y-87485771D02*
X120085714Y-87485771D01*
X120085714Y-87485771D02*
X119990476Y-87533390D01*
X119990476Y-87533390D02*
X119942857Y-87581009D01*
X119942857Y-87581009D02*
X119895238Y-87676247D01*
X154124819Y-133938094D02*
X153124819Y-133938094D01*
X153124819Y-133938094D02*
X153124819Y-133699999D01*
X153124819Y-133699999D02*
X153172438Y-133557142D01*
X153172438Y-133557142D02*
X153267676Y-133461904D01*
X153267676Y-133461904D02*
X153362914Y-133414285D01*
X153362914Y-133414285D02*
X153553390Y-133366666D01*
X153553390Y-133366666D02*
X153696247Y-133366666D01*
X153696247Y-133366666D02*
X153886723Y-133414285D01*
X153886723Y-133414285D02*
X153981961Y-133461904D01*
X153981961Y-133461904D02*
X154077200Y-133557142D01*
X154077200Y-133557142D02*
X154124819Y-133699999D01*
X154124819Y-133699999D02*
X154124819Y-133938094D01*
X153220057Y-132985713D02*
X153172438Y-132938094D01*
X153172438Y-132938094D02*
X153124819Y-132842856D01*
X153124819Y-132842856D02*
X153124819Y-132604761D01*
X153124819Y-132604761D02*
X153172438Y-132509523D01*
X153172438Y-132509523D02*
X153220057Y-132461904D01*
X153220057Y-132461904D02*
X153315295Y-132414285D01*
X153315295Y-132414285D02*
X153410533Y-132414285D01*
X153410533Y-132414285D02*
X153553390Y-132461904D01*
X153553390Y-132461904D02*
X154124819Y-133033332D01*
X154124819Y-133033332D02*
X154124819Y-132414285D01*
X128814819Y-74913220D02*
X129624342Y-74913220D01*
X129624342Y-74913220D02*
X129719580Y-74865601D01*
X129719580Y-74865601D02*
X129767200Y-74817982D01*
X129767200Y-74817982D02*
X129814819Y-74722744D01*
X129814819Y-74722744D02*
X129814819Y-74532268D01*
X129814819Y-74532268D02*
X129767200Y-74437030D01*
X129767200Y-74437030D02*
X129719580Y-74389411D01*
X129719580Y-74389411D02*
X129624342Y-74341792D01*
X129624342Y-74341792D02*
X128814819Y-74341792D01*
X129814819Y-73341792D02*
X129814819Y-73913220D01*
X129814819Y-73627506D02*
X128814819Y-73627506D01*
X128814819Y-73627506D02*
X128957676Y-73722744D01*
X128957676Y-73722744D02*
X129052914Y-73817982D01*
X129052914Y-73817982D02*
X129100533Y-73913220D01*
X161866666Y-103454819D02*
X161866666Y-104169104D01*
X161866666Y-104169104D02*
X161819047Y-104311961D01*
X161819047Y-104311961D02*
X161723809Y-104407200D01*
X161723809Y-104407200D02*
X161580952Y-104454819D01*
X161580952Y-104454819D02*
X161485714Y-104454819D01*
X162866666Y-104454819D02*
X162295238Y-104454819D01*
X162580952Y-104454819D02*
X162580952Y-103454819D01*
X162580952Y-103454819D02*
X162485714Y-103597676D01*
X162485714Y-103597676D02*
X162390476Y-103692914D01*
X162390476Y-103692914D02*
X162295238Y-103740533D01*
X143300595Y-97104819D02*
X143300595Y-97914342D01*
X143300595Y-97914342D02*
X143348214Y-98009580D01*
X143348214Y-98009580D02*
X143395833Y-98057200D01*
X143395833Y-98057200D02*
X143491071Y-98104819D01*
X143491071Y-98104819D02*
X143681547Y-98104819D01*
X143681547Y-98104819D02*
X143776785Y-98057200D01*
X143776785Y-98057200D02*
X143824404Y-98009580D01*
X143824404Y-98009580D02*
X143872023Y-97914342D01*
X143872023Y-97914342D02*
X143872023Y-97104819D01*
X144252976Y-97104819D02*
X144919642Y-97104819D01*
X144919642Y-97104819D02*
X144491071Y-98104819D01*
X152224819Y-80525594D02*
X151224819Y-80525594D01*
X151224819Y-80525594D02*
X151224819Y-80287499D01*
X151224819Y-80287499D02*
X151272438Y-80144642D01*
X151272438Y-80144642D02*
X151367676Y-80049404D01*
X151367676Y-80049404D02*
X151462914Y-80001785D01*
X151462914Y-80001785D02*
X151653390Y-79954166D01*
X151653390Y-79954166D02*
X151796247Y-79954166D01*
X151796247Y-79954166D02*
X151986723Y-80001785D01*
X151986723Y-80001785D02*
X152081961Y-80049404D01*
X152081961Y-80049404D02*
X152177200Y-80144642D01*
X152177200Y-80144642D02*
X152224819Y-80287499D01*
X152224819Y-80287499D02*
X152224819Y-80525594D01*
X151224819Y-79620832D02*
X151224819Y-79001785D01*
X151224819Y-79001785D02*
X151605771Y-79335118D01*
X151605771Y-79335118D02*
X151605771Y-79192261D01*
X151605771Y-79192261D02*
X151653390Y-79097023D01*
X151653390Y-79097023D02*
X151701009Y-79049404D01*
X151701009Y-79049404D02*
X151796247Y-79001785D01*
X151796247Y-79001785D02*
X152034342Y-79001785D01*
X152034342Y-79001785D02*
X152129580Y-79049404D01*
X152129580Y-79049404D02*
X152177200Y-79097023D01*
X152177200Y-79097023D02*
X152224819Y-79192261D01*
X152224819Y-79192261D02*
X152224819Y-79477975D01*
X152224819Y-79477975D02*
X152177200Y-79573213D01*
X152177200Y-79573213D02*
X152129580Y-79620832D01*
X162266666Y-83834819D02*
X162266666Y-84549104D01*
X162266666Y-84549104D02*
X162219047Y-84691961D01*
X162219047Y-84691961D02*
X162123809Y-84787200D01*
X162123809Y-84787200D02*
X161980952Y-84834819D01*
X161980952Y-84834819D02*
X161885714Y-84834819D01*
X163171428Y-84168152D02*
X163171428Y-84834819D01*
X162933333Y-83787200D02*
X162695238Y-84501485D01*
X162695238Y-84501485D02*
X163314285Y-84501485D01*
X119100595Y-97854819D02*
X119100595Y-98664342D01*
X119100595Y-98664342D02*
X119148214Y-98759580D01*
X119148214Y-98759580D02*
X119195833Y-98807200D01*
X119195833Y-98807200D02*
X119291071Y-98854819D01*
X119291071Y-98854819D02*
X119481547Y-98854819D01*
X119481547Y-98854819D02*
X119576785Y-98807200D01*
X119576785Y-98807200D02*
X119624404Y-98759580D01*
X119624404Y-98759580D02*
X119672023Y-98664342D01*
X119672023Y-98664342D02*
X119672023Y-97854819D01*
X120576785Y-98188152D02*
X120576785Y-98854819D01*
X120338690Y-97807200D02*
X120100595Y-98521485D01*
X120100595Y-98521485D02*
X120719642Y-98521485D01*
%TO.C,R12*%
D13*
X155537742Y-104877500D02*
X156012258Y-104877500D01*
X155537742Y-105922500D02*
X156012258Y-105922500D01*
%TO.C,R10*%
X146862742Y-131677500D02*
X147337258Y-131677500D01*
X146862742Y-132722500D02*
X147337258Y-132722500D01*
%TO.C,R5*%
X139937742Y-121127500D02*
X140412258Y-121127500D01*
X139937742Y-122172500D02*
X140412258Y-122172500D01*
%TO.C,R14*%
X139287742Y-86577500D02*
X139762258Y-86577500D01*
X139287742Y-87622500D02*
X139762258Y-87622500D01*
%TO.C,R1*%
X123787742Y-69577500D02*
X124262258Y-69577500D01*
X123787742Y-70622500D02*
X124262258Y-70622500D01*
%TO.C,R6*%
X133462258Y-131777500D02*
X132987742Y-131777500D01*
X133462258Y-132822500D02*
X132987742Y-132822500D01*
%TO.C,RESET1*%
X153350000Y-61300000D02*
X156650000Y-61300000D01*
X153350000Y-61600000D02*
X153350000Y-61300000D01*
X153350000Y-63800000D02*
X153350000Y-64100000D01*
X153350000Y-64100000D02*
X156650000Y-64100000D01*
X156650000Y-61300000D02*
X156650000Y-61600000D01*
X156650000Y-64100000D02*
X156650000Y-63800000D01*
%TO.C,R2*%
X155637742Y-111277500D02*
X156112258Y-111277500D01*
X155637742Y-112322500D02*
X156112258Y-112322500D01*
%TO.C,R13*%
X124187258Y-67877500D02*
X123712742Y-67877500D01*
X124187258Y-68922500D02*
X123712742Y-68922500D01*
%TO.C,R8*%
X154177500Y-57037742D02*
X154177500Y-57512258D01*
X155222500Y-57037742D02*
X155222500Y-57512258D01*
%TO.C,R3*%
X149977500Y-80062258D02*
X149977500Y-79587742D01*
X151022500Y-80062258D02*
X151022500Y-79587742D01*
%TO.C,R4*%
X154562742Y-70777500D02*
X155037258Y-70777500D01*
X154562742Y-71822500D02*
X155037258Y-71822500D01*
%TO.C,R7*%
X155677500Y-57562258D02*
X155677500Y-57087742D01*
X156722500Y-57562258D02*
X156722500Y-57087742D01*
%TO.C,C1*%
X128434420Y-59410000D02*
X128715580Y-59410000D01*
X128434420Y-58390000D02*
X128715580Y-58390000D01*
%TO.C,C9*%
X142610000Y-86315580D02*
X142610000Y-86034420D01*
X141590000Y-86315580D02*
X141590000Y-86034420D01*
%TO.C,C13*%
X167510000Y-105640580D02*
X167510000Y-105359420D01*
X166490000Y-105640580D02*
X166490000Y-105359420D01*
%TO.C,C14*%
X123909420Y-72210000D02*
X124190580Y-72210000D01*
X123909420Y-71190000D02*
X124190580Y-71190000D01*
%TO.C,C15*%
X135510000Y-97409420D02*
X135510000Y-97690580D01*
X134490000Y-97409420D02*
X134490000Y-97690580D01*
%TO.C,C18*%
X144665580Y-93260000D02*
X144384420Y-93260000D01*
X144665580Y-92240000D02*
X144384420Y-92240000D01*
%TO.C,C22*%
X139384420Y-85910000D02*
X139665580Y-85910000D01*
X139384420Y-84890000D02*
X139665580Y-84890000D01*
%TO.C,C17*%
X142710000Y-97184420D02*
X142710000Y-97465580D01*
X141690000Y-97184420D02*
X141690000Y-97465580D01*
%TO.C,C5*%
X117910000Y-82065580D02*
X117910000Y-81784420D01*
X116890000Y-82065580D02*
X116890000Y-81784420D01*
%TO.C,C19*%
X160610000Y-86815580D02*
X160610000Y-86534420D01*
X159590000Y-86815580D02*
X159590000Y-86534420D01*
%TO.C,C8*%
X139784420Y-114710000D02*
X140065580Y-114710000D01*
X139784420Y-113690000D02*
X140065580Y-113690000D01*
%TO.C,C2*%
X128434420Y-57010000D02*
X128715580Y-57010000D01*
X128434420Y-55990000D02*
X128715580Y-55990000D01*
%TO.C,C21*%
X135265580Y-85860000D02*
X134984420Y-85860000D01*
X135265580Y-84840000D02*
X134984420Y-84840000D01*
%TO.C,C20*%
X144940580Y-87460000D02*
X144659420Y-87460000D01*
X144940580Y-86440000D02*
X144659420Y-86440000D01*
%TO.C,C23*%
X144940580Y-85860000D02*
X144659420Y-85860000D01*
X144940580Y-84840000D02*
X144659420Y-84840000D01*
%TO.C,C3*%
X140910000Y-106459420D02*
X140910000Y-106740580D01*
X139890000Y-106459420D02*
X139890000Y-106740580D01*
%TO.C,C10*%
X153610000Y-57440580D02*
X153610000Y-57159420D01*
X152590000Y-57440580D02*
X152590000Y-57159420D01*
%TO.C,C27*%
X117082500Y-101425580D02*
X117082500Y-101144420D01*
X116062500Y-101425580D02*
X116062500Y-101144420D01*
%TO.C,C26*%
X123682500Y-101194420D02*
X123682500Y-101475580D01*
X122662500Y-101194420D02*
X122662500Y-101475580D01*
%TO.C,C16*%
X137159420Y-93260000D02*
X137440580Y-93260000D01*
X137159420Y-92240000D02*
X137440580Y-92240000D01*
%TO.C,C25*%
X135265580Y-87560000D02*
X134984420Y-87560000D01*
X135265580Y-86540000D02*
X134984420Y-86540000D01*
%TO.C,J7*%
X156440000Y-77190000D02*
X164560000Y-77190000D01*
X164560000Y-81910000D01*
X156440000Y-81910000D01*
X156440000Y-77190000D01*
X164560000Y-79800000D02*
X163950000Y-79800000D01*
X164560000Y-78500000D02*
X163950000Y-78500000D01*
X163950000Y-81300000D02*
X163950000Y-77800000D01*
X163950000Y-77800000D02*
X162000000Y-77800000D01*
X162000000Y-77800000D02*
X162000000Y-77190000D01*
X161600000Y-80800000D02*
X161600000Y-81300000D01*
X161500000Y-81300000D02*
X161500000Y-80800000D01*
X161400000Y-81300000D02*
X161400000Y-80800000D01*
X161400000Y-80800000D02*
X161600000Y-80800000D01*
X159600000Y-80800000D02*
X159600000Y-81300000D01*
X159500000Y-81300000D02*
X159500000Y-80800000D01*
X159400000Y-81300000D02*
X159400000Y-80800000D01*
X159400000Y-80800000D02*
X159600000Y-80800000D01*
X159000000Y-77800000D02*
X157050000Y-77800000D01*
X159000000Y-77190000D02*
X159000000Y-77800000D01*
X158200000Y-77190000D02*
X158200000Y-76990000D01*
X158200000Y-77090000D02*
X157900000Y-77090000D01*
X158200000Y-76990000D02*
X157900000Y-76990000D01*
X157900000Y-76990000D02*
X157900000Y-77190000D01*
X157390000Y-76890000D02*
X156140000Y-76890000D01*
X157050000Y-81300000D02*
X163950000Y-81300000D01*
X157050000Y-77800000D02*
X157050000Y-81300000D01*
X156440000Y-79800000D02*
X157050000Y-79800000D01*
X156440000Y-78500000D02*
X157050000Y-78500000D01*
X156140000Y-76890000D02*
X156140000Y-78140000D01*
%TO.C,J5*%
X137040000Y-115340000D02*
X143160000Y-115340000D01*
X143160000Y-120060000D01*
X137040000Y-120060000D01*
X137040000Y-115340000D01*
X143160000Y-117950000D02*
X142550000Y-117950000D01*
X143160000Y-116650000D02*
X142550000Y-116650000D01*
X142550000Y-119450000D02*
X142550000Y-115950000D01*
X142550000Y-115950000D02*
X140600000Y-115950000D01*
X140600000Y-115950000D02*
X140600000Y-115340000D01*
X140200000Y-118950000D02*
X140200000Y-119450000D01*
X140100000Y-119450000D02*
X140100000Y-118950000D01*
X140000000Y-119450000D02*
X140000000Y-118950000D01*
X140000000Y-118950000D02*
X140200000Y-118950000D01*
X139600000Y-115950000D02*
X137650000Y-115950000D01*
X139600000Y-115340000D02*
X139600000Y-115950000D01*
X138800000Y-115340000D02*
X138800000Y-115140000D01*
X138800000Y-115240000D02*
X138500000Y-115240000D01*
X138800000Y-115140000D02*
X138500000Y-115140000D01*
X138500000Y-115140000D02*
X138500000Y-115340000D01*
X137990000Y-115040000D02*
X136740000Y-115040000D01*
X137650000Y-119450000D02*
X142550000Y-119450000D01*
X137650000Y-115950000D02*
X137650000Y-119450000D01*
X137040000Y-117950000D02*
X137650000Y-117950000D01*
X137040000Y-116650000D02*
X137650000Y-116650000D01*
X136740000Y-115040000D02*
X136740000Y-116290000D01*
%TO.C,MK1*%
X112775000Y-80142000D02*
X112495000Y-80142000D01*
X112775000Y-79862000D01*
X112775000Y-80142000D01*
G36*
X112775000Y-80142000D02*
G01*
X112495000Y-80142000D01*
X112775000Y-79862000D01*
X112775000Y-80142000D01*
G37*
X115625000Y-83842000D02*
X112775000Y-83842000D01*
X115625000Y-80142000D02*
X115625000Y-83842000D01*
X113075000Y-80142000D02*
X115625000Y-80142000D01*
X112775000Y-83842000D02*
X112775000Y-80442000D01*
%TO.C,U5*%
X141512500Y-130010000D02*
X141752500Y-130340000D01*
X141272500Y-130340000D01*
X141512500Y-130010000D01*
G36*
X141752500Y-130340000D02*
G01*
X141272500Y-130340000D01*
X141512500Y-130010000D01*
X141752500Y-130340000D01*
G37*
X140972500Y-130060000D02*
X139152500Y-130060000D01*
X140972500Y-130010000D02*
X140972500Y-130060000D01*
X140972500Y-126940000D02*
X140972500Y-126990000D01*
X139152500Y-130060000D02*
X139152500Y-130010000D01*
X139152500Y-126990000D02*
X139152500Y-126940000D01*
X139152500Y-126940000D02*
X140972500Y-126940000D01*
%TO.C,BOOT1*%
X125250000Y-64000000D02*
X125250000Y-63700000D01*
X125250000Y-61200000D02*
X125250000Y-61500000D01*
X121950000Y-64000000D02*
X125250000Y-64000000D01*
X121950000Y-63700000D02*
X121950000Y-64000000D01*
X121950000Y-61500000D02*
X121950000Y-61200000D01*
X121950000Y-61200000D02*
X125250000Y-61200000D01*
%TO.C,U6*%
X138300000Y-95630000D02*
X138060000Y-95300000D01*
X138540000Y-95300000D01*
X138300000Y-95630000D01*
G36*
X138300000Y-95630000D02*
G01*
X138060000Y-95300000D01*
X138540000Y-95300000D01*
X138300000Y-95630000D01*
G37*
X137760000Y-96810000D02*
X135940000Y-96810000D01*
X137760000Y-96760000D02*
X137760000Y-96810000D01*
X137760000Y-94860000D02*
X137760000Y-95640000D01*
X137760000Y-93690000D02*
X137760000Y-93740000D01*
X135940000Y-96810000D02*
X135940000Y-95810000D01*
X135940000Y-94690000D02*
X135940000Y-93690000D01*
X135940000Y-93690000D02*
X137760000Y-93690000D01*
%TO.C,U3*%
X142087500Y-105090000D02*
X141847500Y-104760000D01*
X142327500Y-104760000D01*
X142087500Y-105090000D01*
G36*
X142087500Y-105090000D02*
G01*
X141847500Y-104760000D01*
X142327500Y-104760000D01*
X142087500Y-105090000D01*
G37*
X144447500Y-108160000D02*
X142627500Y-108160000D01*
X144447500Y-108110000D02*
X144447500Y-108160000D01*
X144447500Y-106210000D02*
X144447500Y-106990000D01*
X144447500Y-105040000D02*
X144447500Y-105090000D01*
X142627500Y-108160000D02*
X142627500Y-108110000D01*
X142627500Y-105090000D02*
X142627500Y-105040000D01*
X142627500Y-105040000D02*
X144447500Y-105040000D01*
%TO.C,J3*%
X147600000Y-82900000D02*
X147600000Y-81560000D01*
X147600000Y-78840000D02*
X147600000Y-77100000D01*
X147600000Y-77100000D02*
X132300000Y-77100000D01*
X146110000Y-82900000D02*
X147600000Y-82900000D01*
X146110000Y-82900000D02*
X146110000Y-84100000D01*
X133790000Y-82900000D02*
X132300000Y-82900000D01*
X132300000Y-82900000D02*
X132300000Y-81560000D01*
X132300000Y-77100000D02*
X132300000Y-78840000D01*
%TO.C,J2*%
X144800000Y-138000000D02*
X144800000Y-139900000D01*
X144800000Y-134100000D02*
X144800000Y-136100000D01*
X135400000Y-139900000D02*
X144800000Y-139900000D01*
X135400000Y-138000000D02*
X135400000Y-139900000D01*
X135400000Y-134100000D02*
X135400000Y-136100000D01*
%TO.C,U2*%
X154550000Y-107190000D02*
X154310000Y-106860000D01*
X154790000Y-106860000D01*
X154550000Y-107190000D01*
G36*
X154550000Y-107190000D02*
G01*
X154310000Y-106860000D01*
X154790000Y-106860000D01*
X154550000Y-107190000D01*
G37*
X156910000Y-110260000D02*
X155090000Y-110260000D01*
X156910000Y-110210000D02*
X156910000Y-110260000D01*
X156910000Y-108310000D02*
X156910000Y-109090000D01*
X156910000Y-107140000D02*
X156910000Y-107190000D01*
X155090000Y-110260000D02*
X155090000Y-110210000D01*
X155090000Y-107190000D02*
X155090000Y-107140000D01*
X155090000Y-107140000D02*
X156910000Y-107140000D01*
%TO.C,J6*%
X116740000Y-88740000D02*
X122860000Y-88740000D01*
X122860000Y-93460000D01*
X116740000Y-93460000D01*
X116740000Y-88740000D01*
X122860000Y-91350000D02*
X122250000Y-91350000D01*
X122860000Y-90050000D02*
X122250000Y-90050000D01*
X122250000Y-92850000D02*
X122250000Y-89350000D01*
X122250000Y-89350000D02*
X120300000Y-89350000D01*
X120300000Y-89350000D02*
X120300000Y-88740000D01*
X119900000Y-92350000D02*
X119900000Y-92850000D01*
X119800000Y-92850000D02*
X119800000Y-92350000D01*
X119700000Y-92850000D02*
X119700000Y-92350000D01*
X119700000Y-92350000D02*
X119900000Y-92350000D01*
X119300000Y-89350000D02*
X117350000Y-89350000D01*
X119300000Y-88740000D02*
X119300000Y-89350000D01*
X118500000Y-88740000D02*
X118500000Y-88540000D01*
X118500000Y-88640000D02*
X118200000Y-88640000D01*
X118500000Y-88540000D02*
X118200000Y-88540000D01*
X118200000Y-88540000D02*
X118200000Y-88740000D01*
X117690000Y-88440000D02*
X116440000Y-88440000D01*
X117350000Y-92850000D02*
X122250000Y-92850000D01*
X117350000Y-89350000D02*
X117350000Y-92850000D01*
X116740000Y-91350000D02*
X117350000Y-91350000D01*
X116740000Y-90050000D02*
X117350000Y-90050000D01*
X116440000Y-88440000D02*
X116440000Y-89690000D01*
%TO.C,D2*%
X155835000Y-134685000D02*
X155835000Y-132400000D01*
X154365000Y-134685000D02*
X155835000Y-134685000D01*
X154365000Y-132400000D02*
X154365000Y-134685000D01*
%TO.C,U1*%
X130660000Y-55750000D02*
X130160000Y-55750000D01*
X130660000Y-55250000D01*
X130660000Y-55750000D01*
G36*
X130660000Y-55750000D02*
G01*
X130160000Y-55750000D01*
X130660000Y-55250000D01*
X130660000Y-55750000D01*
G37*
X149060000Y-74700000D02*
X149060000Y-73750000D01*
X147660000Y-74700000D02*
X149060000Y-74700000D01*
X132060000Y-74700000D02*
X130660000Y-74700000D01*
X130660000Y-74700000D02*
X130660000Y-73750000D01*
%TO.C,J1*%
X159140000Y-105090000D02*
X165260000Y-105090000D01*
X165260000Y-109810000D01*
X159140000Y-109810000D01*
X159140000Y-105090000D01*
X165260000Y-107700000D02*
X164650000Y-107700000D01*
X165260000Y-106400000D02*
X164650000Y-106400000D01*
X164650000Y-109200000D02*
X164650000Y-105700000D01*
X164650000Y-105700000D02*
X162700000Y-105700000D01*
X162700000Y-105700000D02*
X162700000Y-105090000D01*
X162300000Y-108700000D02*
X162300000Y-109200000D01*
X162200000Y-109200000D02*
X162200000Y-108700000D01*
X162100000Y-109200000D02*
X162100000Y-108700000D01*
X162100000Y-108700000D02*
X162300000Y-108700000D01*
X161700000Y-105700000D02*
X159750000Y-105700000D01*
X161700000Y-105090000D02*
X161700000Y-105700000D01*
X160900000Y-105090000D02*
X160900000Y-104890000D01*
X160900000Y-104990000D02*
X160600000Y-104990000D01*
X160900000Y-104890000D02*
X160600000Y-104890000D01*
X160600000Y-104890000D02*
X160600000Y-105090000D01*
X160090000Y-104790000D02*
X158840000Y-104790000D01*
X159750000Y-109200000D02*
X164650000Y-109200000D01*
X159750000Y-105700000D02*
X159750000Y-109200000D01*
X159140000Y-107700000D02*
X159750000Y-107700000D01*
X159140000Y-106400000D02*
X159750000Y-106400000D01*
X158840000Y-104790000D02*
X158840000Y-106040000D01*
%TO.C,U7*%
X145512500Y-95630000D02*
X145272500Y-95300000D01*
X145752500Y-95300000D01*
X145512500Y-95630000D01*
G36*
X145512500Y-95630000D02*
G01*
X145272500Y-95300000D01*
X145752500Y-95300000D01*
X145512500Y-95630000D01*
G37*
X144972500Y-96810000D02*
X143152500Y-96810000D01*
X144972500Y-96760000D02*
X144972500Y-96810000D01*
X144972500Y-94860000D02*
X144972500Y-95640000D01*
X144972500Y-93690000D02*
X144972500Y-93740000D01*
X143152500Y-96810000D02*
X143152500Y-95810000D01*
X143152500Y-94690000D02*
X143152500Y-93690000D01*
X143152500Y-93690000D02*
X144972500Y-93690000D01*
%TO.C,D3*%
X153935000Y-81272500D02*
X153935000Y-78987500D01*
X152465000Y-81272500D02*
X153935000Y-81272500D01*
X152465000Y-78987500D02*
X152465000Y-81272500D01*
%TO.C,J4*%
X163980000Y-88030000D02*
X163980000Y-100840000D01*
X161220000Y-100840000D02*
X163980000Y-100840000D01*
X161220000Y-88030000D02*
X163980000Y-88030000D01*
X161220000Y-88030000D02*
X161220000Y-100840000D01*
X161220000Y-86760000D02*
X161220000Y-85380000D01*
X161220000Y-85380000D02*
X162600000Y-85380000D01*
%TO.C,U4*%
X117742500Y-100450000D02*
X117412500Y-100690000D01*
X117412500Y-100210000D01*
X117742500Y-100450000D01*
G36*
X117742500Y-100450000D02*
G01*
X117412500Y-100690000D01*
X117412500Y-100210000D01*
X117742500Y-100450000D01*
G37*
X121472500Y-102810000D02*
X120997500Y-102810000D01*
X121472500Y-102335000D02*
X121472500Y-102810000D01*
X121472500Y-99590000D02*
X121472500Y-100065000D01*
X120997500Y-99590000D02*
X121472500Y-99590000D01*
X118727500Y-102810000D02*
X118252500Y-102810000D01*
X118252500Y-102810000D02*
X118252500Y-102335000D01*
X118252500Y-100065000D02*
X118252500Y-99590000D01*
X118252500Y-99590000D02*
X118727500Y-99590000D01*
%TD*%
M02*
