%TF.GenerationSoftware,KiCad,Pcbnew,10.0.4*%
%TF.CreationDate,2026-07-08T07:11:57-04:00*%
%TF.ProjectId,smart-doorbell,736d6172-742d-4646-9f6f-7262656c6c2e,rev?*%
%TF.SameCoordinates,Original*%
%TF.FileFunction,Copper,L2,Bot*%
%TF.FilePolarity,Positive*%
%FSLAX46Y46*%
G04 Gerber Fmt 4.6, Leading zero omitted, Abs format (unit mm)*
G04 Created by KiCad (PCBNEW 10.0.4) date 2026-07-08 07:11:57*
%MOMM*%
%LPD*%
G01*
G04 APERTURE LIST*
G04 Aperture macros list*
%AMRoundRect*
0 Rectangle with rounded corners*
0 $1 Rounding radius*
0 $2 $3 $4 $5 $6 $7 $8 $9 X,Y pos of 4 corners*
0 Add a 4 corners polygon primitive as box body*
4,1,4,$2,$3,$4,$5,$6,$7,$8,$9,$2,$3,0*
0 Add four circle primitives for the rounded corners*
1,1,$1+$1,$2,$3*
1,1,$1+$1,$4,$5*
1,1,$1+$1,$6,$7*
1,1,$1+$1,$8,$9*
0 Add four rect primitives between the rounded corners*
20,1,$1+$1,$2,$3,$4,$5,0*
20,1,$1+$1,$4,$5,$6,$7,0*
20,1,$1+$1,$6,$7,$8,$9,0*
20,1,$1+$1,$8,$9,$2,$3,0*%
G04 Aperture macros list end*
%TA.AperFunction,ComponentPad*%
%ADD10RoundRect,0.250000X-0.350000X-0.625000X0.350000X-0.625000X0.350000X0.625000X-0.350000X0.625000X0*%
%TD*%
%TA.AperFunction,ComponentPad*%
%ADD11O,1.200000X1.750000*%
%TD*%
%TA.AperFunction,ComponentPad*%
%ADD12O,1.000000X2.100000*%
%TD*%
%TA.AperFunction,ComponentPad*%
%ADD13O,1.000000X1.600000*%
%TD*%
%TA.AperFunction,HeatsinkPad*%
%ADD14C,0.600000*%
%TD*%
%TA.AperFunction,ComponentPad*%
%ADD15R,1.700000X1.700000*%
%TD*%
%TA.AperFunction,ComponentPad*%
%ADD16C,1.700000*%
%TD*%
%TA.AperFunction,ViaPad*%
%ADD17C,0.600000*%
%TD*%
%TA.AperFunction,Conductor*%
%ADD18C,0.800000*%
%TD*%
%TA.AperFunction,Conductor*%
%ADD19C,0.400000*%
%TD*%
%TA.AperFunction,Conductor*%
%ADD20C,0.250000*%
%TD*%
%TA.AperFunction,Conductor*%
%ADD21C,0.200000*%
%TD*%
G04 APERTURE END LIST*
D10*
%TO.P,J7,1,Pin_1_1*%
%TO.N,+3V3*%
X158500000Y-79000000D03*
D11*
%TO.P,J7,2,Pin_2_2*%
%TO.N,/PIR_OUT*%
X160500000Y-79000000D03*
%TO.P,J7,3,Pin_3_3*%
%TO.N,GND*%
X162500000Y-79000000D03*
%TD*%
D10*
%TO.P,J8,1,Pin_1_1*%
%TO.N,/DOORBELL_IN*%
X136900000Y-114650000D03*
D11*
%TO.P,J8,2,Pin_2_2*%
%TO.N,GND*%
X138900000Y-114650000D03*
%TO.P,J8,3,Pin_3_3*%
%TO.N,Net-(J8-Pin_3)*%
X140900000Y-114650000D03*
%TO.P,J8,4,Pin_4_4*%
%TO.N,GND*%
X142900000Y-114650000D03*
%TD*%
D12*
%TO.P,J2,SH,SHIELD_SH*%
%TO.N,GND*%
X135780000Y-132870000D03*
D13*
X135780000Y-137050000D03*
D12*
X144420000Y-132870000D03*
D13*
X144420000Y-137050000D03*
%TD*%
D10*
%TO.P,J6,1,Pin_1_1*%
%TO.N,/OUTP*%
X118800000Y-90550000D03*
D11*
%TO.P,J6,2,Pin_2_2*%
%TO.N,/OUTN*%
X120800000Y-90550000D03*
%TD*%
D14*
%TO.P,U1,41,GND_41*%
%TO.N,GND*%
X136960000Y-63510000D03*
X136960000Y-64910000D03*
X137660000Y-62810000D03*
X137660000Y-64210000D03*
X137660000Y-65610000D03*
X138360000Y-63510000D03*
X138360000Y-64910000D03*
X139060000Y-62810000D03*
X139060000Y-64210000D03*
X139060000Y-65610000D03*
X139760000Y-63510000D03*
X139760000Y-64910000D03*
%TD*%
D10*
%TO.P,J1,1,Pin_1_1*%
%TO.N,+BATT*%
X161200000Y-106900000D03*
D11*
%TO.P,J1,2,Pin_2_2*%
%TO.N,GND*%
X163200000Y-106900000D03*
%TD*%
D15*
%TO.P,J4,1,Pin_1_1*%
%TO.N,+3V3*%
X162600000Y-86760000D03*
D16*
%TO.P,J4,2,Pin_2_2*%
%TO.N,GND*%
X162600000Y-89300000D03*
%TO.P,J4,3,Pin_3_3*%
X162600000Y-91840000D03*
%TO.P,J4,4,Pin_4_4*%
%TO.N,/GPIO4*%
X162600000Y-94380000D03*
%TO.P,J4,5,Pin_5_5*%
%TO.N,/GPIO5*%
X162600000Y-96920000D03*
%TO.P,J4,6,Pin_6_6*%
%TO.N,/GPIO6*%
X162600000Y-99460000D03*
%TD*%
D17*
%TO.N,GND*%
X153100000Y-58075000D03*
X134100000Y-56700000D03*
X137249998Y-89500000D03*
X119200000Y-87800000D03*
X123900000Y-59000000D03*
X115300000Y-84000000D03*
X154950000Y-105400000D03*
X140800000Y-118700000D03*
X136800000Y-104300000D03*
X125300000Y-62500000D03*
X139600000Y-130500000D03*
X151000000Y-56500000D03*
X129900000Y-84900000D03*
X145375000Y-91050000D03*
X135700000Y-89500000D03*
X127949998Y-88000000D03*
X154800000Y-62700000D03*
X117400000Y-81150000D03*
X154900000Y-108700000D03*
X133400000Y-104300000D03*
X141900000Y-91050000D03*
X154700000Y-58100000D03*
%TO.N,Net-(U2-PROG)*%
X158300000Y-105400000D03*
X158300000Y-107700000D03*
%TO.N,+3V3*%
X121200000Y-70700000D03*
X119300000Y-62500000D03*
X139963854Y-128463854D03*
X144500000Y-103347146D03*
X139900000Y-98150000D03*
X149700000Y-90375000D03*
X119400000Y-60700000D03*
X119325000Y-77000000D03*
X114300000Y-102100000D03*
X140000000Y-125700000D03*
X117700000Y-62500000D03*
X129600000Y-101500000D03*
X143100000Y-102147146D03*
X143100000Y-103347146D03*
X119400000Y-82700000D03*
X117700000Y-60700000D03*
X144500000Y-102147146D03*
X122600000Y-60700000D03*
%TO.N,/CAM_RST_2V8*%
X150200000Y-89500000D03*
X131200000Y-88100000D03*
X141500000Y-88150000D03*
%TO.N,+1V5*%
X140250000Y-90050000D03*
X139200000Y-99300000D03*
X139200000Y-103500000D03*
X140074143Y-88750000D03*
X139200000Y-97400000D03*
%TO.N,+BATT*%
X142200000Y-105247146D03*
X159200000Y-119800000D03*
X159200000Y-120800000D03*
X124200000Y-120300000D03*
X125400000Y-120300000D03*
X125400000Y-121300000D03*
X158000000Y-119800000D03*
X158000000Y-120800000D03*
X124200000Y-121300000D03*
X146500000Y-105247146D03*
%TO.N,/PIR_OUT*%
X160400000Y-77100000D03*
X151000000Y-74300000D03*
%TO.N,Net-(RESET1-B)*%
X152300000Y-61600000D03*
X138700000Y-59000000D03*
X126100000Y-70100000D03*
X128752222Y-59856969D03*
%TO.N,/DOORBELL_IN*%
X152300000Y-112300000D03*
X156300000Y-77800000D03*
%TO.N,/GPIO4*%
X125825000Y-101000000D03*
X125000000Y-92100000D03*
X113400000Y-92800000D03*
X149400000Y-93400000D03*
X120800000Y-92800000D03*
%TO.N,/GPIO5*%
X119100000Y-98000000D03*
X125425000Y-99500000D03*
X116100000Y-85400000D03*
X125400000Y-96000000D03*
X117200000Y-90400000D03*
X116025000Y-82400000D03*
X115100000Y-77200000D03*
X148700000Y-94100000D03*
X120800000Y-98000000D03*
%TO.N,/GPIO6*%
X127604502Y-62660128D03*
X164900000Y-99400000D03*
X114200000Y-65300000D03*
%TO.N,/CAM_SCL*%
X139000000Y-92800000D03*
X145022702Y-76422702D03*
X144700000Y-69300000D03*
X143600000Y-84800000D03*
X143900000Y-82700000D03*
X137200000Y-91200000D03*
%TO.N,+2V8*%
X141200000Y-93600000D03*
X134200000Y-93700000D03*
X143700000Y-93600000D03*
X121100000Y-68300000D03*
X124900000Y-89400000D03*
X128300000Y-89400000D03*
%TO.N,/CAM_PWDN_2V8*%
X142400000Y-87600000D03*
X131179471Y-87300261D03*
%TO.N,/CAM_XCLK_2V8*%
X149800000Y-86850000D03*
X139600000Y-79900000D03*
%TO.N,/GPIO20*%
X143100000Y-126400000D03*
X141400000Y-126400000D03*
%TO.N,/CAM_RST*%
X143849997Y-69300000D03*
X144200000Y-76500000D03*
%TO.N,/CAM_SDA*%
X145900000Y-76500000D03*
X144700000Y-82400000D03*
X144600000Y-84400000D03*
X145400000Y-67900000D03*
X128900000Y-64800000D03*
X145500000Y-69300000D03*
%TO.N,/CAM_VSYNC*%
X143313994Y-76431411D03*
X143049997Y-69300000D03*
%TO.N,/CAM_D4*%
X129360000Y-72376618D03*
X130200000Y-75600000D03*
%TO.N,/CAM_D0*%
X128620495Y-72795707D03*
X130257351Y-76448065D03*
%TO.N,/CAM_D3*%
X127786644Y-72960617D03*
X130016774Y-77212239D03*
%TO.N,/CAM_D1*%
X130265560Y-78025018D03*
X126939889Y-73005331D03*
%TO.N,/CAM_D2*%
X130178500Y-78931352D03*
X126200000Y-72700000D03*
%TO.N,Net-(J8-Pin_3)*%
X153400000Y-113500000D03*
X154600000Y-86500000D03*
%TO.N,+5V*%
X133700000Y-128600000D03*
X134700000Y-127600000D03*
X147200000Y-123900000D03*
X148400000Y-123900000D03*
X133700000Y-127600000D03*
X147200000Y-125100000D03*
X148457592Y-125057592D03*
X134700000Y-128600000D03*
%TO.N,Net-(D2-K)*%
X161100000Y-112900000D03*
X158300000Y-108500000D03*
%TO.N,/OUTP*%
X122300000Y-103800000D03*
X118800000Y-96500000D03*
%TO.N,/OUTN*%
X123300000Y-103500000D03*
X121900000Y-94200000D03*
X121900000Y-97300000D03*
X120800000Y-91900000D03*
%TO.N,Net-(D2-A)*%
X161100000Y-113700000D03*
X154900000Y-113700000D03*
%TO.N,/CAM_XCLK*%
X139225001Y-78674999D03*
X146300000Y-78700000D03*
%TO.N,/CAM_PWDN*%
X141800000Y-82500000D03*
X133400000Y-84900000D03*
%TO.N,/AMP_EN*%
X155500000Y-81700000D03*
X121800000Y-111300000D03*
%TD*%
%TO.N,GND*%
D18*
X136800000Y-104300000D02*
X133400000Y-104300000D01*
D19*
X140900000Y-116650000D02*
X142900000Y-114650000D01*
X151525000Y-56500000D02*
X153100000Y-58075000D01*
D20*
X115300000Y-84000000D02*
X116900000Y-84000000D01*
D21*
X154800000Y-58200000D02*
X154700000Y-58100000D01*
D19*
X137362594Y-89500000D02*
X135700000Y-89500000D01*
D18*
X135780000Y-132870000D02*
X135780000Y-137050000D01*
D20*
X116900000Y-81650000D02*
X117400000Y-81150000D01*
D21*
X140800000Y-116750000D02*
X140900000Y-116650000D01*
D18*
X144420000Y-132870000D02*
X144420000Y-137050000D01*
X125300000Y-60400000D02*
X123900000Y-59000000D01*
D19*
X141900000Y-91050000D02*
X145375000Y-91050000D01*
D18*
X154900000Y-108700000D02*
X154900000Y-105450000D01*
D19*
X119200000Y-85000000D02*
X118100000Y-83900000D01*
D21*
X140800000Y-118700000D02*
X140800000Y-116750000D01*
X139600000Y-130500000D02*
X138150000Y-130500000D01*
D19*
X138900000Y-114650000D02*
X140900000Y-116650000D01*
D21*
X142050000Y-130500000D02*
X144420000Y-132870000D01*
D19*
X119200000Y-87800000D02*
X119200000Y-85000000D01*
D21*
X139600000Y-130500000D02*
X142050000Y-130500000D01*
X138150000Y-130500000D02*
X135780000Y-132870000D01*
D19*
X129900000Y-84900000D02*
X129900000Y-86049998D01*
D18*
X125300000Y-62500000D02*
X125300000Y-60400000D01*
D19*
X118100000Y-81850000D02*
X117400000Y-81150000D01*
D20*
X116900000Y-84000000D02*
X116900000Y-81650000D01*
D18*
X134100000Y-56700000D02*
X134110000Y-56700000D01*
D19*
X118100000Y-83900000D02*
X118100000Y-81850000D01*
X151000000Y-56500000D02*
X151525000Y-56500000D01*
D18*
X134110000Y-56700000D02*
X137750000Y-60340000D01*
D19*
X129900000Y-86049998D02*
X127949998Y-88000000D01*
D18*
X154900000Y-105450000D02*
X154950000Y-105400000D01*
D21*
X154800000Y-62700000D02*
X154800000Y-58200000D01*
%TO.N,Net-(U2-PROG)*%
D20*
X158300000Y-107700000D02*
X158300000Y-105400000D01*
%TO.N,+3V3*%
D18*
X123000000Y-90400000D02*
X123000000Y-86300000D01*
X142100000Y-100800000D02*
X140852818Y-102047182D01*
X139900000Y-102047182D02*
X138806497Y-102047182D01*
X112800000Y-61700000D02*
X112800000Y-67900000D01*
D19*
X139800000Y-91309189D02*
X140000000Y-91309189D01*
D18*
X120300000Y-76025000D02*
X120300000Y-70400000D01*
D20*
X140000000Y-125700000D02*
X140000000Y-128427708D01*
D18*
X117700000Y-60700000D02*
X117700000Y-62500000D01*
X119325000Y-77000000D02*
X120300000Y-76025000D01*
X123000000Y-94900000D02*
X123000000Y-90400000D01*
D19*
X120600000Y-70700000D02*
X120300000Y-70400000D01*
D18*
X143200000Y-102000000D02*
X144600000Y-102000000D01*
D19*
X141009189Y-90300000D02*
X140000000Y-91309189D01*
D18*
X143200000Y-100800000D02*
X143200000Y-102000000D01*
X119400000Y-60700000D02*
X117700000Y-60700000D01*
D19*
X139900000Y-98150000D02*
X139900000Y-102047182D01*
D18*
X129600000Y-101500000D02*
X123000000Y-94900000D01*
X123000000Y-86300000D02*
X119400000Y-82700000D01*
X113800000Y-60700000D02*
X112800000Y-61700000D01*
D19*
X138890811Y-90400000D02*
X139800000Y-91309189D01*
X140000000Y-91309189D02*
X139900000Y-91409189D01*
X149700000Y-90375000D02*
X149625000Y-90300000D01*
D18*
X140852818Y-102047182D02*
X139900000Y-102047182D01*
X119400000Y-82700000D02*
X119400000Y-77075000D01*
D20*
X140000000Y-128427708D02*
X139963854Y-128463854D01*
D19*
X123000000Y-94900000D02*
X119400000Y-94900000D01*
X119400000Y-94900000D02*
X114300000Y-100000000D01*
D18*
X119400000Y-77075000D02*
X119325000Y-77000000D01*
X117700000Y-60700000D02*
X113800000Y-60700000D01*
X138259315Y-101500000D02*
X129600000Y-101500000D01*
X143200000Y-100800000D02*
X142100000Y-100800000D01*
D19*
X149625000Y-90300000D02*
X141009189Y-90300000D01*
D18*
X117800000Y-67900000D02*
X120300000Y-70400000D01*
D19*
X114300000Y-100000000D02*
X114300000Y-102100000D01*
D18*
X119400000Y-60700000D02*
X122600000Y-60700000D01*
D19*
X121200000Y-70700000D02*
X120600000Y-70700000D01*
X139900000Y-91409189D02*
X139900000Y-98150000D01*
D18*
X138806497Y-102047182D02*
X138259315Y-101500000D01*
D19*
X123000000Y-90400000D02*
X138890811Y-90400000D01*
D18*
X112800000Y-67900000D02*
X117800000Y-67900000D01*
%TO.N,/CAM_RST_2V8*%
D21*
X141600000Y-89500000D02*
X141500000Y-89400000D01*
X131200000Y-88100000D02*
X131300000Y-88000000D01*
X150200000Y-89500000D02*
X141600000Y-89500000D01*
X141500000Y-89400000D02*
X141500000Y-88150000D01*
X131300000Y-88000000D02*
X141350000Y-88000000D01*
X141350000Y-88000000D02*
X141500000Y-88150000D01*
%TO.N,+1V5*%
D20*
X140100000Y-89900000D02*
X140250000Y-90050000D01*
X140074143Y-88750000D02*
X140100000Y-88775857D01*
X140100000Y-88775857D02*
X140100000Y-89900000D01*
D19*
X139200000Y-99300000D02*
X139200000Y-97400000D01*
%TO.N,+BATT*%
D18*
X125400000Y-120800000D02*
X125400000Y-120300000D01*
X146500000Y-105200000D02*
X142200000Y-105200000D01*
X159200000Y-120800000D02*
X159200000Y-120300000D01*
X125400000Y-120300000D02*
X124200000Y-120300000D01*
X125400000Y-120800000D02*
X159200000Y-120800000D01*
X159200000Y-120300000D02*
X159200000Y-119800000D01*
X125400000Y-121300000D02*
X125400000Y-120800000D01*
%TO.N,/PIR_OUT*%
D20*
X151000000Y-77175000D02*
X160325000Y-77175000D01*
D21*
X151000000Y-74300000D02*
X151000000Y-77175000D01*
D20*
X160325000Y-77175000D02*
X160400000Y-77100000D01*
%TO.N,Net-(RESET1-B)*%
D21*
X150900000Y-61200000D02*
X151900000Y-61200000D01*
X151900000Y-61200000D02*
X152300000Y-61600000D01*
X128752222Y-62431648D02*
X126100000Y-65083870D01*
X150900000Y-59000000D02*
X150900000Y-61200000D01*
X138700000Y-59000000D02*
X150900000Y-59000000D01*
X128752222Y-59856969D02*
X128752222Y-62431648D01*
X126100000Y-65083870D02*
X126100000Y-70100000D01*
%TO.N,/DOORBELL_IN*%
X156200000Y-77900000D02*
X156300000Y-77800000D01*
X152300000Y-112300000D02*
X152300000Y-86200000D01*
X152300000Y-86200000D02*
X156200000Y-82300000D01*
X156200000Y-82300000D02*
X156200000Y-77900000D01*
%TO.N,/GPIO4*%
D20*
X120800000Y-92800000D02*
X113400000Y-92800000D01*
X149400000Y-93400000D02*
X149400000Y-110000000D01*
X135800000Y-110600000D02*
X126200000Y-101000000D01*
X149400000Y-110000000D02*
X148800000Y-110600000D01*
X126200000Y-101000000D02*
X125825000Y-101000000D01*
X148800000Y-110600000D02*
X135800000Y-110600000D01*
%TO.N,/GPIO5*%
X116100000Y-82325000D02*
X116025000Y-82400000D01*
X120800000Y-98000000D02*
X119100000Y-98000000D01*
X117200000Y-86542462D02*
X116875000Y-86217462D01*
X117200000Y-90400000D02*
X117200000Y-86542462D01*
X116100000Y-78200000D02*
X116100000Y-82325000D01*
X148700000Y-94100000D02*
X148700000Y-109800000D01*
X116875000Y-86175000D02*
X116100000Y-85400000D01*
X116875000Y-86217462D02*
X116875000Y-86175000D01*
X115100000Y-77200000D02*
X116100000Y-78200000D01*
X148700000Y-109800000D02*
X135800000Y-109800000D01*
X135800000Y-109800000D02*
X125500000Y-99500000D01*
X125500000Y-99500000D02*
X125425000Y-99500000D01*
%TO.N,/GPIO6*%
X158600000Y-72100000D02*
X158600000Y-55200000D01*
X128525000Y-59200305D02*
X127900000Y-59825305D01*
X127900000Y-59825305D02*
X127900000Y-62644374D01*
X127900000Y-62644374D02*
X127784246Y-62760128D01*
X127784246Y-62760128D02*
X127704502Y-62760128D01*
X130745405Y-55200000D02*
X128525000Y-57420405D01*
X164800000Y-74700000D02*
X161200000Y-74700000D01*
X164900000Y-99400000D02*
X164900000Y-74800000D01*
X158600000Y-55200000D02*
X130745405Y-55200000D01*
X127600000Y-62800000D02*
X125100000Y-65300000D01*
X128525000Y-57420405D02*
X128525000Y-59200305D01*
X125100000Y-65300000D02*
X114200000Y-65300000D01*
X127704502Y-62760128D02*
X127604502Y-62660128D01*
X164900000Y-74800000D02*
X164800000Y-74700000D01*
X161200000Y-74700000D02*
X158600000Y-72100000D01*
%TO.N,/CAM_SCL*%
D21*
X137200000Y-91200000D02*
X137200000Y-92000000D01*
X143900000Y-82700000D02*
X143900000Y-84500000D01*
X138000000Y-92800000D02*
X139000000Y-92800000D01*
D20*
X144700000Y-69300000D02*
X144700000Y-76100000D01*
D21*
X143900000Y-84500000D02*
X143600000Y-84800000D01*
X137200000Y-92000000D02*
X138000000Y-92800000D01*
D20*
X144700000Y-76100000D02*
X145022702Y-76422702D01*
%TO.N,+2V8*%
D19*
X141200000Y-93600000D02*
X143700000Y-93600000D01*
X128300000Y-89400000D02*
X124900000Y-89400000D01*
X122000000Y-81900000D02*
X124900000Y-84800000D01*
X121100000Y-68300000D02*
X122000000Y-69200000D01*
X124900000Y-84800000D02*
X124900000Y-89400000D01*
X122000000Y-69200000D02*
X122000000Y-81900000D01*
%TO.N,/CAM_PWDN_2V8*%
D21*
X131900000Y-87500000D02*
X142300000Y-87500000D01*
X131179471Y-87300261D02*
X131700261Y-87300261D01*
X131700261Y-87300261D02*
X131900000Y-87500000D01*
X142300000Y-87500000D02*
X142400000Y-87600000D01*
%TO.N,/CAM_XCLK_2V8*%
X146900000Y-86800000D02*
X146950000Y-86850000D01*
X146950000Y-86850000D02*
X149800000Y-86850000D01*
X146900000Y-81900000D02*
X146900000Y-86800000D01*
X144900000Y-79900000D02*
X146900000Y-81900000D01*
X139600000Y-79900000D02*
X144900000Y-79900000D01*
%TO.N,/GPIO20*%
D20*
X141400000Y-126400000D02*
X143100000Y-126400000D01*
%TO.N,/CAM_RST*%
X143900000Y-69350003D02*
X143900000Y-75800000D01*
X143900000Y-75800000D02*
X144200000Y-76100000D01*
X143849997Y-69300000D02*
X143900000Y-69350003D01*
X144200000Y-76100000D02*
X144200000Y-76500000D01*
%TO.N,/CAM_SDA*%
X145500000Y-69300000D02*
X145900000Y-69700000D01*
X145900000Y-69700000D02*
X145900000Y-76500000D01*
X128900000Y-64800000D02*
X131000000Y-66900000D01*
D21*
X144600000Y-84400000D02*
X144600000Y-82500000D01*
D20*
X144400000Y-66900000D02*
X145400000Y-67900000D01*
X131000000Y-66900000D02*
X144400000Y-66900000D01*
D21*
X144600000Y-82500000D02*
X144700000Y-82400000D01*
%TO.N,/CAM_VSYNC*%
D20*
X143049997Y-69300000D02*
X143200000Y-69450003D01*
X143200000Y-76317417D02*
X143313994Y-76431411D01*
X143200000Y-69450003D02*
X143200000Y-76317417D01*
%TO.N,/CAM_D4*%
X129360000Y-72376618D02*
X129360000Y-74460000D01*
X129700000Y-75100000D02*
X130200000Y-75600000D01*
X129700000Y-74800000D02*
X129700000Y-75100000D01*
X129360000Y-74460000D02*
X129700000Y-74800000D01*
%TO.N,/CAM_D0*%
X128620495Y-72795707D02*
X128620495Y-74620495D01*
X129025000Y-75025000D02*
X129025000Y-75879595D01*
X129593470Y-76448065D02*
X130257351Y-76448065D01*
X128620495Y-74620495D02*
X129025000Y-75025000D01*
X129025000Y-75879595D02*
X129593470Y-76448065D01*
%TO.N,/CAM_D3*%
X127786644Y-72960617D02*
X127786644Y-74686644D01*
X128575000Y-75475000D02*
X128575000Y-76065991D01*
X129721248Y-77212239D02*
X130016774Y-77212239D01*
X127786644Y-74686644D02*
X128575000Y-75475000D01*
X128575000Y-76065991D02*
X129721248Y-77212239D01*
%TO.N,/CAM_D1*%
X126939889Y-73005331D02*
X126939889Y-74939889D01*
X129897631Y-78025018D02*
X130265560Y-78025018D01*
X128125000Y-76125000D02*
X128125000Y-76252387D01*
X126939889Y-74939889D02*
X128125000Y-76125000D01*
X128125000Y-76252387D02*
X129897631Y-78025018D01*
%TO.N,/CAM_D2*%
X126200000Y-75200000D02*
X129931352Y-78931352D01*
X126200000Y-72700000D02*
X126200000Y-75200000D01*
X129931352Y-78931352D02*
X130178500Y-78931352D01*
%TO.N,Net-(J8-Pin_3)*%
D21*
X154600000Y-86500000D02*
X153400000Y-87700000D01*
X153400000Y-87700000D02*
X153400000Y-113500000D01*
%TO.N,+5V*%
D18*
X137400000Y-123900000D02*
X133700000Y-127600000D01*
X133700000Y-128600000D02*
X134700000Y-128600000D01*
X133700000Y-127600000D02*
X133700000Y-128600000D01*
X147200000Y-123900000D02*
X137400000Y-123900000D01*
%TO.N,Net-(D2-K)*%
D20*
X161100000Y-112900000D02*
X158300000Y-110100000D01*
X158300000Y-110100000D02*
X158300000Y-108500000D01*
%TO.N,/OUTP*%
X122200000Y-96500000D02*
X122600000Y-96900000D01*
X122800000Y-104300000D02*
X122300000Y-103800000D01*
X124500000Y-104000000D02*
X124200000Y-104300000D01*
X122600000Y-99100000D02*
X124500000Y-101000000D01*
X122600000Y-96900000D02*
X122600000Y-99100000D01*
X124200000Y-104300000D02*
X122800000Y-104300000D01*
X124500000Y-101000000D02*
X124500000Y-104000000D01*
X118800000Y-96500000D02*
X122200000Y-96500000D01*
%TO.N,/OUTN*%
X120800000Y-91900000D02*
X121900000Y-93000000D01*
X121900000Y-99100000D02*
X124050000Y-101250000D01*
X121900000Y-97300000D02*
X121900000Y-99100000D01*
X121900000Y-93000000D02*
X121900000Y-94200000D01*
X124050000Y-103500000D02*
X123300000Y-103500000D01*
X124050000Y-101250000D02*
X124050000Y-103500000D01*
%TO.N,Net-(D2-A)*%
X161100000Y-113700000D02*
X154900000Y-113700000D01*
%TO.N,/CAM_XCLK*%
X146300000Y-78700000D02*
X139250002Y-78700000D01*
X139250002Y-78700000D02*
X139225001Y-78674999D01*
%TO.N,/CAM_PWDN*%
X141800000Y-82500000D02*
X139400000Y-84900000D01*
X139400000Y-84900000D02*
X133400000Y-84900000D01*
%TO.N,/AMP_EN*%
X151600000Y-111400000D02*
X151600000Y-85600000D01*
X151600000Y-85600000D02*
X155500000Y-81700000D01*
X121900000Y-111400000D02*
X151600000Y-111400000D01*
X121800000Y-111300000D02*
X121900000Y-111400000D01*
%TD*%
%TA.AperFunction,Conductor*%
%TO.N,GND*%
G36*
X129828491Y-55019685D02*
G01*
X129874246Y-55072489D01*
X129884190Y-55141647D01*
X129855165Y-55205203D01*
X129849133Y-55211681D01*
X128128361Y-56932452D01*
X128128351Y-56932462D01*
X128126270Y-56934544D01*
X128126267Y-56934547D01*
X128039142Y-57021672D01*
X128021712Y-57047758D01*
X128004054Y-57074185D01*
X127970686Y-57124122D01*
X127970685Y-57124124D01*
X127947299Y-57180582D01*
X127947300Y-57180583D01*
X127947300Y-57180584D01*
X127929939Y-57222499D01*
X127923537Y-57237954D01*
X127899855Y-57357016D01*
X127899500Y-57358799D01*
X127899500Y-57358849D01*
X127899500Y-58889852D01*
X127879815Y-58956891D01*
X127863181Y-58977533D01*
X127504303Y-59336410D01*
X127504296Y-59336417D01*
X127501269Y-59339445D01*
X127501267Y-59339447D01*
X127414142Y-59426572D01*
X127379919Y-59477790D01*
X127375533Y-59484353D01*
X127375532Y-59484355D01*
X127345687Y-59529019D01*
X127345685Y-59529023D01*
X127316079Y-59600499D01*
X127316080Y-59600500D01*
X127305726Y-59625498D01*
X127298538Y-59642851D01*
X127298535Y-59642861D01*
X127276307Y-59754608D01*
X127276308Y-59754609D01*
X127274500Y-59763699D01*
X127274500Y-61851594D01*
X127254815Y-61918633D01*
X127219391Y-61954696D01*
X127094213Y-62038338D01*
X127094209Y-62038341D01*
X126982715Y-62149835D01*
X126982712Y-62149839D01*
X126895111Y-62280942D01*
X126895104Y-62280955D01*
X126834766Y-62426626D01*
X126834763Y-62426638D01*
X126804002Y-62581281D01*
X126804002Y-62660046D01*
X126784317Y-62727085D01*
X126767683Y-62747727D01*
X124877229Y-64638181D01*
X124815906Y-64671666D01*
X124789548Y-64674500D01*
X114742350Y-64674500D01*
X114675311Y-64654815D01*
X114673459Y-64653602D01*
X114579184Y-64590609D01*
X114579172Y-64590602D01*
X114433501Y-64530264D01*
X114433489Y-64530261D01*
X114278845Y-64499500D01*
X114278842Y-64499500D01*
X114121158Y-64499500D01*
X114121155Y-64499500D01*
X113966510Y-64530261D01*
X113966507Y-64530261D01*
X113871952Y-64569427D01*
X113802482Y-64576895D01*
X113740003Y-64545619D01*
X113704351Y-64485530D01*
X113700500Y-64454865D01*
X113700500Y-62124361D01*
X113720185Y-62057322D01*
X113736819Y-62036680D01*
X114136680Y-61636819D01*
X114198003Y-61603334D01*
X114224361Y-61600500D01*
X116675500Y-61600500D01*
X116742539Y-61620185D01*
X116788294Y-61672989D01*
X116799500Y-61724500D01*
X116799500Y-62588695D01*
X116834103Y-62762658D01*
X116834106Y-62762667D01*
X116901983Y-62926540D01*
X116901990Y-62926553D01*
X117000535Y-63074034D01*
X117000538Y-63074038D01*
X117125961Y-63199461D01*
X117125965Y-63199464D01*
X117273446Y-63298009D01*
X117273459Y-63298016D01*
X117396363Y-63348923D01*
X117437334Y-63365894D01*
X117437336Y-63365894D01*
X117437341Y-63365896D01*
X117611304Y-63400499D01*
X117611307Y-63400500D01*
X117611309Y-63400500D01*
X117788693Y-63400500D01*
X117788694Y-63400499D01*
X117846682Y-63388964D01*
X117962658Y-63365896D01*
X117962661Y-63365894D01*
X117962666Y-63365894D01*
X118126547Y-63298013D01*
X118274035Y-63199464D01*
X118399464Y-63074035D01*
X118457033Y-62987877D01*
X118510644Y-62943073D01*
X118579968Y-62934366D01*
X118642996Y-62964520D01*
X118663236Y-62987878D01*
X118678210Y-63010288D01*
X118678213Y-63010292D01*
X118789707Y-63121786D01*
X118789711Y-63121789D01*
X118920814Y-63209390D01*
X118920827Y-63209397D01*
X119066498Y-63269735D01*
X119066503Y-63269737D01*
X119208635Y-63298009D01*
X119221153Y-63300499D01*
X119221156Y-63300500D01*
X119221158Y-63300500D01*
X119378844Y-63300500D01*
X119378845Y-63300499D01*
X119533497Y-63269737D01*
X119679179Y-63209394D01*
X119810289Y-63121789D01*
X119921789Y-63010289D01*
X120009394Y-62879179D01*
X120069737Y-62733497D01*
X120100500Y-62578842D01*
X120100500Y-62421158D01*
X120100500Y-62421155D01*
X120100499Y-62421153D01*
X120078269Y-62309397D01*
X120069737Y-62266503D01*
X120021412Y-62149835D01*
X120009397Y-62120827D01*
X120009390Y-62120814D01*
X119921789Y-61989711D01*
X119921786Y-61989707D01*
X119810292Y-61878213D01*
X119810288Y-61878210D01*
X119734548Y-61827602D01*
X119689743Y-61773990D01*
X119681036Y-61704665D01*
X119711190Y-61641637D01*
X119770634Y-61604918D01*
X119803439Y-61600500D01*
X122688693Y-61600500D01*
X122688694Y-61600499D01*
X122746682Y-61588964D01*
X122862658Y-61565896D01*
X122862661Y-61565894D01*
X122862666Y-61565894D01*
X123026547Y-61498013D01*
X123174035Y-61399464D01*
X123299464Y-61274035D01*
X123398013Y-61126547D01*
X123398255Y-61125964D01*
X123459455Y-60978211D01*
X123465894Y-60962666D01*
X123500500Y-60788691D01*
X123500500Y-60611309D01*
X123500500Y-60611306D01*
X123500499Y-60611304D01*
X123465896Y-60437341D01*
X123465893Y-60437332D01*
X123398016Y-60273459D01*
X123398009Y-60273446D01*
X123299464Y-60125965D01*
X123299461Y-60125961D01*
X123174038Y-60000538D01*
X123174034Y-60000535D01*
X123026553Y-59901990D01*
X123026540Y-59901983D01*
X122862667Y-59834106D01*
X122862658Y-59834103D01*
X122688694Y-59799500D01*
X122688691Y-59799500D01*
X119488691Y-59799500D01*
X117788691Y-59799500D01*
X113888692Y-59799500D01*
X113711309Y-59799500D01*
X113711304Y-59799500D01*
X113537339Y-59834103D01*
X113537323Y-59834108D01*
X113421453Y-59882102D01*
X113421454Y-59882103D01*
X113373454Y-59901986D01*
X113240828Y-59990603D01*
X113240829Y-59990604D01*
X113225963Y-60000537D01*
X113225957Y-60000542D01*
X112100538Y-61125960D01*
X112100537Y-61125961D01*
X112064080Y-61180524D01*
X112061063Y-61185040D01*
X112001987Y-61273453D01*
X111970073Y-61350500D01*
X111967495Y-61356723D01*
X111967491Y-61356731D01*
X111936401Y-61431790D01*
X111934105Y-61437334D01*
X111907972Y-61568716D01*
X111907972Y-61568717D01*
X111899500Y-61611307D01*
X111899500Y-67988695D01*
X111934103Y-68162658D01*
X111934106Y-68162667D01*
X112001983Y-68326540D01*
X112001990Y-68326553D01*
X112100535Y-68474034D01*
X112100538Y-68474038D01*
X112225961Y-68599461D01*
X112225965Y-68599464D01*
X112373446Y-68698009D01*
X112373459Y-68698016D01*
X112496363Y-68748923D01*
X112537334Y-68765894D01*
X112537336Y-68765894D01*
X112537341Y-68765896D01*
X112711304Y-68800499D01*
X112711307Y-68800500D01*
X112711309Y-68800500D01*
X112888691Y-68800500D01*
X117375638Y-68800500D01*
X117442677Y-68820185D01*
X117463319Y-68836819D01*
X119363181Y-70736681D01*
X119396666Y-70798004D01*
X119399500Y-70824362D01*
X119399500Y-75600638D01*
X119379815Y-75667677D01*
X119363181Y-75688319D01*
X118750964Y-76300536D01*
X118698936Y-76352564D01*
X118625535Y-76425964D01*
X118625534Y-76425965D01*
X118526988Y-76573451D01*
X118459105Y-76737333D01*
X118459103Y-76737341D01*
X118424500Y-76911303D01*
X118424500Y-77088696D01*
X118459103Y-77262658D01*
X118459105Y-77262666D01*
X118490061Y-77337399D01*
X118499500Y-77384852D01*
X118499500Y-82788696D01*
X118534103Y-82962658D01*
X118534105Y-82962666D01*
X118558595Y-83021789D01*
X118601987Y-83126547D01*
X118657344Y-83209394D01*
X118660929Y-83214759D01*
X118700537Y-83274038D01*
X118700540Y-83274041D01*
X122063181Y-86636681D01*
X122096666Y-86698004D01*
X122099500Y-86724362D01*
X122099500Y-89930253D01*
X122079815Y-89997292D01*
X122027011Y-90043047D01*
X121957853Y-90052991D01*
X121894297Y-90023966D01*
X121857569Y-89968571D01*
X121857562Y-89968550D01*
X121819873Y-89852555D01*
X121741232Y-89698212D01*
X121639414Y-89558072D01*
X121516928Y-89435586D01*
X121376788Y-89333768D01*
X121222445Y-89255127D01*
X121057701Y-89201598D01*
X121057699Y-89201597D01*
X121057698Y-89201597D01*
X120926271Y-89180781D01*
X120886611Y-89174500D01*
X120713389Y-89174500D01*
X120673728Y-89180781D01*
X120542302Y-89201597D01*
X120377552Y-89255128D01*
X120223211Y-89333768D01*
X120083073Y-89435585D01*
X119975530Y-89543128D01*
X119914207Y-89576612D01*
X119844515Y-89571628D01*
X119788582Y-89529756D01*
X119782310Y-89520543D01*
X119756590Y-89478844D01*
X119742712Y-89456344D01*
X119618656Y-89332288D01*
X119504955Y-89262157D01*
X119469336Y-89240187D01*
X119469331Y-89240185D01*
X119451191Y-89234174D01*
X119302797Y-89185001D01*
X119302795Y-89185000D01*
X119200010Y-89174500D01*
X118399998Y-89174500D01*
X118399980Y-89174501D01*
X118297203Y-89185000D01*
X118297200Y-89185001D01*
X118130668Y-89240185D01*
X118130663Y-89240187D01*
X118087999Y-89266503D01*
X118014595Y-89311778D01*
X117947204Y-89330218D01*
X117880541Y-89309295D01*
X117835771Y-89255653D01*
X117825500Y-89206239D01*
X117825500Y-86480858D01*
X117825500Y-86480856D01*
X117823597Y-86471291D01*
X117823597Y-86471286D01*
X117823596Y-86471287D01*
X117823596Y-86471286D01*
X117801463Y-86360010D01*
X117754311Y-86246176D01*
X117754310Y-86246174D01*
X117739827Y-86224498D01*
X117739827Y-86224499D01*
X117685859Y-86143730D01*
X117651519Y-86109390D01*
X117598733Y-86056604D01*
X117598732Y-86056603D01*
X117452042Y-85909913D01*
X117430365Y-85880686D01*
X117429315Y-85878722D01*
X117429312Y-85878715D01*
X117378397Y-85802516D01*
X117360858Y-85776266D01*
X117360855Y-85776263D01*
X116925793Y-85341203D01*
X116892308Y-85279880D01*
X116891887Y-85277864D01*
X116869737Y-85166503D01*
X116823070Y-85053837D01*
X116809397Y-85020827D01*
X116809390Y-85020814D01*
X116721789Y-84889711D01*
X116721786Y-84889707D01*
X116610292Y-84778213D01*
X116610288Y-84778210D01*
X116479185Y-84690609D01*
X116479172Y-84690602D01*
X116333501Y-84630264D01*
X116333489Y-84630261D01*
X116178845Y-84599500D01*
X116178842Y-84599500D01*
X116021158Y-84599500D01*
X116021155Y-84599500D01*
X115866510Y-84630261D01*
X115866498Y-84630264D01*
X115720827Y-84690602D01*
X115720814Y-84690609D01*
X115589711Y-84778210D01*
X115589707Y-84778213D01*
X115478213Y-84889707D01*
X115478210Y-84889711D01*
X115390609Y-85020814D01*
X115390602Y-85020827D01*
X115330264Y-85166498D01*
X115330261Y-85166510D01*
X115299500Y-85321153D01*
X115299500Y-85478846D01*
X115330261Y-85633489D01*
X115330264Y-85633501D01*
X115390602Y-85779172D01*
X115390609Y-85779185D01*
X115478210Y-85910288D01*
X115478213Y-85910292D01*
X115589707Y-86021786D01*
X115589711Y-86021789D01*
X115720814Y-86109390D01*
X115720827Y-86109397D01*
X115796164Y-86140602D01*
X115866503Y-86169737D01*
X115977716Y-86191858D01*
X116039623Y-86224241D01*
X116041203Y-86225793D01*
X116297955Y-86482546D01*
X116314136Y-86502488D01*
X116319309Y-86510421D01*
X116320688Y-86513748D01*
X116353375Y-86562666D01*
X116353725Y-86563190D01*
X116353791Y-86563291D01*
X116389138Y-86616190D01*
X116389139Y-86616191D01*
X116389142Y-86616195D01*
X116476267Y-86703320D01*
X116476269Y-86703321D01*
X116483335Y-86710387D01*
X116483334Y-86710387D01*
X116483338Y-86710390D01*
X116538181Y-86765233D01*
X116571666Y-86826556D01*
X116574500Y-86852914D01*
X116574500Y-89857650D01*
X116554815Y-89924689D01*
X116553626Y-89926503D01*
X116532802Y-89957668D01*
X116490609Y-90020815D01*
X116490602Y-90020828D01*
X116430264Y-90166498D01*
X116430261Y-90166510D01*
X116399500Y-90321153D01*
X116399500Y-90478846D01*
X116430261Y-90633489D01*
X116430264Y-90633501D01*
X116490602Y-90779172D01*
X116490609Y-90779185D01*
X116578210Y-90910288D01*
X116578213Y-90910292D01*
X116689707Y-91021786D01*
X116689711Y-91021789D01*
X116820814Y-91109390D01*
X116820827Y-91109397D01*
X116945958Y-91161227D01*
X116966503Y-91169737D01*
X117121153Y-91200499D01*
X117121156Y-91200500D01*
X117121158Y-91200500D01*
X117278844Y-91200500D01*
X117278845Y-91200499D01*
X117433497Y-91169737D01*
X117529402Y-91130011D01*
X117598871Y-91122543D01*
X117661350Y-91153818D01*
X117697002Y-91213907D01*
X117700212Y-91231971D01*
X117710001Y-91327797D01*
X117710001Y-91327799D01*
X117765185Y-91494331D01*
X117765187Y-91494336D01*
X117793955Y-91540977D01*
X117857288Y-91643656D01*
X117981344Y-91767712D01*
X118130666Y-91859814D01*
X118297203Y-91914999D01*
X118399991Y-91925500D01*
X119200008Y-91925499D01*
X119200016Y-91925498D01*
X119200019Y-91925498D01*
X119256302Y-91919748D01*
X119302797Y-91914999D01*
X119469334Y-91859814D01*
X119618656Y-91767712D01*
X119742712Y-91643656D01*
X119782310Y-91579456D01*
X119799601Y-91563904D01*
X119813539Y-91545286D01*
X119825091Y-91540977D01*
X119834258Y-91532732D01*
X119857213Y-91528996D01*
X119879003Y-91520869D01*
X119891049Y-91523489D01*
X119903220Y-91521509D01*
X119924553Y-91530777D01*
X119947276Y-91535721D01*
X119962969Y-91547469D01*
X119967303Y-91549352D01*
X119975530Y-91556872D01*
X119992504Y-91573846D01*
X120025989Y-91635169D01*
X120026440Y-91685718D01*
X119999500Y-91821153D01*
X119999500Y-91978846D01*
X120008941Y-92026309D01*
X120002714Y-92095901D01*
X119959851Y-92151078D01*
X119893961Y-92174322D01*
X119887324Y-92174500D01*
X113942350Y-92174500D01*
X113875311Y-92154815D01*
X113873459Y-92153602D01*
X113779184Y-92090609D01*
X113779172Y-92090602D01*
X113633501Y-92030264D01*
X113633489Y-92030261D01*
X113478845Y-91999500D01*
X113478842Y-91999500D01*
X113321158Y-91999500D01*
X113321155Y-91999500D01*
X113166510Y-92030261D01*
X113166498Y-92030264D01*
X113020827Y-92090602D01*
X113020814Y-92090609D01*
X112889711Y-92178210D01*
X112889707Y-92178213D01*
X112778213Y-92289707D01*
X112778210Y-92289711D01*
X112690609Y-92420814D01*
X112690602Y-92420827D01*
X112630264Y-92566498D01*
X112630261Y-92566510D01*
X112599500Y-92721153D01*
X112599500Y-92878846D01*
X112630261Y-93033489D01*
X112630264Y-93033501D01*
X112690602Y-93179172D01*
X112690609Y-93179185D01*
X112778210Y-93310288D01*
X112778213Y-93310292D01*
X112889707Y-93421786D01*
X112889711Y-93421789D01*
X113020814Y-93509390D01*
X113020827Y-93509397D01*
X113166498Y-93569735D01*
X113166503Y-93569737D01*
X113283197Y-93592949D01*
X113321153Y-93600499D01*
X113321156Y-93600500D01*
X113321158Y-93600500D01*
X113478844Y-93600500D01*
X113478845Y-93600499D01*
X113633497Y-93569737D01*
X113779179Y-93509394D01*
X113873459Y-93446398D01*
X113940136Y-93425520D01*
X113942350Y-93425500D01*
X120257650Y-93425500D01*
X120324689Y-93445185D01*
X120326541Y-93446398D01*
X120420821Y-93509394D01*
X120420823Y-93509395D01*
X120420827Y-93509397D01*
X120566498Y-93569735D01*
X120566503Y-93569737D01*
X120683197Y-93592949D01*
X120721153Y-93600499D01*
X120721156Y-93600500D01*
X120721158Y-93600500D01*
X120878844Y-93600500D01*
X120878845Y-93600499D01*
X121033497Y-93569737D01*
X121103049Y-93540927D01*
X121135676Y-93537419D01*
X121168147Y-93532751D01*
X121170234Y-93533704D01*
X121172516Y-93533459D01*
X121201854Y-93548144D01*
X121231703Y-93561776D01*
X121232943Y-93563706D01*
X121234996Y-93564734D01*
X121251736Y-93592949D01*
X121269477Y-93620554D01*
X121269912Y-93623583D01*
X121270648Y-93624823D01*
X121274500Y-93655489D01*
X121274500Y-93657650D01*
X121254815Y-93724689D01*
X121253602Y-93726541D01*
X121190609Y-93820815D01*
X121190602Y-93820828D01*
X121130264Y-93966498D01*
X121130261Y-93966508D01*
X121103769Y-94099692D01*
X121071384Y-94161603D01*
X121010668Y-94196177D01*
X120982152Y-94199500D01*
X119331005Y-94199500D01*
X119276772Y-94210288D01*
X119224051Y-94220775D01*
X119195671Y-94226420D01*
X119195670Y-94226420D01*
X119068190Y-94279224D01*
X118953454Y-94355887D01*
X113755887Y-99553454D01*
X113679222Y-99668192D01*
X113626421Y-99795667D01*
X113626418Y-99795679D01*
X113601335Y-99921783D01*
X113601334Y-99921789D01*
X113599500Y-99931006D01*
X113599500Y-101674684D01*
X113590061Y-101722136D01*
X113530264Y-101866498D01*
X113530261Y-101866510D01*
X113499500Y-102021153D01*
X113499500Y-102178846D01*
X113530261Y-102333489D01*
X113530264Y-102333501D01*
X113590602Y-102479172D01*
X113590609Y-102479185D01*
X113678210Y-102610288D01*
X113678213Y-102610292D01*
X113789707Y-102721786D01*
X113789711Y-102721789D01*
X113920814Y-102809390D01*
X113920827Y-102809397D01*
X114064984Y-102869108D01*
X114066503Y-102869737D01*
X114221153Y-102900499D01*
X114221156Y-102900500D01*
X114221158Y-102900500D01*
X114378844Y-102900500D01*
X114378845Y-102900499D01*
X114533497Y-102869737D01*
X114679179Y-102809394D01*
X114810289Y-102721789D01*
X114921789Y-102610289D01*
X115009394Y-102479179D01*
X115069737Y-102333497D01*
X115100500Y-102178842D01*
X115100500Y-102021158D01*
X115100500Y-102021155D01*
X115100499Y-102021153D01*
X115069737Y-101866503D01*
X115042398Y-101800500D01*
X115009939Y-101722136D01*
X115000500Y-101674684D01*
X115000500Y-100341518D01*
X115020185Y-100274479D01*
X115036814Y-100253842D01*
X118145313Y-97145342D01*
X118169541Y-97132113D01*
X118191968Y-97116008D01*
X118199773Y-97115604D01*
X118206634Y-97111859D01*
X118234175Y-97113828D01*
X118261745Y-97112405D01*
X118271048Y-97116465D01*
X118276326Y-97116843D01*
X118294563Y-97125391D01*
X118298307Y-97127533D01*
X118420821Y-97209394D01*
X118495448Y-97240305D01*
X118502281Y-97244214D01*
X118521253Y-97263953D01*
X118542565Y-97281127D01*
X118545110Y-97288774D01*
X118550698Y-97294588D01*
X118555986Y-97321449D01*
X118564631Y-97347420D01*
X118562637Y-97355231D01*
X118564195Y-97363142D01*
X118554122Y-97388596D01*
X118547353Y-97415120D01*
X118539756Y-97424898D01*
X118538486Y-97428110D01*
X118535717Y-97430098D01*
X118528392Y-97439528D01*
X118478214Y-97489706D01*
X118478210Y-97489711D01*
X118390609Y-97620814D01*
X118390602Y-97620827D01*
X118330264Y-97766498D01*
X118330261Y-97766510D01*
X118299500Y-97921153D01*
X118299500Y-98078846D01*
X118330261Y-98233489D01*
X118330264Y-98233501D01*
X118390602Y-98379172D01*
X118390609Y-98379185D01*
X118478210Y-98510288D01*
X118478213Y-98510292D01*
X118589707Y-98621786D01*
X118589711Y-98621789D01*
X118720814Y-98709390D01*
X118720827Y-98709397D01*
X118866498Y-98769735D01*
X118866503Y-98769737D01*
X119021153Y-98800499D01*
X119021156Y-98800500D01*
X119021158Y-98800500D01*
X119178844Y-98800500D01*
X119178845Y-98800499D01*
X119333497Y-98769737D01*
X119479179Y-98709394D01*
X119573459Y-98646398D01*
X119640136Y-98625520D01*
X119642350Y-98625500D01*
X120257650Y-98625500D01*
X120324689Y-98645185D01*
X120326541Y-98646398D01*
X120420821Y-98709394D01*
X120420823Y-98709395D01*
X120420827Y-98709397D01*
X120566498Y-98769735D01*
X120566503Y-98769737D01*
X120721153Y-98800499D01*
X120721156Y-98800500D01*
X120721158Y-98800500D01*
X120878844Y-98800500D01*
X120878845Y-98800499D01*
X121033497Y-98769737D01*
X121103049Y-98740927D01*
X121172516Y-98733459D01*
X121234996Y-98764734D01*
X121270648Y-98824823D01*
X121274500Y-98855489D01*
X121274500Y-99161611D01*
X121298535Y-99282444D01*
X121298540Y-99282461D01*
X121345685Y-99396281D01*
X121345690Y-99396290D01*
X121367994Y-99429669D01*
X121367997Y-99429672D01*
X121372179Y-99435931D01*
X121414142Y-99498733D01*
X121501267Y-99585858D01*
X121501270Y-99585860D01*
X121508904Y-99593494D01*
X123388181Y-101472771D01*
X123421666Y-101534094D01*
X123424500Y-101560452D01*
X123424500Y-102575500D01*
X123404815Y-102642539D01*
X123352011Y-102688294D01*
X123300500Y-102699500D01*
X123221155Y-102699500D01*
X123066510Y-102730261D01*
X123066498Y-102730264D01*
X122920827Y-102790602D01*
X122920814Y-102790609D01*
X122789713Y-102878209D01*
X122789712Y-102878209D01*
X122678205Y-102989717D01*
X122674993Y-102993631D01*
X122617243Y-103032959D01*
X122547398Y-103034822D01*
X122537485Y-103031473D01*
X122533488Y-103030260D01*
X122378845Y-102999500D01*
X122378842Y-102999500D01*
X122221158Y-102999500D01*
X122221155Y-102999500D01*
X122066510Y-103030261D01*
X122066498Y-103030264D01*
X121920827Y-103090602D01*
X121920814Y-103090609D01*
X121789711Y-103178210D01*
X121789707Y-103178213D01*
X121678213Y-103289707D01*
X121678210Y-103289711D01*
X121590609Y-103420814D01*
X121590602Y-103420827D01*
X121530264Y-103566498D01*
X121530261Y-103566510D01*
X121499500Y-103721153D01*
X121499500Y-103878846D01*
X121530261Y-104033489D01*
X121530264Y-104033501D01*
X121590602Y-104179172D01*
X121590609Y-104179185D01*
X121678210Y-104310288D01*
X121678213Y-104310292D01*
X121789707Y-104421786D01*
X121789711Y-104421789D01*
X121920814Y-104509390D01*
X121920827Y-104509397D01*
X122008230Y-104545599D01*
X122066503Y-104569737D01*
X122177716Y-104591858D01*
X122194470Y-104600622D01*
X122212949Y-104604642D01*
X122237985Y-104623384D01*
X122239623Y-104624241D01*
X122241203Y-104625793D01*
X122311016Y-104695606D01*
X122311045Y-104695637D01*
X122401264Y-104785856D01*
X122401267Y-104785858D01*
X122457655Y-104823535D01*
X122503715Y-104854312D01*
X122570397Y-104881932D01*
X122575405Y-104884006D01*
X122575410Y-104884009D01*
X122610530Y-104898555D01*
X122617548Y-104901463D01*
X122677971Y-104913481D01*
X122738393Y-104925500D01*
X124261607Y-104925500D01*
X124322029Y-104913481D01*
X124382452Y-104901463D01*
X124415792Y-104887652D01*
X124496286Y-104854312D01*
X124547509Y-104820084D01*
X124547972Y-104819775D01*
X124560271Y-104811556D01*
X124598733Y-104785858D01*
X124685858Y-104698733D01*
X124685859Y-104698731D01*
X124692925Y-104691665D01*
X124692928Y-104691661D01*
X124898729Y-104485860D01*
X124898733Y-104485858D01*
X124985858Y-104398733D01*
X125020084Y-104347509D01*
X125054312Y-104296286D01*
X125101463Y-104182451D01*
X125125500Y-104061607D01*
X125125500Y-103938393D01*
X125125500Y-101727350D01*
X125145185Y-101660311D01*
X125197989Y-101614556D01*
X125267147Y-101604612D01*
X125318391Y-101624248D01*
X125445814Y-101709390D01*
X125445827Y-101709397D01*
X125591498Y-101769735D01*
X125591503Y-101769737D01*
X125746153Y-101800499D01*
X125746156Y-101800500D01*
X125746158Y-101800500D01*
X125903844Y-101800500D01*
X125988047Y-101783750D01*
X126015719Y-101778246D01*
X126085311Y-101784473D01*
X126127592Y-101812182D01*
X134878229Y-110562819D01*
X134911714Y-110624142D01*
X134906730Y-110693834D01*
X134864858Y-110749767D01*
X134799394Y-110774184D01*
X134790548Y-110774500D01*
X122457940Y-110774500D01*
X122390901Y-110754815D01*
X122370263Y-110738185D01*
X122310289Y-110678211D01*
X122310288Y-110678210D01*
X122310287Y-110678209D01*
X122179185Y-110590609D01*
X122179172Y-110590602D01*
X122033501Y-110530264D01*
X122033489Y-110530261D01*
X121878845Y-110499500D01*
X121878842Y-110499500D01*
X121721158Y-110499500D01*
X121721155Y-110499500D01*
X121566510Y-110530261D01*
X121566498Y-110530264D01*
X121420827Y-110590602D01*
X121420814Y-110590609D01*
X121289711Y-110678210D01*
X121289707Y-110678213D01*
X121178213Y-110789707D01*
X121178210Y-110789711D01*
X121090609Y-110920814D01*
X121090602Y-110920827D01*
X121030264Y-111066498D01*
X121030261Y-111066510D01*
X120999500Y-111221153D01*
X120999500Y-111378846D01*
X121030261Y-111533489D01*
X121030264Y-111533501D01*
X121090602Y-111679172D01*
X121090609Y-111679185D01*
X121178210Y-111810288D01*
X121178213Y-111810292D01*
X121289707Y-111921786D01*
X121289711Y-111921789D01*
X121420814Y-112009390D01*
X121420827Y-112009397D01*
X121558695Y-112066503D01*
X121566503Y-112069737D01*
X121721153Y-112100499D01*
X121721156Y-112100500D01*
X121721158Y-112100500D01*
X121878844Y-112100500D01*
X121878845Y-112100499D01*
X122033497Y-112069737D01*
X122092771Y-112045185D01*
X122117508Y-112034939D01*
X122164960Y-112025500D01*
X151387324Y-112025500D01*
X151454363Y-112045185D01*
X151500118Y-112097989D01*
X151510062Y-112167147D01*
X151508941Y-112173691D01*
X151499500Y-112221153D01*
X151499500Y-112378846D01*
X151530261Y-112533489D01*
X151530264Y-112533501D01*
X151590602Y-112679172D01*
X151590609Y-112679185D01*
X151678210Y-112810288D01*
X151678213Y-112810292D01*
X151789707Y-112921786D01*
X151789711Y-112921789D01*
X151920814Y-113009390D01*
X151920827Y-113009397D01*
X152066498Y-113069735D01*
X152066503Y-113069737D01*
X152221153Y-113100499D01*
X152221156Y-113100500D01*
X152221158Y-113100500D01*
X152378844Y-113100500D01*
X152481119Y-113080155D01*
X152500241Y-113076352D01*
X152569833Y-113082579D01*
X152625010Y-113125442D01*
X152648255Y-113191331D01*
X152638996Y-113245417D01*
X152630264Y-113266499D01*
X152630261Y-113266510D01*
X152599500Y-113421153D01*
X152599500Y-113578846D01*
X152630261Y-113733489D01*
X152630264Y-113733501D01*
X152690602Y-113879172D01*
X152690609Y-113879185D01*
X152778210Y-114010288D01*
X152778213Y-114010292D01*
X152889707Y-114121786D01*
X152889711Y-114121789D01*
X153020814Y-114209390D01*
X153020827Y-114209397D01*
X153166498Y-114269735D01*
X153166503Y-114269737D01*
X153321153Y-114300499D01*
X153321156Y-114300500D01*
X153321158Y-114300500D01*
X153478844Y-114300500D01*
X153478845Y-114300499D01*
X153633497Y-114269737D01*
X153779179Y-114209394D01*
X153910289Y-114121789D01*
X153989760Y-114042317D01*
X154051081Y-114008834D01*
X154120773Y-114013818D01*
X154176707Y-114055689D01*
X154187190Y-114074100D01*
X154187736Y-114073809D01*
X154190609Y-114079185D01*
X154278210Y-114210288D01*
X154278213Y-114210292D01*
X154389707Y-114321786D01*
X154389711Y-114321789D01*
X154520814Y-114409390D01*
X154520827Y-114409397D01*
X154666498Y-114469735D01*
X154666503Y-114469737D01*
X154821153Y-114500499D01*
X154821156Y-114500500D01*
X154821158Y-114500500D01*
X154978844Y-114500500D01*
X154978845Y-114500499D01*
X155133497Y-114469737D01*
X155279179Y-114409394D01*
X155373459Y-114346398D01*
X155440136Y-114325520D01*
X155442350Y-114325500D01*
X160557650Y-114325500D01*
X160624689Y-114345185D01*
X160626541Y-114346398D01*
X160720821Y-114409394D01*
X160720823Y-114409395D01*
X160720827Y-114409397D01*
X160866498Y-114469735D01*
X160866503Y-114469737D01*
X161021153Y-114500499D01*
X161021156Y-114500500D01*
X161021158Y-114500500D01*
X161178844Y-114500500D01*
X161178845Y-114500499D01*
X161333497Y-114469737D01*
X161479179Y-114409394D01*
X161610289Y-114321789D01*
X161721789Y-114210289D01*
X161809394Y-114079179D01*
X161869737Y-113933497D01*
X161900500Y-113778842D01*
X161900500Y-113621158D01*
X161900500Y-113621155D01*
X161900499Y-113621153D01*
X161900465Y-113620980D01*
X161869737Y-113466503D01*
X161820425Y-113347452D01*
X161812956Y-113277983D01*
X161820425Y-113252548D01*
X161836287Y-113214251D01*
X161869737Y-113133497D01*
X161900500Y-112978842D01*
X161900500Y-112821158D01*
X161900500Y-112821155D01*
X161900499Y-112821153D01*
X161898338Y-112810288D01*
X161869737Y-112666503D01*
X161869735Y-112666498D01*
X161809397Y-112520827D01*
X161809390Y-112520814D01*
X161721789Y-112389711D01*
X161721786Y-112389707D01*
X161610292Y-112278213D01*
X161610288Y-112278210D01*
X161479185Y-112190609D01*
X161479172Y-112190602D01*
X161333501Y-112130264D01*
X161333489Y-112130261D01*
X161222285Y-112108141D01*
X161160374Y-112075756D01*
X161158795Y-112074205D01*
X158961819Y-109877229D01*
X158928334Y-109815906D01*
X158925500Y-109789548D01*
X158925500Y-109042350D01*
X158945185Y-108975311D01*
X158946398Y-108973459D01*
X158946809Y-108972843D01*
X159009394Y-108879179D01*
X159069737Y-108733497D01*
X159100500Y-108578842D01*
X159100500Y-108421158D01*
X159100500Y-108421155D01*
X159100499Y-108421153D01*
X159069737Y-108266503D01*
X159020425Y-108147452D01*
X159012956Y-108077983D01*
X159020425Y-108052548D01*
X159044818Y-107993657D01*
X159069737Y-107933497D01*
X159100500Y-107778842D01*
X159100500Y-107621158D01*
X159100500Y-107621155D01*
X159100499Y-107621153D01*
X159069738Y-107466510D01*
X159069737Y-107466503D01*
X159009394Y-107320821D01*
X158946397Y-107226539D01*
X158925520Y-107159863D01*
X158925500Y-107157650D01*
X158925500Y-106224983D01*
X160099500Y-106224983D01*
X160099500Y-107575001D01*
X160099501Y-107575018D01*
X160110000Y-107677796D01*
X160110001Y-107677799D01*
X160143485Y-107778846D01*
X160165186Y-107844334D01*
X160257288Y-107993656D01*
X160381344Y-108117712D01*
X160530666Y-108209814D01*
X160697203Y-108264999D01*
X160799991Y-108275500D01*
X161600008Y-108275499D01*
X161600016Y-108275498D01*
X161600019Y-108275498D01*
X161656302Y-108269748D01*
X161702797Y-108264999D01*
X161869334Y-108209814D01*
X162018656Y-108117712D01*
X162142712Y-107993656D01*
X162182581Y-107929016D01*
X162234525Y-107882294D01*
X162303488Y-107871071D01*
X162367570Y-107898914D01*
X162375799Y-107906434D01*
X162483397Y-108014032D01*
X162623475Y-108115804D01*
X162777744Y-108194408D01*
X162942415Y-108247914D01*
X162942414Y-108247914D01*
X162949999Y-108249115D01*
X162950000Y-108249114D01*
X162950000Y-107180330D01*
X162969745Y-107200075D01*
X163055255Y-107249444D01*
X163150630Y-107275000D01*
X163249370Y-107275000D01*
X163344745Y-107249444D01*
X163430255Y-107200075D01*
X163450000Y-107180330D01*
X163450000Y-108249115D01*
X163457584Y-108247914D01*
X163622255Y-108194408D01*
X163776524Y-108115804D01*
X163916602Y-108014032D01*
X164039032Y-107891602D01*
X164140804Y-107751524D01*
X164219408Y-107597257D01*
X164272914Y-107432584D01*
X164300000Y-107261571D01*
X164300000Y-107150000D01*
X163480330Y-107150000D01*
X163500075Y-107130255D01*
X163549444Y-107044745D01*
X163575000Y-106949370D01*
X163575000Y-106850630D01*
X163549444Y-106755255D01*
X163500075Y-106669745D01*
X163480330Y-106650000D01*
X164300000Y-106650000D01*
X164300000Y-106538428D01*
X164272914Y-106367415D01*
X164219408Y-106202742D01*
X164140804Y-106048475D01*
X164039032Y-105908397D01*
X163916602Y-105785967D01*
X163776524Y-105684195D01*
X163622257Y-105605591D01*
X163457589Y-105552087D01*
X163457581Y-105552085D01*
X163450000Y-105550884D01*
X163450000Y-106619670D01*
X163430255Y-106599925D01*
X163344745Y-106550556D01*
X163249370Y-106525000D01*
X163150630Y-106525000D01*
X163055255Y-106550556D01*
X162969745Y-106599925D01*
X162950000Y-106619670D01*
X162950000Y-105550884D01*
X162949999Y-105550884D01*
X162942418Y-105552085D01*
X162942410Y-105552087D01*
X162777742Y-105605591D01*
X162623475Y-105684195D01*
X162483401Y-105785964D01*
X162375799Y-105893566D01*
X162314476Y-105927050D01*
X162244784Y-105922066D01*
X162188851Y-105880194D01*
X162182585Y-105870988D01*
X162142712Y-105806344D01*
X162018656Y-105682288D01*
X161869334Y-105590186D01*
X161702797Y-105535001D01*
X161702795Y-105535000D01*
X161600010Y-105524500D01*
X160799998Y-105524500D01*
X160799980Y-105524501D01*
X160697203Y-105535000D01*
X160697200Y-105535001D01*
X160530668Y-105590185D01*
X160530663Y-105590187D01*
X160381342Y-105682289D01*
X160257289Y-105806342D01*
X160165187Y-105955663D01*
X160165185Y-105955668D01*
X160137349Y-106039670D01*
X160110001Y-106122203D01*
X160110001Y-106122204D01*
X160110000Y-106122204D01*
X160099500Y-106224983D01*
X158925500Y-106224983D01*
X158925500Y-105942350D01*
X158945185Y-105875311D01*
X158946398Y-105873459D01*
X158948054Y-105870980D01*
X159009394Y-105779179D01*
X159011524Y-105774038D01*
X159069735Y-105633501D01*
X159069737Y-105633497D01*
X159100500Y-105478842D01*
X159100500Y-105321158D01*
X159100500Y-105321155D01*
X159100499Y-105321153D01*
X159069738Y-105166510D01*
X159069737Y-105166503D01*
X159046873Y-105111304D01*
X159009397Y-105020827D01*
X159009390Y-105020814D01*
X158921789Y-104889711D01*
X158921786Y-104889707D01*
X158810292Y-104778213D01*
X158810288Y-104778210D01*
X158679185Y-104690609D01*
X158679172Y-104690602D01*
X158533501Y-104630264D01*
X158533489Y-104630261D01*
X158378845Y-104599500D01*
X158378842Y-104599500D01*
X158221158Y-104599500D01*
X158221155Y-104599500D01*
X158066510Y-104630261D01*
X158066498Y-104630264D01*
X157920827Y-104690602D01*
X157920814Y-104690609D01*
X157789711Y-104778210D01*
X157789707Y-104778213D01*
X157678213Y-104889707D01*
X157678210Y-104889711D01*
X157590609Y-105020814D01*
X157590602Y-105020827D01*
X157530264Y-105166498D01*
X157530261Y-105166510D01*
X157499500Y-105321153D01*
X157499500Y-105478846D01*
X157530261Y-105633489D01*
X157530264Y-105633501D01*
X157590602Y-105779172D01*
X157590609Y-105779184D01*
X157653602Y-105873459D01*
X157674480Y-105940136D01*
X157674500Y-105942350D01*
X157674500Y-107157650D01*
X157654815Y-107224689D01*
X157653602Y-107226541D01*
X157590609Y-107320815D01*
X157590602Y-107320828D01*
X157530264Y-107466498D01*
X157530261Y-107466510D01*
X157499500Y-107621153D01*
X157499500Y-107778846D01*
X157530261Y-107933489D01*
X157530264Y-107933501D01*
X157579574Y-108052548D01*
X157587043Y-108122018D01*
X157579574Y-108147452D01*
X157530264Y-108266498D01*
X157530261Y-108266510D01*
X157499500Y-108421153D01*
X157499500Y-108578846D01*
X157530261Y-108733489D01*
X157530264Y-108733501D01*
X157590602Y-108879172D01*
X157590609Y-108879184D01*
X157653602Y-108973459D01*
X157674480Y-109040136D01*
X157674500Y-109042350D01*
X157674500Y-110161610D01*
X157698535Y-110282444D01*
X157698537Y-110282452D01*
X157707344Y-110303714D01*
X157745688Y-110396286D01*
X157779915Y-110447509D01*
X157784005Y-110453630D01*
X157784006Y-110453632D01*
X157814141Y-110498733D01*
X157905586Y-110590178D01*
X157905608Y-110590198D01*
X160178229Y-112862819D01*
X160211714Y-112924142D01*
X160206730Y-112993834D01*
X160164858Y-113049767D01*
X160099394Y-113074184D01*
X160090548Y-113074500D01*
X155442350Y-113074500D01*
X155375311Y-113054815D01*
X155373459Y-113053602D01*
X155279184Y-112990609D01*
X155279172Y-112990602D01*
X155133501Y-112930264D01*
X155133489Y-112930261D01*
X154978845Y-112899500D01*
X154978842Y-112899500D01*
X154821158Y-112899500D01*
X154821155Y-112899500D01*
X154666510Y-112930261D01*
X154666498Y-112930264D01*
X154520827Y-112990602D01*
X154520814Y-112990609D01*
X154389711Y-113078210D01*
X154310240Y-113157681D01*
X154248916Y-113191165D01*
X154179225Y-113186181D01*
X154123291Y-113144309D01*
X154118818Y-113137924D01*
X154112449Y-113128196D01*
X154109394Y-113120821D01*
X154021789Y-112989711D01*
X154021748Y-112989670D01*
X154020759Y-112988159D01*
X154010780Y-112955216D01*
X154000520Y-112922447D01*
X154000509Y-112921307D01*
X154000504Y-112921289D01*
X154000509Y-112921270D01*
X154000500Y-112920234D01*
X154000500Y-88000097D01*
X154020185Y-87933058D01*
X154036819Y-87912416D01*
X154298736Y-87650499D01*
X154614662Y-87334572D01*
X154675983Y-87301089D01*
X154678150Y-87300638D01*
X154736085Y-87289113D01*
X154833497Y-87269737D01*
X154951592Y-87220821D01*
X154979172Y-87209397D01*
X154979172Y-87209396D01*
X154979179Y-87209394D01*
X155110289Y-87121789D01*
X155221789Y-87010289D01*
X155309394Y-86879179D01*
X155369737Y-86733497D01*
X155400500Y-86578842D01*
X155400500Y-86421158D01*
X155400500Y-86421155D01*
X155400499Y-86421153D01*
X155369738Y-86266510D01*
X155369738Y-86266508D01*
X155369737Y-86266503D01*
X155361317Y-86246174D01*
X155309397Y-86120827D01*
X155309390Y-86120814D01*
X155221789Y-85989711D01*
X155221786Y-85989707D01*
X155110292Y-85878213D01*
X155110288Y-85878210D01*
X154979185Y-85790609D01*
X154979172Y-85790602D01*
X154833501Y-85730264D01*
X154833489Y-85730261D01*
X154678845Y-85699500D01*
X154678842Y-85699500D01*
X154521158Y-85699500D01*
X154521155Y-85699500D01*
X154366510Y-85730261D01*
X154366498Y-85730264D01*
X154220827Y-85790602D01*
X154220814Y-85790609D01*
X154089711Y-85878210D01*
X154089707Y-85878213D01*
X153978213Y-85989707D01*
X153978210Y-85989711D01*
X153890609Y-86120814D01*
X153890602Y-86120827D01*
X153830264Y-86266498D01*
X153830261Y-86266508D01*
X153799361Y-86421850D01*
X153766976Y-86483761D01*
X153765425Y-86485339D01*
X153112181Y-87138583D01*
X153050858Y-87172068D01*
X152981166Y-87167084D01*
X152925233Y-87125212D01*
X152900816Y-87059748D01*
X152900500Y-87050902D01*
X152900500Y-86500096D01*
X152920185Y-86433057D01*
X152936814Y-86412420D01*
X156558506Y-82790727D01*
X156558511Y-82790724D01*
X156568714Y-82780520D01*
X156568716Y-82780520D01*
X156680520Y-82668716D01*
X156735446Y-82573580D01*
X156759577Y-82531785D01*
X156800501Y-82379057D01*
X156800501Y-82220943D01*
X156800501Y-82213348D01*
X156800500Y-82213330D01*
X156800500Y-78482940D01*
X156820185Y-78415901D01*
X156836814Y-78395263D01*
X156921789Y-78310289D01*
X157009394Y-78179179D01*
X157069737Y-78033497D01*
X157078269Y-77990606D01*
X157096231Y-77900308D01*
X157110945Y-77872177D01*
X157124135Y-77843297D01*
X157127024Y-77841440D01*
X157128616Y-77838397D01*
X157156208Y-77822684D01*
X157182913Y-77805523D01*
X157187506Y-77804862D01*
X157189332Y-77803823D01*
X157217848Y-77800500D01*
X157400399Y-77800500D01*
X157467438Y-77820185D01*
X157513193Y-77872989D01*
X157523137Y-77942147D01*
X157505938Y-77989594D01*
X157494337Y-78008404D01*
X157465187Y-78055663D01*
X157465185Y-78055668D01*
X157449216Y-78103860D01*
X157410001Y-78222203D01*
X157410001Y-78222204D01*
X157410000Y-78222204D01*
X157399500Y-78324983D01*
X157399500Y-79675001D01*
X157399501Y-79675018D01*
X157410000Y-79777796D01*
X157410001Y-79777799D01*
X157465185Y-79944331D01*
X157465187Y-79944336D01*
X157486473Y-79978846D01*
X157557288Y-80093656D01*
X157681344Y-80217712D01*
X157830666Y-80309814D01*
X157997203Y-80364999D01*
X158099991Y-80375500D01*
X158900008Y-80375499D01*
X158900016Y-80375498D01*
X158900019Y-80375498D01*
X158956302Y-80369748D01*
X159002797Y-80364999D01*
X159169334Y-80309814D01*
X159318656Y-80217712D01*
X159442712Y-80093656D01*
X159482310Y-80029456D01*
X159534258Y-79982732D01*
X159603220Y-79971509D01*
X159667303Y-79999352D01*
X159675530Y-80006872D01*
X159783072Y-80114414D01*
X159923212Y-80216232D01*
X160077555Y-80294873D01*
X160242299Y-80348402D01*
X160413389Y-80375500D01*
X160413390Y-80375500D01*
X160586610Y-80375500D01*
X160586611Y-80375500D01*
X160757701Y-80348402D01*
X160922445Y-80294873D01*
X161076788Y-80216232D01*
X161216928Y-80114414D01*
X161339414Y-79991928D01*
X161399991Y-79908550D01*
X161455321Y-79865885D01*
X161524934Y-79859906D01*
X161586729Y-79892512D01*
X161600628Y-79908551D01*
X161660967Y-79991602D01*
X161783397Y-80114032D01*
X161923475Y-80215804D01*
X162077744Y-80294408D01*
X162242415Y-80347914D01*
X162242414Y-80347914D01*
X162249999Y-80349115D01*
X162250000Y-80349114D01*
X162250000Y-79280330D01*
X162269745Y-79300075D01*
X162355255Y-79349444D01*
X162450630Y-79375000D01*
X162549370Y-79375000D01*
X162644745Y-79349444D01*
X162730255Y-79300075D01*
X162750000Y-79280330D01*
X162750000Y-80349115D01*
X162757584Y-80347914D01*
X162922255Y-80294408D01*
X163076524Y-80215804D01*
X163216602Y-80114032D01*
X163339032Y-79991602D01*
X163440804Y-79851524D01*
X163519408Y-79697257D01*
X163572914Y-79532584D01*
X163600000Y-79361571D01*
X163600000Y-79250000D01*
X162780330Y-79250000D01*
X162800075Y-79230255D01*
X162849444Y-79144745D01*
X162875000Y-79049370D01*
X162875000Y-78950630D01*
X162849444Y-78855255D01*
X162800075Y-78769745D01*
X162780330Y-78750000D01*
X163600000Y-78750000D01*
X163600000Y-78638428D01*
X163572914Y-78467415D01*
X163519408Y-78302742D01*
X163440804Y-78148475D01*
X163339032Y-78008397D01*
X163216602Y-77885967D01*
X163076524Y-77784195D01*
X162922257Y-77705591D01*
X162757589Y-77652087D01*
X162757581Y-77652085D01*
X162750000Y-77650884D01*
X162750000Y-78719670D01*
X162730255Y-78699925D01*
X162644745Y-78650556D01*
X162549370Y-78625000D01*
X162450630Y-78625000D01*
X162355255Y-78650556D01*
X162269745Y-78699925D01*
X162250000Y-78719670D01*
X162250000Y-77650884D01*
X162249999Y-77650884D01*
X162242418Y-77652085D01*
X162242410Y-77652087D01*
X162077742Y-77705591D01*
X161923475Y-77784195D01*
X161783397Y-77885967D01*
X161660965Y-78008399D01*
X161660961Y-78008404D01*
X161600627Y-78091448D01*
X161545297Y-78134114D01*
X161475684Y-78140093D01*
X161413889Y-78107488D01*
X161399991Y-78091449D01*
X161399990Y-78091448D01*
X161339414Y-78008072D01*
X161216928Y-77885586D01*
X161126912Y-77820185D01*
X161076786Y-77783766D01*
X161073617Y-77782152D01*
X161022821Y-77734178D01*
X161006025Y-77666357D01*
X161026809Y-77602776D01*
X161109390Y-77479185D01*
X161109390Y-77479184D01*
X161109394Y-77479179D01*
X161169737Y-77333497D01*
X161200500Y-77178842D01*
X161200500Y-77021158D01*
X161200500Y-77021155D01*
X161200499Y-77021153D01*
X161189628Y-76966502D01*
X161169737Y-76866503D01*
X161146577Y-76810590D01*
X161109397Y-76720827D01*
X161109390Y-76720814D01*
X161021789Y-76589711D01*
X161021786Y-76589707D01*
X160910292Y-76478213D01*
X160910288Y-76478210D01*
X160779185Y-76390609D01*
X160779172Y-76390602D01*
X160633501Y-76330264D01*
X160633489Y-76330261D01*
X160478845Y-76299500D01*
X160478842Y-76299500D01*
X160321158Y-76299500D01*
X160321155Y-76299500D01*
X160166510Y-76330261D01*
X160166498Y-76330264D01*
X160020827Y-76390602D01*
X160020814Y-76390609D01*
X159889711Y-76478210D01*
X159889707Y-76478213D01*
X159854742Y-76513180D01*
X159793420Y-76546666D01*
X159767060Y-76549500D01*
X151724500Y-76549500D01*
X151657461Y-76529815D01*
X151611706Y-76477011D01*
X151600500Y-76425500D01*
X151600500Y-74879765D01*
X151620185Y-74812726D01*
X151621398Y-74810874D01*
X151709390Y-74679185D01*
X151709390Y-74679184D01*
X151709394Y-74679179D01*
X151769737Y-74533497D01*
X151800500Y-74378842D01*
X151800500Y-74221158D01*
X151800500Y-74221155D01*
X151800499Y-74221153D01*
X151796472Y-74200909D01*
X151769737Y-74066503D01*
X151758006Y-74038181D01*
X151709397Y-73920827D01*
X151709390Y-73920814D01*
X151621789Y-73789711D01*
X151621786Y-73789707D01*
X151510292Y-73678213D01*
X151510288Y-73678210D01*
X151379185Y-73590609D01*
X151379172Y-73590602D01*
X151233501Y-73530264D01*
X151233489Y-73530261D01*
X151078845Y-73499500D01*
X151078842Y-73499500D01*
X150921158Y-73499500D01*
X150921155Y-73499500D01*
X150766510Y-73530261D01*
X150766498Y-73530264D01*
X150620827Y-73590602D01*
X150620814Y-73590609D01*
X150489711Y-73678210D01*
X150489707Y-73678213D01*
X150378213Y-73789707D01*
X150378210Y-73789711D01*
X150290609Y-73920814D01*
X150290602Y-73920827D01*
X150230264Y-74066498D01*
X150230261Y-74066510D01*
X150199500Y-74221153D01*
X150199500Y-74378846D01*
X150230261Y-74533489D01*
X150230264Y-74533501D01*
X150290602Y-74679172D01*
X150290609Y-74679185D01*
X150378602Y-74810874D01*
X150399480Y-74877551D01*
X150399500Y-74879765D01*
X150399500Y-76975494D01*
X150397117Y-76999685D01*
X150374500Y-77113389D01*
X150374500Y-77236610D01*
X150397883Y-77354166D01*
X150398537Y-77357452D01*
X150407246Y-77378477D01*
X150445687Y-77471283D01*
X150445692Y-77471292D01*
X150514141Y-77573732D01*
X150514144Y-77573736D01*
X150601263Y-77660855D01*
X150601267Y-77660858D01*
X150703707Y-77729307D01*
X150703713Y-77729310D01*
X150703714Y-77729311D01*
X150817548Y-77776463D01*
X150938389Y-77800499D01*
X150938393Y-77800500D01*
X150938394Y-77800500D01*
X155382152Y-77800500D01*
X155449191Y-77820185D01*
X155494946Y-77872989D01*
X155503769Y-77900308D01*
X155530261Y-78033491D01*
X155530264Y-78033501D01*
X155590061Y-78177864D01*
X155599500Y-78225316D01*
X155599500Y-80775500D01*
X155579815Y-80842539D01*
X155527011Y-80888294D01*
X155475500Y-80899500D01*
X155421155Y-80899500D01*
X155266510Y-80930261D01*
X155266498Y-80930264D01*
X155120827Y-80990602D01*
X155120814Y-80990609D01*
X154989711Y-81078210D01*
X154989707Y-81078213D01*
X154878213Y-81189707D01*
X154878210Y-81189711D01*
X154790609Y-81320814D01*
X154790602Y-81320827D01*
X154730264Y-81466498D01*
X154730261Y-81466508D01*
X154708141Y-81577714D01*
X154675756Y-81639625D01*
X154674205Y-81641203D01*
X151201270Y-85114139D01*
X151114144Y-85201264D01*
X151114138Y-85201272D01*
X151045690Y-85303708D01*
X151045688Y-85303713D01*
X151016781Y-85373501D01*
X151016776Y-85373512D01*
X151015554Y-85376465D01*
X150998537Y-85417548D01*
X150996955Y-85425501D01*
X150995203Y-85434308D01*
X150995202Y-85434312D01*
X150981741Y-85501988D01*
X150974500Y-85538389D01*
X150974500Y-88843059D01*
X150954815Y-88910098D01*
X150902011Y-88955853D01*
X150832853Y-88965797D01*
X150769297Y-88936772D01*
X150762819Y-88930740D01*
X150710292Y-88878213D01*
X150710288Y-88878210D01*
X150579185Y-88790609D01*
X150579172Y-88790602D01*
X150433501Y-88730264D01*
X150433489Y-88730261D01*
X150278845Y-88699500D01*
X150278842Y-88699500D01*
X150121158Y-88699500D01*
X150121155Y-88699500D01*
X149966510Y-88730261D01*
X149966498Y-88730264D01*
X149820827Y-88790602D01*
X149820814Y-88790609D01*
X149689125Y-88878602D01*
X149622447Y-88899480D01*
X149620234Y-88899500D01*
X142224500Y-88899500D01*
X142215814Y-88896949D01*
X142206853Y-88898238D01*
X142182812Y-88887259D01*
X142157461Y-88879815D01*
X142151533Y-88872974D01*
X142143297Y-88869213D01*
X142129007Y-88846978D01*
X142111706Y-88827011D01*
X142109418Y-88816496D01*
X142105523Y-88810435D01*
X142100500Y-88775500D01*
X142100500Y-88729765D01*
X142120185Y-88662726D01*
X142121398Y-88660874D01*
X142141853Y-88630261D01*
X142209394Y-88529179D01*
X142230987Y-88477048D01*
X142274827Y-88422644D01*
X142341121Y-88400579D01*
X142345548Y-88400500D01*
X142478844Y-88400500D01*
X142478845Y-88400499D01*
X142633497Y-88369737D01*
X142779179Y-88309394D01*
X142910289Y-88221789D01*
X143021789Y-88110289D01*
X143109394Y-87979179D01*
X143169737Y-87833497D01*
X143200500Y-87678842D01*
X143200500Y-87521158D01*
X143200500Y-87521155D01*
X143200499Y-87521153D01*
X143169738Y-87366510D01*
X143169737Y-87366503D01*
X143154834Y-87330524D01*
X143109397Y-87220827D01*
X143109390Y-87220814D01*
X143021789Y-87089711D01*
X143021786Y-87089707D01*
X142910292Y-86978213D01*
X142910288Y-86978210D01*
X142779185Y-86890609D01*
X142779172Y-86890602D01*
X142633501Y-86830264D01*
X142633489Y-86830261D01*
X142478845Y-86799500D01*
X142478842Y-86799500D01*
X142321158Y-86799500D01*
X142321155Y-86799500D01*
X142166510Y-86830261D01*
X142166498Y-86830264D01*
X142022136Y-86890061D01*
X141974684Y-86899500D01*
X132200098Y-86899500D01*
X132133059Y-86879815D01*
X132128216Y-86876540D01*
X132119760Y-86870524D01*
X132068977Y-86819741D01*
X131964769Y-86759577D01*
X131932046Y-86740684D01*
X131932045Y-86740683D01*
X131932044Y-86740683D01*
X131871132Y-86724362D01*
X131779318Y-86699760D01*
X131779315Y-86699760D01*
X131759235Y-86699760D01*
X131692196Y-86680075D01*
X131690344Y-86678862D01*
X131558656Y-86590870D01*
X131558643Y-86590863D01*
X131412972Y-86530525D01*
X131412960Y-86530522D01*
X131258316Y-86499761D01*
X131258313Y-86499761D01*
X131100629Y-86499761D01*
X131100626Y-86499761D01*
X130945981Y-86530522D01*
X130945969Y-86530525D01*
X130800298Y-86590863D01*
X130800285Y-86590870D01*
X130669182Y-86678471D01*
X130669178Y-86678474D01*
X130557684Y-86789968D01*
X130557681Y-86789972D01*
X130470080Y-86921075D01*
X130470073Y-86921088D01*
X130409735Y-87066759D01*
X130409732Y-87066771D01*
X130378971Y-87221414D01*
X130378971Y-87379107D01*
X130409732Y-87533750D01*
X130409735Y-87533762D01*
X130469256Y-87677459D01*
X130476725Y-87746928D01*
X130469256Y-87772363D01*
X130430264Y-87866498D01*
X130430261Y-87866510D01*
X130399500Y-88021153D01*
X130399500Y-88178846D01*
X130430261Y-88333489D01*
X130430264Y-88333501D01*
X130490602Y-88479172D01*
X130490609Y-88479185D01*
X130578210Y-88610288D01*
X130578213Y-88610292D01*
X130689707Y-88721786D01*
X130689711Y-88721789D01*
X130820814Y-88809390D01*
X130820827Y-88809397D01*
X130911557Y-88846978D01*
X130966503Y-88869737D01*
X131103306Y-88896949D01*
X131121153Y-88900499D01*
X131121156Y-88900500D01*
X131121158Y-88900500D01*
X131278844Y-88900500D01*
X131278845Y-88900499D01*
X131433497Y-88869737D01*
X131579179Y-88809394D01*
X131710289Y-88721789D01*
X131795260Y-88636817D01*
X131856581Y-88603334D01*
X131882940Y-88600500D01*
X139149643Y-88600500D01*
X139216682Y-88620185D01*
X139262437Y-88672989D01*
X139273643Y-88724500D01*
X139273643Y-88828846D01*
X139304404Y-88983489D01*
X139304407Y-88983501D01*
X139364745Y-89129172D01*
X139364752Y-89129185D01*
X139453602Y-89262157D01*
X139474480Y-89328834D01*
X139474500Y-89331048D01*
X139474500Y-89715536D01*
X139454815Y-89782575D01*
X139402011Y-89828330D01*
X139332853Y-89838274D01*
X139281610Y-89818639D01*
X139253714Y-89800000D01*
X139222622Y-89779225D01*
X139222619Y-89779223D01*
X139222618Y-89779223D01*
X139095143Y-89726421D01*
X139095133Y-89726418D01*
X138959807Y-89699500D01*
X138959805Y-89699500D01*
X138959804Y-89699500D01*
X129207703Y-89699500D01*
X129140664Y-89679815D01*
X129094909Y-89627011D01*
X129084965Y-89557853D01*
X129086086Y-89551309D01*
X129100499Y-89478846D01*
X129100500Y-89478844D01*
X129100500Y-89321155D01*
X129100499Y-89321153D01*
X129087366Y-89255128D01*
X129069737Y-89166503D01*
X129069735Y-89166498D01*
X129009397Y-89020827D01*
X129009390Y-89020814D01*
X128921789Y-88889711D01*
X128921786Y-88889707D01*
X128810292Y-88778213D01*
X128810288Y-88778210D01*
X128679185Y-88690609D01*
X128679172Y-88690602D01*
X128533501Y-88630264D01*
X128533489Y-88630261D01*
X128378845Y-88599500D01*
X128378842Y-88599500D01*
X128221158Y-88599500D01*
X128221155Y-88599500D01*
X128066510Y-88630261D01*
X128066498Y-88630264D01*
X127922136Y-88690061D01*
X127874684Y-88699500D01*
X125724500Y-88699500D01*
X125657461Y-88679815D01*
X125611706Y-88627011D01*
X125600500Y-88575500D01*
X125600500Y-84821153D01*
X132599500Y-84821153D01*
X132599500Y-84978846D01*
X132630261Y-85133489D01*
X132630264Y-85133501D01*
X132690602Y-85279172D01*
X132690609Y-85279185D01*
X132778210Y-85410288D01*
X132778213Y-85410292D01*
X132889707Y-85521786D01*
X132889711Y-85521789D01*
X133020814Y-85609390D01*
X133020827Y-85609397D01*
X133161498Y-85667664D01*
X133166503Y-85669737D01*
X133316131Y-85699500D01*
X133321153Y-85700499D01*
X133321156Y-85700500D01*
X133321158Y-85700500D01*
X133478844Y-85700500D01*
X133478845Y-85700499D01*
X133633497Y-85669737D01*
X133779179Y-85609394D01*
X133873459Y-85546398D01*
X133940136Y-85525520D01*
X133942350Y-85525500D01*
X139461608Y-85525500D01*
X139461608Y-85525499D01*
X139542579Y-85509394D01*
X139582452Y-85501463D01*
X139615792Y-85487652D01*
X139696286Y-85454312D01*
X139751306Y-85417548D01*
X139798733Y-85385858D01*
X139885858Y-85298733D01*
X139885858Y-85298731D01*
X139896066Y-85288524D01*
X139896067Y-85288521D01*
X140463435Y-84721153D01*
X142799500Y-84721153D01*
X142799500Y-84878846D01*
X142830261Y-85033489D01*
X142830264Y-85033501D01*
X142890602Y-85179172D01*
X142890609Y-85179185D01*
X142978210Y-85310288D01*
X142978213Y-85310292D01*
X143089707Y-85421786D01*
X143089711Y-85421789D01*
X143220814Y-85509390D01*
X143220827Y-85509397D01*
X143324780Y-85552455D01*
X143366503Y-85569737D01*
X143521153Y-85600499D01*
X143521156Y-85600500D01*
X143521158Y-85600500D01*
X143678844Y-85600500D01*
X143678845Y-85600499D01*
X143833497Y-85569737D01*
X143979179Y-85509394D01*
X144110289Y-85421789D01*
X144221789Y-85310289D01*
X144275632Y-85229707D01*
X144329242Y-85184904D01*
X144398567Y-85176196D01*
X144402925Y-85176982D01*
X144521155Y-85200500D01*
X144521158Y-85200500D01*
X144678844Y-85200500D01*
X144678845Y-85200499D01*
X144833497Y-85169737D01*
X144967716Y-85114142D01*
X144979172Y-85109397D01*
X144979172Y-85109396D01*
X144979179Y-85109394D01*
X145110289Y-85021789D01*
X145221789Y-84910289D01*
X145309394Y-84779179D01*
X145369737Y-84633497D01*
X145400500Y-84478842D01*
X145400500Y-84321158D01*
X145400500Y-84321155D01*
X145400499Y-84321153D01*
X145387517Y-84255887D01*
X145369737Y-84166503D01*
X145369735Y-84166498D01*
X145309397Y-84020827D01*
X145309390Y-84020814D01*
X145221398Y-83889125D01*
X145200520Y-83822447D01*
X145200500Y-83820234D01*
X145200500Y-83082940D01*
X145220185Y-83015901D01*
X145236814Y-82995263D01*
X145321789Y-82910289D01*
X145409394Y-82779179D01*
X145469737Y-82633497D01*
X145500500Y-82478842D01*
X145500500Y-82321158D01*
X145500500Y-82321155D01*
X145500499Y-82321153D01*
X145483483Y-82235608D01*
X145469737Y-82166503D01*
X145443985Y-82104332D01*
X145409397Y-82020827D01*
X145409390Y-82020814D01*
X145321789Y-81889711D01*
X145321786Y-81889707D01*
X145210292Y-81778213D01*
X145210288Y-81778210D01*
X145079185Y-81690609D01*
X145079172Y-81690602D01*
X144933501Y-81630264D01*
X144933489Y-81630261D01*
X144778845Y-81599500D01*
X144778842Y-81599500D01*
X144621158Y-81599500D01*
X144621155Y-81599500D01*
X144466510Y-81630261D01*
X144466498Y-81630264D01*
X144320827Y-81690602D01*
X144320814Y-81690609D01*
X144189711Y-81778210D01*
X144189707Y-81778213D01*
X144100426Y-81867495D01*
X144039103Y-81900980D01*
X143988556Y-81901432D01*
X143978842Y-81899500D01*
X143821158Y-81899500D01*
X143821155Y-81899500D01*
X143666510Y-81930261D01*
X143666498Y-81930264D01*
X143520827Y-81990602D01*
X143520814Y-81990609D01*
X143389711Y-82078210D01*
X143389707Y-82078213D01*
X143278213Y-82189707D01*
X143278210Y-82189711D01*
X143190609Y-82320814D01*
X143190602Y-82320827D01*
X143130264Y-82466498D01*
X143130261Y-82466510D01*
X143099500Y-82621153D01*
X143099500Y-82778846D01*
X143130261Y-82933489D01*
X143130264Y-82933501D01*
X143190602Y-83079172D01*
X143190609Y-83079185D01*
X143278602Y-83210874D01*
X143299480Y-83277551D01*
X143299500Y-83279765D01*
X143299500Y-83975161D01*
X143279815Y-84042200D01*
X143227011Y-84087955D01*
X143222962Y-84089718D01*
X143220830Y-84090601D01*
X143220814Y-84090609D01*
X143089711Y-84178210D01*
X143089707Y-84178213D01*
X142978213Y-84289707D01*
X142978210Y-84289711D01*
X142890609Y-84420814D01*
X142890602Y-84420827D01*
X142830264Y-84566498D01*
X142830261Y-84566510D01*
X142799500Y-84721153D01*
X140463435Y-84721153D01*
X141858798Y-83325791D01*
X141920119Y-83292308D01*
X141922114Y-83291892D01*
X142033497Y-83269737D01*
X142179179Y-83209394D01*
X142310289Y-83121789D01*
X142421789Y-83010289D01*
X142509394Y-82879179D01*
X142569737Y-82733497D01*
X142600500Y-82578842D01*
X142600500Y-82421158D01*
X142600500Y-82421155D01*
X142600499Y-82421153D01*
X142569737Y-82266503D01*
X142537929Y-82189711D01*
X142509397Y-82120827D01*
X142509390Y-82120814D01*
X142421789Y-81989711D01*
X142421786Y-81989707D01*
X142310292Y-81878213D01*
X142310288Y-81878210D01*
X142179185Y-81790609D01*
X142179172Y-81790602D01*
X142033501Y-81730264D01*
X142033489Y-81730261D01*
X141878845Y-81699500D01*
X141878842Y-81699500D01*
X141721158Y-81699500D01*
X141721155Y-81699500D01*
X141566510Y-81730261D01*
X141566498Y-81730264D01*
X141420827Y-81790602D01*
X141420814Y-81790609D01*
X141289711Y-81878210D01*
X141289707Y-81878213D01*
X141178213Y-81989707D01*
X141178210Y-81989711D01*
X141090609Y-82120814D01*
X141090602Y-82120827D01*
X141030264Y-82266498D01*
X141030261Y-82266508D01*
X141008141Y-82377713D01*
X140975756Y-82439624D01*
X140974205Y-82441202D01*
X139177229Y-84238181D01*
X139115906Y-84271666D01*
X139089548Y-84274500D01*
X133942350Y-84274500D01*
X133875311Y-84254815D01*
X133873459Y-84253602D01*
X133779184Y-84190609D01*
X133779172Y-84190602D01*
X133633501Y-84130264D01*
X133633489Y-84130261D01*
X133478845Y-84099500D01*
X133478842Y-84099500D01*
X133321158Y-84099500D01*
X133321155Y-84099500D01*
X133166510Y-84130261D01*
X133166498Y-84130264D01*
X133020827Y-84190602D01*
X133020814Y-84190609D01*
X132889711Y-84278210D01*
X132889707Y-84278213D01*
X132778213Y-84389707D01*
X132778210Y-84389711D01*
X132690609Y-84520814D01*
X132690602Y-84520827D01*
X132630264Y-84666498D01*
X132630261Y-84666510D01*
X132599500Y-84821153D01*
X125600500Y-84821153D01*
X125600500Y-84731006D01*
X125600499Y-84731003D01*
X125581104Y-84633497D01*
X125575180Y-84603714D01*
X125573580Y-84595671D01*
X125527875Y-84485331D01*
X125520775Y-84468189D01*
X125444114Y-84353458D01*
X125346542Y-84255886D01*
X124053314Y-82962658D01*
X122736819Y-81646162D01*
X122703334Y-81584839D01*
X122700500Y-81558481D01*
X122700500Y-72621153D01*
X125399500Y-72621153D01*
X125399500Y-72778846D01*
X125430261Y-72933489D01*
X125430264Y-72933501D01*
X125490602Y-73079172D01*
X125490609Y-73079184D01*
X125553602Y-73173459D01*
X125574480Y-73240136D01*
X125574500Y-73242350D01*
X125574500Y-75138393D01*
X125574500Y-75261607D01*
X125580655Y-75292549D01*
X125598537Y-75382452D01*
X125606412Y-75401463D01*
X125645688Y-75496286D01*
X125673823Y-75538391D01*
X125673824Y-75538394D01*
X125714138Y-75598728D01*
X125714139Y-75598729D01*
X125714142Y-75598733D01*
X125801267Y-75685858D01*
X125801269Y-75685859D01*
X125808335Y-75692925D01*
X125808334Y-75692925D01*
X125808338Y-75692928D01*
X129532613Y-79417205D01*
X129535595Y-79419652D01*
X129551900Y-79437706D01*
X129552846Y-79436931D01*
X129556708Y-79441636D01*
X129556711Y-79441641D01*
X129615569Y-79500499D01*
X129668212Y-79553142D01*
X129799314Y-79640742D01*
X129799327Y-79640749D01*
X129944998Y-79701087D01*
X129945003Y-79701089D01*
X130099653Y-79731851D01*
X130099656Y-79731852D01*
X130099658Y-79731852D01*
X130257344Y-79731852D01*
X130257345Y-79731851D01*
X130411997Y-79701089D01*
X130557679Y-79640746D01*
X130688789Y-79553141D01*
X130800289Y-79441641D01*
X130887894Y-79310531D01*
X130893587Y-79296788D01*
X130901567Y-79277518D01*
X130948237Y-79164849D01*
X130979000Y-79010194D01*
X130979000Y-78852510D01*
X130979000Y-78852507D01*
X130978999Y-78852505D01*
X130958609Y-78750000D01*
X130948237Y-78697855D01*
X130908735Y-78602490D01*
X130908054Y-78596152D01*
X138424501Y-78596152D01*
X138424501Y-78753845D01*
X138455262Y-78908488D01*
X138455265Y-78908500D01*
X138515603Y-79054171D01*
X138515610Y-79054184D01*
X138603211Y-79185287D01*
X138603214Y-79185291D01*
X138714708Y-79296785D01*
X138714712Y-79296788D01*
X138840544Y-79380867D01*
X138885349Y-79434479D01*
X138894056Y-79503804D01*
X138886215Y-79531421D01*
X138883343Y-79538355D01*
X138830263Y-79666503D01*
X138830262Y-79666506D01*
X138830262Y-79666507D01*
X138830261Y-79666510D01*
X138799500Y-79821153D01*
X138799500Y-79978846D01*
X138830261Y-80133489D01*
X138830264Y-80133501D01*
X138890602Y-80279172D01*
X138890609Y-80279185D01*
X138978210Y-80410288D01*
X138978213Y-80410292D01*
X139089707Y-80521786D01*
X139089711Y-80521789D01*
X139220814Y-80609390D01*
X139220827Y-80609397D01*
X139366498Y-80669735D01*
X139366503Y-80669737D01*
X139521153Y-80700499D01*
X139521156Y-80700500D01*
X139521158Y-80700500D01*
X139678844Y-80700500D01*
X139678845Y-80700499D01*
X139833497Y-80669737D01*
X139979179Y-80609394D01*
X139979185Y-80609390D01*
X140110875Y-80521398D01*
X140177553Y-80500520D01*
X140179766Y-80500500D01*
X144599903Y-80500500D01*
X144666942Y-80520185D01*
X144687584Y-80536819D01*
X146263181Y-82112416D01*
X146296666Y-82173739D01*
X146299500Y-82200097D01*
X146299500Y-86713330D01*
X146299499Y-86713348D01*
X146299499Y-86879054D01*
X146299498Y-86879054D01*
X146302594Y-86890609D01*
X146340423Y-87031785D01*
X146366219Y-87076465D01*
X146419477Y-87168712D01*
X146419479Y-87168715D01*
X146419480Y-87168716D01*
X146469480Y-87218716D01*
X146515433Y-87264669D01*
X146581284Y-87330520D01*
X146581286Y-87330521D01*
X146581290Y-87330524D01*
X146643621Y-87366510D01*
X146718216Y-87409577D01*
X146870943Y-87450501D01*
X146870945Y-87450501D01*
X147036654Y-87450501D01*
X147036670Y-87450500D01*
X149220234Y-87450500D01*
X149287273Y-87470185D01*
X149289125Y-87471398D01*
X149420814Y-87559390D01*
X149420827Y-87559397D01*
X149566498Y-87619735D01*
X149566503Y-87619737D01*
X149721153Y-87650499D01*
X149721156Y-87650500D01*
X149721158Y-87650500D01*
X149878844Y-87650500D01*
X149878845Y-87650499D01*
X150033497Y-87619737D01*
X150179179Y-87559394D01*
X150310289Y-87471789D01*
X150421789Y-87360289D01*
X150509394Y-87229179D01*
X150512854Y-87220827D01*
X150567163Y-87089711D01*
X150569737Y-87083497D01*
X150600500Y-86928842D01*
X150600500Y-86771158D01*
X150600500Y-86771155D01*
X150600499Y-86771153D01*
X150594438Y-86740683D01*
X150569737Y-86616503D01*
X150554138Y-86578844D01*
X150509397Y-86470827D01*
X150509390Y-86470814D01*
X150421789Y-86339711D01*
X150421786Y-86339707D01*
X150310292Y-86228213D01*
X150310288Y-86228210D01*
X150179185Y-86140609D01*
X150179172Y-86140602D01*
X150033501Y-86080264D01*
X150033489Y-86080261D01*
X149878845Y-86049500D01*
X149878842Y-86049500D01*
X149721158Y-86049500D01*
X149721155Y-86049500D01*
X149566510Y-86080261D01*
X149566498Y-86080264D01*
X149420827Y-86140602D01*
X149420814Y-86140609D01*
X149289125Y-86228602D01*
X149222447Y-86249480D01*
X149220234Y-86249500D01*
X147624500Y-86249500D01*
X147557461Y-86229815D01*
X147511706Y-86177011D01*
X147500500Y-86125500D01*
X147500500Y-81820945D01*
X147500500Y-81820943D01*
X147478925Y-81740423D01*
X147459577Y-81668215D01*
X147419904Y-81599500D01*
X147380520Y-81531284D01*
X147268716Y-81419480D01*
X147264385Y-81415149D01*
X147264374Y-81415139D01*
X145387590Y-79538355D01*
X145386379Y-79537144D01*
X145375495Y-79517191D01*
X145372097Y-79519457D01*
X145372095Y-79519454D01*
X145375493Y-79517188D01*
X145369458Y-79506124D01*
X145352932Y-79475858D01*
X145352934Y-79475829D01*
X145352921Y-79475806D01*
X145355363Y-79441857D01*
X145357916Y-79406166D01*
X145357933Y-79406143D01*
X145357935Y-79406117D01*
X145378669Y-79378442D01*
X145399788Y-79350233D01*
X145399813Y-79350223D01*
X145399830Y-79350201D01*
X145433145Y-79337791D01*
X145465252Y-79325816D01*
X145465298Y-79325814D01*
X145465305Y-79325812D01*
X145465313Y-79325813D01*
X145474098Y-79325500D01*
X145757650Y-79325500D01*
X145824689Y-79345185D01*
X145826541Y-79346398D01*
X145920821Y-79409394D01*
X145920823Y-79409395D01*
X145920827Y-79409397D01*
X145999194Y-79441857D01*
X146066503Y-79469737D01*
X146221153Y-79500499D01*
X146221156Y-79500500D01*
X146221158Y-79500500D01*
X146378844Y-79500500D01*
X146378845Y-79500499D01*
X146533497Y-79469737D01*
X146660309Y-79417210D01*
X146679172Y-79409397D01*
X146679172Y-79409396D01*
X146679179Y-79409394D01*
X146810289Y-79321789D01*
X146921789Y-79210289D01*
X147009394Y-79079179D01*
X147069737Y-78933497D01*
X147100500Y-78778842D01*
X147100500Y-78621158D01*
X147100500Y-78621155D01*
X147100499Y-78621153D01*
X147086778Y-78552173D01*
X147069737Y-78466503D01*
X147069735Y-78466498D01*
X147009397Y-78320827D01*
X147009390Y-78320814D01*
X146921789Y-78189711D01*
X146921786Y-78189707D01*
X146810292Y-78078213D01*
X146810288Y-78078210D01*
X146679185Y-77990609D01*
X146679172Y-77990602D01*
X146533501Y-77930264D01*
X146533489Y-77930261D01*
X146378845Y-77899500D01*
X146378842Y-77899500D01*
X146221158Y-77899500D01*
X146221155Y-77899500D01*
X146066510Y-77930261D01*
X146066498Y-77930264D01*
X145920827Y-77990602D01*
X145920815Y-77990609D01*
X145826541Y-78053602D01*
X145759864Y-78074480D01*
X145757650Y-78074500D01*
X139804768Y-78074500D01*
X139737729Y-78054815D01*
X139735877Y-78053602D01*
X139604186Y-77965608D01*
X139604173Y-77965601D01*
X139458502Y-77905263D01*
X139458490Y-77905260D01*
X139303846Y-77874499D01*
X139303843Y-77874499D01*
X139146159Y-77874499D01*
X139146156Y-77874499D01*
X138991511Y-77905260D01*
X138991499Y-77905263D01*
X138845828Y-77965601D01*
X138845815Y-77965608D01*
X138714712Y-78053209D01*
X138714708Y-78053212D01*
X138603214Y-78164706D01*
X138603211Y-78164710D01*
X138515610Y-78295813D01*
X138515603Y-78295826D01*
X138455265Y-78441497D01*
X138455262Y-78441509D01*
X138424501Y-78596152D01*
X130908054Y-78596152D01*
X130901267Y-78533022D01*
X130920194Y-78486149D01*
X130974954Y-78404197D01*
X131035297Y-78258515D01*
X131066060Y-78103860D01*
X131066060Y-77946176D01*
X131066060Y-77946173D01*
X131066059Y-77946171D01*
X131058744Y-77909397D01*
X131035297Y-77791521D01*
X131035295Y-77791516D01*
X130974957Y-77645845D01*
X130974950Y-77645832D01*
X130887349Y-77514729D01*
X130887346Y-77514725D01*
X130838661Y-77466040D01*
X130805176Y-77404717D01*
X130804725Y-77354166D01*
X130808061Y-77337399D01*
X130811830Y-77318447D01*
X130817274Y-77291082D01*
X130817274Y-77133396D01*
X130811427Y-77104004D01*
X130817653Y-77034413D01*
X130845362Y-76992130D01*
X130879140Y-76958354D01*
X130966745Y-76827244D01*
X130969406Y-76820821D01*
X131003984Y-76737341D01*
X131027088Y-76681562D01*
X131057851Y-76526907D01*
X131057851Y-76369223D01*
X131057851Y-76369220D01*
X131057850Y-76369218D01*
X131054537Y-76352564D01*
X131027088Y-76214568D01*
X130985304Y-76113692D01*
X130966748Y-76068892D01*
X130966746Y-76068888D01*
X130966745Y-76068886D01*
X130945226Y-76036680D01*
X130924348Y-75970003D01*
X130933767Y-75920336D01*
X130969737Y-75833497D01*
X131000500Y-75678842D01*
X131000500Y-75521158D01*
X131000500Y-75521155D01*
X131000499Y-75521153D01*
X130969738Y-75366510D01*
X130969737Y-75366503D01*
X130942796Y-75301461D01*
X130909397Y-75220827D01*
X130909390Y-75220814D01*
X130821789Y-75089711D01*
X130821786Y-75089707D01*
X130710292Y-74978213D01*
X130710288Y-74978210D01*
X130579185Y-74890609D01*
X130579172Y-74890602D01*
X130433501Y-74830264D01*
X130433495Y-74830262D01*
X130421337Y-74827844D01*
X130403624Y-74818578D01*
X130384173Y-74813982D01*
X130373300Y-74802714D01*
X130359427Y-74795457D01*
X130349536Y-74778086D01*
X130335657Y-74763703D01*
X130326391Y-74737437D01*
X130324855Y-74734740D01*
X130323915Y-74730419D01*
X130303197Y-74626268D01*
X130303197Y-74626265D01*
X130301464Y-74617555D01*
X130301463Y-74617548D01*
X130277165Y-74558888D01*
X130254312Y-74503715D01*
X130185858Y-74401267D01*
X130185855Y-74401263D01*
X130021819Y-74237227D01*
X129988334Y-74175904D01*
X129985500Y-74149546D01*
X129985500Y-72918968D01*
X130005185Y-72851929D01*
X130006398Y-72850077D01*
X130053993Y-72778846D01*
X130069394Y-72755797D01*
X130129737Y-72610115D01*
X130160500Y-72455460D01*
X130160500Y-72297776D01*
X130160500Y-72297773D01*
X130160499Y-72297771D01*
X130142012Y-72204831D01*
X130129737Y-72143121D01*
X130129735Y-72143116D01*
X130069397Y-71997445D01*
X130069390Y-71997432D01*
X129981789Y-71866329D01*
X129981786Y-71866325D01*
X129870292Y-71754831D01*
X129870288Y-71754828D01*
X129739185Y-71667227D01*
X129739172Y-71667220D01*
X129593501Y-71606882D01*
X129593489Y-71606879D01*
X129438845Y-71576118D01*
X129438842Y-71576118D01*
X129281158Y-71576118D01*
X129281155Y-71576118D01*
X129126510Y-71606879D01*
X129126498Y-71606882D01*
X128980827Y-71667220D01*
X128980814Y-71667227D01*
X128849711Y-71754828D01*
X128849707Y-71754831D01*
X128738210Y-71866328D01*
X128688920Y-71940098D01*
X128635308Y-71984903D01*
X128585818Y-71995207D01*
X128541650Y-71995207D01*
X128387005Y-72025968D01*
X128386993Y-72025971D01*
X128241322Y-72086309D01*
X128241309Y-72086316D01*
X128112690Y-72172258D01*
X128046013Y-72193136D01*
X128019608Y-72190773D01*
X127865490Y-72160117D01*
X127865486Y-72160117D01*
X127707802Y-72160117D01*
X127707799Y-72160117D01*
X127553154Y-72190878D01*
X127553142Y-72190881D01*
X127407472Y-72251219D01*
X127407454Y-72251229D01*
X127387430Y-72264608D01*
X127320752Y-72285483D01*
X127271092Y-72276064D01*
X127173390Y-72235595D01*
X127173378Y-72235592D01*
X127018734Y-72204831D01*
X127018731Y-72204831D01*
X126888271Y-72204831D01*
X126821232Y-72185146D01*
X126800594Y-72168516D01*
X126710289Y-72078211D01*
X126710288Y-72078210D01*
X126710287Y-72078209D01*
X126579185Y-71990609D01*
X126579172Y-71990602D01*
X126433501Y-71930264D01*
X126433489Y-71930261D01*
X126278845Y-71899500D01*
X126278842Y-71899500D01*
X126121158Y-71899500D01*
X126121155Y-71899500D01*
X125966510Y-71930261D01*
X125966498Y-71930264D01*
X125820827Y-71990602D01*
X125820814Y-71990609D01*
X125689711Y-72078210D01*
X125689707Y-72078213D01*
X125578213Y-72189707D01*
X125578210Y-72189711D01*
X125490609Y-72320814D01*
X125490602Y-72320827D01*
X125430264Y-72466498D01*
X125430261Y-72466510D01*
X125399500Y-72621153D01*
X122700500Y-72621153D01*
X122700500Y-69131004D01*
X122678934Y-69022591D01*
X122673580Y-68995671D01*
X122642976Y-68921786D01*
X122620776Y-68868190D01*
X122544112Y-68753454D01*
X122544111Y-68753453D01*
X121896071Y-68105414D01*
X121869191Y-68065185D01*
X121809397Y-67920827D01*
X121809390Y-67920814D01*
X121721789Y-67789711D01*
X121721786Y-67789707D01*
X121610292Y-67678213D01*
X121610288Y-67678210D01*
X121479185Y-67590609D01*
X121479172Y-67590602D01*
X121333501Y-67530264D01*
X121333489Y-67530261D01*
X121178845Y-67499500D01*
X121178842Y-67499500D01*
X121021158Y-67499500D01*
X121021155Y-67499500D01*
X120866510Y-67530261D01*
X120866498Y-67530264D01*
X120720827Y-67590602D01*
X120720814Y-67590609D01*
X120589711Y-67678210D01*
X120589707Y-67678213D01*
X120478213Y-67789707D01*
X120478210Y-67789711D01*
X120390609Y-67920814D01*
X120390602Y-67920827D01*
X120330264Y-68066498D01*
X120330261Y-68066510D01*
X120299500Y-68221153D01*
X120299500Y-68378846D01*
X120330261Y-68533489D01*
X120330264Y-68533501D01*
X120390602Y-68679172D01*
X120390609Y-68679185D01*
X120478210Y-68810288D01*
X120478213Y-68810292D01*
X120589707Y-68921786D01*
X120589711Y-68921789D01*
X120720814Y-69009390D01*
X120720827Y-69009397D01*
X120865185Y-69069191D01*
X120905414Y-69096071D01*
X121263181Y-69453838D01*
X121277884Y-69480765D01*
X121294477Y-69506584D01*
X121295368Y-69512784D01*
X121296666Y-69515161D01*
X121299500Y-69541519D01*
X121299500Y-69775500D01*
X121279815Y-69842539D01*
X121227011Y-69888294D01*
X121175500Y-69899500D01*
X121115067Y-69899500D01*
X121115067Y-69896704D01*
X121058131Y-69885764D01*
X121011789Y-69844409D01*
X120999464Y-69825964D01*
X120999459Y-69825958D01*
X118374035Y-67200535D01*
X118374030Y-67200531D01*
X118319622Y-67164178D01*
X118319616Y-67164175D01*
X118314959Y-67161063D01*
X118226547Y-67101987D01*
X118144606Y-67068046D01*
X118062666Y-67034105D01*
X118062658Y-67034103D01*
X117888696Y-66999500D01*
X117888692Y-66999500D01*
X117888691Y-66999500D01*
X113824500Y-66999500D01*
X113757461Y-66979815D01*
X113711706Y-66927011D01*
X113700500Y-66875500D01*
X113700500Y-66145134D01*
X113720185Y-66078095D01*
X113772989Y-66032340D01*
X113842147Y-66022396D01*
X113871950Y-66030572D01*
X113966503Y-66069737D01*
X114121153Y-66100499D01*
X114121156Y-66100500D01*
X114121158Y-66100500D01*
X114278844Y-66100500D01*
X114278845Y-66100499D01*
X114433497Y-66069737D01*
X114579179Y-66009394D01*
X114673459Y-65946398D01*
X114740136Y-65925520D01*
X114742350Y-65925500D01*
X125161607Y-65925500D01*
X125222029Y-65913481D01*
X125282452Y-65901463D01*
X125315792Y-65887652D01*
X125328059Y-65882570D01*
X125397528Y-65875109D01*
X125460004Y-65906390D01*
X125495651Y-65966482D01*
X125499500Y-65997137D01*
X125499500Y-69520234D01*
X125479815Y-69587273D01*
X125478602Y-69589125D01*
X125390609Y-69720814D01*
X125390602Y-69720827D01*
X125330264Y-69866498D01*
X125330261Y-69866510D01*
X125299500Y-70021153D01*
X125299500Y-70178846D01*
X125330261Y-70333489D01*
X125330264Y-70333501D01*
X125390602Y-70479172D01*
X125390609Y-70479185D01*
X125478210Y-70610288D01*
X125478213Y-70610292D01*
X125589707Y-70721786D01*
X125589711Y-70721789D01*
X125720814Y-70809390D01*
X125720827Y-70809397D01*
X125866498Y-70869735D01*
X125866503Y-70869737D01*
X126021153Y-70900499D01*
X126021156Y-70900500D01*
X126021158Y-70900500D01*
X126178844Y-70900500D01*
X126178845Y-70900499D01*
X126333497Y-70869737D01*
X126479179Y-70809394D01*
X126610289Y-70721789D01*
X126721789Y-70610289D01*
X126809394Y-70479179D01*
X126869737Y-70333497D01*
X126900500Y-70178842D01*
X126900500Y-70021158D01*
X126900500Y-70021155D01*
X126900499Y-70021153D01*
X126897872Y-70007944D01*
X126869737Y-69866503D01*
X126865339Y-69855886D01*
X126809397Y-69720827D01*
X126809390Y-69720814D01*
X126721398Y-69589125D01*
X126700520Y-69522447D01*
X126700500Y-69520234D01*
X126700500Y-65383966D01*
X126720185Y-65316927D01*
X126736814Y-65296290D01*
X127311951Y-64721153D01*
X128099500Y-64721153D01*
X128099500Y-64878846D01*
X128130261Y-65033489D01*
X128130264Y-65033501D01*
X128190602Y-65179172D01*
X128190609Y-65179185D01*
X128278210Y-65310288D01*
X128278213Y-65310292D01*
X128389707Y-65421786D01*
X128389711Y-65421789D01*
X128520814Y-65509390D01*
X128520827Y-65509397D01*
X128608230Y-65545599D01*
X128666503Y-65569737D01*
X128777716Y-65591858D01*
X128839623Y-65624241D01*
X128841202Y-65625792D01*
X130514141Y-67298732D01*
X130514142Y-67298733D01*
X130601267Y-67385858D01*
X130614536Y-67394724D01*
X130703714Y-67454311D01*
X130817548Y-67501463D01*
X130914870Y-67520821D01*
X130938388Y-67525499D01*
X130938392Y-67525500D01*
X130938393Y-67525500D01*
X130938394Y-67525500D01*
X144089548Y-67525500D01*
X144156587Y-67545185D01*
X144177229Y-67561819D01*
X144574205Y-67958795D01*
X144607690Y-68020118D01*
X144608141Y-68022285D01*
X144630261Y-68133489D01*
X144630264Y-68133501D01*
X144690602Y-68279172D01*
X144690608Y-68279183D01*
X144709504Y-68307463D01*
X144730381Y-68374141D01*
X144711896Y-68441521D01*
X144659917Y-68488210D01*
X144626953Y-68497412D01*
X144627132Y-68498311D01*
X144466510Y-68530261D01*
X144466498Y-68530264D01*
X144322450Y-68589930D01*
X144252980Y-68597399D01*
X144227546Y-68589930D01*
X144083498Y-68530264D01*
X144083486Y-68530261D01*
X143928842Y-68499500D01*
X143928839Y-68499500D01*
X143771155Y-68499500D01*
X143771152Y-68499500D01*
X143616507Y-68530261D01*
X143616495Y-68530264D01*
X143497449Y-68579574D01*
X143427979Y-68587043D01*
X143402545Y-68579574D01*
X143283498Y-68530264D01*
X143283486Y-68530261D01*
X143128842Y-68499500D01*
X143128839Y-68499500D01*
X142971155Y-68499500D01*
X142971152Y-68499500D01*
X142816507Y-68530261D01*
X142816495Y-68530264D01*
X142670824Y-68590602D01*
X142670811Y-68590609D01*
X142539708Y-68678210D01*
X142539704Y-68678213D01*
X142428210Y-68789707D01*
X142428207Y-68789711D01*
X142340606Y-68920814D01*
X142340599Y-68920827D01*
X142280261Y-69066498D01*
X142280258Y-69066510D01*
X142249497Y-69221153D01*
X142249497Y-69378846D01*
X142280258Y-69533489D01*
X142280261Y-69533501D01*
X142340599Y-69679172D01*
X142340606Y-69679185D01*
X142428207Y-69810288D01*
X142428210Y-69810292D01*
X142538181Y-69920263D01*
X142571666Y-69981586D01*
X142574500Y-70007944D01*
X142574500Y-76100236D01*
X142565061Y-76147688D01*
X142544257Y-76197912D01*
X142544254Y-76197922D01*
X142513494Y-76352564D01*
X142513494Y-76510257D01*
X142544255Y-76664900D01*
X142544258Y-76664912D01*
X142604596Y-76810583D01*
X142604603Y-76810596D01*
X142692204Y-76941699D01*
X142692207Y-76941703D01*
X142803701Y-77053197D01*
X142803705Y-77053200D01*
X142934808Y-77140801D01*
X142934821Y-77140808D01*
X143034380Y-77182046D01*
X143080497Y-77201148D01*
X143235147Y-77231910D01*
X143235150Y-77231911D01*
X143235152Y-77231911D01*
X143392838Y-77231911D01*
X143392839Y-77231910D01*
X143547491Y-77201148D01*
X143647370Y-77159776D01*
X143716839Y-77152308D01*
X143763713Y-77171236D01*
X143820814Y-77209390D01*
X143820827Y-77209397D01*
X143949432Y-77262666D01*
X143966503Y-77269737D01*
X144073806Y-77291081D01*
X144121153Y-77300499D01*
X144121156Y-77300500D01*
X144121158Y-77300500D01*
X144278844Y-77300500D01*
X144278845Y-77300499D01*
X144433497Y-77269737D01*
X144579179Y-77209394D01*
X144620107Y-77182045D01*
X144686784Y-77161168D01*
X144736448Y-77170586D01*
X144789205Y-77192439D01*
X144943855Y-77223201D01*
X144943858Y-77223202D01*
X144943860Y-77223202D01*
X145101546Y-77223202D01*
X145101547Y-77223201D01*
X145256199Y-77192439D01*
X145342658Y-77156626D01*
X145412124Y-77149158D01*
X145458999Y-77168086D01*
X145508477Y-77201146D01*
X145520821Y-77209394D01*
X145520823Y-77209395D01*
X145520827Y-77209397D01*
X145649432Y-77262666D01*
X145666503Y-77269737D01*
X145773806Y-77291081D01*
X145821153Y-77300499D01*
X145821156Y-77300500D01*
X145821158Y-77300500D01*
X145978844Y-77300500D01*
X145978845Y-77300499D01*
X146133497Y-77269737D01*
X146279179Y-77209394D01*
X146410289Y-77121789D01*
X146521789Y-77010289D01*
X146609394Y-76879179D01*
X146669737Y-76733497D01*
X146700500Y-76578842D01*
X146700500Y-76421158D01*
X146700500Y-76421155D01*
X146700499Y-76421153D01*
X146676507Y-76300537D01*
X146669737Y-76266503D01*
X146609394Y-76120821D01*
X146546397Y-76026539D01*
X146525520Y-75959863D01*
X146525500Y-75957650D01*
X146525500Y-69638398D01*
X146525500Y-69638394D01*
X146525191Y-69636845D01*
X146524318Y-69632451D01*
X146524316Y-69632444D01*
X146515816Y-69589711D01*
X146501463Y-69517548D01*
X146454311Y-69403714D01*
X146454310Y-69403713D01*
X146454307Y-69403707D01*
X146385859Y-69301268D01*
X146385858Y-69301267D01*
X146325791Y-69241200D01*
X146292308Y-69179880D01*
X146291886Y-69177859D01*
X146269737Y-69066503D01*
X146209794Y-68921786D01*
X146209397Y-68920827D01*
X146209390Y-68920814D01*
X146121789Y-68789711D01*
X146121786Y-68789707D01*
X146010291Y-68678212D01*
X145998745Y-68670497D01*
X145982205Y-68659445D01*
X145937401Y-68605835D01*
X145928692Y-68536510D01*
X145958847Y-68473482D01*
X145963396Y-68468681D01*
X146021789Y-68410289D01*
X146109394Y-68279179D01*
X146169737Y-68133497D01*
X146200500Y-67978842D01*
X146200500Y-67821158D01*
X146200500Y-67821155D01*
X146200499Y-67821153D01*
X146172066Y-67678211D01*
X146169737Y-67666503D01*
X146119486Y-67545185D01*
X146109397Y-67520827D01*
X146109390Y-67520814D01*
X146021789Y-67389711D01*
X146021786Y-67389707D01*
X145910292Y-67278213D01*
X145910288Y-67278210D01*
X145779185Y-67190609D01*
X145779172Y-67190602D01*
X145633501Y-67130264D01*
X145633489Y-67130261D01*
X145522285Y-67108141D01*
X145460374Y-67075756D01*
X145458795Y-67074205D01*
X144895822Y-66511232D01*
X144885859Y-66501269D01*
X144885858Y-66501267D01*
X144798733Y-66414142D01*
X144747509Y-66379915D01*
X144696286Y-66345688D01*
X144696283Y-66345686D01*
X144696280Y-66345685D01*
X144622603Y-66315168D01*
X144622601Y-66315167D01*
X144615792Y-66312347D01*
X144582452Y-66298537D01*
X144522029Y-66286518D01*
X144517306Y-66285578D01*
X144517304Y-66285578D01*
X144461610Y-66274500D01*
X144461607Y-66274500D01*
X144461606Y-66274500D01*
X131310453Y-66274500D01*
X131243414Y-66254815D01*
X131222772Y-66238181D01*
X129725793Y-64741203D01*
X129692308Y-64679880D01*
X129691887Y-64677864D01*
X129669737Y-64566503D01*
X129636197Y-64485530D01*
X129609397Y-64420827D01*
X129609390Y-64420814D01*
X129521789Y-64289711D01*
X129521786Y-64289707D01*
X129410292Y-64178213D01*
X129410288Y-64178210D01*
X129279185Y-64090609D01*
X129279172Y-64090602D01*
X129133501Y-64030264D01*
X129133489Y-64030261D01*
X128978845Y-63999500D01*
X128978842Y-63999500D01*
X128821158Y-63999500D01*
X128821155Y-63999500D01*
X128666510Y-64030261D01*
X128666498Y-64030264D01*
X128520827Y-64090602D01*
X128520814Y-64090609D01*
X128389711Y-64178210D01*
X128389707Y-64178213D01*
X128278213Y-64289707D01*
X128278210Y-64289711D01*
X128190609Y-64420814D01*
X128190602Y-64420827D01*
X128130264Y-64566498D01*
X128130261Y-64566510D01*
X128099500Y-64721153D01*
X127311951Y-64721153D01*
X129110728Y-62922375D01*
X129110733Y-62922372D01*
X129120936Y-62912168D01*
X129120938Y-62912168D01*
X129232742Y-62800364D01*
X129296608Y-62689744D01*
X129311799Y-62663433D01*
X129352722Y-62510706D01*
X129352722Y-62352591D01*
X129352722Y-60436734D01*
X129372407Y-60369695D01*
X129373620Y-60367843D01*
X129461612Y-60236154D01*
X129461612Y-60236153D01*
X129461616Y-60236148D01*
X129521959Y-60090466D01*
X129552722Y-59935811D01*
X129552722Y-59778127D01*
X129552722Y-59778124D01*
X129552721Y-59778122D01*
X129542055Y-59724500D01*
X129521959Y-59623472D01*
X129521100Y-59621398D01*
X129461619Y-59477796D01*
X129461612Y-59477783D01*
X129374011Y-59346680D01*
X129374008Y-59346676D01*
X129262514Y-59235182D01*
X129262508Y-59235177D01*
X129205608Y-59197157D01*
X129200518Y-59191066D01*
X129193297Y-59187769D01*
X129178432Y-59164638D01*
X129160804Y-59143545D01*
X129158852Y-59134171D01*
X129155523Y-59128991D01*
X129150500Y-59094056D01*
X129150500Y-58921153D01*
X137899500Y-58921153D01*
X137899500Y-59078846D01*
X137930261Y-59233489D01*
X137930264Y-59233501D01*
X137990602Y-59379172D01*
X137990609Y-59379185D01*
X138078210Y-59510288D01*
X138078213Y-59510292D01*
X138189707Y-59621786D01*
X138189711Y-59621789D01*
X138320814Y-59709390D01*
X138320827Y-59709397D01*
X138429978Y-59754608D01*
X138466503Y-59769737D01*
X138616131Y-59799500D01*
X138621153Y-59800499D01*
X138621156Y-59800500D01*
X138621158Y-59800500D01*
X138778844Y-59800500D01*
X138778845Y-59800499D01*
X138933497Y-59769737D01*
X139079179Y-59709394D01*
X139178753Y-59642861D01*
X139210875Y-59621398D01*
X139277553Y-59600520D01*
X139279766Y-59600500D01*
X150175500Y-59600500D01*
X150242539Y-59620185D01*
X150288294Y-59672989D01*
X150299500Y-59724500D01*
X150299500Y-61279056D01*
X150340423Y-61431783D01*
X150340426Y-61431790D01*
X150419475Y-61568709D01*
X150419479Y-61568714D01*
X150419480Y-61568716D01*
X150531284Y-61680520D01*
X150531286Y-61680521D01*
X150531290Y-61680524D01*
X150607460Y-61724500D01*
X150668216Y-61759577D01*
X150820943Y-61800500D01*
X150979057Y-61800500D01*
X151433741Y-61800500D01*
X151500780Y-61820185D01*
X151546535Y-61872989D01*
X151548302Y-61877048D01*
X151590602Y-61979172D01*
X151590609Y-61979185D01*
X151678210Y-62110288D01*
X151678213Y-62110292D01*
X151789707Y-62221786D01*
X151789711Y-62221789D01*
X151920814Y-62309390D01*
X151920827Y-62309397D01*
X152066498Y-62369735D01*
X152066503Y-62369737D01*
X152221153Y-62400499D01*
X152221156Y-62400500D01*
X152221158Y-62400500D01*
X152378844Y-62400500D01*
X152378845Y-62400499D01*
X152533497Y-62369737D01*
X152679179Y-62309394D01*
X152810289Y-62221789D01*
X152921789Y-62110289D01*
X153009394Y-61979179D01*
X153069737Y-61833497D01*
X153100500Y-61678842D01*
X153100500Y-61521158D01*
X153100500Y-61521155D01*
X153100499Y-61521153D01*
X153076293Y-61399464D01*
X153069737Y-61366503D01*
X153065689Y-61356731D01*
X153009397Y-61220827D01*
X153009390Y-61220814D01*
X152921789Y-61089711D01*
X152921786Y-61089707D01*
X152810292Y-60978213D01*
X152810288Y-60978210D01*
X152679185Y-60890609D01*
X152679172Y-60890602D01*
X152533501Y-60830264D01*
X152533491Y-60830261D01*
X152378151Y-60799362D01*
X152330351Y-60778706D01*
X152321955Y-60772719D01*
X152268716Y-60719480D01*
X152161309Y-60657469D01*
X152131785Y-60640423D01*
X152131784Y-60640422D01*
X152131783Y-60640422D01*
X152075881Y-60625443D01*
X151979057Y-60599499D01*
X151820943Y-60599499D01*
X151813347Y-60599499D01*
X151813331Y-60599500D01*
X151624500Y-60599500D01*
X151557461Y-60579815D01*
X151511706Y-60527011D01*
X151500500Y-60475500D01*
X151500500Y-58920945D01*
X151500500Y-58920943D01*
X151459577Y-58768216D01*
X151436722Y-58728630D01*
X151380524Y-58631290D01*
X151380518Y-58631282D01*
X151268717Y-58519481D01*
X151268709Y-58519475D01*
X151131790Y-58440426D01*
X151131786Y-58440424D01*
X151131784Y-58440423D01*
X150979057Y-58399500D01*
X150979056Y-58399500D01*
X139279766Y-58399500D01*
X139212727Y-58379815D01*
X139210875Y-58378602D01*
X139079185Y-58290609D01*
X139079172Y-58290602D01*
X138933501Y-58230264D01*
X138933489Y-58230261D01*
X138778845Y-58199500D01*
X138778842Y-58199500D01*
X138621158Y-58199500D01*
X138621155Y-58199500D01*
X138466510Y-58230261D01*
X138466498Y-58230264D01*
X138320827Y-58290602D01*
X138320814Y-58290609D01*
X138189711Y-58378210D01*
X138189707Y-58378213D01*
X138078213Y-58489707D01*
X138078210Y-58489711D01*
X137990609Y-58620814D01*
X137990602Y-58620827D01*
X137930264Y-58766498D01*
X137930261Y-58766510D01*
X137899500Y-58921153D01*
X129150500Y-58921153D01*
X129150500Y-57730857D01*
X129170185Y-57663818D01*
X129186819Y-57643176D01*
X130968176Y-55861819D01*
X131029499Y-55828334D01*
X131055857Y-55825500D01*
X157850500Y-55825500D01*
X157917539Y-55845185D01*
X157963294Y-55897989D01*
X157974500Y-55949500D01*
X157974500Y-72161607D01*
X157975619Y-72167236D01*
X157975623Y-72167253D01*
X157976211Y-72170207D01*
X157998537Y-72282452D01*
X158009885Y-72309849D01*
X158013394Y-72318322D01*
X158013396Y-72318327D01*
X158045686Y-72396284D01*
X158059213Y-72416526D01*
X158059215Y-72416530D01*
X158114141Y-72498732D01*
X158114144Y-72498736D01*
X158205586Y-72590178D01*
X158205608Y-72590198D01*
X160711016Y-75095606D01*
X160711045Y-75095637D01*
X160801263Y-75185855D01*
X160801267Y-75185858D01*
X160903707Y-75254307D01*
X160903713Y-75254310D01*
X160903714Y-75254311D01*
X161017548Y-75301463D01*
X161045757Y-75307074D01*
X161071205Y-75312136D01*
X161071225Y-75312139D01*
X161071247Y-75312144D01*
X161138391Y-75325499D01*
X161138392Y-75325500D01*
X161138393Y-75325500D01*
X161138394Y-75325500D01*
X164150500Y-75325500D01*
X164217539Y-75345185D01*
X164263294Y-75397989D01*
X164274500Y-75449500D01*
X164274500Y-98857650D01*
X164254815Y-98924689D01*
X164253626Y-98926503D01*
X164232802Y-98957668D01*
X164190609Y-99020815D01*
X164190604Y-99020825D01*
X164143655Y-99134171D01*
X164099814Y-99188574D01*
X164033520Y-99210639D01*
X163965820Y-99193360D01*
X163918210Y-99142222D01*
X163911163Y-99125036D01*
X163851557Y-98941588D01*
X163755051Y-98752184D01*
X163755049Y-98752181D01*
X163755048Y-98752179D01*
X163630109Y-98580213D01*
X163479786Y-98429890D01*
X163307820Y-98304951D01*
X163307115Y-98304591D01*
X163299054Y-98300485D01*
X163248259Y-98252512D01*
X163231463Y-98184692D01*
X163253999Y-98118556D01*
X163299054Y-98079515D01*
X163307816Y-98075051D01*
X163329789Y-98059086D01*
X163479786Y-97950109D01*
X163479788Y-97950106D01*
X163479792Y-97950104D01*
X163630104Y-97799792D01*
X163630106Y-97799788D01*
X163630109Y-97799786D01*
X163750921Y-97633501D01*
X163755051Y-97627816D01*
X163851557Y-97438412D01*
X163917246Y-97236243D01*
X163950500Y-97026287D01*
X163950500Y-96813713D01*
X163917246Y-96603757D01*
X163851557Y-96401588D01*
X163755051Y-96212184D01*
X163755049Y-96212181D01*
X163755048Y-96212179D01*
X163630109Y-96040213D01*
X163479786Y-95889890D01*
X163307820Y-95764951D01*
X163300656Y-95761301D01*
X163299054Y-95760485D01*
X163248259Y-95712512D01*
X163231463Y-95644692D01*
X163253999Y-95578556D01*
X163299054Y-95539515D01*
X163307816Y-95535051D01*
X163370227Y-95489707D01*
X163479786Y-95410109D01*
X163479788Y-95410106D01*
X163479792Y-95410104D01*
X163630104Y-95259792D01*
X163630106Y-95259788D01*
X163630109Y-95259786D01*
X163755048Y-95087820D01*
X163755047Y-95087820D01*
X163755051Y-95087816D01*
X163851557Y-94898412D01*
X163917246Y-94696243D01*
X163950500Y-94486287D01*
X163950500Y-94273713D01*
X163917246Y-94063757D01*
X163851557Y-93861588D01*
X163755051Y-93672184D01*
X163755049Y-93672181D01*
X163755048Y-93672179D01*
X163630109Y-93500213D01*
X163479786Y-93349890D01*
X163307817Y-93224949D01*
X163298504Y-93220204D01*
X163247707Y-93172230D01*
X163230912Y-93104409D01*
X163253449Y-93038274D01*
X163298507Y-92999232D01*
X163307555Y-92994622D01*
X163361716Y-92955270D01*
X163361717Y-92955270D01*
X162729408Y-92322962D01*
X162792993Y-92305925D01*
X162907007Y-92240099D01*
X163000099Y-92147007D01*
X163065925Y-92032993D01*
X163082962Y-91969408D01*
X163715270Y-92601717D01*
X163715270Y-92601716D01*
X163754622Y-92547554D01*
X163851095Y-92358217D01*
X163916757Y-92156130D01*
X163916757Y-92156127D01*
X163950000Y-91946246D01*
X163950000Y-91733753D01*
X163916757Y-91523872D01*
X163916757Y-91523869D01*
X163851095Y-91321782D01*
X163754624Y-91132449D01*
X163715270Y-91078282D01*
X163715269Y-91078282D01*
X163082962Y-91710590D01*
X163065925Y-91647007D01*
X163000099Y-91532993D01*
X162907007Y-91439901D01*
X162792993Y-91374075D01*
X162729409Y-91357037D01*
X163361716Y-90724728D01*
X163307550Y-90685375D01*
X163297954Y-90680486D01*
X163247157Y-90632512D01*
X163230361Y-90564692D01*
X163252897Y-90498556D01*
X163297954Y-90459514D01*
X163307554Y-90454622D01*
X163361716Y-90415270D01*
X163361717Y-90415270D01*
X162729408Y-89782962D01*
X162792993Y-89765925D01*
X162907007Y-89700099D01*
X163000099Y-89607007D01*
X163065925Y-89492993D01*
X163082962Y-89429408D01*
X163715270Y-90061717D01*
X163715270Y-90061716D01*
X163754622Y-90007554D01*
X163851095Y-89818217D01*
X163916757Y-89616130D01*
X163916757Y-89616127D01*
X163950000Y-89406246D01*
X163950000Y-89193753D01*
X163916757Y-88983872D01*
X163916757Y-88983869D01*
X163851095Y-88781782D01*
X163754624Y-88592449D01*
X163715270Y-88538282D01*
X163715269Y-88538282D01*
X163082962Y-89170590D01*
X163065925Y-89107007D01*
X163000099Y-88992993D01*
X162907007Y-88899901D01*
X162792993Y-88834075D01*
X162729409Y-88817037D01*
X163399627Y-88146818D01*
X163460950Y-88113333D01*
X163487307Y-88110499D01*
X163497872Y-88110499D01*
X163557483Y-88104091D01*
X163692331Y-88053796D01*
X163807546Y-87967546D01*
X163893796Y-87852331D01*
X163944091Y-87717483D01*
X163950500Y-87657873D01*
X163950499Y-85862128D01*
X163944091Y-85802517D01*
X163939648Y-85790606D01*
X163893797Y-85667671D01*
X163893793Y-85667664D01*
X163807547Y-85552455D01*
X163807544Y-85552452D01*
X163692335Y-85466206D01*
X163692328Y-85466202D01*
X163557482Y-85415908D01*
X163557483Y-85415908D01*
X163497883Y-85409501D01*
X163497881Y-85409500D01*
X163497873Y-85409500D01*
X163497864Y-85409500D01*
X161702129Y-85409500D01*
X161702123Y-85409501D01*
X161642516Y-85415908D01*
X161507671Y-85466202D01*
X161507664Y-85466206D01*
X161392455Y-85552452D01*
X161392452Y-85552455D01*
X161306206Y-85667664D01*
X161306202Y-85667671D01*
X161255908Y-85802517D01*
X161249501Y-85862116D01*
X161249501Y-85862123D01*
X161249500Y-85862135D01*
X161249500Y-87657870D01*
X161249501Y-87657876D01*
X161255908Y-87717483D01*
X161306202Y-87852328D01*
X161306206Y-87852335D01*
X161392452Y-87967544D01*
X161392455Y-87967547D01*
X161507664Y-88053793D01*
X161507671Y-88053797D01*
X161552618Y-88070561D01*
X161642517Y-88104091D01*
X161702127Y-88110500D01*
X161712685Y-88110499D01*
X161779723Y-88130179D01*
X161800372Y-88146818D01*
X162470591Y-88817037D01*
X162407007Y-88834075D01*
X162292993Y-88899901D01*
X162199901Y-88992993D01*
X162134075Y-89107007D01*
X162117037Y-89170591D01*
X161484728Y-88538282D01*
X161484727Y-88538282D01*
X161445380Y-88592439D01*
X161348904Y-88781782D01*
X161283242Y-88983869D01*
X161283242Y-88983872D01*
X161250000Y-89193753D01*
X161250000Y-89406246D01*
X161283242Y-89616127D01*
X161283242Y-89616130D01*
X161348904Y-89818217D01*
X161445375Y-90007550D01*
X161484728Y-90061716D01*
X162117037Y-89429408D01*
X162134075Y-89492993D01*
X162199901Y-89607007D01*
X162292993Y-89700099D01*
X162407007Y-89765925D01*
X162470591Y-89782962D01*
X161869971Y-90383581D01*
X161948711Y-90500895D01*
X161949920Y-90504729D01*
X161952844Y-90507491D01*
X161960343Y-90537778D01*
X161969727Y-90567529D01*
X161968671Y-90571408D01*
X161969638Y-90575312D01*
X161959573Y-90604844D01*
X161951383Y-90634947D01*
X161948397Y-90637640D01*
X161947100Y-90641447D01*
X161902051Y-90680483D01*
X161892440Y-90685380D01*
X161838282Y-90724727D01*
X161838282Y-90724728D01*
X162470591Y-91357037D01*
X162407007Y-91374075D01*
X162292993Y-91439901D01*
X162199901Y-91532993D01*
X162134075Y-91647007D01*
X162117037Y-91710591D01*
X161484728Y-91078282D01*
X161484727Y-91078282D01*
X161445380Y-91132439D01*
X161348904Y-91321782D01*
X161283242Y-91523869D01*
X161283242Y-91523872D01*
X161250000Y-91733753D01*
X161250000Y-91946246D01*
X161283242Y-92156127D01*
X161283242Y-92156130D01*
X161348904Y-92358217D01*
X161445375Y-92547550D01*
X161484728Y-92601716D01*
X162117037Y-91969408D01*
X162134075Y-92032993D01*
X162199901Y-92147007D01*
X162292993Y-92240099D01*
X162407007Y-92305925D01*
X162470590Y-92322962D01*
X161838282Y-92955269D01*
X161838282Y-92955270D01*
X161892452Y-92994626D01*
X161892451Y-92994626D01*
X161901495Y-92999234D01*
X161952292Y-93047208D01*
X161969087Y-93115029D01*
X161946550Y-93181164D01*
X161901499Y-93220202D01*
X161892182Y-93224949D01*
X161720213Y-93349890D01*
X161569890Y-93500213D01*
X161444951Y-93672179D01*
X161348444Y-93861585D01*
X161282753Y-94063760D01*
X161249500Y-94273713D01*
X161249500Y-94486286D01*
X161282753Y-94696239D01*
X161348444Y-94898414D01*
X161444951Y-95087820D01*
X161569890Y-95259786D01*
X161720213Y-95410109D01*
X161892182Y-95535050D01*
X161900946Y-95539516D01*
X161951742Y-95587491D01*
X161968536Y-95655312D01*
X161945998Y-95721447D01*
X161900946Y-95760484D01*
X161892182Y-95764949D01*
X161720213Y-95889890D01*
X161569890Y-96040213D01*
X161444951Y-96212179D01*
X161348444Y-96401585D01*
X161282753Y-96603760D01*
X161249500Y-96813713D01*
X161249500Y-97026286D01*
X161280364Y-97221158D01*
X161282754Y-97236243D01*
X161328882Y-97378211D01*
X161348444Y-97438414D01*
X161444951Y-97627820D01*
X161569890Y-97799786D01*
X161720213Y-97950109D01*
X161892182Y-98075050D01*
X161900946Y-98079516D01*
X161951742Y-98127491D01*
X161968536Y-98195312D01*
X161945998Y-98261447D01*
X161900946Y-98300484D01*
X161892182Y-98304949D01*
X161720213Y-98429890D01*
X161569890Y-98580213D01*
X161444951Y-98752179D01*
X161348444Y-98941585D01*
X161282753Y-99143760D01*
X161249500Y-99353713D01*
X161249500Y-99566286D01*
X161275983Y-99733497D01*
X161282754Y-99776243D01*
X161345954Y-99970753D01*
X161348444Y-99978414D01*
X161444951Y-100167820D01*
X161569890Y-100339786D01*
X161720213Y-100490109D01*
X161892179Y-100615048D01*
X161892181Y-100615049D01*
X161892184Y-100615051D01*
X162081588Y-100711557D01*
X162283757Y-100777246D01*
X162493713Y-100810500D01*
X162493714Y-100810500D01*
X162706286Y-100810500D01*
X162706287Y-100810500D01*
X162916243Y-100777246D01*
X163118412Y-100711557D01*
X163307816Y-100615051D01*
X163349726Y-100584602D01*
X163479786Y-100490109D01*
X163479788Y-100490106D01*
X163479792Y-100490104D01*
X163630104Y-100339792D01*
X163630106Y-100339788D01*
X163630109Y-100339786D01*
X163755048Y-100167820D01*
X163755047Y-100167820D01*
X163755051Y-100167816D01*
X163851557Y-99978412D01*
X163917246Y-99776243D01*
X163923743Y-99735218D01*
X163953671Y-99672086D01*
X164012982Y-99635155D01*
X164082845Y-99636151D01*
X164141078Y-99674761D01*
X164160777Y-99707166D01*
X164190602Y-99779172D01*
X164190609Y-99779185D01*
X164278210Y-99910288D01*
X164278213Y-99910292D01*
X164389707Y-100021786D01*
X164389711Y-100021789D01*
X164520814Y-100109390D01*
X164520827Y-100109397D01*
X164661865Y-100167816D01*
X164666503Y-100169737D01*
X164821153Y-100200499D01*
X164821156Y-100200500D01*
X164821158Y-100200500D01*
X164978844Y-100200500D01*
X164978845Y-100200499D01*
X165133497Y-100169737D01*
X165279179Y-100109394D01*
X165410289Y-100021789D01*
X165521789Y-99910289D01*
X165609394Y-99779179D01*
X165669737Y-99633497D01*
X165700500Y-99478842D01*
X165700500Y-99321158D01*
X165700500Y-99321155D01*
X165700499Y-99321153D01*
X165689627Y-99266498D01*
X165669737Y-99166503D01*
X165609394Y-99020821D01*
X165546397Y-98926539D01*
X165525520Y-98859863D01*
X165525500Y-98857650D01*
X165525500Y-74738393D01*
X165525499Y-74738389D01*
X165503197Y-74626266D01*
X165501463Y-74617548D01*
X165454311Y-74503714D01*
X165454310Y-74503712D01*
X165454307Y-74503707D01*
X165385859Y-74401268D01*
X165363433Y-74378842D01*
X165298733Y-74314142D01*
X165298731Y-74314141D01*
X165297917Y-74313326D01*
X165297916Y-74313325D01*
X165297913Y-74313323D01*
X165285862Y-74301271D01*
X165285861Y-74301270D01*
X165285859Y-74301268D01*
X165285858Y-74301267D01*
X165198733Y-74214142D01*
X165198732Y-74214141D01*
X165198731Y-74214140D01*
X165145699Y-74178705D01*
X165145695Y-74178703D01*
X165139405Y-74174500D01*
X165096286Y-74145688D01*
X165010744Y-74110256D01*
X165006477Y-74108488D01*
X165006468Y-74108484D01*
X164982458Y-74098539D01*
X164982445Y-74098535D01*
X164915312Y-74085181D01*
X164915305Y-74085181D01*
X164861607Y-74074500D01*
X164861606Y-74074500D01*
X161510452Y-74074500D01*
X161443413Y-74054815D01*
X161422771Y-74038181D01*
X159261819Y-71877229D01*
X159228334Y-71815906D01*
X159225500Y-71789548D01*
X159225500Y-71374038D01*
X160899500Y-71374038D01*
X160899500Y-71625961D01*
X160938910Y-71874785D01*
X161016760Y-72114383D01*
X161086482Y-72251219D01*
X161121949Y-72320827D01*
X161131132Y-72338848D01*
X161279201Y-72542649D01*
X161279205Y-72542654D01*
X161457345Y-72720794D01*
X161457350Y-72720798D01*
X161537247Y-72778846D01*
X161661155Y-72868870D01*
X161787977Y-72933489D01*
X161885616Y-72983239D01*
X161885618Y-72983239D01*
X161885621Y-72983241D01*
X162125215Y-73061090D01*
X162374038Y-73100500D01*
X162374039Y-73100500D01*
X162625961Y-73100500D01*
X162625962Y-73100500D01*
X162874785Y-73061090D01*
X163114379Y-72983241D01*
X163338845Y-72868870D01*
X163542656Y-72720793D01*
X163720793Y-72542656D01*
X163868870Y-72338845D01*
X163983241Y-72114379D01*
X164061090Y-71874785D01*
X164100500Y-71625962D01*
X164100500Y-71374038D01*
X164061090Y-71125215D01*
X163983241Y-70885621D01*
X163983239Y-70885618D01*
X163983239Y-70885616D01*
X163907352Y-70736681D01*
X163868870Y-70661155D01*
X163831913Y-70610288D01*
X163720798Y-70457350D01*
X163720794Y-70457345D01*
X163542654Y-70279205D01*
X163542649Y-70279201D01*
X163338848Y-70131132D01*
X163338847Y-70131131D01*
X163338845Y-70131130D01*
X163268747Y-70095413D01*
X163114383Y-70016760D01*
X162874785Y-69938910D01*
X162706392Y-69912239D01*
X162625962Y-69899500D01*
X162374038Y-69899500D01*
X162293608Y-69912239D01*
X162125214Y-69938910D01*
X161885616Y-70016760D01*
X161661151Y-70131132D01*
X161457350Y-70279201D01*
X161457345Y-70279205D01*
X161279205Y-70457345D01*
X161279201Y-70457350D01*
X161131132Y-70661151D01*
X161016760Y-70885616D01*
X160938910Y-71125214D01*
X160899500Y-71374038D01*
X159225500Y-71374038D01*
X159225500Y-55138391D01*
X159225280Y-55136159D01*
X159225500Y-55134998D01*
X159225500Y-55132302D01*
X159226011Y-55132302D01*
X159238296Y-55067512D01*
X159286359Y-55016800D01*
X159348682Y-55000000D01*
X159829369Y-55000000D01*
X159852240Y-55006715D01*
X159875961Y-55009086D01*
X159885152Y-55016380D01*
X159896408Y-55019685D01*
X159912014Y-55037695D01*
X159930692Y-55052517D01*
X159939037Y-55068881D01*
X159942163Y-55072489D01*
X159946726Y-55083959D01*
X159954007Y-55105299D01*
X159957459Y-55120840D01*
X159957647Y-55120795D01*
X159959572Y-55128692D01*
X159978745Y-55178126D01*
X159980492Y-55182921D01*
X159997621Y-55233121D01*
X160001229Y-55240409D01*
X160001055Y-55240494D01*
X160008409Y-55254609D01*
X160044973Y-55348882D01*
X160049918Y-55361632D01*
X160051523Y-55372220D01*
X160073683Y-55422904D01*
X160074631Y-55425346D01*
X160074635Y-55425356D01*
X160093696Y-55474502D01*
X160097602Y-55481636D01*
X160097467Y-55481709D01*
X160105502Y-55495678D01*
X160144067Y-55583880D01*
X160149521Y-55596354D01*
X160151624Y-55607087D01*
X160175854Y-55656582D01*
X160176927Y-55659035D01*
X160197936Y-55707084D01*
X160202135Y-55714040D01*
X160202034Y-55714100D01*
X160210746Y-55727854D01*
X160256808Y-55821942D01*
X160259430Y-55832778D01*
X160285701Y-55880962D01*
X160286903Y-55883417D01*
X160309848Y-55930285D01*
X160314347Y-55937060D01*
X160314277Y-55937106D01*
X160323670Y-55950600D01*
X160372267Y-56039730D01*
X160375418Y-56050606D01*
X160403720Y-56097417D01*
X160405050Y-56099857D01*
X160429927Y-56145484D01*
X160434718Y-56152053D01*
X160434672Y-56152086D01*
X160444735Y-56165258D01*
X160491734Y-56242996D01*
X160497976Y-56253321D01*
X160503873Y-56269482D01*
X160531953Y-56309518D01*
X160542880Y-56327591D01*
X160557255Y-56351368D01*
X160560966Y-56354932D01*
X160576592Y-56373163D01*
X160765052Y-56641863D01*
X160775019Y-56662931D01*
X160802739Y-56695598D01*
X160806013Y-56700265D01*
X160806018Y-56700271D01*
X160827345Y-56730678D01*
X160837118Y-56738865D01*
X160852032Y-56753685D01*
X161064728Y-57004332D01*
X161076666Y-57024501D01*
X161107183Y-57054364D01*
X161110904Y-57058748D01*
X161134825Y-57086938D01*
X161134828Y-57086940D01*
X161134829Y-57086941D01*
X161145459Y-57094296D01*
X161161617Y-57107630D01*
X161395052Y-57336059D01*
X161408708Y-57354931D01*
X161441963Y-57381965D01*
X161446045Y-57385959D01*
X161462038Y-57401609D01*
X161472595Y-57411940D01*
X161483691Y-57418186D01*
X161501076Y-57430021D01*
X161756237Y-57637451D01*
X161771269Y-57654703D01*
X161807171Y-57678858D01*
X161840743Y-57706150D01*
X161851905Y-57711145D01*
X161870460Y-57721439D01*
X162148710Y-57908647D01*
X162164728Y-57924063D01*
X162203169Y-57945287D01*
X162239606Y-57969802D01*
X162250403Y-57973505D01*
X162270104Y-57982243D01*
X162573099Y-58149533D01*
X162589707Y-58163014D01*
X162630570Y-58181264D01*
X162669744Y-58202893D01*
X162679805Y-58205383D01*
X162700570Y-58212527D01*
X163030217Y-58359755D01*
X163047047Y-58371301D01*
X163090173Y-58386532D01*
X163131919Y-58405177D01*
X163140943Y-58406617D01*
X163162692Y-58412145D01*
X163510125Y-58534852D01*
X163510126Y-58534853D01*
X163521003Y-58538694D01*
X163537733Y-58548386D01*
X163582915Y-58560561D01*
X163587366Y-58562134D01*
X163587375Y-58562137D01*
X163627038Y-58576145D01*
X163634805Y-58576749D01*
X163657443Y-58580645D01*
X164046374Y-58685456D01*
X164062750Y-58693431D01*
X164109773Y-58702541D01*
X164156030Y-58715007D01*
X164162439Y-58715016D01*
X164185833Y-58717278D01*
X164607033Y-58798884D01*
X164622877Y-58805318D01*
X164671517Y-58811377D01*
X164719628Y-58820699D01*
X164724616Y-58820347D01*
X164748671Y-58820989D01*
X165203179Y-58877613D01*
X165218367Y-58882690D01*
X165268344Y-58885731D01*
X165272221Y-58886214D01*
X165272223Y-58886215D01*
X165318048Y-58891925D01*
X165318049Y-58891924D01*
X165318055Y-58891925D01*
X165321681Y-58891421D01*
X165346249Y-58890473D01*
X165833972Y-58920159D01*
X165848453Y-58924065D01*
X165899527Y-58924149D01*
X165950535Y-58927254D01*
X165952880Y-58926776D01*
X165977836Y-58924278D01*
X166496774Y-58925136D01*
X166510554Y-58928044D01*
X166562483Y-58925245D01*
X166614478Y-58925331D01*
X166615679Y-58925011D01*
X166640895Y-58921018D01*
X167185708Y-58891653D01*
X167198835Y-58893713D01*
X167251334Y-58888116D01*
X167304039Y-58885276D01*
X167304266Y-58885201D01*
X167329624Y-58879770D01*
X167888796Y-58820165D01*
X167901381Y-58821501D01*
X167954145Y-58813199D01*
X168007255Y-58807538D01*
X168007258Y-58807537D01*
X168009502Y-58806994D01*
X168032093Y-58800934D01*
X168581285Y-58714528D01*
X168593510Y-58715232D01*
X168646194Y-58704315D01*
X168699368Y-58695950D01*
X168699372Y-58695947D01*
X168703832Y-58694632D01*
X168723574Y-58688283D01*
X168850344Y-58662017D01*
X168919981Y-58667691D01*
X168975498Y-58710114D01*
X168999266Y-58775817D01*
X168999500Y-58783438D01*
X168999500Y-129253011D01*
X168994109Y-129271367D01*
X168993699Y-129290494D01*
X168984469Y-129304198D01*
X168979815Y-129320050D01*
X168965357Y-129332577D01*
X168954670Y-129348447D01*
X168939496Y-129354986D01*
X168927011Y-129365805D01*
X168908076Y-129368527D01*
X168890506Y-129376100D01*
X168859978Y-129375443D01*
X168857853Y-129375749D01*
X168855220Y-129375341D01*
X168763474Y-129360131D01*
X168750465Y-129357249D01*
X168744347Y-129355544D01*
X168744343Y-129355543D01*
X168744342Y-129355543D01*
X168686238Y-129347295D01*
X168683444Y-129346865D01*
X168625623Y-129337279D01*
X168619272Y-129337067D01*
X168605991Y-129335905D01*
X168332366Y-129297065D01*
X168332366Y-129297066D01*
X168318325Y-129295073D01*
X168312595Y-129292795D01*
X168253197Y-129285829D01*
X168251723Y-129285619D01*
X168199192Y-129278164D01*
X168193957Y-129277421D01*
X168193956Y-129277421D01*
X168186927Y-129277350D01*
X168173745Y-129276512D01*
X168148580Y-129273561D01*
X167914206Y-129246076D01*
X167914206Y-129246075D01*
X167899792Y-129244385D01*
X167893771Y-129242165D01*
X167834487Y-129236727D01*
X167832885Y-129236540D01*
X167832884Y-129236539D01*
X167775294Y-129229787D01*
X167775292Y-129229787D01*
X167775291Y-129229787D01*
X167767560Y-129229896D01*
X167754491Y-129229390D01*
X167512658Y-129207210D01*
X167512658Y-129207209D01*
X167498053Y-129205869D01*
X167491723Y-129203724D01*
X167432557Y-129199864D01*
X167430918Y-129199714D01*
X167430917Y-129199713D01*
X167373493Y-129194448D01*
X167373489Y-129194448D01*
X167373488Y-129194448D01*
X167373486Y-129194448D01*
X167365371Y-129194769D01*
X167365339Y-129193965D01*
X167352260Y-129194627D01*
X167123097Y-129179680D01*
X167108525Y-129178729D01*
X167101873Y-129176675D01*
X167042878Y-129174447D01*
X167041157Y-129174335D01*
X167041156Y-129174334D01*
X166983969Y-129170605D01*
X166975864Y-129171139D01*
X166975813Y-129170367D01*
X166962558Y-129171415D01*
X166749052Y-129163355D01*
X166749052Y-129163354D01*
X166734529Y-129162806D01*
X166727555Y-129160868D01*
X166668783Y-129160325D01*
X166667005Y-129160258D01*
X166667004Y-129160257D01*
X166617613Y-129158394D01*
X166610083Y-129158110D01*
X166610082Y-129158110D01*
X166610078Y-129158110D01*
X166601991Y-129158865D01*
X166601923Y-129158139D01*
X166588500Y-129159583D01*
X166584564Y-129159547D01*
X166386528Y-129157720D01*
X166372074Y-129157586D01*
X166364763Y-129155787D01*
X166306306Y-129156979D01*
X166304477Y-129156963D01*
X166304476Y-129156962D01*
X166247831Y-129156440D01*
X166239766Y-129157427D01*
X166239683Y-129156750D01*
X166226082Y-129158618D01*
X166038299Y-129162451D01*
X166023918Y-129162744D01*
X166016274Y-129161111D01*
X165958219Y-129164085D01*
X165956265Y-129164125D01*
X165956261Y-129164126D01*
X165899988Y-129165276D01*
X165891952Y-129166501D01*
X165891857Y-129165879D01*
X165878108Y-129168191D01*
X165686700Y-129178000D01*
X165678707Y-129176557D01*
X165621018Y-129181366D01*
X165581160Y-129183408D01*
X165563198Y-129184329D01*
X165555211Y-129185800D01*
X165555106Y-129185232D01*
X165541210Y-129188018D01*
X165376766Y-129201727D01*
X165376765Y-129201727D01*
X165362574Y-129202909D01*
X165354246Y-129201690D01*
X165297075Y-129208369D01*
X165295013Y-129208541D01*
X165294999Y-129208543D01*
X165239642Y-129213158D01*
X165231700Y-129214885D01*
X165231588Y-129214370D01*
X165217579Y-129217657D01*
X165062909Y-129235729D01*
X165048841Y-129237372D01*
X165040176Y-129236406D01*
X164983544Y-129245001D01*
X164981421Y-129245250D01*
X164981408Y-129245252D01*
X164926613Y-129251655D01*
X164918740Y-129253642D01*
X164918623Y-129253181D01*
X164904513Y-129256998D01*
X164776398Y-129276446D01*
X164747057Y-129280901D01*
X164738066Y-129280220D01*
X164682059Y-129290767D01*
X164679868Y-129291100D01*
X164679866Y-129291099D01*
X164625685Y-129299325D01*
X164617880Y-129301583D01*
X164617761Y-129301172D01*
X164603575Y-129305549D01*
X164468971Y-129330898D01*
X164468972Y-129330899D01*
X164455204Y-129333491D01*
X164445893Y-129333130D01*
X164390582Y-129345663D01*
X164388342Y-129346085D01*
X164388340Y-129346084D01*
X164334858Y-129356158D01*
X164327135Y-129358693D01*
X164327017Y-129358334D01*
X164312790Y-129363291D01*
X164187788Y-129391616D01*
X164187789Y-129391617D01*
X164174193Y-129394697D01*
X164164588Y-129394688D01*
X164110080Y-129409226D01*
X164107789Y-129409746D01*
X164107787Y-129409745D01*
X164055036Y-129421701D01*
X164047416Y-129424515D01*
X164047301Y-129424205D01*
X164033071Y-129429767D01*
X163916156Y-129460953D01*
X163902748Y-129464529D01*
X163892872Y-129464903D01*
X163839258Y-129481464D01*
X163836927Y-129482086D01*
X163836915Y-129482090D01*
X163784980Y-129495943D01*
X163777471Y-129499044D01*
X163777362Y-129498780D01*
X163763153Y-129504973D01*
X163654322Y-129538590D01*
X163654323Y-129538591D01*
X163641127Y-129542667D01*
X163631003Y-129543457D01*
X163578325Y-129562067D01*
X163575950Y-129562801D01*
X163575948Y-129562801D01*
X163524931Y-129578561D01*
X163517544Y-129581954D01*
X163517443Y-129581734D01*
X163503312Y-129588569D01*
X163401757Y-129624448D01*
X163401756Y-129624447D01*
X163388799Y-129629024D01*
X163378461Y-129630260D01*
X163326836Y-129650916D01*
X163324425Y-129651769D01*
X163324401Y-129651778D01*
X163316772Y-129654474D01*
X163274370Y-129669454D01*
X163267133Y-129673136D01*
X163267042Y-129672958D01*
X163253026Y-129680451D01*
X163217970Y-129694479D01*
X163158060Y-129718452D01*
X163145353Y-129723536D01*
X163134844Y-129725241D01*
X163084333Y-129747953D01*
X163081901Y-129748927D01*
X163081899Y-129748927D01*
X163032893Y-129768537D01*
X163025804Y-129772517D01*
X163025725Y-129772376D01*
X163011884Y-129780530D01*
X162923466Y-129820289D01*
X162911032Y-129825879D01*
X162900388Y-129828078D01*
X162851106Y-129852826D01*
X162848644Y-129853934D01*
X162800767Y-129875463D01*
X162793851Y-129879737D01*
X162793784Y-129879629D01*
X162780160Y-129888454D01*
X162696896Y-129930269D01*
X162696895Y-129930270D01*
X162684754Y-129936366D01*
X162674034Y-129939072D01*
X162626041Y-129965850D01*
X162623626Y-129967064D01*
X162623608Y-129967074D01*
X162576877Y-129990542D01*
X162570159Y-129995103D01*
X162570104Y-129995022D01*
X162556753Y-130004513D01*
X162473242Y-130051112D01*
X162473241Y-130051111D01*
X162462620Y-130057037D01*
X162446607Y-130062231D01*
X162405290Y-130089028D01*
X162401686Y-130091040D01*
X162401674Y-130091048D01*
X162362257Y-130113043D01*
X162358886Y-130116317D01*
X162339981Y-130131387D01*
X162066215Y-130308952D01*
X162057272Y-130314751D01*
X162036230Y-130323748D01*
X162002221Y-130350457D01*
X161997507Y-130353515D01*
X161997503Y-130353519D01*
X161965918Y-130374005D01*
X161965916Y-130374007D01*
X161957718Y-130383101D01*
X161942212Y-130397588D01*
X161686547Y-130598387D01*
X161678211Y-130604934D01*
X161657870Y-130615923D01*
X161626593Y-130645475D01*
X161622134Y-130648977D01*
X161622132Y-130648977D01*
X161592761Y-130672047D01*
X161592749Y-130672058D01*
X161585237Y-130682080D01*
X161571186Y-130697828D01*
X161337616Y-130918528D01*
X161329900Y-130925818D01*
X161310681Y-130938588D01*
X161282204Y-130970886D01*
X161278086Y-130974778D01*
X161250895Y-131000471D01*
X161250894Y-131000473D01*
X161244348Y-131011103D01*
X161231776Y-131028084D01*
X161018898Y-131269538D01*
X161011829Y-131277555D01*
X160994073Y-131291809D01*
X160968445Y-131326761D01*
X160964750Y-131330953D01*
X160964746Y-131330960D01*
X160939748Y-131359315D01*
X160939748Y-131359316D01*
X160934365Y-131370158D01*
X160923304Y-131388331D01*
X160730150Y-131651782D01*
X160730149Y-131651784D01*
X160723751Y-131660509D01*
X160707705Y-131675888D01*
X160684955Y-131713423D01*
X160681729Y-131717824D01*
X160658978Y-131748857D01*
X160658977Y-131748859D01*
X160654837Y-131759505D01*
X160645314Y-131778828D01*
X160471358Y-132065850D01*
X160465651Y-132075264D01*
X160451460Y-132091386D01*
X160431640Y-132131381D01*
X160428904Y-132135896D01*
X160428903Y-132135900D01*
X160408487Y-132169587D01*
X160405558Y-132179656D01*
X160397601Y-132200074D01*
X160242763Y-132512541D01*
X160237776Y-132522603D01*
X160225481Y-132539096D01*
X160208637Y-132581406D01*
X160206402Y-132585917D01*
X160206398Y-132585928D01*
X160188403Y-132622244D01*
X160188402Y-132622248D01*
X160186560Y-132631414D01*
X160180198Y-132652843D01*
X160044867Y-132992795D01*
X160040621Y-133003458D01*
X160030177Y-133019992D01*
X160016344Y-133064441D01*
X160014574Y-133068889D01*
X159999118Y-133107718D01*
X159999117Y-133107721D01*
X159998173Y-133115752D01*
X159993422Y-133138108D01*
X159878444Y-133507609D01*
X159874952Y-133518828D01*
X159866247Y-133535129D01*
X159855448Y-133581507D01*
X159854105Y-133585824D01*
X159854103Y-133585834D01*
X159841290Y-133627011D01*
X159841022Y-133633741D01*
X159837891Y-133656911D01*
X159744629Y-134057462D01*
X159741798Y-134069622D01*
X159734678Y-134085483D01*
X159726907Y-134133571D01*
X159725943Y-134137714D01*
X159715857Y-134181033D01*
X159715856Y-134181040D01*
X159716034Y-134186412D01*
X159714514Y-134210277D01*
X159644393Y-134644297D01*
X159644392Y-134644298D01*
X159642432Y-134656428D01*
X159636724Y-134671701D01*
X159631959Y-134721246D01*
X159631322Y-134725190D01*
X159631320Y-134725206D01*
X159624016Y-134770418D01*
X159624015Y-134770422D01*
X159624424Y-134774426D01*
X159624494Y-134798870D01*
X159579508Y-135266651D01*
X159578307Y-135279131D01*
X159573831Y-135293739D01*
X159572020Y-135344518D01*
X159571663Y-135348234D01*
X159567157Y-135395097D01*
X159567157Y-135395104D01*
X159567609Y-135397802D01*
X159569233Y-135422698D01*
X159553507Y-135863807D01*
X159550920Y-135936383D01*
X159547502Y-135950295D01*
X159548579Y-136002036D01*
X159548455Y-136005541D01*
X159548455Y-136005543D01*
X159546735Y-136053762D01*
X159546736Y-136053769D01*
X159547083Y-136055276D01*
X159550214Y-136080499D01*
X159561278Y-136611631D01*
X159561548Y-136624616D01*
X159559033Y-136637853D01*
X159562916Y-136690287D01*
X159562985Y-136693598D01*
X159562986Y-136693599D01*
X159564013Y-136742895D01*
X159564014Y-136742901D01*
X159564150Y-136743368D01*
X159568730Y-136768787D01*
X159609790Y-137323177D01*
X159609790Y-137323178D01*
X159610762Y-137336309D01*
X159609014Y-137348938D01*
X159615613Y-137401813D01*
X159615844Y-137404927D01*
X159615845Y-137404936D01*
X159619554Y-137455003D01*
X159619907Y-137456706D01*
X159625387Y-137480114D01*
X159695666Y-138043148D01*
X159695666Y-138043149D01*
X159695894Y-138044979D01*
X159697313Y-138056342D01*
X159696222Y-138068507D01*
X159705447Y-138121521D01*
X159705818Y-138124493D01*
X159705822Y-138124514D01*
X159707900Y-138141156D01*
X159712124Y-138174994D01*
X159712125Y-138174997D01*
X159713345Y-138179674D01*
X159719000Y-138199406D01*
X159813045Y-138739838D01*
X159813045Y-138739840D01*
X159815338Y-138753023D01*
X159814832Y-138764900D01*
X159826598Y-138817738D01*
X159827095Y-138820590D01*
X159827103Y-138820626D01*
X159832953Y-138854238D01*
X159825055Y-138923660D01*
X159780878Y-138977791D01*
X159714449Y-138999446D01*
X159710789Y-138999500D01*
X120270717Y-138999500D01*
X120203678Y-138979815D01*
X120157923Y-138927011D01*
X120147979Y-138857853D01*
X120149077Y-138851425D01*
X120166202Y-138764900D01*
X120174693Y-138722002D01*
X120177061Y-138716908D01*
X120187467Y-138657460D01*
X120199189Y-138598239D01*
X120199188Y-138598226D01*
X120199544Y-138592722D01*
X120201141Y-138579345D01*
X120255113Y-138271030D01*
X120257460Y-138265663D01*
X120266456Y-138206234D01*
X120276827Y-138146995D01*
X120276827Y-138146994D01*
X120277088Y-138140826D01*
X120278374Y-138127506D01*
X120322861Y-137833651D01*
X120325174Y-137827995D01*
X120332714Y-137768570D01*
X120341674Y-137709389D01*
X120341673Y-137709381D01*
X120341806Y-137702546D01*
X120342769Y-137689329D01*
X120377700Y-137414048D01*
X120379962Y-137408095D01*
X120385984Y-137348764D01*
X120393489Y-137289628D01*
X120393487Y-137289620D01*
X120393452Y-137282077D01*
X120394084Y-137268972D01*
X120420653Y-137007256D01*
X120422846Y-137000996D01*
X120427296Y-136941818D01*
X120433293Y-136882749D01*
X120433291Y-136882741D01*
X120433051Y-136874623D01*
X120433906Y-136874597D01*
X120433332Y-136861554D01*
X120433923Y-136853698D01*
X120449129Y-136651504D01*
X134780000Y-136651504D01*
X134780000Y-136800000D01*
X135480000Y-136800000D01*
X135480000Y-137300000D01*
X134780000Y-137300000D01*
X134780000Y-137448495D01*
X134818427Y-137641681D01*
X134818430Y-137641693D01*
X134893807Y-137823671D01*
X134893814Y-137823684D01*
X135003248Y-137987462D01*
X135003251Y-137987466D01*
X135142533Y-138126748D01*
X135142537Y-138126751D01*
X135306315Y-138236185D01*
X135306328Y-138236192D01*
X135488308Y-138311569D01*
X135530000Y-138319862D01*
X135530000Y-137516988D01*
X135539940Y-137534205D01*
X135595795Y-137590060D01*
X135664204Y-137629556D01*
X135740504Y-137650000D01*
X135819496Y-137650000D01*
X135895796Y-137629556D01*
X135964205Y-137590060D01*
X136020060Y-137534205D01*
X136030000Y-137516988D01*
X136030000Y-138319862D01*
X136071690Y-138311569D01*
X136071692Y-138311569D01*
X136253671Y-138236192D01*
X136253684Y-138236185D01*
X136417462Y-138126751D01*
X136417466Y-138126748D01*
X136556748Y-137987466D01*
X136556751Y-137987462D01*
X136666185Y-137823684D01*
X136666192Y-137823671D01*
X136741569Y-137641693D01*
X136741572Y-137641681D01*
X136779999Y-137448495D01*
X136780000Y-137448492D01*
X136780000Y-137300000D01*
X136080000Y-137300000D01*
X136080000Y-136800000D01*
X136780000Y-136800000D01*
X136780000Y-136651508D01*
X136779999Y-136651504D01*
X143420000Y-136651504D01*
X143420000Y-136800000D01*
X144120000Y-136800000D01*
X144120000Y-137300000D01*
X143420000Y-137300000D01*
X143420000Y-137448495D01*
X143458427Y-137641681D01*
X143458430Y-137641693D01*
X143533807Y-137823671D01*
X143533814Y-137823684D01*
X143643248Y-137987462D01*
X143643251Y-137987466D01*
X143782533Y-138126748D01*
X143782537Y-138126751D01*
X143946315Y-138236185D01*
X143946328Y-138236192D01*
X144128308Y-138311569D01*
X144170000Y-138319862D01*
X144170000Y-137516988D01*
X144179940Y-137534205D01*
X144235795Y-137590060D01*
X144304204Y-137629556D01*
X144380504Y-137650000D01*
X144459496Y-137650000D01*
X144535796Y-137629556D01*
X144604205Y-137590060D01*
X144660060Y-137534205D01*
X144670000Y-137516988D01*
X144670000Y-138319862D01*
X144711690Y-138311569D01*
X144711692Y-138311569D01*
X144893671Y-138236192D01*
X144893684Y-138236185D01*
X145057462Y-138126751D01*
X145057466Y-138126748D01*
X145196748Y-137987466D01*
X145196751Y-137987462D01*
X145306185Y-137823684D01*
X145306192Y-137823671D01*
X145381569Y-137641693D01*
X145381572Y-137641681D01*
X145419999Y-137448495D01*
X145420000Y-137448492D01*
X145420000Y-137300000D01*
X144720000Y-137300000D01*
X144720000Y-136800000D01*
X145420000Y-136800000D01*
X145420000Y-136651508D01*
X145419999Y-136651504D01*
X145381572Y-136458318D01*
X145381569Y-136458306D01*
X145306192Y-136276328D01*
X145306185Y-136276315D01*
X145196751Y-136112537D01*
X145196748Y-136112533D01*
X145057466Y-135973251D01*
X145057462Y-135973248D01*
X144893684Y-135863814D01*
X144893671Y-135863807D01*
X144711691Y-135788429D01*
X144711683Y-135788427D01*
X144670000Y-135780135D01*
X144670000Y-136583011D01*
X144660060Y-136565795D01*
X144604205Y-136509940D01*
X144535796Y-136470444D01*
X144459496Y-136450000D01*
X144380504Y-136450000D01*
X144304204Y-136470444D01*
X144235795Y-136509940D01*
X144179940Y-136565795D01*
X144170000Y-136583011D01*
X144170000Y-135780136D01*
X144169999Y-135780135D01*
X144128316Y-135788427D01*
X144128308Y-135788429D01*
X143946328Y-135863807D01*
X143946315Y-135863814D01*
X143782537Y-135973248D01*
X143782533Y-135973251D01*
X143643251Y-136112533D01*
X143643248Y-136112537D01*
X143533814Y-136276315D01*
X143533807Y-136276328D01*
X143458430Y-136458306D01*
X143458427Y-136458318D01*
X143420000Y-136651504D01*
X136779999Y-136651504D01*
X136741572Y-136458318D01*
X136741569Y-136458306D01*
X136666192Y-136276328D01*
X136666185Y-136276315D01*
X136556751Y-136112537D01*
X136556748Y-136112533D01*
X136417466Y-135973251D01*
X136417462Y-135973248D01*
X136253684Y-135863814D01*
X136253671Y-135863807D01*
X136071691Y-135788429D01*
X136071683Y-135788427D01*
X136030000Y-135780135D01*
X136030000Y-136583011D01*
X136020060Y-136565795D01*
X135964205Y-136509940D01*
X135895796Y-136470444D01*
X135819496Y-136450000D01*
X135740504Y-136450000D01*
X135664204Y-136470444D01*
X135595795Y-136509940D01*
X135539940Y-136565795D01*
X135530000Y-136583011D01*
X135530000Y-135780136D01*
X135529999Y-135780135D01*
X135488316Y-135788427D01*
X135488308Y-135788429D01*
X135306328Y-135863807D01*
X135306315Y-135863814D01*
X135142537Y-135973248D01*
X135142533Y-135973251D01*
X135003251Y-136112533D01*
X135003248Y-136112537D01*
X134893814Y-136276315D01*
X134893807Y-136276328D01*
X134818430Y-136458306D01*
X134818427Y-136458318D01*
X134780000Y-136651504D01*
X120449129Y-136651504D01*
X120450631Y-136631538D01*
X120453180Y-136618532D01*
X120452387Y-136618389D01*
X120453830Y-136610396D01*
X120453833Y-136610388D01*
X120456580Y-136553018D01*
X120456781Y-136549745D01*
X120461092Y-136492447D01*
X120461090Y-136492440D01*
X120460638Y-136484329D01*
X120461430Y-136484284D01*
X120460508Y-136471060D01*
X120460538Y-136470444D01*
X120471638Y-136238767D01*
X120473637Y-136231853D01*
X120474787Y-136173050D01*
X120477601Y-136114322D01*
X120477600Y-136114321D01*
X120477601Y-136114319D01*
X120476927Y-136106225D01*
X120477666Y-136106163D01*
X120476357Y-136092748D01*
X120476597Y-136080499D01*
X120480601Y-135875796D01*
X120482467Y-135868547D01*
X120481887Y-135810031D01*
X120483032Y-135751522D01*
X120483030Y-135751517D01*
X120482129Y-135743442D01*
X120482816Y-135743365D01*
X120481092Y-135729788D01*
X120479057Y-135524246D01*
X120480766Y-135516652D01*
X120478406Y-135458482D01*
X120477830Y-135400254D01*
X120477830Y-135400250D01*
X120476690Y-135392207D01*
X120477322Y-135392117D01*
X120475156Y-135378364D01*
X120467962Y-135200999D01*
X120467382Y-135186687D01*
X120468905Y-135178745D01*
X120464716Y-135120966D01*
X120462369Y-135063091D01*
X120460983Y-135055086D01*
X120461561Y-135054985D01*
X120458925Y-135041086D01*
X120446824Y-134874159D01*
X120445794Y-134859946D01*
X120447102Y-134851654D01*
X120441039Y-134794353D01*
X120436873Y-134736878D01*
X120436869Y-134736866D01*
X120435232Y-134728922D01*
X120435754Y-134728814D01*
X120432620Y-134714780D01*
X120416252Y-134560081D01*
X120416252Y-134560080D01*
X120414761Y-134545985D01*
X120415822Y-134537350D01*
X120407842Y-134480588D01*
X120401812Y-134423587D01*
X120401811Y-134423584D01*
X120399909Y-134415682D01*
X120400377Y-134415569D01*
X120396715Y-134401433D01*
X120374348Y-134242323D01*
X120375129Y-134233345D01*
X120365193Y-134177196D01*
X120357258Y-134120743D01*
X120357256Y-134120739D01*
X120355086Y-134112912D01*
X120355499Y-134112797D01*
X120351281Y-134098570D01*
X120348965Y-134085483D01*
X120325042Y-133950281D01*
X120325508Y-133940978D01*
X120313585Y-133885530D01*
X120305071Y-133837411D01*
X120303705Y-133829690D01*
X120301255Y-133821937D01*
X120301617Y-133821822D01*
X120296816Y-133807547D01*
X120266832Y-133668101D01*
X120266949Y-133658484D01*
X120253009Y-133603818D01*
X120241150Y-133548663D01*
X120241148Y-133548659D01*
X120238419Y-133541007D01*
X120238728Y-133540896D01*
X120233318Y-133526595D01*
X120200133Y-133396450D01*
X120199867Y-133386548D01*
X120183890Y-133332748D01*
X120170020Y-133278354D01*
X120170018Y-133278350D01*
X120167000Y-133270805D01*
X120167262Y-133270700D01*
X120161222Y-133256421D01*
X120128885Y-133147533D01*
X120127791Y-133143611D01*
X120124822Y-133132258D01*
X120124279Y-133124149D01*
X120107049Y-133073650D01*
X120105536Y-133068906D01*
X120090348Y-133017762D01*
X120087036Y-133010338D01*
X120087251Y-133010241D01*
X120080556Y-132996007D01*
X120045993Y-132894707D01*
X120045993Y-132894706D01*
X120041557Y-132881707D01*
X120040429Y-132871311D01*
X120020326Y-132819480D01*
X120002379Y-132766880D01*
X120002377Y-132766878D01*
X120002376Y-132766873D01*
X119998770Y-132759589D01*
X119998943Y-132759503D01*
X119991588Y-132745387D01*
X119955025Y-132651117D01*
X119955025Y-132651116D01*
X119950080Y-132638369D01*
X119948477Y-132627780D01*
X119926313Y-132577090D01*
X119906302Y-132525494D01*
X119906298Y-132525488D01*
X119902399Y-132518366D01*
X119902533Y-132518292D01*
X119894496Y-132504321D01*
X119855932Y-132416120D01*
X119855932Y-132416118D01*
X119850477Y-132403642D01*
X119848376Y-132392913D01*
X119824150Y-132343429D01*
X119823095Y-132341014D01*
X119823080Y-132340981D01*
X119802064Y-132292916D01*
X119797866Y-132285961D01*
X119797966Y-132285900D01*
X119789241Y-132272122D01*
X119788163Y-132269919D01*
X119788162Y-132269918D01*
X119772271Y-132237458D01*
X119764461Y-132221504D01*
X134780000Y-132221504D01*
X134780000Y-132620000D01*
X135480000Y-132620000D01*
X135480000Y-133120000D01*
X134780000Y-133120000D01*
X134780000Y-133518495D01*
X134818427Y-133711681D01*
X134818430Y-133711693D01*
X134893807Y-133893671D01*
X134893814Y-133893684D01*
X135003248Y-134057462D01*
X135003251Y-134057466D01*
X135142533Y-134196748D01*
X135142537Y-134196751D01*
X135306315Y-134306185D01*
X135306328Y-134306192D01*
X135488308Y-134381569D01*
X135530000Y-134389862D01*
X135530000Y-133586988D01*
X135539940Y-133604205D01*
X135595795Y-133660060D01*
X135664204Y-133699556D01*
X135740504Y-133720000D01*
X135819496Y-133720000D01*
X135895796Y-133699556D01*
X135964205Y-133660060D01*
X136020060Y-133604205D01*
X136030000Y-133586988D01*
X136030000Y-134389862D01*
X136071690Y-134381569D01*
X136071692Y-134381569D01*
X136253671Y-134306192D01*
X136253684Y-134306185D01*
X136417462Y-134196751D01*
X136417466Y-134196748D01*
X136556748Y-134057466D01*
X136556751Y-134057462D01*
X136669574Y-133888613D01*
X136671007Y-133889570D01*
X136714198Y-133845580D01*
X136782332Y-133830103D01*
X136848018Y-133853919D01*
X136850089Y-133855697D01*
X136850189Y-133855568D01*
X136856630Y-133860510D01*
X136856635Y-133860515D01*
X136987865Y-133936281D01*
X137134234Y-133975500D01*
X137134236Y-133975500D01*
X137285764Y-133975500D01*
X137285766Y-133975500D01*
X137432135Y-133936281D01*
X137563365Y-133860515D01*
X137670515Y-133753365D01*
X137746281Y-133622135D01*
X137785500Y-133475766D01*
X137785500Y-133324234D01*
X142414500Y-133324234D01*
X142414500Y-133475765D01*
X142453719Y-133622136D01*
X142488130Y-133681736D01*
X142529485Y-133753365D01*
X142636635Y-133860515D01*
X142767865Y-133936281D01*
X142914234Y-133975500D01*
X142914236Y-133975500D01*
X143065764Y-133975500D01*
X143065766Y-133975500D01*
X143212135Y-133936281D01*
X143343365Y-133860515D01*
X143343372Y-133860507D01*
X143349811Y-133855568D01*
X143352044Y-133858478D01*
X143398258Y-133832865D01*
X143467980Y-133837411D01*
X143524176Y-133878930D01*
X143530394Y-133888634D01*
X143530426Y-133888613D01*
X143643248Y-134057462D01*
X143643251Y-134057466D01*
X143782533Y-134196748D01*
X143782537Y-134196751D01*
X143946315Y-134306185D01*
X143946328Y-134306192D01*
X144128308Y-134381569D01*
X144170000Y-134389862D01*
X144170000Y-133586988D01*
X144179940Y-133604205D01*
X144235795Y-133660060D01*
X144304204Y-133699556D01*
X144380504Y-133720000D01*
X144459496Y-133720000D01*
X144535796Y-133699556D01*
X144604205Y-133660060D01*
X144660060Y-133604205D01*
X144670000Y-133586988D01*
X144670000Y-134389862D01*
X144711690Y-134381569D01*
X144711692Y-134381569D01*
X144893671Y-134306192D01*
X144893684Y-134306185D01*
X145057462Y-134196751D01*
X145057466Y-134196748D01*
X145196748Y-134057466D01*
X145196751Y-134057462D01*
X145306185Y-133893684D01*
X145306192Y-133893671D01*
X145381569Y-133711693D01*
X145381572Y-133711681D01*
X145419999Y-133518495D01*
X145420000Y-133518492D01*
X145420000Y-133120000D01*
X144720000Y-133120000D01*
X144720000Y-132620000D01*
X145420000Y-132620000D01*
X145420000Y-132221508D01*
X145419999Y-132221504D01*
X145381572Y-132028318D01*
X145381569Y-132028306D01*
X145306192Y-131846328D01*
X145306185Y-131846315D01*
X145196751Y-131682537D01*
X145196748Y-131682533D01*
X145057466Y-131543251D01*
X145057462Y-131543248D01*
X144893684Y-131433814D01*
X144893671Y-131433807D01*
X144711691Y-131358429D01*
X144711683Y-131358427D01*
X144670000Y-131350135D01*
X144670000Y-132153011D01*
X144660060Y-132135795D01*
X144604205Y-132079940D01*
X144535796Y-132040444D01*
X144459496Y-132020000D01*
X144380504Y-132020000D01*
X144304204Y-132040444D01*
X144235795Y-132079940D01*
X144179940Y-132135795D01*
X144170000Y-132153011D01*
X144170000Y-131350136D01*
X144169999Y-131350135D01*
X144128316Y-131358427D01*
X144128308Y-131358429D01*
X143946328Y-131433807D01*
X143946315Y-131433814D01*
X143782537Y-131543248D01*
X143782533Y-131543251D01*
X143643251Y-131682533D01*
X143643248Y-131682537D01*
X143533814Y-131846315D01*
X143533807Y-131846328D01*
X143458430Y-132028306D01*
X143458427Y-132028318D01*
X143420000Y-132221504D01*
X143420000Y-132620000D01*
X144120000Y-132620000D01*
X144120000Y-133120000D01*
X143564464Y-133120000D01*
X143497425Y-133100315D01*
X143457077Y-133058000D01*
X143450517Y-133046638D01*
X143450513Y-133046633D01*
X143343367Y-132939487D01*
X143343365Y-132939485D01*
X143225285Y-132871311D01*
X143212136Y-132863719D01*
X143138950Y-132844109D01*
X143065766Y-132824500D01*
X142914234Y-132824500D01*
X142767863Y-132863719D01*
X142636635Y-132939485D01*
X142636632Y-132939487D01*
X142529487Y-133046632D01*
X142529485Y-133046635D01*
X142453719Y-133177863D01*
X142414500Y-133324234D01*
X137785500Y-133324234D01*
X137746281Y-133177865D01*
X137670515Y-133046635D01*
X137563365Y-132939485D01*
X137445285Y-132871311D01*
X137432136Y-132863719D01*
X137358950Y-132844109D01*
X137285766Y-132824500D01*
X137134234Y-132824500D01*
X136987863Y-132863719D01*
X136856635Y-132939485D01*
X136856632Y-132939487D01*
X136749486Y-133046633D01*
X136749482Y-133046638D01*
X136742923Y-133058000D01*
X136692356Y-133106216D01*
X136635536Y-133120000D01*
X136080000Y-133120000D01*
X136080000Y-132620000D01*
X136780000Y-132620000D01*
X136780000Y-132221508D01*
X136779999Y-132221504D01*
X136741572Y-132028318D01*
X136741569Y-132028306D01*
X136666192Y-131846328D01*
X136666185Y-131846315D01*
X136556751Y-131682537D01*
X136556748Y-131682533D01*
X136417466Y-131543251D01*
X136417462Y-131543248D01*
X136253684Y-131433814D01*
X136253671Y-131433807D01*
X136071691Y-131358429D01*
X136071683Y-131358427D01*
X136030000Y-131350135D01*
X136030000Y-132153011D01*
X136020060Y-132135795D01*
X135964205Y-132079940D01*
X135895796Y-132040444D01*
X135819496Y-132020000D01*
X135740504Y-132020000D01*
X135664204Y-132040444D01*
X135595795Y-132079940D01*
X135539940Y-132135795D01*
X135530000Y-132153011D01*
X135530000Y-131350136D01*
X135529999Y-131350135D01*
X135488316Y-131358427D01*
X135488308Y-131358429D01*
X135306328Y-131433807D01*
X135306315Y-131433814D01*
X135142537Y-131543248D01*
X135142533Y-131543251D01*
X135003251Y-131682533D01*
X135003248Y-131682537D01*
X134893814Y-131846315D01*
X134893807Y-131846328D01*
X134818430Y-132028306D01*
X134818427Y-132028318D01*
X134780000Y-132221504D01*
X119764461Y-132221504D01*
X119749154Y-132190236D01*
X119743572Y-132174768D01*
X119743494Y-132174799D01*
X119740568Y-132167217D01*
X119715592Y-132121410D01*
X119715591Y-132121408D01*
X119714289Y-132119020D01*
X119690150Y-132069712D01*
X119682822Y-132061307D01*
X119634200Y-131972131D01*
X119627893Y-131956810D01*
X119627841Y-131956833D01*
X119624580Y-131949389D01*
X119597703Y-131904935D01*
X119594946Y-131900137D01*
X119570067Y-131854506D01*
X119565281Y-131847943D01*
X119565325Y-131847910D01*
X119555263Y-131834739D01*
X119521460Y-131778828D01*
X119502025Y-131746682D01*
X119496127Y-131730517D01*
X119468043Y-131690475D01*
X119442744Y-131648631D01*
X119442741Y-131648627D01*
X119439031Y-131645064D01*
X119423409Y-131626838D01*
X119288021Y-131433807D01*
X119234946Y-131358134D01*
X119224981Y-131337070D01*
X119197259Y-131304401D01*
X119193982Y-131299728D01*
X119193981Y-131299726D01*
X119172657Y-131269325D01*
X119172655Y-131269322D01*
X119172652Y-131269320D01*
X119172651Y-131269318D01*
X119162871Y-131261124D01*
X119147963Y-131246309D01*
X119021197Y-131096924D01*
X118935272Y-130995668D01*
X118923334Y-130975499D01*
X118892809Y-130945629D01*
X118865171Y-130913059D01*
X118854537Y-130905701D01*
X118838381Y-130892368D01*
X118657614Y-130715477D01*
X118612491Y-130671321D01*
X118604947Y-130663939D01*
X118591292Y-130645069D01*
X118558036Y-130618034D01*
X118553955Y-130614041D01*
X118553953Y-130614039D01*
X118527406Y-130588061D01*
X118527405Y-130588060D01*
X118516302Y-130581809D01*
X118498920Y-130569976D01*
X118252032Y-130369271D01*
X118243762Y-130362548D01*
X118228731Y-130345297D01*
X118192828Y-130321141D01*
X118169647Y-130302296D01*
X118159260Y-130293852D01*
X118159252Y-130293847D01*
X118148096Y-130288854D01*
X118129533Y-130278555D01*
X117860262Y-130097389D01*
X117851288Y-130091351D01*
X117835272Y-130075937D01*
X117796830Y-130054712D01*
X117785130Y-130046840D01*
X117760395Y-130030198D01*
X117749593Y-130026493D01*
X117729893Y-130017755D01*
X117436554Y-129855795D01*
X117426901Y-129850466D01*
X117410293Y-129836986D01*
X117369429Y-129818735D01*
X117364840Y-129816201D01*
X117364839Y-129816200D01*
X117330256Y-129797107D01*
X117330252Y-129797105D01*
X117320193Y-129794615D01*
X117299429Y-129787471D01*
X117088513Y-129693271D01*
X116969780Y-129640243D01*
X116952953Y-129628699D01*
X116909830Y-129613468D01*
X116905278Y-129611435D01*
X116905276Y-129611433D01*
X116868083Y-129594823D01*
X116863701Y-129594123D01*
X116859057Y-129593382D01*
X116837310Y-129587855D01*
X116489874Y-129465146D01*
X116489873Y-129465145D01*
X116478992Y-129461302D01*
X116462267Y-129451614D01*
X116417093Y-129439439D01*
X116412641Y-129437867D01*
X116412628Y-129437863D01*
X116372964Y-129423855D01*
X116372955Y-129423853D01*
X116365184Y-129423248D01*
X116342552Y-129419352D01*
X115965029Y-129317615D01*
X115965029Y-129317614D01*
X115953619Y-129314539D01*
X115937249Y-129306568D01*
X115890232Y-129297458D01*
X115885927Y-129296298D01*
X115885915Y-129296296D01*
X115872923Y-129292795D01*
X115843970Y-129284993D01*
X115843968Y-129284992D01*
X115837558Y-129284983D01*
X115814160Y-129282719D01*
X115404832Y-129203414D01*
X115404832Y-129203413D01*
X115392961Y-129201113D01*
X115377123Y-129194682D01*
X115328499Y-129188624D01*
X115324373Y-129187825D01*
X115324368Y-129187825D01*
X115280371Y-129179300D01*
X115275372Y-129179653D01*
X115251327Y-129179009D01*
X114809078Y-129123913D01*
X114796815Y-129122385D01*
X114781632Y-129117310D01*
X114731667Y-129114268D01*
X114727769Y-129113783D01*
X114727767Y-129113782D01*
X114681945Y-129108074D01*
X114681944Y-129108074D01*
X114678310Y-129108579D01*
X114653743Y-129109525D01*
X114178608Y-129080605D01*
X114178608Y-129080604D01*
X114166021Y-129079838D01*
X114151547Y-129075935D01*
X114100475Y-129075850D01*
X114096810Y-129075627D01*
X114096808Y-129075627D01*
X114049467Y-129072745D01*
X114049459Y-129072746D01*
X114047110Y-129073225D01*
X114022156Y-129075720D01*
X113516059Y-129074884D01*
X113516058Y-129074884D01*
X113503224Y-129074862D01*
X113489447Y-129071956D01*
X113437522Y-129074753D01*
X113434083Y-129074748D01*
X113434082Y-129074747D01*
X113385522Y-129074669D01*
X113385518Y-129074669D01*
X113384303Y-129074993D01*
X113359101Y-129078980D01*
X112827305Y-129107644D01*
X112814287Y-129108345D01*
X112801165Y-129106287D01*
X112748688Y-129111880D01*
X112745413Y-129112057D01*
X112745411Y-129112058D01*
X112695960Y-129114723D01*
X112695714Y-129114804D01*
X112670374Y-129120228D01*
X112124316Y-129178436D01*
X112124315Y-129178436D01*
X112111203Y-129179834D01*
X112098619Y-129178499D01*
X112045854Y-129186800D01*
X112042779Y-129187127D01*
X112042777Y-129187127D01*
X111992749Y-129192461D01*
X111990557Y-129192990D01*
X111967910Y-129199063D01*
X111431840Y-129283404D01*
X111431841Y-129283405D01*
X111418710Y-129285470D01*
X111406491Y-129284768D01*
X111353835Y-129295677D01*
X111350864Y-129296145D01*
X111350858Y-129296147D01*
X111300632Y-129304049D01*
X111296247Y-129305343D01*
X111276425Y-129311716D01*
X111149659Y-129337982D01*
X111080020Y-129332309D01*
X111024503Y-129289886D01*
X111000735Y-129224183D01*
X111000500Y-129216561D01*
X111000500Y-127511303D01*
X132799500Y-127511303D01*
X132799500Y-128688695D01*
X132834103Y-128862658D01*
X132834106Y-128862667D01*
X132901983Y-129026540D01*
X132901990Y-129026553D01*
X133000535Y-129174034D01*
X133000538Y-129174038D01*
X133125961Y-129299461D01*
X133125965Y-129299464D01*
X133273446Y-129398009D01*
X133273459Y-129398016D01*
X133369660Y-129437863D01*
X133437334Y-129465894D01*
X133437336Y-129465894D01*
X133437341Y-129465896D01*
X133611304Y-129500499D01*
X133611307Y-129500500D01*
X133611309Y-129500500D01*
X134788693Y-129500500D01*
X134788694Y-129500499D01*
X134884351Y-129481472D01*
X134962658Y-129465896D01*
X134962661Y-129465894D01*
X134962666Y-129465894D01*
X135126547Y-129398013D01*
X135274035Y-129299464D01*
X135399464Y-129174035D01*
X135498013Y-129026547D01*
X135565894Y-128862666D01*
X135569800Y-128843033D01*
X135588964Y-128746682D01*
X135600500Y-128688691D01*
X135600500Y-128511309D01*
X135600500Y-128511306D01*
X135600499Y-128511304D01*
X135565896Y-128337341D01*
X135565893Y-128337332D01*
X135498016Y-128173459D01*
X135498009Y-128173446D01*
X135430454Y-128072343D01*
X135409576Y-128005665D01*
X135418995Y-127955999D01*
X135469737Y-127833497D01*
X135500500Y-127678842D01*
X135500500Y-127521158D01*
X135500500Y-127521155D01*
X135500499Y-127521153D01*
X135469738Y-127366510D01*
X135469737Y-127366503D01*
X135424487Y-127257260D01*
X135417019Y-127187795D01*
X135448294Y-127125316D01*
X135451339Y-127122159D01*
X137736681Y-124836819D01*
X137798004Y-124803334D01*
X137824362Y-124800500D01*
X139496561Y-124800500D01*
X139563600Y-124820185D01*
X139609355Y-124872989D01*
X139619299Y-124942147D01*
X139590274Y-125005703D01*
X139565452Y-125027602D01*
X139489711Y-125078210D01*
X139489707Y-125078213D01*
X139378213Y-125189707D01*
X139378210Y-125189711D01*
X139290609Y-125320814D01*
X139290602Y-125320827D01*
X139230264Y-125466498D01*
X139230261Y-125466510D01*
X139199500Y-125621153D01*
X139199500Y-125778846D01*
X139230261Y-125933489D01*
X139230264Y-125933501D01*
X139290602Y-126079172D01*
X139290609Y-126079184D01*
X139353602Y-126173459D01*
X139374480Y-126240136D01*
X139374500Y-126242350D01*
X139374500Y-127869767D01*
X139354815Y-127936806D01*
X139345433Y-127948447D01*
X139345930Y-127948855D01*
X139342064Y-127953565D01*
X139254463Y-128084668D01*
X139254456Y-128084681D01*
X139194118Y-128230352D01*
X139194115Y-128230364D01*
X139163354Y-128385007D01*
X139163354Y-128542700D01*
X139194115Y-128697343D01*
X139194118Y-128697355D01*
X139254456Y-128843026D01*
X139254463Y-128843039D01*
X139342064Y-128974142D01*
X139342067Y-128974146D01*
X139453561Y-129085640D01*
X139453565Y-129085643D01*
X139584668Y-129173244D01*
X139584681Y-129173251D01*
X139730352Y-129233589D01*
X139730357Y-129233591D01*
X139885007Y-129264353D01*
X139885010Y-129264354D01*
X139885012Y-129264354D01*
X140042698Y-129264354D01*
X140042699Y-129264353D01*
X140197351Y-129233591D01*
X140333328Y-129177268D01*
X140343026Y-129173251D01*
X140343026Y-129173250D01*
X140343033Y-129173248D01*
X140474143Y-129085643D01*
X140585643Y-128974143D01*
X140673248Y-128843033D01*
X140733591Y-128697351D01*
X140764354Y-128542696D01*
X140764354Y-128385012D01*
X140764354Y-128385009D01*
X140764353Y-128385007D01*
X140733591Y-128230357D01*
X140733589Y-128230352D01*
X140673251Y-128084681D01*
X140673244Y-128084668D01*
X140646398Y-128044490D01*
X140625520Y-127977812D01*
X140625500Y-127975599D01*
X140625500Y-127056941D01*
X140645185Y-126989902D01*
X140697989Y-126944147D01*
X140767147Y-126934203D01*
X140830703Y-126963228D01*
X140837181Y-126969260D01*
X140889707Y-127021786D01*
X140889711Y-127021789D01*
X141020814Y-127109390D01*
X141020827Y-127109397D01*
X141166498Y-127169735D01*
X141166503Y-127169737D01*
X141321153Y-127200499D01*
X141321156Y-127200500D01*
X141321158Y-127200500D01*
X141478844Y-127200500D01*
X141478845Y-127200499D01*
X141633497Y-127169737D01*
X141779179Y-127109394D01*
X141873459Y-127046398D01*
X141940136Y-127025520D01*
X141942350Y-127025500D01*
X142557650Y-127025500D01*
X142624689Y-127045185D01*
X142626541Y-127046398D01*
X142720821Y-127109394D01*
X142720823Y-127109395D01*
X142720827Y-127109397D01*
X142866498Y-127169735D01*
X142866503Y-127169737D01*
X143021153Y-127200499D01*
X143021156Y-127200500D01*
X143021158Y-127200500D01*
X143178844Y-127200500D01*
X143178845Y-127200499D01*
X143333497Y-127169737D01*
X143479179Y-127109394D01*
X143610289Y-127021789D01*
X143721789Y-126910289D01*
X143809394Y-126779179D01*
X143869737Y-126633497D01*
X143900500Y-126478842D01*
X143900500Y-126321158D01*
X143900500Y-126321155D01*
X143900499Y-126321153D01*
X143884824Y-126242350D01*
X143869737Y-126166503D01*
X143833569Y-126079184D01*
X143809397Y-126020827D01*
X143809390Y-126020814D01*
X143721789Y-125889711D01*
X143721786Y-125889707D01*
X143610292Y-125778213D01*
X143610288Y-125778210D01*
X143479185Y-125690609D01*
X143479172Y-125690602D01*
X143333501Y-125630264D01*
X143333489Y-125630261D01*
X143178845Y-125599500D01*
X143178842Y-125599500D01*
X143021158Y-125599500D01*
X143021155Y-125599500D01*
X142866510Y-125630261D01*
X142866498Y-125630264D01*
X142720827Y-125690602D01*
X142720815Y-125690609D01*
X142626541Y-125753602D01*
X142559864Y-125774480D01*
X142557650Y-125774500D01*
X141942350Y-125774500D01*
X141875311Y-125754815D01*
X141873459Y-125753602D01*
X141779184Y-125690609D01*
X141779172Y-125690602D01*
X141633501Y-125630264D01*
X141633489Y-125630261D01*
X141478845Y-125599500D01*
X141478842Y-125599500D01*
X141321158Y-125599500D01*
X141321155Y-125599500D01*
X141166510Y-125630261D01*
X141166498Y-125630264D01*
X141020827Y-125690602D01*
X141020813Y-125690610D01*
X140992534Y-125709505D01*
X140925856Y-125730381D01*
X140858477Y-125711895D01*
X140811788Y-125659915D01*
X140802590Y-125626952D01*
X140801689Y-125627132D01*
X140781326Y-125524767D01*
X140769737Y-125466503D01*
X140757419Y-125436764D01*
X140709397Y-125320827D01*
X140709390Y-125320814D01*
X140621789Y-125189711D01*
X140621786Y-125189707D01*
X140510292Y-125078213D01*
X140510288Y-125078210D01*
X140434548Y-125027602D01*
X140389743Y-124973990D01*
X140381036Y-124904665D01*
X140411190Y-124841637D01*
X140470634Y-124804918D01*
X140503439Y-124800500D01*
X146292297Y-124800500D01*
X146359336Y-124820185D01*
X146405091Y-124872989D01*
X146415035Y-124942147D01*
X146413914Y-124948691D01*
X146399500Y-125021153D01*
X146399500Y-125178846D01*
X146430261Y-125333489D01*
X146430264Y-125333501D01*
X146490602Y-125479172D01*
X146490609Y-125479185D01*
X146578210Y-125610288D01*
X146578213Y-125610292D01*
X146689707Y-125721786D01*
X146689711Y-125721789D01*
X146820814Y-125809390D01*
X146820827Y-125809397D01*
X146938389Y-125858092D01*
X146966503Y-125869737D01*
X147121153Y-125900499D01*
X147121156Y-125900500D01*
X147121158Y-125900500D01*
X147278844Y-125900500D01*
X147278845Y-125900499D01*
X147433497Y-125869737D01*
X147579179Y-125809394D01*
X147710289Y-125721789D01*
X147762320Y-125669757D01*
X147823639Y-125636274D01*
X147893330Y-125641257D01*
X147937680Y-125669759D01*
X147947299Y-125679378D01*
X147947303Y-125679381D01*
X148078406Y-125766982D01*
X148078419Y-125766989D01*
X148180803Y-125809397D01*
X148224095Y-125827329D01*
X148378745Y-125858091D01*
X148378748Y-125858092D01*
X148378750Y-125858092D01*
X148536436Y-125858092D01*
X148536437Y-125858091D01*
X148691089Y-125827329D01*
X148809674Y-125778210D01*
X148836764Y-125766989D01*
X148836764Y-125766988D01*
X148836771Y-125766986D01*
X148967881Y-125679381D01*
X149079381Y-125567881D01*
X149166986Y-125436771D01*
X149227329Y-125291089D01*
X149258092Y-125136434D01*
X149258092Y-124978750D01*
X149258092Y-124978747D01*
X149258091Y-124978745D01*
X149242328Y-124899500D01*
X149227329Y-124824095D01*
X149227327Y-124824090D01*
X149166989Y-124678419D01*
X149166982Y-124678406D01*
X149079381Y-124547303D01*
X149079378Y-124547299D01*
X149061935Y-124529856D01*
X149028450Y-124468533D01*
X149033434Y-124398841D01*
X149046512Y-124373287D01*
X149109394Y-124279179D01*
X149169737Y-124133497D01*
X149200500Y-123978842D01*
X149200500Y-123821158D01*
X149200500Y-123821155D01*
X149200499Y-123821153D01*
X149169738Y-123666510D01*
X149169737Y-123666503D01*
X149169735Y-123666498D01*
X149109397Y-123520827D01*
X149109390Y-123520814D01*
X149021789Y-123389711D01*
X149021786Y-123389707D01*
X148910292Y-123278213D01*
X148910288Y-123278210D01*
X148779185Y-123190609D01*
X148779172Y-123190602D01*
X148633501Y-123130264D01*
X148633489Y-123130261D01*
X148478845Y-123099500D01*
X148478842Y-123099500D01*
X148321158Y-123099500D01*
X148321155Y-123099500D01*
X148166510Y-123130261D01*
X148166498Y-123130264D01*
X148020827Y-123190602D01*
X148020814Y-123190609D01*
X147951545Y-123236894D01*
X147884867Y-123257772D01*
X147817487Y-123239287D01*
X147794973Y-123221473D01*
X147774038Y-123200538D01*
X147774034Y-123200535D01*
X147626553Y-123101990D01*
X147626540Y-123101983D01*
X147462667Y-123034106D01*
X147462658Y-123034103D01*
X147288694Y-122999500D01*
X147288691Y-122999500D01*
X137488692Y-122999500D01*
X137311308Y-122999500D01*
X137311303Y-122999500D01*
X137137341Y-123034103D01*
X137137329Y-123034106D01*
X137055392Y-123068045D01*
X137055393Y-123068046D01*
X136973455Y-123101985D01*
X136885040Y-123161063D01*
X136885039Y-123161064D01*
X136825961Y-123200537D01*
X136825960Y-123200538D01*
X133000535Y-127025964D01*
X133000533Y-127025966D01*
X132986060Y-127047629D01*
X132984142Y-127050500D01*
X132901987Y-127173453D01*
X132882367Y-127220821D01*
X132879024Y-127228890D01*
X132879023Y-127228893D01*
X132834105Y-127337333D01*
X132834103Y-127337341D01*
X132799500Y-127511303D01*
X111000500Y-127511303D01*
X111000500Y-120211304D01*
X123299500Y-120211304D01*
X123299500Y-120388695D01*
X123334103Y-120562658D01*
X123334106Y-120562667D01*
X123401983Y-120726540D01*
X123401990Y-120726552D01*
X123469546Y-120827656D01*
X123490424Y-120894333D01*
X123481005Y-120943999D01*
X123430264Y-121066498D01*
X123430261Y-121066510D01*
X123399500Y-121221153D01*
X123399500Y-121378846D01*
X123430261Y-121533489D01*
X123430264Y-121533501D01*
X123490602Y-121679172D01*
X123490609Y-121679185D01*
X123578210Y-121810288D01*
X123578213Y-121810292D01*
X123689707Y-121921786D01*
X123689711Y-121921789D01*
X123820814Y-122009390D01*
X123820827Y-122009397D01*
X123966498Y-122069735D01*
X123966503Y-122069737D01*
X124108635Y-122098009D01*
X124121153Y-122100499D01*
X124121156Y-122100500D01*
X124121158Y-122100500D01*
X124278844Y-122100500D01*
X124278845Y-122100499D01*
X124433497Y-122069737D01*
X124579179Y-122009394D01*
X124648454Y-121963105D01*
X124715130Y-121942227D01*
X124782510Y-121960711D01*
X124805026Y-121978526D01*
X124825961Y-121999461D01*
X124825965Y-121999464D01*
X124973446Y-122098009D01*
X124973459Y-122098016D01*
X125096363Y-122148923D01*
X125137334Y-122165894D01*
X125137336Y-122165894D01*
X125137341Y-122165896D01*
X125311304Y-122200499D01*
X125311307Y-122200500D01*
X125311309Y-122200500D01*
X125488693Y-122200500D01*
X125488694Y-122200499D01*
X125546682Y-122188964D01*
X125662658Y-122165896D01*
X125662661Y-122165894D01*
X125662666Y-122165894D01*
X125826547Y-122098013D01*
X125974035Y-121999464D01*
X126099464Y-121874035D01*
X126178594Y-121755608D01*
X126232206Y-121710804D01*
X126281696Y-121700500D01*
X159288693Y-121700500D01*
X159288694Y-121700499D01*
X159346682Y-121688964D01*
X159462658Y-121665896D01*
X159462661Y-121665894D01*
X159462666Y-121665894D01*
X159626547Y-121598013D01*
X159774035Y-121499464D01*
X159899464Y-121374035D01*
X159998013Y-121226547D01*
X160065894Y-121062666D01*
X160100500Y-120888691D01*
X160100500Y-120211309D01*
X160100500Y-119711309D01*
X160100500Y-119711306D01*
X160100499Y-119711304D01*
X160065896Y-119537341D01*
X160065893Y-119537332D01*
X159998016Y-119373459D01*
X159998009Y-119373446D01*
X159899464Y-119225965D01*
X159899461Y-119225961D01*
X159774038Y-119100538D01*
X159774034Y-119100535D01*
X159626553Y-119001990D01*
X159626540Y-119001983D01*
X159462667Y-118934106D01*
X159462658Y-118934103D01*
X159288694Y-118899500D01*
X159288691Y-118899500D01*
X159111309Y-118899500D01*
X159111306Y-118899500D01*
X158937341Y-118934103D01*
X158937332Y-118934106D01*
X158773459Y-119001983D01*
X158773446Y-119001990D01*
X158625968Y-119100533D01*
X158605026Y-119121475D01*
X158543702Y-119154959D01*
X158474010Y-119149973D01*
X158448455Y-119136894D01*
X158379185Y-119090609D01*
X158379172Y-119090602D01*
X158233501Y-119030264D01*
X158233489Y-119030261D01*
X158078845Y-118999500D01*
X158078842Y-118999500D01*
X157921158Y-118999500D01*
X157921155Y-118999500D01*
X157766510Y-119030261D01*
X157766498Y-119030264D01*
X157620827Y-119090602D01*
X157620814Y-119090609D01*
X157489711Y-119178210D01*
X157489707Y-119178213D01*
X157378213Y-119289707D01*
X157378210Y-119289711D01*
X157290609Y-119420814D01*
X157290602Y-119420827D01*
X157230264Y-119566498D01*
X157230261Y-119566510D01*
X157199500Y-119721153D01*
X157199500Y-119775500D01*
X157179815Y-119842539D01*
X157127011Y-119888294D01*
X157075500Y-119899500D01*
X126281696Y-119899500D01*
X126214657Y-119879815D01*
X126178594Y-119844391D01*
X126099464Y-119725965D01*
X126099461Y-119725961D01*
X125974038Y-119600538D01*
X125974034Y-119600535D01*
X125826553Y-119501990D01*
X125826540Y-119501983D01*
X125662667Y-119434106D01*
X125662658Y-119434103D01*
X125488694Y-119399500D01*
X125488691Y-119399500D01*
X124111309Y-119399500D01*
X124111306Y-119399500D01*
X123937341Y-119434103D01*
X123937332Y-119434106D01*
X123773459Y-119501983D01*
X123773446Y-119501990D01*
X123625965Y-119600535D01*
X123625961Y-119600538D01*
X123500538Y-119725961D01*
X123500535Y-119725965D01*
X123401990Y-119873446D01*
X123401983Y-119873459D01*
X123334106Y-120037332D01*
X123334103Y-120037341D01*
X123299500Y-120211304D01*
X111000500Y-120211304D01*
X111000500Y-116374038D01*
X115899500Y-116374038D01*
X115899500Y-116625961D01*
X115938910Y-116874785D01*
X116016760Y-117114383D01*
X116131132Y-117338848D01*
X116279201Y-117542649D01*
X116279205Y-117542654D01*
X116457345Y-117720794D01*
X116457350Y-117720798D01*
X116635117Y-117849952D01*
X116661155Y-117868870D01*
X116804184Y-117941747D01*
X116885616Y-117983239D01*
X116885618Y-117983239D01*
X116885621Y-117983241D01*
X117125215Y-118061090D01*
X117374038Y-118100500D01*
X117374039Y-118100500D01*
X117625961Y-118100500D01*
X117625962Y-118100500D01*
X117874785Y-118061090D01*
X118114379Y-117983241D01*
X118338845Y-117868870D01*
X118542656Y-117720793D01*
X118720793Y-117542656D01*
X118868870Y-117338845D01*
X118983241Y-117114379D01*
X119061090Y-116874785D01*
X119100500Y-116625962D01*
X119100500Y-116374038D01*
X160899500Y-116374038D01*
X160899500Y-116625961D01*
X160938910Y-116874785D01*
X161016760Y-117114383D01*
X161131132Y-117338848D01*
X161279201Y-117542649D01*
X161279205Y-117542654D01*
X161457345Y-117720794D01*
X161457350Y-117720798D01*
X161635117Y-117849952D01*
X161661155Y-117868870D01*
X161804184Y-117941747D01*
X161885616Y-117983239D01*
X161885618Y-117983239D01*
X161885621Y-117983241D01*
X162125215Y-118061090D01*
X162374038Y-118100500D01*
X162374039Y-118100500D01*
X162625961Y-118100500D01*
X162625962Y-118100500D01*
X162874785Y-118061090D01*
X163114379Y-117983241D01*
X163338845Y-117868870D01*
X163542656Y-117720793D01*
X163720793Y-117542656D01*
X163868870Y-117338845D01*
X163983241Y-117114379D01*
X164061090Y-116874785D01*
X164100500Y-116625962D01*
X164100500Y-116374038D01*
X164061090Y-116125215D01*
X163983241Y-115885621D01*
X163983239Y-115885618D01*
X163983239Y-115885616D01*
X163921288Y-115764032D01*
X163868870Y-115661155D01*
X163794324Y-115558551D01*
X163720798Y-115457350D01*
X163720794Y-115457345D01*
X163542654Y-115279205D01*
X163542649Y-115279201D01*
X163338848Y-115131132D01*
X163338847Y-115131131D01*
X163338845Y-115131130D01*
X163268747Y-115095413D01*
X163114383Y-115016760D01*
X162874785Y-114938910D01*
X162625962Y-114899500D01*
X162374038Y-114899500D01*
X162249626Y-114919205D01*
X162125214Y-114938910D01*
X161885616Y-115016760D01*
X161661151Y-115131132D01*
X161457350Y-115279201D01*
X161457345Y-115279205D01*
X161279205Y-115457345D01*
X161279201Y-115457350D01*
X161131132Y-115661151D01*
X161016760Y-115885616D01*
X160938910Y-116125214D01*
X160899500Y-116374038D01*
X119100500Y-116374038D01*
X119061090Y-116125215D01*
X118983241Y-115885621D01*
X118983239Y-115885618D01*
X118983239Y-115885616D01*
X118921288Y-115764032D01*
X118868870Y-115661155D01*
X118794324Y-115558551D01*
X118720798Y-115457350D01*
X118720794Y-115457345D01*
X118542654Y-115279205D01*
X118542649Y-115279201D01*
X118338848Y-115131132D01*
X118338847Y-115131131D01*
X118338845Y-115131130D01*
X118268747Y-115095413D01*
X118114383Y-115016760D01*
X117874785Y-114938910D01*
X117625962Y-114899500D01*
X117374038Y-114899500D01*
X117249626Y-114919205D01*
X117125214Y-114938910D01*
X116885616Y-115016760D01*
X116661151Y-115131132D01*
X116457350Y-115279201D01*
X116457345Y-115279205D01*
X116279205Y-115457345D01*
X116279201Y-115457350D01*
X116131132Y-115661151D01*
X116016760Y-115885616D01*
X115938910Y-116125214D01*
X115899500Y-116374038D01*
X111000500Y-116374038D01*
X111000500Y-113974983D01*
X135799500Y-113974983D01*
X135799500Y-115325001D01*
X135799501Y-115325018D01*
X135810000Y-115427796D01*
X135810001Y-115427799D01*
X135839191Y-115515886D01*
X135865186Y-115594334D01*
X135957288Y-115743656D01*
X136081344Y-115867712D01*
X136230666Y-115959814D01*
X136397203Y-116014999D01*
X136499991Y-116025500D01*
X137300008Y-116025499D01*
X137300016Y-116025498D01*
X137300019Y-116025498D01*
X137356302Y-116019748D01*
X137402797Y-116014999D01*
X137569334Y-115959814D01*
X137718656Y-115867712D01*
X137842712Y-115743656D01*
X137882581Y-115679016D01*
X137934525Y-115632294D01*
X138003488Y-115621071D01*
X138067570Y-115648914D01*
X138075799Y-115656434D01*
X138183397Y-115764032D01*
X138323475Y-115865804D01*
X138477744Y-115944408D01*
X138642415Y-115997914D01*
X138642414Y-115997914D01*
X138649999Y-115999115D01*
X138650000Y-115999114D01*
X138650000Y-114930330D01*
X138669745Y-114950075D01*
X138755255Y-114999444D01*
X138850630Y-115025000D01*
X138949370Y-115025000D01*
X139044745Y-114999444D01*
X139130255Y-114950075D01*
X139150000Y-114930330D01*
X139150000Y-115999115D01*
X139157584Y-115997914D01*
X139322255Y-115944408D01*
X139476524Y-115865804D01*
X139616602Y-115764032D01*
X139739036Y-115641598D01*
X139799371Y-115558552D01*
X139854700Y-115515886D01*
X139924313Y-115509905D01*
X139986109Y-115542510D01*
X140000008Y-115558550D01*
X140020587Y-115586874D01*
X140060586Y-115641928D01*
X140183072Y-115764414D01*
X140323212Y-115866232D01*
X140477555Y-115944873D01*
X140642299Y-115998402D01*
X140813389Y-116025500D01*
X140813390Y-116025500D01*
X140986610Y-116025500D01*
X140986611Y-116025500D01*
X141157701Y-115998402D01*
X141322445Y-115944873D01*
X141476788Y-115866232D01*
X141616928Y-115764414D01*
X141739414Y-115641928D01*
X141799991Y-115558550D01*
X141855321Y-115515885D01*
X141924934Y-115509906D01*
X141986729Y-115542512D01*
X142000628Y-115558551D01*
X142060967Y-115641602D01*
X142183397Y-115764032D01*
X142323475Y-115865804D01*
X142477744Y-115944408D01*
X142642415Y-115997914D01*
X142642414Y-115997914D01*
X142649999Y-115999115D01*
X142650000Y-115999114D01*
X142650000Y-114930330D01*
X142669745Y-114950075D01*
X142755255Y-114999444D01*
X142850630Y-115025000D01*
X142949370Y-115025000D01*
X143044745Y-114999444D01*
X143130255Y-114950075D01*
X143150000Y-114930330D01*
X143150000Y-115999115D01*
X143157584Y-115997914D01*
X143322255Y-115944408D01*
X143476524Y-115865804D01*
X143616602Y-115764032D01*
X143739032Y-115641602D01*
X143840804Y-115501524D01*
X143919408Y-115347257D01*
X143972914Y-115182584D01*
X144000000Y-115011571D01*
X144000000Y-114900000D01*
X143180330Y-114900000D01*
X143200075Y-114880255D01*
X143249444Y-114794745D01*
X143275000Y-114699370D01*
X143275000Y-114600630D01*
X143249444Y-114505255D01*
X143200075Y-114419745D01*
X143180330Y-114400000D01*
X144000000Y-114400000D01*
X144000000Y-114288428D01*
X143972914Y-114117415D01*
X143919408Y-113952742D01*
X143840804Y-113798475D01*
X143739032Y-113658397D01*
X143616602Y-113535967D01*
X143476524Y-113434195D01*
X143322257Y-113355591D01*
X143157589Y-113302087D01*
X143157581Y-113302085D01*
X143150000Y-113300884D01*
X143150000Y-114369670D01*
X143130255Y-114349925D01*
X143044745Y-114300556D01*
X142949370Y-114275000D01*
X142850630Y-114275000D01*
X142755255Y-114300556D01*
X142669745Y-114349925D01*
X142650000Y-114369670D01*
X142650000Y-113300884D01*
X142649999Y-113300884D01*
X142642418Y-113302085D01*
X142642410Y-113302087D01*
X142477742Y-113355591D01*
X142323475Y-113434195D01*
X142183397Y-113535967D01*
X142060965Y-113658399D01*
X142060961Y-113658404D01*
X142000627Y-113741448D01*
X141945297Y-113784114D01*
X141875684Y-113790093D01*
X141813889Y-113757488D01*
X141799991Y-113741449D01*
X141799990Y-113741447D01*
X141739414Y-113658072D01*
X141616928Y-113535586D01*
X141476788Y-113433768D01*
X141322445Y-113355127D01*
X141157701Y-113301598D01*
X141157699Y-113301597D01*
X141157698Y-113301597D01*
X141016153Y-113279179D01*
X140986611Y-113274500D01*
X140813389Y-113274500D01*
X140783847Y-113279179D01*
X140642302Y-113301597D01*
X140477552Y-113355128D01*
X140323211Y-113433768D01*
X140243256Y-113491859D01*
X140183072Y-113535586D01*
X140183070Y-113535588D01*
X140183069Y-113535588D01*
X140060585Y-113658072D01*
X140000007Y-113741450D01*
X139944677Y-113784115D01*
X139875063Y-113790093D01*
X139813269Y-113757486D01*
X139799371Y-113741447D01*
X139739036Y-113658401D01*
X139616602Y-113535967D01*
X139476524Y-113434195D01*
X139322257Y-113355591D01*
X139157589Y-113302087D01*
X139157581Y-113302085D01*
X139150000Y-113300884D01*
X139150000Y-114369670D01*
X139130255Y-114349925D01*
X139044745Y-114300556D01*
X138949370Y-114275000D01*
X138850630Y-114275000D01*
X138755255Y-114300556D01*
X138669745Y-114349925D01*
X138650000Y-114369670D01*
X138650000Y-113300884D01*
X138649999Y-113300884D01*
X138642418Y-113302085D01*
X138642410Y-113302087D01*
X138477742Y-113355591D01*
X138323475Y-113434195D01*
X138183401Y-113535964D01*
X138075799Y-113643566D01*
X138014476Y-113677050D01*
X137944784Y-113672066D01*
X137888851Y-113630194D01*
X137882585Y-113620988D01*
X137842712Y-113556344D01*
X137718656Y-113432288D01*
X137593559Y-113355128D01*
X137569336Y-113340187D01*
X137569331Y-113340185D01*
X137510894Y-113320821D01*
X137402797Y-113285001D01*
X137402795Y-113285000D01*
X137300010Y-113274500D01*
X136499998Y-113274500D01*
X136499980Y-113274501D01*
X136397203Y-113285000D01*
X136397200Y-113285001D01*
X136230668Y-113340185D01*
X136230663Y-113340187D01*
X136081342Y-113432289D01*
X135957289Y-113556342D01*
X135865187Y-113705663D01*
X135865185Y-113705668D01*
X135839191Y-113784114D01*
X135810001Y-113872203D01*
X135810001Y-113872204D01*
X135810000Y-113872204D01*
X135799500Y-113974983D01*
X111000500Y-113974983D01*
X111000500Y-82636108D01*
X113699500Y-82636108D01*
X113699500Y-82767892D01*
X113705618Y-82790724D01*
X113733608Y-82895187D01*
X113742329Y-82910292D01*
X113799500Y-83009314D01*
X113892686Y-83102500D01*
X114006814Y-83168392D01*
X114134108Y-83202500D01*
X114134110Y-83202500D01*
X114265890Y-83202500D01*
X114265892Y-83202500D01*
X114393186Y-83168392D01*
X114507314Y-83102500D01*
X114600500Y-83009314D01*
X114666392Y-82895186D01*
X114700500Y-82767892D01*
X114700500Y-82636108D01*
X114666392Y-82508814D01*
X114600500Y-82394686D01*
X114507314Y-82301500D01*
X114446689Y-82266498D01*
X114393187Y-82235608D01*
X114329539Y-82218554D01*
X114265892Y-82201500D01*
X114134108Y-82201500D01*
X114006812Y-82235608D01*
X113892686Y-82301500D01*
X113892683Y-82301502D01*
X113799502Y-82394683D01*
X113799500Y-82394686D01*
X113733608Y-82508812D01*
X113714843Y-82578846D01*
X113699500Y-82636108D01*
X111000500Y-82636108D01*
X111000500Y-77121153D01*
X114299500Y-77121153D01*
X114299500Y-77278846D01*
X114330261Y-77433489D01*
X114330264Y-77433501D01*
X114390602Y-77579172D01*
X114390609Y-77579185D01*
X114478210Y-77710288D01*
X114478213Y-77710292D01*
X114589707Y-77821786D01*
X114589711Y-77821789D01*
X114720814Y-77909390D01*
X114720827Y-77909397D01*
X114799894Y-77942147D01*
X114866503Y-77969737D01*
X114977716Y-77991858D01*
X115039623Y-78024241D01*
X115041203Y-78025793D01*
X115438181Y-78422771D01*
X115471666Y-78484094D01*
X115474500Y-78510452D01*
X115474500Y-81767059D01*
X115454815Y-81834098D01*
X115438181Y-81854740D01*
X115403213Y-81889707D01*
X115403210Y-81889711D01*
X115315609Y-82020814D01*
X115315602Y-82020827D01*
X115255264Y-82166498D01*
X115255261Y-82166510D01*
X115224500Y-82321153D01*
X115224500Y-82478846D01*
X115255261Y-82633489D01*
X115255264Y-82633501D01*
X115315602Y-82779172D01*
X115315609Y-82779185D01*
X115403210Y-82910288D01*
X115403213Y-82910292D01*
X115514707Y-83021786D01*
X115514711Y-83021789D01*
X115645814Y-83109390D01*
X115645827Y-83109397D01*
X115788253Y-83168391D01*
X115791503Y-83169737D01*
X115946153Y-83200499D01*
X115946156Y-83200500D01*
X115946158Y-83200500D01*
X116103844Y-83200500D01*
X116103845Y-83200499D01*
X116258497Y-83169737D01*
X116404179Y-83109394D01*
X116535289Y-83021789D01*
X116646789Y-82910289D01*
X116734394Y-82779179D01*
X116794737Y-82633497D01*
X116825500Y-82478842D01*
X116825500Y-82321158D01*
X116825500Y-82321155D01*
X116825499Y-82321153D01*
X116808483Y-82235608D01*
X116794737Y-82166503D01*
X116768985Y-82104332D01*
X116734939Y-82022136D01*
X116725500Y-81974684D01*
X116725500Y-78267740D01*
X116725501Y-78267721D01*
X116725501Y-78138391D01*
X116712788Y-78074480D01*
X116704295Y-78031785D01*
X116701463Y-78017548D01*
X116678019Y-77960949D01*
X116665309Y-77930264D01*
X116654315Y-77903721D01*
X116654308Y-77903708D01*
X116585858Y-77801267D01*
X116585855Y-77801263D01*
X115925793Y-77141203D01*
X115892308Y-77079880D01*
X115891887Y-77077864D01*
X115869737Y-76966503D01*
X115833569Y-76879185D01*
X115809397Y-76820827D01*
X115809390Y-76820814D01*
X115721789Y-76689711D01*
X115721786Y-76689707D01*
X115610292Y-76578213D01*
X115610288Y-76578210D01*
X115479185Y-76490609D01*
X115479172Y-76490602D01*
X115333501Y-76430264D01*
X115333489Y-76430261D01*
X115178845Y-76399500D01*
X115178842Y-76399500D01*
X115021158Y-76399500D01*
X115021155Y-76399500D01*
X114866510Y-76430261D01*
X114866498Y-76430264D01*
X114720827Y-76490602D01*
X114720814Y-76490609D01*
X114589711Y-76578210D01*
X114589707Y-76578213D01*
X114478213Y-76689707D01*
X114478210Y-76689711D01*
X114390609Y-76820814D01*
X114390602Y-76820827D01*
X114330264Y-76966498D01*
X114330261Y-76966510D01*
X114299500Y-77121153D01*
X111000500Y-77121153D01*
X111000500Y-71374038D01*
X115899500Y-71374038D01*
X115899500Y-71625961D01*
X115938910Y-71874785D01*
X116016760Y-72114383D01*
X116086482Y-72251219D01*
X116121949Y-72320827D01*
X116131132Y-72338848D01*
X116279201Y-72542649D01*
X116279205Y-72542654D01*
X116457345Y-72720794D01*
X116457350Y-72720798D01*
X116537247Y-72778846D01*
X116661155Y-72868870D01*
X116787977Y-72933489D01*
X116885616Y-72983239D01*
X116885618Y-72983239D01*
X116885621Y-72983241D01*
X117125215Y-73061090D01*
X117374038Y-73100500D01*
X117374039Y-73100500D01*
X117625961Y-73100500D01*
X117625962Y-73100500D01*
X117874785Y-73061090D01*
X118114379Y-72983241D01*
X118338845Y-72868870D01*
X118542656Y-72720793D01*
X118720793Y-72542656D01*
X118868870Y-72338845D01*
X118983241Y-72114379D01*
X119061090Y-71874785D01*
X119100500Y-71625962D01*
X119100500Y-71374038D01*
X119061090Y-71125215D01*
X118983241Y-70885621D01*
X118983239Y-70885618D01*
X118983239Y-70885616D01*
X118907352Y-70736681D01*
X118868870Y-70661155D01*
X118831913Y-70610288D01*
X118720798Y-70457350D01*
X118720794Y-70457345D01*
X118542654Y-70279205D01*
X118542649Y-70279201D01*
X118338848Y-70131132D01*
X118338847Y-70131131D01*
X118338845Y-70131130D01*
X118268747Y-70095413D01*
X118114383Y-70016760D01*
X117874785Y-69938910D01*
X117706392Y-69912239D01*
X117625962Y-69899500D01*
X117374038Y-69899500D01*
X117293608Y-69912239D01*
X117125214Y-69938910D01*
X116885616Y-70016760D01*
X116661151Y-70131132D01*
X116457350Y-70279201D01*
X116457345Y-70279205D01*
X116279205Y-70457345D01*
X116279201Y-70457350D01*
X116131132Y-70661151D01*
X116016760Y-70885616D01*
X115938910Y-71125214D01*
X115899500Y-71374038D01*
X111000500Y-71374038D01*
X111000500Y-58746987D01*
X111005890Y-58728630D01*
X111006301Y-58709504D01*
X111015530Y-58695798D01*
X111020185Y-58679948D01*
X111034640Y-58667421D01*
X111045329Y-58651551D01*
X111060504Y-58645010D01*
X111072989Y-58634193D01*
X111091922Y-58631470D01*
X111109494Y-58623898D01*
X111140021Y-58624554D01*
X111142147Y-58624249D01*
X111144746Y-58624651D01*
X111236529Y-58639867D01*
X111249539Y-58642751D01*
X111255653Y-58644454D01*
X111255658Y-58644457D01*
X111313763Y-58652703D01*
X111316496Y-58653124D01*
X111374380Y-58662721D01*
X111374387Y-58662720D01*
X111380715Y-58662932D01*
X111394005Y-58664093D01*
X111681674Y-58704926D01*
X111687405Y-58707205D01*
X111746802Y-58714170D01*
X111806043Y-58722579D01*
X111806050Y-58722578D01*
X111813046Y-58722648D01*
X111826238Y-58723485D01*
X112100202Y-58755612D01*
X112106230Y-58757835D01*
X112165540Y-58763274D01*
X112224708Y-58770213D01*
X112224715Y-58770211D01*
X112232417Y-58770103D01*
X112245494Y-58770607D01*
X112501939Y-58794127D01*
X112508277Y-58796276D01*
X112567467Y-58800136D01*
X112626512Y-58805552D01*
X112626519Y-58805550D01*
X112634635Y-58805231D01*
X112634669Y-58806099D01*
X112647735Y-58805372D01*
X112891474Y-58821270D01*
X112898126Y-58823325D01*
X112957097Y-58825551D01*
X113016028Y-58829395D01*
X113016035Y-58829393D01*
X113024146Y-58828860D01*
X113024197Y-58829641D01*
X113037455Y-58828584D01*
X113053200Y-58829178D01*
X113265462Y-58837191D01*
X113272445Y-58839132D01*
X113331226Y-58839674D01*
X113389917Y-58841890D01*
X113389923Y-58841888D01*
X113398017Y-58841133D01*
X113398085Y-58841864D01*
X113411507Y-58840415D01*
X113627923Y-58842412D01*
X113635237Y-58844213D01*
X113693698Y-58843019D01*
X113752170Y-58843559D01*
X113752175Y-58843557D01*
X113760238Y-58842572D01*
X113760321Y-58843253D01*
X113773918Y-58841380D01*
X113976078Y-58837254D01*
X113983726Y-58838889D01*
X114041816Y-58835912D01*
X114100010Y-58834724D01*
X114100013Y-58834722D01*
X114108051Y-58833498D01*
X114108146Y-58834124D01*
X114121899Y-58831808D01*
X114299004Y-58822732D01*
X114313300Y-58821999D01*
X114321293Y-58823443D01*
X114378981Y-58818633D01*
X114436799Y-58815671D01*
X114436802Y-58815669D01*
X114444793Y-58814199D01*
X114444898Y-58814771D01*
X114458794Y-58811979D01*
X114637423Y-58797089D01*
X114645754Y-58798310D01*
X114702957Y-58791626D01*
X114760360Y-58786841D01*
X114760363Y-58786840D01*
X114768301Y-58785114D01*
X114768413Y-58785632D01*
X114782426Y-58782340D01*
X114951155Y-58762626D01*
X114959824Y-58763594D01*
X115016472Y-58754994D01*
X115073385Y-58748345D01*
X115073388Y-58748344D01*
X115081264Y-58746356D01*
X115081381Y-58746822D01*
X115095491Y-58742998D01*
X115252942Y-58719098D01*
X115261934Y-58719780D01*
X115317943Y-58709231D01*
X115374316Y-58700674D01*
X115374321Y-58700672D01*
X115382129Y-58698414D01*
X115382248Y-58698826D01*
X115396430Y-58694448D01*
X115544794Y-58666507D01*
X115554106Y-58666870D01*
X115609416Y-58654336D01*
X115665143Y-58643841D01*
X115665153Y-58643835D01*
X115672865Y-58641306D01*
X115672983Y-58641667D01*
X115687205Y-58636708D01*
X115825806Y-58605301D01*
X115835411Y-58605312D01*
X115889915Y-58590773D01*
X115944961Y-58578300D01*
X115944969Y-58578295D01*
X115952587Y-58575483D01*
X115952702Y-58575795D01*
X115966939Y-58570227D01*
X116097246Y-58535470D01*
X116107128Y-58535097D01*
X116160766Y-58518527D01*
X116215021Y-58504056D01*
X116215023Y-58504054D01*
X116215026Y-58504054D01*
X116222542Y-58500951D01*
X116222651Y-58501215D01*
X116236849Y-58495024D01*
X116358868Y-58457332D01*
X116368997Y-58456543D01*
X116421690Y-58437926D01*
X116475077Y-58421435D01*
X116475083Y-58421430D01*
X116482468Y-58418041D01*
X116482568Y-58418260D01*
X116496694Y-58411427D01*
X116611194Y-58370974D01*
X116621538Y-58369740D01*
X116673183Y-58349074D01*
X116725630Y-58330545D01*
X116725638Y-58330538D01*
X116732875Y-58326859D01*
X116732966Y-58327038D01*
X116746974Y-58319546D01*
X116854643Y-58276463D01*
X116865156Y-58274759D01*
X116915675Y-58252042D01*
X116967107Y-58231462D01*
X116967116Y-58231455D01*
X116974194Y-58227482D01*
X116974274Y-58227625D01*
X116988112Y-58219468D01*
X117088962Y-58174120D01*
X117099612Y-58171922D01*
X117148919Y-58147159D01*
X117199237Y-58124534D01*
X117199242Y-58124529D01*
X117206149Y-58120263D01*
X117206216Y-58120372D01*
X117219836Y-58111545D01*
X117315241Y-58063634D01*
X117325967Y-58060928D01*
X117373988Y-58034132D01*
X117423125Y-58009456D01*
X117423128Y-58009452D01*
X117429849Y-58004892D01*
X117429904Y-58004973D01*
X117443251Y-57995483D01*
X117482639Y-57973504D01*
X117537370Y-57942964D01*
X117553392Y-57937769D01*
X117594718Y-57910964D01*
X117598871Y-57908647D01*
X117609692Y-57902609D01*
X117637741Y-57886958D01*
X117641105Y-57883690D01*
X117660009Y-57868616D01*
X117942719Y-57685251D01*
X117963770Y-57676252D01*
X117997795Y-57649528D01*
X118034082Y-57625993D01*
X118042270Y-57616908D01*
X118057770Y-57602422D01*
X118321787Y-57395065D01*
X118342130Y-57384077D01*
X118373404Y-57354525D01*
X118407243Y-57327949D01*
X118414758Y-57317922D01*
X118428811Y-57302171D01*
X118670092Y-57074185D01*
X118689319Y-57061412D01*
X118717802Y-57029104D01*
X118749105Y-56999527D01*
X118755643Y-56988906D01*
X118768222Y-56971915D01*
X118854909Y-56873591D01*
X118988163Y-56722448D01*
X119005927Y-56708191D01*
X119031569Y-56673215D01*
X119060252Y-56640683D01*
X119065634Y-56629840D01*
X119076690Y-56611673D01*
X119276243Y-56339494D01*
X119292295Y-56324112D01*
X119315057Y-56286555D01*
X119341021Y-56251142D01*
X119345156Y-56240505D01*
X119354679Y-56221178D01*
X119534343Y-55924739D01*
X119548540Y-55908614D01*
X119568368Y-55868599D01*
X119591514Y-55830410D01*
X119594442Y-55820341D01*
X119602395Y-55799929D01*
X119762221Y-55477397D01*
X119774518Y-55460904D01*
X119791366Y-55418581D01*
X119811597Y-55377755D01*
X119813438Y-55368591D01*
X119819800Y-55347153D01*
X119926894Y-55078136D01*
X119969978Y-55023132D01*
X120035961Y-55000152D01*
X120042101Y-55000000D01*
X129761452Y-55000000D01*
X129828491Y-55019685D01*
G37*
%TD.AperFunction*%
%TA.AperFunction,Conductor*%
G36*
X150893834Y-90040759D02*
G01*
X150949767Y-90082631D01*
X150974184Y-90148095D01*
X150974500Y-90156941D01*
X150974500Y-110650500D01*
X150954815Y-110717539D01*
X150902011Y-110763294D01*
X150850500Y-110774500D01*
X149809451Y-110774500D01*
X149788205Y-110768261D01*
X149766118Y-110766682D01*
X149755334Y-110758609D01*
X149742412Y-110754815D01*
X149727913Y-110738083D01*
X149710184Y-110724811D01*
X149705476Y-110712188D01*
X149696657Y-110702011D01*
X149693505Y-110680095D01*
X149685767Y-110659347D01*
X149688629Y-110646185D01*
X149686713Y-110632853D01*
X149695911Y-110612711D01*
X149700618Y-110591074D01*
X149713889Y-110573345D01*
X149715738Y-110569297D01*
X149721751Y-110562837D01*
X149798729Y-110485860D01*
X149798733Y-110485858D01*
X149885858Y-110398733D01*
X149920084Y-110347509D01*
X149954312Y-110296286D01*
X149987652Y-110215792D01*
X150001463Y-110182452D01*
X150025500Y-110061606D01*
X150025500Y-93942350D01*
X150045185Y-93875311D01*
X150046398Y-93873459D01*
X150081565Y-93820828D01*
X150109394Y-93779179D01*
X150169737Y-93633497D01*
X150200500Y-93478842D01*
X150200500Y-93321158D01*
X150200500Y-93321155D01*
X150200499Y-93321153D01*
X150192417Y-93280521D01*
X150169737Y-93166503D01*
X150137929Y-93089711D01*
X150109397Y-93020827D01*
X150109390Y-93020814D01*
X150021789Y-92889711D01*
X150021786Y-92889707D01*
X149910292Y-92778213D01*
X149910288Y-92778210D01*
X149779185Y-92690609D01*
X149779172Y-92690602D01*
X149633501Y-92630264D01*
X149633489Y-92630261D01*
X149478845Y-92599500D01*
X149478842Y-92599500D01*
X149321158Y-92599500D01*
X149321155Y-92599500D01*
X149166510Y-92630261D01*
X149166498Y-92630264D01*
X149020827Y-92690602D01*
X149020814Y-92690609D01*
X148889711Y-92778210D01*
X148889707Y-92778213D01*
X148778213Y-92889707D01*
X148778210Y-92889711D01*
X148690609Y-93020814D01*
X148690602Y-93020827D01*
X148630264Y-93166498D01*
X148630262Y-93166505D01*
X148619256Y-93221833D01*
X148586870Y-93283743D01*
X148526153Y-93318316D01*
X148521833Y-93319256D01*
X148466505Y-93330262D01*
X148466498Y-93330264D01*
X148320827Y-93390602D01*
X148320814Y-93390609D01*
X148189711Y-93478210D01*
X148189707Y-93478213D01*
X148078213Y-93589707D01*
X148078210Y-93589711D01*
X147990609Y-93720814D01*
X147990602Y-93720827D01*
X147930264Y-93866498D01*
X147930261Y-93866510D01*
X147899500Y-94021153D01*
X147899500Y-94178846D01*
X147930261Y-94333489D01*
X147930264Y-94333501D01*
X147990602Y-94479172D01*
X147990609Y-94479184D01*
X148053602Y-94573459D01*
X148074480Y-94640136D01*
X148074500Y-94642350D01*
X148074500Y-109050500D01*
X148054815Y-109117539D01*
X148002011Y-109163294D01*
X147950500Y-109174500D01*
X136110453Y-109174500D01*
X136043414Y-109154815D01*
X136022772Y-109138181D01*
X132759902Y-105875311D01*
X129496770Y-102612180D01*
X129463286Y-102550858D01*
X129468270Y-102481166D01*
X129510142Y-102425233D01*
X129575606Y-102400816D01*
X129584452Y-102400500D01*
X137834953Y-102400500D01*
X137901992Y-102420185D01*
X137922634Y-102436819D01*
X138232455Y-102746641D01*
X138232458Y-102746644D01*
X138232461Y-102746646D01*
X138271375Y-102772647D01*
X138379950Y-102845195D01*
X138459659Y-102878211D01*
X138466332Y-102880975D01*
X138471271Y-102883021D01*
X138525674Y-102926863D01*
X138547738Y-102993158D01*
X138530458Y-103060857D01*
X138526920Y-103066472D01*
X138490608Y-103120816D01*
X138490602Y-103120827D01*
X138430264Y-103266498D01*
X138430261Y-103266510D01*
X138399500Y-103421153D01*
X138399500Y-103578846D01*
X138430261Y-103733489D01*
X138430264Y-103733501D01*
X138490602Y-103879172D01*
X138490609Y-103879185D01*
X138578210Y-104010288D01*
X138578213Y-104010292D01*
X138689707Y-104121786D01*
X138689711Y-104121789D01*
X138820814Y-104209390D01*
X138820827Y-104209397D01*
X138966498Y-104269735D01*
X138966503Y-104269737D01*
X139050193Y-104286384D01*
X139121153Y-104300499D01*
X139121156Y-104300500D01*
X139121158Y-104300500D01*
X139278844Y-104300500D01*
X139278845Y-104300499D01*
X139433497Y-104269737D01*
X139579179Y-104209394D01*
X139710289Y-104121789D01*
X139821789Y-104010289D01*
X139909394Y-103879179D01*
X139969737Y-103733497D01*
X140000500Y-103578842D01*
X140000500Y-103421158D01*
X140000500Y-103421155D01*
X140000499Y-103421153D01*
X139974353Y-103289711D01*
X139969737Y-103266503D01*
X139969735Y-103266498D01*
X139908696Y-103119134D01*
X139901227Y-103049665D01*
X139932503Y-102987186D01*
X139992592Y-102951534D01*
X140023257Y-102947682D01*
X140941511Y-102947682D01*
X140941512Y-102947681D01*
X141115484Y-102913077D01*
X141199656Y-102878211D01*
X141279365Y-102845195D01*
X141387940Y-102772647D01*
X141426854Y-102746646D01*
X142087819Y-102085679D01*
X142149142Y-102052195D01*
X142218833Y-102057179D01*
X142274767Y-102099050D01*
X142299184Y-102164515D01*
X142299500Y-102173361D01*
X142299500Y-102225992D01*
X142330261Y-102380635D01*
X142330264Y-102380647D01*
X142390602Y-102526318D01*
X142390609Y-102526331D01*
X142478210Y-102657434D01*
X142478213Y-102657438D01*
X142480240Y-102659465D01*
X142480962Y-102660788D01*
X142482076Y-102662145D01*
X142481818Y-102662356D01*
X142513725Y-102720788D01*
X142508741Y-102790480D01*
X142482001Y-102832085D01*
X142482076Y-102832147D01*
X142481552Y-102832785D01*
X142480240Y-102834827D01*
X142478213Y-102836853D01*
X142478210Y-102836857D01*
X142390609Y-102967960D01*
X142390602Y-102967973D01*
X142330264Y-103113644D01*
X142330261Y-103113656D01*
X142299500Y-103268299D01*
X142299500Y-103425992D01*
X142330261Y-103580635D01*
X142330264Y-103580647D01*
X142390602Y-103726318D01*
X142390609Y-103726331D01*
X142478210Y-103857434D01*
X142478213Y-103857438D01*
X142589707Y-103968932D01*
X142589711Y-103968935D01*
X142720814Y-104056536D01*
X142720827Y-104056543D01*
X142731440Y-104060939D01*
X142785844Y-104104779D01*
X142807909Y-104171073D01*
X142790630Y-104238773D01*
X142739493Y-104286384D01*
X142683988Y-104299500D01*
X142111306Y-104299500D01*
X141937341Y-104334103D01*
X141937332Y-104334106D01*
X141773459Y-104401983D01*
X141773446Y-104401990D01*
X141625965Y-104500535D01*
X141625961Y-104500538D01*
X141500538Y-104625961D01*
X141500535Y-104625965D01*
X141401990Y-104773446D01*
X141401983Y-104773459D01*
X141334106Y-104937332D01*
X141334103Y-104937341D01*
X141299500Y-105111304D01*
X141299500Y-105288695D01*
X141334103Y-105462658D01*
X141334106Y-105462667D01*
X141401983Y-105626540D01*
X141401990Y-105626553D01*
X141500535Y-105774034D01*
X141500538Y-105774038D01*
X141625961Y-105899461D01*
X141625965Y-105899464D01*
X141773446Y-105998009D01*
X141773459Y-105998016D01*
X141895280Y-106048475D01*
X141937334Y-106065894D01*
X141937336Y-106065894D01*
X141937341Y-106065896D01*
X142111304Y-106100499D01*
X142111307Y-106100500D01*
X142111309Y-106100500D01*
X146588693Y-106100500D01*
X146588694Y-106100499D01*
X146646682Y-106088964D01*
X146762658Y-106065896D01*
X146762661Y-106065894D01*
X146762666Y-106065894D01*
X146926547Y-105998013D01*
X147074035Y-105899464D01*
X147199464Y-105774035D01*
X147298013Y-105626547D01*
X147365894Y-105462666D01*
X147400500Y-105288691D01*
X147400500Y-105111309D01*
X147400500Y-105111306D01*
X147400499Y-105111304D01*
X147365896Y-104937341D01*
X147365893Y-104937332D01*
X147298016Y-104773459D01*
X147298009Y-104773446D01*
X147199464Y-104625965D01*
X147199461Y-104625961D01*
X147074038Y-104500538D01*
X147074034Y-104500535D01*
X146926553Y-104401990D01*
X146926540Y-104401983D01*
X146762667Y-104334106D01*
X146762658Y-104334103D01*
X146588694Y-104299500D01*
X146588691Y-104299500D01*
X144916012Y-104299500D01*
X144848973Y-104279815D01*
X144803218Y-104227011D01*
X144793274Y-104157853D01*
X144822299Y-104094297D01*
X144868560Y-104060939D01*
X144879172Y-104056543D01*
X144879172Y-104056542D01*
X144879179Y-104056540D01*
X145010289Y-103968935D01*
X145121789Y-103857435D01*
X145209394Y-103726325D01*
X145269737Y-103580643D01*
X145300500Y-103425988D01*
X145300500Y-103268304D01*
X145300500Y-103268301D01*
X145300499Y-103268299D01*
X145300141Y-103266498D01*
X145269737Y-103113649D01*
X145237086Y-103034822D01*
X145209397Y-102967973D01*
X145209390Y-102967960D01*
X145143339Y-102869108D01*
X145122461Y-102802430D01*
X145140946Y-102735050D01*
X145170354Y-102704580D01*
X145169327Y-102703328D01*
X145174031Y-102699466D01*
X145174035Y-102699464D01*
X145299464Y-102574035D01*
X145398013Y-102426547D01*
X145465894Y-102262666D01*
X145500500Y-102088691D01*
X145500500Y-101911309D01*
X145500500Y-101911306D01*
X145500499Y-101911304D01*
X145465896Y-101737341D01*
X145465893Y-101737332D01*
X145461758Y-101727350D01*
X145439944Y-101674684D01*
X145398016Y-101573459D01*
X145398009Y-101573446D01*
X145299464Y-101425965D01*
X145299461Y-101425961D01*
X145174038Y-101300538D01*
X145174034Y-101300535D01*
X145026553Y-101201990D01*
X145026540Y-101201983D01*
X144862667Y-101134106D01*
X144862658Y-101134103D01*
X144688694Y-101099500D01*
X144688691Y-101099500D01*
X144224500Y-101099500D01*
X144157461Y-101079815D01*
X144111706Y-101027011D01*
X144100500Y-100975500D01*
X144100500Y-100711306D01*
X144100499Y-100711304D01*
X144065896Y-100537341D01*
X144065893Y-100537332D01*
X143998016Y-100373459D01*
X143998009Y-100373446D01*
X143899464Y-100225965D01*
X143899461Y-100225961D01*
X143774038Y-100100538D01*
X143774034Y-100100535D01*
X143626553Y-100001990D01*
X143626540Y-100001983D01*
X143462667Y-99934106D01*
X143462658Y-99934103D01*
X143288694Y-99899500D01*
X143288691Y-99899500D01*
X142188692Y-99899500D01*
X142011309Y-99899500D01*
X142011304Y-99899500D01*
X141837341Y-99934103D01*
X141837333Y-99934105D01*
X141748857Y-99970753D01*
X141748851Y-99970756D01*
X141742034Y-99973580D01*
X141673453Y-100001987D01*
X141573171Y-100068994D01*
X141569188Y-100071655D01*
X141569185Y-100071657D01*
X141525962Y-100100537D01*
X141525961Y-100100538D01*
X140812181Y-100814319D01*
X140750858Y-100847804D01*
X140681166Y-100842820D01*
X140625233Y-100800948D01*
X140600816Y-100735484D01*
X140600500Y-100726638D01*
X140600500Y-98575316D01*
X140609939Y-98527864D01*
X140650518Y-98429896D01*
X140669737Y-98383497D01*
X140700500Y-98228842D01*
X140700500Y-98071158D01*
X140700500Y-98071155D01*
X140700499Y-98071153D01*
X140669737Y-97916503D01*
X140669735Y-97916498D01*
X140609939Y-97772136D01*
X140600500Y-97724684D01*
X140600500Y-94394168D01*
X140620185Y-94327129D01*
X140672989Y-94281374D01*
X140742147Y-94271430D01*
X140793392Y-94291067D01*
X140820812Y-94309389D01*
X140820827Y-94309397D01*
X140966498Y-94369735D01*
X140966503Y-94369737D01*
X141121153Y-94400499D01*
X141121156Y-94400500D01*
X141121158Y-94400500D01*
X141278844Y-94400500D01*
X141278845Y-94400499D01*
X141433497Y-94369737D01*
X141549262Y-94321786D01*
X141577864Y-94309939D01*
X141625316Y-94300500D01*
X143274684Y-94300500D01*
X143322136Y-94309939D01*
X143433063Y-94355886D01*
X143466503Y-94369737D01*
X143621153Y-94400499D01*
X143621156Y-94400500D01*
X143621158Y-94400500D01*
X143778844Y-94400500D01*
X143778845Y-94400499D01*
X143933497Y-94369737D01*
X144079179Y-94309394D01*
X144210289Y-94221789D01*
X144321789Y-94110289D01*
X144409394Y-93979179D01*
X144414643Y-93966508D01*
X144453184Y-93873459D01*
X144469737Y-93833497D01*
X144500500Y-93678842D01*
X144500500Y-93521158D01*
X144500500Y-93521155D01*
X144500499Y-93521153D01*
X144496333Y-93500208D01*
X144469737Y-93366503D01*
X144462856Y-93349890D01*
X144409397Y-93220827D01*
X144409390Y-93220814D01*
X144321789Y-93089711D01*
X144321786Y-93089707D01*
X144210292Y-92978213D01*
X144210288Y-92978210D01*
X144079185Y-92890609D01*
X144079172Y-92890602D01*
X143933501Y-92830264D01*
X143933489Y-92830261D01*
X143778845Y-92799500D01*
X143778842Y-92799500D01*
X143621158Y-92799500D01*
X143621155Y-92799500D01*
X143466510Y-92830261D01*
X143466498Y-92830264D01*
X143322136Y-92890061D01*
X143274684Y-92899500D01*
X141625316Y-92899500D01*
X141577864Y-92890061D01*
X141433501Y-92830264D01*
X141433489Y-92830261D01*
X141278845Y-92799500D01*
X141278842Y-92799500D01*
X141121158Y-92799500D01*
X141121155Y-92799500D01*
X140966510Y-92830261D01*
X140966498Y-92830264D01*
X140820827Y-92890602D01*
X140820816Y-92890608D01*
X140793390Y-92908934D01*
X140726712Y-92929811D01*
X140659332Y-92911326D01*
X140612643Y-92859346D01*
X140600500Y-92805831D01*
X140600500Y-91750708D01*
X140620185Y-91683669D01*
X140636819Y-91663027D01*
X141263027Y-91036819D01*
X141324350Y-91003334D01*
X141350708Y-91000500D01*
X149157650Y-91000500D01*
X149224689Y-91020185D01*
X149226541Y-91021398D01*
X149320821Y-91084394D01*
X149320823Y-91084395D01*
X149320827Y-91084397D01*
X149436837Y-91132449D01*
X149466503Y-91144737D01*
X149621153Y-91175499D01*
X149621156Y-91175500D01*
X149621158Y-91175500D01*
X149778844Y-91175500D01*
X149778845Y-91175499D01*
X149933497Y-91144737D01*
X150079179Y-91084394D01*
X150210289Y-90996789D01*
X150321789Y-90885289D01*
X150409394Y-90754179D01*
X150469737Y-90608497D01*
X150500500Y-90453842D01*
X150500500Y-90324837D01*
X150520185Y-90257798D01*
X150572989Y-90212043D01*
X150576986Y-90210302D01*
X150579179Y-90209394D01*
X150710289Y-90121789D01*
X150710292Y-90121786D01*
X150762819Y-90069260D01*
X150824142Y-90035775D01*
X150893834Y-90040759D01*
G37*
%TD.AperFunction*%
%TD*%
M02*
