%TF.GenerationSoftware,KiCad,Pcbnew,10.0.2*%
%TF.CreationDate,2026-05-09T23:15:25-04:00*%
%TF.ProjectId,smart-doorbell,736d6172-742d-4646-9f6f-7262656c6c2e,rev?*%
%TF.SameCoordinates,Original*%
%TF.FileFunction,Drillmap*%
%TF.FilePolarity,Positive*%
%FSLAX45Y45*%
G04 Gerber Fmt 4.5, Leading zero omitted, Abs format (unit mm)*
G04 Created by KiCad (PCBNEW 10.0.2) date 2026-05-09 23:15:25*
%MOMM*%
%LPD*%
G01*
G04 APERTURE LIST*
%ADD10C,0.050000*%
%ADD11C,0.200000*%
%ADD12C,0.100000*%
G04 APERTURE END LIST*
D10*
X11050000Y-5800000D02*
X11050000Y-13000000D01*
X11050000Y-5800000D02*
X11052055Y-5800410D01*
X11054108Y-5800817D01*
X11056156Y-5801222D01*
X11058202Y-5801624D01*
X11060244Y-5802023D01*
X11062283Y-5802420D01*
X11064318Y-5802814D01*
X11066350Y-5803205D01*
X11068378Y-5803593D01*
X11070404Y-5803979D01*
X11072425Y-5804362D01*
X11074444Y-5804743D01*
X11076459Y-5805121D01*
X11078471Y-5805496D01*
X11080479Y-5805868D01*
X11082484Y-5806238D01*
X11084486Y-5806605D01*
X11086485Y-5806970D01*
X11088480Y-5807332D01*
X11090472Y-5807691D01*
X11092460Y-5808048D01*
X11094445Y-5808402D01*
X11096427Y-5808753D01*
X11098406Y-5809102D01*
X11100381Y-5809448D01*
X11102353Y-5809792D01*
X11104322Y-5810133D01*
X11106287Y-5810471D01*
X11108249Y-5810807D01*
X11110208Y-5811140D01*
X11112164Y-5811471D01*
X11114116Y-5811799D01*
X11116065Y-5812124D01*
X11118011Y-5812447D01*
X11119953Y-5812767D01*
X11121893Y-5813085D01*
X11123829Y-5813400D01*
X11125762Y-5813713D01*
X11127691Y-5814023D01*
X11129618Y-5814331D01*
X11131541Y-5814636D01*
X11133461Y-5814938D01*
X11135378Y-5815238D01*
X11137291Y-5815535D01*
X11139201Y-5815830D01*
X11141109Y-5816123D01*
X11143012Y-5816413D01*
X11144913Y-5816700D01*
X11146811Y-5816985D01*
X11148705Y-5817267D01*
X11150596Y-5817547D01*
X11152484Y-5817824D01*
X11154369Y-5818099D01*
X11156251Y-5818372D01*
X11158129Y-5818642D01*
X11160005Y-5818909D01*
X11161876Y-5819174D01*
X11163746Y-5819437D01*
X11165611Y-5819697D01*
X11167474Y-5819954D01*
X11169334Y-5820209D01*
X11171190Y-5820462D01*
X11173043Y-5820712D01*
X11174894Y-5820960D01*
X11176741Y-5821206D01*
X11178585Y-5821449D01*
X11180425Y-5821689D01*
X11182263Y-5821927D01*
X11184098Y-5822163D01*
X11185929Y-5822396D01*
X11187758Y-5822627D01*
X11189583Y-5822855D01*
X11191405Y-5823081D01*
X11193225Y-5823305D01*
X11195041Y-5823526D01*
X11196854Y-5823745D01*
X11198663Y-5823962D01*
X11200471Y-5824176D01*
X11202274Y-5824388D01*
X11204075Y-5824597D01*
X11205873Y-5824804D01*
X11207668Y-5825009D01*
X11209459Y-5825211D01*
X11211248Y-5825411D01*
X11213033Y-5825608D01*
X11214816Y-5825804D01*
X11216595Y-5825997D01*
X11218372Y-5826187D01*
X11220145Y-5826375D01*
X11221916Y-5826561D01*
X11223683Y-5826745D01*
X11225448Y-5826926D01*
X11227209Y-5827105D01*
X11228968Y-5827282D01*
X11230723Y-5827456D01*
X11232475Y-5827628D01*
X11234225Y-5827797D01*
X11235971Y-5827965D01*
X11237715Y-5828130D01*
X11239455Y-5828293D01*
X11241193Y-5828453D01*
X11242928Y-5828612D01*
X11244659Y-5828767D01*
X11246388Y-5828921D01*
X11248114Y-5829073D01*
X11249837Y-5829222D01*
X11251556Y-5829369D01*
X11253273Y-5829513D01*
X11254987Y-5829656D01*
X11256699Y-5829796D01*
X11258406Y-5829934D01*
X11260112Y-5830069D01*
X11261814Y-5830203D01*
X11263514Y-5830334D01*
X11265210Y-5830463D01*
X11266904Y-5830590D01*
X11268594Y-5830714D01*
X11270282Y-5830836D01*
X11271967Y-5830956D01*
X11273649Y-5831074D01*
X11275328Y-5831190D01*
X11277005Y-5831303D01*
X11278678Y-5831415D01*
X11280348Y-5831524D01*
X11282016Y-5831631D01*
X11283681Y-5831735D01*
X11285343Y-5831838D01*
X11287002Y-5831938D01*
X11288658Y-5832036D01*
X11290311Y-5832132D01*
X11291962Y-5832226D01*
X11293610Y-5832318D01*
X11295254Y-5832407D01*
X11296897Y-5832494D01*
X11298536Y-5832580D01*
X11300172Y-5832663D01*
X11301806Y-5832743D01*
X11303437Y-5832822D01*
X11305064Y-5832899D01*
X11306690Y-5832973D01*
X11308312Y-5833046D01*
X11309932Y-5833116D01*
X11311548Y-5833184D01*
X11313163Y-5833250D01*
X11314774Y-5833314D01*
X11316382Y-5833375D01*
X11317988Y-5833435D01*
X11319591Y-5833493D01*
X11321191Y-5833548D01*
X11322788Y-5833601D01*
X11324383Y-5833653D01*
X11325975Y-5833702D01*
X11327564Y-5833749D01*
X11329150Y-5833794D01*
X11330734Y-5833837D01*
X11332315Y-5833878D01*
X11333893Y-5833916D01*
X11335468Y-5833953D01*
X11337041Y-5833988D01*
X11338611Y-5834020D01*
X11340178Y-5834051D01*
X11341743Y-5834079D01*
X11343304Y-5834106D01*
X11344864Y-5834130D01*
X11346420Y-5834153D01*
X11347974Y-5834173D01*
X11349525Y-5834191D01*
X11351073Y-5834207D01*
X11352619Y-5834222D01*
X11354162Y-5834234D01*
X11355702Y-5834244D01*
X11357240Y-5834252D01*
X11358775Y-5834258D01*
X11360307Y-5834262D01*
X11361837Y-5834264D01*
X11363364Y-5834265D01*
X11364888Y-5834263D01*
X11366410Y-5834259D01*
X11367929Y-5834253D01*
X11369445Y-5834245D01*
X11370959Y-5834235D01*
X11372470Y-5834223D01*
X11373978Y-5834210D01*
X11375484Y-5834194D01*
X11376988Y-5834176D01*
X11378488Y-5834156D01*
X11379986Y-5834135D01*
X11381482Y-5834111D01*
X11382975Y-5834085D01*
X11384465Y-5834058D01*
X11385952Y-5834028D01*
X11387438Y-5833997D01*
X11388920Y-5833964D01*
X11390400Y-5833928D01*
X11391877Y-5833891D01*
X11393352Y-5833852D01*
X11394824Y-5833811D01*
X11396294Y-5833768D01*
X11397760Y-5833723D01*
X11399225Y-5833676D01*
X11400687Y-5833627D01*
X11402146Y-5833576D01*
X11403603Y-5833523D01*
X11405057Y-5833469D01*
X11406509Y-5833412D01*
X11407958Y-5833354D01*
X11409405Y-5833294D01*
X11410849Y-5833231D01*
X11412290Y-5833167D01*
X11413730Y-5833101D01*
X11415166Y-5833034D01*
X11416600Y-5832964D01*
X11418032Y-5832892D01*
X11419461Y-5832819D01*
X11420887Y-5832743D01*
X11422311Y-5832666D01*
X11423733Y-5832587D01*
X11425152Y-5832506D01*
X11426568Y-5832423D01*
X11427983Y-5832339D01*
X11429394Y-5832252D01*
X11430803Y-5832164D01*
X11432210Y-5832074D01*
X11433614Y-5831981D01*
X11435016Y-5831888D01*
X11436415Y-5831792D01*
X11437812Y-5831694D01*
X11439206Y-5831595D01*
X11440598Y-5831494D01*
X11441988Y-5831390D01*
X11443375Y-5831286D01*
X11444759Y-5831179D01*
X11446142Y-5831070D01*
X11447521Y-5830960D01*
X11448899Y-5830848D01*
X11450274Y-5830734D01*
X11451646Y-5830618D01*
X11453016Y-5830500D01*
X11454384Y-5830381D01*
X11455749Y-5830260D01*
X11457112Y-5830137D01*
X11458473Y-5830012D01*
X11459831Y-5829886D01*
X11461186Y-5829757D01*
X11462540Y-5829627D01*
X11463891Y-5829495D01*
X11465239Y-5829362D01*
X11466585Y-5829226D01*
X11467929Y-5829089D01*
X11469271Y-5828950D01*
X11470610Y-5828809D01*
X11471946Y-5828667D01*
X11473281Y-5828522D01*
X11474613Y-5828376D01*
X11475942Y-5828229D01*
X11477270Y-5828079D01*
X11478595Y-5827928D01*
X11479917Y-5827775D01*
X11481238Y-5827620D01*
X11482556Y-5827464D01*
X11483871Y-5827305D01*
X11485185Y-5827145D01*
X11486496Y-5826984D01*
X11487805Y-5826820D01*
X11489111Y-5826655D01*
X11490415Y-5826488D01*
X11491717Y-5826320D01*
X11493016Y-5826149D01*
X11494314Y-5825977D01*
X11495609Y-5825803D01*
X11496901Y-5825628D01*
X11498192Y-5825451D01*
X11499480Y-5825272D01*
X11500765Y-5825091D01*
X11502049Y-5824909D01*
X11503330Y-5824725D01*
X11504609Y-5824539D01*
X11505886Y-5824352D01*
X11507160Y-5824163D01*
X11508433Y-5823972D01*
X11509703Y-5823780D01*
X11510970Y-5823586D01*
X11512236Y-5823390D01*
X11513499Y-5823193D01*
X11514760Y-5822993D01*
X11516019Y-5822793D01*
X11517275Y-5822590D01*
X11518530Y-5822386D01*
X11519782Y-5822180D01*
X11521032Y-5821973D01*
X11522279Y-5821764D01*
X11523525Y-5821553D01*
X11524768Y-5821340D01*
X11526009Y-5821126D01*
X11527248Y-5820911D01*
X11528485Y-5820693D01*
X11529719Y-5820474D01*
X11530952Y-5820254D01*
X11532182Y-5820031D01*
X11533410Y-5819807D01*
X11534635Y-5819582D01*
X11535859Y-5819355D01*
X11537080Y-5819126D01*
X11538300Y-5818895D01*
X11539517Y-5818663D01*
X11540732Y-5818429D01*
X11541944Y-5818194D01*
X11543155Y-5817957D01*
X11544363Y-5817719D01*
X11545570Y-5817478D01*
X11546774Y-5817237D01*
X11547976Y-5816993D01*
X11549176Y-5816748D01*
X11550374Y-5816502D01*
X11551569Y-5816253D01*
X11552763Y-5816003D01*
X11553954Y-5815752D01*
X11555143Y-5815499D01*
X11556331Y-5815244D01*
X11557516Y-5814988D01*
X11558699Y-5814730D01*
X11559879Y-5814471D01*
X11561058Y-5814210D01*
X11562235Y-5813948D01*
X11563409Y-5813683D01*
X11564582Y-5813418D01*
X11565752Y-5813150D01*
X11566921Y-5812882D01*
X11568087Y-5812611D01*
X11569251Y-5812339D01*
X11570413Y-5812066D01*
X11571573Y-5811790D01*
X11572731Y-5811514D01*
X11573887Y-5811235D01*
X11575041Y-5810956D01*
X11576193Y-5810674D01*
X11577342Y-5810391D01*
X11578490Y-5810107D01*
X11579636Y-5809821D01*
X11580779Y-5809533D01*
X11581921Y-5809244D01*
X11583060Y-5808953D01*
X11584198Y-5808661D01*
X11585333Y-5808367D01*
X11586467Y-5808072D01*
X11587598Y-5807775D01*
X11588728Y-5807477D01*
X11589855Y-5807177D01*
X11590980Y-5806875D01*
X11592104Y-5806572D01*
X11593225Y-5806268D01*
X11594345Y-5805962D01*
X11595462Y-5805654D01*
X11596577Y-5805345D01*
X11597691Y-5805034D01*
X11598802Y-5804722D01*
X11599912Y-5804409D01*
X11601019Y-5804093D01*
X11602124Y-5803777D01*
X11603228Y-5803459D01*
X11604329Y-5803139D01*
X11605429Y-5802818D01*
X11606527Y-5802495D01*
X11607622Y-5802171D01*
X11608716Y-5801845D01*
X11609808Y-5801518D01*
X11610897Y-5801189D01*
X11611985Y-5800858D01*
X11613071Y-5800527D01*
X11614155Y-5800193D01*
X11615237Y-5799859D01*
X11616317Y-5799522D01*
X11617395Y-5799185D01*
X11618472Y-5798845D01*
X11619546Y-5798505D01*
X11620618Y-5798163D01*
X11621689Y-5797819D01*
X11622757Y-5797474D01*
X11623824Y-5797127D01*
X11624889Y-5796779D01*
X11625951Y-5796429D01*
X11627012Y-5796078D01*
X11628071Y-5795726D01*
X11629128Y-5795371D01*
X11630184Y-5795016D01*
X11631237Y-5794659D01*
X11632288Y-5794300D01*
X11633338Y-5793941D01*
X11634386Y-5793579D01*
X11635431Y-5793216D01*
X11636475Y-5792852D01*
X11637517Y-5792486D01*
X11638558Y-5792119D01*
X11639596Y-5791750D01*
X11640633Y-5791380D01*
X11641667Y-5791008D01*
X11642700Y-5790635D01*
X11643731Y-5790261D01*
X11644760Y-5789885D01*
X11645787Y-5789507D01*
X11646812Y-5789128D01*
X11647836Y-5788748D01*
X11648858Y-5788366D01*
X11649877Y-5787983D01*
X11650896Y-5787598D01*
X11651912Y-5787212D01*
X11652926Y-5786824D01*
X11653939Y-5786435D01*
X11654949Y-5786045D01*
X11655958Y-5785653D01*
X11656965Y-5785259D01*
X11657971Y-5784865D01*
X11658974Y-5784468D01*
X11659976Y-5784071D01*
X11660976Y-5783671D01*
X11661974Y-5783271D01*
X11662970Y-5782869D01*
X11663965Y-5782466D01*
X11664957Y-5782061D01*
X11665948Y-5781654D01*
X11666937Y-5781247D01*
X11667925Y-5780838D01*
X11668910Y-5780427D01*
X11669894Y-5780015D01*
X11670876Y-5779602D01*
X11671856Y-5779187D01*
X11672835Y-5778770D01*
X11673812Y-5778353D01*
X11674787Y-5777934D01*
X11675760Y-5777513D01*
X11676731Y-5777091D01*
X11677701Y-5776668D01*
X11678669Y-5776243D01*
X11679635Y-5775817D01*
X11680600Y-5775389D01*
X11681563Y-5774960D01*
X11682524Y-5774530D01*
X11683483Y-5774098D01*
X11684440Y-5773665D01*
X11685396Y-5773230D01*
X11686350Y-5772794D01*
X11687303Y-5772356D01*
X11688253Y-5771917D01*
X11689202Y-5771477D01*
X11690149Y-5771035D01*
X11691095Y-5770592D01*
X11692039Y-5770148D01*
X11692981Y-5769702D01*
X11693921Y-5769254D01*
X11694860Y-5768806D01*
X11695797Y-5768355D01*
X11696732Y-5767904D01*
X11697666Y-5767451D01*
X11698598Y-5766997D01*
X11699528Y-5766541D01*
X11700456Y-5766084D01*
X11701383Y-5765625D01*
X11702308Y-5765165D01*
X11703232Y-5764704D01*
X11704154Y-5764241D01*
X11705074Y-5763777D01*
X11705992Y-5763311D01*
X11706909Y-5762844D01*
X11707824Y-5762376D01*
X11708738Y-5761906D01*
X11709649Y-5761435D01*
X11710560Y-5760963D01*
X11711468Y-5760489D01*
X11712375Y-5760013D01*
X11713280Y-5759537D01*
X11714184Y-5759059D01*
X11715086Y-5758579D01*
X11715986Y-5758098D01*
X11716885Y-5757616D01*
X11717782Y-5757132D01*
X11718677Y-5756647D01*
X11719571Y-5756161D01*
X11720463Y-5755673D01*
X11721354Y-5755184D01*
X11722242Y-5754693D01*
X11723130Y-5754201D01*
X11724015Y-5753708D01*
X11724899Y-5753213D01*
X11725782Y-5752717D01*
X11726662Y-5752219D01*
X11727542Y-5751720D01*
X11729295Y-5750718D01*
X11731042Y-5749711D01*
X11732783Y-5748698D01*
X11734517Y-5747679D01*
X11736245Y-5746655D01*
X11737967Y-5745625D01*
X11739683Y-5744590D01*
X11741392Y-5743549D01*
X11743094Y-5742503D01*
X11744791Y-5741451D01*
X11746481Y-5740394D01*
X11748166Y-5739331D01*
X11749843Y-5738262D01*
X11751515Y-5737188D01*
X11753181Y-5736109D01*
X11754840Y-5735024D01*
X11756493Y-5733933D01*
X11758141Y-5732837D01*
X11759782Y-5731735D01*
X11761417Y-5730628D01*
X11763046Y-5729515D01*
X11764668Y-5728397D01*
X11766285Y-5727273D01*
X11767896Y-5726144D01*
X11769501Y-5725009D01*
X11771100Y-5723868D01*
X11772693Y-5722722D01*
X11774279Y-5721571D01*
X11775860Y-5720413D01*
X11777435Y-5719251D01*
X11779005Y-5718082D01*
X11780568Y-5716909D01*
X11782125Y-5715729D01*
X11783677Y-5714544D01*
X11785222Y-5713353D01*
X11786762Y-5712157D01*
X11788296Y-5710955D01*
X11789824Y-5709748D01*
X11791347Y-5708535D01*
X11792863Y-5707316D01*
X11794374Y-5706092D01*
X11795879Y-5704862D01*
X11797378Y-5703627D01*
X11798872Y-5702385D01*
X11800360Y-5701139D01*
X11801842Y-5699886D01*
X11803318Y-5698628D01*
X11804789Y-5697364D01*
X11806254Y-5696095D01*
X11807714Y-5694820D01*
X11809168Y-5693539D01*
X11810616Y-5692253D01*
X11812058Y-5690961D01*
X11813495Y-5689663D01*
X11814927Y-5688359D01*
X11816352Y-5687050D01*
X11817772Y-5685735D01*
X11819187Y-5684415D01*
X11820596Y-5683088D01*
X11822000Y-5681756D01*
X11823397Y-5680418D01*
X11824790Y-5679074D01*
X11826177Y-5677725D01*
X11827558Y-5676369D01*
X11828934Y-5675008D01*
X11830304Y-5673641D01*
X11831669Y-5672269D01*
X11833029Y-5670890D01*
X11834383Y-5669506D01*
X11835731Y-5668116D01*
X11837074Y-5666720D01*
X11838412Y-5665318D01*
X11839744Y-5663910D01*
X11841071Y-5662496D01*
X11842392Y-5661077D01*
X11843708Y-5659651D01*
X11845018Y-5658220D01*
X11846323Y-5656782D01*
X11847623Y-5655339D01*
X11848917Y-5653890D01*
X11850206Y-5652435D01*
X11851490Y-5650973D01*
X11852768Y-5649506D01*
X11854040Y-5648033D01*
X11855308Y-5646554D01*
X11856570Y-5645068D01*
X11857827Y-5643577D01*
X11859078Y-5642080D01*
X11860324Y-5640576D01*
X11861565Y-5639067D01*
X11862800Y-5637551D01*
X11864030Y-5636030D01*
X11865255Y-5634502D01*
X11866474Y-5632968D01*
X11867688Y-5631428D01*
X11868897Y-5629881D01*
X11870100Y-5628329D01*
X11871298Y-5626770D01*
X11872491Y-5625205D01*
X11873679Y-5623634D01*
X11874861Y-5622057D01*
X11876038Y-5620473D01*
X11877209Y-5618884D01*
X11878375Y-5617288D01*
X11879536Y-5615685D01*
X11880692Y-5614076D01*
X11881842Y-5612461D01*
X11882988Y-5610840D01*
X11884127Y-5609212D01*
X11885262Y-5607578D01*
X11886391Y-5605938D01*
X11887515Y-5604291D01*
X11888634Y-5602637D01*
X11889747Y-5600978D01*
X11890855Y-5599311D01*
X11891958Y-5597639D01*
X11893055Y-5595960D01*
X11894147Y-5594274D01*
X11895234Y-5592582D01*
X11896316Y-5590883D01*
X11897392Y-5589178D01*
X11898463Y-5587466D01*
X11899528Y-5585748D01*
X11900589Y-5584023D01*
X11901644Y-5582291D01*
X11902693Y-5580553D01*
X11903738Y-5578808D01*
X11904777Y-5577056D01*
X11905811Y-5575298D01*
X11906839Y-5573533D01*
X11907862Y-5571761D01*
X11908880Y-5569983D01*
X11909892Y-5568198D01*
X11910899Y-5566406D01*
X11911901Y-5564607D01*
X11912897Y-5562801D01*
X11913888Y-5560989D01*
X11914874Y-5559170D01*
X11915854Y-5557343D01*
X11916829Y-5555510D01*
X11917798Y-5553671D01*
X11918762Y-5551824D01*
X11919721Y-5549970D01*
X11920674Y-5548109D01*
X11921622Y-5546242D01*
X11922565Y-5544367D01*
X11923502Y-5542485D01*
X11924433Y-5540597D01*
X11925360Y-5538701D01*
X11926280Y-5536798D01*
X11927196Y-5534888D01*
X11928106Y-5532971D01*
X11929010Y-5531047D01*
X11929909Y-5529116D01*
X11930802Y-5527177D01*
X11931690Y-5525232D01*
X11932573Y-5523279D01*
X11933450Y-5521319D01*
X11934321Y-5519352D01*
X11935187Y-5517377D01*
X11936047Y-5515395D01*
X11936902Y-5513406D01*
X11937751Y-5511410D01*
X11938595Y-5509406D01*
X11939433Y-5507395D01*
X11940266Y-5505377D01*
X11941093Y-5503351D01*
X11941914Y-5501318D01*
X11942730Y-5499277D01*
X11943540Y-5497229D01*
X11944344Y-5495174D01*
X11945143Y-5493111D01*
X11945936Y-5491040D01*
X11946723Y-5488962D01*
X11947505Y-5486877D01*
X11948281Y-5484784D01*
X11949051Y-5482683D01*
X11949816Y-5480575D01*
X11950575Y-5478459D01*
X11951328Y-5476336D01*
X11952075Y-5474205D01*
X11952817Y-5472066D01*
X11953552Y-5469919D01*
X11954282Y-5467765D01*
X11955006Y-5465603D01*
X11955725Y-5463434D01*
X11956437Y-5461257D01*
X11957144Y-5459071D01*
X11957844Y-5456879D01*
X11958539Y-5454678D01*
X11959228Y-5452469D01*
X11959911Y-5450253D01*
X11960588Y-5448029D01*
X11961259Y-5445797D01*
X11961924Y-5443557D01*
X11962583Y-5441309D01*
X11963236Y-5439053D01*
X11963883Y-5436790D01*
X11964524Y-5434518D01*
X11965159Y-5432238D01*
X11965788Y-5429951D01*
X11966411Y-5427655D01*
X11967028Y-5425352D01*
X11967639Y-5423040D01*
X11968243Y-5420720D01*
X11968841Y-5418392D01*
X11969434Y-5416056D01*
X11970019Y-5413713D01*
X11970599Y-5411360D01*
X11971173Y-5409000D01*
X11971740Y-5406632D01*
X11972301Y-5404255D01*
X11972856Y-5401871D01*
X11973404Y-5399478D01*
X11973947Y-5397077D01*
X11974482Y-5394667D01*
X11975012Y-5392250D01*
X11975535Y-5389824D01*
X11976052Y-5387390D01*
X11976562Y-5384947D01*
X11977066Y-5382497D01*
X11977563Y-5380038D01*
X11978054Y-5377571D01*
X11978539Y-5375095D01*
X11979017Y-5372611D01*
X11979488Y-5370119D01*
X11979953Y-5367619D01*
X11980411Y-5365110D01*
X11980863Y-5362592D01*
X11981308Y-5360067D01*
X11981747Y-5357533D01*
X11982179Y-5354990D01*
X11982604Y-5352439D01*
X11983022Y-5349880D01*
X11983434Y-5347312D01*
X11983839Y-5344736D01*
X11984237Y-5342151D01*
X11984629Y-5339558D01*
X11985014Y-5336957D01*
X11985392Y-5334347D01*
X11985763Y-5331728D01*
X11986127Y-5329101D01*
X11986484Y-5326466D01*
X11986835Y-5323822D01*
X11987178Y-5321169D01*
X11987515Y-5318508D01*
X11987844Y-5315839D01*
X11988167Y-5313161D01*
X11988482Y-5310474D01*
X11988791Y-5307779D01*
X11989092Y-5305076D01*
X11989386Y-5302363D01*
X11989674Y-5299643D01*
X11989954Y-5296914D01*
X11990227Y-5294176D01*
X11990493Y-5291430D01*
X11990751Y-5288675D01*
X11991003Y-5285912D01*
X11991247Y-5283140D01*
X11991484Y-5280360D01*
X11991713Y-5277572D01*
X11991936Y-5274774D01*
X11992151Y-5271969D01*
X11992358Y-5269155D01*
X11992558Y-5266332D01*
X11992751Y-5263501D01*
X11992937Y-5260661D01*
X11993115Y-5257813D01*
X11993285Y-5254957D01*
X11993448Y-5252092D01*
X11993604Y-5249218D01*
X11993752Y-5246337D01*
X11993892Y-5243447D01*
X11994025Y-5240548D01*
X11994150Y-5237641D01*
X11994268Y-5234726D01*
X11994377Y-5231802D01*
X11994480Y-5228871D01*
X11994574Y-5225930D01*
X11994661Y-5222982D01*
X11994740Y-5220025D01*
X11994812Y-5217060D01*
X11994875Y-5214087D01*
X11994931Y-5211106D01*
X11994979Y-5208116D01*
X11995019Y-5205119D01*
X11995051Y-5202113D01*
X11995076Y-5199099D01*
X11995092Y-5196078D01*
X11995101Y-5193048D01*
X11995101Y-5190010D01*
X11995094Y-5186964D01*
X11995078Y-5183911D01*
X11995055Y-5180850D01*
X11995023Y-5177780D01*
X11994984Y-5174703D01*
X11994936Y-5171619D01*
X11994881Y-5168526D01*
X11994817Y-5165426D01*
X11994745Y-5162319D01*
X11994665Y-5159203D01*
X11994577Y-5156081D01*
X11994480Y-5152951D01*
X11994376Y-5149813D01*
X11994263Y-5146669D01*
X11994142Y-5143517D01*
X11994012Y-5140358D01*
X11993875Y-5137192D01*
X11993729Y-5134018D01*
X11993575Y-5130838D01*
X11993412Y-5127651D01*
X11993241Y-5124457D01*
X11993062Y-5121257D01*
X11992875Y-5118049D01*
X11992679Y-5114836D01*
X11992475Y-5111615D01*
X11992262Y-5108389D01*
X11992041Y-5105156D01*
X11991812Y-5101917D01*
X11991574Y-5098672D01*
X11991328Y-5095421D01*
X11991073Y-5092164D01*
X11990810Y-5088901D01*
X11990538Y-5085633D01*
X11990258Y-5082359D01*
X11989970Y-5079080D01*
X11989673Y-5075796D01*
X11989368Y-5072506D01*
X11989054Y-5069212D01*
X11988732Y-5065913D01*
X11988401Y-5062609D01*
X11988062Y-5059301D01*
X11987714Y-5055988D01*
X11987358Y-5052671D01*
X11986994Y-5049351D01*
X11986621Y-5046026D01*
X11986240Y-5042698D01*
X11985850Y-5039367D01*
X11985452Y-5036033D01*
X11985046Y-5032695D01*
X11984631Y-5029355D01*
X11984208Y-5026012D01*
X11983777Y-5022667D01*
X11983338Y-5019321D01*
X11982890Y-5015972D01*
X11982434Y-5012622D01*
X11981970Y-5009271D01*
X11981497Y-5005919D01*
X11981017Y-5002566D01*
X11980529Y-4999213D01*
X11980032Y-4995861D01*
X11979528Y-4992508D01*
X11979016Y-4989157D01*
X11978495Y-4985807D01*
X11977968Y-4982458D01*
X11977432Y-4979112D01*
X11976889Y-4975768D01*
X11976338Y-4972427D01*
X11975780Y-4969090D01*
X11975214Y-4965756D01*
X11974642Y-4962427D01*
X11974062Y-4959103D01*
X11973475Y-4955785D01*
X11972881Y-4952473D01*
X11972280Y-4949168D01*
X11971673Y-4945870D01*
X11971059Y-4942581D01*
X11970439Y-4939302D01*
X11969812Y-4936032D01*
X11969180Y-4932773D01*
X11968542Y-4929526D01*
X11967899Y-4926292D01*
X11967250Y-4923071D01*
X11966596Y-4919866D01*
X11965938Y-4916676D01*
X11965275Y-4913505D01*
X11964608Y-4910352D01*
X11963937Y-4907220D01*
X11963263Y-4904109D01*
X11962586Y-4901023D01*
X11961907Y-4897962D01*
X11961226Y-4894930D01*
X11960544Y-4891927D01*
X11959861Y-4888958D01*
X11959179Y-4886023D01*
X11958497Y-4883128D01*
X11957818Y-4880275D01*
X11957142Y-4877468D01*
X11956470Y-4874713D01*
X11955803Y-4872013D01*
X11955145Y-4869375D01*
X11954496Y-4866807D01*
X11953858Y-4864318D01*
X11953236Y-4861917D01*
X11952633Y-4859618D01*
X11952053Y-4857439D01*
X11951504Y-4855403D01*
X11950996Y-4853546D01*
X11950546Y-4851922D01*
X11950184Y-4850639D01*
X11950000Y-4850000D01*
X11850000Y-4750000D02*
X11850000Y-4750000D01*
X11950000Y-4850000D02*
X16050000Y-4850000D01*
X11950000Y-13950000D02*
X11950496Y-13947845D01*
X11950990Y-13945694D01*
X11951480Y-13943546D01*
X11951968Y-13941402D01*
X11952452Y-13939261D01*
X11952935Y-13937124D01*
X11953414Y-13934991D01*
X11953890Y-13932860D01*
X11954363Y-13930734D01*
X11954834Y-13928611D01*
X11955302Y-13926492D01*
X11955766Y-13924376D01*
X11956229Y-13922264D01*
X11956688Y-13920154D01*
X11957144Y-13918049D01*
X11957598Y-13915947D01*
X11958049Y-13913849D01*
X11958497Y-13911754D01*
X11958942Y-13909663D01*
X11959385Y-13907575D01*
X11959824Y-13905491D01*
X11960261Y-13903409D01*
X11960695Y-13901332D01*
X11961127Y-13899258D01*
X11961556Y-13897188D01*
X11961981Y-13895121D01*
X11962405Y-13893057D01*
X11962825Y-13890997D01*
X11963243Y-13888940D01*
X11963657Y-13886887D01*
X11964070Y-13884837D01*
X11964479Y-13882791D01*
X11964886Y-13880748D01*
X11965290Y-13878708D01*
X11965691Y-13876672D01*
X11966090Y-13874639D01*
X11966485Y-13872610D01*
X11966879Y-13870584D01*
X11967269Y-13868562D01*
X11967657Y-13866542D01*
X11968042Y-13864527D01*
X11968424Y-13862514D01*
X11968804Y-13860506D01*
X11969181Y-13858500D01*
X11969555Y-13856498D01*
X11969927Y-13854499D01*
X11970296Y-13852504D01*
X11970663Y-13850511D01*
X11971026Y-13848523D01*
X11971387Y-13846537D01*
X11971746Y-13844555D01*
X11972102Y-13842577D01*
X11972455Y-13840601D01*
X11972806Y-13838629D01*
X11973153Y-13836661D01*
X11973499Y-13834695D01*
X11973842Y-13832733D01*
X11974182Y-13830774D01*
X11974519Y-13828819D01*
X11974854Y-13826867D01*
X11975186Y-13824918D01*
X11975516Y-13822972D01*
X11975843Y-13821030D01*
X11976168Y-13819091D01*
X11976490Y-13817156D01*
X11976809Y-13815223D01*
X11977126Y-13813294D01*
X11977440Y-13811368D01*
X11977752Y-13809446D01*
X11978061Y-13807526D01*
X11978368Y-13805610D01*
X11978672Y-13803697D01*
X11978973Y-13801788D01*
X11979272Y-13799881D01*
X11979569Y-13797979D01*
X11979863Y-13796078D01*
X11980154Y-13794182D01*
X11980443Y-13792288D01*
X11980729Y-13790399D01*
X11981013Y-13788511D01*
X11981295Y-13786628D01*
X11981574Y-13784747D01*
X11981850Y-13782870D01*
X11982124Y-13780996D01*
X11982395Y-13779125D01*
X11982664Y-13777257D01*
X11982931Y-13775393D01*
X11983195Y-13773531D01*
X11983456Y-13771673D01*
X11983715Y-13769818D01*
X11983972Y-13767966D01*
X11984226Y-13766117D01*
X11984477Y-13764272D01*
X11984727Y-13762429D01*
X11984973Y-13760590D01*
X11985218Y-13758754D01*
X11985460Y-13756921D01*
X11985699Y-13755091D01*
X11985936Y-13753265D01*
X11986171Y-13751441D01*
X11986403Y-13749621D01*
X11986633Y-13747803D01*
X11986860Y-13745989D01*
X11987085Y-13744178D01*
X11987307Y-13742370D01*
X11987528Y-13740565D01*
X11987745Y-13738763D01*
X11987961Y-13736965D01*
X11988174Y-13735169D01*
X11988384Y-13733376D01*
X11988593Y-13731587D01*
X11988799Y-13729801D01*
X11989002Y-13728018D01*
X11989203Y-13726237D01*
X11989402Y-13724460D01*
X11989599Y-13722686D01*
X11989793Y-13720915D01*
X11989984Y-13719147D01*
X11990174Y-13717382D01*
X11990361Y-13715620D01*
X11990546Y-13713861D01*
X11990728Y-13712105D01*
X11990908Y-13710353D01*
X11991086Y-13708603D01*
X11991261Y-13706856D01*
X11991434Y-13705112D01*
X11991605Y-13703372D01*
X11991774Y-13701634D01*
X11991940Y-13699899D01*
X11992104Y-13698167D01*
X11992266Y-13696439D01*
X11992425Y-13694713D01*
X11992582Y-13692990D01*
X11992737Y-13691270D01*
X11992889Y-13689554D01*
X11993040Y-13687840D01*
X11993187Y-13686129D01*
X11993333Y-13684421D01*
X11993477Y-13682716D01*
X11993618Y-13681014D01*
X11993757Y-13679315D01*
X11993894Y-13677619D01*
X11994028Y-13675926D01*
X11994160Y-13674235D01*
X11994290Y-13672548D01*
X11994418Y-13670864D01*
X11994543Y-13669183D01*
X11994667Y-13667504D01*
X11994788Y-13665828D01*
X11994907Y-13664156D01*
X11995023Y-13662486D01*
X11995138Y-13660819D01*
X11995250Y-13659155D01*
X11995360Y-13657494D01*
X11995468Y-13655836D01*
X11995574Y-13654180D01*
X11995677Y-13652528D01*
X11995778Y-13650878D01*
X11995878Y-13649232D01*
X11995975Y-13647588D01*
X11996069Y-13645947D01*
X11996162Y-13644309D01*
X11996252Y-13642674D01*
X11996341Y-13641041D01*
X11996427Y-13639412D01*
X11996511Y-13637785D01*
X11996593Y-13636162D01*
X11996672Y-13634540D01*
X11996750Y-13632922D01*
X11996825Y-13631307D01*
X11996898Y-13629695D01*
X11996970Y-13628085D01*
X11997039Y-13626478D01*
X11997105Y-13624874D01*
X11997170Y-13623273D01*
X11997233Y-13621674D01*
X11997293Y-13620078D01*
X11997352Y-13618485D01*
X11997408Y-13616896D01*
X11997462Y-13615308D01*
X11997515Y-13613724D01*
X11997565Y-13612142D01*
X11997613Y-13610563D01*
X11997659Y-13608987D01*
X11997702Y-13607413D01*
X11997744Y-13605843D01*
X11997784Y-13604275D01*
X11997821Y-13602709D01*
X11997857Y-13601147D01*
X11997890Y-13599587D01*
X11997922Y-13598031D01*
X11997951Y-13596476D01*
X11997978Y-13594925D01*
X11998004Y-13593376D01*
X11998027Y-13591830D01*
X11998048Y-13590287D01*
X11998067Y-13588746D01*
X11998084Y-13587208D01*
X11998099Y-13585673D01*
X11998112Y-13584141D01*
X11998123Y-13582611D01*
X11998132Y-13581084D01*
X11998139Y-13579560D01*
X11998144Y-13578038D01*
X11998147Y-13576519D01*
X11998148Y-13575002D01*
X11998147Y-13573489D01*
X11998144Y-13571978D01*
X11998139Y-13570469D01*
X11998132Y-13568964D01*
X11998123Y-13567461D01*
X11998112Y-13565960D01*
X11998099Y-13564463D01*
X11998084Y-13562967D01*
X11998067Y-13561475D01*
X11998048Y-13559985D01*
X11998027Y-13558498D01*
X11998005Y-13557014D01*
X11997980Y-13555532D01*
X11997953Y-13554052D01*
X11997924Y-13552576D01*
X11997894Y-13551102D01*
X11997861Y-13549630D01*
X11997827Y-13548161D01*
X11997790Y-13546695D01*
X11997752Y-13545231D01*
X11997711Y-13543770D01*
X11997669Y-13542312D01*
X11997625Y-13540856D01*
X11997579Y-13539403D01*
X11997531Y-13537952D01*
X11997481Y-13536504D01*
X11997429Y-13535058D01*
X11997375Y-13533615D01*
X11997320Y-13532175D01*
X11997262Y-13530737D01*
X11997203Y-13529301D01*
X11997141Y-13527868D01*
X11997078Y-13526438D01*
X11997013Y-13525010D01*
X11996946Y-13523585D01*
X11996877Y-13522163D01*
X11996806Y-13520743D01*
X11996734Y-13519325D01*
X11996659Y-13517910D01*
X11996583Y-13516497D01*
X11996504Y-13515087D01*
X11996424Y-13513679D01*
X11996342Y-13512275D01*
X11996258Y-13510872D01*
X11996173Y-13509472D01*
X11996085Y-13508074D01*
X11995996Y-13506679D01*
X11995905Y-13505286D01*
X11995811Y-13503896D01*
X11995717Y-13502509D01*
X11995620Y-13501124D01*
X11995521Y-13499741D01*
X11995421Y-13498361D01*
X11995319Y-13496983D01*
X11995215Y-13495608D01*
X11995109Y-13494235D01*
X11995001Y-13492864D01*
X11994891Y-13491496D01*
X11994780Y-13490131D01*
X11994667Y-13488767D01*
X11994552Y-13487407D01*
X11994435Y-13486049D01*
X11994317Y-13484693D01*
X11994196Y-13483339D01*
X11994074Y-13481988D01*
X11993950Y-13480640D01*
X11993825Y-13479294D01*
X11993697Y-13477950D01*
X11993568Y-13476609D01*
X11993437Y-13475269D01*
X11993304Y-13473933D01*
X11993170Y-13472599D01*
X11993033Y-13471267D01*
X11992895Y-13469938D01*
X11992755Y-13468611D01*
X11992614Y-13467286D01*
X11992470Y-13465964D01*
X11992325Y-13464644D01*
X11992178Y-13463326D01*
X11992030Y-13462011D01*
X11991879Y-13460698D01*
X11991727Y-13459387D01*
X11991573Y-13458079D01*
X11991418Y-13456774D01*
X11991260Y-13455470D01*
X11991101Y-13454169D01*
X11990940Y-13452870D01*
X11990778Y-13451574D01*
X11990614Y-13450280D01*
X11990448Y-13448988D01*
X11990280Y-13447698D01*
X11990111Y-13446411D01*
X11989940Y-13445126D01*
X11989767Y-13443844D01*
X11989592Y-13442563D01*
X11989416Y-13441285D01*
X11989238Y-13440010D01*
X11989058Y-13438736D01*
X11988877Y-13437465D01*
X11988694Y-13436196D01*
X11988509Y-13434930D01*
X11988323Y-13433665D01*
X11988135Y-13432404D01*
X11987945Y-13431144D01*
X11987754Y-13429886D01*
X11987560Y-13428631D01*
X11987366Y-13427378D01*
X11987169Y-13426127D01*
X11986971Y-13424879D01*
X11986771Y-13423633D01*
X11986570Y-13422389D01*
X11986367Y-13421147D01*
X11986162Y-13419908D01*
X11985955Y-13418670D01*
X11985747Y-13417435D01*
X11985537Y-13416202D01*
X11985326Y-13414972D01*
X11985113Y-13413743D01*
X11984898Y-13412517D01*
X11984682Y-13411293D01*
X11984464Y-13410072D01*
X11984244Y-13408852D01*
X11984023Y-13407635D01*
X11983800Y-13406420D01*
X11983576Y-13405207D01*
X11983349Y-13403996D01*
X11983122Y-13402787D01*
X11982892Y-13401581D01*
X11982661Y-13400377D01*
X11982429Y-13399174D01*
X11982194Y-13397975D01*
X11981958Y-13396777D01*
X11981721Y-13395581D01*
X11981482Y-13394388D01*
X11981241Y-13393197D01*
X11980999Y-13392007D01*
X11980755Y-13390821D01*
X11980509Y-13389636D01*
X11980262Y-13388453D01*
X11980014Y-13387272D01*
X11979763Y-13386094D01*
X11979511Y-13384918D01*
X11979258Y-13383744D01*
X11979003Y-13382572D01*
X11978746Y-13381402D01*
X11978488Y-13380234D01*
X11978228Y-13379068D01*
X11977967Y-13377905D01*
X11977704Y-13376743D01*
X11977439Y-13375584D01*
X11977173Y-13374426D01*
X11976905Y-13373271D01*
X11976636Y-13372118D01*
X11976365Y-13370967D01*
X11976093Y-13369818D01*
X11975819Y-13368671D01*
X11975544Y-13367526D01*
X11975267Y-13366384D01*
X11974988Y-13365243D01*
X11974708Y-13364105D01*
X11974426Y-13362968D01*
X11974143Y-13361834D01*
X11973858Y-13360701D01*
X11973572Y-13359571D01*
X11973284Y-13358442D01*
X11972994Y-13357316D01*
X11972703Y-13356192D01*
X11972411Y-13355070D01*
X11972117Y-13353950D01*
X11971821Y-13352832D01*
X11971524Y-13351715D01*
X11971225Y-13350601D01*
X11970925Y-13349489D01*
X11970624Y-13348379D01*
X11970320Y-13347271D01*
X11970016Y-13346165D01*
X11969709Y-13345061D01*
X11969401Y-13343959D01*
X11969092Y-13342859D01*
X11968781Y-13341761D01*
X11968469Y-13340665D01*
X11968155Y-13339571D01*
X11967840Y-13338479D01*
X11967523Y-13337389D01*
X11967205Y-13336301D01*
X11966885Y-13335215D01*
X11966563Y-13334131D01*
X11966241Y-13333049D01*
X11965916Y-13331969D01*
X11965590Y-13330890D01*
X11965263Y-13329814D01*
X11964934Y-13328740D01*
X11964604Y-13327668D01*
X11964272Y-13326597D01*
X11963939Y-13325529D01*
X11963604Y-13324462D01*
X11963267Y-13323398D01*
X11962930Y-13322335D01*
X11962590Y-13321274D01*
X11962250Y-13320216D01*
X11961907Y-13319159D01*
X11961564Y-13318104D01*
X11961219Y-13317051D01*
X11960872Y-13316000D01*
X11960524Y-13314951D01*
X11960174Y-13313903D01*
X11959823Y-13312858D01*
X11959471Y-13311815D01*
X11959116Y-13310773D01*
X11958761Y-13309733D01*
X11958404Y-13308696D01*
X11958046Y-13307660D01*
X11957686Y-13306626D01*
X11957324Y-13305594D01*
X11956962Y-13304563D01*
X11956597Y-13303535D01*
X11956232Y-13302509D01*
X11955865Y-13301484D01*
X11955496Y-13300461D01*
X11955126Y-13299441D01*
X11954754Y-13298422D01*
X11954382Y-13297405D01*
X11954007Y-13296389D01*
X11953631Y-13295376D01*
X11953254Y-13294364D01*
X11952875Y-13293355D01*
X11952495Y-13292347D01*
X11952113Y-13291341D01*
X11951730Y-13290337D01*
X11951346Y-13289334D01*
X11950960Y-13288334D01*
X11950573Y-13287335D01*
X11950184Y-13286338D01*
X11949793Y-13285343D01*
X11949402Y-13284350D01*
X11949009Y-13283359D01*
X11948614Y-13282369D01*
X11948218Y-13281381D01*
X11947821Y-13280395D01*
X11947422Y-13279411D01*
X11947022Y-13278429D01*
X11946620Y-13277448D01*
X11946217Y-13276469D01*
X11945812Y-13275492D01*
X11945406Y-13274517D01*
X11944999Y-13273544D01*
X11944590Y-13272572D01*
X11944180Y-13271602D01*
X11943768Y-13270634D01*
X11943355Y-13269668D01*
X11942941Y-13268704D01*
X11942525Y-13267741D01*
X11942108Y-13266780D01*
X11941689Y-13265821D01*
X11941269Y-13264863D01*
X11940847Y-13263908D01*
X11940425Y-13262954D01*
X11940000Y-13262001D01*
X11939574Y-13261051D01*
X11939147Y-13260102D01*
X11938719Y-13259155D01*
X11938289Y-13258210D01*
X11937857Y-13257267D01*
X11937425Y-13256325D01*
X11936990Y-13255385D01*
X11936555Y-13254447D01*
X11936118Y-13253510D01*
X11935679Y-13252575D01*
X11935240Y-13251642D01*
X11934798Y-13250711D01*
X11934356Y-13249781D01*
X11933912Y-13248853D01*
X11933467Y-13247927D01*
X11933020Y-13247003D01*
X11932572Y-13246080D01*
X11932122Y-13245159D01*
X11931671Y-13244239D01*
X11931219Y-13243321D01*
X11930765Y-13242405D01*
X11930310Y-13241491D01*
X11929853Y-13240578D01*
X11929395Y-13239667D01*
X11928936Y-13238758D01*
X11928475Y-13237851D01*
X11928013Y-13236945D01*
X11927550Y-13236040D01*
X11927085Y-13235138D01*
X11926619Y-13234237D01*
X11926151Y-13233338D01*
X11925682Y-13232440D01*
X11925211Y-13231544D01*
X11924740Y-13230650D01*
X11924266Y-13229757D01*
X11923792Y-13228866D01*
X11923316Y-13227977D01*
X11922839Y-13227089D01*
X11922360Y-13226203D01*
X11921880Y-13225319D01*
X11921398Y-13224436D01*
X11920915Y-13223555D01*
X11920431Y-13222676D01*
X11919945Y-13221798D01*
X11919458Y-13220922D01*
X11918970Y-13220047D01*
X11918480Y-13219174D01*
X11917989Y-13218303D01*
X11917496Y-13217433D01*
X11917002Y-13216565D01*
X11916010Y-13214834D01*
X11915013Y-13213109D01*
X11914010Y-13211391D01*
X11913001Y-13209679D01*
X11911987Y-13207973D01*
X11910968Y-13206274D01*
X11909943Y-13204581D01*
X11908912Y-13202894D01*
X11907876Y-13201214D01*
X11906834Y-13199540D01*
X11905787Y-13197872D01*
X11904735Y-13196211D01*
X11903676Y-13194555D01*
X11902613Y-13192906D01*
X11901544Y-13191264D01*
X11900469Y-13189627D01*
X11899389Y-13187997D01*
X11898303Y-13186372D01*
X11897212Y-13184754D01*
X11896115Y-13183142D01*
X11895013Y-13181536D01*
X11893905Y-13179936D01*
X11892792Y-13178343D01*
X11891673Y-13176755D01*
X11890549Y-13175173D01*
X11889419Y-13173597D01*
X11888284Y-13172028D01*
X11887143Y-13170464D01*
X11885997Y-13168906D01*
X11884845Y-13167354D01*
X11883687Y-13165809D01*
X11882524Y-13164269D01*
X11881356Y-13162735D01*
X11880181Y-13161207D01*
X11879002Y-13159684D01*
X11877816Y-13158168D01*
X11876626Y-13156658D01*
X11875429Y-13155153D01*
X11874227Y-13153654D01*
X11873020Y-13152161D01*
X11871806Y-13150674D01*
X11870588Y-13149192D01*
X11869363Y-13147717D01*
X11868133Y-13146247D01*
X11866898Y-13144783D01*
X11865657Y-13143324D01*
X11864410Y-13141872D01*
X11863158Y-13140425D01*
X11861899Y-13138983D01*
X11860636Y-13137548D01*
X11859366Y-13136118D01*
X11858091Y-13134693D01*
X11856811Y-13133275D01*
X11855524Y-13131862D01*
X11854232Y-13130455D01*
X11852935Y-13129053D01*
X11851631Y-13127657D01*
X11850322Y-13126266D01*
X11849007Y-13124881D01*
X11847687Y-13123502D01*
X11846360Y-13122128D01*
X11845028Y-13120760D01*
X11843690Y-13119397D01*
X11842347Y-13118040D01*
X11840998Y-13116688D01*
X11839642Y-13115342D01*
X11838282Y-13114002D01*
X11836915Y-13112667D01*
X11835542Y-13111337D01*
X11834164Y-13110013D01*
X11832780Y-13108694D01*
X11831390Y-13107381D01*
X11829994Y-13106074D01*
X11828592Y-13104771D01*
X11827185Y-13103475D01*
X11825771Y-13102183D01*
X11824352Y-13100897D01*
X11822927Y-13099617D01*
X11821495Y-13098342D01*
X11820058Y-13097072D01*
X11818615Y-13095808D01*
X11817166Y-13094549D01*
X11815711Y-13093296D01*
X11814250Y-13092048D01*
X11812783Y-13090805D01*
X11811310Y-13089568D01*
X11809831Y-13088336D01*
X11808346Y-13087110D01*
X11806855Y-13085889D01*
X11805358Y-13084673D01*
X11803855Y-13083463D01*
X11802346Y-13082258D01*
X11800830Y-13081058D01*
X11799309Y-13079864D01*
X11797781Y-13078675D01*
X11796247Y-13077491D01*
X11794707Y-13076313D01*
X11793161Y-13075140D01*
X11791609Y-13073972D01*
X11790050Y-13072810D01*
X11788486Y-13071653D01*
X11786915Y-13070502D01*
X11785338Y-13069355D01*
X11783754Y-13068214D01*
X11782164Y-13067079D01*
X11780568Y-13065949D01*
X11778966Y-13064824D01*
X11777357Y-13063704D01*
X11775742Y-13062590D01*
X11774121Y-13061481D01*
X11772493Y-13060377D01*
X11770859Y-13059279D01*
X11769219Y-13058186D01*
X11767572Y-13057098D01*
X11765919Y-13056016D01*
X11764259Y-13054939D01*
X11762593Y-13053867D01*
X11760920Y-13052801D01*
X11759241Y-13051740D01*
X11757555Y-13050684D01*
X11755863Y-13049634D01*
X11754164Y-13048589D01*
X11752459Y-13047549D01*
X11750747Y-13046515D01*
X11749028Y-13045486D01*
X11747303Y-13044462D01*
X11745571Y-13043444D01*
X11743833Y-13042431D01*
X11742087Y-13041424D01*
X11740336Y-13040422D01*
X11738577Y-13039425D01*
X11736812Y-13038433D01*
X11735040Y-13037447D01*
X11733261Y-13036467D01*
X11731476Y-13035491D01*
X11729683Y-13034522D01*
X11727884Y-13033557D01*
X11726078Y-13032598D01*
X11724265Y-13031644D01*
X11722446Y-13030696D01*
X11720619Y-13029753D01*
X11718786Y-13028816D01*
X11716945Y-13027884D01*
X11715098Y-13026958D01*
X11713244Y-13026037D01*
X11711382Y-13025121D01*
X11709514Y-13024211D01*
X11707639Y-13023306D01*
X11705757Y-13022407D01*
X11703867Y-13021513D01*
X11701971Y-13020625D01*
X11700067Y-13019742D01*
X11698157Y-13018865D01*
X11696239Y-13017994D01*
X11694314Y-13017128D01*
X11692382Y-13016267D01*
X11690443Y-13015412D01*
X11688496Y-13014562D01*
X11686543Y-13013719D01*
X11684582Y-13012880D01*
X11682614Y-13012048D01*
X11680638Y-13011220D01*
X11678656Y-13010399D01*
X11676666Y-13009583D01*
X11674668Y-13008773D01*
X11672664Y-13007968D01*
X11670652Y-13007169D01*
X11668632Y-13006376D01*
X11666606Y-13005588D01*
X11664571Y-13004806D01*
X11662530Y-13004030D01*
X11660481Y-13003259D01*
X11658424Y-13002495D01*
X11656360Y-13001735D01*
X11654288Y-13000982D01*
X11652209Y-13000235D01*
X11650122Y-12999493D01*
X11648028Y-12998757D01*
X11645926Y-12998027D01*
X11643817Y-12997302D01*
X11641700Y-12996584D01*
X11639575Y-12995871D01*
X11637443Y-12995164D01*
X11635303Y-12994463D01*
X11633155Y-12993768D01*
X11630999Y-12993079D01*
X11628836Y-12992396D01*
X11626665Y-12991718D01*
X11624487Y-12991047D01*
X11622300Y-12990381D01*
X11620106Y-12989722D01*
X11617904Y-12989069D01*
X11615694Y-12988421D01*
X11613476Y-12987780D01*
X11611251Y-12987144D01*
X11609017Y-12986515D01*
X11606776Y-12985892D01*
X11604527Y-12985275D01*
X11602269Y-12984664D01*
X11600004Y-12984059D01*
X11597731Y-12983460D01*
X11595450Y-12982867D01*
X11593161Y-12982281D01*
X11590864Y-12981701D01*
X11588559Y-12981126D01*
X11586245Y-12980559D01*
X11583924Y-12979997D01*
X11581595Y-12979442D01*
X11579258Y-12978893D01*
X11576912Y-12978350D01*
X11574559Y-12977814D01*
X11572197Y-12977284D01*
X11569827Y-12976760D01*
X11567449Y-12976243D01*
X11565063Y-12975732D01*
X11562669Y-12975227D01*
X11560266Y-12974729D01*
X11557856Y-12974238D01*
X11555437Y-12973753D01*
X11553010Y-12973274D01*
X11550574Y-12972802D01*
X11548131Y-12972336D01*
X11545679Y-12971877D01*
X11543219Y-12971425D01*
X11540750Y-12970979D01*
X11538274Y-12970540D01*
X11535789Y-12970107D01*
X11533295Y-12969681D01*
X11530794Y-12969262D01*
X11528284Y-12968849D01*
X11525766Y-12968444D01*
X11523239Y-12968045D01*
X11520704Y-12967652D01*
X11518161Y-12967267D01*
X11515609Y-12966888D01*
X11513049Y-12966516D01*
X11510481Y-12966151D01*
X11507904Y-12965793D01*
X11505319Y-12965442D01*
X11502725Y-12965097D01*
X11500123Y-12964760D01*
X11497513Y-12964429D01*
X11494894Y-12964106D01*
X11492267Y-12963790D01*
X11489632Y-12963480D01*
X11486988Y-12963178D01*
X11484335Y-12962882D01*
X11481674Y-12962594D01*
X11479005Y-12962313D01*
X11476328Y-12962039D01*
X11473642Y-12961772D01*
X11470947Y-12961513D01*
X11468245Y-12961260D01*
X11465533Y-12961015D01*
X11462814Y-12960777D01*
X11460086Y-12960547D01*
X11457349Y-12960323D01*
X11454605Y-12960107D01*
X11451852Y-12959899D01*
X11449090Y-12959697D01*
X11446320Y-12959504D01*
X11443542Y-12959317D01*
X11440756Y-12959138D01*
X11437961Y-12958966D01*
X11435158Y-12958802D01*
X11432346Y-12958646D01*
X11429526Y-12958497D01*
X11426698Y-12958355D01*
X11423862Y-12958221D01*
X11421017Y-12958095D01*
X11418165Y-12957976D01*
X11415304Y-12957865D01*
X11412435Y-12957762D01*
X11409557Y-12957666D01*
X11406672Y-12957578D01*
X11403778Y-12957498D01*
X11400876Y-12957425D01*
X11397967Y-12957361D01*
X11395049Y-12957304D01*
X11392123Y-12957255D01*
X11389189Y-12957213D01*
X11386247Y-12957180D01*
X11383298Y-12957154D01*
X11380340Y-12957137D01*
X11377375Y-12957127D01*
X11374401Y-12957125D01*
X11371420Y-12957131D01*
X11368431Y-12957146D01*
X11365435Y-12957168D01*
X11362430Y-12957198D01*
X11359419Y-12957236D01*
X11356399Y-12957283D01*
X11353372Y-12957337D01*
X11350338Y-12957400D01*
X11347296Y-12957471D01*
X11344247Y-12957549D01*
X11341190Y-12957636D01*
X11338126Y-12957732D01*
X11335055Y-12957835D01*
X11331977Y-12957947D01*
X11328892Y-12958066D01*
X11325800Y-12958194D01*
X11322701Y-12958331D01*
X11319595Y-12958475D01*
X11316482Y-12958628D01*
X11313363Y-12958790D01*
X11310237Y-12958959D01*
X11307104Y-12959137D01*
X11303965Y-12959323D01*
X11300820Y-12959518D01*
X11297668Y-12959721D01*
X11294510Y-12959932D01*
X11291346Y-12960151D01*
X11288177Y-12960380D01*
X11285001Y-12960616D01*
X11281820Y-12960861D01*
X11278633Y-12961114D01*
X11275440Y-12961376D01*
X11272243Y-12961646D01*
X11269040Y-12961925D01*
X11265832Y-12962212D01*
X11262619Y-12962507D01*
X11259401Y-12962811D01*
X11256178Y-12963123D01*
X11252951Y-12963444D01*
X11249720Y-12963773D01*
X11246485Y-12964111D01*
X11243245Y-12964457D01*
X11240002Y-12964811D01*
X11236755Y-12965174D01*
X11233505Y-12965545D01*
X11230252Y-12965924D01*
X11226995Y-12966312D01*
X11223736Y-12966708D01*
X11220475Y-12967113D01*
X11217211Y-12967526D01*
X11213945Y-12967947D01*
X11210677Y-12968376D01*
X11207408Y-12968813D01*
X11204138Y-12969259D01*
X11200866Y-12969713D01*
X11197594Y-12970175D01*
X11194322Y-12970645D01*
X11191050Y-12971123D01*
X11187778Y-12971608D01*
X11184508Y-12972102D01*
X11181238Y-12972604D01*
X11177970Y-12973113D01*
X11174703Y-12973630D01*
X11171440Y-12974155D01*
X11168179Y-12974688D01*
X11164921Y-12975227D01*
X11161668Y-12975774D01*
X11158419Y-12976329D01*
X11155174Y-12976891D01*
X11151936Y-12977459D01*
X11148704Y-12978035D01*
X11145478Y-12978617D01*
X11142260Y-12979206D01*
X11139051Y-12979802D01*
X11135850Y-12980404D01*
X11132660Y-12981012D01*
X11129480Y-12981626D01*
X11126312Y-12982246D01*
X11123157Y-12982871D01*
X11120016Y-12983502D01*
X11116889Y-12984137D01*
X11113779Y-12984778D01*
X11110687Y-12985422D01*
X11107613Y-12986071D01*
X11104560Y-12986724D01*
X11101529Y-12987380D01*
X11098522Y-12988038D01*
X11095541Y-12988699D01*
X11092588Y-12989362D01*
X11089665Y-12990026D01*
X11086776Y-12990690D01*
X11083922Y-12991354D01*
X11081108Y-12992017D01*
X11078337Y-12992678D01*
X11075613Y-12993335D01*
X11072940Y-12993988D01*
X11070326Y-12994634D01*
X11067775Y-12995273D01*
X11065296Y-12995901D01*
X11062897Y-12996517D01*
X11060592Y-12997117D01*
X11058393Y-12997696D01*
X11056322Y-12998250D01*
X11054406Y-12998769D01*
X11052686Y-12999242D01*
X11051235Y-12999648D01*
X11050212Y-12999939D01*
X11050000Y-13000000D01*
X11950000Y-13950000D02*
X16050000Y-13950000D01*
X16050000Y-4850000D02*
X16049504Y-4852155D01*
X16049010Y-4854306D01*
X16048520Y-4856454D01*
X16048032Y-4858598D01*
X16047547Y-4860739D01*
X16047065Y-4862876D01*
X16046586Y-4865009D01*
X16046110Y-4867140D01*
X16045637Y-4869266D01*
X16045166Y-4871389D01*
X16044698Y-4873508D01*
X16044233Y-4875624D01*
X16043771Y-4877736D01*
X16043312Y-4879846D01*
X16042856Y-4881951D01*
X16042402Y-4884053D01*
X16041951Y-4886151D01*
X16041503Y-4888246D01*
X16041058Y-4890337D01*
X16040615Y-4892425D01*
X16040176Y-4894509D01*
X16039739Y-4896591D01*
X16039304Y-4898668D01*
X16038873Y-4900742D01*
X16038444Y-4902812D01*
X16038018Y-4904879D01*
X16037595Y-4906943D01*
X16037175Y-4909003D01*
X16036757Y-4911060D01*
X16036342Y-4913113D01*
X16035930Y-4915163D01*
X16035521Y-4917209D01*
X16035114Y-4919252D01*
X16034710Y-4921292D01*
X16034309Y-4923328D01*
X16033910Y-4925361D01*
X16033515Y-4927390D01*
X16033121Y-4929416D01*
X16032731Y-4931438D01*
X16032343Y-4933458D01*
X16031958Y-4935473D01*
X16031576Y-4937486D01*
X16031196Y-4939494D01*
X16030819Y-4941500D01*
X16030444Y-4943502D01*
X16030073Y-4945501D01*
X16029704Y-4947496D01*
X16029337Y-4949489D01*
X16028974Y-4951477D01*
X16028612Y-4953463D01*
X16028254Y-4955445D01*
X16027898Y-4957423D01*
X16027545Y-4959399D01*
X16027194Y-4961371D01*
X16026846Y-4963339D01*
X16026501Y-4965305D01*
X16026158Y-4967267D01*
X16025818Y-4969226D01*
X16025481Y-4971181D01*
X16025146Y-4973133D01*
X16024814Y-4975082D01*
X16024484Y-4977028D01*
X16024157Y-4978970D01*
X16023832Y-4980909D01*
X16023510Y-4982844D01*
X16023191Y-4984777D01*
X16022874Y-4986706D01*
X16022560Y-4988632D01*
X16022248Y-4990554D01*
X16021939Y-4992474D01*
X16021632Y-4994390D01*
X16021328Y-4996303D01*
X16021027Y-4998212D01*
X16020727Y-5000119D01*
X16020431Y-5002021D01*
X16020137Y-5003922D01*
X16019846Y-5005818D01*
X16019557Y-5007712D01*
X16019270Y-5009601D01*
X16018987Y-5011489D01*
X16018705Y-5013372D01*
X16018426Y-5015253D01*
X16018150Y-5017130D01*
X16017876Y-5019004D01*
X16017605Y-5020875D01*
X16017336Y-5022743D01*
X16017069Y-5024607D01*
X16016805Y-5026469D01*
X16016544Y-5028327D01*
X16016285Y-5030182D01*
X16016028Y-5032034D01*
X16015774Y-5033883D01*
X16015523Y-5035728D01*
X16015273Y-5037571D01*
X16015027Y-5039410D01*
X16014782Y-5041246D01*
X16014540Y-5043079D01*
X16014301Y-5044909D01*
X16014064Y-5046735D01*
X16013829Y-5048559D01*
X16013597Y-5050379D01*
X16013367Y-5052197D01*
X16013140Y-5054011D01*
X16012915Y-5055822D01*
X16012692Y-5057630D01*
X16012472Y-5059435D01*
X16012254Y-5061237D01*
X16012039Y-5063035D01*
X16011826Y-5064831D01*
X16011615Y-5066624D01*
X16011407Y-5068413D01*
X16011201Y-5070199D01*
X16010998Y-5071982D01*
X16010797Y-5073763D01*
X16010598Y-5075540D01*
X16010401Y-5077314D01*
X16010207Y-5079085D01*
X16010016Y-5080853D01*
X16009826Y-5082618D01*
X16009639Y-5084380D01*
X16009454Y-5086139D01*
X16009272Y-5087895D01*
X16009092Y-5089647D01*
X16008914Y-5091397D01*
X16008739Y-5093144D01*
X16008565Y-5094888D01*
X16008395Y-5096628D01*
X16008226Y-5098366D01*
X16008060Y-5100101D01*
X16007896Y-5101833D01*
X16007734Y-5103561D01*
X16007575Y-5105287D01*
X16007418Y-5107010D01*
X16007263Y-5108730D01*
X16007111Y-5110446D01*
X16006960Y-5112160D01*
X16006812Y-5113871D01*
X16006667Y-5115579D01*
X16006523Y-5117284D01*
X16006382Y-5118986D01*
X16006243Y-5120685D01*
X16006106Y-5122381D01*
X16005972Y-5124074D01*
X16005840Y-5125765D01*
X16005710Y-5127452D01*
X16005582Y-5129136D01*
X16005456Y-5130817D01*
X16005333Y-5132496D01*
X16005212Y-5134172D01*
X16005093Y-5135844D01*
X16004977Y-5137514D01*
X16004862Y-5139181D01*
X16004750Y-5140845D01*
X16004640Y-5142506D01*
X16004532Y-5144164D01*
X16004426Y-5145820D01*
X16004323Y-5147472D01*
X16004221Y-5149122D01*
X16004122Y-5150768D01*
X16004025Y-5152412D01*
X16003931Y-5154053D01*
X16003838Y-5155691D01*
X16003748Y-5157326D01*
X16003659Y-5158959D01*
X16003573Y-5160588D01*
X16003489Y-5162215D01*
X16003407Y-5163838D01*
X16003328Y-5165460D01*
X16003250Y-5167078D01*
X16003175Y-5168693D01*
X16003102Y-5170305D01*
X16003030Y-5171915D01*
X16002961Y-5173522D01*
X16002894Y-5175126D01*
X16002830Y-5176727D01*
X16002767Y-5178326D01*
X16002706Y-5179922D01*
X16002648Y-5181515D01*
X16002592Y-5183104D01*
X16002537Y-5184692D01*
X16002485Y-5186276D01*
X16002435Y-5187858D01*
X16002387Y-5189437D01*
X16002341Y-5191013D01*
X16002298Y-5192587D01*
X16002256Y-5194157D01*
X16002216Y-5195725D01*
X16002179Y-5197291D01*
X16002143Y-5198853D01*
X16002110Y-5200413D01*
X16002078Y-5201969D01*
X16002049Y-5203524D01*
X16002022Y-5205075D01*
X16001996Y-5206624D01*
X16001973Y-5208170D01*
X16001952Y-5209713D01*
X16001933Y-5211254D01*
X16001916Y-5212792D01*
X16001901Y-5214327D01*
X16001888Y-5215859D01*
X16001877Y-5217389D01*
X16001868Y-5218916D01*
X16001861Y-5220440D01*
X16001856Y-5221962D01*
X16001853Y-5223481D01*
X16001852Y-5224998D01*
X16001853Y-5226511D01*
X16001856Y-5228022D01*
X16001861Y-5229531D01*
X16001868Y-5231036D01*
X16001877Y-5232539D01*
X16001888Y-5234040D01*
X16001901Y-5235537D01*
X16001916Y-5237033D01*
X16001933Y-5238525D01*
X16001952Y-5240015D01*
X16001973Y-5241502D01*
X16001995Y-5242986D01*
X16002020Y-5244468D01*
X16002047Y-5245948D01*
X16002076Y-5247424D01*
X16002106Y-5248898D01*
X16002139Y-5250370D01*
X16002173Y-5251839D01*
X16002210Y-5253305D01*
X16002248Y-5254769D01*
X16002288Y-5256230D01*
X16002331Y-5257688D01*
X16002375Y-5259144D01*
X16002421Y-5260597D01*
X16002469Y-5262048D01*
X16002519Y-5263496D01*
X16002571Y-5264942D01*
X16002625Y-5266385D01*
X16002680Y-5267825D01*
X16002738Y-5269263D01*
X16002797Y-5270699D01*
X16002859Y-5272132D01*
X16002922Y-5273562D01*
X16002987Y-5274990D01*
X16003054Y-5276415D01*
X16003123Y-5277837D01*
X16003194Y-5279257D01*
X16003266Y-5280675D01*
X16003341Y-5282090D01*
X16003417Y-5283503D01*
X16003496Y-5284913D01*
X16003576Y-5286321D01*
X16003658Y-5287725D01*
X16003741Y-5289128D01*
X16003827Y-5290528D01*
X16003915Y-5291926D01*
X16004004Y-5293321D01*
X16004095Y-5294714D01*
X16004188Y-5296104D01*
X16004283Y-5297491D01*
X16004380Y-5298876D01*
X16004479Y-5300259D01*
X16004579Y-5301639D01*
X16004681Y-5303017D01*
X16004785Y-5304392D01*
X16004891Y-5305765D01*
X16004999Y-5307136D01*
X16005108Y-5308504D01*
X16005220Y-5309869D01*
X16005333Y-5311233D01*
X16005448Y-5312593D01*
X16005565Y-5313951D01*
X16005683Y-5315307D01*
X16005803Y-5316661D01*
X16005926Y-5318012D01*
X16006049Y-5319360D01*
X16006175Y-5320706D01*
X16006303Y-5322050D01*
X16006432Y-5323391D01*
X16006563Y-5324731D01*
X16006696Y-5326067D01*
X16006830Y-5327401D01*
X16006967Y-5328733D01*
X16007105Y-5330062D01*
X16007245Y-5331389D01*
X16007386Y-5332714D01*
X16007530Y-5334036D01*
X16007675Y-5335356D01*
X16007822Y-5336674D01*
X16007970Y-5337989D01*
X16008121Y-5339302D01*
X16008273Y-5340613D01*
X16008427Y-5341921D01*
X16008582Y-5343226D01*
X16008740Y-5344530D01*
X16008899Y-5345831D01*
X16009059Y-5347130D01*
X16009222Y-5348426D01*
X16009386Y-5349720D01*
X16009552Y-5351012D01*
X16009720Y-5352302D01*
X16009889Y-5353589D01*
X16010060Y-5354874D01*
X16010233Y-5356156D01*
X16010408Y-5357437D01*
X16010584Y-5358715D01*
X16010762Y-5359990D01*
X16010942Y-5361264D01*
X16011123Y-5362535D01*
X16011306Y-5363804D01*
X16011491Y-5365070D01*
X16011677Y-5366335D01*
X16011865Y-5367596D01*
X16012055Y-5368856D01*
X16012246Y-5370114D01*
X16012439Y-5371369D01*
X16012634Y-5372622D01*
X16012831Y-5373873D01*
X16013029Y-5375121D01*
X16013229Y-5376367D01*
X16013430Y-5377611D01*
X16013633Y-5378853D01*
X16013838Y-5380092D01*
X16014045Y-5381330D01*
X16014253Y-5382565D01*
X16014462Y-5383798D01*
X16014674Y-5385028D01*
X16014887Y-5386257D01*
X16015102Y-5387483D01*
X16015318Y-5388707D01*
X16015536Y-5389928D01*
X16015756Y-5391148D01*
X16015977Y-5392365D01*
X16016200Y-5393580D01*
X16016424Y-5394793D01*
X16016651Y-5396004D01*
X16016878Y-5397213D01*
X16017108Y-5398419D01*
X16017339Y-5399623D01*
X16017571Y-5400826D01*
X16017806Y-5402025D01*
X16018042Y-5403223D01*
X16018279Y-5404419D01*
X16018518Y-5405612D01*
X16018759Y-5406803D01*
X16019001Y-5407993D01*
X16019245Y-5409179D01*
X16019491Y-5410364D01*
X16019738Y-5411547D01*
X16019986Y-5412728D01*
X16020237Y-5413906D01*
X16020489Y-5415082D01*
X16020742Y-5416256D01*
X16020997Y-5417428D01*
X16021254Y-5418598D01*
X16021512Y-5419766D01*
X16021772Y-5420932D01*
X16022033Y-5422095D01*
X16022296Y-5423257D01*
X16022561Y-5424416D01*
X16022827Y-5425574D01*
X16023094Y-5426729D01*
X16023364Y-5427882D01*
X16023635Y-5429033D01*
X16023907Y-5430182D01*
X16024181Y-5431329D01*
X16024456Y-5432474D01*
X16024733Y-5433616D01*
X16025012Y-5434757D01*
X16025292Y-5435895D01*
X16025574Y-5437032D01*
X16025857Y-5438166D01*
X16026142Y-5439299D01*
X16026428Y-5440429D01*
X16026716Y-5441558D01*
X16027006Y-5442684D01*
X16027297Y-5443808D01*
X16027589Y-5444930D01*
X16027883Y-5446050D01*
X16028179Y-5447168D01*
X16028476Y-5448285D01*
X16028775Y-5449399D01*
X16029075Y-5450511D01*
X16029376Y-5451621D01*
X16029680Y-5452729D01*
X16029984Y-5453835D01*
X16030291Y-5454939D01*
X16030598Y-5456041D01*
X16030908Y-5457141D01*
X16031219Y-5458239D01*
X16031531Y-5459335D01*
X16031845Y-5460429D01*
X16032160Y-5461521D01*
X16032477Y-5462611D01*
X16032795Y-5463699D01*
X16033115Y-5464785D01*
X16033437Y-5465869D01*
X16033759Y-5466951D01*
X16034084Y-5468031D01*
X16034410Y-5469110D01*
X16034737Y-5470186D01*
X16035066Y-5471260D01*
X16035396Y-5472332D01*
X16035728Y-5473403D01*
X16036061Y-5474471D01*
X16036396Y-5475538D01*
X16036732Y-5476602D01*
X16037070Y-5477665D01*
X16037410Y-5478726D01*
X16037750Y-5479784D01*
X16038093Y-5480841D01*
X16038436Y-5481896D01*
X16038781Y-5482949D01*
X16039128Y-5484000D01*
X16039476Y-5485049D01*
X16039826Y-5486097D01*
X16040177Y-5487142D01*
X16040529Y-5488185D01*
X16040883Y-5489227D01*
X16041239Y-5490267D01*
X16041596Y-5491304D01*
X16041954Y-5492340D01*
X16042314Y-5493374D01*
X16042675Y-5494406D01*
X16043038Y-5495437D01*
X16043402Y-5496465D01*
X16043768Y-5497491D01*
X16044135Y-5498516D01*
X16044504Y-5499539D01*
X16044874Y-5500559D01*
X16045245Y-5501578D01*
X16045618Y-5502595D01*
X16045993Y-5503611D01*
X16046369Y-5504624D01*
X16046746Y-5505636D01*
X16047125Y-5506645D01*
X16047505Y-5507653D01*
X16047886Y-5508659D01*
X16048270Y-5509663D01*
X16048654Y-5510666D01*
X16049040Y-5511666D01*
X16049427Y-5512665D01*
X16049816Y-5513662D01*
X16050206Y-5514657D01*
X16050598Y-5515650D01*
X16050991Y-5516641D01*
X16051386Y-5517631D01*
X16051782Y-5518619D01*
X16052179Y-5519605D01*
X16052578Y-5520589D01*
X16052978Y-5521571D01*
X16053380Y-5522552D01*
X16053783Y-5523531D01*
X16054188Y-5524508D01*
X16054593Y-5525483D01*
X16055001Y-5526456D01*
X16055410Y-5527428D01*
X16055820Y-5528398D01*
X16056231Y-5529366D01*
X16056644Y-5530332D01*
X16057059Y-5531296D01*
X16057475Y-5532259D01*
X16057892Y-5533220D01*
X16058311Y-5534179D01*
X16058731Y-5535137D01*
X16059152Y-5536092D01*
X16059575Y-5537046D01*
X16060000Y-5537999D01*
X16060425Y-5538949D01*
X16060853Y-5539898D01*
X16061281Y-5540845D01*
X16061711Y-5541790D01*
X16062143Y-5542733D01*
X16062575Y-5543675D01*
X16063010Y-5544615D01*
X16063445Y-5545553D01*
X16063882Y-5546490D01*
X16064320Y-5547425D01*
X16064760Y-5548358D01*
X16065201Y-5549289D01*
X16065644Y-5550219D01*
X16066088Y-5551147D01*
X16066533Y-5552073D01*
X16066980Y-5552997D01*
X16067428Y-5553920D01*
X16067878Y-5554841D01*
X16068329Y-5555761D01*
X16068781Y-5556679D01*
X16069235Y-5557595D01*
X16069690Y-5558509D01*
X16070147Y-5559422D01*
X16070605Y-5560333D01*
X16071064Y-5561242D01*
X16071525Y-5562149D01*
X16071987Y-5563055D01*
X16072450Y-5563960D01*
X16072915Y-5564862D01*
X16073381Y-5565763D01*
X16073849Y-5566662D01*
X16074318Y-5567560D01*
X16074788Y-5568456D01*
X16075260Y-5569350D01*
X16075733Y-5570243D01*
X16076208Y-5571134D01*
X16076684Y-5572023D01*
X16077161Y-5572911D01*
X16077640Y-5573797D01*
X16078120Y-5574681D01*
X16078602Y-5575564D01*
X16079085Y-5576445D01*
X16079569Y-5577324D01*
X16080055Y-5578202D01*
X16080542Y-5579078D01*
X16081030Y-5579953D01*
X16081520Y-5580826D01*
X16082011Y-5581697D01*
X16082504Y-5582567D01*
X16082997Y-5583435D01*
X16083989Y-5585166D01*
X16084987Y-5586891D01*
X16085990Y-5588609D01*
X16086999Y-5590321D01*
X16088013Y-5592027D01*
X16089032Y-5593726D01*
X16090057Y-5595419D01*
X16091088Y-5597106D01*
X16092124Y-5598786D01*
X16093166Y-5600460D01*
X16094213Y-5602128D01*
X16095265Y-5603789D01*
X16096323Y-5605444D01*
X16097387Y-5607093D01*
X16098456Y-5608736D01*
X16099531Y-5610373D01*
X16100611Y-5612003D01*
X16101697Y-5613628D01*
X16102788Y-5615246D01*
X16103885Y-5616858D01*
X16104987Y-5618464D01*
X16106095Y-5620064D01*
X16107208Y-5621657D01*
X16108327Y-5623245D01*
X16109451Y-5624827D01*
X16110581Y-5626403D01*
X16111716Y-5627972D01*
X16112857Y-5629536D01*
X16114003Y-5631094D01*
X16115155Y-5632645D01*
X16116313Y-5634191D01*
X16117476Y-5635731D01*
X16118644Y-5637265D01*
X16119819Y-5638793D01*
X16120998Y-5640315D01*
X16122183Y-5641832D01*
X16123374Y-5643342D01*
X16124571Y-5644847D01*
X16125773Y-5646346D01*
X16126980Y-5647839D01*
X16128193Y-5649326D01*
X16129412Y-5650807D01*
X16130636Y-5652283D01*
X16131866Y-5653753D01*
X16133102Y-5655217D01*
X16134343Y-5656676D01*
X16135590Y-5658128D01*
X16136842Y-5659575D01*
X16138100Y-5661017D01*
X16139364Y-5662452D01*
X16140634Y-5663882D01*
X16141909Y-5665306D01*
X16143189Y-5666725D01*
X16144476Y-5668138D01*
X16145768Y-5669545D01*
X16147065Y-5670947D01*
X16148369Y-5672343D01*
X16149678Y-5673734D01*
X16150993Y-5675119D01*
X16152313Y-5676498D01*
X16153640Y-5677872D01*
X16154972Y-5679240D01*
X16156309Y-5680603D01*
X16157653Y-5681960D01*
X16159002Y-5683311D01*
X16160357Y-5684658D01*
X16161718Y-5685998D01*
X16163085Y-5687333D01*
X16164458Y-5688663D01*
X16165836Y-5689987D01*
X16167220Y-5691305D01*
X16168610Y-5692619D01*
X16170006Y-5693926D01*
X16171408Y-5695229D01*
X16172815Y-5696525D01*
X16174229Y-5697817D01*
X16175648Y-5699102D01*
X16177073Y-5700383D01*
X16178504Y-5701658D01*
X16179942Y-5702928D01*
X16181385Y-5704192D01*
X16182834Y-5705451D01*
X16184289Y-5706704D01*
X16185750Y-5707952D01*
X16187217Y-5709195D01*
X16188690Y-5710432D01*
X16190169Y-5711664D01*
X16191654Y-5712890D01*
X16193145Y-5714111D01*
X16194642Y-5715327D01*
X16196145Y-5716537D01*
X16197654Y-5717742D01*
X16199170Y-5718942D01*
X16200691Y-5720136D01*
X16202219Y-5721325D01*
X16203753Y-5722509D01*
X16205293Y-5723687D01*
X16206839Y-5724860D01*
X16208391Y-5726028D01*
X16209950Y-5727190D01*
X16211514Y-5728347D01*
X16213085Y-5729498D01*
X16214662Y-5730645D01*
X16216246Y-5731786D01*
X16217836Y-5732921D01*
X16219432Y-5734051D01*
X16221034Y-5735176D01*
X16222642Y-5736296D01*
X16224257Y-5737410D01*
X16225879Y-5738519D01*
X16227506Y-5739623D01*
X16229141Y-5740721D01*
X16230781Y-5741814D01*
X16232428Y-5742902D01*
X16234081Y-5743984D01*
X16235741Y-5745061D01*
X16237407Y-5746133D01*
X16239080Y-5747199D01*
X16240759Y-5748260D01*
X16242445Y-5749316D01*
X16244137Y-5750366D01*
X16245836Y-5751411D01*
X16247541Y-5752451D01*
X16249253Y-5753485D01*
X16250972Y-5754514D01*
X16252697Y-5755538D01*
X16254429Y-5756556D01*
X16256167Y-5757569D01*
X16257913Y-5758576D01*
X16259664Y-5759578D01*
X16261423Y-5760575D01*
X16263188Y-5761567D01*
X16264960Y-5762553D01*
X16266739Y-5763533D01*
X16268524Y-5764508D01*
X16270317Y-5765478D01*
X16272116Y-5766443D01*
X16273922Y-5767402D01*
X16275735Y-5768355D01*
X16277554Y-5769304D01*
X16279381Y-5770246D01*
X16281214Y-5771184D01*
X16283055Y-5772116D01*
X16284902Y-5773042D01*
X16286756Y-5773963D01*
X16288618Y-5774879D01*
X16290486Y-5775789D01*
X16292361Y-5776694D01*
X16294243Y-5777593D01*
X16296133Y-5778487D01*
X16298029Y-5779375D01*
X16299933Y-5780257D01*
X16301843Y-5781135D01*
X16303761Y-5782006D01*
X16305686Y-5782872D01*
X16307618Y-5783733D01*
X16309557Y-5784588D01*
X16311503Y-5785437D01*
X16313457Y-5786281D01*
X16315418Y-5787120D01*
X16317386Y-5787952D01*
X16319361Y-5788780D01*
X16321344Y-5789601D01*
X16323334Y-5790417D01*
X16325331Y-5791227D01*
X16327336Y-5792032D01*
X16329348Y-5792831D01*
X16331368Y-5793624D01*
X16333394Y-5794412D01*
X16335429Y-5795194D01*
X16337470Y-5795970D01*
X16339519Y-5796741D01*
X16341576Y-5797505D01*
X16343640Y-5798264D01*
X16345712Y-5799018D01*
X16347791Y-5799765D01*
X16349878Y-5800507D01*
X16351972Y-5801243D01*
X16354074Y-5801973D01*
X16356183Y-5802698D01*
X16358300Y-5803416D01*
X16360425Y-5804129D01*
X16362557Y-5804836D01*
X16364697Y-5805537D01*
X16366845Y-5806232D01*
X16369000Y-5806921D01*
X16371164Y-5807604D01*
X16373335Y-5808282D01*
X16375513Y-5808953D01*
X16377700Y-5809618D01*
X16379894Y-5810278D01*
X16382096Y-5810931D01*
X16384306Y-5811579D01*
X16386524Y-5812220D01*
X16388749Y-5812856D01*
X16390983Y-5813485D01*
X16393224Y-5814108D01*
X16395473Y-5814725D01*
X16397731Y-5815336D01*
X16399996Y-5815941D01*
X16402269Y-5816540D01*
X16404550Y-5817133D01*
X16406839Y-5817719D01*
X16409136Y-5818299D01*
X16411441Y-5818873D01*
X16413754Y-5819441D01*
X16416076Y-5820003D01*
X16418405Y-5820558D01*
X16420742Y-5821107D01*
X16423088Y-5821650D01*
X16425441Y-5822186D01*
X16427803Y-5822716D01*
X16430173Y-5823240D01*
X16432551Y-5823757D01*
X16434937Y-5824268D01*
X16437331Y-5824773D01*
X16439734Y-5825271D01*
X16442144Y-5825762D01*
X16444563Y-5826247D01*
X16446990Y-5826726D01*
X16449426Y-5827198D01*
X16451869Y-5827664D01*
X16454321Y-5828123D01*
X16456781Y-5828575D01*
X16459250Y-5829021D01*
X16461726Y-5829460D01*
X16464211Y-5829893D01*
X16466704Y-5830319D01*
X16469206Y-5830738D01*
X16471716Y-5831150D01*
X16474234Y-5831556D01*
X16476761Y-5831955D01*
X16479296Y-5832348D01*
X16481839Y-5832733D01*
X16484391Y-5833112D01*
X16486951Y-5833484D01*
X16489519Y-5833849D01*
X16492096Y-5834207D01*
X16494681Y-5834558D01*
X16497275Y-5834903D01*
X16499877Y-5835240D01*
X16502487Y-5835570D01*
X16505106Y-5835894D01*
X16507733Y-5836210D01*
X16510368Y-5836520D01*
X16513012Y-5836822D01*
X16515665Y-5837117D01*
X16518325Y-5837406D01*
X16520995Y-5837687D01*
X16523672Y-5837961D01*
X16526358Y-5838227D01*
X16529053Y-5838487D01*
X16531755Y-5838739D01*
X16534467Y-5838985D01*
X16537186Y-5839223D01*
X16539914Y-5839453D01*
X16542650Y-5839676D01*
X16545395Y-5839892D01*
X16548148Y-5840101D01*
X16550910Y-5840302D01*
X16553680Y-5840496D01*
X16556458Y-5840683D01*
X16559244Y-5840862D01*
X16562039Y-5841033D01*
X16564842Y-5841198D01*
X16567654Y-5841354D01*
X16570474Y-5841503D01*
X16573302Y-5841645D01*
X16576138Y-5841779D01*
X16578982Y-5841905D01*
X16581835Y-5842024D01*
X16584696Y-5842135D01*
X16587565Y-5842238D01*
X16590443Y-5842334D01*
X16593328Y-5842422D01*
X16596222Y-5842502D01*
X16599123Y-5842575D01*
X16602033Y-5842639D01*
X16604951Y-5842696D01*
X16607877Y-5842745D01*
X16610811Y-5842787D01*
X16613753Y-5842820D01*
X16616702Y-5842846D01*
X16619660Y-5842863D01*
X16622625Y-5842873D01*
X16625599Y-5842875D01*
X16628580Y-5842868D01*
X16631569Y-5842854D01*
X16634565Y-5842832D01*
X16637569Y-5842802D01*
X16640581Y-5842763D01*
X16643601Y-5842717D01*
X16646628Y-5842663D01*
X16649662Y-5842600D01*
X16652704Y-5842529D01*
X16655753Y-5842450D01*
X16658810Y-5842363D01*
X16661874Y-5842268D01*
X16664945Y-5842165D01*
X16668023Y-5842053D01*
X16671108Y-5841933D01*
X16674200Y-5841805D01*
X16677299Y-5841669D01*
X16680405Y-5841524D01*
X16683518Y-5841372D01*
X16686637Y-5841210D01*
X16689763Y-5841041D01*
X16692896Y-5840863D01*
X16696035Y-5840677D01*
X16699180Y-5840482D01*
X16702332Y-5840279D01*
X16705490Y-5840068D01*
X16708653Y-5839848D01*
X16711823Y-5839620D01*
X16714999Y-5839384D01*
X16718180Y-5839139D01*
X16721367Y-5838886D01*
X16724559Y-5838624D01*
X16727757Y-5838354D01*
X16730960Y-5838075D01*
X16734168Y-5837788D01*
X16737381Y-5837493D01*
X16740599Y-5837189D01*
X16743822Y-5836877D01*
X16747049Y-5836556D01*
X16750280Y-5836227D01*
X16753515Y-5835889D01*
X16756755Y-5835543D01*
X16759998Y-5835189D01*
X16763245Y-5834826D01*
X16766495Y-5834455D01*
X16769748Y-5834076D01*
X16773004Y-5833688D01*
X16776264Y-5833292D01*
X16779525Y-5832887D01*
X16782789Y-5832474D01*
X16786055Y-5832053D01*
X16789323Y-5831624D01*
X16792592Y-5831187D01*
X16795862Y-5830741D01*
X16799134Y-5830287D01*
X16802406Y-5829825D01*
X16805678Y-5829355D01*
X16808950Y-5828877D01*
X16812222Y-5828391D01*
X16815493Y-5827898D01*
X16818762Y-5827396D01*
X16822030Y-5826887D01*
X16825297Y-5826369D01*
X16828560Y-5825845D01*
X16831821Y-5825312D01*
X16835079Y-5824773D01*
X16838332Y-5824225D01*
X16841582Y-5823671D01*
X16844826Y-5823109D01*
X16848064Y-5822541D01*
X16851297Y-5821965D01*
X16854522Y-5821383D01*
X16857740Y-5820794D01*
X16860949Y-5820198D01*
X16864150Y-5819596D01*
X16867340Y-5818988D01*
X16870520Y-5818374D01*
X16873688Y-5817754D01*
X16876843Y-5817129D01*
X16879985Y-5816498D01*
X16883111Y-5815863D01*
X16886221Y-5815222D01*
X16889314Y-5814577D01*
X16892387Y-5813929D01*
X16895440Y-5813276D01*
X16898471Y-5812620D01*
X16901478Y-5811962D01*
X16904460Y-5811301D01*
X16907413Y-5810638D01*
X16910335Y-5809974D01*
X16913225Y-5809310D01*
X16916078Y-5808646D01*
X16918892Y-5807983D01*
X16921663Y-5807322D01*
X16924387Y-5806665D01*
X16927060Y-5806012D01*
X16929674Y-5805366D01*
X16932225Y-5804727D01*
X16934704Y-5804098D01*
X16937103Y-5803483D01*
X16939408Y-5802883D01*
X16941607Y-5802304D01*
X16943678Y-5801750D01*
X16945594Y-5801231D01*
X16947314Y-5800758D01*
X16948766Y-5800352D01*
X16949788Y-5800061D01*
X16950000Y-5800000D01*
X16950000Y-13000000D02*
X16947945Y-12999590D01*
X16945892Y-12999182D01*
X16943844Y-12998778D01*
X16941798Y-12998376D01*
X16939756Y-12997977D01*
X16937717Y-12997580D01*
X16935682Y-12997186D01*
X16933650Y-12996795D01*
X16931622Y-12996406D01*
X16929596Y-12996021D01*
X16927575Y-12995638D01*
X16925556Y-12995257D01*
X16923541Y-12994879D01*
X16921529Y-12994504D01*
X16919521Y-12994132D01*
X16917516Y-12993762D01*
X16915514Y-12993395D01*
X16913515Y-12993030D01*
X16911521Y-12992668D01*
X16909528Y-12992309D01*
X16907540Y-12991952D01*
X16905555Y-12991598D01*
X16903573Y-12991247D01*
X16901594Y-12990898D01*
X16899619Y-12990552D01*
X16897647Y-12990208D01*
X16895679Y-12989867D01*
X16893713Y-12989529D01*
X16891751Y-12989193D01*
X16889792Y-12988860D01*
X16887836Y-12988529D01*
X16885884Y-12988201D01*
X16883935Y-12987876D01*
X16881989Y-12987553D01*
X16880047Y-12987233D01*
X16878107Y-12986915D01*
X16876171Y-12986600D01*
X16874238Y-12986287D01*
X16872309Y-12985977D01*
X16870382Y-12985669D01*
X16868459Y-12985364D01*
X16866539Y-12985062D01*
X16864623Y-12984762D01*
X16862709Y-12984464D01*
X16860799Y-12984170D01*
X16858891Y-12983877D01*
X16856988Y-12983587D01*
X16855087Y-12983300D01*
X16853189Y-12983015D01*
X16851295Y-12982733D01*
X16849404Y-12982453D01*
X16847516Y-12982175D01*
X16845631Y-12981901D01*
X16843749Y-12981628D01*
X16841871Y-12981358D01*
X16839996Y-12981091D01*
X16838124Y-12980826D01*
X16836254Y-12980563D01*
X16834389Y-12980303D01*
X16832526Y-12980046D01*
X16830666Y-12979790D01*
X16828810Y-12979538D01*
X16826957Y-12979288D01*
X16825106Y-12979040D01*
X16823259Y-12978794D01*
X16821415Y-12978551D01*
X16819575Y-12978311D01*
X16817737Y-12978073D01*
X16815902Y-12977837D01*
X16814071Y-12977604D01*
X16812242Y-12977373D01*
X16810417Y-12977144D01*
X16808595Y-12976918D01*
X16806775Y-12976695D01*
X16804959Y-12976473D01*
X16803146Y-12976255D01*
X16801337Y-12976038D01*
X16799529Y-12975824D01*
X16797726Y-12975612D01*
X16795925Y-12975403D01*
X16794127Y-12975196D01*
X16792332Y-12974991D01*
X16790541Y-12974789D01*
X16788752Y-12974589D01*
X16786967Y-12974391D01*
X16785184Y-12974196D01*
X16783405Y-12974003D01*
X16781628Y-12973813D01*
X16779855Y-12973625D01*
X16778084Y-12973439D01*
X16776317Y-12973255D01*
X16774552Y-12973074D01*
X16772791Y-12972895D01*
X16771032Y-12972718D01*
X16769277Y-12972544D01*
X16767524Y-12972372D01*
X16765775Y-12972202D01*
X16764028Y-12972035D01*
X16762285Y-12971870D01*
X16760544Y-12971707D01*
X16758807Y-12971547D01*
X16757072Y-12971388D01*
X16755341Y-12971232D01*
X16753612Y-12971079D01*
X16751886Y-12970927D01*
X16750163Y-12970778D01*
X16748444Y-12970631D01*
X16746726Y-12970487D01*
X16745013Y-12970344D01*
X16743301Y-12970204D01*
X16741593Y-12970066D01*
X16739888Y-12969931D01*
X16738186Y-12969797D01*
X16736486Y-12969666D01*
X16734790Y-12969537D01*
X16733096Y-12969410D01*
X16731406Y-12969286D01*
X16729718Y-12969164D01*
X16728033Y-12969044D01*
X16726351Y-12968926D01*
X16724672Y-12968810D01*
X16722995Y-12968697D01*
X16721322Y-12968585D01*
X16719651Y-12968476D01*
X16717984Y-12968369D01*
X16716319Y-12968265D01*
X16714657Y-12968162D01*
X16712998Y-12968062D01*
X16711342Y-12967964D01*
X16709688Y-12967868D01*
X16708038Y-12967774D01*
X16706390Y-12967682D01*
X16704745Y-12967593D01*
X16703103Y-12967506D01*
X16701464Y-12967420D01*
X16699828Y-12967337D01*
X16698194Y-12967256D01*
X16696563Y-12967178D01*
X16694935Y-12967101D01*
X16693310Y-12967027D01*
X16691688Y-12966954D01*
X16690068Y-12966884D01*
X16688452Y-12966816D01*
X16686837Y-12966750D01*
X16685226Y-12966686D01*
X16683618Y-12966624D01*
X16682012Y-12966565D01*
X16680409Y-12966507D01*
X16678809Y-12966452D01*
X16677212Y-12966398D01*
X16675617Y-12966347D01*
X16674025Y-12966298D01*
X16672436Y-12966251D01*
X16670850Y-12966206D01*
X16669266Y-12966163D01*
X16667685Y-12966122D01*
X16666107Y-12966083D01*
X16664532Y-12966047D01*
X16662959Y-12966012D01*
X16661389Y-12965979D01*
X16659822Y-12965949D01*
X16658257Y-12965920D01*
X16656696Y-12965894D01*
X16655136Y-12965870D01*
X16653580Y-12965847D01*
X16652026Y-12965827D01*
X16650475Y-12965809D01*
X16648927Y-12965793D01*
X16647381Y-12965778D01*
X16645838Y-12965766D01*
X16644298Y-12965756D01*
X16642760Y-12965748D01*
X16641225Y-12965742D01*
X16639693Y-12965738D01*
X16638163Y-12965735D01*
X16636636Y-12965735D01*
X16635112Y-12965737D01*
X16633590Y-12965741D01*
X16632071Y-12965747D01*
X16630555Y-12965755D01*
X16629041Y-12965765D01*
X16627530Y-12965776D01*
X16626022Y-12965790D01*
X16624515Y-12965806D01*
X16623012Y-12965824D01*
X16621512Y-12965843D01*
X16620014Y-12965865D01*
X16618518Y-12965889D01*
X16617025Y-12965914D01*
X16615535Y-12965942D01*
X16614048Y-12965971D01*
X16612562Y-12966003D01*
X16611080Y-12966036D01*
X16609600Y-12966072D01*
X16608123Y-12966109D01*
X16606648Y-12966148D01*
X16605176Y-12966189D01*
X16603706Y-12966232D01*
X16602239Y-12966277D01*
X16600775Y-12966324D01*
X16599313Y-12966373D01*
X16597854Y-12966424D01*
X16596397Y-12966477D01*
X16594943Y-12966531D01*
X16593491Y-12966588D01*
X16592042Y-12966646D01*
X16590595Y-12966706D01*
X16589151Y-12966768D01*
X16587709Y-12966833D01*
X16586270Y-12966898D01*
X16584834Y-12966966D01*
X16583400Y-12967036D01*
X16581968Y-12967108D01*
X16580539Y-12967181D01*
X16579113Y-12967256D01*
X16577689Y-12967334D01*
X16576267Y-12967413D01*
X16574848Y-12967494D01*
X16573432Y-12967577D01*
X16572017Y-12967661D01*
X16570606Y-12967748D01*
X16569197Y-12967836D01*
X16567790Y-12967926D01*
X16566386Y-12968018D01*
X16564984Y-12968112D01*
X16563585Y-12968208D01*
X16562188Y-12968306D01*
X16560794Y-12968405D01*
X16559402Y-12968506D01*
X16558012Y-12968609D01*
X16556625Y-12968714D01*
X16555240Y-12968821D01*
X16553858Y-12968930D01*
X16552478Y-12969040D01*
X16551101Y-12969152D01*
X16549726Y-12969266D01*
X16548354Y-12969382D01*
X16546984Y-12969499D01*
X16545616Y-12969619D01*
X16544251Y-12969740D01*
X16542888Y-12969863D01*
X16541527Y-12969988D01*
X16540169Y-12970114D01*
X16538814Y-12970243D01*
X16537460Y-12970373D01*
X16536109Y-12970505D01*
X16534761Y-12970638D01*
X16533415Y-12970774D01*
X16532071Y-12970911D01*
X16530729Y-12971050D01*
X16529390Y-12971191D01*
X16528054Y-12971333D01*
X16526719Y-12971477D01*
X16525387Y-12971623D01*
X16524058Y-12971771D01*
X16522730Y-12971921D01*
X16521405Y-12972072D01*
X16520082Y-12972225D01*
X16518762Y-12972380D01*
X16517444Y-12972536D01*
X16516129Y-12972695D01*
X16514815Y-12972855D01*
X16513504Y-12973016D01*
X16512195Y-12973180D01*
X16510889Y-12973345D01*
X16509585Y-12973512D01*
X16508283Y-12973680D01*
X16506983Y-12973851D01*
X16505686Y-12974023D01*
X16504391Y-12974196D01*
X16503099Y-12974372D01*
X16501808Y-12974549D01*
X16500520Y-12974728D01*
X16499234Y-12974909D01*
X16497951Y-12975091D01*
X16496670Y-12975275D01*
X16495391Y-12975460D01*
X16494114Y-12975648D01*
X16492840Y-12975837D01*
X16491567Y-12976028D01*
X16490297Y-12976220D01*
X16489030Y-12976414D01*
X16487764Y-12976610D01*
X16486501Y-12976807D01*
X16485240Y-12977006D01*
X16483981Y-12977207D01*
X16482725Y-12977410D01*
X16481470Y-12977614D01*
X16480218Y-12977820D01*
X16478968Y-12978027D01*
X16477720Y-12978236D01*
X16476475Y-12978447D01*
X16475232Y-12978659D01*
X16473991Y-12978874D01*
X16472752Y-12979089D01*
X16471515Y-12979307D01*
X16470281Y-12979526D01*
X16469048Y-12979746D01*
X16467818Y-12979969D01*
X16466590Y-12980193D01*
X16465365Y-12980418D01*
X16464141Y-12980645D01*
X16462920Y-12980874D01*
X16461700Y-12981105D01*
X16460483Y-12981337D01*
X16459268Y-12981570D01*
X16458056Y-12981806D01*
X16456845Y-12982043D01*
X16455637Y-12982281D01*
X16454430Y-12982522D01*
X16453226Y-12982763D01*
X16452024Y-12983007D01*
X16450824Y-12983252D01*
X16449626Y-12983498D01*
X16448431Y-12983747D01*
X16447237Y-12983996D01*
X16446046Y-12984248D01*
X16444856Y-12984501D01*
X16443669Y-12984755D01*
X16442484Y-12985012D01*
X16441301Y-12985269D01*
X16440120Y-12985529D01*
X16438942Y-12985790D01*
X16437765Y-12986052D01*
X16436590Y-12986316D01*
X16435418Y-12986582D01*
X16434248Y-12986849D01*
X16433079Y-12987118D01*
X16431913Y-12987389D01*
X16430749Y-12987661D01*
X16429587Y-12987934D01*
X16428427Y-12988209D01*
X16427269Y-12988486D01*
X16426113Y-12988764D01*
X16424959Y-12989044D01*
X16423807Y-12989326D01*
X16422658Y-12989609D01*
X16421510Y-12989893D01*
X16420364Y-12990179D01*
X16419221Y-12990467D01*
X16418079Y-12990756D01*
X16416940Y-12991047D01*
X16415802Y-12991339D01*
X16414667Y-12991633D01*
X16413533Y-12991928D01*
X16412402Y-12992225D01*
X16411272Y-12992523D01*
X16410145Y-12992823D01*
X16409020Y-12993125D01*
X16407896Y-12993428D01*
X16406775Y-12993732D01*
X16405655Y-12994038D01*
X16404538Y-12994346D01*
X16403423Y-12994655D01*
X16402309Y-12994965D01*
X16401198Y-12995278D01*
X16400088Y-12995591D01*
X16398981Y-12995906D01*
X16397875Y-12996223D01*
X16396772Y-12996541D01*
X16395670Y-12996861D01*
X16394571Y-12997182D01*
X16393473Y-12997505D01*
X16392378Y-12997829D01*
X16391284Y-12998155D01*
X16390192Y-12998482D01*
X16389102Y-12998811D01*
X16388015Y-12999141D01*
X16386929Y-12999473D01*
X16385845Y-12999806D01*
X16384763Y-13000141D01*
X16383683Y-13000477D01*
X16382605Y-13000815D01*
X16381528Y-13001154D01*
X16380454Y-13001495D01*
X16379382Y-13001837D01*
X16378311Y-13002181D01*
X16377243Y-13002526D01*
X16376176Y-13002873D01*
X16375111Y-13003221D01*
X16374048Y-13003571D01*
X16372988Y-13003922D01*
X16371929Y-13004274D01*
X16370871Y-13004628D01*
X16369816Y-13004984D01*
X16368763Y-13005341D01*
X16367711Y-13005699D01*
X16366662Y-13006059D01*
X16365614Y-13006421D01*
X16364568Y-13006784D01*
X16363524Y-13007148D01*
X16362482Y-13007514D01*
X16361442Y-13007881D01*
X16360404Y-13008250D01*
X16359367Y-13008620D01*
X16358333Y-13008992D01*
X16357300Y-13009365D01*
X16356269Y-13009739D01*
X16355240Y-13010115D01*
X16354213Y-13010493D01*
X16353187Y-13010872D01*
X16352164Y-13011252D01*
X16351142Y-13011634D01*
X16350122Y-13012017D01*
X16349104Y-13012402D01*
X16348088Y-13012788D01*
X16347074Y-13013176D01*
X16346061Y-13013565D01*
X16345051Y-13013955D01*
X16344042Y-13014347D01*
X16343035Y-13014741D01*
X16342029Y-13015135D01*
X16341026Y-13015532D01*
X16340024Y-13015929D01*
X16339024Y-13016328D01*
X16338026Y-13016729D01*
X16337030Y-13017131D01*
X16336035Y-13017534D01*
X16335043Y-13017939D01*
X16334052Y-13018346D01*
X16333062Y-13018753D01*
X16332075Y-13019162D01*
X16331090Y-13019573D01*
X16330106Y-13019985D01*
X16329124Y-13020398D01*
X16328143Y-13020813D01*
X16327165Y-13021229D01*
X16326188Y-13021647D01*
X16325213Y-13022066D01*
X16324240Y-13022487D01*
X16323268Y-13022909D01*
X16322299Y-13023332D01*
X16321331Y-13023757D01*
X16320365Y-13024183D01*
X16319400Y-13024611D01*
X16318437Y-13025040D01*
X16317476Y-13025470D01*
X16316517Y-13025902D01*
X16315560Y-13026335D01*
X16314604Y-13026770D01*
X16313650Y-13027206D01*
X16312697Y-13027644D01*
X16311747Y-13028083D01*
X16310798Y-13028523D01*
X16309850Y-13028965D01*
X16308905Y-13029408D01*
X16307961Y-13029852D01*
X16307019Y-13030298D01*
X16306079Y-13030746D01*
X16305140Y-13031194D01*
X16304203Y-13031644D01*
X16303268Y-13032096D01*
X16302334Y-13032549D01*
X16301402Y-13033003D01*
X16300472Y-13033459D01*
X16299544Y-13033916D01*
X16298617Y-13034375D01*
X16297692Y-13034835D01*
X16296768Y-13035296D01*
X16295846Y-13035759D01*
X16294926Y-13036223D01*
X16294008Y-13036689D01*
X16293091Y-13037156D01*
X16292176Y-13037624D01*
X16291262Y-13038094D01*
X16290350Y-13038565D01*
X16289440Y-13039037D01*
X16288532Y-13039511D01*
X16287625Y-13039987D01*
X16286720Y-13040463D01*
X16285816Y-13040941D01*
X16284914Y-13041421D01*
X16284014Y-13041902D01*
X16283115Y-13042384D01*
X16282218Y-13042868D01*
X16281323Y-13043353D01*
X16280429Y-13043839D01*
X16279537Y-13044327D01*
X16278646Y-13044816D01*
X16277758Y-13045307D01*
X16276870Y-13045799D01*
X16275985Y-13046292D01*
X16275101Y-13046787D01*
X16274218Y-13047283D01*
X16273337Y-13047781D01*
X16272458Y-13048279D01*
X16270705Y-13049281D01*
X16268958Y-13050289D01*
X16267217Y-13051302D01*
X16265483Y-13052321D01*
X16263754Y-13053345D01*
X16262033Y-13054375D01*
X16260317Y-13055410D01*
X16258608Y-13056451D01*
X16256905Y-13057497D01*
X16255209Y-13058549D01*
X16253518Y-13059606D01*
X16251834Y-13060669D01*
X16250156Y-13061738D01*
X16248485Y-13062812D01*
X16246819Y-13063891D01*
X16245160Y-13064976D01*
X16243506Y-13066067D01*
X16241859Y-13067163D01*
X16240218Y-13068265D01*
X16238583Y-13069372D01*
X16236954Y-13070485D01*
X16235331Y-13071603D01*
X16233715Y-13072727D01*
X16232104Y-13073856D01*
X16230499Y-13074991D01*
X16228900Y-13076132D01*
X16227307Y-13077278D01*
X16225720Y-13078429D01*
X16224139Y-13079586D01*
X16222564Y-13080749D01*
X16220995Y-13081917D01*
X16219432Y-13083091D01*
X16217875Y-13084271D01*
X16216323Y-13085456D01*
X16214778Y-13086647D01*
X16213238Y-13087843D01*
X16211704Y-13089045D01*
X16210176Y-13090252D01*
X16208653Y-13091465D01*
X16207137Y-13092684D01*
X16205626Y-13093908D01*
X16204121Y-13095138D01*
X16202622Y-13096373D01*
X16201128Y-13097614D01*
X16199640Y-13098861D01*
X16198158Y-13100114D01*
X16196682Y-13101372D01*
X16195211Y-13102635D01*
X16193746Y-13103905D01*
X16192286Y-13105180D01*
X16190832Y-13106461D01*
X16189384Y-13107747D01*
X16187942Y-13109039D01*
X16186505Y-13110337D01*
X16185073Y-13111640D01*
X16183648Y-13112950D01*
X16182227Y-13114265D01*
X16180813Y-13115585D01*
X16179404Y-13116912D01*
X16178000Y-13118244D01*
X16176602Y-13119582D01*
X16175210Y-13120926D01*
X16173823Y-13122275D01*
X16172442Y-13123630D01*
X16171066Y-13124992D01*
X16169696Y-13126358D01*
X16168331Y-13127731D01*
X16166971Y-13129110D01*
X16165617Y-13130494D01*
X16164269Y-13131884D01*
X16162926Y-13133280D01*
X16161588Y-13134682D01*
X16160256Y-13136090D01*
X16158929Y-13137504D01*
X16157608Y-13138923D01*
X16156292Y-13140349D01*
X16154982Y-13141780D01*
X16153677Y-13143218D01*
X16152377Y-13144661D01*
X16151083Y-13146110D01*
X16149794Y-13147565D01*
X16148510Y-13149027D01*
X16147232Y-13150494D01*
X16145959Y-13151967D01*
X16144692Y-13153446D01*
X16143430Y-13154931D01*
X16142173Y-13156423D01*
X16140922Y-13157920D01*
X16139676Y-13159424D01*
X16138435Y-13160933D01*
X16137200Y-13162449D01*
X16135970Y-13163970D01*
X16134745Y-13165498D01*
X16133526Y-13167032D01*
X16132312Y-13168572D01*
X16131103Y-13170119D01*
X16129900Y-13171671D01*
X16128702Y-13173230D01*
X16127509Y-13174794D01*
X16126321Y-13176366D01*
X16125139Y-13177943D01*
X16123962Y-13179526D01*
X16122791Y-13181116D01*
X16121624Y-13182712D01*
X16120463Y-13184315D01*
X16119308Y-13185924D01*
X16118157Y-13187539D01*
X16117012Y-13189160D01*
X16115873Y-13190788D01*
X16114738Y-13192422D01*
X16113609Y-13194062D01*
X16112485Y-13195709D01*
X16111366Y-13197363D01*
X16110253Y-13199022D01*
X16109145Y-13200688D01*
X16108042Y-13202361D01*
X16106945Y-13204040D01*
X16105853Y-13205726D01*
X16104766Y-13207418D01*
X16103684Y-13209117D01*
X16102608Y-13210822D01*
X16101537Y-13212534D01*
X16100472Y-13214252D01*
X16099411Y-13215977D01*
X16098356Y-13217709D01*
X16097307Y-13219447D01*
X16096262Y-13221192D01*
X16095223Y-13222944D01*
X16094189Y-13224702D01*
X16093161Y-13226467D01*
X16092138Y-13228239D01*
X16091120Y-13230017D01*
X16090108Y-13231802D01*
X16089101Y-13233594D01*
X16088099Y-13235393D01*
X16087103Y-13237199D01*
X16086112Y-13239011D01*
X16085126Y-13240830D01*
X16084146Y-13242657D01*
X16083171Y-13244490D01*
X16082202Y-13246329D01*
X16081238Y-13248176D01*
X16080279Y-13250030D01*
X16079326Y-13251891D01*
X16078378Y-13253758D01*
X16077435Y-13255633D01*
X16076498Y-13257515D01*
X16075566Y-13259403D01*
X16074640Y-13261299D01*
X16073719Y-13263202D01*
X16072804Y-13265112D01*
X16071894Y-13267029D01*
X16070990Y-13268953D01*
X16070091Y-13270884D01*
X16069198Y-13272823D01*
X16068310Y-13274768D01*
X16067427Y-13276721D01*
X16066550Y-13278681D01*
X16065679Y-13280648D01*
X16064813Y-13282623D01*
X16063953Y-13284605D01*
X16063098Y-13286594D01*
X16062249Y-13288590D01*
X16061405Y-13290594D01*
X16060567Y-13292605D01*
X16059734Y-13294623D01*
X16058907Y-13296649D01*
X16058086Y-13298682D01*
X16057270Y-13300723D01*
X16056460Y-13302771D01*
X16055656Y-13304826D01*
X16054857Y-13306889D01*
X16054064Y-13308960D01*
X16053277Y-13311038D01*
X16052495Y-13313123D01*
X16051719Y-13315216D01*
X16050949Y-13317317D01*
X16050184Y-13319425D01*
X16049425Y-13321541D01*
X16048672Y-13323664D01*
X16047925Y-13325795D01*
X16047183Y-13327934D01*
X16046448Y-13330081D01*
X16045718Y-13332235D01*
X16044993Y-13334397D01*
X16044275Y-13336566D01*
X16043563Y-13338743D01*
X16042856Y-13340929D01*
X16042156Y-13343121D01*
X16041461Y-13345322D01*
X16040772Y-13347531D01*
X16040089Y-13349747D01*
X16039412Y-13351971D01*
X16038741Y-13354203D01*
X16038076Y-13356443D01*
X16037417Y-13358691D01*
X16036764Y-13360947D01*
X16036117Y-13363210D01*
X16035475Y-13365482D01*
X16034841Y-13367762D01*
X16034212Y-13370049D01*
X16033589Y-13372345D01*
X16032972Y-13374648D01*
X16032361Y-13376960D01*
X16031757Y-13379280D01*
X16031159Y-13381608D01*
X16030566Y-13383944D01*
X16029980Y-13386287D01*
X16029401Y-13388640D01*
X16028827Y-13391000D01*
X16028260Y-13393368D01*
X16027699Y-13395745D01*
X16027144Y-13398129D01*
X16026595Y-13400522D01*
X16026053Y-13402923D01*
X16025517Y-13405333D01*
X16024988Y-13407750D01*
X16024465Y-13410176D01*
X16023948Y-13412610D01*
X16023438Y-13415053D01*
X16022934Y-13417503D01*
X16022437Y-13419962D01*
X16021946Y-13422429D01*
X16021461Y-13424905D01*
X16020983Y-13427389D01*
X16020512Y-13429881D01*
X16020047Y-13432381D01*
X16019588Y-13434890D01*
X16019137Y-13437408D01*
X16018692Y-13439933D01*
X16018253Y-13442467D01*
X16017821Y-13445010D01*
X16017396Y-13447561D01*
X16016978Y-13450120D01*
X16016566Y-13452688D01*
X16016161Y-13455264D01*
X16015762Y-13457849D01*
X16015371Y-13460442D01*
X16014986Y-13463043D01*
X16014608Y-13465653D01*
X16014237Y-13468272D01*
X16013873Y-13470899D01*
X16013516Y-13473534D01*
X16013165Y-13476178D01*
X16012822Y-13478831D01*
X16012485Y-13481492D01*
X16012156Y-13484161D01*
X16011833Y-13486839D01*
X16011518Y-13489526D01*
X16011209Y-13492221D01*
X16010908Y-13494924D01*
X16010613Y-13497637D01*
X16010326Y-13500357D01*
X16010046Y-13503086D01*
X16009773Y-13505824D01*
X16009507Y-13508570D01*
X16009249Y-13511325D01*
X16008997Y-13514088D01*
X16008753Y-13516860D01*
X16008516Y-13519640D01*
X16008287Y-13522428D01*
X16008064Y-13525226D01*
X16007849Y-13528031D01*
X16007642Y-13530845D01*
X16007442Y-13533668D01*
X16007249Y-13536499D01*
X16007063Y-13539339D01*
X16006885Y-13542187D01*
X16006715Y-13545043D01*
X16006552Y-13547908D01*
X16006396Y-13550782D01*
X16006248Y-13553663D01*
X16006108Y-13556553D01*
X16005975Y-13559452D01*
X16005850Y-13562359D01*
X16005732Y-13565274D01*
X16005622Y-13568198D01*
X16005520Y-13571129D01*
X16005426Y-13574070D01*
X16005339Y-13577018D01*
X16005260Y-13579975D01*
X16005188Y-13582940D01*
X16005125Y-13585913D01*
X16005069Y-13588894D01*
X16005021Y-13591884D01*
X16004981Y-13594881D01*
X16004949Y-13597887D01*
X16004924Y-13600901D01*
X16004908Y-13603922D01*
X16004899Y-13606952D01*
X16004899Y-13609990D01*
X16004906Y-13613036D01*
X16004922Y-13616089D01*
X16004945Y-13619150D01*
X16004977Y-13622220D01*
X16005016Y-13625297D01*
X16005064Y-13628381D01*
X16005119Y-13631474D01*
X16005183Y-13634574D01*
X16005255Y-13637681D01*
X16005335Y-13640797D01*
X16005423Y-13643919D01*
X16005520Y-13647049D01*
X16005624Y-13650187D01*
X16005737Y-13653331D01*
X16005858Y-13656483D01*
X16005988Y-13659642D01*
X16006125Y-13662808D01*
X16006271Y-13665982D01*
X16006425Y-13669162D01*
X16006588Y-13672349D01*
X16006759Y-13675543D01*
X16006938Y-13678743D01*
X16007125Y-13681951D01*
X16007321Y-13685164D01*
X16007525Y-13688385D01*
X16007738Y-13691611D01*
X16007959Y-13694844D01*
X16008188Y-13698083D01*
X16008426Y-13701328D01*
X16008672Y-13704579D01*
X16008927Y-13707836D01*
X16009190Y-13711099D01*
X16009462Y-13714367D01*
X16009742Y-13717641D01*
X16010030Y-13720920D01*
X16010327Y-13724204D01*
X16010632Y-13727494D01*
X16010946Y-13730788D01*
X16011268Y-13734087D01*
X16011599Y-13737391D01*
X16011938Y-13740699D01*
X16012286Y-13744012D01*
X16012642Y-13747329D01*
X16013006Y-13750649D01*
X16013379Y-13753974D01*
X16013760Y-13757302D01*
X16014150Y-13760633D01*
X16014548Y-13763967D01*
X16014954Y-13767305D01*
X16015369Y-13770645D01*
X16015792Y-13773988D01*
X16016223Y-13777333D01*
X16016662Y-13780679D01*
X16017110Y-13784028D01*
X16017566Y-13787378D01*
X16018030Y-13790729D01*
X16018503Y-13794081D01*
X16018983Y-13797434D01*
X16019471Y-13800787D01*
X16019968Y-13804139D01*
X16020472Y-13807492D01*
X16020984Y-13810843D01*
X16021504Y-13814193D01*
X16022032Y-13817542D01*
X16022568Y-13820888D01*
X16023111Y-13824232D01*
X16023662Y-13827573D01*
X16024220Y-13830910D01*
X16024786Y-13834244D01*
X16025358Y-13837573D01*
X16025938Y-13840897D01*
X16026525Y-13844215D01*
X16027119Y-13847527D01*
X16027720Y-13850832D01*
X16028327Y-13854130D01*
X16028941Y-13857419D01*
X16029561Y-13860698D01*
X16030188Y-13863968D01*
X16030820Y-13867227D01*
X16031458Y-13870474D01*
X16032101Y-13873708D01*
X16032750Y-13876929D01*
X16033404Y-13880134D01*
X16034062Y-13883324D01*
X16034725Y-13886495D01*
X16035392Y-13889648D01*
X16036063Y-13892780D01*
X16036737Y-13895891D01*
X16037414Y-13898977D01*
X16038093Y-13902038D01*
X16038774Y-13905070D01*
X16039456Y-13908073D01*
X16040139Y-13911042D01*
X16040821Y-13913977D01*
X16041502Y-13916872D01*
X16042182Y-13919725D01*
X16042858Y-13922532D01*
X16043530Y-13925287D01*
X16044196Y-13927987D01*
X16044855Y-13930625D01*
X16045504Y-13933193D01*
X16046142Y-13935682D01*
X16046764Y-13938083D01*
X16047367Y-13940382D01*
X16047947Y-13942561D01*
X16048496Y-13944597D01*
X16049003Y-13946454D01*
X16049454Y-13948078D01*
X16049816Y-13949361D01*
X16050000Y-13950000D01*
X16950000Y-13000000D02*
X16950000Y-5800000D01*
D11*
D12*
X11325000Y-9265000D02*
X11355000Y-9295000D01*
X11355000Y-9265000D02*
X11325000Y-9295000D01*
X11405000Y-6515000D02*
X11435000Y-6545000D01*
X11435000Y-6515000D02*
X11405000Y-6545000D01*
X11415000Y-10195000D02*
X11445000Y-10225000D01*
X11445000Y-10195000D02*
X11415000Y-10225000D01*
X11495000Y-7705000D02*
X11525000Y-7735000D01*
X11525000Y-7705000D02*
X11495000Y-7735000D01*
X11515000Y-8385000D02*
X11545000Y-8415000D01*
X11545000Y-8385000D02*
X11515000Y-8415000D01*
X11587500Y-8225000D02*
X11617500Y-8255000D01*
X11617500Y-8225000D02*
X11587500Y-8255000D01*
X11595000Y-8525000D02*
X11625000Y-8555000D01*
X11625000Y-8525000D02*
X11595000Y-8555000D01*
X11705000Y-9025000D02*
X11735000Y-9055000D01*
X11735000Y-9025000D02*
X11705000Y-9055000D01*
X11725000Y-8100000D02*
X11755000Y-8130000D01*
X11755000Y-8100000D02*
X11725000Y-8130000D01*
X11865000Y-9635000D02*
X11895000Y-9665000D01*
X11895000Y-9635000D02*
X11865000Y-9665000D01*
X11895000Y-9785000D02*
X11925000Y-9815000D01*
X11925000Y-9785000D02*
X11895000Y-9815000D01*
X11905000Y-8765000D02*
X11935000Y-8795000D01*
X11935000Y-8765000D02*
X11905000Y-8795000D01*
X11917500Y-7685000D02*
X11947500Y-7715000D01*
X11947500Y-7685000D02*
X11917500Y-7715000D01*
X11925000Y-8255000D02*
X11955000Y-8285000D01*
X11955000Y-8255000D02*
X11925000Y-8285000D01*
X12065000Y-9175000D02*
X12095000Y-9205000D01*
X12095000Y-9175000D02*
X12065000Y-9205000D01*
X12065000Y-9265000D02*
X12095000Y-9295000D01*
X12095000Y-9265000D02*
X12065000Y-9295000D01*
X12065000Y-9785000D02*
X12095000Y-9815000D01*
X12095000Y-9785000D02*
X12065000Y-9815000D01*
X12105000Y-7055000D02*
X12135000Y-7085000D01*
X12135000Y-7055000D02*
X12105000Y-7085000D01*
X12165000Y-11115000D02*
X12195000Y-11145000D01*
X12195000Y-11115000D02*
X12165000Y-11145000D01*
X12175000Y-9405000D02*
X12205000Y-9435000D01*
X12205000Y-9405000D02*
X12175000Y-9435000D01*
X12175000Y-9715000D02*
X12205000Y-9745000D01*
X12205000Y-9715000D02*
X12175000Y-9745000D01*
X12215000Y-10365000D02*
X12245000Y-10395000D01*
X12245000Y-10365000D02*
X12215000Y-10395000D01*
X12315000Y-10335000D02*
X12345000Y-10365000D01*
X12345000Y-10335000D02*
X12315000Y-10365000D01*
X12357500Y-5627500D02*
X12387500Y-5657500D01*
X12387500Y-5627500D02*
X12357500Y-5657500D01*
X12357500Y-5747500D02*
X12387500Y-5777500D01*
X12387500Y-5747500D02*
X12357500Y-5777500D01*
X12405000Y-12015000D02*
X12435000Y-12045000D01*
X12435000Y-12015000D02*
X12405000Y-12045000D01*
X12405000Y-12115000D02*
X12435000Y-12145000D01*
X12435000Y-12115000D02*
X12405000Y-12145000D01*
X12485000Y-9195000D02*
X12515000Y-9225000D01*
X12515000Y-9195000D02*
X12485000Y-9225000D01*
X12497500Y-5627500D02*
X12527500Y-5657500D01*
X12527500Y-5627500D02*
X12497500Y-5657500D01*
X12497500Y-5747500D02*
X12527500Y-5777500D01*
X12527500Y-5747500D02*
X12497500Y-5777500D01*
X12525000Y-9585000D02*
X12555000Y-9615000D01*
X12555000Y-9585000D02*
X12525000Y-9615000D01*
X12525000Y-12015000D02*
X12555000Y-12045000D01*
X12555000Y-12015000D02*
X12525000Y-12045000D01*
X12525000Y-12115000D02*
X12555000Y-12145000D01*
X12555000Y-12115000D02*
X12525000Y-12145000D01*
X12555000Y-6995000D02*
X12585000Y-7025000D01*
X12585000Y-6995000D02*
X12555000Y-7025000D01*
X12605000Y-7255000D02*
X12635000Y-7285000D01*
X12635000Y-7255000D02*
X12605000Y-7285000D01*
X12678989Y-7285533D02*
X12708989Y-7315533D01*
X12708989Y-7285533D02*
X12678989Y-7315533D01*
X12745450Y-6251013D02*
X12775450Y-6281013D01*
X12775450Y-6251013D02*
X12745450Y-6281013D01*
X12763664Y-7281062D02*
X12793664Y-7311062D01*
X12793664Y-7281062D02*
X12763664Y-7311062D01*
X12765000Y-5635000D02*
X12795000Y-5665000D01*
X12795000Y-5635000D02*
X12765000Y-5665000D01*
X12765000Y-5875000D02*
X12795000Y-5905000D01*
X12795000Y-5875000D02*
X12765000Y-5905000D01*
X12847049Y-7264571D02*
X12877049Y-7294571D01*
X12877049Y-7264571D02*
X12847049Y-7294571D01*
X12860222Y-5970697D02*
X12890222Y-6000697D01*
X12890222Y-5970697D02*
X12860222Y-6000697D01*
X12875000Y-6465000D02*
X12905000Y-6495000D01*
X12905000Y-6465000D02*
X12875000Y-6495000D01*
X12885000Y-9125000D02*
X12915000Y-9155000D01*
X12915000Y-9125000D02*
X12885000Y-9155000D01*
X12895000Y-9215000D02*
X12925000Y-9245000D01*
X12925000Y-9215000D02*
X12895000Y-9245000D01*
X12921000Y-7222662D02*
X12951000Y-7252662D01*
X12951000Y-7222662D02*
X12921000Y-7252662D01*
X12945000Y-10135000D02*
X12975000Y-10165000D01*
X12975000Y-10135000D02*
X12945000Y-10165000D01*
X12995000Y-7685000D02*
X13025000Y-7715000D01*
X13025000Y-7685000D02*
X12995000Y-7715000D01*
X13005000Y-7605000D02*
X13035000Y-7635000D01*
X13035000Y-7605000D02*
X13005000Y-7635000D01*
X13005000Y-7765000D02*
X13035000Y-7795000D01*
X13035000Y-7765000D02*
X13005000Y-7795000D01*
X13005000Y-7845000D02*
X13035000Y-7875000D01*
X13035000Y-7845000D02*
X13005000Y-7875000D01*
X13015000Y-7525000D02*
X13045000Y-7555000D01*
X13045000Y-7525000D02*
X13015000Y-7555000D01*
X13265000Y-7155000D02*
X13295000Y-7185000D01*
X13295000Y-7155000D02*
X13265000Y-7185000D01*
X13355000Y-12745000D02*
X13385000Y-12775000D01*
X13385000Y-12745000D02*
X13355000Y-12775000D01*
X13355000Y-12845000D02*
X13385000Y-12875000D01*
X13385000Y-12845000D02*
X13355000Y-12875000D01*
X13395000Y-5655000D02*
X13425000Y-5685000D01*
X13425000Y-5655000D02*
X13395000Y-5685000D01*
X13455000Y-12745000D02*
X13485000Y-12775000D01*
X13485000Y-12745000D02*
X13455000Y-12775000D01*
X13455000Y-12845000D02*
X13485000Y-12875000D01*
X13485000Y-12845000D02*
X13455000Y-12875000D01*
X13802523Y-8853736D02*
X13832523Y-8883736D01*
X13832523Y-8853736D02*
X13802523Y-8883736D01*
X13855000Y-5885000D02*
X13885000Y-5915000D01*
X13885000Y-5885000D02*
X13855000Y-5915000D01*
X13855000Y-8520000D02*
X13885000Y-8550000D01*
X13885000Y-8520000D02*
X13855000Y-8550000D01*
X13905000Y-9415000D02*
X13935000Y-9445000D01*
X13935000Y-9415000D02*
X13905000Y-9445000D01*
X13905000Y-10015000D02*
X13935000Y-10045000D01*
X13935000Y-10015000D02*
X13905000Y-10045000D01*
X13935000Y-8445000D02*
X13965000Y-8475000D01*
X13965000Y-8445000D02*
X13935000Y-8475000D01*
X13945000Y-13035000D02*
X13975000Y-13065000D01*
X13975000Y-13035000D02*
X13945000Y-13065000D01*
X13981385Y-12831385D02*
X14011385Y-12861385D01*
X14011385Y-12831385D02*
X13981385Y-12861385D01*
X13985000Y-8915000D02*
X14015000Y-8945000D01*
X14015000Y-8915000D02*
X13985000Y-8945000D01*
X13985000Y-9510000D02*
X14015000Y-9540000D01*
X14015000Y-9510000D02*
X13985000Y-9540000D01*
X13985000Y-12555000D02*
X14015000Y-12585000D01*
X14015000Y-12555000D02*
X13985000Y-12585000D01*
X14125000Y-12625000D02*
X14155000Y-12655000D01*
X14155000Y-12625000D02*
X14125000Y-12655000D01*
X14195000Y-8680000D02*
X14225000Y-8710000D01*
X14225000Y-8680000D02*
X14195000Y-8710000D01*
X14215000Y-10375000D02*
X14245000Y-10405000D01*
X14245000Y-10375000D02*
X14215000Y-10405000D01*
X14285000Y-8445000D02*
X14315000Y-8475000D01*
X14315000Y-8445000D02*
X14285000Y-8475000D01*
X14290000Y-6915000D02*
X14320000Y-6945000D01*
X14320000Y-6915000D02*
X14290000Y-6945000D01*
X14295000Y-12625000D02*
X14325000Y-12655000D01*
X14325000Y-12625000D02*
X14295000Y-12655000D01*
X14305000Y-10065000D02*
X14335000Y-10095000D01*
X14335000Y-10065000D02*
X14305000Y-10095000D01*
X14305000Y-10185000D02*
X14335000Y-10215000D01*
X14335000Y-10185000D02*
X14305000Y-10215000D01*
X14316399Y-7628141D02*
X14346399Y-7658141D01*
X14346399Y-7628141D02*
X14316399Y-7658141D01*
X14370000Y-6915000D02*
X14400000Y-6945000D01*
X14400000Y-6915000D02*
X14370000Y-6945000D01*
X14387500Y-8845000D02*
X14417500Y-8875000D01*
X14417500Y-8845000D02*
X14387500Y-8875000D01*
X14405000Y-7635000D02*
X14435000Y-7665000D01*
X14435000Y-7635000D02*
X14405000Y-7665000D01*
X14445000Y-10065000D02*
X14475000Y-10095000D01*
X14475000Y-10065000D02*
X14445000Y-10095000D01*
X14445000Y-10185000D02*
X14475000Y-10215000D01*
X14475000Y-10185000D02*
X14445000Y-10215000D01*
X14455000Y-6915000D02*
X14485000Y-6945000D01*
X14485000Y-6915000D02*
X14455000Y-6945000D01*
X14487270Y-7627270D02*
X14517270Y-7657270D01*
X14517270Y-7627270D02*
X14487270Y-7657270D01*
X14525000Y-6775000D02*
X14555000Y-6805000D01*
X14555000Y-6775000D02*
X14525000Y-6805000D01*
X14535000Y-6915000D02*
X14565000Y-6945000D01*
X14565000Y-6915000D02*
X14535000Y-6945000D01*
X14542500Y-8520000D02*
X14572500Y-8550000D01*
X14572500Y-8520000D02*
X14542500Y-8550000D01*
X14542500Y-8680000D02*
X14572500Y-8710000D01*
X14572500Y-8680000D02*
X14542500Y-8710000D01*
X14575000Y-7635000D02*
X14605000Y-7665000D01*
X14605000Y-7635000D02*
X14575000Y-7665000D01*
X14645000Y-10375000D02*
X14675000Y-10405000D01*
X14675000Y-10375000D02*
X14645000Y-10405000D01*
X14705000Y-12375000D02*
X14735000Y-12405000D01*
X14735000Y-12375000D02*
X14705000Y-12405000D01*
X14705000Y-12495000D02*
X14735000Y-12525000D01*
X14735000Y-12495000D02*
X14705000Y-12525000D01*
X14735000Y-9035000D02*
X14765000Y-9065000D01*
X14765000Y-9035000D02*
X14735000Y-9065000D01*
X14735000Y-9260000D02*
X14765000Y-9290000D01*
X14765000Y-9260000D02*
X14735000Y-9290000D01*
X14825000Y-12375000D02*
X14855000Y-12405000D01*
X14855000Y-12375000D02*
X14825000Y-12405000D01*
X14830759Y-12490759D02*
X14860759Y-12520759D01*
X14860759Y-12490759D02*
X14830759Y-12520759D01*
X14955000Y-9022500D02*
X14985000Y-9052500D01*
X14985000Y-9022500D02*
X14955000Y-9052500D01*
X15085000Y-5635000D02*
X15115000Y-5665000D01*
X15115000Y-5635000D02*
X15085000Y-5665000D01*
X15215000Y-6145000D02*
X15245000Y-6175000D01*
X15245000Y-6145000D02*
X15215000Y-6175000D01*
X15215000Y-11215000D02*
X15245000Y-11245000D01*
X15245000Y-11215000D02*
X15215000Y-11245000D01*
X15295000Y-5792500D02*
X15325000Y-5822500D01*
X15325000Y-5792500D02*
X15295000Y-5822500D01*
X15475000Y-10855000D02*
X15505000Y-10885000D01*
X15505000Y-10855000D02*
X15475000Y-10885000D01*
X15475000Y-11355000D02*
X15505000Y-11385000D01*
X15505000Y-11355000D02*
X15475000Y-11385000D01*
X15480000Y-10525000D02*
X15510000Y-10555000D01*
X15510000Y-10525000D02*
X15480000Y-10555000D01*
X15535000Y-8155000D02*
X15565000Y-8185000D01*
X15565000Y-8155000D02*
X15535000Y-8185000D01*
X15615000Y-7765000D02*
X15645000Y-7795000D01*
X15645000Y-7765000D02*
X15615000Y-7795000D01*
X15785000Y-11965000D02*
X15815000Y-11995000D01*
X15815000Y-11965000D02*
X15785000Y-11995000D01*
X15785000Y-12065000D02*
X15815000Y-12095000D01*
X15815000Y-12065000D02*
X15785000Y-12095000D01*
X15815000Y-10525000D02*
X15845000Y-10555000D01*
X15845000Y-10525000D02*
X15815000Y-10555000D01*
X15815000Y-10755000D02*
X15845000Y-10785000D01*
X15845000Y-10755000D02*
X15815000Y-10785000D01*
X15815000Y-10835000D02*
X15845000Y-10865000D01*
X15845000Y-10835000D02*
X15815000Y-10865000D01*
X15905000Y-11965000D02*
X15935000Y-11995000D01*
X15935000Y-11965000D02*
X15905000Y-11995000D01*
X15905000Y-12065000D02*
X15935000Y-12095000D01*
X15935000Y-12065000D02*
X15905000Y-12095000D01*
X16025000Y-7695000D02*
X16055000Y-7725000D01*
X16055000Y-7695000D02*
X16025000Y-7725000D01*
X16095000Y-11275000D02*
X16125000Y-11305000D01*
X16125000Y-11275000D02*
X16095000Y-11305000D01*
X16095000Y-11355000D02*
X16125000Y-11385000D01*
X16125000Y-11355000D02*
X16095000Y-11385000D01*
X16475000Y-9925000D02*
X16505000Y-9955000D01*
X16505000Y-9925000D02*
X16475000Y-9955000D01*
X13715000Y-6109000D02*
G75*
G02*
X13685000Y-6109000I-15000J0D01*
G01*
X13685000Y-6109000D02*
G75*
G02*
X13715000Y-6109000I15000J0D01*
G01*
X13715000Y-6259000D02*
G75*
G02*
X13685000Y-6259000I-15000J0D01*
G01*
X13685000Y-6259000D02*
G75*
G02*
X13715000Y-6259000I15000J0D01*
G01*
X13790000Y-6034000D02*
G75*
G02*
X13760000Y-6034000I-15000J0D01*
G01*
X13760000Y-6034000D02*
G75*
G02*
X13790000Y-6034000I15000J0D01*
G01*
X13790000Y-6184000D02*
G75*
G02*
X13760000Y-6184000I-15000J0D01*
G01*
X13760000Y-6184000D02*
G75*
G02*
X13790000Y-6184000I15000J0D01*
G01*
X13790000Y-6334000D02*
G75*
G02*
X13760000Y-6334000I-15000J0D01*
G01*
X13760000Y-6334000D02*
G75*
G02*
X13790000Y-6334000I15000J0D01*
G01*
X13865000Y-6109000D02*
G75*
G02*
X13835000Y-6109000I-15000J0D01*
G01*
X13835000Y-6109000D02*
G75*
G02*
X13865000Y-6109000I15000J0D01*
G01*
X13865000Y-6259000D02*
G75*
G02*
X13835000Y-6259000I-15000J0D01*
G01*
X13835000Y-6259000D02*
G75*
G02*
X13865000Y-6259000I15000J0D01*
G01*
X13940000Y-6034000D02*
G75*
G02*
X13910000Y-6034000I-15000J0D01*
G01*
X13910000Y-6034000D02*
G75*
G02*
X13940000Y-6034000I15000J0D01*
G01*
X13940000Y-6184000D02*
G75*
G02*
X13910000Y-6184000I-15000J0D01*
G01*
X13910000Y-6184000D02*
G75*
G02*
X13940000Y-6184000I15000J0D01*
G01*
X13940000Y-6334000D02*
G75*
G02*
X13910000Y-6334000I-15000J0D01*
G01*
X13910000Y-6334000D02*
G75*
G02*
X13940000Y-6334000I15000J0D01*
G01*
X14015000Y-6109000D02*
G75*
G02*
X13985000Y-6109000I-15000J0D01*
G01*
X13985000Y-6109000D02*
G75*
G02*
X14015000Y-6109000I15000J0D01*
G01*
X14015000Y-6259000D02*
G75*
G02*
X13985000Y-6259000I-15000J0D01*
G01*
X13985000Y-6259000D02*
G75*
G02*
X14015000Y-6259000I15000J0D01*
G01*
X13578000Y-13257000D02*
X13578000Y-13317000D01*
X13548000Y-13287000D02*
X13608000Y-13287000D01*
X13548000Y-13232000D02*
X13548000Y-13342000D01*
X13608000Y-13342000D02*
G75*
G02*
X13548000Y-13342000I-30000J0D01*
G01*
X13608000Y-13342000D02*
X13608000Y-13232000D01*
X13608000Y-13232000D02*
G75*
G03*
X13548000Y-13232000I-30000J0D01*
G01*
X13578000Y-13675000D02*
X13578000Y-13735000D01*
X13548000Y-13705000D02*
X13608000Y-13705000D01*
X13548000Y-13675000D02*
X13548000Y-13735000D01*
X13608000Y-13735000D02*
G75*
G02*
X13548000Y-13735000I-30000J0D01*
G01*
X13608000Y-13735000D02*
X13608000Y-13675000D01*
X13608000Y-13675000D02*
G75*
G03*
X13548000Y-13675000I-30000J0D01*
G01*
X14442000Y-13257000D02*
X14442000Y-13317000D01*
X14412000Y-13287000D02*
X14472000Y-13287000D01*
X14412000Y-13232000D02*
X14412000Y-13342000D01*
X14472000Y-13342000D02*
G75*
G02*
X14412000Y-13342000I-30000J0D01*
G01*
X14472000Y-13342000D02*
X14472000Y-13232000D01*
X14472000Y-13232000D02*
G75*
G03*
X14412000Y-13232000I-30000J0D01*
G01*
X14442000Y-13675000D02*
X14442000Y-13735000D01*
X14412000Y-13705000D02*
X14472000Y-13705000D01*
X14412000Y-13675000D02*
X14412000Y-13735000D01*
X14472000Y-13735000D02*
G75*
G02*
X14412000Y-13735000I-30000J0D01*
G01*
X14472000Y-13735000D02*
X14472000Y-13675000D01*
X14472000Y-13675000D02*
G75*
G03*
X14412000Y-13675000I-30000J0D01*
G01*
X11906517Y-9081517D02*
X11906517Y-9028483D01*
X11853483Y-9028483D01*
X11853483Y-9081517D01*
X11906517Y-9081517D01*
X12106517Y-9081517D02*
X12106517Y-9028483D01*
X12053483Y-9028483D01*
X12053483Y-9081517D01*
X12106517Y-9081517D01*
X13936517Y-11741517D02*
X13936517Y-11688483D01*
X13883483Y-11688483D01*
X13883483Y-11741517D01*
X13936517Y-11741517D01*
X14136517Y-11741517D02*
X14136517Y-11688483D01*
X14083483Y-11688483D01*
X14083483Y-11741517D01*
X14136517Y-11741517D01*
X15876517Y-7926517D02*
X15876517Y-7873483D01*
X15823483Y-7873483D01*
X15823483Y-7926517D01*
X15876517Y-7926517D01*
X16076517Y-7926517D02*
X16076517Y-7873483D01*
X16023483Y-7873483D01*
X16023483Y-7926517D01*
X16076517Y-7926517D01*
X16146517Y-10716517D02*
X16146517Y-10663483D01*
X16093483Y-10663483D01*
X16093483Y-10716517D01*
X16146517Y-10716517D01*
X16276517Y-7926517D02*
X16276517Y-7873483D01*
X16223483Y-7873483D01*
X16223483Y-7926517D01*
X16276517Y-7926517D01*
X16346517Y-10716517D02*
X16346517Y-10663483D01*
X16293483Y-10663483D01*
X16293483Y-10716517D01*
X16346517Y-10716517D01*
X16260000Y-8726000D02*
X16310000Y-8676000D01*
X16260000Y-8626000D01*
X16210000Y-8676000D01*
X16260000Y-8726000D01*
X16260000Y-8980000D02*
X16310000Y-8930000D01*
X16260000Y-8880000D01*
X16210000Y-8930000D01*
X16260000Y-8980000D01*
X16260000Y-9234000D02*
X16310000Y-9184000D01*
X16260000Y-9134000D01*
X16210000Y-9184000D01*
X16260000Y-9234000D01*
X16260000Y-9488000D02*
X16310000Y-9438000D01*
X16260000Y-9388000D01*
X16210000Y-9438000D01*
X16260000Y-9488000D01*
X16260000Y-9742000D02*
X16310000Y-9692000D01*
X16260000Y-9642000D01*
X16210000Y-9692000D01*
X16260000Y-9742000D01*
X16260000Y-9996000D02*
X16310000Y-9946000D01*
X16260000Y-9896000D01*
X16210000Y-9946000D01*
X16260000Y-9996000D01*
D11*
X11308277Y-14263984D02*
X11308277Y-14063984D01*
X11308277Y-14063984D02*
X11355896Y-14063984D01*
X11355896Y-14063984D02*
X11384467Y-14073508D01*
X11384467Y-14073508D02*
X11403515Y-14092555D01*
X11403515Y-14092555D02*
X11413039Y-14111603D01*
X11413039Y-14111603D02*
X11422562Y-14149698D01*
X11422562Y-14149698D02*
X11422562Y-14178269D01*
X11422562Y-14178269D02*
X11413039Y-14216365D01*
X11413039Y-14216365D02*
X11403515Y-14235412D01*
X11403515Y-14235412D02*
X11384467Y-14254460D01*
X11384467Y-14254460D02*
X11355896Y-14263984D01*
X11355896Y-14263984D02*
X11308277Y-14263984D01*
X11508277Y-14263984D02*
X11508277Y-14130650D01*
X11508277Y-14168746D02*
X11517801Y-14149698D01*
X11517801Y-14149698D02*
X11527324Y-14140174D01*
X11527324Y-14140174D02*
X11546372Y-14130650D01*
X11546372Y-14130650D02*
X11565420Y-14130650D01*
X11632086Y-14263984D02*
X11632086Y-14130650D01*
X11632086Y-14063984D02*
X11622562Y-14073508D01*
X11622562Y-14073508D02*
X11632086Y-14083031D01*
X11632086Y-14083031D02*
X11641610Y-14073508D01*
X11641610Y-14073508D02*
X11632086Y-14063984D01*
X11632086Y-14063984D02*
X11632086Y-14083031D01*
X11755896Y-14263984D02*
X11736848Y-14254460D01*
X11736848Y-14254460D02*
X11727324Y-14235412D01*
X11727324Y-14235412D02*
X11727324Y-14063984D01*
X11860658Y-14263984D02*
X11841610Y-14254460D01*
X11841610Y-14254460D02*
X11832086Y-14235412D01*
X11832086Y-14235412D02*
X11832086Y-14063984D01*
X12089229Y-14263984D02*
X12089229Y-14063984D01*
X12089229Y-14063984D02*
X12155896Y-14206841D01*
X12155896Y-14206841D02*
X12222562Y-14063984D01*
X12222562Y-14063984D02*
X12222562Y-14263984D01*
X12403515Y-14263984D02*
X12403515Y-14159222D01*
X12403515Y-14159222D02*
X12393991Y-14140174D01*
X12393991Y-14140174D02*
X12374943Y-14130650D01*
X12374943Y-14130650D02*
X12336848Y-14130650D01*
X12336848Y-14130650D02*
X12317801Y-14140174D01*
X12403515Y-14254460D02*
X12384467Y-14263984D01*
X12384467Y-14263984D02*
X12336848Y-14263984D01*
X12336848Y-14263984D02*
X12317801Y-14254460D01*
X12317801Y-14254460D02*
X12308277Y-14235412D01*
X12308277Y-14235412D02*
X12308277Y-14216365D01*
X12308277Y-14216365D02*
X12317801Y-14197317D01*
X12317801Y-14197317D02*
X12336848Y-14187793D01*
X12336848Y-14187793D02*
X12384467Y-14187793D01*
X12384467Y-14187793D02*
X12403515Y-14178269D01*
X12498753Y-14130650D02*
X12498753Y-14330650D01*
X12498753Y-14140174D02*
X12517801Y-14130650D01*
X12517801Y-14130650D02*
X12555896Y-14130650D01*
X12555896Y-14130650D02*
X12574943Y-14140174D01*
X12574943Y-14140174D02*
X12584467Y-14149698D01*
X12584467Y-14149698D02*
X12593991Y-14168746D01*
X12593991Y-14168746D02*
X12593991Y-14225888D01*
X12593991Y-14225888D02*
X12584467Y-14244936D01*
X12584467Y-14244936D02*
X12574943Y-14254460D01*
X12574943Y-14254460D02*
X12555896Y-14263984D01*
X12555896Y-14263984D02*
X12517801Y-14263984D01*
X12517801Y-14263984D02*
X12498753Y-14254460D01*
X12679705Y-14244936D02*
X12689229Y-14254460D01*
X12689229Y-14254460D02*
X12679705Y-14263984D01*
X12679705Y-14263984D02*
X12670182Y-14254460D01*
X12670182Y-14254460D02*
X12679705Y-14244936D01*
X12679705Y-14244936D02*
X12679705Y-14263984D01*
X12679705Y-14140174D02*
X12689229Y-14149698D01*
X12689229Y-14149698D02*
X12679705Y-14159222D01*
X12679705Y-14159222D02*
X12670182Y-14149698D01*
X12670182Y-14149698D02*
X12679705Y-14140174D01*
X12679705Y-14140174D02*
X12679705Y-14159222D01*
D12*
X11017500Y-14577500D02*
X11047500Y-14607500D01*
X11047500Y-14577500D02*
X11017500Y-14607500D01*
D11*
X11346372Y-14483984D02*
X11365420Y-14483984D01*
X11365420Y-14483984D02*
X11384467Y-14493508D01*
X11384467Y-14493508D02*
X11393991Y-14503031D01*
X11393991Y-14503031D02*
X11403515Y-14522079D01*
X11403515Y-14522079D02*
X11413039Y-14560174D01*
X11413039Y-14560174D02*
X11413039Y-14607793D01*
X11413039Y-14607793D02*
X11403515Y-14645888D01*
X11403515Y-14645888D02*
X11393991Y-14664936D01*
X11393991Y-14664936D02*
X11384467Y-14674460D01*
X11384467Y-14674460D02*
X11365420Y-14683984D01*
X11365420Y-14683984D02*
X11346372Y-14683984D01*
X11346372Y-14683984D02*
X11327324Y-14674460D01*
X11327324Y-14674460D02*
X11317801Y-14664936D01*
X11317801Y-14664936D02*
X11308277Y-14645888D01*
X11308277Y-14645888D02*
X11298753Y-14607793D01*
X11298753Y-14607793D02*
X11298753Y-14560174D01*
X11298753Y-14560174D02*
X11308277Y-14522079D01*
X11308277Y-14522079D02*
X11317801Y-14503031D01*
X11317801Y-14503031D02*
X11327324Y-14493508D01*
X11327324Y-14493508D02*
X11346372Y-14483984D01*
X11498753Y-14664936D02*
X11508277Y-14674460D01*
X11508277Y-14674460D02*
X11498753Y-14683984D01*
X11498753Y-14683984D02*
X11489229Y-14674460D01*
X11489229Y-14674460D02*
X11498753Y-14664936D01*
X11498753Y-14664936D02*
X11498753Y-14683984D01*
X11574943Y-14483984D02*
X11698753Y-14483984D01*
X11698753Y-14483984D02*
X11632086Y-14560174D01*
X11632086Y-14560174D02*
X11660658Y-14560174D01*
X11660658Y-14560174D02*
X11679705Y-14569698D01*
X11679705Y-14569698D02*
X11689229Y-14579222D01*
X11689229Y-14579222D02*
X11698753Y-14598269D01*
X11698753Y-14598269D02*
X11698753Y-14645888D01*
X11698753Y-14645888D02*
X11689229Y-14664936D01*
X11689229Y-14664936D02*
X11679705Y-14674460D01*
X11679705Y-14674460D02*
X11660658Y-14683984D01*
X11660658Y-14683984D02*
X11603515Y-14683984D01*
X11603515Y-14683984D02*
X11584467Y-14674460D01*
X11584467Y-14674460D02*
X11574943Y-14664936D01*
X11822562Y-14483984D02*
X11841610Y-14483984D01*
X11841610Y-14483984D02*
X11860658Y-14493508D01*
X11860658Y-14493508D02*
X11870182Y-14503031D01*
X11870182Y-14503031D02*
X11879705Y-14522079D01*
X11879705Y-14522079D02*
X11889229Y-14560174D01*
X11889229Y-14560174D02*
X11889229Y-14607793D01*
X11889229Y-14607793D02*
X11879705Y-14645888D01*
X11879705Y-14645888D02*
X11870182Y-14664936D01*
X11870182Y-14664936D02*
X11860658Y-14674460D01*
X11860658Y-14674460D02*
X11841610Y-14683984D01*
X11841610Y-14683984D02*
X11822562Y-14683984D01*
X11822562Y-14683984D02*
X11803515Y-14674460D01*
X11803515Y-14674460D02*
X11793991Y-14664936D01*
X11793991Y-14664936D02*
X11784467Y-14645888D01*
X11784467Y-14645888D02*
X11774943Y-14607793D01*
X11774943Y-14607793D02*
X11774943Y-14560174D01*
X11774943Y-14560174D02*
X11784467Y-14522079D01*
X11784467Y-14522079D02*
X11793991Y-14503031D01*
X11793991Y-14503031D02*
X11803515Y-14493508D01*
X11803515Y-14493508D02*
X11822562Y-14483984D01*
X12013039Y-14483984D02*
X12032086Y-14483984D01*
X12032086Y-14483984D02*
X12051134Y-14493508D01*
X12051134Y-14493508D02*
X12060658Y-14503031D01*
X12060658Y-14503031D02*
X12070182Y-14522079D01*
X12070182Y-14522079D02*
X12079705Y-14560174D01*
X12079705Y-14560174D02*
X12079705Y-14607793D01*
X12079705Y-14607793D02*
X12070182Y-14645888D01*
X12070182Y-14645888D02*
X12060658Y-14664936D01*
X12060658Y-14664936D02*
X12051134Y-14674460D01*
X12051134Y-14674460D02*
X12032086Y-14683984D01*
X12032086Y-14683984D02*
X12013039Y-14683984D01*
X12013039Y-14683984D02*
X11993991Y-14674460D01*
X11993991Y-14674460D02*
X11984467Y-14664936D01*
X11984467Y-14664936D02*
X11974943Y-14645888D01*
X11974943Y-14645888D02*
X11965420Y-14607793D01*
X11965420Y-14607793D02*
X11965420Y-14560174D01*
X11965420Y-14560174D02*
X11974943Y-14522079D01*
X11974943Y-14522079D02*
X11984467Y-14503031D01*
X11984467Y-14503031D02*
X11993991Y-14493508D01*
X11993991Y-14493508D02*
X12013039Y-14483984D01*
X12165420Y-14683984D02*
X12165420Y-14550650D01*
X12165420Y-14569698D02*
X12174943Y-14560174D01*
X12174943Y-14560174D02*
X12193991Y-14550650D01*
X12193991Y-14550650D02*
X12222563Y-14550650D01*
X12222563Y-14550650D02*
X12241610Y-14560174D01*
X12241610Y-14560174D02*
X12251134Y-14579222D01*
X12251134Y-14579222D02*
X12251134Y-14683984D01*
X12251134Y-14579222D02*
X12260658Y-14560174D01*
X12260658Y-14560174D02*
X12279705Y-14550650D01*
X12279705Y-14550650D02*
X12308277Y-14550650D01*
X12308277Y-14550650D02*
X12327324Y-14560174D01*
X12327324Y-14560174D02*
X12336848Y-14579222D01*
X12336848Y-14579222D02*
X12336848Y-14683984D01*
X12432086Y-14683984D02*
X12432086Y-14550650D01*
X12432086Y-14569698D02*
X12441610Y-14560174D01*
X12441610Y-14560174D02*
X12460658Y-14550650D01*
X12460658Y-14550650D02*
X12489229Y-14550650D01*
X12489229Y-14550650D02*
X12508277Y-14560174D01*
X12508277Y-14560174D02*
X12517801Y-14579222D01*
X12517801Y-14579222D02*
X12517801Y-14683984D01*
X12517801Y-14579222D02*
X12527324Y-14560174D01*
X12527324Y-14560174D02*
X12546372Y-14550650D01*
X12546372Y-14550650D02*
X12574943Y-14550650D01*
X12574943Y-14550650D02*
X12593991Y-14560174D01*
X12593991Y-14560174D02*
X12603515Y-14579222D01*
X12603515Y-14579222D02*
X12603515Y-14683984D01*
X12993991Y-14474460D02*
X12822563Y-14731603D01*
X13251134Y-14483984D02*
X13270182Y-14483984D01*
X13270182Y-14483984D02*
X13289229Y-14493508D01*
X13289229Y-14493508D02*
X13298753Y-14503031D01*
X13298753Y-14503031D02*
X13308277Y-14522079D01*
X13308277Y-14522079D02*
X13317801Y-14560174D01*
X13317801Y-14560174D02*
X13317801Y-14607793D01*
X13317801Y-14607793D02*
X13308277Y-14645888D01*
X13308277Y-14645888D02*
X13298753Y-14664936D01*
X13298753Y-14664936D02*
X13289229Y-14674460D01*
X13289229Y-14674460D02*
X13270182Y-14683984D01*
X13270182Y-14683984D02*
X13251134Y-14683984D01*
X13251134Y-14683984D02*
X13232086Y-14674460D01*
X13232086Y-14674460D02*
X13222563Y-14664936D01*
X13222563Y-14664936D02*
X13213039Y-14645888D01*
X13213039Y-14645888D02*
X13203515Y-14607793D01*
X13203515Y-14607793D02*
X13203515Y-14560174D01*
X13203515Y-14560174D02*
X13213039Y-14522079D01*
X13213039Y-14522079D02*
X13222563Y-14503031D01*
X13222563Y-14503031D02*
X13232086Y-14493508D01*
X13232086Y-14493508D02*
X13251134Y-14483984D01*
X13403515Y-14664936D02*
X13413039Y-14674460D01*
X13413039Y-14674460D02*
X13403515Y-14683984D01*
X13403515Y-14683984D02*
X13393991Y-14674460D01*
X13393991Y-14674460D02*
X13403515Y-14664936D01*
X13403515Y-14664936D02*
X13403515Y-14683984D01*
X13536848Y-14483984D02*
X13555896Y-14483984D01*
X13555896Y-14483984D02*
X13574944Y-14493508D01*
X13574944Y-14493508D02*
X13584467Y-14503031D01*
X13584467Y-14503031D02*
X13593991Y-14522079D01*
X13593991Y-14522079D02*
X13603515Y-14560174D01*
X13603515Y-14560174D02*
X13603515Y-14607793D01*
X13603515Y-14607793D02*
X13593991Y-14645888D01*
X13593991Y-14645888D02*
X13584467Y-14664936D01*
X13584467Y-14664936D02*
X13574944Y-14674460D01*
X13574944Y-14674460D02*
X13555896Y-14683984D01*
X13555896Y-14683984D02*
X13536848Y-14683984D01*
X13536848Y-14683984D02*
X13517801Y-14674460D01*
X13517801Y-14674460D02*
X13508277Y-14664936D01*
X13508277Y-14664936D02*
X13498753Y-14645888D01*
X13498753Y-14645888D02*
X13489229Y-14607793D01*
X13489229Y-14607793D02*
X13489229Y-14560174D01*
X13489229Y-14560174D02*
X13498753Y-14522079D01*
X13498753Y-14522079D02*
X13508277Y-14503031D01*
X13508277Y-14503031D02*
X13517801Y-14493508D01*
X13517801Y-14493508D02*
X13536848Y-14483984D01*
X13793991Y-14683984D02*
X13679706Y-14683984D01*
X13736848Y-14683984D02*
X13736848Y-14483984D01*
X13736848Y-14483984D02*
X13717801Y-14512555D01*
X13717801Y-14512555D02*
X13698753Y-14531603D01*
X13698753Y-14531603D02*
X13679706Y-14541127D01*
X13984467Y-14683984D02*
X13870182Y-14683984D01*
X13927325Y-14683984D02*
X13927325Y-14483984D01*
X13927325Y-14483984D02*
X13908277Y-14512555D01*
X13908277Y-14512555D02*
X13889229Y-14531603D01*
X13889229Y-14531603D02*
X13870182Y-14541127D01*
X14098753Y-14569698D02*
X14079706Y-14560174D01*
X14079706Y-14560174D02*
X14070182Y-14550650D01*
X14070182Y-14550650D02*
X14060658Y-14531603D01*
X14060658Y-14531603D02*
X14060658Y-14522079D01*
X14060658Y-14522079D02*
X14070182Y-14503031D01*
X14070182Y-14503031D02*
X14079706Y-14493508D01*
X14079706Y-14493508D02*
X14098753Y-14483984D01*
X14098753Y-14483984D02*
X14136848Y-14483984D01*
X14136848Y-14483984D02*
X14155896Y-14493508D01*
X14155896Y-14493508D02*
X14165420Y-14503031D01*
X14165420Y-14503031D02*
X14174944Y-14522079D01*
X14174944Y-14522079D02*
X14174944Y-14531603D01*
X14174944Y-14531603D02*
X14165420Y-14550650D01*
X14165420Y-14550650D02*
X14155896Y-14560174D01*
X14155896Y-14560174D02*
X14136848Y-14569698D01*
X14136848Y-14569698D02*
X14098753Y-14569698D01*
X14098753Y-14569698D02*
X14079706Y-14579222D01*
X14079706Y-14579222D02*
X14070182Y-14588746D01*
X14070182Y-14588746D02*
X14060658Y-14607793D01*
X14060658Y-14607793D02*
X14060658Y-14645888D01*
X14060658Y-14645888D02*
X14070182Y-14664936D01*
X14070182Y-14664936D02*
X14079706Y-14674460D01*
X14079706Y-14674460D02*
X14098753Y-14683984D01*
X14098753Y-14683984D02*
X14136848Y-14683984D01*
X14136848Y-14683984D02*
X14155896Y-14674460D01*
X14155896Y-14674460D02*
X14165420Y-14664936D01*
X14165420Y-14664936D02*
X14174944Y-14645888D01*
X14174944Y-14645888D02*
X14174944Y-14607793D01*
X14174944Y-14607793D02*
X14165420Y-14588746D01*
X14165420Y-14588746D02*
X14155896Y-14579222D01*
X14155896Y-14579222D02*
X14136848Y-14569698D01*
X14251134Y-14483984D02*
X14251134Y-14522079D01*
X14327325Y-14483984D02*
X14327325Y-14522079D01*
X14622563Y-14760174D02*
X14613039Y-14750650D01*
X14613039Y-14750650D02*
X14593991Y-14722079D01*
X14593991Y-14722079D02*
X14584468Y-14703031D01*
X14584468Y-14703031D02*
X14574944Y-14674460D01*
X14574944Y-14674460D02*
X14565420Y-14626841D01*
X14565420Y-14626841D02*
X14565420Y-14588746D01*
X14565420Y-14588746D02*
X14574944Y-14541127D01*
X14574944Y-14541127D02*
X14584468Y-14512555D01*
X14584468Y-14512555D02*
X14593991Y-14493508D01*
X14593991Y-14493508D02*
X14613039Y-14464936D01*
X14613039Y-14464936D02*
X14622563Y-14455412D01*
X14803515Y-14683984D02*
X14689229Y-14683984D01*
X14746372Y-14683984D02*
X14746372Y-14483984D01*
X14746372Y-14483984D02*
X14727325Y-14512555D01*
X14727325Y-14512555D02*
X14708277Y-14531603D01*
X14708277Y-14531603D02*
X14689229Y-14541127D01*
X14993991Y-14683984D02*
X14879706Y-14683984D01*
X14936848Y-14683984D02*
X14936848Y-14483984D01*
X14936848Y-14483984D02*
X14917801Y-14512555D01*
X14917801Y-14512555D02*
X14898753Y-14531603D01*
X14898753Y-14531603D02*
X14879706Y-14541127D01*
X15108277Y-14569698D02*
X15089229Y-14560174D01*
X15089229Y-14560174D02*
X15079706Y-14550650D01*
X15079706Y-14550650D02*
X15070182Y-14531603D01*
X15070182Y-14531603D02*
X15070182Y-14522079D01*
X15070182Y-14522079D02*
X15079706Y-14503031D01*
X15079706Y-14503031D02*
X15089229Y-14493508D01*
X15089229Y-14493508D02*
X15108277Y-14483984D01*
X15108277Y-14483984D02*
X15146372Y-14483984D01*
X15146372Y-14483984D02*
X15165420Y-14493508D01*
X15165420Y-14493508D02*
X15174944Y-14503031D01*
X15174944Y-14503031D02*
X15184468Y-14522079D01*
X15184468Y-14522079D02*
X15184468Y-14531603D01*
X15184468Y-14531603D02*
X15174944Y-14550650D01*
X15174944Y-14550650D02*
X15165420Y-14560174D01*
X15165420Y-14560174D02*
X15146372Y-14569698D01*
X15146372Y-14569698D02*
X15108277Y-14569698D01*
X15108277Y-14569698D02*
X15089229Y-14579222D01*
X15089229Y-14579222D02*
X15079706Y-14588746D01*
X15079706Y-14588746D02*
X15070182Y-14607793D01*
X15070182Y-14607793D02*
X15070182Y-14645888D01*
X15070182Y-14645888D02*
X15079706Y-14664936D01*
X15079706Y-14664936D02*
X15089229Y-14674460D01*
X15089229Y-14674460D02*
X15108277Y-14683984D01*
X15108277Y-14683984D02*
X15146372Y-14683984D01*
X15146372Y-14683984D02*
X15165420Y-14674460D01*
X15165420Y-14674460D02*
X15174944Y-14664936D01*
X15174944Y-14664936D02*
X15184468Y-14645888D01*
X15184468Y-14645888D02*
X15184468Y-14607793D01*
X15184468Y-14607793D02*
X15174944Y-14588746D01*
X15174944Y-14588746D02*
X15165420Y-14579222D01*
X15165420Y-14579222D02*
X15146372Y-14569698D01*
X15422563Y-14683984D02*
X15422563Y-14483984D01*
X15508277Y-14683984D02*
X15508277Y-14579222D01*
X15508277Y-14579222D02*
X15498753Y-14560174D01*
X15498753Y-14560174D02*
X15479706Y-14550650D01*
X15479706Y-14550650D02*
X15451134Y-14550650D01*
X15451134Y-14550650D02*
X15432087Y-14560174D01*
X15432087Y-14560174D02*
X15422563Y-14569698D01*
X15632087Y-14683984D02*
X15613039Y-14674460D01*
X15613039Y-14674460D02*
X15603515Y-14664936D01*
X15603515Y-14664936D02*
X15593991Y-14645888D01*
X15593991Y-14645888D02*
X15593991Y-14588746D01*
X15593991Y-14588746D02*
X15603515Y-14569698D01*
X15603515Y-14569698D02*
X15613039Y-14560174D01*
X15613039Y-14560174D02*
X15632087Y-14550650D01*
X15632087Y-14550650D02*
X15660658Y-14550650D01*
X15660658Y-14550650D02*
X15679706Y-14560174D01*
X15679706Y-14560174D02*
X15689230Y-14569698D01*
X15689230Y-14569698D02*
X15698753Y-14588746D01*
X15698753Y-14588746D02*
X15698753Y-14645888D01*
X15698753Y-14645888D02*
X15689230Y-14664936D01*
X15689230Y-14664936D02*
X15679706Y-14674460D01*
X15679706Y-14674460D02*
X15660658Y-14683984D01*
X15660658Y-14683984D02*
X15632087Y-14683984D01*
X15813039Y-14683984D02*
X15793991Y-14674460D01*
X15793991Y-14674460D02*
X15784468Y-14655412D01*
X15784468Y-14655412D02*
X15784468Y-14483984D01*
X15965420Y-14674460D02*
X15946372Y-14683984D01*
X15946372Y-14683984D02*
X15908277Y-14683984D01*
X15908277Y-14683984D02*
X15889230Y-14674460D01*
X15889230Y-14674460D02*
X15879706Y-14655412D01*
X15879706Y-14655412D02*
X15879706Y-14579222D01*
X15879706Y-14579222D02*
X15889230Y-14560174D01*
X15889230Y-14560174D02*
X15908277Y-14550650D01*
X15908277Y-14550650D02*
X15946372Y-14550650D01*
X15946372Y-14550650D02*
X15965420Y-14560174D01*
X15965420Y-14560174D02*
X15974944Y-14579222D01*
X15974944Y-14579222D02*
X15974944Y-14598269D01*
X15974944Y-14598269D02*
X15879706Y-14617317D01*
X16051134Y-14674460D02*
X16070182Y-14683984D01*
X16070182Y-14683984D02*
X16108277Y-14683984D01*
X16108277Y-14683984D02*
X16127325Y-14674460D01*
X16127325Y-14674460D02*
X16136849Y-14655412D01*
X16136849Y-14655412D02*
X16136849Y-14645888D01*
X16136849Y-14645888D02*
X16127325Y-14626841D01*
X16127325Y-14626841D02*
X16108277Y-14617317D01*
X16108277Y-14617317D02*
X16079706Y-14617317D01*
X16079706Y-14617317D02*
X16060658Y-14607793D01*
X16060658Y-14607793D02*
X16051134Y-14588746D01*
X16051134Y-14588746D02*
X16051134Y-14579222D01*
X16051134Y-14579222D02*
X16060658Y-14560174D01*
X16060658Y-14560174D02*
X16079706Y-14550650D01*
X16079706Y-14550650D02*
X16108277Y-14550650D01*
X16108277Y-14550650D02*
X16127325Y-14560174D01*
X16203515Y-14760174D02*
X16213039Y-14750650D01*
X16213039Y-14750650D02*
X16232087Y-14722079D01*
X16232087Y-14722079D02*
X16241611Y-14703031D01*
X16241611Y-14703031D02*
X16251134Y-14674460D01*
X16251134Y-14674460D02*
X16260658Y-14626841D01*
X16260658Y-14626841D02*
X16260658Y-14588746D01*
X16260658Y-14588746D02*
X16251134Y-14541127D01*
X16251134Y-14541127D02*
X16241611Y-14512555D01*
X16241611Y-14512555D02*
X16232087Y-14493508D01*
X16232087Y-14493508D02*
X16213039Y-14464936D01*
X16213039Y-14464936D02*
X16203515Y-14455412D01*
D12*
X11047500Y-14856500D02*
G75*
G02*
X11017500Y-14856500I-15000J0D01*
G01*
X11017500Y-14856500D02*
G75*
G02*
X11047500Y-14856500I15000J0D01*
G01*
D11*
X11346372Y-14747984D02*
X11365420Y-14747984D01*
X11365420Y-14747984D02*
X11384467Y-14757508D01*
X11384467Y-14757508D02*
X11393991Y-14767031D01*
X11393991Y-14767031D02*
X11403515Y-14786079D01*
X11403515Y-14786079D02*
X11413039Y-14824174D01*
X11413039Y-14824174D02*
X11413039Y-14871793D01*
X11413039Y-14871793D02*
X11403515Y-14909888D01*
X11403515Y-14909888D02*
X11393991Y-14928936D01*
X11393991Y-14928936D02*
X11384467Y-14938460D01*
X11384467Y-14938460D02*
X11365420Y-14947984D01*
X11365420Y-14947984D02*
X11346372Y-14947984D01*
X11346372Y-14947984D02*
X11327324Y-14938460D01*
X11327324Y-14938460D02*
X11317801Y-14928936D01*
X11317801Y-14928936D02*
X11308277Y-14909888D01*
X11308277Y-14909888D02*
X11298753Y-14871793D01*
X11298753Y-14871793D02*
X11298753Y-14824174D01*
X11298753Y-14824174D02*
X11308277Y-14786079D01*
X11308277Y-14786079D02*
X11317801Y-14767031D01*
X11317801Y-14767031D02*
X11327324Y-14757508D01*
X11327324Y-14757508D02*
X11346372Y-14747984D01*
X11498753Y-14928936D02*
X11508277Y-14938460D01*
X11508277Y-14938460D02*
X11498753Y-14947984D01*
X11498753Y-14947984D02*
X11489229Y-14938460D01*
X11489229Y-14938460D02*
X11498753Y-14928936D01*
X11498753Y-14928936D02*
X11498753Y-14947984D01*
X11574943Y-14747984D02*
X11698753Y-14747984D01*
X11698753Y-14747984D02*
X11632086Y-14824174D01*
X11632086Y-14824174D02*
X11660658Y-14824174D01*
X11660658Y-14824174D02*
X11679705Y-14833698D01*
X11679705Y-14833698D02*
X11689229Y-14843222D01*
X11689229Y-14843222D02*
X11698753Y-14862269D01*
X11698753Y-14862269D02*
X11698753Y-14909888D01*
X11698753Y-14909888D02*
X11689229Y-14928936D01*
X11689229Y-14928936D02*
X11679705Y-14938460D01*
X11679705Y-14938460D02*
X11660658Y-14947984D01*
X11660658Y-14947984D02*
X11603515Y-14947984D01*
X11603515Y-14947984D02*
X11584467Y-14938460D01*
X11584467Y-14938460D02*
X11574943Y-14928936D01*
X11822562Y-14747984D02*
X11841610Y-14747984D01*
X11841610Y-14747984D02*
X11860658Y-14757508D01*
X11860658Y-14757508D02*
X11870182Y-14767031D01*
X11870182Y-14767031D02*
X11879705Y-14786079D01*
X11879705Y-14786079D02*
X11889229Y-14824174D01*
X11889229Y-14824174D02*
X11889229Y-14871793D01*
X11889229Y-14871793D02*
X11879705Y-14909888D01*
X11879705Y-14909888D02*
X11870182Y-14928936D01*
X11870182Y-14928936D02*
X11860658Y-14938460D01*
X11860658Y-14938460D02*
X11841610Y-14947984D01*
X11841610Y-14947984D02*
X11822562Y-14947984D01*
X11822562Y-14947984D02*
X11803515Y-14938460D01*
X11803515Y-14938460D02*
X11793991Y-14928936D01*
X11793991Y-14928936D02*
X11784467Y-14909888D01*
X11784467Y-14909888D02*
X11774943Y-14871793D01*
X11774943Y-14871793D02*
X11774943Y-14824174D01*
X11774943Y-14824174D02*
X11784467Y-14786079D01*
X11784467Y-14786079D02*
X11793991Y-14767031D01*
X11793991Y-14767031D02*
X11803515Y-14757508D01*
X11803515Y-14757508D02*
X11822562Y-14747984D01*
X12013039Y-14747984D02*
X12032086Y-14747984D01*
X12032086Y-14747984D02*
X12051134Y-14757508D01*
X12051134Y-14757508D02*
X12060658Y-14767031D01*
X12060658Y-14767031D02*
X12070182Y-14786079D01*
X12070182Y-14786079D02*
X12079705Y-14824174D01*
X12079705Y-14824174D02*
X12079705Y-14871793D01*
X12079705Y-14871793D02*
X12070182Y-14909888D01*
X12070182Y-14909888D02*
X12060658Y-14928936D01*
X12060658Y-14928936D02*
X12051134Y-14938460D01*
X12051134Y-14938460D02*
X12032086Y-14947984D01*
X12032086Y-14947984D02*
X12013039Y-14947984D01*
X12013039Y-14947984D02*
X11993991Y-14938460D01*
X11993991Y-14938460D02*
X11984467Y-14928936D01*
X11984467Y-14928936D02*
X11974943Y-14909888D01*
X11974943Y-14909888D02*
X11965420Y-14871793D01*
X11965420Y-14871793D02*
X11965420Y-14824174D01*
X11965420Y-14824174D02*
X11974943Y-14786079D01*
X11974943Y-14786079D02*
X11984467Y-14767031D01*
X11984467Y-14767031D02*
X11993991Y-14757508D01*
X11993991Y-14757508D02*
X12013039Y-14747984D01*
X12165420Y-14947984D02*
X12165420Y-14814650D01*
X12165420Y-14833698D02*
X12174943Y-14824174D01*
X12174943Y-14824174D02*
X12193991Y-14814650D01*
X12193991Y-14814650D02*
X12222563Y-14814650D01*
X12222563Y-14814650D02*
X12241610Y-14824174D01*
X12241610Y-14824174D02*
X12251134Y-14843222D01*
X12251134Y-14843222D02*
X12251134Y-14947984D01*
X12251134Y-14843222D02*
X12260658Y-14824174D01*
X12260658Y-14824174D02*
X12279705Y-14814650D01*
X12279705Y-14814650D02*
X12308277Y-14814650D01*
X12308277Y-14814650D02*
X12327324Y-14824174D01*
X12327324Y-14824174D02*
X12336848Y-14843222D01*
X12336848Y-14843222D02*
X12336848Y-14947984D01*
X12432086Y-14947984D02*
X12432086Y-14814650D01*
X12432086Y-14833698D02*
X12441610Y-14824174D01*
X12441610Y-14824174D02*
X12460658Y-14814650D01*
X12460658Y-14814650D02*
X12489229Y-14814650D01*
X12489229Y-14814650D02*
X12508277Y-14824174D01*
X12508277Y-14824174D02*
X12517801Y-14843222D01*
X12517801Y-14843222D02*
X12517801Y-14947984D01*
X12517801Y-14843222D02*
X12527324Y-14824174D01*
X12527324Y-14824174D02*
X12546372Y-14814650D01*
X12546372Y-14814650D02*
X12574943Y-14814650D01*
X12574943Y-14814650D02*
X12593991Y-14824174D01*
X12593991Y-14824174D02*
X12603515Y-14843222D01*
X12603515Y-14843222D02*
X12603515Y-14947984D01*
X12993991Y-14738460D02*
X12822563Y-14995603D01*
X13251134Y-14747984D02*
X13270182Y-14747984D01*
X13270182Y-14747984D02*
X13289229Y-14757508D01*
X13289229Y-14757508D02*
X13298753Y-14767031D01*
X13298753Y-14767031D02*
X13308277Y-14786079D01*
X13308277Y-14786079D02*
X13317801Y-14824174D01*
X13317801Y-14824174D02*
X13317801Y-14871793D01*
X13317801Y-14871793D02*
X13308277Y-14909888D01*
X13308277Y-14909888D02*
X13298753Y-14928936D01*
X13298753Y-14928936D02*
X13289229Y-14938460D01*
X13289229Y-14938460D02*
X13270182Y-14947984D01*
X13270182Y-14947984D02*
X13251134Y-14947984D01*
X13251134Y-14947984D02*
X13232086Y-14938460D01*
X13232086Y-14938460D02*
X13222563Y-14928936D01*
X13222563Y-14928936D02*
X13213039Y-14909888D01*
X13213039Y-14909888D02*
X13203515Y-14871793D01*
X13203515Y-14871793D02*
X13203515Y-14824174D01*
X13203515Y-14824174D02*
X13213039Y-14786079D01*
X13213039Y-14786079D02*
X13222563Y-14767031D01*
X13222563Y-14767031D02*
X13232086Y-14757508D01*
X13232086Y-14757508D02*
X13251134Y-14747984D01*
X13403515Y-14928936D02*
X13413039Y-14938460D01*
X13413039Y-14938460D02*
X13403515Y-14947984D01*
X13403515Y-14947984D02*
X13393991Y-14938460D01*
X13393991Y-14938460D02*
X13403515Y-14928936D01*
X13403515Y-14928936D02*
X13403515Y-14947984D01*
X13536848Y-14747984D02*
X13555896Y-14747984D01*
X13555896Y-14747984D02*
X13574944Y-14757508D01*
X13574944Y-14757508D02*
X13584467Y-14767031D01*
X13584467Y-14767031D02*
X13593991Y-14786079D01*
X13593991Y-14786079D02*
X13603515Y-14824174D01*
X13603515Y-14824174D02*
X13603515Y-14871793D01*
X13603515Y-14871793D02*
X13593991Y-14909888D01*
X13593991Y-14909888D02*
X13584467Y-14928936D01*
X13584467Y-14928936D02*
X13574944Y-14938460D01*
X13574944Y-14938460D02*
X13555896Y-14947984D01*
X13555896Y-14947984D02*
X13536848Y-14947984D01*
X13536848Y-14947984D02*
X13517801Y-14938460D01*
X13517801Y-14938460D02*
X13508277Y-14928936D01*
X13508277Y-14928936D02*
X13498753Y-14909888D01*
X13498753Y-14909888D02*
X13489229Y-14871793D01*
X13489229Y-14871793D02*
X13489229Y-14824174D01*
X13489229Y-14824174D02*
X13498753Y-14786079D01*
X13498753Y-14786079D02*
X13508277Y-14767031D01*
X13508277Y-14767031D02*
X13517801Y-14757508D01*
X13517801Y-14757508D02*
X13536848Y-14747984D01*
X13793991Y-14947984D02*
X13679706Y-14947984D01*
X13736848Y-14947984D02*
X13736848Y-14747984D01*
X13736848Y-14747984D02*
X13717801Y-14776555D01*
X13717801Y-14776555D02*
X13698753Y-14795603D01*
X13698753Y-14795603D02*
X13679706Y-14805127D01*
X13984467Y-14947984D02*
X13870182Y-14947984D01*
X13927325Y-14947984D02*
X13927325Y-14747984D01*
X13927325Y-14747984D02*
X13908277Y-14776555D01*
X13908277Y-14776555D02*
X13889229Y-14795603D01*
X13889229Y-14795603D02*
X13870182Y-14805127D01*
X14098753Y-14833698D02*
X14079706Y-14824174D01*
X14079706Y-14824174D02*
X14070182Y-14814650D01*
X14070182Y-14814650D02*
X14060658Y-14795603D01*
X14060658Y-14795603D02*
X14060658Y-14786079D01*
X14060658Y-14786079D02*
X14070182Y-14767031D01*
X14070182Y-14767031D02*
X14079706Y-14757508D01*
X14079706Y-14757508D02*
X14098753Y-14747984D01*
X14098753Y-14747984D02*
X14136848Y-14747984D01*
X14136848Y-14747984D02*
X14155896Y-14757508D01*
X14155896Y-14757508D02*
X14165420Y-14767031D01*
X14165420Y-14767031D02*
X14174944Y-14786079D01*
X14174944Y-14786079D02*
X14174944Y-14795603D01*
X14174944Y-14795603D02*
X14165420Y-14814650D01*
X14165420Y-14814650D02*
X14155896Y-14824174D01*
X14155896Y-14824174D02*
X14136848Y-14833698D01*
X14136848Y-14833698D02*
X14098753Y-14833698D01*
X14098753Y-14833698D02*
X14079706Y-14843222D01*
X14079706Y-14843222D02*
X14070182Y-14852746D01*
X14070182Y-14852746D02*
X14060658Y-14871793D01*
X14060658Y-14871793D02*
X14060658Y-14909888D01*
X14060658Y-14909888D02*
X14070182Y-14928936D01*
X14070182Y-14928936D02*
X14079706Y-14938460D01*
X14079706Y-14938460D02*
X14098753Y-14947984D01*
X14098753Y-14947984D02*
X14136848Y-14947984D01*
X14136848Y-14947984D02*
X14155896Y-14938460D01*
X14155896Y-14938460D02*
X14165420Y-14928936D01*
X14165420Y-14928936D02*
X14174944Y-14909888D01*
X14174944Y-14909888D02*
X14174944Y-14871793D01*
X14174944Y-14871793D02*
X14165420Y-14852746D01*
X14165420Y-14852746D02*
X14155896Y-14843222D01*
X14155896Y-14843222D02*
X14136848Y-14833698D01*
X14251134Y-14747984D02*
X14251134Y-14786079D01*
X14327325Y-14747984D02*
X14327325Y-14786079D01*
X14622563Y-15024174D02*
X14613039Y-15014650D01*
X14613039Y-15014650D02*
X14593991Y-14986079D01*
X14593991Y-14986079D02*
X14584468Y-14967031D01*
X14584468Y-14967031D02*
X14574944Y-14938460D01*
X14574944Y-14938460D02*
X14565420Y-14890841D01*
X14565420Y-14890841D02*
X14565420Y-14852746D01*
X14565420Y-14852746D02*
X14574944Y-14805127D01*
X14574944Y-14805127D02*
X14584468Y-14776555D01*
X14584468Y-14776555D02*
X14593991Y-14757508D01*
X14593991Y-14757508D02*
X14613039Y-14728936D01*
X14613039Y-14728936D02*
X14622563Y-14719412D01*
X14803515Y-14947984D02*
X14689229Y-14947984D01*
X14746372Y-14947984D02*
X14746372Y-14747984D01*
X14746372Y-14747984D02*
X14727325Y-14776555D01*
X14727325Y-14776555D02*
X14708277Y-14795603D01*
X14708277Y-14795603D02*
X14689229Y-14805127D01*
X14879706Y-14767031D02*
X14889229Y-14757508D01*
X14889229Y-14757508D02*
X14908277Y-14747984D01*
X14908277Y-14747984D02*
X14955896Y-14747984D01*
X14955896Y-14747984D02*
X14974944Y-14757508D01*
X14974944Y-14757508D02*
X14984468Y-14767031D01*
X14984468Y-14767031D02*
X14993991Y-14786079D01*
X14993991Y-14786079D02*
X14993991Y-14805127D01*
X14993991Y-14805127D02*
X14984468Y-14833698D01*
X14984468Y-14833698D02*
X14870182Y-14947984D01*
X14870182Y-14947984D02*
X14993991Y-14947984D01*
X15232087Y-14947984D02*
X15232087Y-14747984D01*
X15317801Y-14947984D02*
X15317801Y-14843222D01*
X15317801Y-14843222D02*
X15308277Y-14824174D01*
X15308277Y-14824174D02*
X15289230Y-14814650D01*
X15289230Y-14814650D02*
X15260658Y-14814650D01*
X15260658Y-14814650D02*
X15241610Y-14824174D01*
X15241610Y-14824174D02*
X15232087Y-14833698D01*
X15441610Y-14947984D02*
X15422563Y-14938460D01*
X15422563Y-14938460D02*
X15413039Y-14928936D01*
X15413039Y-14928936D02*
X15403515Y-14909888D01*
X15403515Y-14909888D02*
X15403515Y-14852746D01*
X15403515Y-14852746D02*
X15413039Y-14833698D01*
X15413039Y-14833698D02*
X15422563Y-14824174D01*
X15422563Y-14824174D02*
X15441610Y-14814650D01*
X15441610Y-14814650D02*
X15470182Y-14814650D01*
X15470182Y-14814650D02*
X15489230Y-14824174D01*
X15489230Y-14824174D02*
X15498753Y-14833698D01*
X15498753Y-14833698D02*
X15508277Y-14852746D01*
X15508277Y-14852746D02*
X15508277Y-14909888D01*
X15508277Y-14909888D02*
X15498753Y-14928936D01*
X15498753Y-14928936D02*
X15489230Y-14938460D01*
X15489230Y-14938460D02*
X15470182Y-14947984D01*
X15470182Y-14947984D02*
X15441610Y-14947984D01*
X15622563Y-14947984D02*
X15603515Y-14938460D01*
X15603515Y-14938460D02*
X15593991Y-14919412D01*
X15593991Y-14919412D02*
X15593991Y-14747984D01*
X15774944Y-14938460D02*
X15755896Y-14947984D01*
X15755896Y-14947984D02*
X15717801Y-14947984D01*
X15717801Y-14947984D02*
X15698753Y-14938460D01*
X15698753Y-14938460D02*
X15689230Y-14919412D01*
X15689230Y-14919412D02*
X15689230Y-14843222D01*
X15689230Y-14843222D02*
X15698753Y-14824174D01*
X15698753Y-14824174D02*
X15717801Y-14814650D01*
X15717801Y-14814650D02*
X15755896Y-14814650D01*
X15755896Y-14814650D02*
X15774944Y-14824174D01*
X15774944Y-14824174D02*
X15784468Y-14843222D01*
X15784468Y-14843222D02*
X15784468Y-14862269D01*
X15784468Y-14862269D02*
X15689230Y-14881317D01*
X15860658Y-14938460D02*
X15879706Y-14947984D01*
X15879706Y-14947984D02*
X15917801Y-14947984D01*
X15917801Y-14947984D02*
X15936849Y-14938460D01*
X15936849Y-14938460D02*
X15946372Y-14919412D01*
X15946372Y-14919412D02*
X15946372Y-14909888D01*
X15946372Y-14909888D02*
X15936849Y-14890841D01*
X15936849Y-14890841D02*
X15917801Y-14881317D01*
X15917801Y-14881317D02*
X15889230Y-14881317D01*
X15889230Y-14881317D02*
X15870182Y-14871793D01*
X15870182Y-14871793D02*
X15860658Y-14852746D01*
X15860658Y-14852746D02*
X15860658Y-14843222D01*
X15860658Y-14843222D02*
X15870182Y-14824174D01*
X15870182Y-14824174D02*
X15889230Y-14814650D01*
X15889230Y-14814650D02*
X15917801Y-14814650D01*
X15917801Y-14814650D02*
X15936849Y-14824174D01*
X16013039Y-15024174D02*
X16022563Y-15014650D01*
X16022563Y-15014650D02*
X16041611Y-14986079D01*
X16041611Y-14986079D02*
X16051134Y-14967031D01*
X16051134Y-14967031D02*
X16060658Y-14938460D01*
X16060658Y-14938460D02*
X16070182Y-14890841D01*
X16070182Y-14890841D02*
X16070182Y-14852746D01*
X16070182Y-14852746D02*
X16060658Y-14805127D01*
X16060658Y-14805127D02*
X16051134Y-14776555D01*
X16051134Y-14776555D02*
X16041611Y-14757508D01*
X16041611Y-14757508D02*
X16022563Y-14728936D01*
X16022563Y-14728936D02*
X16013039Y-14719412D01*
D12*
X11017500Y-15090500D02*
X11017500Y-15150500D01*
X10987500Y-15120500D02*
X11047500Y-15120500D01*
D11*
X11346372Y-15011984D02*
X11365420Y-15011984D01*
X11365420Y-15011984D02*
X11384467Y-15021508D01*
X11384467Y-15021508D02*
X11393991Y-15031031D01*
X11393991Y-15031031D02*
X11403515Y-15050079D01*
X11403515Y-15050079D02*
X11413039Y-15088174D01*
X11413039Y-15088174D02*
X11413039Y-15135793D01*
X11413039Y-15135793D02*
X11403515Y-15173888D01*
X11403515Y-15173888D02*
X11393991Y-15192936D01*
X11393991Y-15192936D02*
X11384467Y-15202460D01*
X11384467Y-15202460D02*
X11365420Y-15211984D01*
X11365420Y-15211984D02*
X11346372Y-15211984D01*
X11346372Y-15211984D02*
X11327324Y-15202460D01*
X11327324Y-15202460D02*
X11317801Y-15192936D01*
X11317801Y-15192936D02*
X11308277Y-15173888D01*
X11308277Y-15173888D02*
X11298753Y-15135793D01*
X11298753Y-15135793D02*
X11298753Y-15088174D01*
X11298753Y-15088174D02*
X11308277Y-15050079D01*
X11308277Y-15050079D02*
X11317801Y-15031031D01*
X11317801Y-15031031D02*
X11327324Y-15021508D01*
X11327324Y-15021508D02*
X11346372Y-15011984D01*
X11498753Y-15192936D02*
X11508277Y-15202460D01*
X11508277Y-15202460D02*
X11498753Y-15211984D01*
X11498753Y-15211984D02*
X11489229Y-15202460D01*
X11489229Y-15202460D02*
X11498753Y-15192936D01*
X11498753Y-15192936D02*
X11498753Y-15211984D01*
X11679705Y-15011984D02*
X11641610Y-15011984D01*
X11641610Y-15011984D02*
X11622562Y-15021508D01*
X11622562Y-15021508D02*
X11613039Y-15031031D01*
X11613039Y-15031031D02*
X11593991Y-15059603D01*
X11593991Y-15059603D02*
X11584467Y-15097698D01*
X11584467Y-15097698D02*
X11584467Y-15173888D01*
X11584467Y-15173888D02*
X11593991Y-15192936D01*
X11593991Y-15192936D02*
X11603515Y-15202460D01*
X11603515Y-15202460D02*
X11622562Y-15211984D01*
X11622562Y-15211984D02*
X11660658Y-15211984D01*
X11660658Y-15211984D02*
X11679705Y-15202460D01*
X11679705Y-15202460D02*
X11689229Y-15192936D01*
X11689229Y-15192936D02*
X11698753Y-15173888D01*
X11698753Y-15173888D02*
X11698753Y-15126269D01*
X11698753Y-15126269D02*
X11689229Y-15107222D01*
X11689229Y-15107222D02*
X11679705Y-15097698D01*
X11679705Y-15097698D02*
X11660658Y-15088174D01*
X11660658Y-15088174D02*
X11622562Y-15088174D01*
X11622562Y-15088174D02*
X11603515Y-15097698D01*
X11603515Y-15097698D02*
X11593991Y-15107222D01*
X11593991Y-15107222D02*
X11584467Y-15126269D01*
X11822562Y-15011984D02*
X11841610Y-15011984D01*
X11841610Y-15011984D02*
X11860658Y-15021508D01*
X11860658Y-15021508D02*
X11870182Y-15031031D01*
X11870182Y-15031031D02*
X11879705Y-15050079D01*
X11879705Y-15050079D02*
X11889229Y-15088174D01*
X11889229Y-15088174D02*
X11889229Y-15135793D01*
X11889229Y-15135793D02*
X11879705Y-15173888D01*
X11879705Y-15173888D02*
X11870182Y-15192936D01*
X11870182Y-15192936D02*
X11860658Y-15202460D01*
X11860658Y-15202460D02*
X11841610Y-15211984D01*
X11841610Y-15211984D02*
X11822562Y-15211984D01*
X11822562Y-15211984D02*
X11803515Y-15202460D01*
X11803515Y-15202460D02*
X11793991Y-15192936D01*
X11793991Y-15192936D02*
X11784467Y-15173888D01*
X11784467Y-15173888D02*
X11774943Y-15135793D01*
X11774943Y-15135793D02*
X11774943Y-15088174D01*
X11774943Y-15088174D02*
X11784467Y-15050079D01*
X11784467Y-15050079D02*
X11793991Y-15031031D01*
X11793991Y-15031031D02*
X11803515Y-15021508D01*
X11803515Y-15021508D02*
X11822562Y-15011984D01*
X12013039Y-15011984D02*
X12032086Y-15011984D01*
X12032086Y-15011984D02*
X12051134Y-15021508D01*
X12051134Y-15021508D02*
X12060658Y-15031031D01*
X12060658Y-15031031D02*
X12070182Y-15050079D01*
X12070182Y-15050079D02*
X12079705Y-15088174D01*
X12079705Y-15088174D02*
X12079705Y-15135793D01*
X12079705Y-15135793D02*
X12070182Y-15173888D01*
X12070182Y-15173888D02*
X12060658Y-15192936D01*
X12060658Y-15192936D02*
X12051134Y-15202460D01*
X12051134Y-15202460D02*
X12032086Y-15211984D01*
X12032086Y-15211984D02*
X12013039Y-15211984D01*
X12013039Y-15211984D02*
X11993991Y-15202460D01*
X11993991Y-15202460D02*
X11984467Y-15192936D01*
X11984467Y-15192936D02*
X11974943Y-15173888D01*
X11974943Y-15173888D02*
X11965420Y-15135793D01*
X11965420Y-15135793D02*
X11965420Y-15088174D01*
X11965420Y-15088174D02*
X11974943Y-15050079D01*
X11974943Y-15050079D02*
X11984467Y-15031031D01*
X11984467Y-15031031D02*
X11993991Y-15021508D01*
X11993991Y-15021508D02*
X12013039Y-15011984D01*
X12165420Y-15211984D02*
X12165420Y-15078650D01*
X12165420Y-15097698D02*
X12174943Y-15088174D01*
X12174943Y-15088174D02*
X12193991Y-15078650D01*
X12193991Y-15078650D02*
X12222563Y-15078650D01*
X12222563Y-15078650D02*
X12241610Y-15088174D01*
X12241610Y-15088174D02*
X12251134Y-15107222D01*
X12251134Y-15107222D02*
X12251134Y-15211984D01*
X12251134Y-15107222D02*
X12260658Y-15088174D01*
X12260658Y-15088174D02*
X12279705Y-15078650D01*
X12279705Y-15078650D02*
X12308277Y-15078650D01*
X12308277Y-15078650D02*
X12327324Y-15088174D01*
X12327324Y-15088174D02*
X12336848Y-15107222D01*
X12336848Y-15107222D02*
X12336848Y-15211984D01*
X12432086Y-15211984D02*
X12432086Y-15078650D01*
X12432086Y-15097698D02*
X12441610Y-15088174D01*
X12441610Y-15088174D02*
X12460658Y-15078650D01*
X12460658Y-15078650D02*
X12489229Y-15078650D01*
X12489229Y-15078650D02*
X12508277Y-15088174D01*
X12508277Y-15088174D02*
X12517801Y-15107222D01*
X12517801Y-15107222D02*
X12517801Y-15211984D01*
X12517801Y-15107222D02*
X12527324Y-15088174D01*
X12527324Y-15088174D02*
X12546372Y-15078650D01*
X12546372Y-15078650D02*
X12574943Y-15078650D01*
X12574943Y-15078650D02*
X12593991Y-15088174D01*
X12593991Y-15088174D02*
X12603515Y-15107222D01*
X12603515Y-15107222D02*
X12603515Y-15211984D01*
X12993991Y-15002460D02*
X12822563Y-15259603D01*
X13251134Y-15011984D02*
X13270182Y-15011984D01*
X13270182Y-15011984D02*
X13289229Y-15021508D01*
X13289229Y-15021508D02*
X13298753Y-15031031D01*
X13298753Y-15031031D02*
X13308277Y-15050079D01*
X13308277Y-15050079D02*
X13317801Y-15088174D01*
X13317801Y-15088174D02*
X13317801Y-15135793D01*
X13317801Y-15135793D02*
X13308277Y-15173888D01*
X13308277Y-15173888D02*
X13298753Y-15192936D01*
X13298753Y-15192936D02*
X13289229Y-15202460D01*
X13289229Y-15202460D02*
X13270182Y-15211984D01*
X13270182Y-15211984D02*
X13251134Y-15211984D01*
X13251134Y-15211984D02*
X13232086Y-15202460D01*
X13232086Y-15202460D02*
X13222563Y-15192936D01*
X13222563Y-15192936D02*
X13213039Y-15173888D01*
X13213039Y-15173888D02*
X13203515Y-15135793D01*
X13203515Y-15135793D02*
X13203515Y-15088174D01*
X13203515Y-15088174D02*
X13213039Y-15050079D01*
X13213039Y-15050079D02*
X13222563Y-15031031D01*
X13222563Y-15031031D02*
X13232086Y-15021508D01*
X13232086Y-15021508D02*
X13251134Y-15011984D01*
X13403515Y-15192936D02*
X13413039Y-15202460D01*
X13413039Y-15202460D02*
X13403515Y-15211984D01*
X13403515Y-15211984D02*
X13393991Y-15202460D01*
X13393991Y-15202460D02*
X13403515Y-15192936D01*
X13403515Y-15192936D02*
X13403515Y-15211984D01*
X13536848Y-15011984D02*
X13555896Y-15011984D01*
X13555896Y-15011984D02*
X13574944Y-15021508D01*
X13574944Y-15021508D02*
X13584467Y-15031031D01*
X13584467Y-15031031D02*
X13593991Y-15050079D01*
X13593991Y-15050079D02*
X13603515Y-15088174D01*
X13603515Y-15088174D02*
X13603515Y-15135793D01*
X13603515Y-15135793D02*
X13593991Y-15173888D01*
X13593991Y-15173888D02*
X13584467Y-15192936D01*
X13584467Y-15192936D02*
X13574944Y-15202460D01*
X13574944Y-15202460D02*
X13555896Y-15211984D01*
X13555896Y-15211984D02*
X13536848Y-15211984D01*
X13536848Y-15211984D02*
X13517801Y-15202460D01*
X13517801Y-15202460D02*
X13508277Y-15192936D01*
X13508277Y-15192936D02*
X13498753Y-15173888D01*
X13498753Y-15173888D02*
X13489229Y-15135793D01*
X13489229Y-15135793D02*
X13489229Y-15088174D01*
X13489229Y-15088174D02*
X13498753Y-15050079D01*
X13498753Y-15050079D02*
X13508277Y-15031031D01*
X13508277Y-15031031D02*
X13517801Y-15021508D01*
X13517801Y-15021508D02*
X13536848Y-15011984D01*
X13679706Y-15031031D02*
X13689229Y-15021508D01*
X13689229Y-15021508D02*
X13708277Y-15011984D01*
X13708277Y-15011984D02*
X13755896Y-15011984D01*
X13755896Y-15011984D02*
X13774944Y-15021508D01*
X13774944Y-15021508D02*
X13784467Y-15031031D01*
X13784467Y-15031031D02*
X13793991Y-15050079D01*
X13793991Y-15050079D02*
X13793991Y-15069127D01*
X13793991Y-15069127D02*
X13784467Y-15097698D01*
X13784467Y-15097698D02*
X13670182Y-15211984D01*
X13670182Y-15211984D02*
X13793991Y-15211984D01*
X13860658Y-15011984D02*
X13984467Y-15011984D01*
X13984467Y-15011984D02*
X13917801Y-15088174D01*
X13917801Y-15088174D02*
X13946372Y-15088174D01*
X13946372Y-15088174D02*
X13965420Y-15097698D01*
X13965420Y-15097698D02*
X13974944Y-15107222D01*
X13974944Y-15107222D02*
X13984467Y-15126269D01*
X13984467Y-15126269D02*
X13984467Y-15173888D01*
X13984467Y-15173888D02*
X13974944Y-15192936D01*
X13974944Y-15192936D02*
X13965420Y-15202460D01*
X13965420Y-15202460D02*
X13946372Y-15211984D01*
X13946372Y-15211984D02*
X13889229Y-15211984D01*
X13889229Y-15211984D02*
X13870182Y-15202460D01*
X13870182Y-15202460D02*
X13860658Y-15192936D01*
X14155896Y-15011984D02*
X14117801Y-15011984D01*
X14117801Y-15011984D02*
X14098753Y-15021508D01*
X14098753Y-15021508D02*
X14089229Y-15031031D01*
X14089229Y-15031031D02*
X14070182Y-15059603D01*
X14070182Y-15059603D02*
X14060658Y-15097698D01*
X14060658Y-15097698D02*
X14060658Y-15173888D01*
X14060658Y-15173888D02*
X14070182Y-15192936D01*
X14070182Y-15192936D02*
X14079706Y-15202460D01*
X14079706Y-15202460D02*
X14098753Y-15211984D01*
X14098753Y-15211984D02*
X14136848Y-15211984D01*
X14136848Y-15211984D02*
X14155896Y-15202460D01*
X14155896Y-15202460D02*
X14165420Y-15192936D01*
X14165420Y-15192936D02*
X14174944Y-15173888D01*
X14174944Y-15173888D02*
X14174944Y-15126269D01*
X14174944Y-15126269D02*
X14165420Y-15107222D01*
X14165420Y-15107222D02*
X14155896Y-15097698D01*
X14155896Y-15097698D02*
X14136848Y-15088174D01*
X14136848Y-15088174D02*
X14098753Y-15088174D01*
X14098753Y-15088174D02*
X14079706Y-15097698D01*
X14079706Y-15097698D02*
X14070182Y-15107222D01*
X14070182Y-15107222D02*
X14060658Y-15126269D01*
X14251134Y-15011984D02*
X14251134Y-15050079D01*
X14327325Y-15011984D02*
X14327325Y-15050079D01*
X14622563Y-15288174D02*
X14613039Y-15278650D01*
X14613039Y-15278650D02*
X14593991Y-15250079D01*
X14593991Y-15250079D02*
X14584468Y-15231031D01*
X14584468Y-15231031D02*
X14574944Y-15202460D01*
X14574944Y-15202460D02*
X14565420Y-15154841D01*
X14565420Y-15154841D02*
X14565420Y-15116746D01*
X14565420Y-15116746D02*
X14574944Y-15069127D01*
X14574944Y-15069127D02*
X14584468Y-15040555D01*
X14584468Y-15040555D02*
X14593991Y-15021508D01*
X14593991Y-15021508D02*
X14613039Y-14992936D01*
X14613039Y-14992936D02*
X14622563Y-14983412D01*
X14736848Y-15011984D02*
X14755896Y-15011984D01*
X14755896Y-15011984D02*
X14774944Y-15021508D01*
X14774944Y-15021508D02*
X14784468Y-15031031D01*
X14784468Y-15031031D02*
X14793991Y-15050079D01*
X14793991Y-15050079D02*
X14803515Y-15088174D01*
X14803515Y-15088174D02*
X14803515Y-15135793D01*
X14803515Y-15135793D02*
X14793991Y-15173888D01*
X14793991Y-15173888D02*
X14784468Y-15192936D01*
X14784468Y-15192936D02*
X14774944Y-15202460D01*
X14774944Y-15202460D02*
X14755896Y-15211984D01*
X14755896Y-15211984D02*
X14736848Y-15211984D01*
X14736848Y-15211984D02*
X14717801Y-15202460D01*
X14717801Y-15202460D02*
X14708277Y-15192936D01*
X14708277Y-15192936D02*
X14698753Y-15173888D01*
X14698753Y-15173888D02*
X14689229Y-15135793D01*
X14689229Y-15135793D02*
X14689229Y-15088174D01*
X14689229Y-15088174D02*
X14698753Y-15050079D01*
X14698753Y-15050079D02*
X14708277Y-15031031D01*
X14708277Y-15031031D02*
X14717801Y-15021508D01*
X14717801Y-15021508D02*
X14736848Y-15011984D01*
X15041610Y-15211984D02*
X15041610Y-15011984D01*
X15127325Y-15211984D02*
X15127325Y-15107222D01*
X15127325Y-15107222D02*
X15117801Y-15088174D01*
X15117801Y-15088174D02*
X15098753Y-15078650D01*
X15098753Y-15078650D02*
X15070182Y-15078650D01*
X15070182Y-15078650D02*
X15051134Y-15088174D01*
X15051134Y-15088174D02*
X15041610Y-15097698D01*
X15251134Y-15211984D02*
X15232087Y-15202460D01*
X15232087Y-15202460D02*
X15222563Y-15192936D01*
X15222563Y-15192936D02*
X15213039Y-15173888D01*
X15213039Y-15173888D02*
X15213039Y-15116746D01*
X15213039Y-15116746D02*
X15222563Y-15097698D01*
X15222563Y-15097698D02*
X15232087Y-15088174D01*
X15232087Y-15088174D02*
X15251134Y-15078650D01*
X15251134Y-15078650D02*
X15279706Y-15078650D01*
X15279706Y-15078650D02*
X15298753Y-15088174D01*
X15298753Y-15088174D02*
X15308277Y-15097698D01*
X15308277Y-15097698D02*
X15317801Y-15116746D01*
X15317801Y-15116746D02*
X15317801Y-15173888D01*
X15317801Y-15173888D02*
X15308277Y-15192936D01*
X15308277Y-15192936D02*
X15298753Y-15202460D01*
X15298753Y-15202460D02*
X15279706Y-15211984D01*
X15279706Y-15211984D02*
X15251134Y-15211984D01*
X15432087Y-15211984D02*
X15413039Y-15202460D01*
X15413039Y-15202460D02*
X15403515Y-15183412D01*
X15403515Y-15183412D02*
X15403515Y-15011984D01*
X15584468Y-15202460D02*
X15565420Y-15211984D01*
X15565420Y-15211984D02*
X15527325Y-15211984D01*
X15527325Y-15211984D02*
X15508277Y-15202460D01*
X15508277Y-15202460D02*
X15498753Y-15183412D01*
X15498753Y-15183412D02*
X15498753Y-15107222D01*
X15498753Y-15107222D02*
X15508277Y-15088174D01*
X15508277Y-15088174D02*
X15527325Y-15078650D01*
X15527325Y-15078650D02*
X15565420Y-15078650D01*
X15565420Y-15078650D02*
X15584468Y-15088174D01*
X15584468Y-15088174D02*
X15593991Y-15107222D01*
X15593991Y-15107222D02*
X15593991Y-15126269D01*
X15593991Y-15126269D02*
X15498753Y-15145317D01*
X15670182Y-15202460D02*
X15689230Y-15211984D01*
X15689230Y-15211984D02*
X15727325Y-15211984D01*
X15727325Y-15211984D02*
X15746372Y-15202460D01*
X15746372Y-15202460D02*
X15755896Y-15183412D01*
X15755896Y-15183412D02*
X15755896Y-15173888D01*
X15755896Y-15173888D02*
X15746372Y-15154841D01*
X15746372Y-15154841D02*
X15727325Y-15145317D01*
X15727325Y-15145317D02*
X15698753Y-15145317D01*
X15698753Y-15145317D02*
X15679706Y-15135793D01*
X15679706Y-15135793D02*
X15670182Y-15116746D01*
X15670182Y-15116746D02*
X15670182Y-15107222D01*
X15670182Y-15107222D02*
X15679706Y-15088174D01*
X15679706Y-15088174D02*
X15698753Y-15078650D01*
X15698753Y-15078650D02*
X15727325Y-15078650D01*
X15727325Y-15078650D02*
X15746372Y-15088174D01*
X15993992Y-15135793D02*
X16146373Y-15135793D01*
X16070182Y-15211984D02*
X16070182Y-15059603D01*
X16479706Y-15078650D02*
X16479706Y-15211984D01*
X16432087Y-15002460D02*
X16384468Y-15145317D01*
X16384468Y-15145317D02*
X16508277Y-15145317D01*
X16727325Y-15202460D02*
X16746373Y-15211984D01*
X16746373Y-15211984D02*
X16784468Y-15211984D01*
X16784468Y-15211984D02*
X16803516Y-15202460D01*
X16803516Y-15202460D02*
X16813039Y-15183412D01*
X16813039Y-15183412D02*
X16813039Y-15173888D01*
X16813039Y-15173888D02*
X16803516Y-15154841D01*
X16803516Y-15154841D02*
X16784468Y-15145317D01*
X16784468Y-15145317D02*
X16755896Y-15145317D01*
X16755896Y-15145317D02*
X16736849Y-15135793D01*
X16736849Y-15135793D02*
X16727325Y-15116746D01*
X16727325Y-15116746D02*
X16727325Y-15107222D01*
X16727325Y-15107222D02*
X16736849Y-15088174D01*
X16736849Y-15088174D02*
X16755896Y-15078650D01*
X16755896Y-15078650D02*
X16784468Y-15078650D01*
X16784468Y-15078650D02*
X16803516Y-15088174D01*
X16927325Y-15211984D02*
X16908277Y-15202460D01*
X16908277Y-15202460D02*
X16898754Y-15183412D01*
X16898754Y-15183412D02*
X16898754Y-15011984D01*
X17032087Y-15211984D02*
X17013039Y-15202460D01*
X17013039Y-15202460D02*
X17003516Y-15192936D01*
X17003516Y-15192936D02*
X16993992Y-15173888D01*
X16993992Y-15173888D02*
X16993992Y-15116746D01*
X16993992Y-15116746D02*
X17003516Y-15097698D01*
X17003516Y-15097698D02*
X17013039Y-15088174D01*
X17013039Y-15088174D02*
X17032087Y-15078650D01*
X17032087Y-15078650D02*
X17060658Y-15078650D01*
X17060658Y-15078650D02*
X17079706Y-15088174D01*
X17079706Y-15088174D02*
X17089230Y-15097698D01*
X17089230Y-15097698D02*
X17098754Y-15116746D01*
X17098754Y-15116746D02*
X17098754Y-15173888D01*
X17098754Y-15173888D02*
X17089230Y-15192936D01*
X17089230Y-15192936D02*
X17079706Y-15202460D01*
X17079706Y-15202460D02*
X17060658Y-15211984D01*
X17060658Y-15211984D02*
X17032087Y-15211984D01*
X17155897Y-15078650D02*
X17232087Y-15078650D01*
X17184468Y-15011984D02*
X17184468Y-15183412D01*
X17184468Y-15183412D02*
X17193992Y-15202460D01*
X17193992Y-15202460D02*
X17213039Y-15211984D01*
X17213039Y-15211984D02*
X17232087Y-15211984D01*
X17289230Y-15202460D02*
X17308277Y-15211984D01*
X17308277Y-15211984D02*
X17346373Y-15211984D01*
X17346373Y-15211984D02*
X17365420Y-15202460D01*
X17365420Y-15202460D02*
X17374944Y-15183412D01*
X17374944Y-15183412D02*
X17374944Y-15173888D01*
X17374944Y-15173888D02*
X17365420Y-15154841D01*
X17365420Y-15154841D02*
X17346373Y-15145317D01*
X17346373Y-15145317D02*
X17317801Y-15145317D01*
X17317801Y-15145317D02*
X17298754Y-15135793D01*
X17298754Y-15135793D02*
X17289230Y-15116746D01*
X17289230Y-15116746D02*
X17289230Y-15107222D01*
X17289230Y-15107222D02*
X17298754Y-15088174D01*
X17298754Y-15088174D02*
X17317801Y-15078650D01*
X17317801Y-15078650D02*
X17346373Y-15078650D01*
X17346373Y-15078650D02*
X17365420Y-15088174D01*
X17441611Y-15288174D02*
X17451135Y-15278650D01*
X17451135Y-15278650D02*
X17470182Y-15250079D01*
X17470182Y-15250079D02*
X17479706Y-15231031D01*
X17479706Y-15231031D02*
X17489230Y-15202460D01*
X17489230Y-15202460D02*
X17498754Y-15154841D01*
X17498754Y-15154841D02*
X17498754Y-15116746D01*
X17498754Y-15116746D02*
X17489230Y-15069127D01*
X17489230Y-15069127D02*
X17479706Y-15040555D01*
X17479706Y-15040555D02*
X17470182Y-15021508D01*
X17470182Y-15021508D02*
X17451135Y-14992936D01*
X17451135Y-14992936D02*
X17441611Y-14983412D01*
D12*
X11036517Y-15411017D02*
X11036517Y-15357983D01*
X10983483Y-15357983D01*
X10983483Y-15411017D01*
X11036517Y-15411017D01*
D11*
X11346372Y-15275984D02*
X11365420Y-15275984D01*
X11365420Y-15275984D02*
X11384467Y-15285508D01*
X11384467Y-15285508D02*
X11393991Y-15295031D01*
X11393991Y-15295031D02*
X11403515Y-15314079D01*
X11403515Y-15314079D02*
X11413039Y-15352174D01*
X11413039Y-15352174D02*
X11413039Y-15399793D01*
X11413039Y-15399793D02*
X11403515Y-15437888D01*
X11403515Y-15437888D02*
X11393991Y-15456936D01*
X11393991Y-15456936D02*
X11384467Y-15466460D01*
X11384467Y-15466460D02*
X11365420Y-15475984D01*
X11365420Y-15475984D02*
X11346372Y-15475984D01*
X11346372Y-15475984D02*
X11327324Y-15466460D01*
X11327324Y-15466460D02*
X11317801Y-15456936D01*
X11317801Y-15456936D02*
X11308277Y-15437888D01*
X11308277Y-15437888D02*
X11298753Y-15399793D01*
X11298753Y-15399793D02*
X11298753Y-15352174D01*
X11298753Y-15352174D02*
X11308277Y-15314079D01*
X11308277Y-15314079D02*
X11317801Y-15295031D01*
X11317801Y-15295031D02*
X11327324Y-15285508D01*
X11327324Y-15285508D02*
X11346372Y-15275984D01*
X11498753Y-15456936D02*
X11508277Y-15466460D01*
X11508277Y-15466460D02*
X11498753Y-15475984D01*
X11498753Y-15475984D02*
X11489229Y-15466460D01*
X11489229Y-15466460D02*
X11498753Y-15456936D01*
X11498753Y-15456936D02*
X11498753Y-15475984D01*
X11574943Y-15275984D02*
X11708277Y-15275984D01*
X11708277Y-15275984D02*
X11622562Y-15475984D01*
X11879705Y-15275984D02*
X11784467Y-15275984D01*
X11784467Y-15275984D02*
X11774943Y-15371222D01*
X11774943Y-15371222D02*
X11784467Y-15361698D01*
X11784467Y-15361698D02*
X11803515Y-15352174D01*
X11803515Y-15352174D02*
X11851134Y-15352174D01*
X11851134Y-15352174D02*
X11870182Y-15361698D01*
X11870182Y-15361698D02*
X11879705Y-15371222D01*
X11879705Y-15371222D02*
X11889229Y-15390269D01*
X11889229Y-15390269D02*
X11889229Y-15437888D01*
X11889229Y-15437888D02*
X11879705Y-15456936D01*
X11879705Y-15456936D02*
X11870182Y-15466460D01*
X11870182Y-15466460D02*
X11851134Y-15475984D01*
X11851134Y-15475984D02*
X11803515Y-15475984D01*
X11803515Y-15475984D02*
X11784467Y-15466460D01*
X11784467Y-15466460D02*
X11774943Y-15456936D01*
X12013039Y-15275984D02*
X12032086Y-15275984D01*
X12032086Y-15275984D02*
X12051134Y-15285508D01*
X12051134Y-15285508D02*
X12060658Y-15295031D01*
X12060658Y-15295031D02*
X12070182Y-15314079D01*
X12070182Y-15314079D02*
X12079705Y-15352174D01*
X12079705Y-15352174D02*
X12079705Y-15399793D01*
X12079705Y-15399793D02*
X12070182Y-15437888D01*
X12070182Y-15437888D02*
X12060658Y-15456936D01*
X12060658Y-15456936D02*
X12051134Y-15466460D01*
X12051134Y-15466460D02*
X12032086Y-15475984D01*
X12032086Y-15475984D02*
X12013039Y-15475984D01*
X12013039Y-15475984D02*
X11993991Y-15466460D01*
X11993991Y-15466460D02*
X11984467Y-15456936D01*
X11984467Y-15456936D02*
X11974943Y-15437888D01*
X11974943Y-15437888D02*
X11965420Y-15399793D01*
X11965420Y-15399793D02*
X11965420Y-15352174D01*
X11965420Y-15352174D02*
X11974943Y-15314079D01*
X11974943Y-15314079D02*
X11984467Y-15295031D01*
X11984467Y-15295031D02*
X11993991Y-15285508D01*
X11993991Y-15285508D02*
X12013039Y-15275984D01*
X12165420Y-15475984D02*
X12165420Y-15342650D01*
X12165420Y-15361698D02*
X12174943Y-15352174D01*
X12174943Y-15352174D02*
X12193991Y-15342650D01*
X12193991Y-15342650D02*
X12222563Y-15342650D01*
X12222563Y-15342650D02*
X12241610Y-15352174D01*
X12241610Y-15352174D02*
X12251134Y-15371222D01*
X12251134Y-15371222D02*
X12251134Y-15475984D01*
X12251134Y-15371222D02*
X12260658Y-15352174D01*
X12260658Y-15352174D02*
X12279705Y-15342650D01*
X12279705Y-15342650D02*
X12308277Y-15342650D01*
X12308277Y-15342650D02*
X12327324Y-15352174D01*
X12327324Y-15352174D02*
X12336848Y-15371222D01*
X12336848Y-15371222D02*
X12336848Y-15475984D01*
X12432086Y-15475984D02*
X12432086Y-15342650D01*
X12432086Y-15361698D02*
X12441610Y-15352174D01*
X12441610Y-15352174D02*
X12460658Y-15342650D01*
X12460658Y-15342650D02*
X12489229Y-15342650D01*
X12489229Y-15342650D02*
X12508277Y-15352174D01*
X12508277Y-15352174D02*
X12517801Y-15371222D01*
X12517801Y-15371222D02*
X12517801Y-15475984D01*
X12517801Y-15371222D02*
X12527324Y-15352174D01*
X12527324Y-15352174D02*
X12546372Y-15342650D01*
X12546372Y-15342650D02*
X12574943Y-15342650D01*
X12574943Y-15342650D02*
X12593991Y-15352174D01*
X12593991Y-15352174D02*
X12603515Y-15371222D01*
X12603515Y-15371222D02*
X12603515Y-15475984D01*
X12993991Y-15266460D02*
X12822563Y-15523603D01*
X13251134Y-15275984D02*
X13270182Y-15275984D01*
X13270182Y-15275984D02*
X13289229Y-15285508D01*
X13289229Y-15285508D02*
X13298753Y-15295031D01*
X13298753Y-15295031D02*
X13308277Y-15314079D01*
X13308277Y-15314079D02*
X13317801Y-15352174D01*
X13317801Y-15352174D02*
X13317801Y-15399793D01*
X13317801Y-15399793D02*
X13308277Y-15437888D01*
X13308277Y-15437888D02*
X13298753Y-15456936D01*
X13298753Y-15456936D02*
X13289229Y-15466460D01*
X13289229Y-15466460D02*
X13270182Y-15475984D01*
X13270182Y-15475984D02*
X13251134Y-15475984D01*
X13251134Y-15475984D02*
X13232086Y-15466460D01*
X13232086Y-15466460D02*
X13222563Y-15456936D01*
X13222563Y-15456936D02*
X13213039Y-15437888D01*
X13213039Y-15437888D02*
X13203515Y-15399793D01*
X13203515Y-15399793D02*
X13203515Y-15352174D01*
X13203515Y-15352174D02*
X13213039Y-15314079D01*
X13213039Y-15314079D02*
X13222563Y-15295031D01*
X13222563Y-15295031D02*
X13232086Y-15285508D01*
X13232086Y-15285508D02*
X13251134Y-15275984D01*
X13403515Y-15456936D02*
X13413039Y-15466460D01*
X13413039Y-15466460D02*
X13403515Y-15475984D01*
X13403515Y-15475984D02*
X13393991Y-15466460D01*
X13393991Y-15466460D02*
X13403515Y-15456936D01*
X13403515Y-15456936D02*
X13403515Y-15475984D01*
X13536848Y-15275984D02*
X13555896Y-15275984D01*
X13555896Y-15275984D02*
X13574944Y-15285508D01*
X13574944Y-15285508D02*
X13584467Y-15295031D01*
X13584467Y-15295031D02*
X13593991Y-15314079D01*
X13593991Y-15314079D02*
X13603515Y-15352174D01*
X13603515Y-15352174D02*
X13603515Y-15399793D01*
X13603515Y-15399793D02*
X13593991Y-15437888D01*
X13593991Y-15437888D02*
X13584467Y-15456936D01*
X13584467Y-15456936D02*
X13574944Y-15466460D01*
X13574944Y-15466460D02*
X13555896Y-15475984D01*
X13555896Y-15475984D02*
X13536848Y-15475984D01*
X13536848Y-15475984D02*
X13517801Y-15466460D01*
X13517801Y-15466460D02*
X13508277Y-15456936D01*
X13508277Y-15456936D02*
X13498753Y-15437888D01*
X13498753Y-15437888D02*
X13489229Y-15399793D01*
X13489229Y-15399793D02*
X13489229Y-15352174D01*
X13489229Y-15352174D02*
X13498753Y-15314079D01*
X13498753Y-15314079D02*
X13508277Y-15295031D01*
X13508277Y-15295031D02*
X13517801Y-15285508D01*
X13517801Y-15285508D02*
X13536848Y-15275984D01*
X13679706Y-15295031D02*
X13689229Y-15285508D01*
X13689229Y-15285508D02*
X13708277Y-15275984D01*
X13708277Y-15275984D02*
X13755896Y-15275984D01*
X13755896Y-15275984D02*
X13774944Y-15285508D01*
X13774944Y-15285508D02*
X13784467Y-15295031D01*
X13784467Y-15295031D02*
X13793991Y-15314079D01*
X13793991Y-15314079D02*
X13793991Y-15333127D01*
X13793991Y-15333127D02*
X13784467Y-15361698D01*
X13784467Y-15361698D02*
X13670182Y-15475984D01*
X13670182Y-15475984D02*
X13793991Y-15475984D01*
X13889229Y-15475984D02*
X13927325Y-15475984D01*
X13927325Y-15475984D02*
X13946372Y-15466460D01*
X13946372Y-15466460D02*
X13955896Y-15456936D01*
X13955896Y-15456936D02*
X13974944Y-15428365D01*
X13974944Y-15428365D02*
X13984467Y-15390269D01*
X13984467Y-15390269D02*
X13984467Y-15314079D01*
X13984467Y-15314079D02*
X13974944Y-15295031D01*
X13974944Y-15295031D02*
X13965420Y-15285508D01*
X13965420Y-15285508D02*
X13946372Y-15275984D01*
X13946372Y-15275984D02*
X13908277Y-15275984D01*
X13908277Y-15275984D02*
X13889229Y-15285508D01*
X13889229Y-15285508D02*
X13879706Y-15295031D01*
X13879706Y-15295031D02*
X13870182Y-15314079D01*
X13870182Y-15314079D02*
X13870182Y-15361698D01*
X13870182Y-15361698D02*
X13879706Y-15380746D01*
X13879706Y-15380746D02*
X13889229Y-15390269D01*
X13889229Y-15390269D02*
X13908277Y-15399793D01*
X13908277Y-15399793D02*
X13946372Y-15399793D01*
X13946372Y-15399793D02*
X13965420Y-15390269D01*
X13965420Y-15390269D02*
X13974944Y-15380746D01*
X13974944Y-15380746D02*
X13984467Y-15361698D01*
X14165420Y-15275984D02*
X14070182Y-15275984D01*
X14070182Y-15275984D02*
X14060658Y-15371222D01*
X14060658Y-15371222D02*
X14070182Y-15361698D01*
X14070182Y-15361698D02*
X14089229Y-15352174D01*
X14089229Y-15352174D02*
X14136848Y-15352174D01*
X14136848Y-15352174D02*
X14155896Y-15361698D01*
X14155896Y-15361698D02*
X14165420Y-15371222D01*
X14165420Y-15371222D02*
X14174944Y-15390269D01*
X14174944Y-15390269D02*
X14174944Y-15437888D01*
X14174944Y-15437888D02*
X14165420Y-15456936D01*
X14165420Y-15456936D02*
X14155896Y-15466460D01*
X14155896Y-15466460D02*
X14136848Y-15475984D01*
X14136848Y-15475984D02*
X14089229Y-15475984D01*
X14089229Y-15475984D02*
X14070182Y-15466460D01*
X14070182Y-15466460D02*
X14060658Y-15456936D01*
X14251134Y-15275984D02*
X14251134Y-15314079D01*
X14327325Y-15275984D02*
X14327325Y-15314079D01*
X14622563Y-15552174D02*
X14613039Y-15542650D01*
X14613039Y-15542650D02*
X14593991Y-15514079D01*
X14593991Y-15514079D02*
X14584468Y-15495031D01*
X14584468Y-15495031D02*
X14574944Y-15466460D01*
X14574944Y-15466460D02*
X14565420Y-15418841D01*
X14565420Y-15418841D02*
X14565420Y-15380746D01*
X14565420Y-15380746D02*
X14574944Y-15333127D01*
X14574944Y-15333127D02*
X14584468Y-15304555D01*
X14584468Y-15304555D02*
X14593991Y-15285508D01*
X14593991Y-15285508D02*
X14613039Y-15256936D01*
X14613039Y-15256936D02*
X14622563Y-15247412D01*
X14708277Y-15475984D02*
X14746372Y-15475984D01*
X14746372Y-15475984D02*
X14765420Y-15466460D01*
X14765420Y-15466460D02*
X14774944Y-15456936D01*
X14774944Y-15456936D02*
X14793991Y-15428365D01*
X14793991Y-15428365D02*
X14803515Y-15390269D01*
X14803515Y-15390269D02*
X14803515Y-15314079D01*
X14803515Y-15314079D02*
X14793991Y-15295031D01*
X14793991Y-15295031D02*
X14784468Y-15285508D01*
X14784468Y-15285508D02*
X14765420Y-15275984D01*
X14765420Y-15275984D02*
X14727325Y-15275984D01*
X14727325Y-15275984D02*
X14708277Y-15285508D01*
X14708277Y-15285508D02*
X14698753Y-15295031D01*
X14698753Y-15295031D02*
X14689229Y-15314079D01*
X14689229Y-15314079D02*
X14689229Y-15361698D01*
X14689229Y-15361698D02*
X14698753Y-15380746D01*
X14698753Y-15380746D02*
X14708277Y-15390269D01*
X14708277Y-15390269D02*
X14727325Y-15399793D01*
X14727325Y-15399793D02*
X14765420Y-15399793D01*
X14765420Y-15399793D02*
X14784468Y-15390269D01*
X14784468Y-15390269D02*
X14793991Y-15380746D01*
X14793991Y-15380746D02*
X14803515Y-15361698D01*
X15041610Y-15475984D02*
X15041610Y-15275984D01*
X15127325Y-15475984D02*
X15127325Y-15371222D01*
X15127325Y-15371222D02*
X15117801Y-15352174D01*
X15117801Y-15352174D02*
X15098753Y-15342650D01*
X15098753Y-15342650D02*
X15070182Y-15342650D01*
X15070182Y-15342650D02*
X15051134Y-15352174D01*
X15051134Y-15352174D02*
X15041610Y-15361698D01*
X15251134Y-15475984D02*
X15232087Y-15466460D01*
X15232087Y-15466460D02*
X15222563Y-15456936D01*
X15222563Y-15456936D02*
X15213039Y-15437888D01*
X15213039Y-15437888D02*
X15213039Y-15380746D01*
X15213039Y-15380746D02*
X15222563Y-15361698D01*
X15222563Y-15361698D02*
X15232087Y-15352174D01*
X15232087Y-15352174D02*
X15251134Y-15342650D01*
X15251134Y-15342650D02*
X15279706Y-15342650D01*
X15279706Y-15342650D02*
X15298753Y-15352174D01*
X15298753Y-15352174D02*
X15308277Y-15361698D01*
X15308277Y-15361698D02*
X15317801Y-15380746D01*
X15317801Y-15380746D02*
X15317801Y-15437888D01*
X15317801Y-15437888D02*
X15308277Y-15456936D01*
X15308277Y-15456936D02*
X15298753Y-15466460D01*
X15298753Y-15466460D02*
X15279706Y-15475984D01*
X15279706Y-15475984D02*
X15251134Y-15475984D01*
X15432087Y-15475984D02*
X15413039Y-15466460D01*
X15413039Y-15466460D02*
X15403515Y-15447412D01*
X15403515Y-15447412D02*
X15403515Y-15275984D01*
X15584468Y-15466460D02*
X15565420Y-15475984D01*
X15565420Y-15475984D02*
X15527325Y-15475984D01*
X15527325Y-15475984D02*
X15508277Y-15466460D01*
X15508277Y-15466460D02*
X15498753Y-15447412D01*
X15498753Y-15447412D02*
X15498753Y-15371222D01*
X15498753Y-15371222D02*
X15508277Y-15352174D01*
X15508277Y-15352174D02*
X15527325Y-15342650D01*
X15527325Y-15342650D02*
X15565420Y-15342650D01*
X15565420Y-15342650D02*
X15584468Y-15352174D01*
X15584468Y-15352174D02*
X15593991Y-15371222D01*
X15593991Y-15371222D02*
X15593991Y-15390269D01*
X15593991Y-15390269D02*
X15498753Y-15409317D01*
X15670182Y-15466460D02*
X15689230Y-15475984D01*
X15689230Y-15475984D02*
X15727325Y-15475984D01*
X15727325Y-15475984D02*
X15746372Y-15466460D01*
X15746372Y-15466460D02*
X15755896Y-15447412D01*
X15755896Y-15447412D02*
X15755896Y-15437888D01*
X15755896Y-15437888D02*
X15746372Y-15418841D01*
X15746372Y-15418841D02*
X15727325Y-15409317D01*
X15727325Y-15409317D02*
X15698753Y-15409317D01*
X15698753Y-15409317D02*
X15679706Y-15399793D01*
X15679706Y-15399793D02*
X15670182Y-15380746D01*
X15670182Y-15380746D02*
X15670182Y-15371222D01*
X15670182Y-15371222D02*
X15679706Y-15352174D01*
X15679706Y-15352174D02*
X15698753Y-15342650D01*
X15698753Y-15342650D02*
X15727325Y-15342650D01*
X15727325Y-15342650D02*
X15746372Y-15352174D01*
X15822563Y-15552174D02*
X15832087Y-15542650D01*
X15832087Y-15542650D02*
X15851134Y-15514079D01*
X15851134Y-15514079D02*
X15860658Y-15495031D01*
X15860658Y-15495031D02*
X15870182Y-15466460D01*
X15870182Y-15466460D02*
X15879706Y-15418841D01*
X15879706Y-15418841D02*
X15879706Y-15380746D01*
X15879706Y-15380746D02*
X15870182Y-15333127D01*
X15870182Y-15333127D02*
X15860658Y-15304555D01*
X15860658Y-15304555D02*
X15851134Y-15285508D01*
X15851134Y-15285508D02*
X15832087Y-15256936D01*
X15832087Y-15256936D02*
X15822563Y-15247412D01*
D12*
X10997500Y-15698500D02*
X11047500Y-15648500D01*
X10997500Y-15598500D01*
X10947500Y-15648500D01*
X10997500Y-15698500D01*
D11*
X11413039Y-15739984D02*
X11298753Y-15739984D01*
X11355896Y-15739984D02*
X11355896Y-15539984D01*
X11355896Y-15539984D02*
X11336848Y-15568555D01*
X11336848Y-15568555D02*
X11317801Y-15587603D01*
X11317801Y-15587603D02*
X11298753Y-15597127D01*
X11498753Y-15720936D02*
X11508277Y-15730460D01*
X11508277Y-15730460D02*
X11498753Y-15739984D01*
X11498753Y-15739984D02*
X11489229Y-15730460D01*
X11489229Y-15730460D02*
X11498753Y-15720936D01*
X11498753Y-15720936D02*
X11498753Y-15739984D01*
X11632086Y-15539984D02*
X11651134Y-15539984D01*
X11651134Y-15539984D02*
X11670182Y-15549508D01*
X11670182Y-15549508D02*
X11679705Y-15559031D01*
X11679705Y-15559031D02*
X11689229Y-15578079D01*
X11689229Y-15578079D02*
X11698753Y-15616174D01*
X11698753Y-15616174D02*
X11698753Y-15663793D01*
X11698753Y-15663793D02*
X11689229Y-15701888D01*
X11689229Y-15701888D02*
X11679705Y-15720936D01*
X11679705Y-15720936D02*
X11670182Y-15730460D01*
X11670182Y-15730460D02*
X11651134Y-15739984D01*
X11651134Y-15739984D02*
X11632086Y-15739984D01*
X11632086Y-15739984D02*
X11613039Y-15730460D01*
X11613039Y-15730460D02*
X11603515Y-15720936D01*
X11603515Y-15720936D02*
X11593991Y-15701888D01*
X11593991Y-15701888D02*
X11584467Y-15663793D01*
X11584467Y-15663793D02*
X11584467Y-15616174D01*
X11584467Y-15616174D02*
X11593991Y-15578079D01*
X11593991Y-15578079D02*
X11603515Y-15559031D01*
X11603515Y-15559031D02*
X11613039Y-15549508D01*
X11613039Y-15549508D02*
X11632086Y-15539984D01*
X11822562Y-15539984D02*
X11841610Y-15539984D01*
X11841610Y-15539984D02*
X11860658Y-15549508D01*
X11860658Y-15549508D02*
X11870182Y-15559031D01*
X11870182Y-15559031D02*
X11879705Y-15578079D01*
X11879705Y-15578079D02*
X11889229Y-15616174D01*
X11889229Y-15616174D02*
X11889229Y-15663793D01*
X11889229Y-15663793D02*
X11879705Y-15701888D01*
X11879705Y-15701888D02*
X11870182Y-15720936D01*
X11870182Y-15720936D02*
X11860658Y-15730460D01*
X11860658Y-15730460D02*
X11841610Y-15739984D01*
X11841610Y-15739984D02*
X11822562Y-15739984D01*
X11822562Y-15739984D02*
X11803515Y-15730460D01*
X11803515Y-15730460D02*
X11793991Y-15720936D01*
X11793991Y-15720936D02*
X11784467Y-15701888D01*
X11784467Y-15701888D02*
X11774943Y-15663793D01*
X11774943Y-15663793D02*
X11774943Y-15616174D01*
X11774943Y-15616174D02*
X11784467Y-15578079D01*
X11784467Y-15578079D02*
X11793991Y-15559031D01*
X11793991Y-15559031D02*
X11803515Y-15549508D01*
X11803515Y-15549508D02*
X11822562Y-15539984D01*
X12013039Y-15539984D02*
X12032086Y-15539984D01*
X12032086Y-15539984D02*
X12051134Y-15549508D01*
X12051134Y-15549508D02*
X12060658Y-15559031D01*
X12060658Y-15559031D02*
X12070182Y-15578079D01*
X12070182Y-15578079D02*
X12079705Y-15616174D01*
X12079705Y-15616174D02*
X12079705Y-15663793D01*
X12079705Y-15663793D02*
X12070182Y-15701888D01*
X12070182Y-15701888D02*
X12060658Y-15720936D01*
X12060658Y-15720936D02*
X12051134Y-15730460D01*
X12051134Y-15730460D02*
X12032086Y-15739984D01*
X12032086Y-15739984D02*
X12013039Y-15739984D01*
X12013039Y-15739984D02*
X11993991Y-15730460D01*
X11993991Y-15730460D02*
X11984467Y-15720936D01*
X11984467Y-15720936D02*
X11974943Y-15701888D01*
X11974943Y-15701888D02*
X11965420Y-15663793D01*
X11965420Y-15663793D02*
X11965420Y-15616174D01*
X11965420Y-15616174D02*
X11974943Y-15578079D01*
X11974943Y-15578079D02*
X11984467Y-15559031D01*
X11984467Y-15559031D02*
X11993991Y-15549508D01*
X11993991Y-15549508D02*
X12013039Y-15539984D01*
X12165420Y-15739984D02*
X12165420Y-15606650D01*
X12165420Y-15625698D02*
X12174943Y-15616174D01*
X12174943Y-15616174D02*
X12193991Y-15606650D01*
X12193991Y-15606650D02*
X12222563Y-15606650D01*
X12222563Y-15606650D02*
X12241610Y-15616174D01*
X12241610Y-15616174D02*
X12251134Y-15635222D01*
X12251134Y-15635222D02*
X12251134Y-15739984D01*
X12251134Y-15635222D02*
X12260658Y-15616174D01*
X12260658Y-15616174D02*
X12279705Y-15606650D01*
X12279705Y-15606650D02*
X12308277Y-15606650D01*
X12308277Y-15606650D02*
X12327324Y-15616174D01*
X12327324Y-15616174D02*
X12336848Y-15635222D01*
X12336848Y-15635222D02*
X12336848Y-15739984D01*
X12432086Y-15739984D02*
X12432086Y-15606650D01*
X12432086Y-15625698D02*
X12441610Y-15616174D01*
X12441610Y-15616174D02*
X12460658Y-15606650D01*
X12460658Y-15606650D02*
X12489229Y-15606650D01*
X12489229Y-15606650D02*
X12508277Y-15616174D01*
X12508277Y-15616174D02*
X12517801Y-15635222D01*
X12517801Y-15635222D02*
X12517801Y-15739984D01*
X12517801Y-15635222D02*
X12527324Y-15616174D01*
X12527324Y-15616174D02*
X12546372Y-15606650D01*
X12546372Y-15606650D02*
X12574943Y-15606650D01*
X12574943Y-15606650D02*
X12593991Y-15616174D01*
X12593991Y-15616174D02*
X12603515Y-15635222D01*
X12603515Y-15635222D02*
X12603515Y-15739984D01*
X12993991Y-15530460D02*
X12822563Y-15787603D01*
X13251134Y-15539984D02*
X13270182Y-15539984D01*
X13270182Y-15539984D02*
X13289229Y-15549508D01*
X13289229Y-15549508D02*
X13298753Y-15559031D01*
X13298753Y-15559031D02*
X13308277Y-15578079D01*
X13308277Y-15578079D02*
X13317801Y-15616174D01*
X13317801Y-15616174D02*
X13317801Y-15663793D01*
X13317801Y-15663793D02*
X13308277Y-15701888D01*
X13308277Y-15701888D02*
X13298753Y-15720936D01*
X13298753Y-15720936D02*
X13289229Y-15730460D01*
X13289229Y-15730460D02*
X13270182Y-15739984D01*
X13270182Y-15739984D02*
X13251134Y-15739984D01*
X13251134Y-15739984D02*
X13232086Y-15730460D01*
X13232086Y-15730460D02*
X13222563Y-15720936D01*
X13222563Y-15720936D02*
X13213039Y-15701888D01*
X13213039Y-15701888D02*
X13203515Y-15663793D01*
X13203515Y-15663793D02*
X13203515Y-15616174D01*
X13203515Y-15616174D02*
X13213039Y-15578079D01*
X13213039Y-15578079D02*
X13222563Y-15559031D01*
X13222563Y-15559031D02*
X13232086Y-15549508D01*
X13232086Y-15549508D02*
X13251134Y-15539984D01*
X13403515Y-15720936D02*
X13413039Y-15730460D01*
X13413039Y-15730460D02*
X13403515Y-15739984D01*
X13403515Y-15739984D02*
X13393991Y-15730460D01*
X13393991Y-15730460D02*
X13403515Y-15720936D01*
X13403515Y-15720936D02*
X13403515Y-15739984D01*
X13536848Y-15539984D02*
X13555896Y-15539984D01*
X13555896Y-15539984D02*
X13574944Y-15549508D01*
X13574944Y-15549508D02*
X13584467Y-15559031D01*
X13584467Y-15559031D02*
X13593991Y-15578079D01*
X13593991Y-15578079D02*
X13603515Y-15616174D01*
X13603515Y-15616174D02*
X13603515Y-15663793D01*
X13603515Y-15663793D02*
X13593991Y-15701888D01*
X13593991Y-15701888D02*
X13584467Y-15720936D01*
X13584467Y-15720936D02*
X13574944Y-15730460D01*
X13574944Y-15730460D02*
X13555896Y-15739984D01*
X13555896Y-15739984D02*
X13536848Y-15739984D01*
X13536848Y-15739984D02*
X13517801Y-15730460D01*
X13517801Y-15730460D02*
X13508277Y-15720936D01*
X13508277Y-15720936D02*
X13498753Y-15701888D01*
X13498753Y-15701888D02*
X13489229Y-15663793D01*
X13489229Y-15663793D02*
X13489229Y-15616174D01*
X13489229Y-15616174D02*
X13498753Y-15578079D01*
X13498753Y-15578079D02*
X13508277Y-15559031D01*
X13508277Y-15559031D02*
X13517801Y-15549508D01*
X13517801Y-15549508D02*
X13536848Y-15539984D01*
X13670182Y-15539984D02*
X13793991Y-15539984D01*
X13793991Y-15539984D02*
X13727325Y-15616174D01*
X13727325Y-15616174D02*
X13755896Y-15616174D01*
X13755896Y-15616174D02*
X13774944Y-15625698D01*
X13774944Y-15625698D02*
X13784467Y-15635222D01*
X13784467Y-15635222D02*
X13793991Y-15654269D01*
X13793991Y-15654269D02*
X13793991Y-15701888D01*
X13793991Y-15701888D02*
X13784467Y-15720936D01*
X13784467Y-15720936D02*
X13774944Y-15730460D01*
X13774944Y-15730460D02*
X13755896Y-15739984D01*
X13755896Y-15739984D02*
X13698753Y-15739984D01*
X13698753Y-15739984D02*
X13679706Y-15730460D01*
X13679706Y-15730460D02*
X13670182Y-15720936D01*
X13889229Y-15739984D02*
X13927325Y-15739984D01*
X13927325Y-15739984D02*
X13946372Y-15730460D01*
X13946372Y-15730460D02*
X13955896Y-15720936D01*
X13955896Y-15720936D02*
X13974944Y-15692365D01*
X13974944Y-15692365D02*
X13984467Y-15654269D01*
X13984467Y-15654269D02*
X13984467Y-15578079D01*
X13984467Y-15578079D02*
X13974944Y-15559031D01*
X13974944Y-15559031D02*
X13965420Y-15549508D01*
X13965420Y-15549508D02*
X13946372Y-15539984D01*
X13946372Y-15539984D02*
X13908277Y-15539984D01*
X13908277Y-15539984D02*
X13889229Y-15549508D01*
X13889229Y-15549508D02*
X13879706Y-15559031D01*
X13879706Y-15559031D02*
X13870182Y-15578079D01*
X13870182Y-15578079D02*
X13870182Y-15625698D01*
X13870182Y-15625698D02*
X13879706Y-15644746D01*
X13879706Y-15644746D02*
X13889229Y-15654269D01*
X13889229Y-15654269D02*
X13908277Y-15663793D01*
X13908277Y-15663793D02*
X13946372Y-15663793D01*
X13946372Y-15663793D02*
X13965420Y-15654269D01*
X13965420Y-15654269D02*
X13974944Y-15644746D01*
X13974944Y-15644746D02*
X13984467Y-15625698D01*
X14155896Y-15606650D02*
X14155896Y-15739984D01*
X14108277Y-15530460D02*
X14060658Y-15673317D01*
X14060658Y-15673317D02*
X14184467Y-15673317D01*
X14251134Y-15539984D02*
X14251134Y-15578079D01*
X14327325Y-15539984D02*
X14327325Y-15578079D01*
X14622563Y-15816174D02*
X14613039Y-15806650D01*
X14613039Y-15806650D02*
X14593991Y-15778079D01*
X14593991Y-15778079D02*
X14584468Y-15759031D01*
X14584468Y-15759031D02*
X14574944Y-15730460D01*
X14574944Y-15730460D02*
X14565420Y-15682841D01*
X14565420Y-15682841D02*
X14565420Y-15644746D01*
X14565420Y-15644746D02*
X14574944Y-15597127D01*
X14574944Y-15597127D02*
X14584468Y-15568555D01*
X14584468Y-15568555D02*
X14593991Y-15549508D01*
X14593991Y-15549508D02*
X14613039Y-15520936D01*
X14613039Y-15520936D02*
X14622563Y-15511412D01*
X14784468Y-15539984D02*
X14746372Y-15539984D01*
X14746372Y-15539984D02*
X14727325Y-15549508D01*
X14727325Y-15549508D02*
X14717801Y-15559031D01*
X14717801Y-15559031D02*
X14698753Y-15587603D01*
X14698753Y-15587603D02*
X14689229Y-15625698D01*
X14689229Y-15625698D02*
X14689229Y-15701888D01*
X14689229Y-15701888D02*
X14698753Y-15720936D01*
X14698753Y-15720936D02*
X14708277Y-15730460D01*
X14708277Y-15730460D02*
X14727325Y-15739984D01*
X14727325Y-15739984D02*
X14765420Y-15739984D01*
X14765420Y-15739984D02*
X14784468Y-15730460D01*
X14784468Y-15730460D02*
X14793991Y-15720936D01*
X14793991Y-15720936D02*
X14803515Y-15701888D01*
X14803515Y-15701888D02*
X14803515Y-15654269D01*
X14803515Y-15654269D02*
X14793991Y-15635222D01*
X14793991Y-15635222D02*
X14784468Y-15625698D01*
X14784468Y-15625698D02*
X14765420Y-15616174D01*
X14765420Y-15616174D02*
X14727325Y-15616174D01*
X14727325Y-15616174D02*
X14708277Y-15625698D01*
X14708277Y-15625698D02*
X14698753Y-15635222D01*
X14698753Y-15635222D02*
X14689229Y-15654269D01*
X15041610Y-15739984D02*
X15041610Y-15539984D01*
X15127325Y-15739984D02*
X15127325Y-15635222D01*
X15127325Y-15635222D02*
X15117801Y-15616174D01*
X15117801Y-15616174D02*
X15098753Y-15606650D01*
X15098753Y-15606650D02*
X15070182Y-15606650D01*
X15070182Y-15606650D02*
X15051134Y-15616174D01*
X15051134Y-15616174D02*
X15041610Y-15625698D01*
X15251134Y-15739984D02*
X15232087Y-15730460D01*
X15232087Y-15730460D02*
X15222563Y-15720936D01*
X15222563Y-15720936D02*
X15213039Y-15701888D01*
X15213039Y-15701888D02*
X15213039Y-15644746D01*
X15213039Y-15644746D02*
X15222563Y-15625698D01*
X15222563Y-15625698D02*
X15232087Y-15616174D01*
X15232087Y-15616174D02*
X15251134Y-15606650D01*
X15251134Y-15606650D02*
X15279706Y-15606650D01*
X15279706Y-15606650D02*
X15298753Y-15616174D01*
X15298753Y-15616174D02*
X15308277Y-15625698D01*
X15308277Y-15625698D02*
X15317801Y-15644746D01*
X15317801Y-15644746D02*
X15317801Y-15701888D01*
X15317801Y-15701888D02*
X15308277Y-15720936D01*
X15308277Y-15720936D02*
X15298753Y-15730460D01*
X15298753Y-15730460D02*
X15279706Y-15739984D01*
X15279706Y-15739984D02*
X15251134Y-15739984D01*
X15432087Y-15739984D02*
X15413039Y-15730460D01*
X15413039Y-15730460D02*
X15403515Y-15711412D01*
X15403515Y-15711412D02*
X15403515Y-15539984D01*
X15584468Y-15730460D02*
X15565420Y-15739984D01*
X15565420Y-15739984D02*
X15527325Y-15739984D01*
X15527325Y-15739984D02*
X15508277Y-15730460D01*
X15508277Y-15730460D02*
X15498753Y-15711412D01*
X15498753Y-15711412D02*
X15498753Y-15635222D01*
X15498753Y-15635222D02*
X15508277Y-15616174D01*
X15508277Y-15616174D02*
X15527325Y-15606650D01*
X15527325Y-15606650D02*
X15565420Y-15606650D01*
X15565420Y-15606650D02*
X15584468Y-15616174D01*
X15584468Y-15616174D02*
X15593991Y-15635222D01*
X15593991Y-15635222D02*
X15593991Y-15654269D01*
X15593991Y-15654269D02*
X15498753Y-15673317D01*
X15670182Y-15730460D02*
X15689230Y-15739984D01*
X15689230Y-15739984D02*
X15727325Y-15739984D01*
X15727325Y-15739984D02*
X15746372Y-15730460D01*
X15746372Y-15730460D02*
X15755896Y-15711412D01*
X15755896Y-15711412D02*
X15755896Y-15701888D01*
X15755896Y-15701888D02*
X15746372Y-15682841D01*
X15746372Y-15682841D02*
X15727325Y-15673317D01*
X15727325Y-15673317D02*
X15698753Y-15673317D01*
X15698753Y-15673317D02*
X15679706Y-15663793D01*
X15679706Y-15663793D02*
X15670182Y-15644746D01*
X15670182Y-15644746D02*
X15670182Y-15635222D01*
X15670182Y-15635222D02*
X15679706Y-15616174D01*
X15679706Y-15616174D02*
X15698753Y-15606650D01*
X15698753Y-15606650D02*
X15727325Y-15606650D01*
X15727325Y-15606650D02*
X15746372Y-15616174D01*
X15822563Y-15816174D02*
X15832087Y-15806650D01*
X15832087Y-15806650D02*
X15851134Y-15778079D01*
X15851134Y-15778079D02*
X15860658Y-15759031D01*
X15860658Y-15759031D02*
X15870182Y-15730460D01*
X15870182Y-15730460D02*
X15879706Y-15682841D01*
X15879706Y-15682841D02*
X15879706Y-15644746D01*
X15879706Y-15644746D02*
X15870182Y-15597127D01*
X15870182Y-15597127D02*
X15860658Y-15568555D01*
X15860658Y-15568555D02*
X15851134Y-15549508D01*
X15851134Y-15549508D02*
X15832087Y-15520936D01*
X15832087Y-15520936D02*
X15822563Y-15511412D01*
M02*
