%TF.GenerationSoftware,KiCad,Pcbnew,10.0.4*%
%TF.CreationDate,2026-07-08T07:11:57-04:00*%
%TF.ProjectId,smart-doorbell,736d6172-742d-4646-9f6f-7262656c6c2e,rev?*%
%TF.SameCoordinates,Original*%
%TF.FileFunction,Profile,NP*%
%FSLAX46Y46*%
G04 Gerber Fmt 4.6, Leading zero omitted, Abs format (unit mm)*
G04 Created by KiCad (PCBNEW 10.0.4) date 2026-07-08 07:11:57*
%MOMM*%
%LPD*%
G01*
G04 APERTURE LIST*
%TA.AperFunction,Profile*%
%ADD10C,0.050000*%
%TD*%
%ADD11C,0.050000*%
G04 APERTURE END LIST*
D10*
X110500000Y-58000000D02*
X110500000Y-130000000D01*
D11*
X110500000Y-58000000D02*
X110520553Y-58004100D01*
X110541078Y-58008175D01*
X110561564Y-58012221D01*
X110582020Y-58016241D01*
X110602438Y-58020233D01*
X110622827Y-58024200D01*
X110643178Y-58028138D01*
X110663499Y-58032050D01*
X110683782Y-58035935D01*
X110704037Y-58039793D01*
X110724252Y-58043624D01*
X110744440Y-58047429D01*
X110764588Y-58051207D01*
X110784709Y-58054959D01*
X110804791Y-58058684D01*
X110824844Y-58062382D01*
X110844860Y-58066054D01*
X110864846Y-58069700D01*
X110884795Y-58073319D01*
X110904716Y-58076912D01*
X110924598Y-58080478D01*
X110944453Y-58084019D01*
X110964269Y-58087532D01*
X110984057Y-58091020D01*
X111003808Y-58094482D01*
X111023530Y-58097918D01*
X111043215Y-58101327D01*
X111062872Y-58104711D01*
X111082491Y-58108069D01*
X111102082Y-58111401D01*
X111121636Y-58114707D01*
X111141162Y-58117988D01*
X111160650Y-58121242D01*
X111180111Y-58124471D01*
X111199534Y-58127674D01*
X111218930Y-58130852D01*
X111238288Y-58134003D01*
X111257619Y-58137130D01*
X111276913Y-58140231D01*
X111296179Y-58143307D01*
X111315409Y-58146357D01*
X111334610Y-58149382D01*
X111353775Y-58152381D01*
X111372913Y-58155355D01*
X111392013Y-58158304D01*
X111411087Y-58161228D01*
X111430123Y-58164127D01*
X111449133Y-58167001D01*
X111468106Y-58169849D01*
X111487051Y-58172673D01*
X111505961Y-58175471D01*
X111524843Y-58178245D01*
X111543688Y-58180994D01*
X111562507Y-58183718D01*
X111581289Y-58186417D01*
X111600045Y-58189092D01*
X111618764Y-58191741D01*
X111637456Y-58194367D01*
X111656113Y-58196967D01*
X111674742Y-58199543D01*
X111693336Y-58202095D01*
X111711902Y-58204622D01*
X111730433Y-58207124D01*
X111748937Y-58209603D01*
X111767406Y-58212056D01*
X111785847Y-58214486D01*
X111804254Y-58216891D01*
X111822633Y-58219272D01*
X111840977Y-58221629D01*
X111859295Y-58223962D01*
X111877577Y-58226270D01*
X111895832Y-58228555D01*
X111914053Y-58230815D01*
X111932247Y-58233052D01*
X111950406Y-58235265D01*
X111968538Y-58237454D01*
X111986635Y-58239619D01*
X112004706Y-58241760D01*
X112022743Y-58243877D01*
X112040752Y-58245971D01*
X112058728Y-58248041D01*
X112076676Y-58250087D01*
X112094591Y-58252110D01*
X112112479Y-58254109D01*
X112130332Y-58256085D01*
X112148160Y-58258037D01*
X112165952Y-58259966D01*
X112183719Y-58261872D01*
X112201452Y-58263754D01*
X112219158Y-58265613D01*
X112236831Y-58267448D01*
X112254477Y-58269260D01*
X112272090Y-58271049D01*
X112289676Y-58272816D01*
X112307228Y-58274558D01*
X112324755Y-58276278D01*
X112342248Y-58277975D01*
X112359715Y-58279649D01*
X112377148Y-58281300D01*
X112394555Y-58282928D01*
X112411929Y-58284533D01*
X112429277Y-58286116D01*
X112446592Y-58287675D01*
X112463881Y-58289212D01*
X112481137Y-58290726D01*
X112498367Y-58292218D01*
X112515564Y-58293687D01*
X112532735Y-58295133D01*
X112549873Y-58296557D01*
X112566986Y-58297958D01*
X112584065Y-58299337D01*
X112601119Y-58300693D01*
X112618141Y-58302027D01*
X112635137Y-58303339D01*
X112652100Y-58304629D01*
X112669037Y-58305896D01*
X112685943Y-58307141D01*
X112702822Y-58308364D01*
X112719670Y-58309564D01*
X112736492Y-58310743D01*
X112753281Y-58311899D01*
X112770046Y-58313034D01*
X112786778Y-58314146D01*
X112803485Y-58315237D01*
X112820159Y-58316306D01*
X112836809Y-58317352D01*
X112853427Y-58318377D01*
X112870019Y-58319381D01*
X112886580Y-58320362D01*
X112903115Y-58321322D01*
X112919619Y-58322260D01*
X112936098Y-58323176D01*
X112952545Y-58324071D01*
X112968967Y-58324944D01*
X112985358Y-58325796D01*
X113001723Y-58326626D01*
X113018058Y-58327435D01*
X113034367Y-58328222D01*
X113050645Y-58328988D01*
X113066899Y-58329733D01*
X113083121Y-58330457D01*
X113099318Y-58331159D01*
X113115484Y-58331840D01*
X113131626Y-58332499D01*
X113147736Y-58333138D01*
X113163822Y-58333755D01*
X113179877Y-58334352D01*
X113195908Y-58334927D01*
X113211907Y-58335482D01*
X113227883Y-58336015D01*
X113243827Y-58336528D01*
X113259747Y-58337019D01*
X113275637Y-58337490D01*
X113291502Y-58337940D01*
X113307336Y-58338369D01*
X113323147Y-58338778D01*
X113338927Y-58339165D01*
X113354682Y-58339532D01*
X113370408Y-58339879D01*
X113386109Y-58340205D01*
X113401780Y-58340510D01*
X113417427Y-58340795D01*
X113433044Y-58341059D01*
X113448636Y-58341303D01*
X113464199Y-58341526D01*
X113479738Y-58341729D01*
X113495247Y-58341912D01*
X113510732Y-58342074D01*
X113526187Y-58342217D01*
X113541618Y-58342338D01*
X113557020Y-58342440D01*
X113572398Y-58342522D01*
X113587746Y-58342583D01*
X113603071Y-58342624D01*
X113618366Y-58342645D01*
X113633637Y-58342647D01*
X113648879Y-58342628D01*
X113664097Y-58342589D01*
X113679286Y-58342530D01*
X113694452Y-58342452D01*
X113709588Y-58342353D01*
X113724701Y-58342235D01*
X113739784Y-58342097D01*
X113754845Y-58341939D01*
X113769876Y-58341762D01*
X113784884Y-58341565D01*
X113799863Y-58341348D01*
X113814819Y-58341111D01*
X113829746Y-58340855D01*
X113844649Y-58340580D01*
X113859524Y-58340285D01*
X113874376Y-58339970D01*
X113889199Y-58339636D01*
X113903999Y-58339283D01*
X113918771Y-58338910D01*
X113933519Y-58338518D01*
X113948239Y-58338106D01*
X113962936Y-58337676D01*
X113977605Y-58337226D01*
X113992251Y-58336756D01*
X114006869Y-58336268D01*
X114021463Y-58335760D01*
X114036030Y-58335234D01*
X114050574Y-58334688D01*
X114065090Y-58334123D01*
X114079583Y-58333539D01*
X114094048Y-58332937D01*
X114108490Y-58332315D01*
X114122905Y-58331674D01*
X114137297Y-58331015D01*
X114151661Y-58330336D01*
X114166003Y-58329639D01*
X114180317Y-58328923D01*
X114194608Y-58328188D01*
X114208873Y-58327435D01*
X114223114Y-58326662D01*
X114237328Y-58325872D01*
X114251520Y-58325062D01*
X114265684Y-58324234D01*
X114279826Y-58323387D01*
X114293941Y-58322522D01*
X114308034Y-58321638D01*
X114322099Y-58320736D01*
X114336142Y-58319815D01*
X114350159Y-58318876D01*
X114364152Y-58317919D01*
X114378120Y-58316943D01*
X114392064Y-58315949D01*
X114405983Y-58314936D01*
X114419879Y-58313905D01*
X114433748Y-58312856D01*
X114447595Y-58311789D01*
X114461416Y-58310704D01*
X114475215Y-58309600D01*
X114488987Y-58308479D01*
X114502737Y-58307339D01*
X114516461Y-58306181D01*
X114530163Y-58305005D01*
X114543839Y-58303812D01*
X114557492Y-58302600D01*
X114571120Y-58301370D01*
X114584726Y-58300123D01*
X114598306Y-58298857D01*
X114611864Y-58297574D01*
X114625396Y-58296273D01*
X114638906Y-58294954D01*
X114652391Y-58293617D01*
X114665854Y-58292263D01*
X114679291Y-58290890D01*
X114692706Y-58289501D01*
X114706096Y-58288093D01*
X114719464Y-58286668D01*
X114732807Y-58285225D01*
X114746128Y-58283765D01*
X114759424Y-58282287D01*
X114772698Y-58280792D01*
X114785947Y-58279279D01*
X114799175Y-58277749D01*
X114812377Y-58276201D01*
X114825558Y-58274636D01*
X114838714Y-58273054D01*
X114851848Y-58271454D01*
X114864958Y-58269837D01*
X114878046Y-58268203D01*
X114891109Y-58266551D01*
X114904151Y-58264882D01*
X114917169Y-58263196D01*
X114930165Y-58261493D01*
X114943136Y-58259772D01*
X114956086Y-58258035D01*
X114969012Y-58256280D01*
X114981916Y-58254508D01*
X114994796Y-58252720D01*
X115007655Y-58250914D01*
X115020489Y-58249091D01*
X115033303Y-58247251D01*
X115046092Y-58245395D01*
X115058860Y-58243521D01*
X115071604Y-58241631D01*
X115084327Y-58239723D01*
X115097026Y-58237799D01*
X115109704Y-58235858D01*
X115122358Y-58233900D01*
X115134992Y-58231926D01*
X115147601Y-58229935D01*
X115160190Y-58227927D01*
X115172754Y-58225902D01*
X115185298Y-58223860D01*
X115197819Y-58221803D01*
X115210318Y-58219728D01*
X115222795Y-58217637D01*
X115235250Y-58215529D01*
X115247682Y-58213405D01*
X115260093Y-58211264D01*
X115272481Y-58209107D01*
X115284849Y-58206933D01*
X115297193Y-58204743D01*
X115309516Y-58202536D01*
X115321817Y-58200313D01*
X115334097Y-58198073D01*
X115346354Y-58195818D01*
X115358590Y-58193546D01*
X115370803Y-58191257D01*
X115382996Y-58188953D01*
X115395167Y-58186632D01*
X115407316Y-58184295D01*
X115419443Y-58181941D01*
X115431550Y-58179572D01*
X115443634Y-58177186D01*
X115455698Y-58174784D01*
X115467739Y-58172366D01*
X115479760Y-58169932D01*
X115491758Y-58167482D01*
X115503737Y-58165016D01*
X115515693Y-58162534D01*
X115527628Y-58160035D01*
X115539542Y-58157521D01*
X115551435Y-58154991D01*
X115563306Y-58152445D01*
X115575157Y-58149883D01*
X115586987Y-58147305D01*
X115598795Y-58144711D01*
X115610583Y-58142102D01*
X115622350Y-58139476D01*
X115634095Y-58136835D01*
X115645820Y-58134178D01*
X115657524Y-58131505D01*
X115669207Y-58128816D01*
X115680869Y-58126112D01*
X115692511Y-58123392D01*
X115704132Y-58120656D01*
X115715732Y-58117905D01*
X115727311Y-58115138D01*
X115738871Y-58112355D01*
X115750409Y-58109557D01*
X115761927Y-58106743D01*
X115773424Y-58103914D01*
X115784901Y-58101069D01*
X115796357Y-58098209D01*
X115807793Y-58095332D01*
X115819209Y-58092441D01*
X115830604Y-58089534D01*
X115841979Y-58086612D01*
X115853334Y-58083674D01*
X115864668Y-58080721D01*
X115875983Y-58077752D01*
X115887277Y-58074768D01*
X115898551Y-58071769D01*
X115909804Y-58068754D01*
X115921038Y-58065724D01*
X115932252Y-58062679D01*
X115943446Y-58059618D01*
X115954620Y-58056542D01*
X115965774Y-58053451D01*
X115976908Y-58050345D01*
X115988022Y-58047223D01*
X115999116Y-58044087D01*
X116010191Y-58040935D01*
X116021245Y-58037768D01*
X116032280Y-58034586D01*
X116043295Y-58031388D01*
X116054291Y-58028176D01*
X116065267Y-58024948D01*
X116076223Y-58021706D01*
X116087160Y-58018448D01*
X116098078Y-58015176D01*
X116108975Y-58011888D01*
X116119854Y-58008585D01*
X116130713Y-58005268D01*
X116141552Y-58001935D01*
X116152372Y-57998588D01*
X116163173Y-57995225D01*
X116173954Y-57991848D01*
X116184716Y-57988455D01*
X116195459Y-57985048D01*
X116206183Y-57981626D01*
X116216888Y-57978189D01*
X116227573Y-57974737D01*
X116238239Y-57971270D01*
X116248886Y-57967789D01*
X116259515Y-57964293D01*
X116270124Y-57960782D01*
X116280714Y-57957256D01*
X116291285Y-57953715D01*
X116301837Y-57950160D01*
X116312370Y-57946590D01*
X116322885Y-57943005D01*
X116333380Y-57939406D01*
X116343857Y-57935792D01*
X116354315Y-57932163D01*
X116364755Y-57928520D01*
X116375175Y-57924862D01*
X116385577Y-57921189D01*
X116395961Y-57917502D01*
X116406326Y-57913800D01*
X116416671Y-57910083D01*
X116426999Y-57906352D01*
X116437308Y-57902607D01*
X116447599Y-57898846D01*
X116457871Y-57895072D01*
X116468125Y-57891282D01*
X116478360Y-57887479D01*
X116488577Y-57883660D01*
X116498775Y-57879828D01*
X116508956Y-57875980D01*
X116519117Y-57872119D01*
X116529261Y-57868243D01*
X116539386Y-57864352D01*
X116549494Y-57860447D01*
X116559583Y-57856528D01*
X116569654Y-57852594D01*
X116579707Y-57848646D01*
X116589742Y-57844683D01*
X116599759Y-57840707D01*
X116609758Y-57836715D01*
X116619738Y-57832710D01*
X116629702Y-57828690D01*
X116639646Y-57824656D01*
X116649574Y-57820607D01*
X116659483Y-57816544D01*
X116669375Y-57812467D01*
X116679248Y-57808376D01*
X116689104Y-57804270D01*
X116698942Y-57800150D01*
X116708763Y-57796016D01*
X116718565Y-57791867D01*
X116728350Y-57787705D01*
X116738117Y-57783528D01*
X116747868Y-57779337D01*
X116757599Y-57775132D01*
X116767315Y-57770912D01*
X116777011Y-57766678D01*
X116786692Y-57762430D01*
X116796353Y-57758168D01*
X116805999Y-57753892D01*
X116815626Y-57749602D01*
X116825236Y-57745297D01*
X116834828Y-57740979D01*
X116844404Y-57736646D01*
X116853962Y-57732299D01*
X116863503Y-57727938D01*
X116873026Y-57723563D01*
X116882534Y-57719174D01*
X116892022Y-57714771D01*
X116901495Y-57710354D01*
X116910949Y-57705922D01*
X116920388Y-57701477D01*
X116929808Y-57697018D01*
X116939212Y-57692544D01*
X116948599Y-57688057D01*
X116957969Y-57683555D01*
X116967321Y-57679039D01*
X116976658Y-57674509D01*
X116985976Y-57669966D01*
X116995279Y-57665408D01*
X117004563Y-57660837D01*
X117013833Y-57656251D01*
X117023084Y-57651652D01*
X117032319Y-57647038D01*
X117041537Y-57642411D01*
X117050739Y-57637769D01*
X117059923Y-57633114D01*
X117069092Y-57628444D01*
X117078242Y-57623761D01*
X117087378Y-57619063D01*
X117096495Y-57614352D01*
X117105598Y-57609626D01*
X117114682Y-57604888D01*
X117123752Y-57600134D01*
X117132803Y-57595368D01*
X117141840Y-57590586D01*
X117150858Y-57585792D01*
X117159862Y-57580982D01*
X117168847Y-57576160D01*
X117177818Y-57571323D01*
X117186771Y-57566473D01*
X117195710Y-57561608D01*
X117204630Y-57556731D01*
X117213536Y-57551838D01*
X117222423Y-57546933D01*
X117231297Y-57542012D01*
X117240152Y-57537079D01*
X117248993Y-57532131D01*
X117257816Y-57527170D01*
X117266625Y-57522194D01*
X117275416Y-57517205D01*
X117292952Y-57507185D01*
X117310423Y-57497109D01*
X117327831Y-57486978D01*
X117345174Y-57476792D01*
X117362455Y-57466550D01*
X117379672Y-57456253D01*
X117396826Y-57445901D01*
X117413917Y-57435493D01*
X117430945Y-57425030D01*
X117447911Y-57414511D01*
X117464815Y-57403937D01*
X117481656Y-57393308D01*
X117498435Y-57382624D01*
X117515152Y-57371884D01*
X117531808Y-57361089D01*
X117548402Y-57350238D01*
X117564935Y-57339332D01*
X117581407Y-57328371D01*
X117597817Y-57317354D01*
X117614167Y-57306282D01*
X117630456Y-57295154D01*
X117646685Y-57283971D01*
X117662853Y-57272733D01*
X117678961Y-57261439D01*
X117695009Y-57250089D01*
X117710998Y-57238684D01*
X117726926Y-57227223D01*
X117742795Y-57215707D01*
X117758605Y-57204135D01*
X117774355Y-57192508D01*
X117790047Y-57180825D01*
X117805679Y-57169086D01*
X117821252Y-57157291D01*
X117836767Y-57145440D01*
X117852223Y-57133534D01*
X117867621Y-57121572D01*
X117882961Y-57109554D01*
X117898243Y-57097479D01*
X117913466Y-57085349D01*
X117928632Y-57073163D01*
X117943740Y-57060920D01*
X117958791Y-57048621D01*
X117973784Y-57036266D01*
X117988720Y-57023855D01*
X118003598Y-57011387D01*
X118018420Y-56998863D01*
X118033184Y-56986283D01*
X118047892Y-56973645D01*
X118062543Y-56960951D01*
X118077138Y-56948201D01*
X118091676Y-56935394D01*
X118106158Y-56922529D01*
X118120583Y-56909608D01*
X118134952Y-56896630D01*
X118149266Y-56883595D01*
X118163523Y-56870502D01*
X118177725Y-56857353D01*
X118191871Y-56844146D01*
X118205961Y-56830881D01*
X118219996Y-56817559D01*
X118233975Y-56804180D01*
X118247899Y-56790743D01*
X118261768Y-56777248D01*
X118275582Y-56763695D01*
X118289340Y-56750084D01*
X118303044Y-56736415D01*
X118316693Y-56722688D01*
X118330287Y-56708903D01*
X118343826Y-56695059D01*
X118357311Y-56681157D01*
X118370741Y-56667197D01*
X118384117Y-56653177D01*
X118397439Y-56639099D01*
X118410706Y-56624962D01*
X118423919Y-56610767D01*
X118437077Y-56596511D01*
X118450182Y-56582197D01*
X118463233Y-56567824D01*
X118476229Y-56553391D01*
X118489172Y-56538898D01*
X118502061Y-56524346D01*
X118514896Y-56509734D01*
X118527678Y-56495062D01*
X118540405Y-56480330D01*
X118553079Y-56465537D01*
X118565700Y-56450685D01*
X118578267Y-56435772D01*
X118590780Y-56420798D01*
X118603240Y-56405764D01*
X118615647Y-56390669D01*
X118628001Y-56375513D01*
X118640301Y-56360296D01*
X118652547Y-56345018D01*
X118664741Y-56329678D01*
X118676881Y-56314277D01*
X118688969Y-56298814D01*
X118701003Y-56283290D01*
X118712983Y-56267703D01*
X118724911Y-56252055D01*
X118736786Y-56236344D01*
X118748608Y-56220571D01*
X118760377Y-56204735D01*
X118772092Y-56188837D01*
X118783755Y-56172876D01*
X118795365Y-56156851D01*
X118806921Y-56140764D01*
X118818425Y-56124614D01*
X118829876Y-56108400D01*
X118841274Y-56092123D01*
X118852619Y-56075782D01*
X118863911Y-56059377D01*
X118875150Y-56042908D01*
X118886336Y-56026374D01*
X118897470Y-56009777D01*
X118908550Y-55993115D01*
X118919577Y-55976388D01*
X118930552Y-55959596D01*
X118941473Y-55942740D01*
X118952341Y-55925818D01*
X118963157Y-55908831D01*
X118973919Y-55891778D01*
X118984628Y-55874660D01*
X118995284Y-55857476D01*
X119005888Y-55840226D01*
X119016437Y-55822909D01*
X119026934Y-55805526D01*
X119037378Y-55788077D01*
X119047768Y-55770561D01*
X119058106Y-55752979D01*
X119068389Y-55735329D01*
X119078620Y-55717612D01*
X119088797Y-55699827D01*
X119098921Y-55681975D01*
X119108991Y-55664056D01*
X119119008Y-55646068D01*
X119128972Y-55628012D01*
X119138881Y-55609888D01*
X119148737Y-55591695D01*
X119158540Y-55573434D01*
X119168288Y-55555104D01*
X119177983Y-55536705D01*
X119187624Y-55518237D01*
X119197211Y-55499700D01*
X119206744Y-55481093D01*
X119216223Y-55462416D01*
X119225648Y-55443669D01*
X119235019Y-55424852D01*
X119244335Y-55405965D01*
X119253597Y-55387007D01*
X119262805Y-55367979D01*
X119271958Y-55348880D01*
X119281056Y-55329710D01*
X119290100Y-55310469D01*
X119299089Y-55291156D01*
X119308024Y-55271772D01*
X119316903Y-55252316D01*
X119325727Y-55232788D01*
X119334497Y-55213188D01*
X119343211Y-55193515D01*
X119351870Y-55173770D01*
X119360473Y-55153952D01*
X119369021Y-55134062D01*
X119377514Y-55114098D01*
X119385951Y-55094061D01*
X119394332Y-55073951D01*
X119402657Y-55053767D01*
X119410926Y-55033509D01*
X119419139Y-55013177D01*
X119427296Y-54992771D01*
X119435396Y-54972291D01*
X119443441Y-54951736D01*
X119451428Y-54931106D01*
X119459359Y-54910402D01*
X119467233Y-54889622D01*
X119475050Y-54868767D01*
X119482811Y-54847836D01*
X119490514Y-54826830D01*
X119498159Y-54805748D01*
X119505748Y-54784590D01*
X119513278Y-54763355D01*
X119520752Y-54742045D01*
X119528167Y-54720657D01*
X119535524Y-54699193D01*
X119542824Y-54677652D01*
X119550065Y-54656034D01*
X119557247Y-54634338D01*
X119564372Y-54612565D01*
X119571437Y-54590714D01*
X119578444Y-54568786D01*
X119585392Y-54546779D01*
X119592280Y-54524694D01*
X119599110Y-54502531D01*
X119605880Y-54480290D01*
X119612591Y-54457969D01*
X119619241Y-54435570D01*
X119625832Y-54413092D01*
X119632363Y-54390534D01*
X119638834Y-54367897D01*
X119645245Y-54345181D01*
X119651594Y-54322384D01*
X119657884Y-54299508D01*
X119664112Y-54276552D01*
X119670280Y-54253516D01*
X119676386Y-54230399D01*
X119682431Y-54207201D01*
X119688414Y-54183923D01*
X119694336Y-54160564D01*
X119700195Y-54137125D01*
X119705993Y-54113604D01*
X119711729Y-54090001D01*
X119717402Y-54066317D01*
X119723012Y-54042552D01*
X119728560Y-54018705D01*
X119734045Y-53994776D01*
X119739467Y-53970765D01*
X119744825Y-53946672D01*
X119750120Y-53922496D01*
X119755351Y-53898238D01*
X119760518Y-53873898D01*
X119765621Y-53849474D01*
X119770660Y-53824968D01*
X119775634Y-53800379D01*
X119780544Y-53775707D01*
X119785389Y-53750952D01*
X119790168Y-53726113D01*
X119794883Y-53701191D01*
X119799532Y-53676186D01*
X119804115Y-53651096D01*
X119808632Y-53625923D01*
X119813084Y-53600666D01*
X119817469Y-53575326D01*
X119821787Y-53549901D01*
X119826039Y-53524392D01*
X119830224Y-53498798D01*
X119834341Y-53473121D01*
X119838392Y-53447359D01*
X119842375Y-53421512D01*
X119846290Y-53395581D01*
X119850137Y-53369565D01*
X119853916Y-53343465D01*
X119857627Y-53317280D01*
X119861268Y-53291010D01*
X119864842Y-53264655D01*
X119868346Y-53238215D01*
X119871780Y-53211690D01*
X119875146Y-53185080D01*
X119878441Y-53158385D01*
X119881667Y-53131605D01*
X119884822Y-53104740D01*
X119887907Y-53077790D01*
X119890922Y-53050755D01*
X119893865Y-53023634D01*
X119896738Y-52996428D01*
X119899539Y-52969137D01*
X119902269Y-52941761D01*
X119904927Y-52914299D01*
X119907513Y-52886753D01*
X119910027Y-52859121D01*
X119912469Y-52831404D01*
X119914837Y-52803603D01*
X119917134Y-52775716D01*
X119919356Y-52747744D01*
X119921506Y-52719687D01*
X119923582Y-52691545D01*
X119925584Y-52663319D01*
X119927513Y-52635008D01*
X119929367Y-52606612D01*
X119931147Y-52578132D01*
X119932852Y-52549567D01*
X119934482Y-52520918D01*
X119936036Y-52492184D01*
X119937516Y-52463367D01*
X119938920Y-52434465D01*
X119940248Y-52405480D01*
X119941500Y-52376411D01*
X119942676Y-52347259D01*
X119943775Y-52318024D01*
X119944798Y-52288705D01*
X119945744Y-52259303D01*
X119946612Y-52229819D01*
X119947404Y-52200252D01*
X119948117Y-52170603D01*
X119948753Y-52140871D01*
X119949311Y-52111058D01*
X119949790Y-52081164D01*
X119950191Y-52051188D01*
X119950513Y-52021131D01*
X119950757Y-51990994D01*
X119950921Y-51960776D01*
X119951006Y-51930478D01*
X119951012Y-51900101D01*
X119950937Y-51869644D01*
X119950783Y-51839109D01*
X119950549Y-51808495D01*
X119950234Y-51777802D01*
X119949839Y-51747032D01*
X119949363Y-51716185D01*
X119948806Y-51685261D01*
X119948168Y-51654261D01*
X119947449Y-51623185D01*
X119946648Y-51592034D01*
X119945766Y-51560808D01*
X119944802Y-51529508D01*
X119943756Y-51498134D01*
X119942627Y-51466687D01*
X119941416Y-51435168D01*
X119940123Y-51403577D01*
X119938747Y-51371916D01*
X119937289Y-51340183D01*
X119935747Y-51308382D01*
X119934122Y-51276511D01*
X119932414Y-51244573D01*
X119930623Y-51212567D01*
X119928748Y-51180494D01*
X119926789Y-51148357D01*
X119924747Y-51116154D01*
X119922621Y-51083888D01*
X119920411Y-51051559D01*
X119918117Y-51019169D01*
X119915739Y-50986717D01*
X119913276Y-50954206D01*
X119910730Y-50921637D01*
X119908099Y-50889011D01*
X119905383Y-50856328D01*
X119902583Y-50823590D01*
X119899699Y-50790799D01*
X119896730Y-50757956D01*
X119893677Y-50725062D01*
X119890539Y-50692118D01*
X119887317Y-50659127D01*
X119884010Y-50626089D01*
X119880619Y-50593006D01*
X119877144Y-50559881D01*
X119873584Y-50526714D01*
X119869940Y-50493508D01*
X119866212Y-50460264D01*
X119862400Y-50426984D01*
X119858504Y-50393670D01*
X119854524Y-50360325D01*
X119850461Y-50326951D01*
X119846314Y-50293549D01*
X119842084Y-50260123D01*
X119837771Y-50226674D01*
X119833376Y-50193205D01*
X119828898Y-50159719D01*
X119824338Y-50126219D01*
X119819697Y-50092707D01*
X119814974Y-50059187D01*
X119810170Y-50025661D01*
X119805286Y-49992133D01*
X119800322Y-49958606D01*
X119795278Y-49925084D01*
X119790156Y-49891570D01*
X119784955Y-49858069D01*
X119779676Y-49824584D01*
X119774320Y-49791120D01*
X119768889Y-49757680D01*
X119763381Y-49724271D01*
X119757799Y-49690896D01*
X119752144Y-49657560D01*
X119746416Y-49624270D01*
X119740616Y-49591031D01*
X119734746Y-49557848D01*
X119728807Y-49524728D01*
X119722800Y-49491678D01*
X119716726Y-49458704D01*
X119710588Y-49425814D01*
X119704386Y-49393016D01*
X119698123Y-49360318D01*
X119691801Y-49327729D01*
X119685421Y-49295258D01*
X119678986Y-49262915D01*
X119672499Y-49230710D01*
X119665961Y-49198656D01*
X119659376Y-49166764D01*
X119652747Y-49135047D01*
X119646077Y-49103520D01*
X119639371Y-49072197D01*
X119632632Y-49041094D01*
X119625864Y-49010230D01*
X119619072Y-48979624D01*
X119612263Y-48949297D01*
X119605441Y-48919272D01*
X119598614Y-48889575D01*
X119591789Y-48860234D01*
X119584975Y-48831281D01*
X119578180Y-48802750D01*
X119571417Y-48774683D01*
X119564697Y-48747125D01*
X119558035Y-48720128D01*
X119551448Y-48693754D01*
X119544956Y-48668074D01*
X119538584Y-48643177D01*
X119532361Y-48619167D01*
X119526328Y-48596180D01*
X119520532Y-48574389D01*
X119515044Y-48554033D01*
X119509965Y-48535458D01*
X119505457Y-48519220D01*
X119501836Y-48506391D01*
X119500000Y-48500000D01*
X118500000Y-47500000D02*
X118500000Y-47500000D01*
D10*
X119500000Y-48500000D02*
X160500000Y-48500000D01*
D11*
X119500000Y-139500000D02*
X119504962Y-139478454D01*
X119509896Y-139456938D01*
X119514801Y-139435463D01*
X119519678Y-139414018D01*
X119524525Y-139392614D01*
X119529346Y-139371240D01*
X119534136Y-139349907D01*
X119538899Y-139328605D01*
X119543632Y-139307342D01*
X119548339Y-139286110D01*
X119553016Y-139264919D01*
X119557665Y-139243757D01*
X119562286Y-139222636D01*
X119566879Y-139201545D01*
X119571443Y-139180494D01*
X119575981Y-139159473D01*
X119580489Y-139138492D01*
X119584970Y-139117541D01*
X119589422Y-139096630D01*
X119593848Y-139075748D01*
X119598244Y-139054907D01*
X119602614Y-139034095D01*
X119606955Y-139013323D01*
X119611270Y-138992581D01*
X119615556Y-138971879D01*
X119619815Y-138951206D01*
X119624046Y-138930572D01*
X119628250Y-138909968D01*
X119632426Y-138889404D01*
X119636575Y-138868869D01*
X119640696Y-138848373D01*
X119644791Y-138827906D01*
X119648858Y-138807479D01*
X119652898Y-138787081D01*
X119656910Y-138766723D01*
X119660896Y-138746393D01*
X119664854Y-138726103D01*
X119668787Y-138705841D01*
X119672691Y-138685619D01*
X119676569Y-138665425D01*
X119680419Y-138645271D01*
X119684244Y-138625145D01*
X119688040Y-138605058D01*
X119691811Y-138585000D01*
X119695555Y-138564980D01*
X119699272Y-138544990D01*
X119702962Y-138525038D01*
X119706627Y-138505114D01*
X119710264Y-138485229D01*
X119713875Y-138465373D01*
X119717460Y-138445555D01*
X119721018Y-138425766D01*
X119724550Y-138406014D01*
X119728056Y-138386292D01*
X119731535Y-138366607D01*
X119734989Y-138346951D01*
X119738416Y-138327332D01*
X119741817Y-138307743D01*
X119745192Y-138288191D01*
X119748541Y-138268667D01*
X119751864Y-138249181D01*
X119755162Y-138229723D01*
X119758433Y-138210303D01*
X119761679Y-138190911D01*
X119764898Y-138171557D01*
X119768092Y-138152231D01*
X119771260Y-138132942D01*
X119774404Y-138113681D01*
X119777520Y-138094458D01*
X119780612Y-138075262D01*
X119783678Y-138056104D01*
X119786719Y-138036973D01*
X119789734Y-138017880D01*
X119792725Y-137998814D01*
X119795689Y-137979786D01*
X119798629Y-137960785D01*
X119801542Y-137941821D01*
X119804432Y-137922885D01*
X119807295Y-137903986D01*
X119810134Y-137885114D01*
X119812948Y-137866279D01*
X119815737Y-137847471D01*
X119818500Y-137828700D01*
X119821239Y-137809956D01*
X119823953Y-137791249D01*
X119826642Y-137772569D01*
X119829306Y-137753926D01*
X119831946Y-137735310D01*
X119834561Y-137716730D01*
X119837151Y-137698178D01*
X119839716Y-137679661D01*
X119842258Y-137661172D01*
X119844774Y-137642719D01*
X119847266Y-137624293D01*
X119849734Y-137605903D01*
X119852177Y-137587539D01*
X119854596Y-137569212D01*
X119856991Y-137550912D01*
X119859361Y-137532647D01*
X119861707Y-137514409D01*
X119864029Y-137496207D01*
X119866327Y-137478032D01*
X119868600Y-137459892D01*
X119870850Y-137441779D01*
X119873075Y-137423702D01*
X119875277Y-137405651D01*
X119877455Y-137387635D01*
X119879609Y-137369646D01*
X119881739Y-137351692D01*
X119883845Y-137333765D01*
X119885928Y-137315873D01*
X119887987Y-137298007D01*
X119890022Y-137280177D01*
X119892033Y-137262372D01*
X119894021Y-137244603D01*
X119895986Y-137226860D01*
X119897927Y-137209151D01*
X119899844Y-137191470D01*
X119901738Y-137173822D01*
X119903609Y-137156201D01*
X119905456Y-137138614D01*
X119907280Y-137121054D01*
X119909081Y-137103528D01*
X119910859Y-137086028D01*
X119912613Y-137068562D01*
X119914345Y-137051123D01*
X119916053Y-137033718D01*
X119917738Y-137016338D01*
X119919400Y-136998993D01*
X119921040Y-136981674D01*
X119922656Y-136964388D01*
X119924250Y-136947129D01*
X119925820Y-136929903D01*
X119927368Y-136912703D01*
X119928893Y-136895537D01*
X119930396Y-136878397D01*
X119931875Y-136861290D01*
X119933333Y-136844209D01*
X119934767Y-136827161D01*
X119936179Y-136810140D01*
X119937569Y-136793151D01*
X119938936Y-136776188D01*
X119940280Y-136759259D01*
X119941602Y-136742354D01*
X119942902Y-136725484D01*
X119944180Y-136708638D01*
X119945435Y-136691826D01*
X119946668Y-136675039D01*
X119947879Y-136658285D01*
X119949068Y-136641556D01*
X119950234Y-136624860D01*
X119951379Y-136608189D01*
X119952501Y-136591552D01*
X119953602Y-136574939D01*
X119954680Y-136558359D01*
X119955737Y-136541804D01*
X119956772Y-136525282D01*
X119957785Y-136508785D01*
X119958776Y-136492320D01*
X119959746Y-136475880D01*
X119960693Y-136459472D01*
X119961619Y-136443090D01*
X119962524Y-136426740D01*
X119963407Y-136410414D01*
X119964268Y-136394121D01*
X119965107Y-136377852D01*
X119965926Y-136361616D01*
X119966722Y-136345404D01*
X119967498Y-136329224D01*
X119968252Y-136313069D01*
X119968984Y-136296946D01*
X119969696Y-136280847D01*
X119970386Y-136264780D01*
X119971055Y-136248738D01*
X119971703Y-136232727D01*
X119972329Y-136216740D01*
X119972935Y-136200785D01*
X119973519Y-136184855D01*
X119974083Y-136168956D01*
X119974625Y-136153081D01*
X119975146Y-136137238D01*
X119975647Y-136121419D01*
X119976127Y-136105631D01*
X119976586Y-136089867D01*
X119977024Y-136074134D01*
X119977441Y-136058426D01*
X119977837Y-136042748D01*
X119978213Y-136027095D01*
X119978568Y-136011473D01*
X119978903Y-135995874D01*
X119979217Y-135980306D01*
X119979510Y-135964763D01*
X119979783Y-135949250D01*
X119980036Y-135933761D01*
X119980268Y-135918302D01*
X119980479Y-135902868D01*
X119980671Y-135887463D01*
X119980842Y-135872083D01*
X119980992Y-135856733D01*
X119981123Y-135841407D01*
X119981233Y-135826110D01*
X119981323Y-135810838D01*
X119981393Y-135795596D01*
X119981442Y-135780377D01*
X119981472Y-135765189D01*
X119981481Y-135750024D01*
X119981471Y-135734888D01*
X119981441Y-135719777D01*
X119981390Y-135704695D01*
X119981320Y-135689637D01*
X119981230Y-135674608D01*
X119981120Y-135659603D01*
X119980990Y-135644627D01*
X119980841Y-135629675D01*
X119980672Y-135614752D01*
X119980483Y-135599853D01*
X119980274Y-135584983D01*
X119980046Y-135570136D01*
X119979798Y-135555318D01*
X119979531Y-135540524D01*
X119979244Y-135525758D01*
X119978938Y-135511016D01*
X119978612Y-135496303D01*
X119978267Y-135481613D01*
X119977902Y-135466952D01*
X119977518Y-135452314D01*
X119977115Y-135437705D01*
X119976692Y-135423119D01*
X119976251Y-135408561D01*
X119975790Y-135394027D01*
X119975309Y-135379521D01*
X119974810Y-135365038D01*
X119974292Y-135350583D01*
X119973754Y-135336151D01*
X119973198Y-135321748D01*
X119972622Y-135307367D01*
X119972027Y-135293015D01*
X119971414Y-135278685D01*
X119970781Y-135264384D01*
X119970130Y-135250105D01*
X119969460Y-135235854D01*
X119968771Y-135221626D01*
X119968063Y-135207426D01*
X119967336Y-135193249D01*
X119966591Y-135179099D01*
X119965827Y-135164972D01*
X119965044Y-135150872D01*
X119964243Y-135136795D01*
X119963423Y-135122746D01*
X119962585Y-135108719D01*
X119961728Y-135094719D01*
X119960852Y-135080742D01*
X119959959Y-135066793D01*
X119959046Y-135052865D01*
X119958115Y-135038965D01*
X119957166Y-135025088D01*
X119956199Y-135011237D01*
X119955213Y-134997409D01*
X119954209Y-134983607D01*
X119953186Y-134969828D01*
X119952146Y-134956076D01*
X119951087Y-134942346D01*
X119950010Y-134928643D01*
X119948915Y-134914962D01*
X119947802Y-134901307D01*
X119946671Y-134887675D01*
X119945521Y-134874069D01*
X119944354Y-134860486D01*
X119943169Y-134846929D01*
X119941965Y-134833394D01*
X119940744Y-134819885D01*
X119939505Y-134806398D01*
X119938249Y-134792937D01*
X119936974Y-134779499D01*
X119935681Y-134766086D01*
X119934371Y-134752695D01*
X119933043Y-134739331D01*
X119931697Y-134725988D01*
X119930334Y-134712671D01*
X119928953Y-134699376D01*
X119927554Y-134686106D01*
X119926138Y-134672859D01*
X119924704Y-134659637D01*
X119923252Y-134646437D01*
X119921784Y-134633262D01*
X119920297Y-134620109D01*
X119918793Y-134606981D01*
X119917272Y-134593875D01*
X119915733Y-134580795D01*
X119914177Y-134567736D01*
X119912604Y-134554702D01*
X119911013Y-134541690D01*
X119909405Y-134528703D01*
X119907780Y-134515737D01*
X119906137Y-134502797D01*
X119904478Y-134489878D01*
X119902801Y-134476983D01*
X119901107Y-134464111D01*
X119899396Y-134451262D01*
X119897667Y-134438436D01*
X119895922Y-134425634D01*
X119894160Y-134412853D01*
X119892380Y-134400097D01*
X119890584Y-134387363D01*
X119888771Y-134374652D01*
X119886940Y-134361963D01*
X119885093Y-134349298D01*
X119883229Y-134336655D01*
X119881348Y-134324036D01*
X119879451Y-134311438D01*
X119877536Y-134298864D01*
X119875605Y-134286311D01*
X119873657Y-134273782D01*
X119871692Y-134261274D01*
X119869711Y-134248790D01*
X119867712Y-134236328D01*
X119865698Y-134223889D01*
X119863666Y-134211471D01*
X119861618Y-134199077D01*
X119859553Y-134186703D01*
X119857472Y-134174354D01*
X119855375Y-134162025D01*
X119853260Y-134149720D01*
X119851130Y-134137435D01*
X119848983Y-134125174D01*
X119846819Y-134112934D01*
X119844639Y-134100717D01*
X119842443Y-134088521D01*
X119840230Y-134076348D01*
X119838001Y-134064196D01*
X119835756Y-134052067D01*
X119833494Y-134039959D01*
X119831217Y-134027873D01*
X119828923Y-134015808D01*
X119826612Y-134003767D01*
X119824286Y-133991745D01*
X119821943Y-133979747D01*
X119819584Y-133967769D01*
X119817210Y-133955814D01*
X119814819Y-133943879D01*
X119812412Y-133931967D01*
X119809989Y-133920075D01*
X119807550Y-133908206D01*
X119805094Y-133896357D01*
X119802623Y-133884531D01*
X119800136Y-133872725D01*
X119797633Y-133860941D01*
X119795114Y-133849178D01*
X119792580Y-133837437D01*
X119790029Y-133825716D01*
X119787462Y-133814017D01*
X119784880Y-133802338D01*
X119782282Y-133790682D01*
X119779668Y-133779046D01*
X119777038Y-133767431D01*
X119774393Y-133755837D01*
X119771732Y-133744264D01*
X119769055Y-133732712D01*
X119766363Y-133721181D01*
X119763654Y-133709671D01*
X119760931Y-133698182D01*
X119758191Y-133686713D01*
X119755436Y-133675265D01*
X119752666Y-133663838D01*
X119749880Y-133652432D01*
X119747078Y-133641046D01*
X119744261Y-133629681D01*
X119741428Y-133618336D01*
X119738580Y-133607012D01*
X119735717Y-133595708D01*
X119732838Y-133584425D01*
X119729943Y-133573163D01*
X119727033Y-133561921D01*
X119724108Y-133550699D01*
X119721168Y-133539497D01*
X119718212Y-133528316D01*
X119715241Y-133517155D01*
X119712254Y-133506015D01*
X119709253Y-133494894D01*
X119706236Y-133483794D01*
X119703203Y-133472714D01*
X119700156Y-133461654D01*
X119697093Y-133450614D01*
X119694015Y-133439594D01*
X119690922Y-133428594D01*
X119687814Y-133417614D01*
X119684691Y-133406654D01*
X119681552Y-133395714D01*
X119678399Y-133384793D01*
X119675230Y-133373893D01*
X119672047Y-133363012D01*
X119668848Y-133352151D01*
X119665634Y-133341310D01*
X119662406Y-133330489D01*
X119659162Y-133319687D01*
X119655903Y-133308905D01*
X119652630Y-133298142D01*
X119649341Y-133287399D01*
X119646038Y-133276676D01*
X119642719Y-133265972D01*
X119639386Y-133255287D01*
X119636038Y-133244622D01*
X119632675Y-133233977D01*
X119629297Y-133223351D01*
X119625904Y-133212743D01*
X119622497Y-133202156D01*
X119619074Y-133191587D01*
X119615637Y-133181038D01*
X119612186Y-133170508D01*
X119608719Y-133159998D01*
X119605238Y-133149506D01*
X119601742Y-133139034D01*
X119598231Y-133128580D01*
X119594706Y-133118146D01*
X119591165Y-133107730D01*
X119587611Y-133097334D01*
X119584041Y-133086956D01*
X119580457Y-133076598D01*
X119576859Y-133066258D01*
X119573245Y-133055937D01*
X119569618Y-133045635D01*
X119565975Y-133035352D01*
X119562318Y-133025088D01*
X119558647Y-133014842D01*
X119554961Y-133004615D01*
X119551260Y-132994407D01*
X119547545Y-132984217D01*
X119543816Y-132974046D01*
X119540071Y-132963893D01*
X119536313Y-132953759D01*
X119532540Y-132943643D01*
X119528753Y-132933547D01*
X119524951Y-132923468D01*
X119521135Y-132913408D01*
X119517304Y-132903366D01*
X119513459Y-132893343D01*
X119509599Y-132883337D01*
X119505726Y-132873351D01*
X119501838Y-132863382D01*
X119497935Y-132853432D01*
X119494018Y-132843499D01*
X119490087Y-132833586D01*
X119486142Y-132823690D01*
X119482182Y-132813812D01*
X119478208Y-132803952D01*
X119474220Y-132794111D01*
X119470217Y-132784287D01*
X119466201Y-132774482D01*
X119462170Y-132764694D01*
X119458124Y-132754925D01*
X119454065Y-132745172D01*
X119449991Y-132735439D01*
X119445903Y-132725722D01*
X119441801Y-132716024D01*
X119437685Y-132706343D01*
X119433555Y-132696681D01*
X119429410Y-132687036D01*
X119425251Y-132677409D01*
X119421078Y-132667799D01*
X119416892Y-132658207D01*
X119412690Y-132648632D01*
X119408475Y-132639076D01*
X119404246Y-132629536D01*
X119400003Y-132620015D01*
X119395745Y-132610510D01*
X119391473Y-132601024D01*
X119387188Y-132591554D01*
X119382888Y-132582102D01*
X119378574Y-132572667D01*
X119374247Y-132563251D01*
X119369904Y-132553850D01*
X119365549Y-132544468D01*
X119361179Y-132535102D01*
X119356795Y-132525755D01*
X119352397Y-132516423D01*
X119347985Y-132507110D01*
X119343559Y-132497813D01*
X119339120Y-132488534D01*
X119334666Y-132479271D01*
X119330198Y-132470026D01*
X119325716Y-132460797D01*
X119321221Y-132451587D01*
X119316711Y-132442392D01*
X119312187Y-132433215D01*
X119307650Y-132424054D01*
X119303098Y-132414911D01*
X119298533Y-132405784D01*
X119293954Y-132396675D01*
X119289360Y-132387581D01*
X119284754Y-132378506D01*
X119280132Y-132369446D01*
X119275498Y-132360404D01*
X119270848Y-132351378D01*
X119266186Y-132342369D01*
X119261509Y-132333376D01*
X119256819Y-132324401D01*
X119252115Y-132315441D01*
X119247397Y-132306499D01*
X119242665Y-132297572D01*
X119237919Y-132288663D01*
X119233159Y-132279770D01*
X119228386Y-132270894D01*
X119223598Y-132262033D01*
X119218797Y-132253190D01*
X119213982Y-132244362D01*
X119209154Y-132235552D01*
X119204310Y-132226757D01*
X119199454Y-132217979D01*
X119194584Y-132209217D01*
X119189700Y-132200472D01*
X119184801Y-132191742D01*
X119179890Y-132183030D01*
X119174964Y-132174332D01*
X119170025Y-132165652D01*
X119160105Y-132148339D01*
X119150130Y-132131091D01*
X119140100Y-132113906D01*
X119130014Y-132096786D01*
X119119874Y-132079730D01*
X119109678Y-132062737D01*
X119099427Y-132045808D01*
X119089121Y-132028942D01*
X119078760Y-132012139D01*
X119068344Y-131995399D01*
X119057873Y-131978722D01*
X119047347Y-131962108D01*
X119036765Y-131945555D01*
X119026129Y-131929065D01*
X119015438Y-131912637D01*
X119004691Y-131896271D01*
X118993889Y-131879967D01*
X118983033Y-131863724D01*
X118972121Y-131847542D01*
X118961154Y-131831422D01*
X118950132Y-131815362D01*
X118939054Y-131799364D01*
X118927922Y-131783426D01*
X118916734Y-131767548D01*
X118905491Y-131751731D01*
X118894193Y-131735974D01*
X118882839Y-131720278D01*
X118871431Y-131704640D01*
X118859966Y-131689063D01*
X118848447Y-131673545D01*
X118836872Y-131658087D01*
X118825242Y-131642688D01*
X118813556Y-131627348D01*
X118801814Y-131612067D01*
X118790017Y-131596845D01*
X118778165Y-131581681D01*
X118766256Y-131566576D01*
X118754292Y-131551530D01*
X118742272Y-131536541D01*
X118730197Y-131521611D01*
X118718065Y-131506739D01*
X118705878Y-131491925D01*
X118693635Y-131477168D01*
X118681335Y-131462469D01*
X118668980Y-131447827D01*
X118656568Y-131433243D01*
X118644100Y-131418716D01*
X118631576Y-131404246D01*
X118618995Y-131389833D01*
X118606358Y-131375477D01*
X118593664Y-131361178D01*
X118580914Y-131346935D01*
X118568107Y-131332749D01*
X118555244Y-131318619D01*
X118542323Y-131304546D01*
X118529346Y-131290529D01*
X118516312Y-131276567D01*
X118503221Y-131262662D01*
X118490072Y-131248813D01*
X118476866Y-131235019D01*
X118463603Y-131221281D01*
X118450283Y-131207599D01*
X118436905Y-131193972D01*
X118423469Y-131180401D01*
X118409976Y-131166885D01*
X118396425Y-131153424D01*
X118382816Y-131140018D01*
X118369149Y-131126667D01*
X118355424Y-131113372D01*
X118341641Y-131100131D01*
X118327799Y-131086945D01*
X118313899Y-131073813D01*
X118299941Y-131060736D01*
X118285924Y-131047714D01*
X118271848Y-131034747D01*
X118257713Y-131021833D01*
X118243520Y-131008975D01*
X118229267Y-130996170D01*
X118214955Y-130983420D01*
X118200584Y-130970724D01*
X118186153Y-130958082D01*
X118171663Y-130945494D01*
X118157113Y-130932960D01*
X118142503Y-130920480D01*
X118127833Y-130908054D01*
X118113103Y-130895681D01*
X118098313Y-130883363D01*
X118083463Y-130871098D01*
X118068552Y-130858887D01*
X118053581Y-130846730D01*
X118038549Y-130834626D01*
X118023456Y-130822576D01*
X118008302Y-130810580D01*
X117993087Y-130798637D01*
X117977810Y-130786747D01*
X117962472Y-130774911D01*
X117947073Y-130763128D01*
X117931612Y-130751399D01*
X117916089Y-130739723D01*
X117900504Y-130728101D01*
X117884857Y-130716532D01*
X117869148Y-130705016D01*
X117853376Y-130693553D01*
X117837541Y-130682144D01*
X117821644Y-130670788D01*
X117805684Y-130659486D01*
X117789661Y-130648236D01*
X117773575Y-130637040D01*
X117757425Y-130625897D01*
X117741212Y-130614808D01*
X117724935Y-130603771D01*
X117708594Y-130592788D01*
X117692189Y-130581858D01*
X117675721Y-130570982D01*
X117659187Y-130560159D01*
X117642590Y-130549389D01*
X117625927Y-130538672D01*
X117609200Y-130528009D01*
X117592408Y-130517399D01*
X117575550Y-130506842D01*
X117558628Y-130496339D01*
X117541640Y-130485889D01*
X117524586Y-130475493D01*
X117507466Y-130465150D01*
X117490281Y-130454860D01*
X117473029Y-130444624D01*
X117455711Y-130434442D01*
X117438326Y-130424313D01*
X117420874Y-130414238D01*
X117403356Y-130404216D01*
X117385771Y-130394248D01*
X117368118Y-130384334D01*
X117350398Y-130374474D01*
X117332611Y-130364668D01*
X117314756Y-130354915D01*
X117296832Y-130345217D01*
X117278841Y-130335572D01*
X117260781Y-130325981D01*
X117242653Y-130316445D01*
X117224456Y-130306963D01*
X117206191Y-130297535D01*
X117187856Y-130288161D01*
X117169452Y-130278842D01*
X117150979Y-130269577D01*
X117132436Y-130260366D01*
X117113824Y-130251210D01*
X117095141Y-130242109D01*
X117076389Y-130233063D01*
X117057566Y-130224071D01*
X117038672Y-130215134D01*
X117019708Y-130206252D01*
X117000673Y-130197425D01*
X116981567Y-130188654D01*
X116962390Y-130179937D01*
X116943141Y-130171276D01*
X116923821Y-130162670D01*
X116904429Y-130154120D01*
X116884965Y-130145625D01*
X116865428Y-130137186D01*
X116845820Y-130128803D01*
X116826139Y-130120476D01*
X116806385Y-130112204D01*
X116786558Y-130103989D01*
X116766658Y-130095830D01*
X116746685Y-130087727D01*
X116726638Y-130079681D01*
X116706518Y-130071691D01*
X116686324Y-130063758D01*
X116666056Y-130055882D01*
X116645714Y-130048062D01*
X116625297Y-130040300D01*
X116604806Y-130032594D01*
X116584240Y-130024946D01*
X116563599Y-130017355D01*
X116542882Y-130009822D01*
X116522091Y-130002347D01*
X116501224Y-129994929D01*
X116480281Y-129987569D01*
X116459263Y-129980267D01*
X116438168Y-129973023D01*
X116416998Y-129965837D01*
X116395751Y-129958710D01*
X116374427Y-129951642D01*
X116353027Y-129944632D01*
X116331549Y-129937681D01*
X116309995Y-129930789D01*
X116288363Y-129923957D01*
X116266654Y-129917183D01*
X116244867Y-129910470D01*
X116223003Y-129903815D01*
X116201060Y-129897221D01*
X116179040Y-129890686D01*
X116156941Y-129884212D01*
X116134763Y-129877797D01*
X116112507Y-129871444D01*
X116090172Y-129865150D01*
X116067759Y-129858918D01*
X116045266Y-129852746D01*
X116022693Y-129846636D01*
X116000042Y-129840587D01*
X115977311Y-129834599D01*
X115954500Y-129828673D01*
X115931609Y-129822808D01*
X115908638Y-129817006D01*
X115885587Y-129811265D01*
X115862455Y-129805587D01*
X115839243Y-129799972D01*
X115815950Y-129794419D01*
X115792577Y-129788929D01*
X115769122Y-129783502D01*
X115745587Y-129778138D01*
X115721970Y-129772837D01*
X115698272Y-129767600D01*
X115674493Y-129762427D01*
X115650631Y-129757318D01*
X115626688Y-129752273D01*
X115602664Y-129747293D01*
X115578557Y-129742377D01*
X115554368Y-129737526D01*
X115530097Y-129732740D01*
X115505743Y-129728019D01*
X115481308Y-129723363D01*
X115456789Y-129718773D01*
X115432188Y-129714248D01*
X115407504Y-129709790D01*
X115382737Y-129705398D01*
X115357888Y-129701072D01*
X115332955Y-129696813D01*
X115307939Y-129692620D01*
X115282840Y-129688495D01*
X115257657Y-129684437D01*
X115232391Y-129680446D01*
X115207042Y-129676523D01*
X115181609Y-129672668D01*
X115156092Y-129668880D01*
X115130492Y-129665162D01*
X115104808Y-129661511D01*
X115079040Y-129657930D01*
X115053189Y-129654417D01*
X115027253Y-129650974D01*
X115001234Y-129647600D01*
X114975130Y-129644295D01*
X114948943Y-129641060D01*
X114922671Y-129637896D01*
X114896316Y-129634802D01*
X114869876Y-129631778D01*
X114843353Y-129628825D01*
X114816745Y-129625943D01*
X114790053Y-129623132D01*
X114763278Y-129620392D01*
X114736418Y-129617725D01*
X114709474Y-129615129D01*
X114682446Y-129612605D01*
X114655334Y-129610153D01*
X114628138Y-129607774D01*
X114600858Y-129605468D01*
X114573495Y-129603235D01*
X114546047Y-129601075D01*
X114518516Y-129598988D01*
X114490901Y-129596975D01*
X114463203Y-129595036D01*
X114435421Y-129593172D01*
X114407556Y-129591381D01*
X114379608Y-129589665D01*
X114351576Y-129588024D01*
X114323461Y-129586459D01*
X114295264Y-129584968D01*
X114266984Y-129583553D01*
X114238621Y-129582214D01*
X114210175Y-129580950D01*
X114181648Y-129579763D01*
X114153038Y-129578653D01*
X114124346Y-129577619D01*
X114095573Y-129576662D01*
X114066718Y-129575782D01*
X114037782Y-129574979D01*
X114008765Y-129574254D01*
X113979668Y-129573606D01*
X113950489Y-129573037D01*
X113921231Y-129572546D01*
X113891892Y-129572133D01*
X113862474Y-129571799D01*
X113832977Y-129571544D01*
X113803401Y-129571367D01*
X113773746Y-129571271D01*
X113744012Y-129571253D01*
X113714201Y-129571315D01*
X113684313Y-129571458D01*
X113654347Y-129571680D01*
X113624305Y-129571982D01*
X113594186Y-129572365D01*
X113563992Y-129572829D01*
X113533722Y-129573374D01*
X113503378Y-129574000D01*
X113472959Y-129574706D01*
X113442467Y-129575495D01*
X113411901Y-129576365D01*
X113381264Y-129577317D01*
X113350554Y-129578350D01*
X113319772Y-129579466D01*
X113288921Y-129580665D01*
X113257999Y-129581945D01*
X113227008Y-129583309D01*
X113195948Y-129584755D01*
X113164821Y-129586284D01*
X113133627Y-129587896D01*
X113102366Y-129589591D01*
X113071041Y-129591369D01*
X113039651Y-129593231D01*
X113008197Y-129595177D01*
X112976681Y-129597206D01*
X112945104Y-129599319D01*
X112913465Y-129601515D01*
X112881768Y-129603796D01*
X112850012Y-129606161D01*
X112818198Y-129608610D01*
X112786329Y-129611142D01*
X112754405Y-129613760D01*
X112722427Y-129616461D01*
X112690398Y-129619247D01*
X112658317Y-129622117D01*
X112626187Y-129625071D01*
X112594008Y-129628110D01*
X112561784Y-129631232D01*
X112529514Y-129634440D01*
X112497201Y-129637731D01*
X112464847Y-129641107D01*
X112432453Y-129644566D01*
X112400021Y-129648110D01*
X112367554Y-129651737D01*
X112335052Y-129655449D01*
X112302518Y-129659244D01*
X112269955Y-129663122D01*
X112237364Y-129667084D01*
X112204747Y-129671129D01*
X112172108Y-129675257D01*
X112139449Y-129679467D01*
X112106772Y-129683760D01*
X112074080Y-129688134D01*
X112041376Y-129692591D01*
X112008663Y-129697129D01*
X111975944Y-129701747D01*
X111943223Y-129706447D01*
X111910501Y-129711226D01*
X111877784Y-129716085D01*
X111845075Y-129721023D01*
X111812378Y-129726039D01*
X111779696Y-129731134D01*
X111747034Y-129736305D01*
X111714396Y-129741552D01*
X111681788Y-129746876D01*
X111649213Y-129752274D01*
X111616677Y-129757745D01*
X111584185Y-129763290D01*
X111551744Y-129768906D01*
X111519358Y-129774593D01*
X111487035Y-129780349D01*
X111454780Y-129786173D01*
X111422601Y-129792064D01*
X111390506Y-129798020D01*
X111358501Y-129804039D01*
X111326596Y-129810120D01*
X111294799Y-129816260D01*
X111263120Y-129822458D01*
X111231569Y-129828711D01*
X111200155Y-129835018D01*
X111168892Y-129841374D01*
X111137791Y-129847777D01*
X111106865Y-129854225D01*
X111076128Y-129860713D01*
X111045597Y-129867239D01*
X111015287Y-129873797D01*
X110985216Y-129880383D01*
X110955405Y-129886993D01*
X110925875Y-129893620D01*
X110896649Y-129900258D01*
X110867755Y-129906902D01*
X110839220Y-129913542D01*
X110811079Y-129920170D01*
X110783367Y-129926777D01*
X110756126Y-129933350D01*
X110729404Y-129939878D01*
X110703257Y-129946344D01*
X110677748Y-129952730D01*
X110652956Y-129959015D01*
X110628974Y-129965173D01*
X110605917Y-129971170D01*
X110583934Y-129976963D01*
X110563222Y-129982497D01*
X110544056Y-129987691D01*
X110526856Y-129992422D01*
X110512345Y-129996478D01*
X110502120Y-129999387D01*
X110500000Y-130000000D01*
D10*
X119500000Y-139500000D02*
X160500000Y-139500000D01*
D11*
X160500000Y-48500000D02*
X160495038Y-48521546D01*
X160490104Y-48543062D01*
X160485199Y-48564537D01*
X160480322Y-48585982D01*
X160475475Y-48607386D01*
X160470654Y-48628760D01*
X160465864Y-48650093D01*
X160461101Y-48671395D01*
X160456368Y-48692658D01*
X160451661Y-48713890D01*
X160446984Y-48735081D01*
X160442335Y-48756243D01*
X160437714Y-48777364D01*
X160433121Y-48798455D01*
X160428557Y-48819506D01*
X160424019Y-48840527D01*
X160419511Y-48861508D01*
X160415030Y-48882459D01*
X160410578Y-48903370D01*
X160406152Y-48924252D01*
X160401756Y-48945093D01*
X160397386Y-48965905D01*
X160393045Y-48986677D01*
X160388730Y-49007419D01*
X160384444Y-49028121D01*
X160380185Y-49048794D01*
X160375954Y-49069428D01*
X160371750Y-49090032D01*
X160367574Y-49110596D01*
X160363425Y-49131131D01*
X160359304Y-49151627D01*
X160355209Y-49172094D01*
X160351142Y-49192521D01*
X160347102Y-49212919D01*
X160343090Y-49233277D01*
X160339104Y-49253607D01*
X160335146Y-49273897D01*
X160331213Y-49294159D01*
X160327309Y-49314381D01*
X160323431Y-49334575D01*
X160319581Y-49354729D01*
X160315756Y-49374855D01*
X160311960Y-49394942D01*
X160308189Y-49415000D01*
X160304445Y-49435020D01*
X160300728Y-49455010D01*
X160297038Y-49474962D01*
X160293373Y-49494886D01*
X160289736Y-49514771D01*
X160286125Y-49534627D01*
X160282540Y-49554445D01*
X160278982Y-49574234D01*
X160275450Y-49593986D01*
X160271944Y-49613708D01*
X160268465Y-49633393D01*
X160265011Y-49653049D01*
X160261584Y-49672668D01*
X160258183Y-49692257D01*
X160254808Y-49711809D01*
X160251459Y-49731333D01*
X160248136Y-49750819D01*
X160244838Y-49770277D01*
X160241567Y-49789697D01*
X160238321Y-49809089D01*
X160235102Y-49828443D01*
X160231908Y-49847769D01*
X160228740Y-49867058D01*
X160225596Y-49886319D01*
X160222480Y-49905542D01*
X160219388Y-49924738D01*
X160216322Y-49943896D01*
X160213281Y-49963027D01*
X160210266Y-49982120D01*
X160207275Y-50001186D01*
X160204311Y-50020214D01*
X160201371Y-50039215D01*
X160198458Y-50058179D01*
X160195568Y-50077115D01*
X160192705Y-50096014D01*
X160189866Y-50114886D01*
X160187052Y-50133721D01*
X160184263Y-50152529D01*
X160181500Y-50171300D01*
X160178761Y-50190044D01*
X160176047Y-50208751D01*
X160173358Y-50227431D01*
X160170694Y-50246074D01*
X160168054Y-50264690D01*
X160165439Y-50283270D01*
X160162849Y-50301822D01*
X160160284Y-50320339D01*
X160157742Y-50338828D01*
X160155226Y-50357281D01*
X160152734Y-50375707D01*
X160150266Y-50394097D01*
X160147823Y-50412461D01*
X160145404Y-50430788D01*
X160143009Y-50449088D01*
X160140639Y-50467353D01*
X160138293Y-50485591D01*
X160135971Y-50503793D01*
X160133673Y-50521968D01*
X160131400Y-50540108D01*
X160129150Y-50558221D01*
X160126925Y-50576298D01*
X160124723Y-50594349D01*
X160122545Y-50612365D01*
X160120391Y-50630354D01*
X160118261Y-50648308D01*
X160116155Y-50666235D01*
X160114072Y-50684127D01*
X160112013Y-50701993D01*
X160109978Y-50719823D01*
X160107967Y-50737628D01*
X160105979Y-50755397D01*
X160104014Y-50773140D01*
X160102073Y-50790849D01*
X160100156Y-50808530D01*
X160098262Y-50826178D01*
X160096391Y-50843799D01*
X160094544Y-50861386D01*
X160092720Y-50878946D01*
X160090919Y-50896472D01*
X160089141Y-50913972D01*
X160087387Y-50931438D01*
X160085655Y-50948877D01*
X160083947Y-50966282D01*
X160082262Y-50983662D01*
X160080600Y-51001007D01*
X160078960Y-51018326D01*
X160077344Y-51035612D01*
X160075750Y-51052871D01*
X160074180Y-51070097D01*
X160072632Y-51087297D01*
X160071107Y-51104463D01*
X160069604Y-51121603D01*
X160068125Y-51138710D01*
X160066667Y-51155791D01*
X160065233Y-51172839D01*
X160063821Y-51189860D01*
X160062431Y-51206849D01*
X160061064Y-51223812D01*
X160059720Y-51240741D01*
X160058398Y-51257646D01*
X160057098Y-51274516D01*
X160055820Y-51291362D01*
X160054565Y-51308174D01*
X160053332Y-51324961D01*
X160052121Y-51341715D01*
X160050932Y-51358444D01*
X160049766Y-51375140D01*
X160048621Y-51391811D01*
X160047499Y-51408448D01*
X160046398Y-51425061D01*
X160045320Y-51441641D01*
X160044263Y-51458196D01*
X160043228Y-51474718D01*
X160042215Y-51491215D01*
X160041224Y-51507680D01*
X160040254Y-51524120D01*
X160039307Y-51540528D01*
X160038381Y-51556910D01*
X160037476Y-51573260D01*
X160036593Y-51589586D01*
X160035732Y-51605879D01*
X160034893Y-51622148D01*
X160034074Y-51638384D01*
X160033278Y-51654596D01*
X160032502Y-51670776D01*
X160031748Y-51686931D01*
X160031016Y-51703054D01*
X160030304Y-51719153D01*
X160029614Y-51735220D01*
X160028945Y-51751262D01*
X160028297Y-51767273D01*
X160027671Y-51783260D01*
X160027065Y-51799215D01*
X160026481Y-51815145D01*
X160025917Y-51831044D01*
X160025375Y-51846919D01*
X160024854Y-51862762D01*
X160024353Y-51878581D01*
X160023873Y-51894369D01*
X160023414Y-51910133D01*
X160022976Y-51925866D01*
X160022559Y-51941574D01*
X160022163Y-51957252D01*
X160021787Y-51972905D01*
X160021432Y-51988527D01*
X160021097Y-52004126D01*
X160020783Y-52019694D01*
X160020490Y-52035237D01*
X160020217Y-52050750D01*
X160019964Y-52066239D01*
X160019732Y-52081698D01*
X160019521Y-52097132D01*
X160019329Y-52112537D01*
X160019158Y-52127917D01*
X160019008Y-52143267D01*
X160018877Y-52158593D01*
X160018767Y-52173890D01*
X160018677Y-52189162D01*
X160018607Y-52204404D01*
X160018558Y-52219623D01*
X160018528Y-52234811D01*
X160018519Y-52249976D01*
X160018529Y-52265112D01*
X160018559Y-52280223D01*
X160018610Y-52295305D01*
X160018680Y-52310363D01*
X160018770Y-52325392D01*
X160018880Y-52340397D01*
X160019010Y-52355373D01*
X160019159Y-52370325D01*
X160019328Y-52385248D01*
X160019517Y-52400147D01*
X160019726Y-52415017D01*
X160019954Y-52429864D01*
X160020202Y-52444682D01*
X160020469Y-52459476D01*
X160020756Y-52474242D01*
X160021062Y-52488984D01*
X160021388Y-52503697D01*
X160021733Y-52518387D01*
X160022098Y-52533048D01*
X160022482Y-52547686D01*
X160022885Y-52562295D01*
X160023308Y-52576881D01*
X160023749Y-52591439D01*
X160024210Y-52605973D01*
X160024691Y-52620479D01*
X160025190Y-52634962D01*
X160025708Y-52649417D01*
X160026246Y-52663849D01*
X160026802Y-52678252D01*
X160027378Y-52692633D01*
X160027973Y-52706985D01*
X160028586Y-52721315D01*
X160029219Y-52735616D01*
X160029870Y-52749895D01*
X160030540Y-52764146D01*
X160031229Y-52778374D01*
X160031937Y-52792574D01*
X160032664Y-52806751D01*
X160033409Y-52820901D01*
X160034173Y-52835028D01*
X160034956Y-52849128D01*
X160035757Y-52863205D01*
X160036577Y-52877254D01*
X160037415Y-52891281D01*
X160038272Y-52905281D01*
X160039148Y-52919258D01*
X160040041Y-52933207D01*
X160040954Y-52947135D01*
X160041885Y-52961035D01*
X160042834Y-52974912D01*
X160043801Y-52988763D01*
X160044787Y-53002591D01*
X160045791Y-53016393D01*
X160046814Y-53030172D01*
X160047854Y-53043924D01*
X160048913Y-53057654D01*
X160049990Y-53071357D01*
X160051085Y-53085038D01*
X160052198Y-53098693D01*
X160053329Y-53112325D01*
X160054479Y-53125931D01*
X160055646Y-53139514D01*
X160056831Y-53153071D01*
X160058035Y-53166606D01*
X160059256Y-53180115D01*
X160060495Y-53193602D01*
X160061751Y-53207063D01*
X160063026Y-53220501D01*
X160064319Y-53233914D01*
X160065629Y-53247305D01*
X160066957Y-53260669D01*
X160068303Y-53274012D01*
X160069666Y-53287329D01*
X160071047Y-53300624D01*
X160072446Y-53313894D01*
X160073862Y-53327141D01*
X160075296Y-53340363D01*
X160076748Y-53353563D01*
X160078216Y-53366738D01*
X160079703Y-53379891D01*
X160081207Y-53393019D01*
X160082728Y-53406125D01*
X160084267Y-53419205D01*
X160085823Y-53432264D01*
X160087396Y-53445298D01*
X160088987Y-53458310D01*
X160090595Y-53471297D01*
X160092220Y-53484263D01*
X160093863Y-53497203D01*
X160095522Y-53510122D01*
X160097199Y-53523017D01*
X160098893Y-53535889D01*
X160100604Y-53548738D01*
X160102333Y-53561564D01*
X160104078Y-53574366D01*
X160105840Y-53587147D01*
X160107620Y-53599903D01*
X160109416Y-53612637D01*
X160111229Y-53625348D01*
X160113060Y-53638037D01*
X160114907Y-53650702D01*
X160116771Y-53663345D01*
X160118652Y-53675964D01*
X160120549Y-53688562D01*
X160122464Y-53701136D01*
X160124395Y-53713689D01*
X160126343Y-53726218D01*
X160128308Y-53738726D01*
X160130289Y-53751210D01*
X160132288Y-53763672D01*
X160134302Y-53776111D01*
X160136334Y-53788529D01*
X160138382Y-53800923D01*
X160140447Y-53813297D01*
X160142528Y-53825646D01*
X160144625Y-53837975D01*
X160146740Y-53850280D01*
X160148870Y-53862565D01*
X160151017Y-53874826D01*
X160153181Y-53887066D01*
X160155361Y-53899283D01*
X160157557Y-53911479D01*
X160159770Y-53923652D01*
X160161999Y-53935804D01*
X160164244Y-53947933D01*
X160166506Y-53960041D01*
X160168783Y-53972127D01*
X160171077Y-53984192D01*
X160173388Y-53996233D01*
X160175714Y-54008255D01*
X160178057Y-54020253D01*
X160180416Y-54032231D01*
X160182790Y-54044186D01*
X160185181Y-54056121D01*
X160187588Y-54068033D01*
X160190011Y-54079925D01*
X160192450Y-54091794D01*
X160194906Y-54103643D01*
X160197377Y-54115469D01*
X160199864Y-54127275D01*
X160202367Y-54139059D01*
X160204886Y-54150822D01*
X160207420Y-54162563D01*
X160209971Y-54174284D01*
X160212538Y-54185983D01*
X160215120Y-54197662D01*
X160217718Y-54209318D01*
X160220332Y-54220954D01*
X160222962Y-54232569D01*
X160225607Y-54244163D01*
X160228268Y-54255736D01*
X160230945Y-54267288D01*
X160233637Y-54278819D01*
X160236346Y-54290329D01*
X160239069Y-54301818D01*
X160241809Y-54313287D01*
X160244564Y-54324735D01*
X160247334Y-54336162D01*
X160250120Y-54347568D01*
X160252922Y-54358954D01*
X160255739Y-54370319D01*
X160258572Y-54381664D01*
X160261420Y-54392988D01*
X160264283Y-54404292D01*
X160267162Y-54415575D01*
X160270057Y-54426837D01*
X160272967Y-54438079D01*
X160275892Y-54449301D01*
X160278832Y-54460503D01*
X160281788Y-54471684D01*
X160284759Y-54482845D01*
X160287746Y-54493985D01*
X160290747Y-54505106D01*
X160293764Y-54516206D01*
X160296797Y-54527286D01*
X160299844Y-54538346D01*
X160302907Y-54549386D01*
X160305985Y-54560406D01*
X160309078Y-54571406D01*
X160312186Y-54582386D01*
X160315309Y-54593346D01*
X160318448Y-54604286D01*
X160321601Y-54615207D01*
X160324770Y-54626107D01*
X160327953Y-54636988D01*
X160331152Y-54647849D01*
X160334366Y-54658690D01*
X160337594Y-54669511D01*
X160340838Y-54680313D01*
X160344097Y-54691095D01*
X160347370Y-54701858D01*
X160350659Y-54712601D01*
X160353962Y-54723324D01*
X160357281Y-54734028D01*
X160360614Y-54744713D01*
X160363962Y-54755378D01*
X160367325Y-54766023D01*
X160370703Y-54776649D01*
X160374096Y-54787257D01*
X160377503Y-54797844D01*
X160380926Y-54808413D01*
X160384363Y-54818962D01*
X160387814Y-54829492D01*
X160391281Y-54840002D01*
X160394762Y-54850494D01*
X160398258Y-54860966D01*
X160401769Y-54871420D01*
X160405294Y-54881854D01*
X160408835Y-54892270D01*
X160412389Y-54902666D01*
X160415959Y-54913044D01*
X160419543Y-54923402D01*
X160423141Y-54933742D01*
X160426755Y-54944063D01*
X160430382Y-54954365D01*
X160434025Y-54964648D01*
X160437682Y-54974912D01*
X160441353Y-54985158D01*
X160445039Y-54995385D01*
X160448740Y-55005593D01*
X160452455Y-55015783D01*
X160456184Y-55025954D01*
X160459929Y-55036107D01*
X160463687Y-55046241D01*
X160467460Y-55056357D01*
X160471247Y-55066453D01*
X160475049Y-55076532D01*
X160478865Y-55086592D01*
X160482696Y-55096634D01*
X160486541Y-55106657D01*
X160490401Y-55116663D01*
X160494274Y-55126649D01*
X160498162Y-55136618D01*
X160502065Y-55146568D01*
X160505982Y-55156501D01*
X160509913Y-55166414D01*
X160513858Y-55176310D01*
X160517818Y-55186188D01*
X160521792Y-55196048D01*
X160525780Y-55205889D01*
X160529783Y-55215713D01*
X160533799Y-55225518D01*
X160537830Y-55235306D01*
X160541876Y-55245075D01*
X160545935Y-55254828D01*
X160550009Y-55264561D01*
X160554097Y-55274278D01*
X160558199Y-55283976D01*
X160562315Y-55293657D01*
X160566445Y-55303319D01*
X160570590Y-55312964D01*
X160574749Y-55322591D01*
X160578922Y-55332201D01*
X160583108Y-55341793D01*
X160587310Y-55351368D01*
X160591525Y-55360924D01*
X160595754Y-55370464D01*
X160599997Y-55379985D01*
X160604255Y-55389490D01*
X160608527Y-55398976D01*
X160612812Y-55408446D01*
X160617112Y-55417898D01*
X160621426Y-55427333D01*
X160625753Y-55436749D01*
X160630096Y-55446150D01*
X160634451Y-55455532D01*
X160638821Y-55464898D01*
X160643205Y-55474245D01*
X160647603Y-55483577D01*
X160652015Y-55492890D01*
X160656441Y-55502187D01*
X160660880Y-55511466D01*
X160665334Y-55520729D01*
X160669802Y-55529974D01*
X160674284Y-55539203D01*
X160678779Y-55548413D01*
X160683289Y-55557608D01*
X160687813Y-55566785D01*
X160692350Y-55575946D01*
X160696902Y-55585089D01*
X160701467Y-55594216D01*
X160706046Y-55603325D01*
X160710640Y-55612419D01*
X160715246Y-55621494D01*
X160719868Y-55630554D01*
X160724502Y-55639596D01*
X160729152Y-55648622D01*
X160733814Y-55657631D01*
X160738491Y-55666624D01*
X160743181Y-55675599D01*
X160747885Y-55684559D01*
X160752603Y-55693501D01*
X160757335Y-55702428D01*
X160762081Y-55711337D01*
X160766841Y-55720230D01*
X160771614Y-55729106D01*
X160776402Y-55737967D01*
X160781203Y-55746810D01*
X160786018Y-55755638D01*
X160790846Y-55764448D01*
X160795690Y-55773243D01*
X160800546Y-55782021D01*
X160805416Y-55790783D01*
X160810300Y-55799528D01*
X160815199Y-55808258D01*
X160820110Y-55816970D01*
X160825036Y-55825668D01*
X160829975Y-55834348D01*
X160839895Y-55851661D01*
X160849870Y-55868909D01*
X160859900Y-55886094D01*
X160869986Y-55903214D01*
X160880126Y-55920270D01*
X160890322Y-55937263D01*
X160900573Y-55954192D01*
X160910879Y-55971058D01*
X160921240Y-55987861D01*
X160931656Y-56004601D01*
X160942127Y-56021278D01*
X160952653Y-56037892D01*
X160963235Y-56054445D01*
X160973871Y-56070935D01*
X160984562Y-56087363D01*
X160995309Y-56103729D01*
X161006111Y-56120033D01*
X161016967Y-56136276D01*
X161027879Y-56152458D01*
X161038846Y-56168578D01*
X161049868Y-56184638D01*
X161060946Y-56200636D01*
X161072078Y-56216574D01*
X161083266Y-56232452D01*
X161094509Y-56248269D01*
X161105807Y-56264026D01*
X161117161Y-56279722D01*
X161128569Y-56295360D01*
X161140034Y-56310937D01*
X161151553Y-56326455D01*
X161163128Y-56341913D01*
X161174758Y-56357312D01*
X161186444Y-56372652D01*
X161198186Y-56387933D01*
X161209983Y-56403155D01*
X161221835Y-56418319D01*
X161233744Y-56433424D01*
X161245708Y-56448470D01*
X161257728Y-56463459D01*
X161269803Y-56478389D01*
X161281935Y-56493261D01*
X161294122Y-56508075D01*
X161306365Y-56522832D01*
X161318665Y-56537531D01*
X161331020Y-56552173D01*
X161343432Y-56566757D01*
X161355900Y-56581284D01*
X161368424Y-56595754D01*
X161381005Y-56610167D01*
X161393642Y-56624523D01*
X161406336Y-56638822D01*
X161419086Y-56653065D01*
X161431893Y-56667251D01*
X161444756Y-56681381D01*
X161457677Y-56695454D01*
X161470654Y-56709471D01*
X161483688Y-56723433D01*
X161496779Y-56737338D01*
X161509928Y-56751187D01*
X161523134Y-56764981D01*
X161536397Y-56778719D01*
X161549717Y-56792401D01*
X161563095Y-56806028D01*
X161576531Y-56819599D01*
X161590024Y-56833115D01*
X161603575Y-56846576D01*
X161617184Y-56859982D01*
X161630851Y-56873333D01*
X161644576Y-56886628D01*
X161658359Y-56899869D01*
X161672201Y-56913055D01*
X161686101Y-56926187D01*
X161700059Y-56939264D01*
X161714076Y-56952286D01*
X161728152Y-56965253D01*
X161742287Y-56978167D01*
X161756480Y-56991025D01*
X161770733Y-57003830D01*
X161785045Y-57016580D01*
X161799416Y-57029276D01*
X161813847Y-57041918D01*
X161828337Y-57054506D01*
X161842887Y-57067040D01*
X161857497Y-57079520D01*
X161872167Y-57091946D01*
X161886897Y-57104319D01*
X161901687Y-57116637D01*
X161916537Y-57128902D01*
X161931448Y-57141113D01*
X161946419Y-57153270D01*
X161961451Y-57165374D01*
X161976544Y-57177424D01*
X161991698Y-57189420D01*
X162006913Y-57201363D01*
X162022190Y-57213253D01*
X162037528Y-57225089D01*
X162052927Y-57236872D01*
X162068388Y-57248601D01*
X162083911Y-57260277D01*
X162099496Y-57271899D01*
X162115143Y-57283468D01*
X162130852Y-57294984D01*
X162146624Y-57306447D01*
X162162459Y-57317856D01*
X162178356Y-57329212D01*
X162194316Y-57340514D01*
X162210339Y-57351764D01*
X162226425Y-57362960D01*
X162242575Y-57374103D01*
X162258788Y-57385192D01*
X162275065Y-57396229D01*
X162291406Y-57407212D01*
X162307811Y-57418142D01*
X162324279Y-57429018D01*
X162340813Y-57439841D01*
X162357410Y-57450611D01*
X162374073Y-57461328D01*
X162390800Y-57471991D01*
X162407592Y-57482601D01*
X162424450Y-57493158D01*
X162441372Y-57503661D01*
X162458360Y-57514111D01*
X162475414Y-57524507D01*
X162492534Y-57534850D01*
X162509719Y-57545140D01*
X162526971Y-57555376D01*
X162544289Y-57565558D01*
X162561674Y-57575687D01*
X162579126Y-57585762D01*
X162596644Y-57595784D01*
X162614229Y-57605752D01*
X162631882Y-57615666D01*
X162649602Y-57625526D01*
X162667389Y-57635332D01*
X162685244Y-57645085D01*
X162703168Y-57654783D01*
X162721159Y-57664428D01*
X162739219Y-57674019D01*
X162757347Y-57683555D01*
X162775544Y-57693037D01*
X162793809Y-57702465D01*
X162812144Y-57711839D01*
X162830548Y-57721158D01*
X162849021Y-57730423D01*
X162867564Y-57739634D01*
X162886176Y-57748790D01*
X162904859Y-57757891D01*
X162923611Y-57766937D01*
X162942434Y-57775929D01*
X162961328Y-57784866D01*
X162980292Y-57793748D01*
X162999327Y-57802575D01*
X163018433Y-57811346D01*
X163037610Y-57820063D01*
X163056859Y-57828724D01*
X163076179Y-57837330D01*
X163095571Y-57845880D01*
X163115035Y-57854375D01*
X163134572Y-57862814D01*
X163154180Y-57871197D01*
X163173861Y-57879524D01*
X163193615Y-57887796D01*
X163213442Y-57896011D01*
X163233342Y-57904170D01*
X163253315Y-57912273D01*
X163273362Y-57920319D01*
X163293482Y-57928309D01*
X163313676Y-57936242D01*
X163333944Y-57944118D01*
X163354286Y-57951938D01*
X163374703Y-57959700D01*
X163395194Y-57967406D01*
X163415760Y-57975054D01*
X163436401Y-57982645D01*
X163457118Y-57990178D01*
X163477909Y-57997653D01*
X163498776Y-58005071D01*
X163519719Y-58012431D01*
X163540737Y-58019733D01*
X163561832Y-58026977D01*
X163583002Y-58034163D01*
X163604249Y-58041290D01*
X163625573Y-58048358D01*
X163646973Y-58055368D01*
X163668451Y-58062319D01*
X163690005Y-58069211D01*
X163711637Y-58076043D01*
X163733346Y-58082817D01*
X163755133Y-58089530D01*
X163776997Y-58096185D01*
X163798940Y-58102779D01*
X163820960Y-58109314D01*
X163843059Y-58115788D01*
X163865237Y-58122203D01*
X163887493Y-58128556D01*
X163909828Y-58134850D01*
X163932241Y-58141082D01*
X163954734Y-58147254D01*
X163977307Y-58153364D01*
X163999958Y-58159413D01*
X164022689Y-58165401D01*
X164045500Y-58171327D01*
X164068391Y-58177192D01*
X164091362Y-58182994D01*
X164114413Y-58188735D01*
X164137545Y-58194413D01*
X164160757Y-58200028D01*
X164184050Y-58205581D01*
X164207423Y-58211071D01*
X164230878Y-58216498D01*
X164254413Y-58221862D01*
X164278030Y-58227163D01*
X164301728Y-58232400D01*
X164325507Y-58237573D01*
X164349369Y-58242682D01*
X164373312Y-58247727D01*
X164397336Y-58252707D01*
X164421443Y-58257623D01*
X164445632Y-58262474D01*
X164469903Y-58267260D01*
X164494257Y-58271981D01*
X164518692Y-58276637D01*
X164543211Y-58281227D01*
X164567812Y-58285752D01*
X164592496Y-58290210D01*
X164617263Y-58294602D01*
X164642112Y-58298928D01*
X164667045Y-58303187D01*
X164692061Y-58307380D01*
X164717160Y-58311505D01*
X164742343Y-58315563D01*
X164767609Y-58319554D01*
X164792958Y-58323477D01*
X164818391Y-58327332D01*
X164843908Y-58331120D01*
X164869508Y-58334838D01*
X164895192Y-58338489D01*
X164920960Y-58342070D01*
X164946811Y-58345583D01*
X164972747Y-58349026D01*
X164998766Y-58352400D01*
X165024870Y-58355705D01*
X165051057Y-58358940D01*
X165077329Y-58362104D01*
X165103684Y-58365198D01*
X165130124Y-58368222D01*
X165156647Y-58371175D01*
X165183255Y-58374057D01*
X165209947Y-58376868D01*
X165236722Y-58379608D01*
X165263582Y-58382275D01*
X165290526Y-58384871D01*
X165317554Y-58387395D01*
X165344666Y-58389847D01*
X165371862Y-58392226D01*
X165399142Y-58394532D01*
X165426505Y-58396765D01*
X165453953Y-58398925D01*
X165481484Y-58401012D01*
X165509099Y-58403025D01*
X165536797Y-58404964D01*
X165564579Y-58406828D01*
X165592444Y-58408619D01*
X165620392Y-58410335D01*
X165648424Y-58411976D01*
X165676539Y-58413541D01*
X165704736Y-58415032D01*
X165733016Y-58416447D01*
X165761379Y-58417786D01*
X165789825Y-58419050D01*
X165818352Y-58420237D01*
X165846962Y-58421347D01*
X165875654Y-58422381D01*
X165904427Y-58423338D01*
X165933282Y-58424218D01*
X165962218Y-58425021D01*
X165991235Y-58425746D01*
X166020332Y-58426394D01*
X166049511Y-58426963D01*
X166078769Y-58427454D01*
X166108108Y-58427867D01*
X166137526Y-58428201D01*
X166167023Y-58428456D01*
X166196599Y-58428633D01*
X166226254Y-58428729D01*
X166255988Y-58428747D01*
X166285799Y-58428685D01*
X166315687Y-58428542D01*
X166345653Y-58428320D01*
X166375695Y-58428018D01*
X166405814Y-58427635D01*
X166436008Y-58427171D01*
X166466278Y-58426626D01*
X166496622Y-58426000D01*
X166527041Y-58425294D01*
X166557533Y-58424505D01*
X166588099Y-58423635D01*
X166618736Y-58422683D01*
X166649446Y-58421650D01*
X166680228Y-58420534D01*
X166711079Y-58419335D01*
X166742001Y-58418055D01*
X166772992Y-58416691D01*
X166804052Y-58415245D01*
X166835179Y-58413716D01*
X166866373Y-58412104D01*
X166897634Y-58410409D01*
X166928959Y-58408631D01*
X166960349Y-58406769D01*
X166991803Y-58404823D01*
X167023319Y-58402794D01*
X167054896Y-58400681D01*
X167086535Y-58398485D01*
X167118232Y-58396204D01*
X167149988Y-58393839D01*
X167181802Y-58391390D01*
X167213671Y-58388858D01*
X167245595Y-58386240D01*
X167277573Y-58383539D01*
X167309602Y-58380753D01*
X167341683Y-58377883D01*
X167373813Y-58374929D01*
X167405992Y-58371890D01*
X167438216Y-58368768D01*
X167470486Y-58365560D01*
X167502799Y-58362269D01*
X167535153Y-58358893D01*
X167567547Y-58355434D01*
X167599979Y-58351890D01*
X167632446Y-58348263D01*
X167664948Y-58344551D01*
X167697482Y-58340756D01*
X167730045Y-58336878D01*
X167762636Y-58332916D01*
X167795253Y-58328871D01*
X167827892Y-58324743D01*
X167860551Y-58320533D01*
X167893228Y-58316240D01*
X167925920Y-58311866D01*
X167958624Y-58307409D01*
X167991337Y-58302871D01*
X168024056Y-58298253D01*
X168056777Y-58293553D01*
X168089499Y-58288774D01*
X168122216Y-58283915D01*
X168154925Y-58278977D01*
X168187622Y-58273961D01*
X168220304Y-58268866D01*
X168252966Y-58263695D01*
X168285604Y-58258448D01*
X168318212Y-58253124D01*
X168350787Y-58247726D01*
X168383323Y-58242255D01*
X168415815Y-58236710D01*
X168448256Y-58231094D01*
X168480642Y-58225407D01*
X168512965Y-58219651D01*
X168545220Y-58213827D01*
X168577399Y-58207936D01*
X168609494Y-58201980D01*
X168641499Y-58195961D01*
X168673404Y-58189880D01*
X168705201Y-58183740D01*
X168736880Y-58177542D01*
X168768431Y-58171289D01*
X168799845Y-58164982D01*
X168831108Y-58158626D01*
X168862209Y-58152223D01*
X168893135Y-58145775D01*
X168923872Y-58139287D01*
X168954403Y-58132761D01*
X168984713Y-58126203D01*
X169014784Y-58119617D01*
X169044595Y-58113007D01*
X169074125Y-58106380D01*
X169103351Y-58099742D01*
X169132245Y-58093098D01*
X169160780Y-58086458D01*
X169188921Y-58079830D01*
X169216633Y-58073223D01*
X169243874Y-58066650D01*
X169270596Y-58060122D01*
X169296743Y-58053656D01*
X169322252Y-58047270D01*
X169347044Y-58040985D01*
X169371026Y-58034827D01*
X169394083Y-58028830D01*
X169416066Y-58023037D01*
X169436778Y-58017503D01*
X169455944Y-58012309D01*
X169473144Y-58007578D01*
X169487655Y-58003522D01*
X169497880Y-58000613D01*
X169500000Y-58000000D01*
X169500000Y-130000000D02*
X169479447Y-129995900D01*
X169458922Y-129991825D01*
X169438436Y-129987779D01*
X169417980Y-129983759D01*
X169397562Y-129979767D01*
X169377173Y-129975800D01*
X169356822Y-129971862D01*
X169336501Y-129967950D01*
X169316218Y-129964065D01*
X169295963Y-129960207D01*
X169275748Y-129956376D01*
X169255560Y-129952571D01*
X169235412Y-129948793D01*
X169215291Y-129945041D01*
X169195209Y-129941316D01*
X169175156Y-129937618D01*
X169155140Y-129933946D01*
X169135154Y-129930300D01*
X169115205Y-129926681D01*
X169095284Y-129923088D01*
X169075402Y-129919522D01*
X169055547Y-129915981D01*
X169035731Y-129912468D01*
X169015943Y-129908980D01*
X168996192Y-129905518D01*
X168976470Y-129902082D01*
X168956785Y-129898673D01*
X168937128Y-129895289D01*
X168917509Y-129891931D01*
X168897918Y-129888599D01*
X168878364Y-129885293D01*
X168858838Y-129882012D01*
X168839350Y-129878758D01*
X168819889Y-129875529D01*
X168800466Y-129872326D01*
X168781070Y-129869148D01*
X168761712Y-129865997D01*
X168742381Y-129862870D01*
X168723087Y-129859769D01*
X168703821Y-129856693D01*
X168684591Y-129853643D01*
X168665390Y-129850618D01*
X168646225Y-129847619D01*
X168627087Y-129844645D01*
X168607987Y-129841696D01*
X168588913Y-129838772D01*
X168569877Y-129835873D01*
X168550867Y-129832999D01*
X168531894Y-129830151D01*
X168512949Y-129827327D01*
X168494039Y-129824529D01*
X168475157Y-129821755D01*
X168456312Y-129819006D01*
X168437493Y-129816282D01*
X168418711Y-129813583D01*
X168399955Y-129810908D01*
X168381236Y-129808259D01*
X168362544Y-129805633D01*
X168343887Y-129803033D01*
X168325258Y-129800457D01*
X168306664Y-129797905D01*
X168288098Y-129795378D01*
X168269567Y-129792876D01*
X168251063Y-129790397D01*
X168232594Y-129787944D01*
X168214153Y-129785514D01*
X168195746Y-129783109D01*
X168177367Y-129780728D01*
X168159023Y-129778371D01*
X168140705Y-129776038D01*
X168122423Y-129773730D01*
X168104168Y-129771445D01*
X168085947Y-129769185D01*
X168067753Y-129766948D01*
X168049594Y-129764735D01*
X168031462Y-129762546D01*
X168013365Y-129760381D01*
X167995294Y-129758240D01*
X167977257Y-129756123D01*
X167959248Y-129754029D01*
X167941272Y-129751959D01*
X167923324Y-129749913D01*
X167905409Y-129747890D01*
X167887521Y-129745891D01*
X167869668Y-129743915D01*
X167851840Y-129741963D01*
X167834048Y-129740034D01*
X167816281Y-129738128D01*
X167798548Y-129736246D01*
X167780842Y-129734387D01*
X167763169Y-129732552D01*
X167745523Y-129730740D01*
X167727910Y-129728951D01*
X167710324Y-129727184D01*
X167692772Y-129725442D01*
X167675245Y-129723722D01*
X167657752Y-129722025D01*
X167640285Y-129720351D01*
X167622852Y-129718700D01*
X167605445Y-129717072D01*
X167588071Y-129715467D01*
X167570723Y-129713884D01*
X167553408Y-129712325D01*
X167536119Y-129710788D01*
X167518863Y-129709274D01*
X167501633Y-129707782D01*
X167484436Y-129706313D01*
X167467265Y-129704867D01*
X167450127Y-129703443D01*
X167433014Y-129702042D01*
X167415935Y-129700663D01*
X167398881Y-129699307D01*
X167381859Y-129697973D01*
X167364863Y-129696661D01*
X167347900Y-129695371D01*
X167330963Y-129694104D01*
X167314057Y-129692859D01*
X167297178Y-129691636D01*
X167280330Y-129690436D01*
X167263508Y-129689257D01*
X167246719Y-129688101D01*
X167229954Y-129686966D01*
X167213222Y-129685854D01*
X167196515Y-129684763D01*
X167179841Y-129683694D01*
X167163191Y-129682648D01*
X167146573Y-129681623D01*
X167129981Y-129680619D01*
X167113420Y-129679638D01*
X167096885Y-129678678D01*
X167080381Y-129677740D01*
X167063902Y-129676824D01*
X167047455Y-129675929D01*
X167031033Y-129675056D01*
X167014642Y-129674204D01*
X166998277Y-129673374D01*
X166981942Y-129672565D01*
X166965633Y-129671778D01*
X166949355Y-129671012D01*
X166933101Y-129670267D01*
X166916879Y-129669543D01*
X166900682Y-129668841D01*
X166884516Y-129668160D01*
X166868374Y-129667501D01*
X166852264Y-129666862D01*
X166836178Y-129666245D01*
X166820123Y-129665648D01*
X166804092Y-129665073D01*
X166788093Y-129664518D01*
X166772117Y-129663985D01*
X166756173Y-129663472D01*
X166740253Y-129662981D01*
X166724363Y-129662510D01*
X166708498Y-129662060D01*
X166692664Y-129661631D01*
X166676853Y-129661222D01*
X166661073Y-129660835D01*
X166645318Y-129660468D01*
X166629592Y-129660121D01*
X166613891Y-129659795D01*
X166598220Y-129659490D01*
X166582573Y-129659205D01*
X166566956Y-129658941D01*
X166551364Y-129658697D01*
X166535801Y-129658474D01*
X166520262Y-129658271D01*
X166504753Y-129658088D01*
X166489268Y-129657926D01*
X166473813Y-129657783D01*
X166458382Y-129657662D01*
X166442980Y-129657560D01*
X166427602Y-129657478D01*
X166412254Y-129657417D01*
X166396929Y-129657376D01*
X166381634Y-129657355D01*
X166366363Y-129657353D01*
X166351121Y-129657372D01*
X166335903Y-129657411D01*
X166320714Y-129657470D01*
X166305548Y-129657548D01*
X166290412Y-129657647D01*
X166275299Y-129657765D01*
X166260216Y-129657903D01*
X166245155Y-129658061D01*
X166230124Y-129658238D01*
X166215116Y-129658435D01*
X166200137Y-129658652D01*
X166185181Y-129658889D01*
X166170254Y-129659145D01*
X166155351Y-129659420D01*
X166140476Y-129659715D01*
X166125624Y-129660030D01*
X166110801Y-129660364D01*
X166096001Y-129660717D01*
X166081229Y-129661090D01*
X166066481Y-129661482D01*
X166051761Y-129661894D01*
X166037064Y-129662324D01*
X166022395Y-129662774D01*
X166007749Y-129663244D01*
X165993131Y-129663732D01*
X165978537Y-129664240D01*
X165963970Y-129664766D01*
X165949426Y-129665312D01*
X165934910Y-129665877D01*
X165920417Y-129666461D01*
X165905952Y-129667063D01*
X165891510Y-129667685D01*
X165877095Y-129668326D01*
X165862703Y-129668985D01*
X165848339Y-129669664D01*
X165833997Y-129670361D01*
X165819683Y-129671077D01*
X165805392Y-129671812D01*
X165791127Y-129672565D01*
X165776886Y-129673338D01*
X165762672Y-129674128D01*
X165748480Y-129674938D01*
X165734316Y-129675766D01*
X165720174Y-129676613D01*
X165706059Y-129677478D01*
X165691966Y-129678362D01*
X165677901Y-129679264D01*
X165663858Y-129680185D01*
X165649841Y-129681124D01*
X165635848Y-129682081D01*
X165621880Y-129683057D01*
X165607936Y-129684051D01*
X165594017Y-129685064D01*
X165580121Y-129686095D01*
X165566252Y-129687144D01*
X165552405Y-129688211D01*
X165538584Y-129689296D01*
X165524785Y-129690400D01*
X165511013Y-129691521D01*
X165497263Y-129692661D01*
X165483539Y-129693819D01*
X165469837Y-129694995D01*
X165456161Y-129696188D01*
X165442508Y-129697400D01*
X165428880Y-129698630D01*
X165415274Y-129699877D01*
X165401694Y-129701143D01*
X165388136Y-129702426D01*
X165374604Y-129703727D01*
X165361094Y-129705046D01*
X165347609Y-129706383D01*
X165334146Y-129707737D01*
X165320709Y-129709110D01*
X165307294Y-129710499D01*
X165293904Y-129711907D01*
X165280536Y-129713332D01*
X165267193Y-129714775D01*
X165253872Y-129716235D01*
X165240576Y-129717713D01*
X165227302Y-129719208D01*
X165214053Y-129720721D01*
X165200825Y-129722251D01*
X165187623Y-129723799D01*
X165174442Y-129725364D01*
X165161286Y-129726946D01*
X165148152Y-129728546D01*
X165135042Y-129730163D01*
X165121954Y-129731797D01*
X165108891Y-129733449D01*
X165095849Y-129735118D01*
X165082831Y-129736804D01*
X165069835Y-129738507D01*
X165056864Y-129740228D01*
X165043914Y-129741965D01*
X165030988Y-129743720D01*
X165018084Y-129745492D01*
X165005204Y-129747280D01*
X164992345Y-129749086D01*
X164979511Y-129750909D01*
X164966697Y-129752749D01*
X164953908Y-129754605D01*
X164941140Y-129756479D01*
X164928396Y-129758369D01*
X164915673Y-129760277D01*
X164902974Y-129762201D01*
X164890296Y-129764142D01*
X164877642Y-129766100D01*
X164865008Y-129768074D01*
X164852399Y-129770065D01*
X164839810Y-129772073D01*
X164827246Y-129774098D01*
X164814702Y-129776140D01*
X164802181Y-129778197D01*
X164789682Y-129780272D01*
X164777205Y-129782363D01*
X164764750Y-129784471D01*
X164752318Y-129786595D01*
X164739907Y-129788736D01*
X164727519Y-129790893D01*
X164715151Y-129793067D01*
X164702807Y-129795257D01*
X164690484Y-129797464D01*
X164678183Y-129799687D01*
X164665903Y-129801927D01*
X164653646Y-129804182D01*
X164641410Y-129806454D01*
X164629197Y-129808743D01*
X164617004Y-129811047D01*
X164604833Y-129813368D01*
X164592684Y-129815705D01*
X164580557Y-129818059D01*
X164568450Y-129820428D01*
X164556366Y-129822814D01*
X164544302Y-129825216D01*
X164532261Y-129827634D01*
X164520240Y-129830068D01*
X164508242Y-129832518D01*
X164496263Y-129834984D01*
X164484307Y-129837466D01*
X164472372Y-129839965D01*
X164460458Y-129842479D01*
X164448565Y-129845009D01*
X164436694Y-129847555D01*
X164424843Y-129850117D01*
X164413013Y-129852695D01*
X164401205Y-129855289D01*
X164389417Y-129857898D01*
X164377650Y-129860524D01*
X164365905Y-129863165D01*
X164354180Y-129865822D01*
X164342476Y-129868495D01*
X164330793Y-129871184D01*
X164319131Y-129873888D01*
X164307489Y-129876608D01*
X164295868Y-129879344D01*
X164284268Y-129882095D01*
X164272689Y-129884862D01*
X164261129Y-129887645D01*
X164249591Y-129890443D01*
X164238073Y-129893257D01*
X164226576Y-129896086D01*
X164215099Y-129898931D01*
X164203643Y-129901791D01*
X164192207Y-129904668D01*
X164180791Y-129907559D01*
X164169396Y-129910466D01*
X164158021Y-129913388D01*
X164146666Y-129916326D01*
X164135332Y-129919279D01*
X164124017Y-129922248D01*
X164112723Y-129925232D01*
X164101449Y-129928231D01*
X164090196Y-129931246D01*
X164078962Y-129934276D01*
X164067748Y-129937321D01*
X164056554Y-129940382D01*
X164045380Y-129943458D01*
X164034226Y-129946549D01*
X164023092Y-129949655D01*
X164011978Y-129952777D01*
X164000884Y-129955913D01*
X163989809Y-129959065D01*
X163978755Y-129962232D01*
X163967720Y-129965414D01*
X163956705Y-129968612D01*
X163945709Y-129971824D01*
X163934733Y-129975052D01*
X163923777Y-129978294D01*
X163912840Y-129981552D01*
X163901922Y-129984824D01*
X163891025Y-129988112D01*
X163880146Y-129991415D01*
X163869287Y-129994732D01*
X163858448Y-129998065D01*
X163847628Y-130001412D01*
X163836827Y-130004775D01*
X163826046Y-130008152D01*
X163815284Y-130011545D01*
X163804541Y-130014952D01*
X163793817Y-130018374D01*
X163783112Y-130021811D01*
X163772427Y-130025263D01*
X163761761Y-130028730D01*
X163751114Y-130032211D01*
X163740485Y-130035707D01*
X163729876Y-130039218D01*
X163719286Y-130042744D01*
X163708715Y-130046285D01*
X163698163Y-130049840D01*
X163687630Y-130053410D01*
X163677115Y-130056995D01*
X163666620Y-130060594D01*
X163656143Y-130064208D01*
X163645685Y-130067837D01*
X163635245Y-130071480D01*
X163624825Y-130075138D01*
X163614423Y-130078811D01*
X163604039Y-130082498D01*
X163593674Y-130086200D01*
X163583329Y-130089917D01*
X163573001Y-130093648D01*
X163562692Y-130097393D01*
X163552401Y-130101154D01*
X163542129Y-130104928D01*
X163531875Y-130108718D01*
X163521640Y-130112521D01*
X163511423Y-130116340D01*
X163501225Y-130120172D01*
X163491044Y-130124020D01*
X163480883Y-130127881D01*
X163470739Y-130131757D01*
X163460614Y-130135648D01*
X163450506Y-130139553D01*
X163440417Y-130143472D01*
X163430346Y-130147406D01*
X163420293Y-130151354D01*
X163410258Y-130155317D01*
X163400241Y-130159293D01*
X163390242Y-130163285D01*
X163380262Y-130167290D01*
X163370298Y-130171310D01*
X163360354Y-130175344D01*
X163350426Y-130179393D01*
X163340517Y-130183456D01*
X163330625Y-130187533D01*
X163320752Y-130191624D01*
X163310896Y-130195730D01*
X163301058Y-130199850D01*
X163291237Y-130203984D01*
X163281435Y-130208133D01*
X163271650Y-130212295D01*
X163261883Y-130216472D01*
X163252132Y-130220663D01*
X163242401Y-130224868D01*
X163232685Y-130229088D01*
X163222989Y-130233322D01*
X163213308Y-130237570D01*
X163203647Y-130241832D01*
X163194001Y-130246108D01*
X163184374Y-130250398D01*
X163174764Y-130254703D01*
X163165172Y-130259021D01*
X163155596Y-130263354D01*
X163146038Y-130267701D01*
X163136497Y-130272062D01*
X163126974Y-130276437D01*
X163117466Y-130280826D01*
X163107978Y-130285229D01*
X163098505Y-130289646D01*
X163089051Y-130294078D01*
X163079612Y-130298523D01*
X163070192Y-130302982D01*
X163060788Y-130307456D01*
X163051401Y-130311943D01*
X163042031Y-130316445D01*
X163032679Y-130320961D01*
X163023342Y-130325491D01*
X163014024Y-130330034D01*
X163004721Y-130334592D01*
X162995437Y-130339163D01*
X162986167Y-130343749D01*
X162976916Y-130348348D01*
X162967681Y-130352962D01*
X162958463Y-130357589D01*
X162949261Y-130362231D01*
X162940077Y-130366886D01*
X162930908Y-130371556D01*
X162921758Y-130376239D01*
X162912622Y-130380937D01*
X162903505Y-130385648D01*
X162894402Y-130390374D01*
X162885318Y-130395112D01*
X162876248Y-130399866D01*
X162867197Y-130404632D01*
X162858160Y-130409414D01*
X162849142Y-130414208D01*
X162840138Y-130419018D01*
X162831153Y-130423840D01*
X162822182Y-130428677D01*
X162813229Y-130433527D01*
X162804290Y-130438392D01*
X162795370Y-130443269D01*
X162786464Y-130448162D01*
X162777577Y-130453067D01*
X162768703Y-130457988D01*
X162759848Y-130462921D01*
X162751007Y-130467869D01*
X162742184Y-130472830D01*
X162733375Y-130477806D01*
X162724584Y-130482795D01*
X162707048Y-130492815D01*
X162689577Y-130502891D01*
X162672169Y-130513022D01*
X162654826Y-130523208D01*
X162637545Y-130533450D01*
X162620328Y-130543747D01*
X162603174Y-130554099D01*
X162586083Y-130564507D01*
X162569055Y-130574970D01*
X162552089Y-130585489D01*
X162535185Y-130596063D01*
X162518344Y-130606692D01*
X162501565Y-130617376D01*
X162484848Y-130628116D01*
X162468192Y-130638911D01*
X162451598Y-130649762D01*
X162435065Y-130660668D01*
X162418593Y-130671629D01*
X162402183Y-130682646D01*
X162385833Y-130693718D01*
X162369544Y-130704846D01*
X162353315Y-130716029D01*
X162337147Y-130727267D01*
X162321039Y-130738561D01*
X162304991Y-130749911D01*
X162289002Y-130761316D01*
X162273074Y-130772777D01*
X162257205Y-130784293D01*
X162241395Y-130795865D01*
X162225645Y-130807492D01*
X162209953Y-130819175D01*
X162194321Y-130830914D01*
X162178748Y-130842709D01*
X162163233Y-130854560D01*
X162147777Y-130866466D01*
X162132379Y-130878428D01*
X162117039Y-130890446D01*
X162101757Y-130902521D01*
X162086534Y-130914651D01*
X162071368Y-130926837D01*
X162056260Y-130939080D01*
X162041209Y-130951379D01*
X162026216Y-130963734D01*
X162011280Y-130976145D01*
X161996402Y-130988613D01*
X161981580Y-131001137D01*
X161966816Y-131013717D01*
X161952108Y-131026355D01*
X161937457Y-131039049D01*
X161922862Y-131051799D01*
X161908324Y-131064606D01*
X161893842Y-131077471D01*
X161879417Y-131090392D01*
X161865048Y-131103370D01*
X161850734Y-131116405D01*
X161836477Y-131129498D01*
X161822275Y-131142647D01*
X161808129Y-131155854D01*
X161794039Y-131169119D01*
X161780004Y-131182441D01*
X161766025Y-131195820D01*
X161752101Y-131209257D01*
X161738232Y-131222752D01*
X161724418Y-131236305D01*
X161710660Y-131249916D01*
X161696956Y-131263585D01*
X161683307Y-131277312D01*
X161669713Y-131291097D01*
X161656174Y-131304941D01*
X161642689Y-131318843D01*
X161629259Y-131332803D01*
X161615883Y-131346823D01*
X161602561Y-131360901D01*
X161589294Y-131375038D01*
X161576081Y-131389233D01*
X161562923Y-131403489D01*
X161549818Y-131417803D01*
X161536767Y-131432176D01*
X161523771Y-131446609D01*
X161510828Y-131461102D01*
X161497939Y-131475654D01*
X161485104Y-131490266D01*
X161472322Y-131504938D01*
X161459595Y-131519670D01*
X161446921Y-131534463D01*
X161434300Y-131549315D01*
X161421733Y-131564228D01*
X161409220Y-131579202D01*
X161396760Y-131594236D01*
X161384353Y-131609331D01*
X161371999Y-131624487D01*
X161359699Y-131639704D01*
X161347453Y-131654982D01*
X161335259Y-131670322D01*
X161323119Y-131685723D01*
X161311031Y-131701186D01*
X161298997Y-131716710D01*
X161287017Y-131732297D01*
X161275089Y-131747945D01*
X161263214Y-131763656D01*
X161251392Y-131779429D01*
X161239623Y-131795265D01*
X161227908Y-131811163D01*
X161216245Y-131827124D01*
X161204635Y-131843149D01*
X161193079Y-131859236D01*
X161181575Y-131875386D01*
X161170124Y-131891600D01*
X161158726Y-131907877D01*
X161147381Y-131924218D01*
X161136089Y-131940623D01*
X161124850Y-131957092D01*
X161113664Y-131973626D01*
X161102530Y-131990223D01*
X161091450Y-132006885D01*
X161080423Y-132023612D01*
X161069448Y-132040404D01*
X161058527Y-132057260D01*
X161047659Y-132074182D01*
X161036843Y-132091169D01*
X161026081Y-132108222D01*
X161015372Y-132125340D01*
X161004716Y-132142524D01*
X160994112Y-132159774D01*
X160983563Y-132177091D01*
X160973066Y-132194474D01*
X160962622Y-132211923D01*
X160952232Y-132229439D01*
X160941894Y-132247021D01*
X160931611Y-132264671D01*
X160921380Y-132282388D01*
X160911203Y-132300173D01*
X160901079Y-132318025D01*
X160891009Y-132335944D01*
X160880992Y-132353932D01*
X160871028Y-132371988D01*
X160861119Y-132390112D01*
X160851263Y-132408305D01*
X160841460Y-132426566D01*
X160831712Y-132444896D01*
X160822017Y-132463295D01*
X160812376Y-132481763D01*
X160802789Y-132500300D01*
X160793256Y-132518907D01*
X160783777Y-132537584D01*
X160774352Y-132556331D01*
X160764981Y-132575148D01*
X160755665Y-132594035D01*
X160746403Y-132612993D01*
X160737195Y-132632021D01*
X160728042Y-132651120D01*
X160718944Y-132670290D01*
X160709900Y-132689531D01*
X160700911Y-132708844D01*
X160691976Y-132728228D01*
X160683097Y-132747684D01*
X160674273Y-132767212D01*
X160665503Y-132786812D01*
X160656789Y-132806485D01*
X160648130Y-132826230D01*
X160639527Y-132846048D01*
X160630979Y-132865938D01*
X160622486Y-132885902D01*
X160614049Y-132905939D01*
X160605668Y-132926049D01*
X160597343Y-132946233D01*
X160589074Y-132966491D01*
X160580861Y-132986823D01*
X160572704Y-133007229D01*
X160564604Y-133027709D01*
X160556559Y-133048264D01*
X160548572Y-133068894D01*
X160540641Y-133089598D01*
X160532767Y-133110378D01*
X160524950Y-133131233D01*
X160517189Y-133152164D01*
X160509486Y-133173170D01*
X160501841Y-133194252D01*
X160494252Y-133215410D01*
X160486722Y-133236645D01*
X160479248Y-133257955D01*
X160471833Y-133279343D01*
X160464476Y-133300807D01*
X160457176Y-133322348D01*
X160449935Y-133343966D01*
X160442753Y-133365662D01*
X160435628Y-133387435D01*
X160428563Y-133409286D01*
X160421556Y-133431214D01*
X160414608Y-133453221D01*
X160407720Y-133475306D01*
X160400890Y-133497469D01*
X160394120Y-133519710D01*
X160387409Y-133542031D01*
X160380759Y-133564430D01*
X160374168Y-133586908D01*
X160367637Y-133609466D01*
X160361166Y-133632103D01*
X160354755Y-133654819D01*
X160348406Y-133677616D01*
X160342116Y-133700492D01*
X160335888Y-133723448D01*
X160329720Y-133746484D01*
X160323614Y-133769601D01*
X160317569Y-133792799D01*
X160311586Y-133816077D01*
X160305664Y-133839436D01*
X160299805Y-133862875D01*
X160294007Y-133886396D01*
X160288271Y-133909999D01*
X160282598Y-133933683D01*
X160276988Y-133957448D01*
X160271440Y-133981295D01*
X160265955Y-134005224D01*
X160260533Y-134029235D01*
X160255175Y-134053328D01*
X160249880Y-134077504D01*
X160244649Y-134101762D01*
X160239482Y-134126102D01*
X160234379Y-134150526D01*
X160229340Y-134175032D01*
X160224366Y-134199621D01*
X160219456Y-134224293D01*
X160214611Y-134249048D01*
X160209832Y-134273887D01*
X160205117Y-134298809D01*
X160200468Y-134323814D01*
X160195885Y-134348904D01*
X160191368Y-134374077D01*
X160186916Y-134399334D01*
X160182531Y-134424674D01*
X160178213Y-134450099D01*
X160173961Y-134475608D01*
X160169776Y-134501202D01*
X160165659Y-134526879D01*
X160161608Y-134552641D01*
X160157625Y-134578488D01*
X160153710Y-134604419D01*
X160149863Y-134630435D01*
X160146084Y-134656535D01*
X160142373Y-134682720D01*
X160138732Y-134708990D01*
X160135158Y-134735345D01*
X160131654Y-134761785D01*
X160128220Y-134788310D01*
X160124854Y-134814920D01*
X160121559Y-134841615D01*
X160118333Y-134868395D01*
X160115178Y-134895260D01*
X160112093Y-134922210D01*
X160109078Y-134949245D01*
X160106135Y-134976366D01*
X160103262Y-135003572D01*
X160100461Y-135030863D01*
X160097731Y-135058239D01*
X160095073Y-135085701D01*
X160092487Y-135113247D01*
X160089973Y-135140879D01*
X160087531Y-135168596D01*
X160085163Y-135196397D01*
X160082866Y-135224284D01*
X160080644Y-135252256D01*
X160078494Y-135280313D01*
X160076418Y-135308455D01*
X160074416Y-135336681D01*
X160072487Y-135364992D01*
X160070633Y-135393388D01*
X160068853Y-135421868D01*
X160067148Y-135450433D01*
X160065518Y-135479082D01*
X160063964Y-135507816D01*
X160062484Y-135536633D01*
X160061080Y-135565535D01*
X160059752Y-135594520D01*
X160058500Y-135623589D01*
X160057324Y-135652741D01*
X160056225Y-135681976D01*
X160055202Y-135711295D01*
X160054256Y-135740697D01*
X160053388Y-135770181D01*
X160052596Y-135799748D01*
X160051883Y-135829397D01*
X160051247Y-135859129D01*
X160050689Y-135888942D01*
X160050210Y-135918836D01*
X160049809Y-135948812D01*
X160049487Y-135978869D01*
X160049243Y-136009006D01*
X160049079Y-136039224D01*
X160048994Y-136069522D01*
X160048988Y-136099899D01*
X160049063Y-136130356D01*
X160049217Y-136160891D01*
X160049451Y-136191505D01*
X160049766Y-136222198D01*
X160050161Y-136252968D01*
X160050637Y-136283815D01*
X160051194Y-136314739D01*
X160051832Y-136345739D01*
X160052551Y-136376815D01*
X160053352Y-136407966D01*
X160054234Y-136439192D01*
X160055198Y-136470492D01*
X160056244Y-136501866D01*
X160057373Y-136533313D01*
X160058584Y-136564832D01*
X160059877Y-136596423D01*
X160061253Y-136628084D01*
X160062711Y-136659817D01*
X160064253Y-136691618D01*
X160065878Y-136723489D01*
X160067586Y-136755427D01*
X160069377Y-136787433D01*
X160071252Y-136819506D01*
X160073211Y-136851643D01*
X160075253Y-136883846D01*
X160077379Y-136916112D01*
X160079589Y-136948441D01*
X160081883Y-136980831D01*
X160084261Y-137013283D01*
X160086724Y-137045794D01*
X160089270Y-137078363D01*
X160091901Y-137110989D01*
X160094617Y-137143672D01*
X160097417Y-137176410D01*
X160100301Y-137209201D01*
X160103270Y-137242044D01*
X160106323Y-137274938D01*
X160109461Y-137307882D01*
X160112683Y-137340873D01*
X160115990Y-137373911D01*
X160119381Y-137406994D01*
X160122856Y-137440119D01*
X160126416Y-137473286D01*
X160130060Y-137506492D01*
X160133788Y-137539736D01*
X160137600Y-137573016D01*
X160141496Y-137606330D01*
X160145476Y-137639675D01*
X160149539Y-137673049D01*
X160153686Y-137706451D01*
X160157916Y-137739877D01*
X160162229Y-137773326D01*
X160166624Y-137806795D01*
X160171102Y-137840281D01*
X160175662Y-137873781D01*
X160180303Y-137907293D01*
X160185026Y-137940813D01*
X160189830Y-137974339D01*
X160194714Y-138007867D01*
X160199678Y-138041394D01*
X160204722Y-138074916D01*
X160209844Y-138108430D01*
X160215045Y-138141931D01*
X160220324Y-138175416D01*
X160225680Y-138208880D01*
X160231111Y-138242320D01*
X160236619Y-138275729D01*
X160242201Y-138309104D01*
X160247856Y-138342440D01*
X160253584Y-138375730D01*
X160259384Y-138408969D01*
X160265254Y-138442152D01*
X160271193Y-138475272D01*
X160277200Y-138508322D01*
X160283274Y-138541296D01*
X160289412Y-138574186D01*
X160295614Y-138606984D01*
X160301877Y-138639682D01*
X160308199Y-138672271D01*
X160314579Y-138704742D01*
X160321014Y-138737085D01*
X160327501Y-138769290D01*
X160334039Y-138801344D01*
X160340624Y-138833236D01*
X160347253Y-138864953D01*
X160353923Y-138896480D01*
X160360629Y-138927803D01*
X160367368Y-138958906D01*
X160374136Y-138989770D01*
X160380928Y-139020376D01*
X160387737Y-139050703D01*
X160394559Y-139080728D01*
X160401386Y-139110425D01*
X160408211Y-139139766D01*
X160415025Y-139168719D01*
X160421820Y-139197250D01*
X160428583Y-139225317D01*
X160435303Y-139252875D01*
X160441965Y-139279872D01*
X160448552Y-139306246D01*
X160455044Y-139331926D01*
X160461416Y-139356823D01*
X160467639Y-139380833D01*
X160473672Y-139403820D01*
X160479468Y-139425611D01*
X160484956Y-139445967D01*
X160490035Y-139464542D01*
X160494543Y-139480780D01*
X160498164Y-139493609D01*
X160500000Y-139500000D01*
D10*
X169500000Y-130000000D02*
X169500000Y-58000000D01*
M02*
