%TF.GenerationSoftware,KiCad,Pcbnew,10.0.4*%
%TF.CreationDate,2026-07-08T07:11:57-04:00*%
%TF.ProjectId,smart-doorbell,736d6172-742d-4646-9f6f-7262656c6c2e,rev?*%
%TF.SameCoordinates,Original*%
%TF.FileFunction,Soldermask,Top*%
%TF.FilePolarity,Negative*%
%FSLAX46Y46*%
G04 Gerber Fmt 4.6, Leading zero omitted, Abs format (unit mm)*
G04 Created by KiCad (PCBNEW 10.0.4) date 2026-07-08 07:11:57*
%MOMM*%
%LPD*%
G01*
G04 APERTURE LIST*
G04 Aperture macros list*
%AMRoundRect*
0 Rectangle with rounded corners*
0 $1 Rounding radius*
0 $2 $3 $4 $5 $6 $7 $8 $9 X,Y pos of 4 corners*
0 Add a 4 corners polygon primitive as box body*
4,1,4,$2,$3,$4,$5,$6,$7,$8,$9,$2,$3,0*
0 Add four circle primitives for the rounded corners*
1,1,$1+$1,$2,$3*
1,1,$1+$1,$4,$5*
1,1,$1+$1,$6,$7*
1,1,$1+$1,$8,$9*
0 Add four rect primitives between the rounded corners*
20,1,$1+$1,$2,$3,$4,$5,0*
20,1,$1+$1,$4,$5,$6,$7,0*
20,1,$1+$1,$6,$7,$8,$9,0*
20,1,$1+$1,$8,$9,$2,$3,0*%
%AMFreePoly0*
4,1,64,0.235856,1.440014,0.383010,1.379061,0.515445,1.290571,0.628071,1.177945,0.716561,1.045510,0.777514,0.898356,0.808588,0.742139,0.808588,0.582861,0.777514,0.426644,0.716561,0.279490,0.628071,0.147055,0.515445,0.034429,0.383010,-0.054061,0.235856,-0.115014,0.079639,-0.146088,0.031751,-0.146088,0.029264,-0.147118,-0.029264,-0.147118,-0.031751,-0.146088,-0.079639,-0.146088,
-0.235856,-0.115014,-0.383010,-0.054061,-0.515445,0.034429,-0.628071,0.147055,-0.716561,0.279490,-0.777514,0.426644,-0.808588,0.582861,-0.808588,0.729972,-0.512500,0.729972,-0.512500,0.595028,-0.477574,0.464683,-0.410102,0.347818,-0.314682,0.252398,-0.197817,0.184926,-0.067472,0.150000,0.067472,0.150000,0.197817,0.184926,0.314682,0.252398,0.410102,0.347818,0.477574,0.464683,
0.512500,0.595028,0.512500,0.729972,0.477574,0.860317,0.410102,0.977182,0.314682,1.072602,0.197817,1.140074,0.067472,1.175000,-0.067472,1.175000,-0.197817,1.140074,-0.314682,1.072602,-0.410102,0.977182,-0.477574,0.860317,-0.512500,0.729972,-0.808588,0.729972,-0.808588,0.742139,-0.777514,0.898356,-0.716561,1.045510,-0.628071,1.177945,-0.515445,1.290571,-0.383010,1.379061,
-0.235856,1.440014,-0.079639,1.471088,0.079639,1.471088,0.235856,1.440014,0.235856,1.440014,$1*%
G04 Aperture macros list end*
%ADD10RoundRect,0.200000X-0.200000X-0.275000X0.200000X-0.275000X0.200000X0.275000X-0.200000X0.275000X0*%
%ADD11RoundRect,0.225000X-0.225000X-0.250000X0.225000X-0.250000X0.225000X0.250000X-0.225000X0.250000X0*%
%ADD12RoundRect,0.200000X0.200000X0.275000X-0.200000X0.275000X-0.200000X-0.275000X0.200000X-0.275000X0*%
%ADD13RoundRect,0.225000X0.250000X-0.225000X0.250000X0.225000X-0.250000X0.225000X-0.250000X-0.225000X0*%
%ADD14RoundRect,0.250000X-0.350000X-0.625000X0.350000X-0.625000X0.350000X0.625000X-0.350000X0.625000X0*%
%ADD15O,1.200000X1.750000*%
%ADD16RoundRect,0.225000X-0.250000X0.225000X-0.250000X-0.225000X0.250000X-0.225000X0.250000X0.225000X0*%
%ADD17C,0.500000*%
%ADD18R,0.600000X0.522000*%
%ADD19FreePoly0,90.000000*%
%ADD20RoundRect,0.200000X0.275000X-0.200000X0.275000X0.200000X-0.275000X0.200000X-0.275000X-0.200000X0*%
%ADD21RoundRect,0.225000X0.225000X0.250000X-0.225000X0.250000X-0.225000X-0.250000X0.225000X-0.250000X0*%
%ADD22RoundRect,0.150000X0.512500X0.150000X-0.512500X0.150000X-0.512500X-0.150000X0.512500X-0.150000X0*%
%ADD23R,0.900000X1.700000*%
%ADD24RoundRect,0.150000X-0.512500X-0.150000X0.512500X-0.150000X0.512500X0.150000X-0.512500X0.150000X0*%
%ADD25R,0.300000X1.300000*%
%ADD26R,1.800000X2.200000*%
%ADD27C,0.650000*%
%ADD28RoundRect,0.150000X-0.150000X-0.575000X0.150000X-0.575000X0.150000X0.575000X-0.150000X0.575000X0*%
%ADD29RoundRect,0.075000X-0.075000X-0.650000X0.075000X-0.650000X0.075000X0.650000X-0.075000X0.650000X0*%
%ADD30O,1.000000X2.100000*%
%ADD31O,1.000000X1.600000*%
%ADD32RoundRect,0.218750X0.256250X-0.218750X0.256250X0.218750X-0.256250X0.218750X-0.256250X-0.218750X0*%
%ADD33R,1.500000X0.900000*%
%ADD34R,0.900000X1.500000*%
%ADD35C,0.600000*%
%ADD36R,3.900000X3.900000*%
%ADD37C,2.700000*%
%ADD38RoundRect,0.200000X-0.275000X0.200000X-0.275000X-0.200000X0.275000X-0.200000X0.275000X0.200000X0*%
%ADD39R,1.700000X1.700000*%
%ADD40C,1.700000*%
%ADD41RoundRect,0.062500X-0.350000X-0.062500X0.350000X-0.062500X0.350000X0.062500X-0.350000X0.062500X0*%
%ADD42RoundRect,0.062500X-0.062500X-0.350000X0.062500X-0.350000X0.062500X0.350000X-0.062500X0.350000X0*%
%ADD43R,1.230000X1.230000*%
G04 APERTURE END LIST*
D10*
%TO.C,R12*%
X154950000Y-105400000D03*
X156600000Y-105400000D03*
%TD*%
D11*
%TO.C,C1*%
X123909799Y-58948577D03*
X125459799Y-58948577D03*
%TD*%
D12*
%TO.C,R18*%
X129600000Y-88000000D03*
X127950000Y-88000000D03*
%TD*%
D13*
%TO.C,C9*%
X141900000Y-91050000D03*
X141900000Y-89500000D03*
%TD*%
%TO.C,C13*%
X167000000Y-106275000D03*
X167000000Y-104725000D03*
%TD*%
D14*
%TO.C,J7*%
X158500000Y-79000000D03*
D15*
X160500000Y-79000000D03*
X162500000Y-79000000D03*
%TD*%
D10*
%TO.C,R10*%
X146275000Y-132200000D03*
X147925000Y-132200000D03*
%TD*%
D11*
%TO.C,C14*%
X123275000Y-71700000D03*
X124825000Y-71700000D03*
%TD*%
D16*
%TO.C,C15*%
X134900000Y-99875000D03*
X134900000Y-101425000D03*
%TD*%
D10*
%TO.C,R5*%
X139350000Y-121650000D03*
X141000000Y-121650000D03*
%TD*%
D17*
%TO.C,MK1*%
X114200000Y-82702000D03*
D18*
X113300000Y-80628000D03*
X113300000Y-81450000D03*
D19*
X114862500Y-82702000D03*
D18*
X115100000Y-81450000D03*
X115100000Y-80628000D03*
X114200000Y-80628000D03*
%TD*%
D10*
%TO.C,R14*%
X137200000Y-91200000D03*
X138850000Y-91200000D03*
%TD*%
D20*
%TO.C,R20*%
X129900000Y-86600000D03*
X129900000Y-84950000D03*
%TD*%
D10*
%TO.C,R1*%
X123200000Y-70100000D03*
X124850000Y-70100000D03*
%TD*%
D21*
%TO.C,C18*%
X145200000Y-95650000D03*
X143650000Y-95650000D03*
%TD*%
D11*
%TO.C,C22*%
X137250000Y-89500000D03*
X138800000Y-89500000D03*
%TD*%
D20*
%TO.C,R16*%
X151600000Y-86800000D03*
X151600000Y-85150000D03*
%TD*%
D22*
%TO.C,U5*%
X141200000Y-129450000D03*
X141200000Y-128500000D03*
X141200000Y-127550000D03*
X138925000Y-127550000D03*
X138925000Y-128500000D03*
X138925000Y-129450000D03*
%TD*%
D23*
%TO.C,BOOT1*%
X121900000Y-62600000D03*
X125300000Y-62600000D03*
%TD*%
D16*
%TO.C,C17*%
X142100000Y-99650000D03*
X142100000Y-101200000D03*
%TD*%
D12*
%TO.C,R6*%
X134050000Y-132300000D03*
X132400000Y-132300000D03*
%TD*%
D22*
%TO.C,U6*%
X137887500Y-99300000D03*
X137887500Y-97400000D03*
X135612500Y-98350000D03*
%TD*%
D10*
%TO.C,R17*%
X149800000Y-88400000D03*
X151450000Y-88400000D03*
%TD*%
D24*
%TO.C,U3*%
X138853829Y-107308672D03*
X138853829Y-108258672D03*
X138853829Y-109208672D03*
X141128829Y-109208672D03*
X141128829Y-107308672D03*
%TD*%
D13*
%TO.C,C5*%
X117400000Y-82700000D03*
X117400000Y-81150000D03*
%TD*%
D25*
%TO.C,J3*%
X145600000Y-86350000D03*
X145100000Y-86350000D03*
X144600000Y-86350000D03*
X144100000Y-86350000D03*
X143600000Y-86350000D03*
X143100000Y-86350000D03*
X142600000Y-86350000D03*
X142100000Y-86350000D03*
X141600000Y-86350000D03*
X141100000Y-86350000D03*
X140600000Y-86350000D03*
X140100000Y-86350000D03*
X139600000Y-86350000D03*
X139100000Y-86350000D03*
X138600000Y-86350000D03*
X138100000Y-86350000D03*
X137600000Y-86350000D03*
X137100000Y-86350000D03*
X136600000Y-86350000D03*
X136100000Y-86350000D03*
X135600000Y-86350000D03*
X135100000Y-86350000D03*
X134600000Y-86350000D03*
X134100000Y-86350000D03*
D26*
X147500000Y-83100000D03*
X132200000Y-83100000D03*
%TD*%
D13*
%TO.C,C19*%
X160100000Y-87450000D03*
X160100000Y-85900000D03*
%TD*%
D14*
%TO.C,J8*%
X136900000Y-114650000D03*
D15*
X138900000Y-114650000D03*
X140900000Y-114650000D03*
X142900000Y-114650000D03*
%TD*%
D27*
%TO.C,J2*%
X137210000Y-133400000D03*
X142990000Y-133400000D03*
D28*
X136850000Y-131955000D03*
X137650000Y-131955000D03*
D29*
X138850000Y-131955000D03*
X139850000Y-131955000D03*
X140350000Y-131955000D03*
X141350000Y-131955000D03*
D28*
X142550000Y-131955000D03*
X143350000Y-131955000D03*
X143350000Y-131955000D03*
X142550000Y-131955000D03*
D29*
X141850000Y-131955000D03*
X140850000Y-131955000D03*
X139350000Y-131955000D03*
X138350000Y-131955000D03*
D28*
X137650000Y-131955000D03*
X136850000Y-131955000D03*
D30*
X135780000Y-132870000D03*
D31*
X135780000Y-137050000D03*
D30*
X144420000Y-132870000D03*
D31*
X144420000Y-137050000D03*
%TD*%
D24*
%TO.C,U2*%
X154862500Y-107750000D03*
X154862500Y-108700000D03*
X154862500Y-109650000D03*
X157137500Y-109650000D03*
X157137500Y-107750000D03*
%TD*%
D14*
%TO.C,J6*%
X118800000Y-90550000D03*
D15*
X120800000Y-90550000D03*
%TD*%
D11*
%TO.C,C2*%
X123909799Y-56548577D03*
X125459799Y-56548577D03*
%TD*%
D32*
%TO.C,D2*%
X155100000Y-133987500D03*
X155100000Y-132412500D03*
%TD*%
D21*
%TO.C,C21*%
X135700000Y-89450000D03*
X134150000Y-89450000D03*
%TD*%
D33*
%TO.C,U1*%
X131110000Y-56490000D03*
X131110000Y-57760000D03*
X131110000Y-59030000D03*
X131110000Y-60300000D03*
X131110000Y-61570000D03*
X131110000Y-62840000D03*
X131110000Y-64110000D03*
X131110000Y-65380000D03*
X131110000Y-66650000D03*
X131110000Y-67920000D03*
X131110000Y-69190000D03*
X131110000Y-70460000D03*
X131110000Y-71730000D03*
X131110000Y-73000000D03*
D34*
X132875000Y-74250000D03*
X134145000Y-74250000D03*
X135415000Y-74250000D03*
X136685000Y-74250000D03*
X137955000Y-74250000D03*
X139225000Y-74250000D03*
X140495000Y-74250000D03*
X141765000Y-74250000D03*
X143035000Y-74250000D03*
X144305000Y-74250000D03*
X145575000Y-74250000D03*
X146845000Y-74250000D03*
D33*
X148610000Y-73000000D03*
X148610000Y-71730000D03*
X148610000Y-70460000D03*
X148610000Y-69190000D03*
X148610000Y-67920000D03*
X148610000Y-66650000D03*
X148610000Y-65380000D03*
X148610000Y-64110000D03*
X148610000Y-62840000D03*
X148610000Y-61570000D03*
X148610000Y-60300000D03*
X148610000Y-59030000D03*
X148610000Y-57760000D03*
X148610000Y-56490000D03*
D35*
X136960000Y-63510000D03*
X136960000Y-64910000D03*
X137660000Y-62810000D03*
X137660000Y-64210000D03*
X137660000Y-65610000D03*
X138360000Y-63510000D03*
D36*
X138360000Y-64210000D03*
D35*
X138360000Y-64910000D03*
X139060000Y-62810000D03*
X139060000Y-64210000D03*
X139060000Y-65610000D03*
X139760000Y-63510000D03*
X139760000Y-64910000D03*
%TD*%
D37*
%TO.C,REF\u002A\u002A*%
X117500000Y-116500000D03*
%TD*%
D21*
%TO.C,C20*%
X145375000Y-91050000D03*
X143825000Y-91050000D03*
%TD*%
D37*
%TO.C,REF\u002A\u002A*%
X162500000Y-71500000D03*
%TD*%
D14*
%TO.C,J1*%
X161200000Y-106900000D03*
D15*
X163200000Y-106900000D03*
%TD*%
D21*
%TO.C,C23*%
X145375000Y-89450000D03*
X143825000Y-89450000D03*
%TD*%
D23*
%TO.C,RESET1*%
X153300000Y-62700000D03*
X156700000Y-62700000D03*
%TD*%
D10*
%TO.C,R2*%
X155050000Y-111800000D03*
X156700000Y-111800000D03*
%TD*%
D11*
%TO.C,C8*%
X139225000Y-118700000D03*
X140775000Y-118700000D03*
%TD*%
D16*
%TO.C,C3*%
X136853829Y-107483672D03*
X136853829Y-109033672D03*
%TD*%
D22*
%TO.C,U7*%
X145100000Y-99300000D03*
X145100000Y-97400000D03*
X142825000Y-98350000D03*
%TD*%
D12*
%TO.C,R13*%
X124775000Y-68400000D03*
X123125000Y-68400000D03*
%TD*%
D13*
%TO.C,C10*%
X153100000Y-58075000D03*
X153100000Y-56525000D03*
%TD*%
D38*
%TO.C,R15*%
X149800000Y-85200000D03*
X149800000Y-86850000D03*
%TD*%
D13*
%TO.C,C27*%
X116572500Y-102060000D03*
X116572500Y-100510000D03*
%TD*%
D32*
%TO.C,D3*%
X153200000Y-80575000D03*
X153200000Y-79000000D03*
%TD*%
D39*
%TO.C,J4*%
X162600000Y-86760000D03*
D40*
X162600000Y-89300000D03*
X162600000Y-91840000D03*
X162600000Y-94380000D03*
X162600000Y-96920000D03*
X162600000Y-99460000D03*
%TD*%
D38*
%TO.C,R9*%
X154400000Y-66475000D03*
X154400000Y-68125000D03*
%TD*%
D16*
%TO.C,C26*%
X123172500Y-100560000D03*
X123172500Y-102110000D03*
%TD*%
D20*
%TO.C,R19*%
X128000000Y-86600000D03*
X128000000Y-84950000D03*
%TD*%
D38*
%TO.C,R8*%
X154700000Y-56450000D03*
X154700000Y-58100000D03*
%TD*%
D20*
%TO.C,R3*%
X150500000Y-80650000D03*
X150500000Y-79000000D03*
%TD*%
D10*
%TO.C,R4*%
X153975000Y-71300000D03*
X155625000Y-71300000D03*
%TD*%
D37*
%TO.C,REF\u002A\u002A*%
X162500000Y-116500000D03*
%TD*%
D11*
%TO.C,C16*%
X136425000Y-95650000D03*
X137975000Y-95650000D03*
%TD*%
D21*
%TO.C,C25*%
X135700000Y-91150000D03*
X134150000Y-91150000D03*
%TD*%
D37*
%TO.C,REF\u002A\u002A*%
X117500000Y-71500000D03*
%TD*%
D41*
%TO.C,U4*%
X118425000Y-100450000D03*
X118425000Y-100950000D03*
X118425000Y-101450000D03*
X118425000Y-101950000D03*
D42*
X119112500Y-102637500D03*
X119612500Y-102637500D03*
X120112500Y-102637500D03*
X120612500Y-102637500D03*
D41*
X121300000Y-101950000D03*
X121300000Y-101450000D03*
X121300000Y-100950000D03*
X121300000Y-100450000D03*
D42*
X120612500Y-99762500D03*
X120112500Y-99762500D03*
X119612500Y-99762500D03*
X119112500Y-99762500D03*
D43*
X119862500Y-101200000D03*
%TD*%
D20*
%TO.C,R7*%
X156200000Y-58150000D03*
X156200000Y-56500000D03*
%TD*%
M02*
