M48
; DRILL file KiCad 10.0.2 date 2026-05-09T23:15:25
; FORMAT={-:-/ absolute / metric / decimal}
; #@! TF.CreationDate,2026-05-09T23:15:25-04:00
; #@! TF.GenerationSoftware,Kicad,Pcbnew,10.0.2
; #@! TF.FileFunction,Plated,1,2,PTH
FMAT,2
METRIC
; #@! TA.AperFunction,Plated,PTH,ViaDrill
T1C0.300
; #@! TA.AperFunction,Plated,PTH,ComponentDrill
T2C0.300
; #@! TA.AperFunction,Plated,PTH,ComponentDrill
T3C0.600
; #@! TA.AperFunction,Plated,PTH,ComponentDrill
T4C0.750
; #@! TA.AperFunction,Plated,PTH,ComponentDrill
T5C1.000
%
G90
G05
T1
X113.4Y-92.8
X114.2Y-65.3
X114.3Y-102.1
X115.1Y-77.2
X115.3Y-84.0
X116.025Y-82.4
X116.1Y-85.4
X117.2Y-90.4
X117.4Y-81.15
X118.8Y-96.5
X119.1Y-98.0
X119.2Y-87.8
X119.325Y-77.0
X119.4Y-82.7
X120.8Y-91.9
X120.8Y-92.8
X120.8Y-98.0
X121.2Y-70.7
X121.8Y-111.3
X121.9Y-94.2
X121.9Y-97.3
X122.3Y-103.8
X123.3Y-103.5
X123.725Y-56.425
X123.725Y-57.625
X124.2Y-120.3
X124.2Y-121.3
X125.0Y-92.1
X125.125Y-56.425
X125.125Y-57.625
X125.4Y-96.0
X125.4Y-120.3
X125.4Y-121.3
X125.7Y-70.1
X126.2Y-72.7
X126.94Y-73.005
X127.605Y-62.66
X127.787Y-72.961
X127.8Y-56.5
X127.8Y-58.9
X128.62Y-72.796
X128.752Y-59.857
X128.9Y-64.8
X129.0Y-91.4
X129.1Y-92.3
X129.36Y-72.377
X129.6Y-101.5
X130.1Y-77.0
X130.2Y-76.2
X130.2Y-77.8
X130.2Y-78.6
X130.3Y-75.4
X132.8Y-71.7
X133.7Y-127.6
X133.7Y-128.6
X134.1Y-56.7
X134.7Y-127.6
X134.7Y-128.6
X138.175Y-88.687
X138.7Y-59.0
X138.7Y-85.35
X139.2Y-94.3
X139.2Y-100.3
X139.5Y-84.6
X139.6Y-130.5
X139.964Y-128.464
X140.0Y-89.3
X140.0Y-95.25
X140.0Y-125.7
X141.4Y-126.4
X142.1Y-86.95
X142.3Y-103.9
X143.0Y-84.6
X143.05Y-69.3
X143.1Y-126.4
X143.2Y-100.8
X143.2Y-102.0
X143.314Y-76.431
X143.85Y-69.3
X144.025Y-88.6
X144.2Y-76.5
X144.6Y-100.8
X144.6Y-102.0
X144.7Y-69.3
X145.023Y-76.423
X145.4Y-67.9
X145.5Y-69.3
X145.575Y-85.35
X145.575Y-86.95
X145.9Y-76.5
X146.6Y-103.9
X147.2Y-123.9
X147.2Y-125.1
X147.5Y-90.5
X147.5Y-92.75
X148.4Y-123.9
X148.458Y-125.058
X149.7Y-90.375
X151.0Y-56.5
X152.3Y-61.6
X152.3Y-112.3
X153.1Y-58.075
X154.9Y-108.7
X154.9Y-113.7
X154.95Y-105.4
X155.5Y-81.7
X156.3Y-77.8
X158.0Y-119.8
X158.0Y-120.8
X158.3Y-105.4
X158.3Y-107.7
X158.3Y-108.5
X159.2Y-119.8
X159.2Y-120.8
X160.4Y-77.1
X161.1Y-112.9
X161.1Y-113.7
X164.9Y-99.4
T2
X137.0Y-61.09
X137.0Y-62.59
X137.75Y-60.34
X137.75Y-61.84
X137.75Y-63.34
X138.5Y-61.09
X138.5Y-62.59
X139.25Y-60.34
X139.25Y-61.84
X139.25Y-63.34
X140.0Y-61.09
X140.0Y-62.59
T4
X118.8Y-90.55
X120.8Y-90.55
X139.1Y-117.15
X141.1Y-117.15
X158.5Y-79.0
X160.5Y-79.0
X161.2Y-106.9
X162.5Y-79.0
X163.2Y-106.9
T5
X162.6Y-86.76
X162.6Y-89.3
X162.6Y-91.84
X162.6Y-94.38
X162.6Y-96.92
X162.6Y-99.46
T3
G00X135.78Y-132.32
M15
G01X135.78Y-133.42
M16
G05
G00X135.78Y-136.75
M15
G01X135.78Y-137.35
M16
G05
G00X144.42Y-132.32
M15
G01X144.42Y-133.42
M16
G05
G00X144.42Y-136.75
M15
G01X144.42Y-137.35
M16
G05
M30
